<?xml version="1.0" encoding="utf-8" standalone="no"?>
<!DOCTYPE svg PUBLIC "-//W3C//DTD SVG 1.1//EN"
  "http://www.w3.org/Graphics/SVG/1.1/DTD/svg11.dtd">
<svg xmlns:xlink="http://www.w3.org/1999/xlink" width="360pt" height="216pt" viewBox="0 0 360 216" xmlns="http://www.w3.org/2000/svg" version="1.1">
 <metadata>
  <rdf:RDF xmlns:dc="http://purl.org/dc/elements/1.1/" xmlns:cc="http://creativecommons.org/ns#" xmlns:rdf="http://www.w3.org/1999/02/22-rdf-syntax-ns#">
   <cc:Work>
    <dc:type rdf:resource="http://purl.org/dc/dcmitype/StillImage"/>
    <dc:date>2025-07-09T13:20:31.801916</dc:date>
    <dc:format>image/svg+xml</dc:format>
    <dc:creator>
     <cc:Agent>
      <dc:title>Matplotlib v3.8.4, https://matplotlib.org/</dc:title>
     </cc:Agent>
    </dc:creator>
   </cc:Work>
  </rdf:RDF>
 </metadata>
 <defs>
  <style type="text/css">*{stroke-linejoin: round; stroke-linecap: butt}</style>
 </defs>
 <g id="figure_1">
  <g id="patch_1">
   <path d="M 0 216 
L 360 216 
L 360 0 
L 0 0 
L 0 216 
z
" style="fill: none"/>
  </g>
  <g id="axes_1">
   <g id="patch_2">
    <path d="M 47.864 172.816 
L 349.2 172.816 
L 349.2 27.6 
L 47.864 27.6 
L 47.864 172.816 
z
" style="fill: none"/>
   </g>
   <g id="QuadContourSet_1">
    <path d="M 50.164275 172.816 
L 52.46455 172.816 
L 54.764824 172.816 
L 57.065099 172.816 
L 59.365374 172.816 
L 61.665649 172.816 
L 63.965924 172.816 
L 66.266198 172.816 
L 68.566473 172.816 
L 70.866748 172.816 
L 73.167023 172.816 
L 75.467298 172.816 
L 77.767573 172.816 
L 80.067847 172.816 
L 82.368122 172.816 
L 84.668397 172.816 
L 86.968672 172.816 
L 89.268947 172.816 
L 91.569221 172.816 
L 93.869496 172.816 
L 96.169771 172.816 
L 98.470046 172.816 
L 100.770321 172.816 
L 103.070595 172.816 
L 105.37087 172.816 
L 107.671145 172.816 
L 109.97142 172.816 
L 112.271695 172.816 
L 114.571969 172.816 
L 116.872244 172.816 
L 119.172519 172.816 
L 121.472794 172.816 
L 123.773069 172.816 
L 126.073344 172.816 
L 128.373618 172.816 
L 130.673893 172.816 
L 132.974168 172.816 
L 135.274443 172.816 
L 137.574718 172.816 
L 139.874992 172.816 
L 142.175267 172.816 
L 144.475542 172.816 
L 146.775817 172.816 
L 149.076092 172.816 
L 151.376366 172.816 
L 153.676641 172.816 
L 155.976916 172.816 
L 158.277191 172.816 
L 160.577466 172.816 
L 162.87774 172.816 
L 165.178015 172.816 
L 167.47829 172.816 
L 169.778565 172.816 
L 172.07884 172.816 
L 174.379115 172.816 
L 176.679389 172.816 
L 178.979664 172.816 
L 181.279939 172.816 
L 183.580214 172.816 
L 185.880489 172.816 
L 188.180763 172.816 
L 190.481038 172.816 
L 192.781313 172.816 
L 195.081588 172.816 
L 197.381863 172.816 
L 199.682137 172.816 
L 201.982412 172.816 
L 204.282687 172.816 
L 206.582962 172.816 
L 208.883237 172.816 
L 211.183511 172.816 
L 213.483786 172.816 
L 215.784061 172.816 
L 218.084336 172.816 
L 220.384611 172.816 
L 222.684885 172.816 
L 224.98516 172.816 
L 227.285435 172.816 
L 229.58571 172.816 
L 231.885985 172.816 
L 234.18626 172.816 
L 236.486534 172.816 
L 238.786809 172.816 
L 241.087084 172.816 
L 243.387359 172.816 
L 245.687634 172.816 
L 247.987908 172.816 
L 250.288183 172.816 
L 252.588458 172.816 
L 254.888733 172.816 
L 257.189008 172.816 
L 259.489282 172.816 
L 261.789557 172.816 
L 264.089832 172.816 
L 266.390107 172.816 
L 268.690382 172.816 
L 270.990656 172.816 
L 273.290931 172.816 
L 275.591206 172.816 
L 277.891481 172.816 
L 280.191756 172.816 
L 282.492031 172.816 
L 284.792305 172.816 
L 287.09258 172.816 
L 289.392855 172.816 
L 291.69313 172.816 
L 293.993405 172.816 
L 296.293679 172.816 
L 298.593954 172.816 
L 299.744092 172.816 
L 299.744092 171.748235 
L 298.593954 171.214353 
L 297.443817 170.680471 
L 297.443817 169.612706 
L 296.293679 169.078824 
L 295.143542 168.544941 
L 295.143542 167.477176 
L 293.993405 166.943294 
L 292.843267 166.409412 
L 292.843267 165.341647 
L 291.69313 164.807765 
L 290.542992 164.273882 
L 290.542992 163.206118 
L 289.392855 162.672235 
L 288.242718 162.138353 
L 288.242718 161.070588 
L 287.09258 160.536706 
L 285.942443 160.002824 
L 285.942443 158.935059 
L 284.792305 158.401176 
L 283.642168 157.867294 
L 283.642168 156.799529 
L 282.492031 156.265647 
L 281.341893 155.731765 
L 281.341893 154.664 
L 280.191756 154.130118 
L 279.041618 153.596235 
L 279.041618 152.528471 
L 277.891481 151.994588 
L 276.741344 151.460706 
L 276.741344 150.392941 
L 275.591206 149.859059 
L 274.441069 149.325176 
L 274.441069 148.257412 
L 273.290931 147.723529 
L 272.140794 147.189647 
L 272.140794 146.121882 
L 270.990656 145.588 
L 269.840519 145.054118 
L 269.840519 143.986353 
L 268.690382 143.452471 
L 267.540244 142.918588 
L 267.540244 141.850824 
L 266.390107 141.316941 
L 265.239969 140.783059 
L 265.239969 139.715294 
L 264.089832 139.181412 
L 262.939695 138.647529 
L 262.939695 137.579765 
L 261.789557 137.045882 
L 260.63942 136.512 
L 260.63942 135.444235 
L 259.489282 134.910353 
L 258.339145 134.376471 
L 258.339145 133.308706 
L 257.189008 132.774824 
L 256.03887 132.240941 
L 256.03887 131.173176 
L 254.888733 130.639294 
L 253.738595 130.105412 
L 253.738595 129.037647 
L 252.588458 128.503765 
L 251.438321 127.969882 
L 251.438321 126.902118 
L 250.288183 126.368235 
L 249.138046 125.834353 
L 249.138046 124.766588 
L 247.987908 124.232706 
L 246.837771 123.698824 
L 246.837771 122.631059 
L 245.687634 122.097176 
L 244.537496 121.563294 
L 244.537496 120.495529 
L 243.387359 119.961647 
L 242.237221 119.427765 
L 242.237221 118.36 
L 241.087084 117.826118 
L 239.936947 117.292235 
L 239.936947 116.224471 
L 238.786809 115.690588 
L 237.636672 115.156706 
L 237.636672 114.088941 
L 236.486534 113.555059 
L 235.336397 113.021176 
L 235.336397 111.953412 
L 234.18626 111.419529 
L 233.036122 110.885647 
L 233.036122 109.817882 
L 231.885985 109.284 
L 230.735847 108.750118 
L 230.735847 107.682353 
L 229.58571 107.148471 
L 228.435573 106.614588 
L 228.435573 105.546824 
L 227.285435 105.012941 
L 226.135298 104.479059 
L 226.135298 103.411294 
L 224.98516 102.877412 
L 223.835023 102.343529 
L 223.835023 101.275765 
L 222.684885 100.741882 
L 221.534748 100.208 
L 221.534748 99.140235 
L 220.384611 98.606353 
L 219.234473 98.072471 
L 219.234473 97.004706 
L 218.084336 96.470824 
L 216.934198 95.936941 
L 216.934198 94.869176 
L 215.784061 94.335294 
L 214.633924 93.801412 
L 214.633924 92.733647 
L 213.483786 92.199765 
L 212.333649 91.665882 
L 212.333649 90.598118 
L 211.183511 90.064235 
L 210.033374 89.530353 
L 210.033374 88.462588 
L 208.883237 87.928706 
L 207.733099 87.394824 
L 207.733099 86.327059 
L 206.582962 85.793176 
L 205.432824 85.259294 
L 205.432824 84.191529 
L 204.282687 83.657647 
L 203.13255 83.123765 
L 203.13255 82.056 
L 201.982412 81.522118 
L 200.832275 80.988235 
L 200.832275 79.920471 
L 199.682137 79.386588 
L 198.532 78.852706 
L 198.532 77.784941 
L 197.381863 77.251059 
L 196.231725 76.717176 
L 196.231725 75.649412 
L 195.081588 75.115529 
L 193.93145 74.581647 
L 193.93145 73.513882 
L 192.781313 72.98 
L 191.631176 72.446118 
L 191.631176 71.378353 
L 190.481038 70.844471 
L 189.330901 70.310588 
L 189.330901 69.242824 
L 188.180763 68.708941 
L 187.030626 68.175059 
L 187.030626 67.107294 
L 185.880489 66.573412 
L 184.730351 66.039529 
L 184.730351 64.971765 
L 183.580214 64.437882 
L 182.430076 63.904 
L 182.430076 62.836235 
L 181.279939 62.302353 
L 180.129802 61.768471 
L 180.129802 60.700706 
L 178.979664 60.166824 
L 177.829527 59.632941 
L 177.829527 58.565176 
L 176.679389 58.031294 
L 175.529252 57.497412 
L 175.529252 56.429647 
L 174.379115 55.895765 
L 173.228977 55.361882 
L 173.228977 54.294118 
L 172.07884 53.760235 
L 170.928702 53.226353 
L 170.928702 52.158588 
L 169.778565 51.624706 
L 168.628427 51.090824 
L 168.628427 50.023059 
L 167.47829 49.489176 
L 166.328153 48.955294 
L 166.328153 47.887529 
L 165.178015 47.353647 
L 164.027878 46.819765 
L 164.027878 45.752 
L 162.87774 45.218118 
L 161.727603 44.684235 
L 161.727603 43.616471 
L 160.577466 43.082588 
L 159.427328 42.548706 
L 159.427328 41.480941 
L 158.277191 40.947059 
L 157.127053 40.413176 
L 157.127053 39.345412 
L 155.976916 38.811529 
L 154.826779 38.277647 
L 154.826779 37.209882 
L 153.676641 36.676 
L 152.526504 36.142118 
L 152.526504 35.074353 
L 151.376366 34.540471 
L 150.226229 34.006588 
L 150.226229 32.938824 
L 149.076092 32.404941 
L 147.925954 31.871059 
L 147.925954 30.803294 
L 146.775817 30.269412 
L 145.625679 29.735529 
L 145.625679 28.667765 
L 144.475542 28.133882 
L 143.325405 27.6 
L 142.175267 27.6 
L 139.874992 27.6 
L 137.574718 27.6 
L 135.274443 27.6 
L 132.974168 27.6 
L 130.673893 27.6 
L 128.373618 27.6 
L 126.073344 27.6 
L 123.773069 27.6 
L 121.472794 27.6 
L 119.172519 27.6 
L 116.872244 27.6 
L 114.571969 27.6 
L 112.271695 27.6 
L 109.97142 27.6 
L 107.671145 27.6 
L 105.37087 27.6 
L 103.070595 27.6 
L 100.770321 27.6 
L 98.470046 27.6 
L 96.169771 27.6 
L 93.869496 27.6 
L 91.569221 27.6 
L 89.268947 27.6 
L 86.968672 27.6 
L 84.668397 27.6 
L 82.368122 27.6 
L 80.067847 27.6 
L 77.767573 27.6 
L 75.467298 27.6 
L 73.167023 27.6 
L 70.866748 27.6 
L 68.566473 27.6 
L 66.266198 27.6 
L 63.965924 27.6 
L 61.665649 27.6 
L 59.365374 27.6 
L 57.065099 27.6 
L 54.764824 27.6 
L 52.46455 27.6 
L 50.164275 27.6 
L 47.864 27.6 
L 47.864 28.667765 
L 47.864 29.735529 
L 47.864 30.803294 
L 47.864 31.871059 
L 47.864 32.938824 
L 47.864 34.006588 
L 47.864 35.074353 
L 47.864 36.142118 
L 47.864 37.209882 
L 47.864 38.277647 
L 47.864 39.345412 
L 47.864 40.413176 
L 47.864 41.480941 
L 47.864 42.548706 
L 47.864 43.616471 
L 47.864 44.684235 
L 47.864 45.752 
L 47.864 46.819765 
L 47.864 47.887529 
L 47.864 48.955294 
L 47.864 50.023059 
L 47.864 51.090824 
L 47.864 52.158588 
L 47.864 53.226353 
L 47.864 54.294118 
L 47.864 55.361882 
L 47.864 56.429647 
L 47.864 57.497412 
L 47.864 58.565176 
L 47.864 59.632941 
L 47.864 60.700706 
L 47.864 61.768471 
L 47.864 62.836235 
L 47.864 63.904 
L 47.864 64.971765 
L 47.864 66.039529 
L 47.864 67.107294 
L 47.864 68.175059 
L 47.864 69.242824 
L 47.864 70.310588 
L 47.864 71.378353 
L 47.864 72.446118 
L 47.864 73.513882 
L 47.864 74.581647 
L 47.864 75.649412 
L 47.864 76.717176 
L 47.864 77.784941 
L 47.864 78.852706 
L 47.864 79.920471 
L 47.864 80.988235 
L 47.864 82.056 
L 47.864 83.123765 
L 47.864 84.191529 
L 47.864 85.259294 
L 47.864 86.327059 
L 47.864 87.394824 
L 47.864 88.462588 
L 47.864 89.530353 
L 47.864 90.598118 
L 47.864 91.665882 
L 47.864 92.733647 
L 47.864 93.801412 
L 47.864 94.869176 
L 47.864 95.936941 
L 47.864 97.004706 
L 47.864 98.072471 
L 47.864 99.140235 
L 47.864 100.208 
L 47.864 101.275765 
L 47.864 102.343529 
L 47.864 103.411294 
L 47.864 104.479059 
L 47.864 105.546824 
L 47.864 106.614588 
L 47.864 107.682353 
L 47.864 108.750118 
L 47.864 109.817882 
L 47.864 110.885647 
L 47.864 111.953412 
L 47.864 113.021176 
L 47.864 114.088941 
L 47.864 115.156706 
L 47.864 116.224471 
L 47.864 117.292235 
L 47.864 118.36 
L 47.864 119.427765 
L 47.864 120.495529 
L 47.864 121.563294 
L 47.864 122.631059 
L 47.864 123.698824 
L 47.864 124.766588 
L 47.864 125.834353 
L 47.864 126.902118 
L 47.864 127.969882 
L 47.864 129.037647 
L 47.864 130.105412 
L 47.864 131.173176 
L 47.864 132.240941 
L 47.864 133.308706 
L 47.864 134.376471 
L 47.864 135.444235 
L 47.864 136.512 
L 47.864 137.579765 
L 47.864 138.647529 
L 47.864 139.715294 
L 47.864 140.783059 
L 47.864 141.850824 
L 47.864 142.918588 
L 47.864 143.986353 
L 47.864 145.054118 
L 47.864 146.121882 
L 47.864 147.189647 
L 47.864 148.257412 
L 47.864 149.325176 
L 47.864 150.392941 
L 47.864 151.460706 
L 47.864 152.528471 
L 47.864 153.596235 
L 47.864 154.664 
L 47.864 155.731765 
L 47.864 156.799529 
L 47.864 157.867294 
L 47.864 158.935059 
L 47.864 160.002824 
L 47.864 161.070588 
L 47.864 162.138353 
L 47.864 163.206118 
L 47.864 164.273882 
L 47.864 165.341647 
L 47.864 166.409412 
L 47.864 167.477176 
L 47.864 168.544941 
L 47.864 169.612706 
L 47.864 170.680471 
L 47.864 171.748235 
L 47.864 172.816 
z
" clip-path="url(#p0aaef79a71)" style="fill: #f08080; fill-opacity: 0.6"/>
    <path d="M 300.894229 172.816 
L 303.194504 172.816 
L 305.494779 172.816 
L 307.795053 172.816 
L 310.095328 172.816 
L 312.395603 172.816 
L 314.695878 172.816 
L 316.996153 172.816 
L 319.296427 172.816 
L 321.596702 172.816 
L 323.896977 172.816 
L 326.197252 172.816 
L 328.497527 172.816 
L 330.797802 172.816 
L 333.098076 172.816 
L 335.398351 172.816 
L 337.698626 172.816 
L 339.998901 172.816 
L 342.299176 172.816 
L 344.59945 172.816 
L 346.899725 172.816 
L 349.2 172.816 
L 349.2 171.748235 
L 349.2 170.680471 
L 349.2 169.612706 
L 349.2 168.544941 
L 349.2 167.477176 
L 349.2 166.409412 
L 349.2 165.341647 
L 349.2 164.273882 
L 349.2 163.206118 
L 349.2 162.138353 
L 349.2 161.070588 
L 349.2 160.002824 
L 349.2 158.935059 
L 349.2 157.867294 
L 349.2 156.799529 
L 349.2 155.731765 
L 349.2 154.664 
L 349.2 153.596235 
L 349.2 152.528471 
L 349.2 151.460706 
L 349.2 150.392941 
L 349.2 149.325176 
L 349.2 148.257412 
L 349.2 147.189647 
L 349.2 146.121882 
L 349.2 145.054118 
L 349.2 143.986353 
L 349.2 142.918588 
L 349.2 141.850824 
L 349.2 140.783059 
L 349.2 139.715294 
L 349.2 138.647529 
L 349.2 137.579765 
L 349.2 136.512 
L 349.2 135.444235 
L 349.2 134.376471 
L 349.2 133.308706 
L 349.2 132.240941 
L 349.2 131.173176 
L 349.2 130.105412 
L 349.2 129.037647 
L 349.2 127.969882 
L 349.2 126.902118 
L 349.2 125.834353 
L 349.2 124.766588 
L 349.2 123.698824 
L 349.2 122.631059 
L 349.2 121.563294 
L 349.2 120.495529 
L 349.2 119.427765 
L 349.2 118.36 
L 349.2 117.292235 
L 349.2 116.224471 
L 349.2 115.156706 
L 349.2 114.088941 
L 349.2 113.021176 
L 349.2 111.953412 
L 349.2 110.885647 
L 349.2 109.817882 
L 349.2 108.750118 
L 349.2 107.682353 
L 349.2 106.614588 
L 349.2 105.546824 
L 349.2 104.479059 
L 349.2 103.411294 
L 349.2 102.343529 
L 349.2 101.275765 
L 349.2 100.208 
L 349.2 99.140235 
L 349.2 98.072471 
L 349.2 97.004706 
L 349.2 95.936941 
L 349.2 94.869176 
L 349.2 93.801412 
L 349.2 92.733647 
L 349.2 91.665882 
L 349.2 90.598118 
L 349.2 89.530353 
L 349.2 88.462588 
L 349.2 87.394824 
L 349.2 86.327059 
L 349.2 85.259294 
L 349.2 84.191529 
L 349.2 83.123765 
L 349.2 82.056 
L 349.2 80.988235 
L 349.2 79.920471 
L 349.2 78.852706 
L 349.2 77.784941 
L 349.2 76.717176 
L 349.2 75.649412 
L 349.2 74.581647 
L 349.2 73.513882 
L 349.2 72.446118 
L 349.2 71.378353 
L 349.2 70.310588 
L 349.2 69.242824 
L 349.2 68.175059 
L 349.2 67.107294 
L 349.2 66.039529 
L 349.2 64.971765 
L 349.2 63.904 
L 349.2 62.836235 
L 349.2 61.768471 
L 349.2 60.700706 
L 349.2 59.632941 
L 349.2 58.565176 
L 349.2 57.497412 
L 349.2 56.429647 
L 349.2 55.361882 
L 349.2 54.294118 
L 349.2 53.226353 
L 349.2 52.158588 
L 349.2 51.090824 
L 349.2 50.023059 
L 349.2 48.955294 
L 349.2 47.887529 
L 349.2 46.819765 
L 349.2 45.752 
L 349.2 44.684235 
L 349.2 43.616471 
L 349.2 42.548706 
L 349.2 41.480941 
L 349.2 40.413176 
L 349.2 39.345412 
L 349.2 38.277647 
L 349.2 37.209882 
L 349.2 36.142118 
L 349.2 35.074353 
L 349.2 34.006588 
L 349.2 32.938824 
L 349.2 31.871059 
L 349.2 30.803294 
L 349.2 29.735529 
L 349.2 28.667765 
L 349.2 27.6 
L 346.899725 27.6 
L 344.59945 27.6 
L 342.299176 27.6 
L 339.998901 27.6 
L 337.698626 27.6 
L 335.398351 27.6 
L 333.098076 27.6 
L 330.797802 27.6 
L 328.497527 27.6 
L 326.197252 27.6 
L 323.896977 27.6 
L 321.596702 27.6 
L 319.296427 27.6 
L 316.996153 27.6 
L 314.695878 27.6 
L 312.395603 27.6 
L 310.095328 27.6 
L 307.795053 27.6 
L 305.494779 27.6 
L 303.194504 27.6 
L 300.894229 27.6 
L 298.593954 27.6 
L 296.293679 27.6 
L 293.993405 27.6 
L 291.69313 27.6 
L 289.392855 27.6 
L 287.09258 27.6 
L 284.792305 27.6 
L 282.492031 27.6 
L 280.191756 27.6 
L 277.891481 27.6 
L 275.591206 27.6 
L 273.290931 27.6 
L 270.990656 27.6 
L 268.690382 27.6 
L 266.390107 27.6 
L 264.089832 27.6 
L 261.789557 27.6 
L 259.489282 27.6 
L 257.189008 27.6 
L 254.888733 27.6 
L 252.588458 27.6 
L 250.288183 27.6 
L 247.987908 27.6 
L 245.687634 27.6 
L 243.387359 27.6 
L 241.087084 27.6 
L 238.786809 27.6 
L 236.486534 27.6 
L 234.18626 27.6 
L 231.885985 27.6 
L 229.58571 27.6 
L 227.285435 27.6 
L 224.98516 27.6 
L 222.684885 27.6 
L 220.384611 27.6 
L 218.084336 27.6 
L 215.784061 27.6 
L 213.483786 27.6 
L 211.183511 27.6 
L 208.883237 27.6 
L 206.582962 27.6 
L 204.282687 27.6 
L 201.982412 27.6 
L 199.682137 27.6 
L 197.381863 27.6 
L 195.081588 27.6 
L 192.781313 27.6 
L 190.481038 27.6 
L 188.180763 27.6 
L 185.880489 27.6 
L 183.580214 27.6 
L 181.279939 27.6 
L 178.979664 27.6 
L 176.679389 27.6 
L 174.379115 27.6 
L 172.07884 27.6 
L 169.778565 27.6 
L 167.47829 27.6 
L 165.178015 27.6 
L 162.87774 27.6 
L 160.577466 27.6 
L 158.277191 27.6 
L 155.976916 27.6 
L 153.676641 27.6 
L 151.376366 27.6 
L 149.076092 27.6 
L 146.775817 27.6 
L 144.475542 27.6 
L 143.325405 27.6 
L 144.475542 28.133882 
L 145.625679 28.667765 
L 145.625679 29.735529 
L 146.775817 30.269412 
L 147.925954 30.803294 
L 147.925954 31.871059 
L 149.076092 32.404941 
L 150.226229 32.938824 
L 150.226229 34.006588 
L 151.376366 34.540471 
L 152.526504 35.074353 
L 152.526504 36.142118 
L 153.676641 36.676 
L 154.826779 37.209882 
L 154.826779 38.277647 
L 155.976916 38.811529 
L 157.127053 39.345412 
L 157.127053 40.413176 
L 158.277191 40.947059 
L 159.427328 41.480941 
L 159.427328 42.548706 
L 160.577466 43.082588 
L 161.727603 43.616471 
L 161.727603 44.684235 
L 162.87774 45.218118 
L 164.027878 45.752 
L 164.027878 46.819765 
L 165.178015 47.353647 
L 166.328153 47.887529 
L 166.328153 48.955294 
L 167.47829 49.489176 
L 168.628427 50.023059 
L 168.628427 51.090824 
L 169.778565 51.624706 
L 170.928702 52.158588 
L 170.928702 53.226353 
L 172.07884 53.760235 
L 173.228977 54.294118 
L 173.228977 55.361882 
L 174.379115 55.895765 
L 175.529252 56.429647 
L 175.529252 57.497412 
L 176.679389 58.031294 
L 177.829527 58.565176 
L 177.829527 59.632941 
L 178.979664 60.166824 
L 180.129802 60.700706 
L 180.129802 61.768471 
L 181.279939 62.302353 
L 182.430076 62.836235 
L 182.430076 63.904 
L 183.580214 64.437882 
L 184.730351 64.971765 
L 184.730351 66.039529 
L 185.880489 66.573412 
L 187.030626 67.107294 
L 187.030626 68.175059 
L 188.180763 68.708941 
L 189.330901 69.242824 
L 189.330901 70.310588 
L 190.481038 70.844471 
L 191.631176 71.378353 
L 191.631176 72.446118 
L 192.781313 72.98 
L 193.93145 73.513882 
L 193.93145 74.581647 
L 195.081588 75.115529 
L 196.231725 75.649412 
L 196.231725 76.717176 
L 197.381863 77.251059 
L 198.532 77.784941 
L 198.532 78.852706 
L 199.682137 79.386588 
L 200.832275 79.920471 
L 200.832275 80.988235 
L 201.982412 81.522118 
L 203.13255 82.056 
L 203.13255 83.123765 
L 204.282687 83.657647 
L 205.432824 84.191529 
L 205.432824 85.259294 
L 206.582962 85.793176 
L 207.733099 86.327059 
L 207.733099 87.394824 
L 208.883237 87.928706 
L 210.033374 88.462588 
L 210.033374 89.530353 
L 211.183511 90.064235 
L 212.333649 90.598118 
L 212.333649 91.665882 
L 213.483786 92.199765 
L 214.633924 92.733647 
L 214.633924 93.801412 
L 215.784061 94.335294 
L 216.934198 94.869176 
L 216.934198 95.936941 
L 218.084336 96.470824 
L 219.234473 97.004706 
L 219.234473 98.072471 
L 220.384611 98.606353 
L 221.534748 99.140235 
L 221.534748 100.208 
L 222.684885 100.741882 
L 223.835023 101.275765 
L 223.835023 102.343529 
L 224.98516 102.877412 
L 226.135298 103.411294 
L 226.135298 104.479059 
L 227.285435 105.012941 
L 228.435573 105.546824 
L 228.435573 106.614588 
L 229.58571 107.148471 
L 230.735847 107.682353 
L 230.735847 108.750118 
L 231.885985 109.284 
L 233.036122 109.817882 
L 233.036122 110.885647 
L 234.18626 111.419529 
L 235.336397 111.953412 
L 235.336397 113.021176 
L 236.486534 113.555059 
L 237.636672 114.088941 
L 237.636672 115.156706 
L 238.786809 115.690588 
L 239.936947 116.224471 
L 239.936947 117.292235 
L 241.087084 117.826118 
L 242.237221 118.36 
L 242.237221 119.427765 
L 243.387359 119.961647 
L 244.537496 120.495529 
L 244.537496 121.563294 
L 245.687634 122.097176 
L 246.837771 122.631059 
L 246.837771 123.698824 
L 247.987908 124.232706 
L 249.138046 124.766588 
L 249.138046 125.834353 
L 250.288183 126.368235 
L 251.438321 126.902118 
L 251.438321 127.969882 
L 252.588458 128.503765 
L 253.738595 129.037647 
L 253.738595 130.105412 
L 254.888733 130.639294 
L 256.03887 131.173176 
L 256.03887 132.240941 
L 257.189008 132.774824 
L 258.339145 133.308706 
L 258.339145 134.376471 
L 259.489282 134.910353 
L 260.63942 135.444235 
L 260.63942 136.512 
L 261.789557 137.045882 
L 262.939695 137.579765 
L 262.939695 138.647529 
L 264.089832 139.181412 
L 265.239969 139.715294 
L 265.239969 140.783059 
L 266.390107 141.316941 
L 267.540244 141.850824 
L 267.540244 142.918588 
L 268.690382 143.452471 
L 269.840519 143.986353 
L 269.840519 145.054118 
L 270.990656 145.588 
L 272.140794 146.121882 
L 272.140794 147.189647 
L 273.290931 147.723529 
L 274.441069 148.257412 
L 274.441069 149.325176 
L 275.591206 149.859059 
L 276.741344 150.392941 
L 276.741344 151.460706 
L 277.891481 151.994588 
L 279.041618 152.528471 
L 279.041618 153.596235 
L 280.191756 154.130118 
L 281.341893 154.664 
L 281.341893 155.731765 
L 282.492031 156.265647 
L 283.642168 156.799529 
L 283.642168 157.867294 
L 284.792305 158.401176 
L 285.942443 158.935059 
L 285.942443 160.002824 
L 287.09258 160.536706 
L 288.242718 161.070588 
L 288.242718 162.138353 
L 289.392855 162.672235 
L 290.542992 163.206118 
L 290.542992 164.273882 
L 291.69313 164.807765 
L 292.843267 165.341647 
L 292.843267 166.409412 
L 293.993405 166.943294 
L 295.143542 167.477176 
L 295.143542 168.544941 
L 296.293679 169.078824 
L 297.443817 169.612706 
L 297.443817 170.680471 
L 298.593954 171.214353 
L 299.744092 171.748235 
L 299.744092 172.816 
z
" clip-path="url(#p0aaef79a71)" style="fill: #add8e6; fill-opacity: 0.6"/>
   </g>
   <g id="PathCollection_1">
    <defs>
     <path id="C0_0_b33c42ef61" d="M 0 3.535534 
C 0.937635 3.535534 1.836992 3.163008 2.5 2.5 
C 3.163008 1.836992 3.535534 0.937635 3.535534 -0 
C 3.535534 -0.937635 3.163008 -1.836992 2.5 -2.5 
C 1.836992 -3.163008 0.937635 -3.535534 0 -3.535534 
C -0.937635 -3.535534 -1.836992 -3.163008 -2.5 -2.5 
C -3.163008 -1.836992 -3.535534 -0.937635 -3.535534 0 
C -3.535534 0.937635 -3.163008 1.836992 -2.5 2.5 
C -1.836992 3.163008 -0.937635 3.535534 0 3.535534 
z
"/>
    </defs>
    <g clip-path="url(#p0aaef79a71)">
     <use xlink:href="#C0_0_b33c42ef61" x="242.834441" y="122.645909" style="fill: #a50026; stroke: #000000"/>
    </g>
    <g clip-path="url(#p0aaef79a71)">
     <use xlink:href="#C0_0_b33c42ef61" x="249.780093" y="87.168484" style="fill: #313695; stroke: #000000"/>
    </g>
    <g clip-path="url(#p0aaef79a71)">
     <use xlink:href="#C0_0_b33c42ef61" x="209.210518" y="124.693298" style="fill: #a50026; stroke: #000000"/>
    </g>
    <g clip-path="url(#p0aaef79a71)">
     <use xlink:href="#C0_0_b33c42ef61" x="292.635329" y="103.30444" style="fill: #313695; stroke: #000000"/>
    </g>
    <g clip-path="url(#p0aaef79a71)">
     <use xlink:href="#C0_0_b33c42ef61" x="198.384458" y="108.106705" style="fill: #a50026; stroke: #000000"/>
    </g>
    <g clip-path="url(#p0aaef79a71)">
     <use xlink:href="#C0_0_b33c42ef61" x="198.663099" y="129.63903" style="fill: #a50026; stroke: #000000"/>
    </g>
    <g clip-path="url(#p0aaef79a71)">
     <use xlink:href="#C0_0_b33c42ef61" x="231.114455" y="160.551897" style="fill: #a50026; stroke: #000000"/>
    </g>
    <g clip-path="url(#p0aaef79a71)">
     <use xlink:href="#C0_0_b33c42ef61" x="140.62716" y="131.70105" style="fill: #a50026; stroke: #000000"/>
    </g>
    <g clip-path="url(#p0aaef79a71)">
     <use xlink:href="#C0_0_b33c42ef61" x="173.387062" y="112.98239" style="fill: #a50026; stroke: #000000"/>
    </g>
    <g clip-path="url(#p0aaef79a71)">
     <use xlink:href="#C0_0_b33c42ef61" x="178.208762" y="149.853395" style="fill: #a50026; stroke: #000000"/>
    </g>
    <g clip-path="url(#p0aaef79a71)">
     <use xlink:href="#C0_0_b33c42ef61" x="287.410759" y="124.514753" style="fill: #313695; stroke: #000000"/>
    </g>
    <g clip-path="url(#p0aaef79a71)">
     <use xlink:href="#C0_0_b33c42ef61" x="223.089529" y="150.119151" style="fill: #a50026; stroke: #000000"/>
    </g>
    <g clip-path="url(#p0aaef79a71)">
     <use xlink:href="#C0_0_b33c42ef61" x="194.938263" y="117.32445" style="fill: #a50026; stroke: #000000"/>
    </g>
    <g clip-path="url(#p0aaef79a71)">
     <use xlink:href="#C0_0_b33c42ef61" x="167.03083" y="111.670093" style="fill: #a50026; stroke: #000000"/>
    </g>
    <g clip-path="url(#p0aaef79a71)">
     <use xlink:href="#C0_0_b33c42ef61" x="192.350179" y="125.92244" style="fill: #a50026; stroke: #000000"/>
    </g>
    <g clip-path="url(#p0aaef79a71)">
     <use xlink:href="#C0_0_b33c42ef61" x="192.301049" y="80.137289" style="fill: #a50026; stroke: #000000"/>
    </g>
    <g clip-path="url(#p0aaef79a71)">
     <use xlink:href="#C0_0_b33c42ef61" x="219.361914" y="142.280962" style="fill: #a50026; stroke: #000000"/>
    </g>
    <g clip-path="url(#p0aaef79a71)">
     <use xlink:href="#C0_0_b33c42ef61" x="257.824447" y="145.764709" style="fill: #a50026; stroke: #000000"/>
    </g>
    <g clip-path="url(#p0aaef79a71)">
     <use xlink:href="#C0_0_b33c42ef61" x="229.591734" y="161.542566" style="fill: #a50026; stroke: #000000"/>
    </g>
    <g clip-path="url(#p0aaef79a71)">
     <use xlink:href="#C0_0_b33c42ef61" x="158.879002" y="115.489205" style="fill: #a50026; stroke: #000000"/>
    </g>
    <g clip-path="url(#p0aaef79a71)">
     <use xlink:href="#C0_0_b33c42ef61" x="253.956382" y="116.033614" style="fill: #313695; stroke: #000000"/>
    </g>
    <g clip-path="url(#p0aaef79a71)">
     <use xlink:href="#C0_0_b33c42ef61" x="214.662404" y="126.123392" style="fill: #a50026; stroke: #000000"/>
    </g>
    <g clip-path="url(#p0aaef79a71)">
     <use xlink:href="#C0_0_b33c42ef61" x="151.962723" y="135.065719" style="fill: #a50026; stroke: #000000"/>
    </g>
    <g clip-path="url(#p0aaef79a71)">
     <use xlink:href="#C0_0_b33c42ef61" x="198.790945" y="97.118078" style="fill: #a50026; stroke: #000000"/>
    </g>
    <g clip-path="url(#p0aaef79a71)">
     <use xlink:href="#C0_0_b33c42ef61" x="235.79119" y="157.343475" style="fill: #a50026; stroke: #000000"/>
    </g>
    <g clip-path="url(#p0aaef79a71)">
     <use xlink:href="#C0_0_b33c42ef61" x="234.892504" y="127.91678" style="fill: #a50026; stroke: #000000"/>
    </g>
    <g clip-path="url(#p0aaef79a71)">
     <use xlink:href="#C0_0_b33c42ef61" x="188.840728" y="106.630707" style="fill: #a50026; stroke: #000000"/>
    </g>
    <g clip-path="url(#p0aaef79a71)">
     <use xlink:href="#C0_0_b33c42ef61" x="267.414505" y="99.805473" style="fill: #313695; stroke: #000000"/>
    </g>
    <g clip-path="url(#p0aaef79a71)">
     <use xlink:href="#C0_0_b33c42ef61" x="181.374242" y="126.296555" style="fill: #a50026; stroke: #000000"/>
    </g>
    <g clip-path="url(#p0aaef79a71)">
     <use xlink:href="#C0_0_b33c42ef61" x="235.222799" y="98.860181" style="fill: #313695; stroke: #000000"/>
    </g>
    <g clip-path="url(#p0aaef79a71)">
     <use xlink:href="#C0_0_b33c42ef61" x="197.938212" y="123.658036" style="fill: #a50026; stroke: #000000"/>
    </g>
    <g clip-path="url(#p0aaef79a71)">
     <use xlink:href="#C0_0_b33c42ef61" x="169.085371" y="145.238578" style="fill: #a50026; stroke: #000000"/>
    </g>
    <g clip-path="url(#p0aaef79a71)">
     <use xlink:href="#C0_0_b33c42ef61" x="257.363514" y="90.730329" style="fill: #313695; stroke: #000000"/>
    </g>
    <g clip-path="url(#p0aaef79a71)">
     <use xlink:href="#C0_0_b33c42ef61" x="216.669999" y="98.262494" style="fill: #a50026; stroke: #000000"/>
    </g>
    <g clip-path="url(#p0aaef79a71)">
     <use xlink:href="#C0_0_b33c42ef61" x="236.620105" y="133.469956" style="fill: #a50026; stroke: #000000"/>
    </g>
    <g clip-path="url(#p0aaef79a71)">
     <use xlink:href="#C0_0_b33c42ef61" x="236.609044" y="86.848011" style="fill: #313695; stroke: #000000"/>
    </g>
    <g clip-path="url(#p0aaef79a71)">
     <use xlink:href="#C0_0_b33c42ef61" x="218.334666" y="86.279809" style="fill: #313695; stroke: #000000"/>
    </g>
    <g clip-path="url(#p0aaef79a71)">
     <use xlink:href="#C0_0_b33c42ef61" x="99.460187" y="102.141264" style="fill: #a50026; stroke: #000000"/>
    </g>
    <g clip-path="url(#p0aaef79a71)">
     <use xlink:href="#C0_0_b33c42ef61" x="223.987504" y="126.078624" style="fill: #a50026; stroke: #000000"/>
    </g>
    <g clip-path="url(#p0aaef79a71)">
     <use xlink:href="#C0_0_b33c42ef61" x="224.20436" y="162.138353" style="fill: #a50026; stroke: #000000"/>
    </g>
    <g clip-path="url(#p0aaef79a71)">
     <use xlink:href="#C0_0_b33c42ef61" x="209.876746" y="112.06699" style="fill: #a50026; stroke: #000000"/>
    </g>
    <g clip-path="url(#p0aaef79a71)">
     <use xlink:href="#C0_0_b33c42ef61" x="287.974109" y="130.761047" style="fill: #313695; stroke: #000000"/>
    </g>
    <g clip-path="url(#p0aaef79a71)">
     <use xlink:href="#C0_0_b33c42ef61" x="182.787711" y="130.408403" style="fill: #a50026; stroke: #000000"/>
    </g>
    <g clip-path="url(#p0aaef79a71)">
     <use xlink:href="#C0_0_b33c42ef61" x="262.096389" y="112.672658" style="fill: #313695; stroke: #000000"/>
    </g>
    <g clip-path="url(#p0aaef79a71)">
     <use xlink:href="#C0_0_b33c42ef61" x="195.610979" y="108.732257" style="fill: #a50026; stroke: #000000"/>
    </g>
    <g clip-path="url(#p0aaef79a71)">
     <use xlink:href="#C0_0_b33c42ef61" x="224.448961" y="99.007536" style="fill: #313695; stroke: #000000"/>
    </g>
    <g clip-path="url(#p0aaef79a71)">
     <use xlink:href="#C0_0_b33c42ef61" x="187.684559" y="126.690556" style="fill: #a50026; stroke: #000000"/>
    </g>
    <g clip-path="url(#p0aaef79a71)">
     <use xlink:href="#C0_0_b33c42ef61" x="201.94373" y="150.947026" style="fill: #a50026; stroke: #000000"/>
    </g>
    <g clip-path="url(#p0aaef79a71)">
     <use xlink:href="#C0_0_b33c42ef61" x="233.606021" y="114.118322" style="fill: #a50026; stroke: #000000"/>
    </g>
    <g clip-path="url(#p0aaef79a71)">
     <use xlink:href="#C0_0_b33c42ef61" x="220.218107" y="124.702911" style="fill: #a50026; stroke: #000000"/>
    </g>
    <g clip-path="url(#p0aaef79a71)">
     <use xlink:href="#C0_0_b33c42ef61" x="154.868027" y="128.676239" style="fill: #a50026; stroke: #000000"/>
    </g>
    <g clip-path="url(#p0aaef79a71)">
     <use xlink:href="#C0_0_b33c42ef61" x="204.216109" y="136.826101" style="fill: #a50026; stroke: #000000"/>
    </g>
    <g clip-path="url(#p0aaef79a71)">
     <use xlink:href="#C0_0_b33c42ef61" x="212.562831" y="111.064609" style="fill: #a50026; stroke: #000000"/>
    </g>
    <g clip-path="url(#p0aaef79a71)">
     <use xlink:href="#C0_0_b33c42ef61" x="306.757779" y="115.965074" style="fill: #313695; stroke: #000000"/>
    </g>
    <g clip-path="url(#p0aaef79a71)">
     <use xlink:href="#C0_0_b33c42ef61" x="231.831594" y="121.283049" style="fill: #a50026; stroke: #000000"/>
    </g>
    <g clip-path="url(#p0aaef79a71)">
     <use xlink:href="#C0_0_b33c42ef61" x="131.708839" y="120.259446" style="fill: #a50026; stroke: #000000"/>
    </g>
    <g clip-path="url(#p0aaef79a71)">
     <use xlink:href="#C0_0_b33c42ef61" x="222.753781" y="67.089974" style="fill: #313695; stroke: #000000"/>
    </g>
    <g clip-path="url(#p0aaef79a71)">
     <use xlink:href="#C0_0_b33c42ef61" x="211.133199" y="113.253602" style="fill: #a50026; stroke: #000000"/>
    </g>
    <g clip-path="url(#p0aaef79a71)">
     <use xlink:href="#C0_0_b33c42ef61" x="218.385928" y="144.650697" style="fill: #a50026; stroke: #000000"/>
    </g>
    <g clip-path="url(#p0aaef79a71)">
     <use xlink:href="#C0_0_b33c42ef61" x="272.558991" y="103.635483" style="fill: #313695; stroke: #000000"/>
    </g>
    <g clip-path="url(#p0aaef79a71)">
     <use xlink:href="#C0_0_b33c42ef61" x="256.374678" y="139.113471" style="fill: #a50026; stroke: #000000"/>
    </g>
    <g clip-path="url(#p0aaef79a71)">
     <use xlink:href="#C0_0_b33c42ef61" x="284.519109" y="149.630176" style="fill: #313695; stroke: #000000"/>
    </g>
    <g clip-path="url(#p0aaef79a71)">
     <use xlink:href="#C0_0_b33c42ef61" x="246.981512" y="72.91541" style="fill: #313695; stroke: #000000"/>
    </g>
    <g clip-path="url(#p0aaef79a71)">
     <use xlink:href="#C0_0_b33c42ef61" x="174.412745" y="131.786689" style="fill: #a50026; stroke: #000000"/>
    </g>
    <g clip-path="url(#p0aaef79a71)">
     <use xlink:href="#C0_0_b33c42ef61" x="224.567371" y="130.445105" style="fill: #a50026; stroke: #000000"/>
    </g>
    <g clip-path="url(#p0aaef79a71)">
     <use xlink:href="#C0_0_b33c42ef61" x="148.64382" y="118.229052" style="fill: #a50026; stroke: #000000"/>
    </g>
    <g clip-path="url(#p0aaef79a71)">
     <use xlink:href="#C0_0_b33c42ef61" x="171.111051" y="109.579529" style="fill: #a50026; stroke: #000000"/>
    </g>
    <g clip-path="url(#p0aaef79a71)">
     <use xlink:href="#C0_0_b33c42ef61" x="177.684292" y="86.593929" style="fill: #a50026; stroke: #000000"/>
    </g>
    <g clip-path="url(#p0aaef79a71)">
     <use xlink:href="#C0_0_b33c42ef61" x="183.948904" y="126.570953" style="fill: #a50026; stroke: #000000"/>
    </g>
    <g clip-path="url(#p0aaef79a71)">
     <use xlink:href="#C0_0_b33c42ef61" x="257.409124" y="145.978704" style="fill: #a50026; stroke: #000000"/>
    </g>
    <g clip-path="url(#p0aaef79a71)">
     <use xlink:href="#C0_0_b33c42ef61" x="230.447267" y="91.778816" style="fill: #313695; stroke: #000000"/>
    </g>
    <g clip-path="url(#p0aaef79a71)">
     <use xlink:href="#C0_0_b33c42ef61" x="146.029797" y="115.750324" style="fill: #a50026; stroke: #000000"/>
    </g>
    <g clip-path="url(#p0aaef79a71)">
     <use xlink:href="#C0_0_b33c42ef61" x="231.938897" y="102.997177" style="fill: #313695; stroke: #000000"/>
    </g>
    <g clip-path="url(#p0aaef79a71)">
     <use xlink:href="#C0_0_b33c42ef61" x="163.076329" y="147.891974" style="fill: #a50026; stroke: #000000"/>
    </g>
    <g clip-path="url(#p0aaef79a71)">
     <use xlink:href="#C0_0_b33c42ef61" x="243.995041" y="113.351039" style="fill: #313695; stroke: #000000"/>
    </g>
    <g clip-path="url(#p0aaef79a71)">
     <use xlink:href="#C0_0_b33c42ef61" x="231.506908" y="112.294731" style="fill: #a50026; stroke: #000000"/>
    </g>
    <g clip-path="url(#p0aaef79a71)">
     <use xlink:href="#C0_0_b33c42ef61" x="188.697986" y="114.733388" style="fill: #a50026; stroke: #000000"/>
    </g>
    <g clip-path="url(#p0aaef79a71)">
     <use xlink:href="#C0_0_b33c42ef61" x="233.465805" y="134.948419" style="fill: #a50026; stroke: #000000"/>
    </g>
    <g clip-path="url(#p0aaef79a71)">
     <use xlink:href="#C0_0_b33c42ef61" x="305.818742" y="109.574393" style="fill: #313695; stroke: #000000"/>
    </g>
    <g clip-path="url(#p0aaef79a71)">
     <use xlink:href="#C0_0_b33c42ef61" x="165.176352" y="105.672339" style="fill: #a50026; stroke: #000000"/>
    </g>
    <g clip-path="url(#p0aaef79a71)">
     <use xlink:href="#C0_0_b33c42ef61" x="175.142146" y="102.884811" style="fill: #a50026; stroke: #000000"/>
    </g>
    <g clip-path="url(#p0aaef79a71)">
     <use xlink:href="#C0_0_b33c42ef61" x="273.284625" y="137.219146" style="fill: #313695; stroke: #000000"/>
    </g>
    <g clip-path="url(#p0aaef79a71)">
     <use xlink:href="#C0_0_b33c42ef61" x="264.303457" y="110.878176" style="fill: #313695; stroke: #000000"/>
    </g>
    <g clip-path="url(#p0aaef79a71)">
     <use xlink:href="#C0_0_b33c42ef61" x="257.802146" y="79.186662" style="fill: #313695; stroke: #000000"/>
    </g>
    <g clip-path="url(#p0aaef79a71)">
     <use xlink:href="#C0_0_b33c42ef61" x="208.693658" y="135.789492" style="fill: #a50026; stroke: #000000"/>
    </g>
    <g clip-path="url(#p0aaef79a71)">
     <use xlink:href="#C0_0_b33c42ef61" x="179.060308" y="137.115103" style="fill: #a50026; stroke: #000000"/>
    </g>
    <g clip-path="url(#p0aaef79a71)">
     <use xlink:href="#C0_0_b33c42ef61" x="216.435758" y="112.407833" style="fill: #a50026; stroke: #000000"/>
    </g>
    <g clip-path="url(#p0aaef79a71)">
     <use xlink:href="#C0_0_b33c42ef61" x="232.712158" y="102.028493" style="fill: #313695; stroke: #000000"/>
    </g>
    <g clip-path="url(#p0aaef79a71)">
     <use xlink:href="#C0_0_b33c42ef61" x="220.581019" y="88.652586" style="fill: #313695; stroke: #000000"/>
    </g>
    <g clip-path="url(#p0aaef79a71)">
     <use xlink:href="#C0_0_b33c42ef61" x="207.807191" y="61.603222" style="fill: #313695; stroke: #000000"/>
    </g>
    <g clip-path="url(#p0aaef79a71)">
     <use xlink:href="#C0_0_b33c42ef61" x="248.766997" y="137.998086" style="fill: #a50026; stroke: #000000"/>
    </g>
    <g clip-path="url(#p0aaef79a71)">
     <use xlink:href="#C0_0_b33c42ef61" x="170.71592" y="109.389894" style="fill: #a50026; stroke: #000000"/>
    </g>
    <g clip-path="url(#p0aaef79a71)">
     <use xlink:href="#C0_0_b33c42ef61" x="209.702344" y="104.445544" style="fill: #a50026; stroke: #000000"/>
    </g>
    <g clip-path="url(#p0aaef79a71)">
     <use xlink:href="#C0_0_b33c42ef61" x="241.754392" y="121.248517" style="fill: #a50026; stroke: #000000"/>
    </g>
    <g clip-path="url(#p0aaef79a71)">
     <use xlink:href="#C0_0_b33c42ef61" x="181.025695" y="152.043242" style="fill: #a50026; stroke: #000000"/>
    </g>
    <g clip-path="url(#p0aaef79a71)">
     <use xlink:href="#C0_0_b33c42ef61" x="199.440718" y="101.404586" style="fill: #a50026; stroke: #000000"/>
    </g>
    <g clip-path="url(#p0aaef79a71)">
     <use xlink:href="#C0_0_b33c42ef61" x="229.832349" y="146.296352" style="fill: #a50026; stroke: #000000"/>
    </g>
    <g clip-path="url(#p0aaef79a71)">
     <use xlink:href="#C0_0_b33c42ef61" x="227.950135" y="111.464668" style="fill: #a50026; stroke: #000000"/>
    </g>
    <g clip-path="url(#p0aaef79a71)">
     <use xlink:href="#C0_0_b33c42ef61" x="179.32056" y="116.410389" style="fill: #a50026; stroke: #000000"/>
    </g>
    <g clip-path="url(#p0aaef79a71)">
     <use xlink:href="#C0_0_b33c42ef61" x="222.660781" y="144.101701" style="fill: #a50026; stroke: #000000"/>
    </g>
    <g clip-path="url(#p0aaef79a71)">
     <use xlink:href="#C0_0_b33c42ef61" x="236.443045" y="107.717516" style="fill: #313695; stroke: #000000"/>
    </g>
    <g clip-path="url(#p0aaef79a71)">
     <use xlink:href="#C0_0_b33c42ef61" x="269.80917" y="97.188981" style="fill: #313695; stroke: #000000"/>
    </g>
    <g clip-path="url(#p0aaef79a71)">
     <use xlink:href="#C0_0_b33c42ef61" x="156.602497" y="139.720764" style="fill: #a50026; stroke: #000000"/>
    </g>
    <g clip-path="url(#p0aaef79a71)">
     <use xlink:href="#C0_0_b33c42ef61" x="243.677313" y="108.721184" style="fill: #313695; stroke: #000000"/>
    </g>
    <g clip-path="url(#p0aaef79a71)">
     <use xlink:href="#C0_0_b33c42ef61" x="243.677885" y="37.41702" style="fill: #313695; stroke: #000000"/>
    </g>
    <g clip-path="url(#p0aaef79a71)">
     <use xlink:href="#C0_0_b33c42ef61" x="246.246962" y="95.442896" style="fill: #313695; stroke: #000000"/>
    </g>
    <g clip-path="url(#p0aaef79a71)">
     <use xlink:href="#C0_0_b33c42ef61" x="263.872185" y="105.782582" style="fill: #313695; stroke: #000000"/>
    </g>
    <g clip-path="url(#p0aaef79a71)">
     <use xlink:href="#C0_0_b33c42ef61" x="205.478742" y="103.485223" style="fill: #a50026; stroke: #000000"/>
    </g>
    <g clip-path="url(#p0aaef79a71)">
     <use xlink:href="#C0_0_b33c42ef61" x="184.428653" y="124.750565" style="fill: #a50026; stroke: #000000"/>
    </g>
    <g clip-path="url(#p0aaef79a71)">
     <use xlink:href="#C0_0_b33c42ef61" x="197.653469" y="117.944788" style="fill: #a50026; stroke: #000000"/>
    </g>
    <g clip-path="url(#p0aaef79a71)">
     <use xlink:href="#C0_0_b33c42ef61" x="326.469876" y="159.569232" style="fill: #313695; stroke: #000000"/>
    </g>
    <g clip-path="url(#p0aaef79a71)">
     <use xlink:href="#C0_0_b33c42ef61" x="251.554601" y="154.133256" style="fill: #a50026; stroke: #000000"/>
    </g>
    <g clip-path="url(#p0aaef79a71)">
     <use xlink:href="#C0_0_b33c42ef61" x="198.271401" y="96.438374" style="fill: #a50026; stroke: #000000"/>
    </g>
    <g clip-path="url(#p0aaef79a71)">
     <use xlink:href="#C0_0_b33c42ef61" x="222.940095" y="142.708791" style="fill: #a50026; stroke: #000000"/>
    </g>
    <g clip-path="url(#p0aaef79a71)">
     <use xlink:href="#C0_0_b33c42ef61" x="187.074958" y="105.180224" style="fill: #a50026; stroke: #000000"/>
    </g>
    <g clip-path="url(#p0aaef79a71)">
     <use xlink:href="#C0_0_b33c42ef61" x="186.381981" y="115.070697" style="fill: #a50026; stroke: #000000"/>
    </g>
    <g clip-path="url(#p0aaef79a71)">
     <use xlink:href="#C0_0_b33c42ef61" x="222.079415" y="133.608351" style="fill: #a50026; stroke: #000000"/>
    </g>
    <g clip-path="url(#p0aaef79a71)">
     <use xlink:href="#C0_0_b33c42ef61" x="318.616072" y="106.155707" style="fill: #313695; stroke: #000000"/>
    </g>
    <g clip-path="url(#p0aaef79a71)">
     <use xlink:href="#C0_0_b33c42ef61" x="126.815171" y="115.711447" style="fill: #a50026; stroke: #000000"/>
    </g>
    <g clip-path="url(#p0aaef79a71)">
     <use xlink:href="#C0_0_b33c42ef61" x="189.537046" y="101.48927" style="fill: #a50026; stroke: #000000"/>
    </g>
    <g clip-path="url(#p0aaef79a71)">
     <use xlink:href="#C0_0_b33c42ef61" x="183.522551" y="122.143465" style="fill: #a50026; stroke: #000000"/>
    </g>
    <g clip-path="url(#p0aaef79a71)">
     <use xlink:href="#C0_0_b33c42ef61" x="243.215051" y="101.204777" style="fill: #313695; stroke: #000000"/>
    </g>
    <g clip-path="url(#p0aaef79a71)">
     <use xlink:href="#C0_0_b33c42ef61" x="164.762629" y="126.836606" style="fill: #a50026; stroke: #000000"/>
    </g>
    <g clip-path="url(#p0aaef79a71)">
     <use xlink:href="#C0_0_b33c42ef61" x="198.132766" y="133.645272" style="fill: #a50026; stroke: #000000"/>
    </g>
    <g clip-path="url(#p0aaef79a71)">
     <use xlink:href="#C0_0_b33c42ef61" x="301.203459" y="111.044731" style="fill: #313695; stroke: #000000"/>
    </g>
    <g clip-path="url(#p0aaef79a71)">
     <use xlink:href="#C0_0_b33c42ef61" x="161.975268" y="100.092022" style="fill: #a50026; stroke: #000000"/>
    </g>
    <g clip-path="url(#p0aaef79a71)">
     <use xlink:href="#C0_0_b33c42ef61" x="317.613709" y="97.644635" style="fill: #313695; stroke: #000000"/>
    </g>
    <g clip-path="url(#p0aaef79a71)">
     <use xlink:href="#C0_0_b33c42ef61" x="150.083491" y="130.034195" style="fill: #a50026; stroke: #000000"/>
    </g>
    <g clip-path="url(#p0aaef79a71)">
     <use xlink:href="#C0_0_b33c42ef61" x="278.267736" y="134.805724" style="fill: #313695; stroke: #000000"/>
    </g>
    <g clip-path="url(#p0aaef79a71)">
     <use xlink:href="#C0_0_b33c42ef61" x="240.400993" y="103.150696" style="fill: #313695; stroke: #000000"/>
    </g>
    <g clip-path="url(#p0aaef79a71)">
     <use xlink:href="#C0_0_b33c42ef61" x="177.338964" y="120.964416" style="fill: #a50026; stroke: #000000"/>
    </g>
    <g clip-path="url(#p0aaef79a71)">
     <use xlink:href="#C0_0_b33c42ef61" x="70.866748" y="141.569334" style="fill: #a50026; stroke: #000000"/>
    </g>
    <g clip-path="url(#p0aaef79a71)">
     <use xlink:href="#C0_0_b33c42ef61" x="208.363337" y="146.340011" style="fill: #a50026; stroke: #000000"/>
    </g>
    <g clip-path="url(#p0aaef79a71)">
     <use xlink:href="#C0_0_b33c42ef61" x="295.082752" y="150.234324" style="fill: #313695; stroke: #000000"/>
    </g>
    <g clip-path="url(#p0aaef79a71)">
     <use xlink:href="#C0_0_b33c42ef61" x="199.738395" y="116.901231" style="fill: #a50026; stroke: #000000"/>
    </g>
    <g clip-path="url(#p0aaef79a71)">
     <use xlink:href="#C0_0_b33c42ef61" x="286.289353" y="150.356493" style="fill: #313695; stroke: #000000"/>
    </g>
    <g clip-path="url(#p0aaef79a71)">
     <use xlink:href="#C0_0_b33c42ef61" x="273.494786" y="119.474704" style="fill: #313695; stroke: #000000"/>
    </g>
    <g clip-path="url(#p0aaef79a71)">
     <use xlink:href="#C0_0_b33c42ef61" x="174.828068" y="109.824879" style="fill: #a50026; stroke: #000000"/>
    </g>
    <g clip-path="url(#p0aaef79a71)">
     <use xlink:href="#C0_0_b33c42ef61" x="229.1407" y="132.511042" style="fill: #a50026; stroke: #000000"/>
    </g>
    <g clip-path="url(#p0aaef79a71)">
     <use xlink:href="#C0_0_b33c42ef61" x="223.19414" y="127.921719" style="fill: #a50026; stroke: #000000"/>
    </g>
    <g clip-path="url(#p0aaef79a71)">
     <use xlink:href="#C0_0_b33c42ef61" x="225.205282" y="105.553239" style="fill: #a50026; stroke: #000000"/>
    </g>
    <g clip-path="url(#p0aaef79a71)">
     <use xlink:href="#C0_0_b33c42ef61" x="292.948351" y="146.127148" style="fill: #313695; stroke: #000000"/>
    </g>
    <g clip-path="url(#p0aaef79a71)">
     <use xlink:href="#C0_0_b33c42ef61" x="318.114119" y="161.380643" style="fill: #313695; stroke: #000000"/>
    </g>
    <g clip-path="url(#p0aaef79a71)">
     <use xlink:href="#C0_0_b33c42ef61" x="212.999912" y="107.129547" style="fill: #a50026; stroke: #000000"/>
    </g>
    <g clip-path="url(#p0aaef79a71)">
     <use xlink:href="#C0_0_b33c42ef61" x="232.910031" y="132.991166" style="fill: #a50026; stroke: #000000"/>
    </g>
    <g clip-path="url(#p0aaef79a71)">
     <use xlink:href="#C0_0_b33c42ef61" x="210.408093" y="130.221414" style="fill: #a50026; stroke: #000000"/>
    </g>
    <g clip-path="url(#p0aaef79a71)">
     <use xlink:href="#C0_0_b33c42ef61" x="192.868842" y="101.549732" style="fill: #a50026; stroke: #000000"/>
    </g>
    <g clip-path="url(#p0aaef79a71)">
     <use xlink:href="#C0_0_b33c42ef61" x="236.407535" y="134.490522" style="fill: #a50026; stroke: #000000"/>
    </g>
    <g clip-path="url(#p0aaef79a71)">
     <use xlink:href="#C0_0_b33c42ef61" x="261.369399" y="113.130763" style="fill: #313695; stroke: #000000"/>
    </g>
    <g clip-path="url(#p0aaef79a71)">
     <use xlink:href="#C0_0_b33c42ef61" x="257.378985" y="106.247325" style="fill: #313695; stroke: #000000"/>
    </g>
    <g clip-path="url(#p0aaef79a71)">
     <use xlink:href="#C0_0_b33c42ef61" x="181.844534" y="131.656065" style="fill: #a50026; stroke: #000000"/>
    </g>
    <g clip-path="url(#p0aaef79a71)">
     <use xlink:href="#C0_0_b33c42ef61" x="254.362473" y="106.658598" style="fill: #313695; stroke: #000000"/>
    </g>
    <g clip-path="url(#p0aaef79a71)">
     <use xlink:href="#C0_0_b33c42ef61" x="219.021272" y="117.187673" style="fill: #a50026; stroke: #000000"/>
    </g>
    <g clip-path="url(#p0aaef79a71)">
     <use xlink:href="#C0_0_b33c42ef61" x="278.762468" y="132.326415" style="fill: #313695; stroke: #000000"/>
    </g>
    <g clip-path="url(#p0aaef79a71)">
     <use xlink:href="#C0_0_b33c42ef61" x="245.152347" y="124.011118" style="fill: #a50026; stroke: #000000"/>
    </g>
    <g clip-path="url(#p0aaef79a71)">
     <use xlink:href="#C0_0_b33c42ef61" x="209.968329" y="96.228531" style="fill: #a50026; stroke: #000000"/>
    </g>
    <g clip-path="url(#p0aaef79a71)">
     <use xlink:href="#C0_0_b33c42ef61" x="257.956549" y="102.320497" style="fill: #313695; stroke: #000000"/>
    </g>
    <g clip-path="url(#p0aaef79a71)">
     <use xlink:href="#C0_0_b33c42ef61" x="280.042061" y="119.244691" style="fill: #313695; stroke: #000000"/>
    </g>
    <g clip-path="url(#p0aaef79a71)">
     <use xlink:href="#C0_0_b33c42ef61" x="251.356445" y="126.319072" style="fill: #313695; stroke: #000000"/>
    </g>
    <g clip-path="url(#p0aaef79a71)">
     <use xlink:href="#C0_0_b33c42ef61" x="234.896294" y="122.472477" style="fill: #a50026; stroke: #000000"/>
    </g>
    <g clip-path="url(#p0aaef79a71)">
     <use xlink:href="#C0_0_b33c42ef61" x="224.445208" y="106.983481" style="fill: #a50026; stroke: #000000"/>
    </g>
    <g clip-path="url(#p0aaef79a71)">
     <use xlink:href="#C0_0_b33c42ef61" x="182.340212" y="75.009689" style="fill: #a50026; stroke: #000000"/>
    </g>
    <g clip-path="url(#p0aaef79a71)">
     <use xlink:href="#C0_0_b33c42ef61" x="173.700532" y="145.622589" style="fill: #a50026; stroke: #000000"/>
    </g>
    <g clip-path="url(#p0aaef79a71)">
     <use xlink:href="#C0_0_b33c42ef61" x="273.262326" y="102.787045" style="fill: #313695; stroke: #000000"/>
    </g>
    <g clip-path="url(#p0aaef79a71)">
     <use xlink:href="#C0_0_b33c42ef61" x="248.695802" y="106.274731" style="fill: #313695; stroke: #000000"/>
    </g>
    <g clip-path="url(#p0aaef79a71)">
     <use xlink:href="#C0_0_b33c42ef61" x="219.419441" y="138.854365" style="fill: #a50026; stroke: #000000"/>
    </g>
    <g clip-path="url(#p0aaef79a71)">
     <use xlink:href="#C0_0_b33c42ef61" x="223.470287" y="134.154222" style="fill: #a50026; stroke: #000000"/>
    </g>
    <g clip-path="url(#p0aaef79a71)">
     <use xlink:href="#C0_0_b33c42ef61" x="264.843728" y="122.833688" style="fill: #313695; stroke: #000000"/>
    </g>
    <g clip-path="url(#p0aaef79a71)">
     <use xlink:href="#C0_0_b33c42ef61" x="182.005452" y="126.556523" style="fill: #a50026; stroke: #000000"/>
    </g>
    <g clip-path="url(#p0aaef79a71)">
     <use xlink:href="#C0_0_b33c42ef61" x="238.979977" y="131.731738" style="fill: #a50026; stroke: #000000"/>
    </g>
    <g clip-path="url(#p0aaef79a71)">
     <use xlink:href="#C0_0_b33c42ef61" x="182.156203" y="114.489222" style="fill: #a50026; stroke: #000000"/>
    </g>
    <g clip-path="url(#p0aaef79a71)">
     <use xlink:href="#C0_0_b33c42ef61" x="231.252669" y="130.519155" style="fill: #a50026; stroke: #000000"/>
    </g>
    <g clip-path="url(#p0aaef79a71)">
     <use xlink:href="#C0_0_b33c42ef61" x="198.312509" y="114.73774" style="fill: #a50026; stroke: #000000"/>
    </g>
    <g clip-path="url(#p0aaef79a71)">
     <use xlink:href="#C0_0_b33c42ef61" x="153.363022" y="149.750037" style="fill: #a50026; stroke: #000000"/>
    </g>
    <g clip-path="url(#p0aaef79a71)">
     <use xlink:href="#C0_0_b33c42ef61" x="186.930477" y="124.251461" style="fill: #a50026; stroke: #000000"/>
    </g>
    <g clip-path="url(#p0aaef79a71)">
     <use xlink:href="#C0_0_b33c42ef61" x="234.286317" y="88.186568" style="fill: #313695; stroke: #000000"/>
    </g>
    <g clip-path="url(#p0aaef79a71)">
     <use xlink:href="#C0_0_b33c42ef61" x="259.439917" y="123.108769" style="fill: #313695; stroke: #000000"/>
    </g>
    <g clip-path="url(#p0aaef79a71)">
     <use xlink:href="#C0_0_b33c42ef61" x="219.10801" y="141.102544" style="fill: #a50026; stroke: #000000"/>
    </g>
    <g clip-path="url(#p0aaef79a71)">
     <use xlink:href="#C0_0_b33c42ef61" x="219.131154" y="125.857624" style="fill: #a50026; stroke: #000000"/>
    </g>
    <g clip-path="url(#p0aaef79a71)">
     <use xlink:href="#C0_0_b33c42ef61" x="234.829688" y="137.358994" style="fill: #a50026; stroke: #000000"/>
    </g>
    <g clip-path="url(#p0aaef79a71)">
     <use xlink:href="#C0_0_b33c42ef61" x="243.875654" y="86.961144" style="fill: #313695; stroke: #000000"/>
    </g>
    <g clip-path="url(#p0aaef79a71)">
     <use xlink:href="#C0_0_b33c42ef61" x="214.979296" y="111.114562" style="fill: #a50026; stroke: #000000"/>
    </g>
    <g clip-path="url(#p0aaef79a71)">
     <use xlink:href="#C0_0_b33c42ef61" x="251.733277" y="128.261415" style="fill: #a50026; stroke: #000000"/>
    </g>
    <g clip-path="url(#p0aaef79a71)">
     <use xlink:href="#C0_0_b33c42ef61" x="230.292346" y="119.42432" style="fill: #a50026; stroke: #000000"/>
    </g>
    <g clip-path="url(#p0aaef79a71)">
     <use xlink:href="#C0_0_b33c42ef61" x="224.476498" y="136.201085" style="fill: #a50026; stroke: #000000"/>
    </g>
    <g clip-path="url(#p0aaef79a71)">
     <use xlink:href="#C0_0_b33c42ef61" x="221.110463" y="109.058334" style="fill: #a50026; stroke: #000000"/>
    </g>
    <g clip-path="url(#p0aaef79a71)">
     <use xlink:href="#C0_0_b33c42ef61" x="286.743442" y="99.207724" style="fill: #313695; stroke: #000000"/>
    </g>
    <g clip-path="url(#p0aaef79a71)">
     <use xlink:href="#C0_0_b33c42ef61" x="319.041088" y="136.080167" style="fill: #313695; stroke: #000000"/>
    </g>
    <g clip-path="url(#p0aaef79a71)">
     <use xlink:href="#C0_0_b33c42ef61" x="260.114404" y="115.777912" style="fill: #313695; stroke: #000000"/>
    </g>
    <g clip-path="url(#p0aaef79a71)">
     <use xlink:href="#C0_0_b33c42ef61" x="320.725831" y="136.954682" style="fill: #313695; stroke: #000000"/>
    </g>
    <g clip-path="url(#p0aaef79a71)">
     <use xlink:href="#C0_0_b33c42ef61" x="181.35104" y="132.49344" style="fill: #a50026; stroke: #000000"/>
    </g>
    <g clip-path="url(#p0aaef79a71)">
     <use xlink:href="#C0_0_b33c42ef61" x="122.271984" y="130.920887" style="fill: #a50026; stroke: #000000"/>
    </g>
    <g clip-path="url(#p0aaef79a71)">
     <use xlink:href="#C0_0_b33c42ef61" x="185.058586" y="116.481531" style="fill: #a50026; stroke: #000000"/>
    </g>
    <g clip-path="url(#p0aaef79a71)">
     <use xlink:href="#C0_0_b33c42ef61" x="235.705514" y="79.627054" style="fill: #313695; stroke: #000000"/>
    </g>
    <g clip-path="url(#p0aaef79a71)">
     <use xlink:href="#C0_0_b33c42ef61" x="263.707581" y="132.013181" style="fill: #313695; stroke: #000000"/>
    </g>
    <g clip-path="url(#p0aaef79a71)">
     <use xlink:href="#C0_0_b33c42ef61" x="178.650848" y="109.188156" style="fill: #a50026; stroke: #000000"/>
    </g>
    <g clip-path="url(#p0aaef79a71)">
     <use xlink:href="#C0_0_b33c42ef61" x="159.244877" y="80.581894" style="fill: #a50026; stroke: #000000"/>
    </g>
    <g clip-path="url(#p0aaef79a71)">
     <use xlink:href="#C0_0_b33c42ef61" x="274.243588" y="129.712618" style="fill: #313695; stroke: #000000"/>
    </g>
    <g clip-path="url(#p0aaef79a71)">
     <use xlink:href="#C0_0_b33c42ef61" x="141.169256" y="90.780891" style="fill: #a50026; stroke: #000000"/>
    </g>
    <g clip-path="url(#p0aaef79a71)">
     <use xlink:href="#C0_0_b33c42ef61" x="214.713398" y="93.259303" style="fill: #313695; stroke: #000000"/>
    </g>
   </g>
   <g id="matplotlib.axis_1">
    <g id="xtick_1">
     <g id="line2d_1">
      <path d="M 81.966372 172.816 
L 81.966372 27.6 
" clip-path="url(#p0aaef79a71)" style="fill: none; stroke: #b0b0b0; stroke-opacity: 0.3; stroke-width: 0.8; stroke-linecap: square"/>
     </g>
     <g id="line2d_2">
      <defs>
       <path id="mb3faf17cb0" d="M 0 0 
L 0 3.5 
" style="stroke: #000000; stroke-width: 0.8"/>
      </defs>
      <g>
       <use xlink:href="#mb3faf17cb0" x="81.966372" y="172.816" style="stroke: #000000; stroke-width: 0.8"/>
      </g>
     </g>
     <g id="text_1">
      <!-- 6 -->
      <g transform="translate(74.595278 187.414437) scale(0.1 -0.1)">
       <defs>
        <path id="DejaVuSans-2212" d="M 678 2272 
L 4684 2272 
L 4684 1741 
L 678 1741 
L 678 2272 
z
" transform="scale(0.015625)"/>
        <path id="DejaVuSans-36" d="M 2113 2584 
Q 1688 2584 1439 2293 
Q 1191 2003 1191 1497 
Q 1191 994 1439 701 
Q 1688 409 2113 409 
Q 2538 409 2786 701 
Q 3034 994 3034 1497 
Q 3034 2003 2786 2293 
Q 2538 2584 2113 2584 
z
M 3366 4563 
L 3366 3988 
Q 3128 4100 2886 4159 
Q 2644 4219 2406 4219 
Q 1781 4219 1451 3797 
Q 1122 3375 1075 2522 
Q 1259 2794 1537 2939 
Q 1816 3084 2150 3084 
Q 2853 3084 3261 2657 
Q 3669 2231 3669 1497 
Q 3669 778 3244 343 
Q 2819 -91 2113 -91 
Q 1303 -91 875 529 
Q 447 1150 447 2328 
Q 447 3434 972 4092 
Q 1497 4750 2381 4750 
Q 2619 4750 2861 4703 
Q 3103 4656 3366 4563 
z
" transform="scale(0.015625)"/>
       </defs>
       <use xlink:href="#DejaVuSans-2212"/>
       <use xlink:href="#DejaVuSans-36" x="83.789062"/>
      </g>
     </g>
    </g>
    <g id="xtick_2">
     <g id="line2d_3">
      <path d="M 127.971868 172.816 
L 127.971868 27.6 
" clip-path="url(#p0aaef79a71)" style="fill: none; stroke: #b0b0b0; stroke-opacity: 0.3; stroke-width: 0.8; stroke-linecap: square"/>
     </g>
     <g id="line2d_4">
      <g>
       <use xlink:href="#mb3faf17cb0" x="127.971868" y="172.816" style="stroke: #000000; stroke-width: 0.8"/>
      </g>
     </g>
     <g id="text_2">
      <!-- 4 -->
      <g transform="translate(120.600774 187.414437) scale(0.1 -0.1)">
       <defs>
        <path id="DejaVuSans-34" d="M 2419 4116 
L 825 1625 
L 2419 1625 
L 2419 4116 
z
M 2253 4666 
L 3047 4666 
L 3047 1625 
L 3713 1625 
L 3713 1100 
L 3047 1100 
L 3047 0 
L 2419 0 
L 2419 1100 
L 313 1100 
L 313 1709 
L 2253 4666 
z
" transform="scale(0.015625)"/>
       </defs>
       <use xlink:href="#DejaVuSans-2212"/>
       <use xlink:href="#DejaVuSans-34" x="83.789062"/>
      </g>
     </g>
    </g>
    <g id="xtick_3">
     <g id="line2d_5">
      <path d="M 173.977364 172.816 
L 173.977364 27.6 
" clip-path="url(#p0aaef79a71)" style="fill: none; stroke: #b0b0b0; stroke-opacity: 0.3; stroke-width: 0.8; stroke-linecap: square"/>
     </g>
     <g id="line2d_6">
      <g>
       <use xlink:href="#mb3faf17cb0" x="173.977364" y="172.816" style="stroke: #000000; stroke-width: 0.8"/>
      </g>
     </g>
     <g id="text_3">
      <!-- 2 -->
      <g transform="translate(166.60627 187.414437) scale(0.1 -0.1)">
       <defs>
        <path id="DejaVuSans-32" d="M 1228 531 
L 3431 531 
L 3431 0 
L 469 0 
L 469 531 
Q 828 903 1448 1529 
Q 2069 2156 2228 2338 
Q 2531 2678 2651 2914 
Q 2772 3150 2772 3378 
Q 2772 3750 2511 3984 
Q 2250 4219 1831 4219 
Q 1534 4219 1204 4116 
Q 875 4013 500 3803 
L 500 4441 
Q 881 4594 1212 4672 
Q 1544 4750 1819 4750 
Q 2544 4750 2975 4387 
Q 3406 4025 3406 3419 
Q 3406 3131 3298 2873 
Q 3191 2616 2906 2266 
Q 2828 2175 2409 1742 
Q 1991 1309 1228 531 
z
" transform="scale(0.015625)"/>
       </defs>
       <use xlink:href="#DejaVuSans-2212"/>
       <use xlink:href="#DejaVuSans-32" x="83.789062"/>
      </g>
     </g>
    </g>
    <g id="xtick_4">
     <g id="line2d_7">
      <path d="M 219.98286 172.816 
L 219.98286 27.6 
" clip-path="url(#p0aaef79a71)" style="fill: none; stroke: #b0b0b0; stroke-opacity: 0.3; stroke-width: 0.8; stroke-linecap: square"/>
     </g>
     <g id="line2d_8">
      <g>
       <use xlink:href="#mb3faf17cb0" x="219.98286" y="172.816" style="stroke: #000000; stroke-width: 0.8"/>
      </g>
     </g>
     <g id="text_4">
      <!-- 0 -->
      <g transform="translate(216.80161 187.414437) scale(0.1 -0.1)">
       <defs>
        <path id="DejaVuSans-30" d="M 2034 4250 
Q 1547 4250 1301 3770 
Q 1056 3291 1056 2328 
Q 1056 1369 1301 889 
Q 1547 409 2034 409 
Q 2525 409 2770 889 
Q 3016 1369 3016 2328 
Q 3016 3291 2770 3770 
Q 2525 4250 2034 4250 
z
M 2034 4750 
Q 2819 4750 3233 4129 
Q 3647 3509 3647 2328 
Q 3647 1150 3233 529 
Q 2819 -91 2034 -91 
Q 1250 -91 836 529 
Q 422 1150 422 2328 
Q 422 3509 836 4129 
Q 1250 4750 2034 4750 
z
" transform="scale(0.015625)"/>
       </defs>
       <use xlink:href="#DejaVuSans-30"/>
      </g>
     </g>
    </g>
    <g id="xtick_5">
     <g id="line2d_9">
      <path d="M 265.988357 172.816 
L 265.988357 27.6 
" clip-path="url(#p0aaef79a71)" style="fill: none; stroke: #b0b0b0; stroke-opacity: 0.3; stroke-width: 0.8; stroke-linecap: square"/>
     </g>
     <g id="line2d_10">
      <g>
       <use xlink:href="#mb3faf17cb0" x="265.988357" y="172.816" style="stroke: #000000; stroke-width: 0.8"/>
      </g>
     </g>
     <g id="text_5">
      <!-- 2 -->
      <g transform="translate(262.807107 187.414437) scale(0.1 -0.1)">
       <use xlink:href="#DejaVuSans-32"/>
      </g>
     </g>
    </g>
    <g id="xtick_6">
     <g id="line2d_11">
      <path d="M 311.993853 172.816 
L 311.993853 27.6 
" clip-path="url(#p0aaef79a71)" style="fill: none; stroke: #b0b0b0; stroke-opacity: 0.3; stroke-width: 0.8; stroke-linecap: square"/>
     </g>
     <g id="line2d_12">
      <g>
       <use xlink:href="#mb3faf17cb0" x="311.993853" y="172.816" style="stroke: #000000; stroke-width: 0.8"/>
      </g>
     </g>
     <g id="text_6">
      <!-- 4 -->
      <g transform="translate(308.812603 187.414437) scale(0.1 -0.1)">
       <use xlink:href="#DejaVuSans-34"/>
      </g>
     </g>
    </g>
    <g id="text_7">
     <!-- $x_1$ -->
     <g transform="translate(192.112 202.61225) scale(0.12 -0.12)">
      <defs>
       <path id="DejaVuSans-Oblique-78" d="M 3841 3500 
L 2234 1784 
L 3219 0 
L 2559 0 
L 1819 1388 
L 531 0 
L -166 0 
L 1556 1844 
L 641 3500 
L 1300 3500 
L 1972 2234 
L 3144 3500 
L 3841 3500 
z
" transform="scale(0.015625)"/>
       <path id="DejaVuSans-31" d="M 794 531 
L 1825 531 
L 1825 4091 
L 703 3866 
L 703 4441 
L 1819 4666 
L 2450 4666 
L 2450 531 
L 3481 531 
L 3481 0 
L 794 0 
L 794 531 
z
" transform="scale(0.015625)"/>
      </defs>
      <use xlink:href="#DejaVuSans-Oblique-78" transform="translate(0 0.3125)"/>
      <use xlink:href="#DejaVuSans-31" transform="translate(59.179688 -16.09375) scale(0.7)"/>
     </g>
    </g>
   </g>
   <g id="matplotlib.axis_2">
    <g id="ytick_1">
     <g id="line2d_13">
      <path d="M 47.864 162.403822 
L 349.2 162.403822 
" clip-path="url(#p0aaef79a71)" style="fill: none; stroke: #b0b0b0; stroke-opacity: 0.3; stroke-width: 0.8; stroke-linecap: square"/>
     </g>
     <g id="line2d_14">
      <defs>
       <path id="m7e8f619c52" d="M 0 0 
L -3.5 0 
" style="stroke: #000000; stroke-width: 0.8"/>
      </defs>
      <g>
       <use xlink:href="#m7e8f619c52" x="47.864" y="162.403822" style="stroke: #000000; stroke-width: 0.8"/>
      </g>
     </g>
     <g id="text_8">
      <!-- 4 -->
      <g transform="translate(26.121812 166.203041) scale(0.1 -0.1)">
       <use xlink:href="#DejaVuSans-2212"/>
       <use xlink:href="#DejaVuSans-34" x="83.789062"/>
      </g>
     </g>
    </g>
    <g id="ytick_2">
     <g id="line2d_15">
      <path d="M 47.864 141.048528 
L 349.2 141.048528 
" clip-path="url(#p0aaef79a71)" style="fill: none; stroke: #b0b0b0; stroke-opacity: 0.3; stroke-width: 0.8; stroke-linecap: square"/>
     </g>
     <g id="line2d_16">
      <g>
       <use xlink:href="#m7e8f619c52" x="47.864" y="141.048528" style="stroke: #000000; stroke-width: 0.8"/>
      </g>
     </g>
     <g id="text_9">
      <!-- 2 -->
      <g transform="translate(26.121812 144.847747) scale(0.1 -0.1)">
       <use xlink:href="#DejaVuSans-2212"/>
       <use xlink:href="#DejaVuSans-32" x="83.789062"/>
      </g>
     </g>
    </g>
    <g id="ytick_3">
     <g id="line2d_17">
      <path d="M 47.864 119.693234 
L 349.2 119.693234 
" clip-path="url(#p0aaef79a71)" style="fill: none; stroke: #b0b0b0; stroke-opacity: 0.3; stroke-width: 0.8; stroke-linecap: square"/>
     </g>
     <g id="line2d_18">
      <g>
       <use xlink:href="#m7e8f619c52" x="47.864" y="119.693234" style="stroke: #000000; stroke-width: 0.8"/>
      </g>
     </g>
     <g id="text_10">
      <!-- 0 -->
      <g transform="translate(34.5015 123.492453) scale(0.1 -0.1)">
       <use xlink:href="#DejaVuSans-30"/>
      </g>
     </g>
    </g>
    <g id="ytick_4">
     <g id="line2d_19">
      <path d="M 47.864 98.33794 
L 349.2 98.33794 
" clip-path="url(#p0aaef79a71)" style="fill: none; stroke: #b0b0b0; stroke-opacity: 0.3; stroke-width: 0.8; stroke-linecap: square"/>
     </g>
     <g id="line2d_20">
      <g>
       <use xlink:href="#m7e8f619c52" x="47.864" y="98.33794" style="stroke: #000000; stroke-width: 0.8"/>
      </g>
     </g>
     <g id="text_11">
      <!-- 2 -->
      <g transform="translate(34.5015 102.137159) scale(0.1 -0.1)">
       <use xlink:href="#DejaVuSans-32"/>
      </g>
     </g>
    </g>
    <g id="ytick_5">
     <g id="line2d_21">
      <path d="M 47.864 76.982646 
L 349.2 76.982646 
" clip-path="url(#p0aaef79a71)" style="fill: none; stroke: #b0b0b0; stroke-opacity: 0.3; stroke-width: 0.8; stroke-linecap: square"/>
     </g>
     <g id="line2d_22">
      <g>
       <use xlink:href="#m7e8f619c52" x="47.864" y="76.982646" style="stroke: #000000; stroke-width: 0.8"/>
      </g>
     </g>
     <g id="text_12">
      <!-- 4 -->
      <g transform="translate(34.5015 80.781865) scale(0.1 -0.1)">
       <use xlink:href="#DejaVuSans-34"/>
      </g>
     </g>
    </g>
    <g id="ytick_6">
     <g id="line2d_23">
      <path d="M 47.864 55.627352 
L 349.2 55.627352 
" clip-path="url(#p0aaef79a71)" style="fill: none; stroke: #b0b0b0; stroke-opacity: 0.3; stroke-width: 0.8; stroke-linecap: square"/>
     </g>
     <g id="line2d_24">
      <g>
       <use xlink:href="#m7e8f619c52" x="47.864" y="55.627352" style="stroke: #000000; stroke-width: 0.8"/>
      </g>
     </g>
     <g id="text_13">
      <!-- 6 -->
      <g transform="translate(34.5015 59.426571) scale(0.1 -0.1)">
       <use xlink:href="#DejaVuSans-36"/>
      </g>
     </g>
    </g>
    <g id="ytick_7">
     <g id="line2d_25">
      <path d="M 47.864 34.272058 
L 349.2 34.272058 
" clip-path="url(#p0aaef79a71)" style="fill: none; stroke: #b0b0b0; stroke-opacity: 0.3; stroke-width: 0.8; stroke-linecap: square"/>
     </g>
     <g id="line2d_26">
      <g>
       <use xlink:href="#m7e8f619c52" x="47.864" y="34.272058" style="stroke: #000000; stroke-width: 0.8"/>
      </g>
     </g>
     <g id="text_14">
      <!-- 8 -->
      <g transform="translate(34.5015 38.071276) scale(0.1 -0.1)">
       <defs>
        <path id="DejaVuSans-38" d="M 2034 2216 
Q 1584 2216 1326 1975 
Q 1069 1734 1069 1313 
Q 1069 891 1326 650 
Q 1584 409 2034 409 
Q 2484 409 2743 651 
Q 3003 894 3003 1313 
Q 3003 1734 2745 1975 
Q 2488 2216 2034 2216 
z
M 1403 2484 
Q 997 2584 770 2862 
Q 544 3141 544 3541 
Q 544 4100 942 4425 
Q 1341 4750 2034 4750 
Q 2731 4750 3128 4425 
Q 3525 4100 3525 3541 
Q 3525 3141 3298 2862 
Q 3072 2584 2669 2484 
Q 3125 2378 3379 2068 
Q 3634 1759 3634 1313 
Q 3634 634 3220 271 
Q 2806 -91 2034 -91 
Q 1263 -91 848 271 
Q 434 634 434 1313 
Q 434 1759 690 2068 
Q 947 2378 1403 2484 
z
M 1172 3481 
Q 1172 3119 1398 2916 
Q 1625 2713 2034 2713 
Q 2441 2713 2670 2916 
Q 2900 3119 2900 3481 
Q 2900 3844 2670 4047 
Q 2441 4250 2034 4250 
Q 1625 4250 1398 4047 
Q 1172 3844 1172 3481 
z
" transform="scale(0.015625)"/>
       </defs>
       <use xlink:href="#DejaVuSans-38"/>
      </g>
     </g>
    </g>
    <g id="text_15">
     <!-- $x_2$ -->
     <g transform="translate(19.626187 106.628) rotate(-90) scale(0.12 -0.12)">
      <use xlink:href="#DejaVuSans-Oblique-78" transform="translate(0 0.3125)"/>
      <use xlink:href="#DejaVuSans-32" transform="translate(59.179688 -16.09375) scale(0.7)"/>
     </g>
    </g>
   </g>
   <g id="QuadContourSet_2">
    <path d="M 143.787843 27.6 
L 300.20653 172.816 
L 300.20653 172.816 
" clip-path="url(#p0aaef79a71)" style="fill: none; stroke: #000000; stroke-width: 2"/>
   </g>
   <g id="patch_3">
    <path d="M 47.864 172.816 
L 47.864 27.6 
" style="fill: none; stroke: #000000; stroke-width: 0.8; stroke-linejoin: miter; stroke-linecap: square"/>
   </g>
   <g id="patch_4">
    <path d="M 349.2 172.816 
L 349.2 27.6 
" style="fill: none; stroke: #000000; stroke-width: 0.8; stroke-linejoin: miter; stroke-linecap: square"/>
   </g>
   <g id="patch_5">
    <path d="M 47.864 172.816 
L 349.2 172.816 
" style="fill: none; stroke: #000000; stroke-width: 0.8; stroke-linejoin: miter; stroke-linecap: square"/>
   </g>
   <g id="patch_6">
    <path d="M 47.864 27.6 
L 349.2 27.6 
" style="fill: none; stroke: #000000; stroke-width: 0.8; stroke-linejoin: miter; stroke-linecap: square"/>
   </g>
   <g id="text_16">
    <g id="patch_7">
     <path d="M 219.98286 73.444999 
L 338.28286 73.444999 
Q 342.48286 73.444999 342.48286 69.244999 
L 342.48286 53.424999 
Q 342.48286 49.224999 338.28286 49.224999 
L 219.98286 49.224999 
Q 215.78286 49.224999 215.78286 53.424999 
L 215.78286 69.244999 
Q 215.78286 73.444999 219.98286 73.444999 
z
" style="fill: #add8e6; stroke: #000000; stroke-linejoin: miter"/>
    </g>
    <!-- $\hat{y} = 1; \sigma(x^\top \beta) &gt; 0$ -->
    <g transform="translate(219.98286 66.304999) scale(0.14 -0.14)">
     <defs>
      <path id="DejaVuSans-302" d="M -1831 5119 
L -1369 5119 
L -603 3944 
L -1038 3944 
L -1600 4709 
L -2163 3944 
L -2597 3944 
L -1831 5119 
z
M -1600 3584 
L -1600 3584 
z
" transform="scale(0.015625)"/>
      <path id="DejaVuSans-Oblique-79" d="M 1588 -325 
Q 1188 -997 936 -1164 
Q 684 -1331 294 -1331 
L -159 -1331 
L -63 -850 
L 269 -850 
Q 509 -850 678 -719 
Q 847 -588 1056 -206 
L 1234 128 
L 459 3500 
L 1069 3500 
L 1650 819 
L 3256 3500 
L 3859 3500 
L 1588 -325 
z
" transform="scale(0.015625)"/>
      <path id="DejaVuSans-3d" d="M 678 2906 
L 4684 2906 
L 4684 2381 
L 678 2381 
L 678 2906 
z
M 678 1631 
L 4684 1631 
L 4684 1100 
L 678 1100 
L 678 1631 
z
" transform="scale(0.015625)"/>
      <path id="DejaVuSans-3b" d="M 750 3309 
L 1409 3309 
L 1409 2516 
L 750 2516 
L 750 3309 
z
M 750 794 
L 1409 794 
L 1409 256 
L 897 -744 
L 494 -744 
L 750 256 
L 750 794 
z
" transform="scale(0.015625)"/>
      <path id="DejaVuSans-Oblique-3c3" d="M 2219 3044 
Q 1744 3044 1422 2700 
Q 1081 2341 969 1747 
Q 844 1119 1044 756 
Q 1241 397 1706 397 
Q 2166 397 2503 759 
Q 2844 1122 2966 1747 
Q 3075 2319 2881 2700 
Q 2700 3044 2219 3044 
z
M 2309 3503 
L 4219 3500 
L 4106 2925 
L 3463 2925 
Q 3706 2438 3575 1747 
Q 3406 888 2884 400 
Q 2359 -91 1609 -91 
Q 856 -91 525 400 
Q 194 888 363 1747 
Q 528 2609 1050 3097 
Q 1484 3503 2309 3503 
z
" transform="scale(0.015625)"/>
      <path id="DejaVuSans-28" d="M 1984 4856 
Q 1566 4138 1362 3434 
Q 1159 2731 1159 2009 
Q 1159 1288 1364 580 
Q 1569 -128 1984 -844 
L 1484 -844 
Q 1016 -109 783 600 
Q 550 1309 550 2009 
Q 550 2706 781 3412 
Q 1013 4119 1484 4856 
L 1984 4856 
z
" transform="scale(0.015625)"/>
      <path id="DejaVuSans-22a4" d="M 5028 4481 
L 5028 4084 
L 2988 4084 
L 2988 0 
L 2588 0 
L 2588 4084 
L 547 4084 
L 547 4481 
L 5028 4481 
z
" transform="scale(0.015625)"/>
      <path id="DejaVuSans-Oblique-3b2" d="M 872 216 
L 572 -1331 
L -6 -1331 
L 928 3478 
Q 1206 4903 2538 4903 
Q 3888 4903 3659 3700 
Q 3503 2844 2894 2531 
Q 3713 2250 3553 1416 
Q 3272 -69 1759 -66 
Q 1097 -63 872 216 
z
M 1019 966 
Q 1259 422 1875 425 
Q 2775 425 2966 1406 
Q 3138 2288 1675 2219 
L 1778 2750 
Q 2909 2731 3106 3750 
Q 3241 4438 2509 4434 
Q 1691 4434 1503 3459 
L 1019 966 
z
" transform="scale(0.015625)"/>
      <path id="DejaVuSans-29" d="M 513 4856 
L 1013 4856 
Q 1481 4119 1714 3412 
Q 1947 2706 1947 2009 
Q 1947 1309 1714 600 
Q 1481 -109 1013 -844 
L 513 -844 
Q 928 -128 1133 580 
Q 1338 1288 1338 2009 
Q 1338 2731 1133 3434 
Q 928 4138 513 4856 
z
" transform="scale(0.015625)"/>
      <path id="DejaVuSans-3e" d="M 678 3150 
L 678 3719 
L 4684 2266 
L 4684 1747 
L 678 294 
L 678 863 
L 3897 2003 
L 678 3150 
z
" transform="scale(0.015625)"/>
     </defs>
     <use xlink:href="#DejaVuSans-302" transform="translate(62.373047 12.015625)"/>
     <use xlink:href="#DejaVuSans-Oblique-79" transform="translate(0 0.828125)"/>
     <use xlink:href="#DejaVuSans-3d" transform="translate(78.662109 0.828125)"/>
     <use xlink:href="#DejaVuSans-31" transform="translate(181.933594 0.828125)"/>
     <use xlink:href="#DejaVuSans-3b" transform="translate(245.556641 0.828125)"/>
     <use xlink:href="#DejaVuSans-Oblique-3c3" transform="translate(298.730469 0.828125)"/>
     <use xlink:href="#DejaVuSans-28" transform="translate(362.109375 0.828125)"/>
     <use xlink:href="#DejaVuSans-Oblique-78" transform="translate(401.123047 0.828125)"/>
     <use xlink:href="#DejaVuSans-22a4" transform="translate(478.406576 39.109375) scale(0.7)"/>
     <use xlink:href="#DejaVuSans-Oblique-3b2" transform="translate(555.755208 0.828125)"/>
     <use xlink:href="#DejaVuSans-29" transform="translate(619.573568 0.828125)"/>
     <use xlink:href="#DejaVuSans-3e" transform="translate(678.069661 0.828125)"/>
     <use xlink:href="#DejaVuSans-30" transform="translate(781.341146 0.828125)"/>
    </g>
   </g>
   <g id="text_17">
    <g id="patch_8">
     <path d="M 81.966372 148.188528 
L 200.266372 148.188528 
Q 204.466372 148.188528 204.466372 143.988528 
L 204.466372 128.168528 
Q 204.466372 123.968528 200.266372 123.968528 
L 81.966372 123.968528 
Q 77.766372 123.968528 77.766372 128.168528 
L 77.766372 143.988528 
Q 77.766372 148.188528 81.966372 148.188528 
z
" style="fill: #f08080; stroke: #000000; stroke-linejoin: miter"/>
    </g>
    <!-- $\hat{y} = 0; \sigma(x^\top \beta) &lt; 0$ -->
    <g transform="translate(81.966372 141.048528) scale(0.14 -0.14)">
     <defs>
      <path id="DejaVuSans-3c" d="M 4684 3150 
L 1459 2003 
L 4684 863 
L 4684 294 
L 678 1747 
L 678 2266 
L 4684 3719 
L 4684 3150 
z
" transform="scale(0.015625)"/>
     </defs>
     <use xlink:href="#DejaVuSans-302" transform="translate(62.373047 12.015625)"/>
     <use xlink:href="#DejaVuSans-Oblique-79" transform="translate(0 0.828125)"/>
     <use xlink:href="#DejaVuSans-3d" transform="translate(78.662109 0.828125)"/>
     <use xlink:href="#DejaVuSans-30" transform="translate(181.933594 0.828125)"/>
     <use xlink:href="#DejaVuSans-3b" transform="translate(245.556641 0.828125)"/>
     <use xlink:href="#DejaVuSans-Oblique-3c3" transform="translate(298.730469 0.828125)"/>
     <use xlink:href="#DejaVuSans-28" transform="translate(362.109375 0.828125)"/>
     <use xlink:href="#DejaVuSans-Oblique-78" transform="translate(401.123047 0.828125)"/>
     <use xlink:href="#DejaVuSans-22a4" transform="translate(478.406576 39.109375) scale(0.7)"/>
     <use xlink:href="#DejaVuSans-Oblique-3b2" transform="translate(555.755208 0.828125)"/>
     <use xlink:href="#DejaVuSans-29" transform="translate(619.573568 0.828125)"/>
     <use xlink:href="#DejaVuSans-3c" transform="translate(678.069661 0.828125)"/>
     <use xlink:href="#DejaVuSans-30" transform="translate(781.341146 0.828125)"/>
    </g>
   </g>
   <g id="text_18">
    <g id="patch_9">
     <path d="M 118.154616 55.089705 
L 183.794616 55.089705 
Q 187.394616 55.089705 187.394616 51.489705 
L 187.394616 38.409705 
Q 187.394616 34.809705 183.794616 34.809705 
L 118.154616 34.809705 
Q 114.554616 34.809705 114.554616 38.409705 
L 114.554616 51.489705 
Q 114.554616 55.089705 118.154616 55.089705 
z
" style="fill: #808080; stroke: #000000; stroke-linejoin: miter"/>
    </g>
    <!-- $\sigma(x^\top \beta) = 0$ -->
    <g transform="translate(118.154616 48.969705) scale(0.12 -0.12)">
     <use xlink:href="#DejaVuSans-Oblique-3c3" transform="translate(0 0.707813)"/>
     <use xlink:href="#DejaVuSans-28" transform="translate(63.378906 0.707813)"/>
     <use xlink:href="#DejaVuSans-Oblique-78" transform="translate(102.392578 0.707813)"/>
     <use xlink:href="#DejaVuSans-22a4" transform="translate(179.676107 38.989063) scale(0.7)"/>
     <use xlink:href="#DejaVuSans-Oblique-3b2" transform="translate(257.02474 0.707813)"/>
     <use xlink:href="#DejaVuSans-29" transform="translate(320.843099 0.707813)"/>
     <use xlink:href="#DejaVuSans-3d" transform="translate(379.339193 0.707813)"/>
     <use xlink:href="#DejaVuSans-30" transform="translate(482.610677 0.707813)"/>
    </g>
   </g>
   <g id="text_19">
    <!-- Decision Boundary for Binary Classification -->
    <g transform="translate(47.684188 21.6) scale(0.14 -0.14)">
     <defs>
      <path id="DejaVuSans-44" d="M 1259 4147 
L 1259 519 
L 2022 519 
Q 2988 519 3436 956 
Q 3884 1394 3884 2338 
Q 3884 3275 3436 3711 
Q 2988 4147 2022 4147 
L 1259 4147 
z
M 628 4666 
L 1925 4666 
Q 3281 4666 3915 4102 
Q 4550 3538 4550 2338 
Q 4550 1131 3912 565 
Q 3275 0 1925 0 
L 628 0 
L 628 4666 
z
" transform="scale(0.015625)"/>
      <path id="DejaVuSans-65" d="M 3597 1894 
L 3597 1613 
L 953 1613 
Q 991 1019 1311 708 
Q 1631 397 2203 397 
Q 2534 397 2845 478 
Q 3156 559 3463 722 
L 3463 178 
Q 3153 47 2828 -22 
Q 2503 -91 2169 -91 
Q 1331 -91 842 396 
Q 353 884 353 1716 
Q 353 2575 817 3079 
Q 1281 3584 2069 3584 
Q 2775 3584 3186 3129 
Q 3597 2675 3597 1894 
z
M 3022 2063 
Q 3016 2534 2758 2815 
Q 2500 3097 2075 3097 
Q 1594 3097 1305 2825 
Q 1016 2553 972 2059 
L 3022 2063 
z
" transform="scale(0.015625)"/>
      <path id="DejaVuSans-63" d="M 3122 3366 
L 3122 2828 
Q 2878 2963 2633 3030 
Q 2388 3097 2138 3097 
Q 1578 3097 1268 2742 
Q 959 2388 959 1747 
Q 959 1106 1268 751 
Q 1578 397 2138 397 
Q 2388 397 2633 464 
Q 2878 531 3122 666 
L 3122 134 
Q 2881 22 2623 -34 
Q 2366 -91 2075 -91 
Q 1284 -91 818 406 
Q 353 903 353 1747 
Q 353 2603 823 3093 
Q 1294 3584 2113 3584 
Q 2378 3584 2631 3529 
Q 2884 3475 3122 3366 
z
" transform="scale(0.015625)"/>
      <path id="DejaVuSans-69" d="M 603 3500 
L 1178 3500 
L 1178 0 
L 603 0 
L 603 3500 
z
M 603 4863 
L 1178 4863 
L 1178 4134 
L 603 4134 
L 603 4863 
z
" transform="scale(0.015625)"/>
      <path id="DejaVuSans-73" d="M 2834 3397 
L 2834 2853 
Q 2591 2978 2328 3040 
Q 2066 3103 1784 3103 
Q 1356 3103 1142 2972 
Q 928 2841 928 2578 
Q 928 2378 1081 2264 
Q 1234 2150 1697 2047 
L 1894 2003 
Q 2506 1872 2764 1633 
Q 3022 1394 3022 966 
Q 3022 478 2636 193 
Q 2250 -91 1575 -91 
Q 1294 -91 989 -36 
Q 684 19 347 128 
L 347 722 
Q 666 556 975 473 
Q 1284 391 1588 391 
Q 1994 391 2212 530 
Q 2431 669 2431 922 
Q 2431 1156 2273 1281 
Q 2116 1406 1581 1522 
L 1381 1569 
Q 847 1681 609 1914 
Q 372 2147 372 2553 
Q 372 3047 722 3315 
Q 1072 3584 1716 3584 
Q 2034 3584 2315 3537 
Q 2597 3491 2834 3397 
z
" transform="scale(0.015625)"/>
      <path id="DejaVuSans-6f" d="M 1959 3097 
Q 1497 3097 1228 2736 
Q 959 2375 959 1747 
Q 959 1119 1226 758 
Q 1494 397 1959 397 
Q 2419 397 2687 759 
Q 2956 1122 2956 1747 
Q 2956 2369 2687 2733 
Q 2419 3097 1959 3097 
z
M 1959 3584 
Q 2709 3584 3137 3096 
Q 3566 2609 3566 1747 
Q 3566 888 3137 398 
Q 2709 -91 1959 -91 
Q 1206 -91 779 398 
Q 353 888 353 1747 
Q 353 2609 779 3096 
Q 1206 3584 1959 3584 
z
" transform="scale(0.015625)"/>
      <path id="DejaVuSans-6e" d="M 3513 2113 
L 3513 0 
L 2938 0 
L 2938 2094 
Q 2938 2591 2744 2837 
Q 2550 3084 2163 3084 
Q 1697 3084 1428 2787 
Q 1159 2491 1159 1978 
L 1159 0 
L 581 0 
L 581 3500 
L 1159 3500 
L 1159 2956 
Q 1366 3272 1645 3428 
Q 1925 3584 2291 3584 
Q 2894 3584 3203 3211 
Q 3513 2838 3513 2113 
z
" transform="scale(0.015625)"/>
      <path id="DejaVuSans-20" transform="scale(0.015625)"/>
      <path id="DejaVuSans-42" d="M 1259 2228 
L 1259 519 
L 2272 519 
Q 2781 519 3026 730 
Q 3272 941 3272 1375 
Q 3272 1813 3026 2020 
Q 2781 2228 2272 2228 
L 1259 2228 
z
M 1259 4147 
L 1259 2741 
L 2194 2741 
Q 2656 2741 2882 2914 
Q 3109 3088 3109 3444 
Q 3109 3797 2882 3972 
Q 2656 4147 2194 4147 
L 1259 4147 
z
M 628 4666 
L 2241 4666 
Q 2963 4666 3353 4366 
Q 3744 4066 3744 3513 
Q 3744 3084 3544 2831 
Q 3344 2578 2956 2516 
Q 3422 2416 3680 2098 
Q 3938 1781 3938 1306 
Q 3938 681 3513 340 
Q 3088 0 2303 0 
L 628 0 
L 628 4666 
z
" transform="scale(0.015625)"/>
      <path id="DejaVuSans-75" d="M 544 1381 
L 544 3500 
L 1119 3500 
L 1119 1403 
Q 1119 906 1312 657 
Q 1506 409 1894 409 
Q 2359 409 2629 706 
Q 2900 1003 2900 1516 
L 2900 3500 
L 3475 3500 
L 3475 0 
L 2900 0 
L 2900 538 
Q 2691 219 2414 64 
Q 2138 -91 1772 -91 
Q 1169 -91 856 284 
Q 544 659 544 1381 
z
M 1991 3584 
L 1991 3584 
z
" transform="scale(0.015625)"/>
      <path id="DejaVuSans-64" d="M 2906 2969 
L 2906 4863 
L 3481 4863 
L 3481 0 
L 2906 0 
L 2906 525 
Q 2725 213 2448 61 
Q 2172 -91 1784 -91 
Q 1150 -91 751 415 
Q 353 922 353 1747 
Q 353 2572 751 3078 
Q 1150 3584 1784 3584 
Q 2172 3584 2448 3432 
Q 2725 3281 2906 2969 
z
M 947 1747 
Q 947 1113 1208 752 
Q 1469 391 1925 391 
Q 2381 391 2643 752 
Q 2906 1113 2906 1747 
Q 2906 2381 2643 2742 
Q 2381 3103 1925 3103 
Q 1469 3103 1208 2742 
Q 947 2381 947 1747 
z
" transform="scale(0.015625)"/>
      <path id="DejaVuSans-61" d="M 2194 1759 
Q 1497 1759 1228 1600 
Q 959 1441 959 1056 
Q 959 750 1161 570 
Q 1363 391 1709 391 
Q 2188 391 2477 730 
Q 2766 1069 2766 1631 
L 2766 1759 
L 2194 1759 
z
M 3341 1997 
L 3341 0 
L 2766 0 
L 2766 531 
Q 2569 213 2275 61 
Q 1981 -91 1556 -91 
Q 1019 -91 701 211 
Q 384 513 384 1019 
Q 384 1609 779 1909 
Q 1175 2209 1959 2209 
L 2766 2209 
L 2766 2266 
Q 2766 2663 2505 2880 
Q 2244 3097 1772 3097 
Q 1472 3097 1187 3025 
Q 903 2953 641 2809 
L 641 3341 
Q 956 3463 1253 3523 
Q 1550 3584 1831 3584 
Q 2591 3584 2966 3190 
Q 3341 2797 3341 1997 
z
" transform="scale(0.015625)"/>
      <path id="DejaVuSans-72" d="M 2631 2963 
Q 2534 3019 2420 3045 
Q 2306 3072 2169 3072 
Q 1681 3072 1420 2755 
Q 1159 2438 1159 1844 
L 1159 0 
L 581 0 
L 581 3500 
L 1159 3500 
L 1159 2956 
Q 1341 3275 1631 3429 
Q 1922 3584 2338 3584 
Q 2397 3584 2469 3576 
Q 2541 3569 2628 3553 
L 2631 2963 
z
" transform="scale(0.015625)"/>
      <path id="DejaVuSans-79" d="M 2059 -325 
Q 1816 -950 1584 -1140 
Q 1353 -1331 966 -1331 
L 506 -1331 
L 506 -850 
L 844 -850 
Q 1081 -850 1212 -737 
Q 1344 -625 1503 -206 
L 1606 56 
L 191 3500 
L 800 3500 
L 1894 763 
L 2988 3500 
L 3597 3500 
L 2059 -325 
z
" transform="scale(0.015625)"/>
      <path id="DejaVuSans-66" d="M 2375 4863 
L 2375 4384 
L 1825 4384 
Q 1516 4384 1395 4259 
Q 1275 4134 1275 3809 
L 1275 3500 
L 2222 3500 
L 2222 3053 
L 1275 3053 
L 1275 0 
L 697 0 
L 697 3053 
L 147 3053 
L 147 3500 
L 697 3500 
L 697 3744 
Q 697 4328 969 4595 
Q 1241 4863 1831 4863 
L 2375 4863 
z
" transform="scale(0.015625)"/>
      <path id="DejaVuSans-43" d="M 4122 4306 
L 4122 3641 
Q 3803 3938 3442 4084 
Q 3081 4231 2675 4231 
Q 1875 4231 1450 3742 
Q 1025 3253 1025 2328 
Q 1025 1406 1450 917 
Q 1875 428 2675 428 
Q 3081 428 3442 575 
Q 3803 722 4122 1019 
L 4122 359 
Q 3791 134 3420 21 
Q 3050 -91 2638 -91 
Q 1578 -91 968 557 
Q 359 1206 359 2328 
Q 359 3453 968 4101 
Q 1578 4750 2638 4750 
Q 3056 4750 3426 4639 
Q 3797 4528 4122 4306 
z
" transform="scale(0.015625)"/>
      <path id="DejaVuSans-6c" d="M 603 4863 
L 1178 4863 
L 1178 0 
L 603 0 
L 603 4863 
z
" transform="scale(0.015625)"/>
      <path id="DejaVuSans-74" d="M 1172 4494 
L 1172 3500 
L 2356 3500 
L 2356 3053 
L 1172 3053 
L 1172 1153 
Q 1172 725 1289 603 
Q 1406 481 1766 481 
L 2356 481 
L 2356 0 
L 1766 0 
Q 1100 0 847 248 
Q 594 497 594 1153 
L 594 3053 
L 172 3053 
L 172 3500 
L 594 3500 
L 594 4494 
L 1172 4494 
z
" transform="scale(0.015625)"/>
     </defs>
     <use xlink:href="#DejaVuSans-44"/>
     <use xlink:href="#DejaVuSans-65" x="77.001953"/>
     <use xlink:href="#DejaVuSans-63" x="138.525391"/>
     <use xlink:href="#DejaVuSans-69" x="193.505859"/>
     <use xlink:href="#DejaVuSans-73" x="221.289062"/>
     <use xlink:href="#DejaVuSans-69" x="273.388672"/>
     <use xlink:href="#DejaVuSans-6f" x="301.171875"/>
     <use xlink:href="#DejaVuSans-6e" x="362.353516"/>
     <use xlink:href="#DejaVuSans-20" x="425.732422"/>
     <use xlink:href="#DejaVuSans-42" x="457.519531"/>
     <use xlink:href="#DejaVuSans-6f" x="526.123047"/>
     <use xlink:href="#DejaVuSans-75" x="587.304688"/>
     <use xlink:href="#DejaVuSans-6e" x="650.683594"/>
     <use xlink:href="#DejaVuSans-64" x="714.0625"/>
     <use xlink:href="#DejaVuSans-61" x="777.539062"/>
     <use xlink:href="#DejaVuSans-72" x="838.818359"/>
     <use xlink:href="#DejaVuSans-79" x="879.931641"/>
     <use xlink:href="#DejaVuSans-20" x="939.111328"/>
     <use xlink:href="#DejaVuSans-66" x="970.898438"/>
     <use xlink:href="#DejaVuSans-6f" x="1006.103516"/>
     <use xlink:href="#DejaVuSans-72" x="1067.285156"/>
     <use xlink:href="#DejaVuSans-20" x="1108.398438"/>
     <use xlink:href="#DejaVuSans-42" x="1140.185547"/>
     <use xlink:href="#DejaVuSans-69" x="1208.789062"/>
     <use xlink:href="#DejaVuSans-6e" x="1236.572266"/>
     <use xlink:href="#DejaVuSans-61" x="1299.951172"/>
     <use xlink:href="#DejaVuSans-72" x="1361.230469"/>
     <use xlink:href="#DejaVuSans-79" x="1402.34375"/>
     <use xlink:href="#DejaVuSans-20" x="1461.523438"/>
     <use xlink:href="#DejaVuSans-43" x="1493.310547"/>
     <use xlink:href="#DejaVuSans-6c" x="1563.134766"/>
     <use xlink:href="#DejaVuSans-61" x="1590.917969"/>
     <use xlink:href="#DejaVuSans-73" x="1652.197266"/>
     <use xlink:href="#DejaVuSans-73" x="1704.296875"/>
     <use xlink:href="#DejaVuSans-69" x="1756.396484"/>
     <use xlink:href="#DejaVuSans-66" x="1784.179688"/>
     <use xlink:href="#DejaVuSans-69" x="1819.384766"/>
     <use xlink:href="#DejaVuSans-63" x="1847.167969"/>
     <use xlink:href="#DejaVuSans-61" x="1902.148438"/>
     <use xlink:href="#DejaVuSans-74" x="1963.427734"/>
     <use xlink:href="#DejaVuSans-69" x="2002.636719"/>
     <use xlink:href="#DejaVuSans-6f" x="2030.419922"/>
     <use xlink:href="#DejaVuSans-6e" x="2091.601562"/>
    </g>
   </g>
  </g>
 </g>
 <defs>
  <clipPath id="p0aaef79a71">
   <rect x="47.864" y="27.6" width="301.336" height="145.216"/>
  </clipPath>
 </defs>
</svg>
