<?xml version="1.0" encoding="utf-8" standalone="no"?>
<!DOCTYPE svg PUBLIC "-//W3C//DTD SVG 1.1//EN"
  "http://www.w3.org/Graphics/SVG/1.1/DTD/svg11.dtd">
<svg xmlns:xlink="http://www.w3.org/1999/xlink" width="360pt" height="216pt" viewBox="0 0 360 216" xmlns="http://www.w3.org/2000/svg" version="1.1">
 <metadata>
  <rdf:RDF xmlns:dc="http://purl.org/dc/elements/1.1/" xmlns:cc="http://creativecommons.org/ns#" xmlns:rdf="http://www.w3.org/1999/02/22-rdf-syntax-ns#">
   <cc:Work>
    <dc:type rdf:resource="http://purl.org/dc/dcmitype/StillImage"/>
    <dc:date>2026-07-03T19:03:36.848721</dc:date>
    <dc:format>image/svg+xml</dc:format>
    <dc:creator>
     <cc:Agent>
      <dc:title>Matplotlib v3.10.7, https://matplotlib.org/</dc:title>
     </cc:Agent>
    </dc:creator>
   </cc:Work>
  </rdf:RDF>
 </metadata>
 <defs>
  <style type="text/css">*{stroke-linejoin: round; stroke-linecap: butt}</style>
 </defs>
 <g id="figure_1">
  <g id="patch_1">
   <path d="M 0 216 
L 360 216 
L 360 0 
L 0 0 
L 0 216 
z
" style="fill: none"/>
  </g>
  <g id="axes_1">
   <g id="patch_2">
    <path d="M 49.43 171.16 
L 349.2 171.16 
L 349.2 27.6 
L 49.43 27.6 
L 49.43 171.16 
z
" style="fill: none"/>
   </g>
   <g id="QuadContourSet_1">
    <path d="M 51.718321 171.16 
L 54.006641 171.16 
L 56.294962 171.16 
L 58.583282 171.16 
L 60.871603 171.16 
L 63.159924 171.16 
L 65.448244 171.16 
L 67.736565 171.16 
L 70.024885 171.16 
L 72.313206 171.16 
L 74.601527 171.16 
L 76.889847 171.16 
L 79.178168 171.16 
L 81.466489 171.16 
L 83.754809 171.16 
L 86.04313 171.16 
L 88.33145 171.16 
L 90.619771 171.16 
L 92.908092 171.16 
L 95.196412 171.16 
L 97.484733 171.16 
L 99.773053 171.16 
L 102.061374 171.16 
L 104.349695 171.16 
L 106.638015 171.16 
L 108.926336 171.16 
L 111.214656 171.16 
L 113.502977 171.16 
L 115.791298 171.16 
L 118.079618 171.16 
L 120.367939 171.16 
L 122.65626 171.16 
L 124.94458 171.16 
L 127.232901 171.16 
L 129.521221 171.16 
L 131.809542 171.16 
L 134.097863 171.16 
L 136.386183 171.16 
L 138.674504 171.16 
L 140.962824 171.16 
L 143.251145 171.16 
L 145.539466 171.16 
L 147.827786 171.16 
L 150.116107 171.16 
L 152.404427 171.16 
L 154.692748 171.16 
L 156.981069 171.16 
L 159.269389 171.16 
L 161.55771 171.16 
L 163.846031 171.16 
L 166.134351 171.16 
L 168.422672 171.16 
L 170.710992 171.16 
L 172.999313 171.16 
L 175.287634 171.16 
L 177.575954 171.16 
L 179.864275 171.16 
L 182.152595 171.16 
L 184.440916 171.16 
L 186.729237 171.16 
L 189.017557 171.16 
L 191.305878 171.16 
L 193.594198 171.16 
L 195.882519 171.16 
L 198.17084 171.16 
L 200.45916 171.16 
L 202.747481 171.16 
L 205.035802 171.16 
L 207.324122 171.16 
L 209.612443 171.16 
L 211.900763 171.16 
L 214.189084 171.16 
L 216.477405 171.16 
L 218.765725 171.16 
L 221.054046 171.16 
L 223.342366 171.16 
L 225.630687 171.16 
L 227.919008 171.16 
L 230.207328 171.16 
L 232.495649 171.16 
L 234.783969 171.16 
L 237.07229 171.16 
L 239.360611 171.16 
L 241.648931 171.16 
L 243.937252 171.16 
L 246.225573 171.16 
L 248.513893 171.16 
L 250.802214 171.16 
L 253.090534 171.16 
L 255.378855 171.16 
L 257.667176 171.16 
L 259.955496 171.16 
L 262.243817 171.16 
L 264.532137 171.16 
L 266.820458 171.16 
L 269.108779 171.16 
L 271.397099 171.16 
L 273.68542 171.16 
L 275.97374 171.16 
L 278.262061 171.16 
L 280.550382 171.16 
L 282.838702 171.16 
L 285.127023 171.16 
L 287.415344 171.16 
L 289.703664 171.16 
L 291.991985 171.16 
L 294.280305 171.16 
L 296.568626 171.16 
L 298.856947 171.16 
L 300.001107 171.16 
L 300.001107 170.104412 
L 298.856947 169.576618 
L 297.712786 169.048824 
L 297.712786 167.993235 
L 296.568626 167.465441 
L 295.424466 166.937647 
L 295.424466 165.882059 
L 294.280305 165.354265 
L 293.136145 164.826471 
L 293.136145 163.770882 
L 291.991985 163.243088 
L 290.847824 162.715294 
L 290.847824 161.659706 
L 289.703664 161.131912 
L 288.559504 160.604118 
L 288.559504 159.548529 
L 287.415344 159.020735 
L 286.271183 158.492941 
L 286.271183 157.437353 
L 285.127023 156.909559 
L 283.982863 156.381765 
L 283.982863 155.326176 
L 282.838702 154.798382 
L 281.694542 154.270588 
L 281.694542 153.215 
L 280.550382 152.687206 
L 279.406221 152.159412 
L 279.406221 151.103824 
L 278.262061 150.576029 
L 277.117901 150.048235 
L 277.117901 148.992647 
L 275.97374 148.464853 
L 274.82958 147.937059 
L 274.82958 146.881471 
L 273.68542 146.353676 
L 272.54126 145.825882 
L 272.54126 144.770294 
L 271.397099 144.2425 
L 270.252939 143.714706 
L 270.252939 142.659118 
L 269.108779 142.131324 
L 267.964618 141.603529 
L 267.964618 140.547941 
L 266.820458 140.020147 
L 265.676298 139.492353 
L 265.676298 138.436765 
L 264.532137 137.908971 
L 263.387977 137.381176 
L 263.387977 136.325588 
L 262.243817 135.797794 
L 261.099656 135.27 
L 261.099656 134.214412 
L 259.955496 133.686618 
L 258.811336 133.158824 
L 258.811336 132.103235 
L 257.667176 131.575441 
L 256.523015 131.047647 
L 256.523015 129.992059 
L 255.378855 129.464265 
L 254.234695 128.936471 
L 254.234695 127.880882 
L 253.090534 127.353088 
L 251.946374 126.825294 
L 251.946374 125.769706 
L 250.802214 125.241912 
L 249.658053 124.714118 
L 249.658053 123.658529 
L 248.513893 123.130735 
L 247.369733 122.602941 
L 247.369733 121.547353 
L 246.225573 121.019559 
L 245.081412 120.491765 
L 245.081412 119.436176 
L 243.937252 118.908382 
L 242.793092 118.380588 
L 242.793092 117.325 
L 241.648931 116.797206 
L 240.504771 116.269412 
L 240.504771 115.213824 
L 239.360611 114.686029 
L 238.21645 114.158235 
L 238.21645 113.102647 
L 237.07229 112.574853 
L 235.92813 112.047059 
L 235.92813 110.991471 
L 234.783969 110.463676 
L 233.639809 109.935882 
L 233.639809 108.880294 
L 232.495649 108.3525 
L 231.351489 107.824706 
L 231.351489 106.769118 
L 230.207328 106.241324 
L 229.063168 105.713529 
L 229.063168 104.657941 
L 227.919008 104.130147 
L 226.774847 103.602353 
L 226.774847 102.546765 
L 225.630687 102.018971 
L 224.486527 101.491176 
L 224.486527 100.435588 
L 223.342366 99.907794 
L 222.198206 99.38 
L 222.198206 98.324412 
L 221.054046 97.796618 
L 219.909885 97.268824 
L 219.909885 96.213235 
L 218.765725 95.685441 
L 217.621565 95.157647 
L 217.621565 94.102059 
L 216.477405 93.574265 
L 215.333244 93.046471 
L 215.333244 91.990882 
L 214.189084 91.463088 
L 213.044924 90.935294 
L 213.044924 89.879706 
L 211.900763 89.351912 
L 210.756603 88.824118 
L 210.756603 87.768529 
L 209.612443 87.240735 
L 208.468282 86.712941 
L 208.468282 85.657353 
L 207.324122 85.129559 
L 206.179962 84.601765 
L 206.179962 83.546176 
L 205.035802 83.018382 
L 203.891641 82.490588 
L 203.891641 81.435 
L 202.747481 80.907206 
L 201.603321 80.379412 
L 201.603321 79.323824 
L 200.45916 78.796029 
L 199.315 78.268235 
L 199.315 77.212647 
L 198.17084 76.684853 
L 197.026679 76.157059 
L 197.026679 75.101471 
L 195.882519 74.573676 
L 194.738359 74.045882 
L 194.738359 72.990294 
L 193.594198 72.4625 
L 192.450038 71.934706 
L 192.450038 70.879118 
L 191.305878 70.351324 
L 190.161718 69.823529 
L 190.161718 68.767941 
L 189.017557 68.240147 
L 187.873397 67.712353 
L 187.873397 66.656765 
L 186.729237 66.128971 
L 185.585076 65.601176 
L 185.585076 64.545588 
L 184.440916 64.017794 
L 183.296756 63.49 
L 183.296756 62.434412 
L 182.152595 61.906618 
L 181.008435 61.378824 
L 181.008435 60.323235 
L 179.864275 59.795441 
L 178.720115 59.267647 
L 178.720115 58.212059 
L 177.575954 57.684265 
L 176.431794 57.156471 
L 176.431794 56.100882 
L 175.287634 55.573088 
L 174.143473 55.045294 
L 174.143473 53.989706 
L 172.999313 53.461912 
L 171.855153 52.934118 
L 171.855153 51.878529 
L 170.710992 51.350735 
L 169.566832 50.822941 
L 169.566832 49.767353 
L 168.422672 49.239559 
L 167.278511 48.711765 
L 167.278511 47.656176 
L 166.134351 47.128382 
L 164.990191 46.600588 
L 164.990191 45.545 
L 163.846031 45.017206 
L 162.70187 44.489412 
L 162.70187 43.433824 
L 161.55771 42.906029 
L 160.41355 42.378235 
L 160.41355 41.322647 
L 159.269389 40.794853 
L 158.125229 40.267059 
L 158.125229 39.211471 
L 156.981069 38.683676 
L 155.836908 38.155882 
L 155.836908 37.100294 
L 154.692748 36.5725 
L 153.548588 36.044706 
L 153.548588 34.989118 
L 152.404427 34.461324 
L 151.260267 33.933529 
L 151.260267 32.877941 
L 150.116107 32.350147 
L 148.971947 31.822353 
L 148.971947 30.766765 
L 147.827786 30.238971 
L 146.683626 29.711176 
L 146.683626 28.655588 
L 145.539466 28.127794 
L 144.395305 27.6 
L 143.251145 27.6 
L 140.962824 27.6 
L 138.674504 27.6 
L 136.386183 27.6 
L 134.097863 27.6 
L 131.809542 27.6 
L 129.521221 27.6 
L 127.232901 27.6 
L 124.94458 27.6 
L 122.65626 27.6 
L 120.367939 27.6 
L 118.079618 27.6 
L 115.791298 27.6 
L 113.502977 27.6 
L 111.214656 27.6 
L 108.926336 27.6 
L 106.638015 27.6 
L 104.349695 27.6 
L 102.061374 27.6 
L 99.773053 27.6 
L 97.484733 27.6 
L 95.196412 27.6 
L 92.908092 27.6 
L 90.619771 27.6 
L 88.33145 27.6 
L 86.04313 27.6 
L 83.754809 27.6 
L 81.466489 27.6 
L 79.178168 27.6 
L 76.889847 27.6 
L 74.601527 27.6 
L 72.313206 27.6 
L 70.024885 27.6 
L 67.736565 27.6 
L 65.448244 27.6 
L 63.159924 27.6 
L 60.871603 27.6 
L 58.583282 27.6 
L 56.294962 27.6 
L 54.006641 27.6 
L 51.718321 27.6 
L 49.43 27.6 
L 49.43 28.655588 
L 49.43 29.711176 
L 49.43 30.766765 
L 49.43 31.822353 
L 49.43 32.877941 
L 49.43 33.933529 
L 49.43 34.989118 
L 49.43 36.044706 
L 49.43 37.100294 
L 49.43 38.155882 
L 49.43 39.211471 
L 49.43 40.267059 
L 49.43 41.322647 
L 49.43 42.378235 
L 49.43 43.433824 
L 49.43 44.489412 
L 49.43 45.545 
L 49.43 46.600588 
L 49.43 47.656176 
L 49.43 48.711765 
L 49.43 49.767353 
L 49.43 50.822941 
L 49.43 51.878529 
L 49.43 52.934118 
L 49.43 53.989706 
L 49.43 55.045294 
L 49.43 56.100882 
L 49.43 57.156471 
L 49.43 58.212059 
L 49.43 59.267647 
L 49.43 60.323235 
L 49.43 61.378824 
L 49.43 62.434412 
L 49.43 63.49 
L 49.43 64.545588 
L 49.43 65.601176 
L 49.43 66.656765 
L 49.43 67.712353 
L 49.43 68.767941 
L 49.43 69.823529 
L 49.43 70.879118 
L 49.43 71.934706 
L 49.43 72.990294 
L 49.43 74.045882 
L 49.43 75.101471 
L 49.43 76.157059 
L 49.43 77.212647 
L 49.43 78.268235 
L 49.43 79.323824 
L 49.43 80.379412 
L 49.43 81.435 
L 49.43 82.490588 
L 49.43 83.546176 
L 49.43 84.601765 
L 49.43 85.657353 
L 49.43 86.712941 
L 49.43 87.768529 
L 49.43 88.824118 
L 49.43 89.879706 
L 49.43 90.935294 
L 49.43 91.990882 
L 49.43 93.046471 
L 49.43 94.102059 
L 49.43 95.157647 
L 49.43 96.213235 
L 49.43 97.268824 
L 49.43 98.324412 
L 49.43 99.38 
L 49.43 100.435588 
L 49.43 101.491176 
L 49.43 102.546765 
L 49.43 103.602353 
L 49.43 104.657941 
L 49.43 105.713529 
L 49.43 106.769118 
L 49.43 107.824706 
L 49.43 108.880294 
L 49.43 109.935882 
L 49.43 110.991471 
L 49.43 112.047059 
L 49.43 113.102647 
L 49.43 114.158235 
L 49.43 115.213824 
L 49.43 116.269412 
L 49.43 117.325 
L 49.43 118.380588 
L 49.43 119.436176 
L 49.43 120.491765 
L 49.43 121.547353 
L 49.43 122.602941 
L 49.43 123.658529 
L 49.43 124.714118 
L 49.43 125.769706 
L 49.43 126.825294 
L 49.43 127.880882 
L 49.43 128.936471 
L 49.43 129.992059 
L 49.43 131.047647 
L 49.43 132.103235 
L 49.43 133.158824 
L 49.43 134.214412 
L 49.43 135.27 
L 49.43 136.325588 
L 49.43 137.381176 
L 49.43 138.436765 
L 49.43 139.492353 
L 49.43 140.547941 
L 49.43 141.603529 
L 49.43 142.659118 
L 49.43 143.714706 
L 49.43 144.770294 
L 49.43 145.825882 
L 49.43 146.881471 
L 49.43 147.937059 
L 49.43 148.992647 
L 49.43 150.048235 
L 49.43 151.103824 
L 49.43 152.159412 
L 49.43 153.215 
L 49.43 154.270588 
L 49.43 155.326176 
L 49.43 156.381765 
L 49.43 157.437353 
L 49.43 158.492941 
L 49.43 159.548529 
L 49.43 160.604118 
L 49.43 161.659706 
L 49.43 162.715294 
L 49.43 163.770882 
L 49.43 164.826471 
L 49.43 165.882059 
L 49.43 166.937647 
L 49.43 167.993235 
L 49.43 169.048824 
L 49.43 170.104412 
L 49.43 171.16 
z
" clip-path="url(#p7d1b8f6170)" style="fill: #f08080; fill-opacity: 0.6"/>
    <path d="M 301.145267 171.16 
L 303.433588 171.16 
L 305.721908 171.16 
L 308.010229 171.16 
L 310.29855 171.16 
L 312.58687 171.16 
L 314.875191 171.16 
L 317.163511 171.16 
L 319.451832 171.16 
L 321.740153 171.16 
L 324.028473 171.16 
L 326.316794 171.16 
L 328.605115 171.16 
L 330.893435 171.16 
L 333.181756 171.16 
L 335.470076 171.16 
L 337.758397 171.16 
L 340.046718 171.16 
L 342.335038 171.16 
L 344.623359 171.16 
L 346.911679 171.16 
L 349.2 171.16 
L 349.2 170.104412 
L 349.2 169.048824 
L 349.2 167.993235 
L 349.2 166.937647 
L 349.2 165.882059 
L 349.2 164.826471 
L 349.2 163.770882 
L 349.2 162.715294 
L 349.2 161.659706 
L 349.2 160.604118 
L 349.2 159.548529 
L 349.2 158.492941 
L 349.2 157.437353 
L 349.2 156.381765 
L 349.2 155.326176 
L 349.2 154.270588 
L 349.2 153.215 
L 349.2 152.159412 
L 349.2 151.103824 
L 349.2 150.048235 
L 349.2 148.992647 
L 349.2 147.937059 
L 349.2 146.881471 
L 349.2 145.825882 
L 349.2 144.770294 
L 349.2 143.714706 
L 349.2 142.659118 
L 349.2 141.603529 
L 349.2 140.547941 
L 349.2 139.492353 
L 349.2 138.436765 
L 349.2 137.381176 
L 349.2 136.325588 
L 349.2 135.27 
L 349.2 134.214412 
L 349.2 133.158824 
L 349.2 132.103235 
L 349.2 131.047647 
L 349.2 129.992059 
L 349.2 128.936471 
L 349.2 127.880882 
L 349.2 126.825294 
L 349.2 125.769706 
L 349.2 124.714118 
L 349.2 123.658529 
L 349.2 122.602941 
L 349.2 121.547353 
L 349.2 120.491765 
L 349.2 119.436176 
L 349.2 118.380588 
L 349.2 117.325 
L 349.2 116.269412 
L 349.2 115.213824 
L 349.2 114.158235 
L 349.2 113.102647 
L 349.2 112.047059 
L 349.2 110.991471 
L 349.2 109.935882 
L 349.2 108.880294 
L 349.2 107.824706 
L 349.2 106.769118 
L 349.2 105.713529 
L 349.2 104.657941 
L 349.2 103.602353 
L 349.2 102.546765 
L 349.2 101.491176 
L 349.2 100.435588 
L 349.2 99.38 
L 349.2 98.324412 
L 349.2 97.268824 
L 349.2 96.213235 
L 349.2 95.157647 
L 349.2 94.102059 
L 349.2 93.046471 
L 349.2 91.990882 
L 349.2 90.935294 
L 349.2 89.879706 
L 349.2 88.824118 
L 349.2 87.768529 
L 349.2 86.712941 
L 349.2 85.657353 
L 349.2 84.601765 
L 349.2 83.546176 
L 349.2 82.490588 
L 349.2 81.435 
L 349.2 80.379412 
L 349.2 79.323824 
L 349.2 78.268235 
L 349.2 77.212647 
L 349.2 76.157059 
L 349.2 75.101471 
L 349.2 74.045882 
L 349.2 72.990294 
L 349.2 71.934706 
L 349.2 70.879118 
L 349.2 69.823529 
L 349.2 68.767941 
L 349.2 67.712353 
L 349.2 66.656765 
L 349.2 65.601176 
L 349.2 64.545588 
L 349.2 63.49 
L 349.2 62.434412 
L 349.2 61.378824 
L 349.2 60.323235 
L 349.2 59.267647 
L 349.2 58.212059 
L 349.2 57.156471 
L 349.2 56.100882 
L 349.2 55.045294 
L 349.2 53.989706 
L 349.2 52.934118 
L 349.2 51.878529 
L 349.2 50.822941 
L 349.2 49.767353 
L 349.2 48.711765 
L 349.2 47.656176 
L 349.2 46.600588 
L 349.2 45.545 
L 349.2 44.489412 
L 349.2 43.433824 
L 349.2 42.378235 
L 349.2 41.322647 
L 349.2 40.267059 
L 349.2 39.211471 
L 349.2 38.155882 
L 349.2 37.100294 
L 349.2 36.044706 
L 349.2 34.989118 
L 349.2 33.933529 
L 349.2 32.877941 
L 349.2 31.822353 
L 349.2 30.766765 
L 349.2 29.711176 
L 349.2 28.655588 
L 349.2 27.6 
L 346.911679 27.6 
L 344.623359 27.6 
L 342.335038 27.6 
L 340.046718 27.6 
L 337.758397 27.6 
L 335.470076 27.6 
L 333.181756 27.6 
L 330.893435 27.6 
L 328.605115 27.6 
L 326.316794 27.6 
L 324.028473 27.6 
L 321.740153 27.6 
L 319.451832 27.6 
L 317.163511 27.6 
L 314.875191 27.6 
L 312.58687 27.6 
L 310.29855 27.6 
L 308.010229 27.6 
L 305.721908 27.6 
L 303.433588 27.6 
L 301.145267 27.6 
L 298.856947 27.6 
L 296.568626 27.6 
L 294.280305 27.6 
L 291.991985 27.6 
L 289.703664 27.6 
L 287.415344 27.6 
L 285.127023 27.6 
L 282.838702 27.6 
L 280.550382 27.6 
L 278.262061 27.6 
L 275.97374 27.6 
L 273.68542 27.6 
L 271.397099 27.6 
L 269.108779 27.6 
L 266.820458 27.6 
L 264.532137 27.6 
L 262.243817 27.6 
L 259.955496 27.6 
L 257.667176 27.6 
L 255.378855 27.6 
L 253.090534 27.6 
L 250.802214 27.6 
L 248.513893 27.6 
L 246.225573 27.6 
L 243.937252 27.6 
L 241.648931 27.6 
L 239.360611 27.6 
L 237.07229 27.6 
L 234.783969 27.6 
L 232.495649 27.6 
L 230.207328 27.6 
L 227.919008 27.6 
L 225.630687 27.6 
L 223.342366 27.6 
L 221.054046 27.6 
L 218.765725 27.6 
L 216.477405 27.6 
L 214.189084 27.6 
L 211.900763 27.6 
L 209.612443 27.6 
L 207.324122 27.6 
L 205.035802 27.6 
L 202.747481 27.6 
L 200.45916 27.6 
L 198.17084 27.6 
L 195.882519 27.6 
L 193.594198 27.6 
L 191.305878 27.6 
L 189.017557 27.6 
L 186.729237 27.6 
L 184.440916 27.6 
L 182.152595 27.6 
L 179.864275 27.6 
L 177.575954 27.6 
L 175.287634 27.6 
L 172.999313 27.6 
L 170.710992 27.6 
L 168.422672 27.6 
L 166.134351 27.6 
L 163.846031 27.6 
L 161.55771 27.6 
L 159.269389 27.6 
L 156.981069 27.6 
L 154.692748 27.6 
L 152.404427 27.6 
L 150.116107 27.6 
L 147.827786 27.6 
L 145.539466 27.6 
L 144.395305 27.6 
L 145.539466 28.127794 
L 146.683626 28.655588 
L 146.683626 29.711176 
L 147.827786 30.238971 
L 148.971947 30.766765 
L 148.971947 31.822353 
L 150.116107 32.350147 
L 151.260267 32.877941 
L 151.260267 33.933529 
L 152.404427 34.461324 
L 153.548588 34.989118 
L 153.548588 36.044706 
L 154.692748 36.5725 
L 155.836908 37.100294 
L 155.836908 38.155882 
L 156.981069 38.683676 
L 158.125229 39.211471 
L 158.125229 40.267059 
L 159.269389 40.794853 
L 160.41355 41.322647 
L 160.41355 42.378235 
L 161.55771 42.906029 
L 162.70187 43.433824 
L 162.70187 44.489412 
L 163.846031 45.017206 
L 164.990191 45.545 
L 164.990191 46.600588 
L 166.134351 47.128382 
L 167.278511 47.656176 
L 167.278511 48.711765 
L 168.422672 49.239559 
L 169.566832 49.767353 
L 169.566832 50.822941 
L 170.710992 51.350735 
L 171.855153 51.878529 
L 171.855153 52.934118 
L 172.999313 53.461912 
L 174.143473 53.989706 
L 174.143473 55.045294 
L 175.287634 55.573088 
L 176.431794 56.100882 
L 176.431794 57.156471 
L 177.575954 57.684265 
L 178.720115 58.212059 
L 178.720115 59.267647 
L 179.864275 59.795441 
L 181.008435 60.323235 
L 181.008435 61.378824 
L 182.152595 61.906618 
L 183.296756 62.434412 
L 183.296756 63.49 
L 184.440916 64.017794 
L 185.585076 64.545588 
L 185.585076 65.601176 
L 186.729237 66.128971 
L 187.873397 66.656765 
L 187.873397 67.712353 
L 189.017557 68.240147 
L 190.161718 68.767941 
L 190.161718 69.823529 
L 191.305878 70.351324 
L 192.450038 70.879118 
L 192.450038 71.934706 
L 193.594198 72.4625 
L 194.738359 72.990294 
L 194.738359 74.045882 
L 195.882519 74.573676 
L 197.026679 75.101471 
L 197.026679 76.157059 
L 198.17084 76.684853 
L 199.315 77.212647 
L 199.315 78.268235 
L 200.45916 78.796029 
L 201.603321 79.323824 
L 201.603321 80.379412 
L 202.747481 80.907206 
L 203.891641 81.435 
L 203.891641 82.490588 
L 205.035802 83.018382 
L 206.179962 83.546176 
L 206.179962 84.601765 
L 207.324122 85.129559 
L 208.468282 85.657353 
L 208.468282 86.712941 
L 209.612443 87.240735 
L 210.756603 87.768529 
L 210.756603 88.824118 
L 211.900763 89.351912 
L 213.044924 89.879706 
L 213.044924 90.935294 
L 214.189084 91.463088 
L 215.333244 91.990882 
L 215.333244 93.046471 
L 216.477405 93.574265 
L 217.621565 94.102059 
L 217.621565 95.157647 
L 218.765725 95.685441 
L 219.909885 96.213235 
L 219.909885 97.268824 
L 221.054046 97.796618 
L 222.198206 98.324412 
L 222.198206 99.38 
L 223.342366 99.907794 
L 224.486527 100.435588 
L 224.486527 101.491176 
L 225.630687 102.018971 
L 226.774847 102.546765 
L 226.774847 103.602353 
L 227.919008 104.130147 
L 229.063168 104.657941 
L 229.063168 105.713529 
L 230.207328 106.241324 
L 231.351489 106.769118 
L 231.351489 107.824706 
L 232.495649 108.3525 
L 233.639809 108.880294 
L 233.639809 109.935882 
L 234.783969 110.463676 
L 235.92813 110.991471 
L 235.92813 112.047059 
L 237.07229 112.574853 
L 238.21645 113.102647 
L 238.21645 114.158235 
L 239.360611 114.686029 
L 240.504771 115.213824 
L 240.504771 116.269412 
L 241.648931 116.797206 
L 242.793092 117.325 
L 242.793092 118.380588 
L 243.937252 118.908382 
L 245.081412 119.436176 
L 245.081412 120.491765 
L 246.225573 121.019559 
L 247.369733 121.547353 
L 247.369733 122.602941 
L 248.513893 123.130735 
L 249.658053 123.658529 
L 249.658053 124.714118 
L 250.802214 125.241912 
L 251.946374 125.769706 
L 251.946374 126.825294 
L 253.090534 127.353088 
L 254.234695 127.880882 
L 254.234695 128.936471 
L 255.378855 129.464265 
L 256.523015 129.992059 
L 256.523015 131.047647 
L 257.667176 131.575441 
L 258.811336 132.103235 
L 258.811336 133.158824 
L 259.955496 133.686618 
L 261.099656 134.214412 
L 261.099656 135.27 
L 262.243817 135.797794 
L 263.387977 136.325588 
L 263.387977 137.381176 
L 264.532137 137.908971 
L 265.676298 138.436765 
L 265.676298 139.492353 
L 266.820458 140.020147 
L 267.964618 140.547941 
L 267.964618 141.603529 
L 269.108779 142.131324 
L 270.252939 142.659118 
L 270.252939 143.714706 
L 271.397099 144.2425 
L 272.54126 144.770294 
L 272.54126 145.825882 
L 273.68542 146.353676 
L 274.82958 146.881471 
L 274.82958 147.937059 
L 275.97374 148.464853 
L 277.117901 148.992647 
L 277.117901 150.048235 
L 278.262061 150.576029 
L 279.406221 151.103824 
L 279.406221 152.159412 
L 280.550382 152.687206 
L 281.694542 153.215 
L 281.694542 154.270588 
L 282.838702 154.798382 
L 283.982863 155.326176 
L 283.982863 156.381765 
L 285.127023 156.909559 
L 286.271183 157.437353 
L 286.271183 158.492941 
L 287.415344 159.020735 
L 288.559504 159.548529 
L 288.559504 160.604118 
L 289.703664 161.131912 
L 290.847824 161.659706 
L 290.847824 162.715294 
L 291.991985 163.243088 
L 293.136145 163.770882 
L 293.136145 164.826471 
L 294.280305 165.354265 
L 295.424466 165.882059 
L 295.424466 166.937647 
L 296.568626 167.465441 
L 297.712786 167.993235 
L 297.712786 169.048824 
L 298.856947 169.576618 
L 300.001107 170.104412 
L 300.001107 171.16 
z
" clip-path="url(#p7d1b8f6170)" style="fill: #add8e6; fill-opacity: 0.6"/>
   </g>
   <g id="PathCollection_1">
    <defs>
     <path id="C0_0_269bebe031" d="M 0 3.535534 
C 0.937635 3.535534 1.836992 3.163008 2.5 2.5 
C 3.163008 1.836992 3.535534 0.937635 3.535534 -0 
C 3.535534 -0.937635 3.163008 -1.836992 2.5 -2.5 
C 1.836992 -3.163008 0.937635 -3.535534 0 -3.535534 
C -0.937635 -3.535534 -1.836992 -3.163008 -2.5 -2.5 
C -3.163008 -1.836992 -3.535534 -0.937635 -3.535534 0 
C -3.535534 0.937635 -3.163008 1.836992 -2.5 2.5 
C -1.836992 3.163008 -0.937635 3.535534 0 3.535534 
z
"/>
    </defs>
    <g clip-path="url(#p7d1b8f6170)">
     <use xlink:href="#C0_0_269bebe031" x="243.387208" y="121.562034" style="fill: #a50026; stroke: #000000"/>
    </g>
    <g clip-path="url(#p7d1b8f6170)">
     <use xlink:href="#C0_0_269bebe031" x="250.296764" y="86.489182" style="fill: #313695; stroke: #000000"/>
    </g>
    <g clip-path="url(#p7d1b8f6170)">
     <use xlink:href="#C0_0_269bebe031" x="209.938023" y="123.586075" style="fill: #a50026; stroke: #000000"/>
    </g>
    <g clip-path="url(#p7d1b8f6170)">
     <use xlink:href="#C0_0_269bebe031" x="292.929288" y="102.441129" style="fill: #313695; stroke: #000000"/>
    </g>
    <g clip-path="url(#p7d1b8f6170)">
     <use xlink:href="#C0_0_269bebe031" x="199.168225" y="107.18863" style="fill: #a50026; stroke: #000000"/>
    </g>
    <g clip-path="url(#p7d1b8f6170)">
     <use xlink:href="#C0_0_269bebe031" x="199.445418" y="128.475407" style="fill: #a50026; stroke: #000000"/>
    </g>
    <g clip-path="url(#p7d1b8f6170)">
     <use xlink:href="#C0_0_269bebe031" x="231.728128" y="159.035753" style="fill: #a50026; stroke: #000000"/>
    </g>
    <g clip-path="url(#p7d1b8f6170)">
     <use xlink:href="#C0_0_269bebe031" x="141.711083" y="130.513912" style="fill: #a50026; stroke: #000000"/>
    </g>
    <g clip-path="url(#p7d1b8f6170)">
     <use xlink:href="#C0_0_269bebe031" x="174.300737" y="112.008715" style="fill: #a50026; stroke: #000000"/>
    </g>
    <g clip-path="url(#p7d1b8f6170)">
     <use xlink:href="#C0_0_269bebe031" x="179.097379" y="148.459254" style="fill: #a50026; stroke: #000000"/>
    </g>
    <g clip-path="url(#p7d1b8f6170)">
     <use xlink:href="#C0_0_269bebe031" x="287.731869" y="123.409567" style="fill: #313695; stroke: #000000"/>
    </g>
    <g clip-path="url(#p7d1b8f6170)">
     <use xlink:href="#C0_0_269bebe031" x="223.744907" y="148.721979" style="fill: #a50026; stroke: #000000"/>
    </g>
    <g clip-path="url(#p7d1b8f6170)">
     <use xlink:href="#C0_0_269bebe031" x="195.739939" y="116.301259" style="fill: #a50026; stroke: #000000"/>
    </g>
    <g clip-path="url(#p7d1b8f6170)">
     <use xlink:href="#C0_0_269bebe031" x="167.977537" y="110.711382" style="fill: #a50026; stroke: #000000"/>
    </g>
    <g clip-path="url(#p7d1b8f6170)">
     <use xlink:href="#C0_0_269bebe031" x="193.165305" y="124.8012" style="fill: #a50026; stroke: #000000"/>
    </g>
    <g clip-path="url(#p7d1b8f6170)">
     <use xlink:href="#C0_0_269bebe031" x="193.11643" y="79.538169" style="fill: #a50026; stroke: #000000"/>
    </g>
    <g clip-path="url(#p7d1b8f6170)">
     <use xlink:href="#C0_0_269bebe031" x="220.036664" y="140.973175" style="fill: #a50026; stroke: #000000"/>
    </g>
    <g clip-path="url(#p7d1b8f6170)">
     <use xlink:href="#C0_0_269bebe031" x="258.299313" y="144.417194" style="fill: #a50026; stroke: #000000"/>
    </g>
    <g clip-path="url(#p7d1b8f6170)">
     <use xlink:href="#C0_0_269bebe031" x="230.213321" y="160.015125" style="fill: #a50026; stroke: #000000"/>
    </g>
    <g clip-path="url(#p7d1b8f6170)">
     <use xlink:href="#C0_0_269bebe031" x="159.868073" y="114.486942" style="fill: #a50026; stroke: #000000"/>
    </g>
    <g clip-path="url(#p7d1b8f6170)">
     <use xlink:href="#C0_0_269bebe031" x="254.451349" y="115.025144" style="fill: #313695; stroke: #000000"/>
    </g>
    <g clip-path="url(#p7d1b8f6170)">
     <use xlink:href="#C0_0_269bebe031" x="215.361576" y="124.999861" style="fill: #a50026; stroke: #000000"/>
    </g>
    <g clip-path="url(#p7d1b8f6170)">
     <use xlink:href="#C0_0_269bebe031" x="152.987736" y="133.840212" style="fill: #a50026; stroke: #000000"/>
    </g>
    <g clip-path="url(#p7d1b8f6170)">
     <use xlink:href="#C0_0_269bebe031" x="199.572599" y="96.325315" style="fill: #a50026; stroke: #000000"/>
    </g>
    <g clip-path="url(#p7d1b8f6170)">
     <use xlink:href="#C0_0_269bebe031" x="236.38056" y="155.863919" style="fill: #a50026; stroke: #000000"/>
    </g>
    <g clip-path="url(#p7d1b8f6170)">
     <use xlink:href="#C0_0_269bebe031" x="235.486544" y="126.772797" style="fill: #a50026; stroke: #000000"/>
    </g>
    <g clip-path="url(#p7d1b8f6170)">
     <use xlink:href="#C0_0_269bebe031" x="189.674092" y="105.729464" style="fill: #a50026; stroke: #000000"/>
    </g>
    <g clip-path="url(#p7d1b8f6170)">
     <use xlink:href="#C0_0_269bebe031" x="267.839532" y="98.982064" style="fill: #313695; stroke: #000000"/>
    </g>
    <g clip-path="url(#p7d1b8f6170)">
     <use xlink:href="#C0_0_269bebe031" x="182.246408" y="125.171049" style="fill: #a50026; stroke: #000000"/>
    </g>
    <g clip-path="url(#p7d1b8f6170)">
     <use xlink:href="#C0_0_269bebe031" x="235.815122" y="98.047551" style="fill: #313695; stroke: #000000"/>
    </g>
    <g clip-path="url(#p7d1b8f6170)">
     <use xlink:href="#C0_0_269bebe031" x="198.724298" y="122.562619" style="fill: #a50026; stroke: #000000"/>
    </g>
    <g clip-path="url(#p7d1b8f6170)">
     <use xlink:href="#C0_0_269bebe031" x="170.021401" y="143.897063" style="fill: #a50026; stroke: #000000"/>
    </g>
    <g clip-path="url(#p7d1b8f6170)">
     <use xlink:href="#C0_0_269bebe031" x="257.840775" y="90.01041" style="fill: #313695; stroke: #000000"/>
    </g>
    <g clip-path="url(#p7d1b8f6170)">
     <use xlink:href="#C0_0_269bebe031" x="217.358738" y="97.45668" style="fill: #a50026; stroke: #000000"/>
    </g>
    <g clip-path="url(#p7d1b8f6170)">
     <use xlink:href="#C0_0_269bebe031" x="237.205167" y="132.262647" style="fill: #a50026; stroke: #000000"/>
    </g>
    <g clip-path="url(#p7d1b8f6170)">
     <use xlink:href="#C0_0_269bebe031" x="237.194164" y="86.172364" style="fill: #313695; stroke: #000000"/>
    </g>
    <g clip-path="url(#p7d1b8f6170)">
     <use xlink:href="#C0_0_269bebe031" x="219.014754" y="85.610642" style="fill: #313695; stroke: #000000"/>
    </g>
    <g clip-path="url(#p7d1b8f6170)">
     <use xlink:href="#C0_0_269bebe031" x="100.758049" y="101.291218" style="fill: #a50026; stroke: #000000"/>
    </g>
    <g clip-path="url(#p7d1b8f6170)">
     <use xlink:href="#C0_0_269bebe031" x="224.638215" y="124.955603" style="fill: #a50026; stroke: #000000"/>
    </g>
    <g clip-path="url(#p7d1b8f6170)">
     <use xlink:href="#C0_0_269bebe031" x="224.853945" y="160.604118" style="fill: #a50026; stroke: #000000"/>
    </g>
    <g clip-path="url(#p7d1b8f6170)">
     <use xlink:href="#C0_0_269bebe031" x="210.600789" y="111.103754" style="fill: #a50026; stroke: #000000"/>
    </g>
    <g clip-path="url(#p7d1b8f6170)">
     <use xlink:href="#C0_0_269bebe031" x="288.292291" y="129.584629" style="fill: #313695; stroke: #000000"/>
    </g>
    <g clip-path="url(#p7d1b8f6170)">
     <use xlink:href="#C0_0_269bebe031" x="183.652532" y="129.236007" style="fill: #a50026; stroke: #000000"/>
    </g>
    <g clip-path="url(#p7d1b8f6170)">
     <use xlink:href="#C0_0_269bebe031" x="262.549054" y="111.702514" style="fill: #313695; stroke: #000000"/>
    </g>
    <g clip-path="url(#p7d1b8f6170)">
     <use xlink:href="#C0_0_269bebe031" x="196.409159" y="107.807049" style="fill: #a50026; stroke: #000000"/>
    </g>
    <g clip-path="url(#p7d1b8f6170)">
     <use xlink:href="#C0_0_269bebe031" x="225.097274" y="98.193225" style="fill: #313695; stroke: #000000"/>
    </g>
    <g clip-path="url(#p7d1b8f6170)">
     <use xlink:href="#C0_0_269bebe031" x="188.523932" y="125.560557" style="fill: #a50026; stroke: #000000"/>
    </g>
    <g clip-path="url(#p7d1b8f6170)">
     <use xlink:href="#C0_0_269bebe031" x="202.709" y="149.540414" style="fill: #a50026; stroke: #000000"/>
    </g>
    <g clip-path="url(#p7d1b8f6170)">
     <use xlink:href="#C0_0_269bebe031" x="234.206746" y="113.131693" style="fill: #a50026; stroke: #000000"/>
    </g>
    <g clip-path="url(#p7d1b8f6170)">
     <use xlink:href="#C0_0_269bebe031" x="220.888408" y="123.595579" style="fill: #a50026; stroke: #000000"/>
    </g>
    <g clip-path="url(#p7d1b8f6170)">
     <use xlink:href="#C0_0_269bebe031" x="155.877942" y="127.523595" style="fill: #a50026; stroke: #000000"/>
    </g>
    <g clip-path="url(#p7d1b8f6170)">
     <use xlink:href="#C0_0_269bebe031" x="204.969569" y="135.580519" style="fill: #a50026; stroke: #000000"/>
    </g>
    <g clip-path="url(#p7d1b8f6170)">
     <use xlink:href="#C0_0_269bebe031" x="213.272915" y="110.112804" style="fill: #a50026; stroke: #000000"/>
    </g>
    <g clip-path="url(#p7d1b8f6170)">
     <use xlink:href="#C0_0_269bebe031" x="306.978345" y="114.957385" style="fill: #313695; stroke: #000000"/>
    </g>
    <g clip-path="url(#p7d1b8f6170)">
     <use xlink:href="#C0_0_269bebe031" x="232.441541" y="120.214715" style="fill: #a50026; stroke: #000000"/>
    </g>
    <g clip-path="url(#p7d1b8f6170)">
     <use xlink:href="#C0_0_269bebe031" x="132.839109" y="119.202785" style="fill: #a50026; stroke: #000000"/>
    </g>
    <g clip-path="url(#p7d1b8f6170)">
     <use xlink:href="#C0_0_269bebe031" x="223.410904" y="66.639642" style="fill: #313695; stroke: #000000"/>
    </g>
    <g clip-path="url(#p7d1b8f6170)">
     <use xlink:href="#C0_0_269bebe031" x="211.850712" y="112.276834" style="fill: #a50026; stroke: #000000"/>
    </g>
    <g clip-path="url(#p7d1b8f6170)">
     <use xlink:href="#C0_0_269bebe031" x="219.06575" y="143.315886" style="fill: #a50026; stroke: #000000"/>
    </g>
    <g clip-path="url(#p7d1b8f6170)">
     <use xlink:href="#C0_0_269bebe031" x="272.957283" y="102.768397" style="fill: #313695; stroke: #000000"/>
    </g>
    <g clip-path="url(#p7d1b8f6170)">
     <use xlink:href="#C0_0_269bebe031" x="256.857077" y="137.841804" style="fill: #a50026; stroke: #000000"/>
    </g>
    <g clip-path="url(#p7d1b8f6170)">
     <use xlink:href="#C0_0_269bebe031" x="284.855246" y="148.23858" style="fill: #313695; stroke: #000000"/>
    </g>
    <g clip-path="url(#p7d1b8f6170)">
     <use xlink:href="#C0_0_269bebe031" x="247.512727" y="72.398647" style="fill: #313695; stroke: #000000"/>
    </g>
    <g clip-path="url(#p7d1b8f6170)">
     <use xlink:href="#C0_0_269bebe031" x="175.32109" y="130.598575" style="fill: #a50026; stroke: #000000"/>
    </g>
    <g clip-path="url(#p7d1b8f6170)">
     <use xlink:href="#C0_0_269bebe031" x="225.215069" y="129.27229" style="fill: #a50026; stroke: #000000"/>
    </g>
    <g clip-path="url(#p7d1b8f6170)">
     <use xlink:href="#C0_0_269bebe031" x="149.686081" y="117.195545" style="fill: #a50026; stroke: #000000"/>
    </g>
    <g clip-path="url(#p7d1b8f6170)">
     <use xlink:href="#C0_0_269bebe031" x="172.036554" y="108.644658" style="fill: #a50026; stroke: #000000"/>
    </g>
    <g clip-path="url(#p7d1b8f6170)">
     <use xlink:href="#C0_0_269bebe031" x="178.575635" y="85.92118" style="fill: #a50026; stroke: #000000"/>
    </g>
    <g clip-path="url(#p7d1b8f6170)">
     <use xlink:href="#C0_0_269bebe031" x="184.80769" y="125.442317" style="fill: #a50026; stroke: #000000"/>
    </g>
    <g clip-path="url(#p7d1b8f6170)">
     <use xlink:href="#C0_0_269bebe031" x="257.886148" y="144.628748" style="fill: #a50026; stroke: #000000"/>
    </g>
    <g clip-path="url(#p7d1b8f6170)">
     <use xlink:href="#C0_0_269bebe031" x="231.064408" y="91.04694" style="fill: #313695; stroke: #000000"/>
    </g>
    <g clip-path="url(#p7d1b8f6170)">
     <use xlink:href="#C0_0_269bebe031" x="147.085643" y="114.745084" style="fill: #a50026; stroke: #000000"/>
    </g>
    <g clip-path="url(#p7d1b8f6170)">
     <use xlink:href="#C0_0_269bebe031" x="232.548286" y="102.13737" style="fill: #313695; stroke: #000000"/>
    </g>
    <g clip-path="url(#p7d1b8f6170)">
     <use xlink:href="#C0_0_269bebe031" x="164.043587" y="146.5202" style="fill: #a50026; stroke: #000000"/>
    </g>
    <g clip-path="url(#p7d1b8f6170)">
     <use xlink:href="#C0_0_269bebe031" x="244.541776" y="112.37316" style="fill: #313695; stroke: #000000"/>
    </g>
    <g clip-path="url(#p7d1b8f6170)">
     <use xlink:href="#C0_0_269bebe031" x="232.118542" y="111.328897" style="fill: #a50026; stroke: #000000"/>
    </g>
    <g clip-path="url(#p7d1b8f6170)">
     <use xlink:href="#C0_0_269bebe031" x="189.532092" y="113.739745" style="fill: #a50026; stroke: #000000"/>
    </g>
    <g clip-path="url(#p7d1b8f6170)">
     <use xlink:href="#C0_0_269bebe031" x="234.067259" y="133.724249" style="fill: #a50026; stroke: #000000"/>
    </g>
    <g clip-path="url(#p7d1b8f6170)">
     <use xlink:href="#C0_0_269bebe031" x="306.044189" y="108.639581" style="fill: #313695; stroke: #000000"/>
    </g>
    <g clip-path="url(#p7d1b8f6170)">
     <use xlink:href="#C0_0_269bebe031" x="166.132696" y="104.782025" style="fill: #a50026; stroke: #000000"/>
    </g>
    <g clip-path="url(#p7d1b8f6170)">
     <use xlink:href="#C0_0_269bebe031" x="176.0467" y="102.026285" style="fill: #a50026; stroke: #000000"/>
    </g>
    <g clip-path="url(#p7d1b8f6170)">
     <use xlink:href="#C0_0_269bebe031" x="273.679146" y="135.969082" style="fill: #313695; stroke: #000000"/>
    </g>
    <g clip-path="url(#p7d1b8f6170)">
     <use xlink:href="#C0_0_269bebe031" x="264.744652" y="109.928497" style="fill: #313695; stroke: #000000"/>
    </g>
    <g clip-path="url(#p7d1b8f6170)">
     <use xlink:href="#C0_0_269bebe031" x="258.277127" y="78.598383" style="fill: #313695; stroke: #000000"/>
    </g>
    <g clip-path="url(#p7d1b8f6170)">
     <use xlink:href="#C0_0_269bebe031" x="209.42385" y="134.555731" style="fill: #a50026; stroke: #000000"/>
    </g>
    <g clip-path="url(#p7d1b8f6170)">
     <use xlink:href="#C0_0_269bebe031" x="179.944499" y="135.866225" style="fill: #a50026; stroke: #000000"/>
    </g>
    <g clip-path="url(#p7d1b8f6170)">
     <use xlink:href="#C0_0_269bebe031" x="217.125715" y="111.44071" style="fill: #a50026; stroke: #000000"/>
    </g>
    <g clip-path="url(#p7d1b8f6170)">
     <use xlink:href="#C0_0_269bebe031" x="233.317528" y="101.179732" style="fill: #313695; stroke: #000000"/>
    </g>
    <g clip-path="url(#p7d1b8f6170)">
     <use xlink:href="#C0_0_269bebe031" x="221.249433" y="87.956361" style="fill: #313695; stroke: #000000"/>
    </g>
    <g clip-path="url(#p7d1b8f6170)">
     <use xlink:href="#C0_0_269bebe031" x="208.54199" y="61.215459" style="fill: #313695; stroke: #000000"/>
    </g>
    <g clip-path="url(#p7d1b8f6170)">
     <use xlink:href="#C0_0_269bebe031" x="249.288933" y="136.739139" style="fill: #a50026; stroke: #000000"/>
    </g>
    <g clip-path="url(#p7d1b8f6170)">
     <use xlink:href="#C0_0_269bebe031" x="171.643476" y="108.457186" style="fill: #a50026; stroke: #000000"/>
    </g>
    <g clip-path="url(#p7d1b8f6170)">
     <use xlink:href="#C0_0_269bebe031" x="210.427293" y="103.56922" style="fill: #a50026; stroke: #000000"/>
    </g>
    <g clip-path="url(#p7d1b8f6170)">
     <use xlink:href="#C0_0_269bebe031" x="242.312771" y="120.180577" style="fill: #a50026; stroke: #000000"/>
    </g>
    <g clip-path="url(#p7d1b8f6170)">
     <use xlink:href="#C0_0_269bebe031" x="181.899673" y="150.624129" style="fill: #a50026; stroke: #000000"/>
    </g>
    <g clip-path="url(#p7d1b8f6170)">
     <use xlink:href="#C0_0_269bebe031" x="200.218996" y="100.562941" style="fill: #a50026; stroke: #000000"/>
    </g>
    <g clip-path="url(#p7d1b8f6170)">
     <use xlink:href="#C0_0_269bebe031" x="230.452686" y="144.942774" style="fill: #a50026; stroke: #000000"/>
    </g>
    <g clip-path="url(#p7d1b8f6170)">
     <use xlink:href="#C0_0_269bebe031" x="228.580253" y="110.508301" style="fill: #a50026; stroke: #000000"/>
    </g>
    <g clip-path="url(#p7d1b8f6170)">
     <use xlink:href="#C0_0_269bebe031" x="180.2034" y="115.397622" style="fill: #a50026; stroke: #000000"/>
    </g>
    <g clip-path="url(#p7d1b8f6170)">
     <use xlink:href="#C0_0_269bebe031" x="223.318387" y="142.77315" style="fill: #a50026; stroke: #000000"/>
    </g>
    <g clip-path="url(#p7d1b8f6170)">
     <use xlink:href="#C0_0_269bebe031" x="237.029027" y="106.803879" style="fill: #313695; stroke: #000000"/>
    </g>
    <g clip-path="url(#p7d1b8f6170)">
     <use xlink:href="#C0_0_269bebe031" x="270.221753" y="96.395409" style="fill: #313695; stroke: #000000"/>
    </g>
    <g clip-path="url(#p7d1b8f6170)">
     <use xlink:href="#C0_0_269bebe031" x="157.603399" y="138.442172" style="fill: #a50026; stroke: #000000"/>
    </g>
    <g clip-path="url(#p7d1b8f6170)">
     <use xlink:href="#C0_0_269bebe031" x="244.2257" y="107.796102" style="fill: #313695; stroke: #000000"/>
    </g>
    <g clip-path="url(#p7d1b8f6170)">
     <use xlink:href="#C0_0_269bebe031" x="244.226268" y="37.30507" style="fill: #313695; stroke: #000000"/>
    </g>
    <g clip-path="url(#p7d1b8f6170)">
     <use xlink:href="#C0_0_269bebe031" x="246.781994" y="94.669236" style="fill: #313695; stroke: #000000"/>
    </g>
    <g clip-path="url(#p7d1b8f6170)">
     <use xlink:href="#C0_0_269bebe031" x="264.315621" y="104.891012" style="fill: #313695; stroke: #000000"/>
    </g>
    <g clip-path="url(#p7d1b8f6170)">
     <use xlink:href="#C0_0_269bebe031" x="206.225641" y="102.619851" style="fill: #a50026; stroke: #000000"/>
    </g>
    <g clip-path="url(#p7d1b8f6170)">
     <use xlink:href="#C0_0_269bebe031" x="185.284946" y="123.642689" style="fill: #a50026; stroke: #000000"/>
    </g>
    <g clip-path="url(#p7d1b8f6170)">
     <use xlink:href="#C0_0_269bebe031" x="198.441035" y="116.914523" style="fill: #a50026; stroke: #000000"/>
    </g>
    <g clip-path="url(#p7d1b8f6170)">
     <use xlink:href="#C0_0_269bebe031" x="326.588001" y="158.064294" style="fill: #313695; stroke: #000000"/>
    </g>
    <g clip-path="url(#p7d1b8f6170)">
     <use xlink:href="#C0_0_269bebe031" x="252.06205" y="152.690308" style="fill: #a50026; stroke: #000000"/>
    </g>
    <g clip-path="url(#p7d1b8f6170)">
     <use xlink:href="#C0_0_269bebe031" x="199.055755" y="95.653362" style="fill: #a50026; stroke: #000000"/>
    </g>
    <g clip-path="url(#p7d1b8f6170)">
     <use xlink:href="#C0_0_269bebe031" x="223.596249" y="141.396125" style="fill: #a50026; stroke: #000000"/>
    </g>
    <g clip-path="url(#p7d1b8f6170)">
     <use xlink:href="#C0_0_269bebe031" x="187.917499" y="104.295523" style="fill: #a50026; stroke: #000000"/>
    </g>
    <g clip-path="url(#p7d1b8f6170)">
     <use xlink:href="#C0_0_269bebe031" x="187.228123" y="114.073208" style="fill: #a50026; stroke: #000000"/>
    </g>
    <g clip-path="url(#p7d1b8f6170)">
     <use xlink:href="#C0_0_269bebe031" x="222.740043" y="132.399464" style="fill: #a50026; stroke: #000000"/>
    </g>
    <g clip-path="url(#p7d1b8f6170)">
     <use xlink:href="#C0_0_269bebe031" x="318.775012" y="105.259881" style="fill: #313695; stroke: #000000"/>
    </g>
    <g clip-path="url(#p7d1b8f6170)">
     <use xlink:href="#C0_0_269bebe031" x="127.970873" y="114.706651" style="fill: #a50026; stroke: #000000"/>
    </g>
    <g clip-path="url(#p7d1b8f6170)">
     <use xlink:href="#C0_0_269bebe031" x="190.366791" y="100.646658" style="fill: #a50026; stroke: #000000"/>
    </g>
    <g clip-path="url(#p7d1b8f6170)">
     <use xlink:href="#C0_0_269bebe031" x="184.383552" y="121.065319" style="fill: #a50026; stroke: #000000"/>
    </g>
    <g clip-path="url(#p7d1b8f6170)">
     <use xlink:href="#C0_0_269bebe031" x="243.765839" y="100.36541" style="fill: #313695; stroke: #000000"/>
    </g>
    <g clip-path="url(#p7d1b8f6170)">
     <use xlink:href="#C0_0_269bebe031" x="165.721123" y="125.704942" style="fill: #a50026; stroke: #000000"/>
    </g>
    <g clip-path="url(#p7d1b8f6170)">
     <use xlink:href="#C0_0_269bebe031" x="198.91784" y="132.435963" style="fill: #a50026; stroke: #000000"/>
    </g>
    <g clip-path="url(#p7d1b8f6170)">
     <use xlink:href="#C0_0_269bebe031" x="301.45289" y="110.093152" style="fill: #313695; stroke: #000000"/>
    </g>
    <g clip-path="url(#p7d1b8f6170)">
     <use xlink:href="#C0_0_269bebe031" x="162.948248" y="99.265345" style="fill: #a50026; stroke: #000000"/>
    </g>
    <g clip-path="url(#p7d1b8f6170)">
     <use xlink:href="#C0_0_269bebe031" x="317.777859" y="96.845867" style="fill: #313695; stroke: #000000"/>
    </g>
    <g clip-path="url(#p7d1b8f6170)">
     <use xlink:href="#C0_0_269bebe031" x="151.118271" y="128.866066" style="fill: #a50026; stroke: #000000"/>
    </g>
    <g clip-path="url(#p7d1b8f6170)">
     <use xlink:href="#C0_0_269bebe031" x="278.636361" y="133.583182" style="fill: #313695; stroke: #000000"/>
    </g>
    <g clip-path="url(#p7d1b8f6170)">
     <use xlink:href="#C0_0_269bebe031" x="240.966406" y="102.289139" style="fill: #313695; stroke: #000000"/>
    </g>
    <g clip-path="url(#p7d1b8f6170)">
     <use xlink:href="#C0_0_269bebe031" x="178.232101" y="119.899716" style="fill: #a50026; stroke: #000000"/>
    </g>
    <g clip-path="url(#p7d1b8f6170)">
     <use xlink:href="#C0_0_269bebe031" x="72.313206" y="140.269661" style="fill: #a50026; stroke: #000000"/>
    </g>
    <g clip-path="url(#p7d1b8f6170)">
     <use xlink:href="#C0_0_269bebe031" x="209.095245" y="144.985935" style="fill: #a50026; stroke: #000000"/>
    </g>
    <g clip-path="url(#p7d1b8f6170)">
     <use xlink:href="#C0_0_269bebe031" x="295.363992" y="148.835839" style="fill: #313695; stroke: #000000"/>
    </g>
    <g clip-path="url(#p7d1b8f6170)">
     <use xlink:href="#C0_0_269bebe031" x="200.515126" y="115.882866" style="fill: #a50026; stroke: #000000"/>
    </g>
    <g clip-path="url(#p7d1b8f6170)">
     <use xlink:href="#C0_0_269bebe031" x="286.616291" y="148.956614" style="fill: #313695; stroke: #000000"/>
    </g>
    <g clip-path="url(#p7d1b8f6170)">
     <use xlink:href="#C0_0_269bebe031" x="273.888215" y="118.426992" style="fill: #313695; stroke: #000000"/>
    </g>
    <g clip-path="url(#p7d1b8f6170)">
     <use xlink:href="#C0_0_269bebe031" x="175.734254" y="108.887211" style="fill: #a50026; stroke: #000000"/>
    </g>
    <g clip-path="url(#p7d1b8f6170)">
     <use xlink:href="#C0_0_269bebe031" x="229.764631" y="131.314668" style="fill: #a50026; stroke: #000000"/>
    </g>
    <g clip-path="url(#p7d1b8f6170)">
     <use xlink:href="#C0_0_269bebe031" x="223.848974" y="126.77768" style="fill: #a50026; stroke: #000000"/>
    </g>
    <g clip-path="url(#p7d1b8f6170)">
     <use xlink:href="#C0_0_269bebe031" x="225.849665" y="104.664283" style="fill: #a50026; stroke: #000000"/>
    </g>
    <g clip-path="url(#p7d1b8f6170)">
     <use xlink:href="#C0_0_269bebe031" x="293.240683" y="144.7755" style="fill: #313695; stroke: #000000"/>
    </g>
    <g clip-path="url(#p7d1b8f6170)">
     <use xlink:href="#C0_0_269bebe031" x="318.275668" y="159.855049" style="fill: #313695; stroke: #000000"/>
    </g>
    <g clip-path="url(#p7d1b8f6170)">
     <use xlink:href="#C0_0_269bebe031" x="213.707724" y="106.222616" style="fill: #a50026; stroke: #000000"/>
    </g>
    <g clip-path="url(#p7d1b8f6170)">
     <use xlink:href="#C0_0_269bebe031" x="233.514373" y="131.789316" style="fill: #a50026; stroke: #000000"/>
    </g>
    <g clip-path="url(#p7d1b8f6170)">
     <use xlink:href="#C0_0_269bebe031" x="211.129375" y="129.05115" style="fill: #a50026; stroke: #000000"/>
    </g>
    <g clip-path="url(#p7d1b8f6170)">
     <use xlink:href="#C0_0_269bebe031" x="193.681273" y="100.706431" style="fill: #a50026; stroke: #000000"/>
    </g>
    <g clip-path="url(#p7d1b8f6170)">
     <use xlink:href="#C0_0_269bebe031" x="236.993701" y="133.271575" style="fill: #a50026; stroke: #000000"/>
    </g>
    <g clip-path="url(#p7d1b8f6170)">
     <use xlink:href="#C0_0_269bebe031" x="261.825842" y="112.155395" style="fill: #313695; stroke: #000000"/>
    </g>
    <g clip-path="url(#p7d1b8f6170)">
     <use xlink:href="#C0_0_269bebe031" x="257.856166" y="105.350454" style="fill: #313695; stroke: #000000"/>
    </g>
    <g clip-path="url(#p7d1b8f6170)">
     <use xlink:href="#C0_0_269bebe031" x="182.714256" y="130.469441" style="fill: #a50026; stroke: #000000"/>
    </g>
    <g clip-path="url(#p7d1b8f6170)">
     <use xlink:href="#C0_0_269bebe031" x="254.85533" y="105.757037" style="fill: #313695; stroke: #000000"/>
    </g>
    <g clip-path="url(#p7d1b8f6170)">
     <use xlink:href="#C0_0_269bebe031" x="219.697792" y="116.166042" style="fill: #a50026; stroke: #000000"/>
    </g>
    <g clip-path="url(#p7d1b8f6170)">
     <use xlink:href="#C0_0_269bebe031" x="279.128522" y="131.132146" style="fill: #313695; stroke: #000000"/>
    </g>
    <g clip-path="url(#p7d1b8f6170)">
     <use xlink:href="#C0_0_269bebe031" x="245.693068" y="122.911674" style="fill: #a50026; stroke: #000000"/>
    </g>
    <g clip-path="url(#p7d1b8f6170)">
     <use xlink:href="#C0_0_269bebe031" x="210.691896" y="95.445912" style="fill: #a50026; stroke: #000000"/>
    </g>
    <g clip-path="url(#p7d1b8f6170)">
     <use xlink:href="#C0_0_269bebe031" x="258.430728" y="101.468406" style="fill: #313695; stroke: #000000"/>
    </g>
    <g clip-path="url(#p7d1b8f6170)">
     <use xlink:href="#C0_0_269bebe031" x="280.401465" y="118.199602" style="fill: #313695; stroke: #000000"/>
    </g>
    <g clip-path="url(#p7d1b8f6170)">
     <use xlink:href="#C0_0_269bebe031" x="251.864924" y="125.193309" style="fill: #313695; stroke: #000000"/>
    </g>
    <g clip-path="url(#p7d1b8f6170)">
     <use xlink:href="#C0_0_269bebe031" x="235.490314" y="121.39058" style="fill: #a50026; stroke: #000000"/>
    </g>
    <g clip-path="url(#p7d1b8f6170)">
     <use xlink:href="#C0_0_269bebe031" x="225.093541" y="106.078215" style="fill: #a50026; stroke: #000000"/>
    </g>
    <g clip-path="url(#p7d1b8f6170)">
     <use xlink:href="#C0_0_269bebe031" x="183.207358" y="74.469043" style="fill: #a50026; stroke: #000000"/>
    </g>
    <g clip-path="url(#p7d1b8f6170)">
     <use xlink:href="#C0_0_269bebe031" x="174.612577" y="144.276695" style="fill: #a50026; stroke: #000000"/>
    </g>
    <g clip-path="url(#p7d1b8f6170)">
     <use xlink:href="#C0_0_269bebe031" x="273.656963" y="101.929634" style="fill: #313695; stroke: #000000"/>
    </g>
    <g clip-path="url(#p7d1b8f6170)">
     <use xlink:href="#C0_0_269bebe031" x="249.218108" y="105.377548" style="fill: #313695; stroke: #000000"/>
    </g>
    <g clip-path="url(#p7d1b8f6170)">
     <use xlink:href="#C0_0_269bebe031" x="220.093892" y="137.585654" style="fill: #a50026; stroke: #000000"/>
    </g>
    <g clip-path="url(#p7d1b8f6170)">
     <use xlink:href="#C0_0_269bebe031" x="224.123686" y="132.939109" style="fill: #a50026; stroke: #000000"/>
    </g>
    <g clip-path="url(#p7d1b8f6170)">
     <use xlink:href="#C0_0_269bebe031" x="265.282115" y="121.747671" style="fill: #313695; stroke: #000000"/>
    </g>
    <g clip-path="url(#p7d1b8f6170)">
     <use xlink:href="#C0_0_269bebe031" x="182.874338" y="125.428053" style="fill: #a50026; stroke: #000000"/>
    </g>
    <g clip-path="url(#p7d1b8f6170)">
     <use xlink:href="#C0_0_269bebe031" x="239.552774" y="130.544251" style="fill: #a50026; stroke: #000000"/>
    </g>
    <g clip-path="url(#p7d1b8f6170)">
     <use xlink:href="#C0_0_269bebe031" x="183.024306" y="113.498363" style="fill: #a50026; stroke: #000000"/>
    </g>
    <g clip-path="url(#p7d1b8f6170)">
     <use xlink:href="#C0_0_269bebe031" x="231.865624" y="129.345495" style="fill: #a50026; stroke: #000000"/>
    </g>
    <g clip-path="url(#p7d1b8f6170)">
     <use xlink:href="#C0_0_269bebe031" x="199.09665" y="113.744047" style="fill: #a50026; stroke: #000000"/>
    </g>
    <g clip-path="url(#p7d1b8f6170)">
     <use xlink:href="#C0_0_269bebe031" x="154.380758" y="148.357074" style="fill: #a50026; stroke: #000000"/>
    </g>
    <g clip-path="url(#p7d1b8f6170)">
     <use xlink:href="#C0_0_269bebe031" x="187.773769" y="123.149276" style="fill: #a50026; stroke: #000000"/>
    </g>
    <g clip-path="url(#p7d1b8f6170)">
     <use xlink:href="#C0_0_269bebe031" x="234.883507" y="87.495657" style="fill: #313695; stroke: #000000"/>
    </g>
    <g clip-path="url(#p7d1b8f6170)">
     <use xlink:href="#C0_0_269bebe031" x="259.906387" y="122.019615" style="fill: #313695; stroke: #000000"/>
    </g>
    <g clip-path="url(#p7d1b8f6170)">
     <use xlink:href="#C0_0_269bebe031" x="219.78408" y="139.808194" style="fill: #a50026; stroke: #000000"/>
    </g>
    <g clip-path="url(#p7d1b8f6170)">
     <use xlink:href="#C0_0_269bebe031" x="219.807103" y="124.737124" style="fill: #a50026; stroke: #000000"/>
    </g>
    <g clip-path="url(#p7d1b8f6170)">
     <use xlink:href="#C0_0_269bebe031" x="235.424054" y="136.107335" style="fill: #a50026; stroke: #000000"/>
    </g>
    <g clip-path="url(#p7d1b8f6170)">
     <use xlink:href="#C0_0_269bebe031" x="244.42301" y="86.284207" style="fill: #313695; stroke: #000000"/>
    </g>
    <g clip-path="url(#p7d1b8f6170)">
     <use xlink:href="#C0_0_269bebe031" x="215.676822" y="110.162187" style="fill: #a50026; stroke: #000000"/>
    </g>
    <g clip-path="url(#p7d1b8f6170)">
     <use xlink:href="#C0_0_269bebe031" x="252.239798" y="127.113503" style="fill: #a50026; stroke: #000000"/>
    </g>
    <g clip-path="url(#p7d1b8f6170)">
     <use xlink:href="#C0_0_269bebe031" x="230.910292" y="118.377183" style="fill: #a50026; stroke: #000000"/>
    </g>
    <g clip-path="url(#p7d1b8f6170)">
     <use xlink:href="#C0_0_269bebe031" x="225.124668" y="134.962631" style="fill: #a50026; stroke: #000000"/>
    </g>
    <g clip-path="url(#p7d1b8f6170)">
     <use xlink:href="#C0_0_269bebe031" x="221.776126" y="108.129408" style="fill: #a50026; stroke: #000000"/>
    </g>
    <g clip-path="url(#p7d1b8f6170)">
     <use xlink:href="#C0_0_269bebe031" x="287.06802" y="98.39113" style="fill: #313695; stroke: #000000"/>
    </g>
    <g clip-path="url(#p7d1b8f6170)">
     <use xlink:href="#C0_0_269bebe031" x="319.197819" y="134.843092" style="fill: #313695; stroke: #000000"/>
    </g>
    <g clip-path="url(#p7d1b8f6170)">
     <use xlink:href="#C0_0_269bebe031" x="260.577369" y="114.772357" style="fill: #313695; stroke: #000000"/>
    </g>
    <g clip-path="url(#p7d1b8f6170)">
     <use xlink:href="#C0_0_269bebe031" x="320.873807" y="135.707634" style="fill: #313695; stroke: #000000"/>
    </g>
    <g clip-path="url(#p7d1b8f6170)">
     <use xlink:href="#C0_0_269bebe031" x="182.223327" y="131.297267" style="fill: #a50026; stroke: #000000"/>
    </g>
    <g clip-path="url(#p7d1b8f6170)">
     <use xlink:href="#C0_0_269bebe031" x="123.451296" y="129.742647" style="fill: #a50026; stroke: #000000"/>
    </g>
    <g clip-path="url(#p7d1b8f6170)">
     <use xlink:href="#C0_0_269bebe031" x="185.911605" y="115.467952" style="fill: #a50026; stroke: #000000"/>
    </g>
    <g clip-path="url(#p7d1b8f6170)">
     <use xlink:href="#C0_0_269bebe031" x="236.295328" y="79.033753" style="fill: #313695; stroke: #000000"/>
    </g>
    <g clip-path="url(#p7d1b8f6170)">
     <use xlink:href="#C0_0_269bebe031" x="264.151872" y="130.822485" style="fill: #313695; stroke: #000000"/>
    </g>
    <g clip-path="url(#p7d1b8f6170)">
     <use xlink:href="#C0_0_269bebe031" x="179.537167" y="108.257749" style="fill: #a50026; stroke: #000000"/>
    </g>
    <g clip-path="url(#p7d1b8f6170)">
     <use xlink:href="#C0_0_269bebe031" x="160.232046" y="79.977704" style="fill: #a50026; stroke: #000000"/>
    </g>
    <g clip-path="url(#p7d1b8f6170)">
     <use xlink:href="#C0_0_269bebe031" x="274.633126" y="128.548156" style="fill: #313695; stroke: #000000"/>
    </g>
    <g clip-path="url(#p7d1b8f6170)">
     <use xlink:href="#C0_0_269bebe031" x="142.250362" y="90.060395" style="fill: #a50026; stroke: #000000"/>
    </g>
    <g clip-path="url(#p7d1b8f6170)">
     <use xlink:href="#C0_0_269bebe031" x="215.412306" y="92.510544" style="fill: #313695; stroke: #000000"/>
    </g>
   </g>
   <g id="matplotlib.axis_1">
    <g id="xtick_1">
     <g id="line2d_1">
      <path d="M 83.355147 171.16 
L 83.355147 27.6 
" clip-path="url(#p7d1b8f6170)" style="fill: none; stroke: #b0b0b0; stroke-opacity: 0.3; stroke-width: 0.8; stroke-linecap: square"/>
     </g>
     <g id="line2d_2">
      <defs>
       <path id="m3625937ebf" d="M 0 0 
L 0 3.5 
" style="stroke: #000000; stroke-width: 0.8"/>
      </defs>
      <g>
       <use xlink:href="#m3625937ebf" x="83.355147" y="171.16" style="stroke: #000000; stroke-width: 0.8"/>
      </g>
     </g>
     <g id="text_1">
      <!-- −6 -->
      <g transform="translate(75.984053 185.758437) scale(0.1 -0.1)">
       <defs>
        <path id="DejaVuSans-2212" d="M 678 2272 
L 4684 2272 
L 4684 1741 
L 678 1741 
L 678 2272 
z
" transform="scale(0.015625)"/>
        <path id="DejaVuSans-36" d="M 2113 2584 
Q 1688 2584 1439 2293 
Q 1191 2003 1191 1497 
Q 1191 994 1439 701 
Q 1688 409 2113 409 
Q 2538 409 2786 701 
Q 3034 994 3034 1497 
Q 3034 2003 2786 2293 
Q 2538 2584 2113 2584 
z
M 3366 4563 
L 3366 3988 
Q 3128 4100 2886 4159 
Q 2644 4219 2406 4219 
Q 1781 4219 1451 3797 
Q 1122 3375 1075 2522 
Q 1259 2794 1537 2939 
Q 1816 3084 2150 3084 
Q 2853 3084 3261 2657 
Q 3669 2231 3669 1497 
Q 3669 778 3244 343 
Q 2819 -91 2113 -91 
Q 1303 -91 875 529 
Q 447 1150 447 2328 
Q 447 3434 972 4092 
Q 1497 4750 2381 4750 
Q 2619 4750 2861 4703 
Q 3103 4656 3366 4563 
z
" transform="scale(0.015625)"/>
       </defs>
       <use xlink:href="#DejaVuSans-2212"/>
       <use xlink:href="#DejaVuSans-36" transform="translate(83.789062 0)"/>
      </g>
     </g>
    </g>
    <g id="xtick_2">
     <g id="line2d_3">
      <path d="M 129.121559 171.16 
L 129.121559 27.6 
" clip-path="url(#p7d1b8f6170)" style="fill: none; stroke: #b0b0b0; stroke-opacity: 0.3; stroke-width: 0.8; stroke-linecap: square"/>
     </g>
     <g id="line2d_4">
      <g>
       <use xlink:href="#m3625937ebf" x="129.121559" y="171.16" style="stroke: #000000; stroke-width: 0.8"/>
      </g>
     </g>
     <g id="text_2">
      <!-- −4 -->
      <g transform="translate(121.750465 185.758437) scale(0.1 -0.1)">
       <defs>
        <path id="DejaVuSans-34" d="M 2419 4116 
L 825 1625 
L 2419 1625 
L 2419 4116 
z
M 2253 4666 
L 3047 4666 
L 3047 1625 
L 3713 1625 
L 3713 1100 
L 3047 1100 
L 3047 0 
L 2419 0 
L 2419 1100 
L 313 1100 
L 313 1709 
L 2253 4666 
z
" transform="scale(0.015625)"/>
       </defs>
       <use xlink:href="#DejaVuSans-2212"/>
       <use xlink:href="#DejaVuSans-34" transform="translate(83.789062 0)"/>
      </g>
     </g>
    </g>
    <g id="xtick_3">
     <g id="line2d_5">
      <path d="M 174.887971 171.16 
L 174.887971 27.6 
" clip-path="url(#p7d1b8f6170)" style="fill: none; stroke: #b0b0b0; stroke-opacity: 0.3; stroke-width: 0.8; stroke-linecap: square"/>
     </g>
     <g id="line2d_6">
      <g>
       <use xlink:href="#m3625937ebf" x="174.887971" y="171.16" style="stroke: #000000; stroke-width: 0.8"/>
      </g>
     </g>
     <g id="text_3">
      <!-- −2 -->
      <g transform="translate(167.516877 185.758437) scale(0.1 -0.1)">
       <defs>
        <path id="DejaVuSans-32" d="M 1228 531 
L 3431 531 
L 3431 0 
L 469 0 
L 469 531 
Q 828 903 1448 1529 
Q 2069 2156 2228 2338 
Q 2531 2678 2651 2914 
Q 2772 3150 2772 3378 
Q 2772 3750 2511 3984 
Q 2250 4219 1831 4219 
Q 1534 4219 1204 4116 
Q 875 4013 500 3803 
L 500 4441 
Q 881 4594 1212 4672 
Q 1544 4750 1819 4750 
Q 2544 4750 2975 4387 
Q 3406 4025 3406 3419 
Q 3406 3131 3298 2873 
Q 3191 2616 2906 2266 
Q 2828 2175 2409 1742 
Q 1991 1309 1228 531 
z
" transform="scale(0.015625)"/>
       </defs>
       <use xlink:href="#DejaVuSans-2212"/>
       <use xlink:href="#DejaVuSans-32" transform="translate(83.789062 0)"/>
      </g>
     </g>
    </g>
    <g id="xtick_4">
     <g id="line2d_7">
      <path d="M 220.654383 171.16 
L 220.654383 27.6 
" clip-path="url(#p7d1b8f6170)" style="fill: none; stroke: #b0b0b0; stroke-opacity: 0.3; stroke-width: 0.8; stroke-linecap: square"/>
     </g>
     <g id="line2d_8">
      <g>
       <use xlink:href="#m3625937ebf" x="220.654383" y="171.16" style="stroke: #000000; stroke-width: 0.8"/>
      </g>
     </g>
     <g id="text_4">
      <!-- 0 -->
      <g transform="translate(217.473133 185.758437) scale(0.1 -0.1)">
       <defs>
        <path id="DejaVuSans-30" d="M 2034 4250 
Q 1547 4250 1301 3770 
Q 1056 3291 1056 2328 
Q 1056 1369 1301 889 
Q 1547 409 2034 409 
Q 2525 409 2770 889 
Q 3016 1369 3016 2328 
Q 3016 3291 2770 3770 
Q 2525 4250 2034 4250 
z
M 2034 4750 
Q 2819 4750 3233 4129 
Q 3647 3509 3647 2328 
Q 3647 1150 3233 529 
Q 2819 -91 2034 -91 
Q 1250 -91 836 529 
Q 422 1150 422 2328 
Q 422 3509 836 4129 
Q 1250 4750 2034 4750 
z
" transform="scale(0.015625)"/>
       </defs>
       <use xlink:href="#DejaVuSans-30"/>
      </g>
     </g>
    </g>
    <g id="xtick_5">
     <g id="line2d_9">
      <path d="M 266.420796 171.16 
L 266.420796 27.6 
" clip-path="url(#p7d1b8f6170)" style="fill: none; stroke: #b0b0b0; stroke-opacity: 0.3; stroke-width: 0.8; stroke-linecap: square"/>
     </g>
     <g id="line2d_10">
      <g>
       <use xlink:href="#m3625937ebf" x="266.420796" y="171.16" style="stroke: #000000; stroke-width: 0.8"/>
      </g>
     </g>
     <g id="text_5">
      <!-- 2 -->
      <g transform="translate(263.239546 185.758437) scale(0.1 -0.1)">
       <use xlink:href="#DejaVuSans-32"/>
      </g>
     </g>
    </g>
    <g id="xtick_6">
     <g id="line2d_11">
      <path d="M 312.187208 171.16 
L 312.187208 27.6 
" clip-path="url(#p7d1b8f6170)" style="fill: none; stroke: #b0b0b0; stroke-opacity: 0.3; stroke-width: 0.8; stroke-linecap: square"/>
     </g>
     <g id="line2d_12">
      <g>
       <use xlink:href="#m3625937ebf" x="312.187208" y="171.16" style="stroke: #000000; stroke-width: 0.8"/>
      </g>
     </g>
     <g id="text_6">
      <!-- 4 -->
      <g transform="translate(309.005958 185.758437) scale(0.1 -0.1)">
       <use xlink:href="#DejaVuSans-34"/>
      </g>
     </g>
    </g>
    <g id="text_7">
     <!-- $x_1$ -->
     <g transform="translate(192.895 200.95625) scale(0.12 -0.12)">
      <defs>
       <path id="DejaVuSans-Oblique-78" d="M 3841 3500 
L 2234 1784 
L 3219 0 
L 2559 0 
L 1819 1388 
L 531 0 
L -166 0 
L 1556 1844 
L 641 3500 
L 1300 3500 
L 1972 2234 
L 3144 3500 
L 3841 3500 
z
" transform="scale(0.015625)"/>
       <path id="DejaVuSans-31" d="M 794 531 
L 1825 531 
L 1825 4091 
L 703 3866 
L 703 4441 
L 1819 4666 
L 2450 4666 
L 2450 531 
L 3481 531 
L 3481 0 
L 794 0 
L 794 531 
z
" transform="scale(0.015625)"/>
      </defs>
      <use xlink:href="#DejaVuSans-Oblique-78" transform="translate(0 0.3125)"/>
      <use xlink:href="#DejaVuSans-31" transform="translate(59.179688 -16.09375) scale(0.7)"/>
     </g>
    </g>
   </g>
   <g id="matplotlib.axis_2">
    <g id="ytick_1">
     <g id="line2d_13">
      <path d="M 49.43 160.86656 
L 349.2 160.86656 
" clip-path="url(#p7d1b8f6170)" style="fill: none; stroke: #b0b0b0; stroke-opacity: 0.3; stroke-width: 0.8; stroke-linecap: square"/>
     </g>
     <g id="line2d_14">
      <defs>
       <path id="m450fd1e921" d="M 0 0 
L -3.5 0 
" style="stroke: #000000; stroke-width: 0.8"/>
      </defs>
      <g>
       <use xlink:href="#m450fd1e921" x="49.43" y="160.86656" style="stroke: #000000; stroke-width: 0.8"/>
      </g>
     </g>
     <g id="text_8">
      <!-- −4 -->
      <g transform="translate(27.687813 164.665779) scale(0.1 -0.1)">
       <use xlink:href="#DejaVuSans-2212"/>
       <use xlink:href="#DejaVuSans-34" transform="translate(83.789062 0)"/>
      </g>
     </g>
    </g>
    <g id="ytick_2">
     <g id="line2d_15">
      <path d="M 49.43 139.754795 
L 349.2 139.754795 
" clip-path="url(#p7d1b8f6170)" style="fill: none; stroke: #b0b0b0; stroke-opacity: 0.3; stroke-width: 0.8; stroke-linecap: square"/>
     </g>
     <g id="line2d_16">
      <g>
       <use xlink:href="#m450fd1e921" x="49.43" y="139.754795" style="stroke: #000000; stroke-width: 0.8"/>
      </g>
     </g>
     <g id="text_9">
      <!-- −2 -->
      <g transform="translate(27.687813 143.554014) scale(0.1 -0.1)">
       <use xlink:href="#DejaVuSans-2212"/>
       <use xlink:href="#DejaVuSans-32" transform="translate(83.789062 0)"/>
      </g>
     </g>
    </g>
    <g id="ytick_3">
     <g id="line2d_17">
      <path d="M 49.43 118.64303 
L 349.2 118.64303 
" clip-path="url(#p7d1b8f6170)" style="fill: none; stroke: #b0b0b0; stroke-opacity: 0.3; stroke-width: 0.8; stroke-linecap: square"/>
     </g>
     <g id="line2d_18">
      <g>
       <use xlink:href="#m450fd1e921" x="49.43" y="118.64303" style="stroke: #000000; stroke-width: 0.8"/>
      </g>
     </g>
     <g id="text_10">
      <!-- 0 -->
      <g transform="translate(36.0675 122.442249) scale(0.1 -0.1)">
       <use xlink:href="#DejaVuSans-30"/>
      </g>
     </g>
    </g>
    <g id="ytick_4">
     <g id="line2d_19">
      <path d="M 49.43 97.531266 
L 349.2 97.531266 
" clip-path="url(#p7d1b8f6170)" style="fill: none; stroke: #b0b0b0; stroke-opacity: 0.3; stroke-width: 0.8; stroke-linecap: square"/>
     </g>
     <g id="line2d_20">
      <g>
       <use xlink:href="#m450fd1e921" x="49.43" y="97.531266" style="stroke: #000000; stroke-width: 0.8"/>
      </g>
     </g>
     <g id="text_11">
      <!-- 2 -->
      <g transform="translate(36.0675 101.330484) scale(0.1 -0.1)">
       <use xlink:href="#DejaVuSans-32"/>
      </g>
     </g>
    </g>
    <g id="ytick_5">
     <g id="line2d_21">
      <path d="M 49.43 76.419501 
L 349.2 76.419501 
" clip-path="url(#p7d1b8f6170)" style="fill: none; stroke: #b0b0b0; stroke-opacity: 0.3; stroke-width: 0.8; stroke-linecap: square"/>
     </g>
     <g id="line2d_22">
      <g>
       <use xlink:href="#m450fd1e921" x="49.43" y="76.419501" style="stroke: #000000; stroke-width: 0.8"/>
      </g>
     </g>
     <g id="text_12">
      <!-- 4 -->
      <g transform="translate(36.0675 80.21872) scale(0.1 -0.1)">
       <use xlink:href="#DejaVuSans-34"/>
      </g>
     </g>
    </g>
    <g id="ytick_6">
     <g id="line2d_23">
      <path d="M 49.43 55.307736 
L 349.2 55.307736 
" clip-path="url(#p7d1b8f6170)" style="fill: none; stroke: #b0b0b0; stroke-opacity: 0.3; stroke-width: 0.8; stroke-linecap: square"/>
     </g>
     <g id="line2d_24">
      <g>
       <use xlink:href="#m450fd1e921" x="49.43" y="55.307736" style="stroke: #000000; stroke-width: 0.8"/>
      </g>
     </g>
     <g id="text_13">
      <!-- 6 -->
      <g transform="translate(36.0675 59.106955) scale(0.1 -0.1)">
       <use xlink:href="#DejaVuSans-36"/>
      </g>
     </g>
    </g>
    <g id="ytick_7">
     <g id="line2d_25">
      <path d="M 49.43 34.195972 
L 349.2 34.195972 
" clip-path="url(#p7d1b8f6170)" style="fill: none; stroke: #b0b0b0; stroke-opacity: 0.3; stroke-width: 0.8; stroke-linecap: square"/>
     </g>
     <g id="line2d_26">
      <g>
       <use xlink:href="#m450fd1e921" x="49.43" y="34.195972" style="stroke: #000000; stroke-width: 0.8"/>
      </g>
     </g>
     <g id="text_14">
      <!-- 8 -->
      <g transform="translate(36.0675 37.99519) scale(0.1 -0.1)">
       <defs>
        <path id="DejaVuSans-38" d="M 2034 2216 
Q 1584 2216 1326 1975 
Q 1069 1734 1069 1313 
Q 1069 891 1326 650 
Q 1584 409 2034 409 
Q 2484 409 2743 651 
Q 3003 894 3003 1313 
Q 3003 1734 2745 1975 
Q 2488 2216 2034 2216 
z
M 1403 2484 
Q 997 2584 770 2862 
Q 544 3141 544 3541 
Q 544 4100 942 4425 
Q 1341 4750 2034 4750 
Q 2731 4750 3128 4425 
Q 3525 4100 3525 3541 
Q 3525 3141 3298 2862 
Q 3072 2584 2669 2484 
Q 3125 2378 3379 2068 
Q 3634 1759 3634 1313 
Q 3634 634 3220 271 
Q 2806 -91 2034 -91 
Q 1263 -91 848 271 
Q 434 634 434 1313 
Q 434 1759 690 2068 
Q 947 2378 1403 2484 
z
M 1172 3481 
Q 1172 3119 1398 2916 
Q 1625 2713 2034 2713 
Q 2441 2713 2670 2916 
Q 2900 3119 2900 3481 
Q 2900 3844 2670 4047 
Q 2441 4250 2034 4250 
Q 1625 4250 1398 4047 
Q 1172 3844 1172 3481 
z
" transform="scale(0.015625)"/>
       </defs>
       <use xlink:href="#DejaVuSans-38"/>
      </g>
     </g>
    </g>
    <g id="text_15">
     <!-- $x_2$ -->
     <g transform="translate(21.192188 105.8) rotate(-90) scale(0.12 -0.12)">
      <use xlink:href="#DejaVuSans-Oblique-78" transform="translate(0 0.3125)"/>
      <use xlink:href="#DejaVuSans-32" transform="translate(59.179688 -16.09375) scale(0.7)"/>
     </g>
    </g>
   </g>
   <g id="QuadContourSet_2">
    <path d="M 144.85534 27.6 
L 300.461142 171.16 
L 300.461142 171.16 
" clip-path="url(#p7d1b8f6170)" style="fill: none; stroke: #000000; stroke-width: 2"/>
   </g>
   <g id="patch_3">
    <path d="M 49.43 171.16 
L 49.43 27.6 
" style="fill: none; stroke: #000000; stroke-width: 0.8; stroke-linejoin: miter; stroke-linecap: square"/>
   </g>
   <g id="patch_4">
    <path d="M 349.2 171.16 
L 349.2 27.6 
" style="fill: none; stroke: #000000; stroke-width: 0.8; stroke-linejoin: miter; stroke-linecap: square"/>
   </g>
   <g id="patch_5">
    <path d="M 49.43 171.16 
L 349.2 171.16 
" style="fill: none; stroke: #000000; stroke-width: 0.8; stroke-linejoin: miter; stroke-linecap: square"/>
   </g>
   <g id="patch_6">
    <path d="M 49.43 27.6 
L 349.2 27.6 
" style="fill: none; stroke: #000000; stroke-width: 0.8; stroke-linejoin: miter; stroke-linecap: square"/>
   </g>
   <g id="text_16">
    <g id="patch_7">
     <path d="M 220.654383 73.003619 
L 323.274383 73.003619 
Q 327.474383 73.003619 327.474383 68.803619 
L 327.474383 49.903619 
Q 327.474383 45.703619 323.274383 45.703619 
L 220.654383 45.703619 
Q 216.454383 45.703619 216.454383 49.903619 
L 216.454383 68.803619 
Q 216.454383 73.003619 220.654383 73.003619 
z
" style="fill: #add8e6; stroke: #000000; stroke-linejoin: miter"/>
    </g>
    <!-- $\hat{Y} = 1; \; x^\top \hat\beta &gt; 0$ -->
    <g transform="translate(220.654383 65.863619) scale(0.14 -0.14)">
     <defs>
      <path id="DejaVuSans-302" d="M -1831 5119 
L -1369 5119 
L -603 3944 
L -1038 3944 
L -1600 4709 
L -2163 3944 
L -2597 3944 
L -1831 5119 
z
M -1600 3584 
L -1600 3584 
z
" transform="scale(0.015625)"/>
      <path id="DejaVuSans-Oblique-59" d="M 403 4666 
L 1081 4666 
L 1953 2747 
L 3616 4666 
L 4325 4666 
L 2209 2222 
L 1778 0 
L 1147 0 
L 1575 2222 
L 403 4666 
z
" transform="scale(0.015625)"/>
      <path id="DejaVuSans-3d" d="M 678 2906 
L 4684 2906 
L 4684 2381 
L 678 2381 
L 678 2906 
z
M 678 1631 
L 4684 1631 
L 4684 1100 
L 678 1100 
L 678 1631 
z
" transform="scale(0.015625)"/>
      <path id="DejaVuSans-3b" d="M 750 3309 
L 1409 3309 
L 1409 2516 
L 750 2516 
L 750 3309 
z
M 750 794 
L 1409 794 
L 1409 256 
L 897 -744 
L 494 -744 
L 750 256 
L 750 794 
z
" transform="scale(0.015625)"/>
      <path id="DejaVuSans-22a4" d="M 5028 4481 
L 5028 4084 
L 2988 4084 
L 2988 0 
L 2588 0 
L 2588 4084 
L 547 4084 
L 547 4481 
L 5028 4481 
z
" transform="scale(0.015625)"/>
      <path id="DejaVuSans-Oblique-3b2" d="M 872 216 
L 572 -1331 
L -6 -1331 
L 928 3478 
Q 1206 4903 2538 4903 
Q 3888 4903 3659 3700 
Q 3503 2844 2894 2531 
Q 3713 2250 3553 1416 
Q 3272 -69 1759 -66 
Q 1097 -63 872 216 
z
M 1019 966 
Q 1259 422 1875 425 
Q 2775 425 2966 1406 
Q 3138 2288 1675 2219 
L 1778 2750 
Q 2909 2731 3106 3750 
Q 3241 4438 2509 4434 
Q 1691 4434 1503 3459 
L 1019 966 
z
" transform="scale(0.015625)"/>
      <path id="DejaVuSans-3e" d="M 678 3150 
L 678 3719 
L 4684 2266 
L 4684 1747 
L 678 294 
L 678 863 
L 3897 2003 
L 678 3150 
z
" transform="scale(0.015625)"/>
     </defs>
     <use xlink:href="#DejaVuSans-302" transform="translate(62.849121 30.3125)"/>
     <use xlink:href="#DejaVuSans-Oblique-59" transform="translate(0 0.90625)"/>
     <use xlink:href="#DejaVuSans-3d" transform="translate(80.566406 0.90625)"/>
     <use xlink:href="#DejaVuSans-31" transform="translate(183.837891 0.90625)"/>
     <use xlink:href="#DejaVuSans-3b" transform="translate(247.460938 0.90625)"/>
     <use xlink:href="#DejaVuSans-Oblique-78" transform="translate(327.693901 0.90625)"/>
     <use xlink:href="#DejaVuSans-22a4" transform="translate(404.97743 39.1875) scale(0.7)"/>
     <use xlink:href="#DejaVuSans-302" transform="translate(545.111219 34.015625)"/>
     <use xlink:href="#DejaVuSans-Oblique-3b2" transform="translate(482.326063 0.90625)"/>
     <use xlink:href="#DejaVuSans-3e" transform="translate(565.626844 0.90625)"/>
     <use xlink:href="#DejaVuSans-30" transform="translate(668.898328 0.90625)"/>
    </g>
   </g>
   <g id="text_17">
    <g id="patch_8">
     <path d="M 83.355147 146.894795 
L 185.975147 146.894795 
Q 190.175147 146.894795 190.175147 142.694795 
L 190.175147 123.794795 
Q 190.175147 119.594795 185.975147 119.594795 
L 83.355147 119.594795 
Q 79.155147 119.594795 79.155147 123.794795 
L 79.155147 142.694795 
Q 79.155147 146.894795 83.355147 146.894795 
z
" style="fill: #f08080; stroke: #000000; stroke-linejoin: miter"/>
    </g>
    <!-- $\hat{Y} = 0; \; x^\top \hat\beta &lt; 0$ -->
    <g transform="translate(83.355147 139.754795) scale(0.14 -0.14)">
     <defs>
      <path id="DejaVuSans-3c" d="M 4684 3150 
L 1459 2003 
L 4684 863 
L 4684 294 
L 678 1747 
L 678 2266 
L 4684 3719 
L 4684 3150 
z
" transform="scale(0.015625)"/>
     </defs>
     <use xlink:href="#DejaVuSans-302" transform="translate(62.849121 30.3125)"/>
     <use xlink:href="#DejaVuSans-Oblique-59" transform="translate(0 0.90625)"/>
     <use xlink:href="#DejaVuSans-3d" transform="translate(80.566406 0.90625)"/>
     <use xlink:href="#DejaVuSans-30" transform="translate(183.837891 0.90625)"/>
     <use xlink:href="#DejaVuSans-3b" transform="translate(247.460938 0.90625)"/>
     <use xlink:href="#DejaVuSans-Oblique-78" transform="translate(327.693901 0.90625)"/>
     <use xlink:href="#DejaVuSans-22a4" transform="translate(404.97743 39.1875) scale(0.7)"/>
     <use xlink:href="#DejaVuSans-302" transform="translate(545.111219 34.015625)"/>
     <use xlink:href="#DejaVuSans-Oblique-3b2" transform="translate(482.326063 0.90625)"/>
     <use xlink:href="#DejaVuSans-3c" transform="translate(565.626844 0.90625)"/>
     <use xlink:href="#DejaVuSans-30" transform="translate(668.898328 0.90625)"/>
    </g>
   </g>
   <g id="text_18">
    <g id="patch_9">
     <path d="M 127.704765 56.451854 
L 176.304765 56.451854 
Q 179.904765 56.451854 179.904765 52.851854 
L 179.904765 36.651854 
Q 179.904765 33.051854 176.304765 33.051854 
L 127.704765 33.051854 
Q 124.104765 33.051854 124.104765 36.651854 
L 124.104765 52.851854 
Q 124.104765 56.451854 127.704765 56.451854 
z
" style="fill: #808080; stroke: #000000; stroke-linejoin: miter"/>
    </g>
    <!-- $x^\top \hat\beta = 0$ -->
    <g transform="translate(127.704765 50.331854) scale(0.12 -0.12)">
     <use xlink:href="#DejaVuSans-Oblique-78" transform="translate(0 0.90625)"/>
     <use xlink:href="#DejaVuSans-22a4" transform="translate(77.283529 39.1875) scale(0.7)"/>
     <use xlink:href="#DejaVuSans-302" transform="translate(217.417318 34.015625)"/>
     <use xlink:href="#DejaVuSans-Oblique-3b2" transform="translate(154.632161 0.90625)"/>
     <use xlink:href="#DejaVuSans-3d" transform="translate(237.932943 0.90625)"/>
     <use xlink:href="#DejaVuSans-30" transform="translate(341.204427 0.90625)"/>
    </g>
   </g>
   <g id="text_19">
    <!-- Decision Boundary for Binary Classification -->
    <g transform="translate(48.467187 21.6) scale(0.14 -0.14)">
     <defs>
      <path id="DejaVuSans-44" d="M 1259 4147 
L 1259 519 
L 2022 519 
Q 2988 519 3436 956 
Q 3884 1394 3884 2338 
Q 3884 3275 3436 3711 
Q 2988 4147 2022 4147 
L 1259 4147 
z
M 628 4666 
L 1925 4666 
Q 3281 4666 3915 4102 
Q 4550 3538 4550 2338 
Q 4550 1131 3912 565 
Q 3275 0 1925 0 
L 628 0 
L 628 4666 
z
" transform="scale(0.015625)"/>
      <path id="DejaVuSans-65" d="M 3597 1894 
L 3597 1613 
L 953 1613 
Q 991 1019 1311 708 
Q 1631 397 2203 397 
Q 2534 397 2845 478 
Q 3156 559 3463 722 
L 3463 178 
Q 3153 47 2828 -22 
Q 2503 -91 2169 -91 
Q 1331 -91 842 396 
Q 353 884 353 1716 
Q 353 2575 817 3079 
Q 1281 3584 2069 3584 
Q 2775 3584 3186 3129 
Q 3597 2675 3597 1894 
z
M 3022 2063 
Q 3016 2534 2758 2815 
Q 2500 3097 2075 3097 
Q 1594 3097 1305 2825 
Q 1016 2553 972 2059 
L 3022 2063 
z
" transform="scale(0.015625)"/>
      <path id="DejaVuSans-63" d="M 3122 3366 
L 3122 2828 
Q 2878 2963 2633 3030 
Q 2388 3097 2138 3097 
Q 1578 3097 1268 2742 
Q 959 2388 959 1747 
Q 959 1106 1268 751 
Q 1578 397 2138 397 
Q 2388 397 2633 464 
Q 2878 531 3122 666 
L 3122 134 
Q 2881 22 2623 -34 
Q 2366 -91 2075 -91 
Q 1284 -91 818 406 
Q 353 903 353 1747 
Q 353 2603 823 3093 
Q 1294 3584 2113 3584 
Q 2378 3584 2631 3529 
Q 2884 3475 3122 3366 
z
" transform="scale(0.015625)"/>
      <path id="DejaVuSans-69" d="M 603 3500 
L 1178 3500 
L 1178 0 
L 603 0 
L 603 3500 
z
M 603 4863 
L 1178 4863 
L 1178 4134 
L 603 4134 
L 603 4863 
z
" transform="scale(0.015625)"/>
      <path id="DejaVuSans-73" d="M 2834 3397 
L 2834 2853 
Q 2591 2978 2328 3040 
Q 2066 3103 1784 3103 
Q 1356 3103 1142 2972 
Q 928 2841 928 2578 
Q 928 2378 1081 2264 
Q 1234 2150 1697 2047 
L 1894 2003 
Q 2506 1872 2764 1633 
Q 3022 1394 3022 966 
Q 3022 478 2636 193 
Q 2250 -91 1575 -91 
Q 1294 -91 989 -36 
Q 684 19 347 128 
L 347 722 
Q 666 556 975 473 
Q 1284 391 1588 391 
Q 1994 391 2212 530 
Q 2431 669 2431 922 
Q 2431 1156 2273 1281 
Q 2116 1406 1581 1522 
L 1381 1569 
Q 847 1681 609 1914 
Q 372 2147 372 2553 
Q 372 3047 722 3315 
Q 1072 3584 1716 3584 
Q 2034 3584 2315 3537 
Q 2597 3491 2834 3397 
z
" transform="scale(0.015625)"/>
      <path id="DejaVuSans-6f" d="M 1959 3097 
Q 1497 3097 1228 2736 
Q 959 2375 959 1747 
Q 959 1119 1226 758 
Q 1494 397 1959 397 
Q 2419 397 2687 759 
Q 2956 1122 2956 1747 
Q 2956 2369 2687 2733 
Q 2419 3097 1959 3097 
z
M 1959 3584 
Q 2709 3584 3137 3096 
Q 3566 2609 3566 1747 
Q 3566 888 3137 398 
Q 2709 -91 1959 -91 
Q 1206 -91 779 398 
Q 353 888 353 1747 
Q 353 2609 779 3096 
Q 1206 3584 1959 3584 
z
" transform="scale(0.015625)"/>
      <path id="DejaVuSans-6e" d="M 3513 2113 
L 3513 0 
L 2938 0 
L 2938 2094 
Q 2938 2591 2744 2837 
Q 2550 3084 2163 3084 
Q 1697 3084 1428 2787 
Q 1159 2491 1159 1978 
L 1159 0 
L 581 0 
L 581 3500 
L 1159 3500 
L 1159 2956 
Q 1366 3272 1645 3428 
Q 1925 3584 2291 3584 
Q 2894 3584 3203 3211 
Q 3513 2838 3513 2113 
z
" transform="scale(0.015625)"/>
      <path id="DejaVuSans-20" transform="scale(0.015625)"/>
      <path id="DejaVuSans-42" d="M 1259 2228 
L 1259 519 
L 2272 519 
Q 2781 519 3026 730 
Q 3272 941 3272 1375 
Q 3272 1813 3026 2020 
Q 2781 2228 2272 2228 
L 1259 2228 
z
M 1259 4147 
L 1259 2741 
L 2194 2741 
Q 2656 2741 2882 2914 
Q 3109 3088 3109 3444 
Q 3109 3797 2882 3972 
Q 2656 4147 2194 4147 
L 1259 4147 
z
M 628 4666 
L 2241 4666 
Q 2963 4666 3353 4366 
Q 3744 4066 3744 3513 
Q 3744 3084 3544 2831 
Q 3344 2578 2956 2516 
Q 3422 2416 3680 2098 
Q 3938 1781 3938 1306 
Q 3938 681 3513 340 
Q 3088 0 2303 0 
L 628 0 
L 628 4666 
z
" transform="scale(0.015625)"/>
      <path id="DejaVuSans-75" d="M 544 1381 
L 544 3500 
L 1119 3500 
L 1119 1403 
Q 1119 906 1312 657 
Q 1506 409 1894 409 
Q 2359 409 2629 706 
Q 2900 1003 2900 1516 
L 2900 3500 
L 3475 3500 
L 3475 0 
L 2900 0 
L 2900 538 
Q 2691 219 2414 64 
Q 2138 -91 1772 -91 
Q 1169 -91 856 284 
Q 544 659 544 1381 
z
M 1991 3584 
L 1991 3584 
z
" transform="scale(0.015625)"/>
      <path id="DejaVuSans-64" d="M 2906 2969 
L 2906 4863 
L 3481 4863 
L 3481 0 
L 2906 0 
L 2906 525 
Q 2725 213 2448 61 
Q 2172 -91 1784 -91 
Q 1150 -91 751 415 
Q 353 922 353 1747 
Q 353 2572 751 3078 
Q 1150 3584 1784 3584 
Q 2172 3584 2448 3432 
Q 2725 3281 2906 2969 
z
M 947 1747 
Q 947 1113 1208 752 
Q 1469 391 1925 391 
Q 2381 391 2643 752 
Q 2906 1113 2906 1747 
Q 2906 2381 2643 2742 
Q 2381 3103 1925 3103 
Q 1469 3103 1208 2742 
Q 947 2381 947 1747 
z
" transform="scale(0.015625)"/>
      <path id="DejaVuSans-61" d="M 2194 1759 
Q 1497 1759 1228 1600 
Q 959 1441 959 1056 
Q 959 750 1161 570 
Q 1363 391 1709 391 
Q 2188 391 2477 730 
Q 2766 1069 2766 1631 
L 2766 1759 
L 2194 1759 
z
M 3341 1997 
L 3341 0 
L 2766 0 
L 2766 531 
Q 2569 213 2275 61 
Q 1981 -91 1556 -91 
Q 1019 -91 701 211 
Q 384 513 384 1019 
Q 384 1609 779 1909 
Q 1175 2209 1959 2209 
L 2766 2209 
L 2766 2266 
Q 2766 2663 2505 2880 
Q 2244 3097 1772 3097 
Q 1472 3097 1187 3025 
Q 903 2953 641 2809 
L 641 3341 
Q 956 3463 1253 3523 
Q 1550 3584 1831 3584 
Q 2591 3584 2966 3190 
Q 3341 2797 3341 1997 
z
" transform="scale(0.015625)"/>
      <path id="DejaVuSans-72" d="M 2631 2963 
Q 2534 3019 2420 3045 
Q 2306 3072 2169 3072 
Q 1681 3072 1420 2755 
Q 1159 2438 1159 1844 
L 1159 0 
L 581 0 
L 581 3500 
L 1159 3500 
L 1159 2956 
Q 1341 3275 1631 3429 
Q 1922 3584 2338 3584 
Q 2397 3584 2469 3576 
Q 2541 3569 2628 3553 
L 2631 2963 
z
" transform="scale(0.015625)"/>
      <path id="DejaVuSans-79" d="M 2059 -325 
Q 1816 -950 1584 -1140 
Q 1353 -1331 966 -1331 
L 506 -1331 
L 506 -850 
L 844 -850 
Q 1081 -850 1212 -737 
Q 1344 -625 1503 -206 
L 1606 56 
L 191 3500 
L 800 3500 
L 1894 763 
L 2988 3500 
L 3597 3500 
L 2059 -325 
z
" transform="scale(0.015625)"/>
      <path id="DejaVuSans-66" d="M 2375 4863 
L 2375 4384 
L 1825 4384 
Q 1516 4384 1395 4259 
Q 1275 4134 1275 3809 
L 1275 3500 
L 2222 3500 
L 2222 3053 
L 1275 3053 
L 1275 0 
L 697 0 
L 697 3053 
L 147 3053 
L 147 3500 
L 697 3500 
L 697 3744 
Q 697 4328 969 4595 
Q 1241 4863 1831 4863 
L 2375 4863 
z
" transform="scale(0.015625)"/>
      <path id="DejaVuSans-43" d="M 4122 4306 
L 4122 3641 
Q 3803 3938 3442 4084 
Q 3081 4231 2675 4231 
Q 1875 4231 1450 3742 
Q 1025 3253 1025 2328 
Q 1025 1406 1450 917 
Q 1875 428 2675 428 
Q 3081 428 3442 575 
Q 3803 722 4122 1019 
L 4122 359 
Q 3791 134 3420 21 
Q 3050 -91 2638 -91 
Q 1578 -91 968 557 
Q 359 1206 359 2328 
Q 359 3453 968 4101 
Q 1578 4750 2638 4750 
Q 3056 4750 3426 4639 
Q 3797 4528 4122 4306 
z
" transform="scale(0.015625)"/>
      <path id="DejaVuSans-6c" d="M 603 4863 
L 1178 4863 
L 1178 0 
L 603 0 
L 603 4863 
z
" transform="scale(0.015625)"/>
      <path id="DejaVuSans-74" d="M 1172 4494 
L 1172 3500 
L 2356 3500 
L 2356 3053 
L 1172 3053 
L 1172 1153 
Q 1172 725 1289 603 
Q 1406 481 1766 481 
L 2356 481 
L 2356 0 
L 1766 0 
Q 1100 0 847 248 
Q 594 497 594 1153 
L 594 3053 
L 172 3053 
L 172 3500 
L 594 3500 
L 594 4494 
L 1172 4494 
z
" transform="scale(0.015625)"/>
     </defs>
     <use xlink:href="#DejaVuSans-44"/>
     <use xlink:href="#DejaVuSans-65" transform="translate(77.001953 0)"/>
     <use xlink:href="#DejaVuSans-63" transform="translate(138.525391 0)"/>
     <use xlink:href="#DejaVuSans-69" transform="translate(193.505859 0)"/>
     <use xlink:href="#DejaVuSans-73" transform="translate(221.289062 0)"/>
     <use xlink:href="#DejaVuSans-69" transform="translate(273.388672 0)"/>
     <use xlink:href="#DejaVuSans-6f" transform="translate(301.171875 0)"/>
     <use xlink:href="#DejaVuSans-6e" transform="translate(362.353516 0)"/>
     <use xlink:href="#DejaVuSans-20" transform="translate(425.732422 0)"/>
     <use xlink:href="#DejaVuSans-42" transform="translate(457.519531 0)"/>
     <use xlink:href="#DejaVuSans-6f" transform="translate(526.123047 0)"/>
     <use xlink:href="#DejaVuSans-75" transform="translate(587.304688 0)"/>
     <use xlink:href="#DejaVuSans-6e" transform="translate(650.683594 0)"/>
     <use xlink:href="#DejaVuSans-64" transform="translate(714.0625 0)"/>
     <use xlink:href="#DejaVuSans-61" transform="translate(777.539062 0)"/>
     <use xlink:href="#DejaVuSans-72" transform="translate(838.818359 0)"/>
     <use xlink:href="#DejaVuSans-79" transform="translate(879.931641 0)"/>
     <use xlink:href="#DejaVuSans-20" transform="translate(939.111328 0)"/>
     <use xlink:href="#DejaVuSans-66" transform="translate(970.898438 0)"/>
     <use xlink:href="#DejaVuSans-6f" transform="translate(1006.103516 0)"/>
     <use xlink:href="#DejaVuSans-72" transform="translate(1067.285156 0)"/>
     <use xlink:href="#DejaVuSans-20" transform="translate(1108.398438 0)"/>
     <use xlink:href="#DejaVuSans-42" transform="translate(1140.185547 0)"/>
     <use xlink:href="#DejaVuSans-69" transform="translate(1208.789062 0)"/>
     <use xlink:href="#DejaVuSans-6e" transform="translate(1236.572266 0)"/>
     <use xlink:href="#DejaVuSans-61" transform="translate(1299.951172 0)"/>
     <use xlink:href="#DejaVuSans-72" transform="translate(1361.230469 0)"/>
     <use xlink:href="#DejaVuSans-79" transform="translate(1402.34375 0)"/>
     <use xlink:href="#DejaVuSans-20" transform="translate(1461.523438 0)"/>
     <use xlink:href="#DejaVuSans-43" transform="translate(1493.310547 0)"/>
     <use xlink:href="#DejaVuSans-6c" transform="translate(1563.134766 0)"/>
     <use xlink:href="#DejaVuSans-61" transform="translate(1590.917969 0)"/>
     <use xlink:href="#DejaVuSans-73" transform="translate(1652.197266 0)"/>
     <use xlink:href="#DejaVuSans-73" transform="translate(1704.296875 0)"/>
     <use xlink:href="#DejaVuSans-69" transform="translate(1756.396484 0)"/>
     <use xlink:href="#DejaVuSans-66" transform="translate(1784.179688 0)"/>
     <use xlink:href="#DejaVuSans-69" transform="translate(1819.384766 0)"/>
     <use xlink:href="#DejaVuSans-63" transform="translate(1847.167969 0)"/>
     <use xlink:href="#DejaVuSans-61" transform="translate(1902.148438 0)"/>
     <use xlink:href="#DejaVuSans-74" transform="translate(1963.427734 0)"/>
     <use xlink:href="#DejaVuSans-69" transform="translate(2002.636719 0)"/>
     <use xlink:href="#DejaVuSans-6f" transform="translate(2030.419922 0)"/>
     <use xlink:href="#DejaVuSans-6e" transform="translate(2091.601562 0)"/>
    </g>
   </g>
  </g>
 </g>
 <defs>
  <clipPath id="p7d1b8f6170">
   <rect x="49.43" y="27.6" width="299.77" height="143.56"/>
  </clipPath>
 </defs>
</svg>
