<?xml version="1.0" encoding="utf-8" standalone="no"?>
<!DOCTYPE svg PUBLIC "-//W3C//DTD SVG 1.1//EN"
  "http://www.w3.org/Graphics/SVG/1.1/DTD/svg11.dtd">
<svg xmlns:xlink="http://www.w3.org/1999/xlink" width="576pt" height="432pt" viewBox="0 0 576 432" xmlns="http://www.w3.org/2000/svg" version="1.1">
 <metadata>
  <rdf:RDF xmlns:dc="http://purl.org/dc/elements/1.1/" xmlns:cc="http://creativecommons.org/ns#" xmlns:rdf="http://www.w3.org/1999/02/22-rdf-syntax-ns#">
   <cc:Work>
    <dc:type rdf:resource="http://purl.org/dc/dcmitype/StillImage"/>
    <dc:date>2025-10-13T10:00:44.743459</dc:date>
    <dc:format>image/svg+xml</dc:format>
    <dc:creator>
     <cc:Agent>
      <dc:title>Matplotlib v3.10.7, https://matplotlib.org/</dc:title>
     </cc:Agent>
    </dc:creator>
   </cc:Work>
  </rdf:RDF>
 </metadata>
 <defs>
  <style type="text/css">*{stroke-linejoin: round; stroke-linecap: butt}</style>
 </defs>
 <g id="figure_1">
  <g id="patch_1">
   <path d="M 0 432 
L 576 432 
L 576 0 
L 0 0 
z
" style="fill: #ffffff"/>
  </g>
  <g id="axes_1">
   <g id="patch_2">
    <path d="M 118.732 383.56 
L 457.268 383.56 
L 457.268 45.024 
L 118.732 45.024 
z
" style="fill: #ffffff"/>
   </g>
   <g id="patch_3">
    <path d="M 245.683 298.926 
L 203.366 256.609 
L 161.049 298.926 
L 203.366 341.243 
L 245.683 298.926 
z
" clip-path="url(#pbf3b75279d)" style="fill: none; stroke-dasharray: 9.25,4; stroke-dashoffset: 0; stroke: #ff0000; stroke-width: 2.5; stroke-linejoin: miter"/>
   </g>
   <g id="line2d_1">
    <path d="M 118.732 298.926 
L 457.268 298.926 
" clip-path="url(#pbf3b75279d)" style="fill: none; stroke: #000000; stroke-opacity: 0.7; stroke-linecap: square"/>
   </g>
   <g id="line2d_2">
    <path d="M 203.366 383.56 
L 203.366 45.024 
" clip-path="url(#pbf3b75279d)" style="fill: none; stroke: #000000; stroke-opacity: 0.7; stroke-linecap: square"/>
   </g>
   <g id="matplotlib.axis_1">
    <g id="xtick_1">
     <g id="line2d_3">
      <path d="M 118.732 383.56 
L 118.732 45.024 
" clip-path="url(#pbf3b75279d)" style="fill: none; stroke: #b0b0b0; stroke-opacity: 0.3; stroke-width: 0.8; stroke-linecap: square"/>
     </g>
     <g id="line2d_4">
      <defs>
       <path id="m922e9cd5ca" d="M 0 0 
L 0 3.5 
" style="stroke: #000000; stroke-width: 0.8"/>
      </defs>
      <g>
       <use xlink:href="#m922e9cd5ca" x="118.732" y="383.56" style="stroke: #000000; stroke-width: 0.8"/>
      </g>
     </g>
     <g id="text_1">
      <!-- −1.0 -->
      <g transform="translate(106.590594 398.158437) scale(0.1 -0.1)">
       <defs>
        <path id="DejaVuSans-2212" d="M 678 2272 
L 4684 2272 
L 4684 1741 
L 678 1741 
L 678 2272 
z
" transform="scale(0.015625)"/>
        <path id="DejaVuSans-31" d="M 794 531 
L 1825 531 
L 1825 4091 
L 703 3866 
L 703 4441 
L 1819 4666 
L 2450 4666 
L 2450 531 
L 3481 531 
L 3481 0 
L 794 0 
L 794 531 
z
" transform="scale(0.015625)"/>
        <path id="DejaVuSans-2e" d="M 684 794 
L 1344 794 
L 1344 0 
L 684 0 
L 684 794 
z
" transform="scale(0.015625)"/>
        <path id="DejaVuSans-30" d="M 2034 4250 
Q 1547 4250 1301 3770 
Q 1056 3291 1056 2328 
Q 1056 1369 1301 889 
Q 1547 409 2034 409 
Q 2525 409 2770 889 
Q 3016 1369 3016 2328 
Q 3016 3291 2770 3770 
Q 2525 4250 2034 4250 
z
M 2034 4750 
Q 2819 4750 3233 4129 
Q 3647 3509 3647 2328 
Q 3647 1150 3233 529 
Q 2819 -91 2034 -91 
Q 1250 -91 836 529 
Q 422 1150 422 2328 
Q 422 3509 836 4129 
Q 1250 4750 2034 4750 
z
" transform="scale(0.015625)"/>
       </defs>
       <use xlink:href="#DejaVuSans-2212"/>
       <use xlink:href="#DejaVuSans-31" transform="translate(83.789062 0)"/>
       <use xlink:href="#DejaVuSans-2e" transform="translate(147.412109 0)"/>
       <use xlink:href="#DejaVuSans-30" transform="translate(179.199219 0)"/>
      </g>
     </g>
    </g>
    <g id="xtick_2">
     <g id="line2d_5">
      <path d="M 161.049 383.56 
L 161.049 45.024 
" clip-path="url(#pbf3b75279d)" style="fill: none; stroke: #b0b0b0; stroke-opacity: 0.3; stroke-width: 0.8; stroke-linecap: square"/>
     </g>
     <g id="line2d_6">
      <g>
       <use xlink:href="#m922e9cd5ca" x="161.049" y="383.56" style="stroke: #000000; stroke-width: 0.8"/>
      </g>
     </g>
     <g id="text_2">
      <!-- −0.5 -->
      <g transform="translate(148.907594 398.158437) scale(0.1 -0.1)">
       <defs>
        <path id="DejaVuSans-35" d="M 691 4666 
L 3169 4666 
L 3169 4134 
L 1269 4134 
L 1269 2991 
Q 1406 3038 1543 3061 
Q 1681 3084 1819 3084 
Q 2600 3084 3056 2656 
Q 3513 2228 3513 1497 
Q 3513 744 3044 326 
Q 2575 -91 1722 -91 
Q 1428 -91 1123 -41 
Q 819 9 494 109 
L 494 744 
Q 775 591 1075 516 
Q 1375 441 1709 441 
Q 2250 441 2565 725 
Q 2881 1009 2881 1497 
Q 2881 1984 2565 2268 
Q 2250 2553 1709 2553 
Q 1456 2553 1204 2497 
Q 953 2441 691 2322 
L 691 4666 
z
" transform="scale(0.015625)"/>
       </defs>
       <use xlink:href="#DejaVuSans-2212"/>
       <use xlink:href="#DejaVuSans-30" transform="translate(83.789062 0)"/>
       <use xlink:href="#DejaVuSans-2e" transform="translate(147.412109 0)"/>
       <use xlink:href="#DejaVuSans-35" transform="translate(179.199219 0)"/>
      </g>
     </g>
    </g>
    <g id="xtick_3">
     <g id="line2d_7">
      <path d="M 203.366 383.56 
L 203.366 45.024 
" clip-path="url(#pbf3b75279d)" style="fill: none; stroke: #b0b0b0; stroke-opacity: 0.3; stroke-width: 0.8; stroke-linecap: square"/>
     </g>
     <g id="line2d_8">
      <g>
       <use xlink:href="#m922e9cd5ca" x="203.366" y="383.56" style="stroke: #000000; stroke-width: 0.8"/>
      </g>
     </g>
     <g id="text_3">
      <!-- 0.0 -->
      <g transform="translate(195.414437 398.158437) scale(0.1 -0.1)">
       <use xlink:href="#DejaVuSans-30"/>
       <use xlink:href="#DejaVuSans-2e" transform="translate(63.623047 0)"/>
       <use xlink:href="#DejaVuSans-30" transform="translate(95.410156 0)"/>
      </g>
     </g>
    </g>
    <g id="xtick_4">
     <g id="line2d_9">
      <path d="M 245.683 383.56 
L 245.683 45.024 
" clip-path="url(#pbf3b75279d)" style="fill: none; stroke: #b0b0b0; stroke-opacity: 0.3; stroke-width: 0.8; stroke-linecap: square"/>
     </g>
     <g id="line2d_10">
      <g>
       <use xlink:href="#m922e9cd5ca" x="245.683" y="383.56" style="stroke: #000000; stroke-width: 0.8"/>
      </g>
     </g>
     <g id="text_4">
      <!-- 0.5 -->
      <g transform="translate(237.731437 398.158437) scale(0.1 -0.1)">
       <use xlink:href="#DejaVuSans-30"/>
       <use xlink:href="#DejaVuSans-2e" transform="translate(63.623047 0)"/>
       <use xlink:href="#DejaVuSans-35" transform="translate(95.410156 0)"/>
      </g>
     </g>
    </g>
    <g id="xtick_5">
     <g id="line2d_11">
      <path d="M 288 383.56 
L 288 45.024 
" clip-path="url(#pbf3b75279d)" style="fill: none; stroke: #b0b0b0; stroke-opacity: 0.3; stroke-width: 0.8; stroke-linecap: square"/>
     </g>
     <g id="line2d_12">
      <g>
       <use xlink:href="#m922e9cd5ca" x="288" y="383.56" style="stroke: #000000; stroke-width: 0.8"/>
      </g>
     </g>
     <g id="text_5">
      <!-- 1.0 -->
      <g transform="translate(280.048437 398.158437) scale(0.1 -0.1)">
       <use xlink:href="#DejaVuSans-31"/>
       <use xlink:href="#DejaVuSans-2e" transform="translate(63.623047 0)"/>
       <use xlink:href="#DejaVuSans-30" transform="translate(95.410156 0)"/>
      </g>
     </g>
    </g>
    <g id="xtick_6">
     <g id="line2d_13">
      <path d="M 330.317 383.56 
L 330.317 45.024 
" clip-path="url(#pbf3b75279d)" style="fill: none; stroke: #b0b0b0; stroke-opacity: 0.3; stroke-width: 0.8; stroke-linecap: square"/>
     </g>
     <g id="line2d_14">
      <g>
       <use xlink:href="#m922e9cd5ca" x="330.317" y="383.56" style="stroke: #000000; stroke-width: 0.8"/>
      </g>
     </g>
     <g id="text_6">
      <!-- 1.5 -->
      <g transform="translate(322.365437 398.158437) scale(0.1 -0.1)">
       <use xlink:href="#DejaVuSans-31"/>
       <use xlink:href="#DejaVuSans-2e" transform="translate(63.623047 0)"/>
       <use xlink:href="#DejaVuSans-35" transform="translate(95.410156 0)"/>
      </g>
     </g>
    </g>
    <g id="xtick_7">
     <g id="line2d_15">
      <path d="M 372.634 383.56 
L 372.634 45.024 
" clip-path="url(#pbf3b75279d)" style="fill: none; stroke: #b0b0b0; stroke-opacity: 0.3; stroke-width: 0.8; stroke-linecap: square"/>
     </g>
     <g id="line2d_16">
      <g>
       <use xlink:href="#m922e9cd5ca" x="372.634" y="383.56" style="stroke: #000000; stroke-width: 0.8"/>
      </g>
     </g>
     <g id="text_7">
      <!-- 2.0 -->
      <g transform="translate(364.682437 398.158437) scale(0.1 -0.1)">
       <defs>
        <path id="DejaVuSans-32" d="M 1228 531 
L 3431 531 
L 3431 0 
L 469 0 
L 469 531 
Q 828 903 1448 1529 
Q 2069 2156 2228 2338 
Q 2531 2678 2651 2914 
Q 2772 3150 2772 3378 
Q 2772 3750 2511 3984 
Q 2250 4219 1831 4219 
Q 1534 4219 1204 4116 
Q 875 4013 500 3803 
L 500 4441 
Q 881 4594 1212 4672 
Q 1544 4750 1819 4750 
Q 2544 4750 2975 4387 
Q 3406 4025 3406 3419 
Q 3406 3131 3298 2873 
Q 3191 2616 2906 2266 
Q 2828 2175 2409 1742 
Q 1991 1309 1228 531 
z
" transform="scale(0.015625)"/>
       </defs>
       <use xlink:href="#DejaVuSans-32"/>
       <use xlink:href="#DejaVuSans-2e" transform="translate(63.623047 0)"/>
       <use xlink:href="#DejaVuSans-30" transform="translate(95.410156 0)"/>
      </g>
     </g>
    </g>
    <g id="xtick_8">
     <g id="line2d_17">
      <path d="M 414.951 383.56 
L 414.951 45.024 
" clip-path="url(#pbf3b75279d)" style="fill: none; stroke: #b0b0b0; stroke-opacity: 0.3; stroke-width: 0.8; stroke-linecap: square"/>
     </g>
     <g id="line2d_18">
      <g>
       <use xlink:href="#m922e9cd5ca" x="414.951" y="383.56" style="stroke: #000000; stroke-width: 0.8"/>
      </g>
     </g>
     <g id="text_8">
      <!-- 2.5 -->
      <g transform="translate(406.999437 398.158437) scale(0.1 -0.1)">
       <use xlink:href="#DejaVuSans-32"/>
       <use xlink:href="#DejaVuSans-2e" transform="translate(63.623047 0)"/>
       <use xlink:href="#DejaVuSans-35" transform="translate(95.410156 0)"/>
      </g>
     </g>
    </g>
    <g id="xtick_9">
     <g id="line2d_19">
      <path d="M 457.268 383.56 
L 457.268 45.024 
" clip-path="url(#pbf3b75279d)" style="fill: none; stroke: #b0b0b0; stroke-opacity: 0.3; stroke-width: 0.8; stroke-linecap: square"/>
     </g>
     <g id="line2d_20">
      <g>
       <use xlink:href="#m922e9cd5ca" x="457.268" y="383.56" style="stroke: #000000; stroke-width: 0.8"/>
      </g>
     </g>
     <g id="text_9">
      <!-- 3.0 -->
      <g transform="translate(449.316437 398.158437) scale(0.1 -0.1)">
       <defs>
        <path id="DejaVuSans-33" d="M 2597 2516 
Q 3050 2419 3304 2112 
Q 3559 1806 3559 1356 
Q 3559 666 3084 287 
Q 2609 -91 1734 -91 
Q 1441 -91 1130 -33 
Q 819 25 488 141 
L 488 750 
Q 750 597 1062 519 
Q 1375 441 1716 441 
Q 2309 441 2620 675 
Q 2931 909 2931 1356 
Q 2931 1769 2642 2001 
Q 2353 2234 1838 2234 
L 1294 2234 
L 1294 2753 
L 1863 2753 
Q 2328 2753 2575 2939 
Q 2822 3125 2822 3475 
Q 2822 3834 2567 4026 
Q 2313 4219 1838 4219 
Q 1578 4219 1281 4162 
Q 984 4106 628 3988 
L 628 4550 
Q 988 4650 1302 4700 
Q 1616 4750 1894 4750 
Q 2613 4750 3031 4423 
Q 3450 4097 3450 3541 
Q 3450 3153 3228 2886 
Q 3006 2619 2597 2516 
z
" transform="scale(0.015625)"/>
       </defs>
       <use xlink:href="#DejaVuSans-33"/>
       <use xlink:href="#DejaVuSans-2e" transform="translate(63.623047 0)"/>
       <use xlink:href="#DejaVuSans-30" transform="translate(95.410156 0)"/>
      </g>
     </g>
    </g>
    <g id="text_10">
     <!-- $\beta_1$ -->
     <g transform="translate(280.16 415.018125) scale(0.14 -0.14)">
      <defs>
       <path id="DejaVuSans-Oblique-3b2" d="M 872 216 
L 572 -1331 
L -6 -1331 
L 928 3478 
Q 1206 4903 2538 4903 
Q 3888 4903 3659 3700 
Q 3503 2844 2894 2531 
Q 3713 2250 3553 1416 
Q 3272 -69 1759 -66 
Q 1097 -63 872 216 
z
M 1019 966 
Q 1259 422 1875 425 
Q 2775 425 2966 1406 
Q 3138 2288 1675 2219 
L 1778 2750 
Q 2909 2731 3106 3750 
Q 3241 4438 2509 4434 
Q 1691 4434 1503 3459 
L 1019 966 
z
" transform="scale(0.015625)"/>
      </defs>
      <use xlink:href="#DejaVuSans-Oblique-3b2" transform="translate(0 0.390625)"/>
      <use xlink:href="#DejaVuSans-31" transform="translate(63.818359 -16.015625) scale(0.7)"/>
     </g>
    </g>
   </g>
   <g id="matplotlib.axis_2">
    <g id="ytick_1">
     <g id="line2d_21">
      <path d="M 118.732 383.56 
L 457.268 383.56 
" clip-path="url(#pbf3b75279d)" style="fill: none; stroke: #b0b0b0; stroke-opacity: 0.3; stroke-width: 0.8; stroke-linecap: square"/>
     </g>
     <g id="line2d_22">
      <defs>
       <path id="me647bf1de7" d="M 0 0 
L -3.5 0 
" style="stroke: #000000; stroke-width: 0.8"/>
      </defs>
      <g>
       <use xlink:href="#me647bf1de7" x="118.732" y="383.56" style="stroke: #000000; stroke-width: 0.8"/>
      </g>
     </g>
     <g id="text_11">
      <!-- −1.0 -->
      <g transform="translate(87.449187 387.359219) scale(0.1 -0.1)">
       <use xlink:href="#DejaVuSans-2212"/>
       <use xlink:href="#DejaVuSans-31" transform="translate(83.789062 0)"/>
       <use xlink:href="#DejaVuSans-2e" transform="translate(147.412109 0)"/>
       <use xlink:href="#DejaVuSans-30" transform="translate(179.199219 0)"/>
      </g>
     </g>
    </g>
    <g id="ytick_2">
     <g id="line2d_23">
      <path d="M 118.732 341.243 
L 457.268 341.243 
" clip-path="url(#pbf3b75279d)" style="fill: none; stroke: #b0b0b0; stroke-opacity: 0.3; stroke-width: 0.8; stroke-linecap: square"/>
     </g>
     <g id="line2d_24">
      <g>
       <use xlink:href="#me647bf1de7" x="118.732" y="341.243" style="stroke: #000000; stroke-width: 0.8"/>
      </g>
     </g>
     <g id="text_12">
      <!-- −0.5 -->
      <g transform="translate(87.449187 345.042219) scale(0.1 -0.1)">
       <use xlink:href="#DejaVuSans-2212"/>
       <use xlink:href="#DejaVuSans-30" transform="translate(83.789062 0)"/>
       <use xlink:href="#DejaVuSans-2e" transform="translate(147.412109 0)"/>
       <use xlink:href="#DejaVuSans-35" transform="translate(179.199219 0)"/>
      </g>
     </g>
    </g>
    <g id="ytick_3">
     <g id="line2d_25">
      <path d="M 118.732 298.926 
L 457.268 298.926 
" clip-path="url(#pbf3b75279d)" style="fill: none; stroke: #b0b0b0; stroke-opacity: 0.3; stroke-width: 0.8; stroke-linecap: square"/>
     </g>
     <g id="line2d_26">
      <g>
       <use xlink:href="#me647bf1de7" x="118.732" y="298.926" style="stroke: #000000; stroke-width: 0.8"/>
      </g>
     </g>
     <g id="text_13">
      <!-- 0.0 -->
      <g transform="translate(95.828875 302.725219) scale(0.1 -0.1)">
       <use xlink:href="#DejaVuSans-30"/>
       <use xlink:href="#DejaVuSans-2e" transform="translate(63.623047 0)"/>
       <use xlink:href="#DejaVuSans-30" transform="translate(95.410156 0)"/>
      </g>
     </g>
    </g>
    <g id="ytick_4">
     <g id="line2d_27">
      <path d="M 118.732 256.609 
L 457.268 256.609 
" clip-path="url(#pbf3b75279d)" style="fill: none; stroke: #b0b0b0; stroke-opacity: 0.3; stroke-width: 0.8; stroke-linecap: square"/>
     </g>
     <g id="line2d_28">
      <g>
       <use xlink:href="#me647bf1de7" x="118.732" y="256.609" style="stroke: #000000; stroke-width: 0.8"/>
      </g>
     </g>
     <g id="text_14">
      <!-- 0.5 -->
      <g transform="translate(95.828875 260.408219) scale(0.1 -0.1)">
       <use xlink:href="#DejaVuSans-30"/>
       <use xlink:href="#DejaVuSans-2e" transform="translate(63.623047 0)"/>
       <use xlink:href="#DejaVuSans-35" transform="translate(95.410156 0)"/>
      </g>
     </g>
    </g>
    <g id="ytick_5">
     <g id="line2d_29">
      <path d="M 118.732 214.292 
L 457.268 214.292 
" clip-path="url(#pbf3b75279d)" style="fill: none; stroke: #b0b0b0; stroke-opacity: 0.3; stroke-width: 0.8; stroke-linecap: square"/>
     </g>
     <g id="line2d_30">
      <g>
       <use xlink:href="#me647bf1de7" x="118.732" y="214.292" style="stroke: #000000; stroke-width: 0.8"/>
      </g>
     </g>
     <g id="text_15">
      <!-- 1.0 -->
      <g transform="translate(95.828875 218.091219) scale(0.1 -0.1)">
       <use xlink:href="#DejaVuSans-31"/>
       <use xlink:href="#DejaVuSans-2e" transform="translate(63.623047 0)"/>
       <use xlink:href="#DejaVuSans-30" transform="translate(95.410156 0)"/>
      </g>
     </g>
    </g>
    <g id="ytick_6">
     <g id="line2d_31">
      <path d="M 118.732 171.975 
L 457.268 171.975 
" clip-path="url(#pbf3b75279d)" style="fill: none; stroke: #b0b0b0; stroke-opacity: 0.3; stroke-width: 0.8; stroke-linecap: square"/>
     </g>
     <g id="line2d_32">
      <g>
       <use xlink:href="#me647bf1de7" x="118.732" y="171.975" style="stroke: #000000; stroke-width: 0.8"/>
      </g>
     </g>
     <g id="text_16">
      <!-- 1.5 -->
      <g transform="translate(95.828875 175.774219) scale(0.1 -0.1)">
       <use xlink:href="#DejaVuSans-31"/>
       <use xlink:href="#DejaVuSans-2e" transform="translate(63.623047 0)"/>
       <use xlink:href="#DejaVuSans-35" transform="translate(95.410156 0)"/>
      </g>
     </g>
    </g>
    <g id="ytick_7">
     <g id="line2d_33">
      <path d="M 118.732 129.658 
L 457.268 129.658 
" clip-path="url(#pbf3b75279d)" style="fill: none; stroke: #b0b0b0; stroke-opacity: 0.3; stroke-width: 0.8; stroke-linecap: square"/>
     </g>
     <g id="line2d_34">
      <g>
       <use xlink:href="#me647bf1de7" x="118.732" y="129.658" style="stroke: #000000; stroke-width: 0.8"/>
      </g>
     </g>
     <g id="text_17">
      <!-- 2.0 -->
      <g transform="translate(95.828875 133.457219) scale(0.1 -0.1)">
       <use xlink:href="#DejaVuSans-32"/>
       <use xlink:href="#DejaVuSans-2e" transform="translate(63.623047 0)"/>
       <use xlink:href="#DejaVuSans-30" transform="translate(95.410156 0)"/>
      </g>
     </g>
    </g>
    <g id="ytick_8">
     <g id="line2d_35">
      <path d="M 118.732 87.341 
L 457.268 87.341 
" clip-path="url(#pbf3b75279d)" style="fill: none; stroke: #b0b0b0; stroke-opacity: 0.3; stroke-width: 0.8; stroke-linecap: square"/>
     </g>
     <g id="line2d_36">
      <g>
       <use xlink:href="#me647bf1de7" x="118.732" y="87.341" style="stroke: #000000; stroke-width: 0.8"/>
      </g>
     </g>
     <g id="text_18">
      <!-- 2.5 -->
      <g transform="translate(95.828875 91.140219) scale(0.1 -0.1)">
       <use xlink:href="#DejaVuSans-32"/>
       <use xlink:href="#DejaVuSans-2e" transform="translate(63.623047 0)"/>
       <use xlink:href="#DejaVuSans-35" transform="translate(95.410156 0)"/>
      </g>
     </g>
    </g>
    <g id="ytick_9">
     <g id="line2d_37">
      <path d="M 118.732 45.024 
L 457.268 45.024 
" clip-path="url(#pbf3b75279d)" style="fill: none; stroke: #b0b0b0; stroke-opacity: 0.3; stroke-width: 0.8; stroke-linecap: square"/>
     </g>
     <g id="line2d_38">
      <g>
       <use xlink:href="#me647bf1de7" x="118.732" y="45.024" style="stroke: #000000; stroke-width: 0.8"/>
      </g>
     </g>
     <g id="text_19">
      <!-- 3.0 -->
      <g transform="translate(95.828875 48.823219) scale(0.1 -0.1)">
       <use xlink:href="#DejaVuSans-33"/>
       <use xlink:href="#DejaVuSans-2e" transform="translate(63.623047 0)"/>
       <use xlink:href="#DejaVuSans-30" transform="translate(95.410156 0)"/>
      </g>
     </g>
    </g>
    <g id="text_20">
     <!-- $\beta_2$ -->
     <g transform="translate(80.509187 222.132) rotate(-90) scale(0.14 -0.14)">
      <use xlink:href="#DejaVuSans-Oblique-3b2" transform="translate(0 0.390625)"/>
      <use xlink:href="#DejaVuSans-32" transform="translate(63.818359 -16.015625) scale(0.7)"/>
     </g>
    </g>
   </g>
   <g id="QuadContourSet_1">
    <path d="M 334.782613 250.885969 
L 331.380241 250.733294 
L 327.977869 250.363986 
L 324.575497 249.763453 
L 321.173126 248.90442 
L 317.770754 247.741356 
L 316.069568 247.029127 
L 312.667196 245.306211 
L 310.646921 244.062754 
L 308.309657 242.361568 
L 305.862452 240.216331 
L 304.161266 238.436802 
L 302.46008 236.341157 
L 300.758894 233.826456 
L 298.983753 230.453266 
L 297.665721 227.050894 
L 297.156224 225.349709 
L 296.414422 221.947337 
L 295.991844 218.544965 
L 295.865233 215.142593 
L 296.013534 211.740221 
L 296.417646 208.337849 
L 297.060197 204.935477 
L 297.942651 201.533106 
L 299.057709 198.103311 
L 300.758894 193.889819 
L 302.46008 190.337195 
L 304.161266 187.222823 
L 305.862452 184.413978 
L 308.086304 181.118874 
L 310.96601 177.305552 
L 314.368382 173.313919 
L 316.621267 170.911759 
L 319.907478 167.704619 
M 332.944081 157.562825 
L 336.112095 155.601085 
L 339.886171 153.484522 
L 343.288543 151.767492 
L 346.690915 150.223074 
L 351.794472 148.226791 
L 355.196844 147.093641 
L 360.300402 145.713853 
L 363.702774 144.997265 
L 367.105146 144.44954 
L 370.507518 144.070117 
L 373.909889 143.869878 
L 377.312261 143.860664 
L 380.714633 144.055381 
L 384.117005 144.468127 
L 387.519377 145.114328 
L 390.921749 146.036778 
L 394.324121 147.260238 
L 397.726492 148.854709 
L 401.128864 150.913725 
L 402.898452 152.198714 
L 404.903215 153.899899 
L 406.625112 155.601085 
L 408.116308 157.302271 
L 409.634794 159.333541 
L 411.507128 162.405829 
L 413.079069 165.808201 
L 414.208272 169.210573 
L 414.974412 172.612945 
L 415.406542 176.015317 
L 415.545681 179.417688 
L 415.412435 182.82006 
L 415.02552 186.222432 
L 414.391626 189.624804 
L 413.521829 193.027176 
L 412.422099 196.429548 
L 411.097758 199.83192 
L 409.543622 203.234291 
L 407.754345 206.636663 
L 405.724415 210.039035 
L 403.448147 213.441407 
L 400.912814 216.843779 
L 397.726492 220.658055 
L 394.324121 224.294453 
L 390.921749 227.565746 
L 387.519377 230.531926 
L 383.261969 233.855638 
L 379.013447 236.812712 
L 375.595086 238.959196 
L 370.507518 241.778533 
L 367.105146 243.44254 
L 363.702774 244.933733 
L 360.300402 246.259081 
L 356.7641 247.465126 
L 351.794472 248.853333 
L 348.392101 249.602611 
L 344.989729 250.184731 
L 341.587357 250.600116 
L 337.1511 250.867497 
L 334.782613 250.885969 
L 334.782613 250.885969 
" clip-path="url(#pbf3b75279d)" style="fill: none; stroke: #0000ff; stroke-opacity: 0.6; stroke-width: 1.5"/>
    <path d="M 317.196721 145.419086 
L 319.611043 143.692784 
L 324.736451 140.290412 
L 330.43985 136.88804 
L 334.782613 134.547534 
L 339.886171 132.057512 
L 344.989729 129.843149 
L 350.093286 127.896705 
L 355.196844 126.209791 
L 360.300402 124.780565 
L 365.40396 123.615151 
L 370.507518 122.714689 
L 375.611075 122.084683 
L 380.714633 121.735064 
L 385.818191 121.685373 
L 390.921749 121.957012 
L 394.324121 122.328125 
L 397.726492 122.859968 
L 401.128864 123.568617 
L 404.531236 124.472177 
L 407.933608 125.586579 
L 411.33598 126.934935 
L 414.738352 128.555131 
L 418.140724 130.493702 
L 421.543095 132.808447 
L 424.49402 135.186854 
L 426.646653 137.195941 
L 429.480257 140.290412 
L 430.830024 141.991598 
L 432.055809 143.692784 
L 434.164717 147.095156 
L 435.888856 150.497528 
L 437.280535 153.899899 
L 438.554955 157.960284 
L 439.20737 160.704643 
L 439.79906 164.107015 
L 440.170342 167.509387 
L 440.330929 170.911759 
L 440.256141 175.082808 
L 440.072275 177.716503 
L 439.668822 181.118874 
L 439.094979 184.521246 
L 438.354632 187.923618 
L 436.933458 193.027176 
L 435.779093 196.429548 
L 434.466806 199.83192 
L 432.994047 203.234291 
L 431.358216 206.636663 
L 428.594817 211.740221 
L 426.541101 215.142593 
L 423.12751 220.246151 
L 419.84191 224.649541 
L 416.439538 228.81233 
L 413.037166 232.621125 
L 409.634794 236.1433 
L 406.232422 239.414408 
L 402.83005 242.464355 
L 397.726492 246.657364 
L 394.324121 249.236839 
L 389.220563 252.79328 
L 384.117005 256.01769 
L 379.013447 258.925855 
L 373.909889 261.545185 
L 368.806332 263.88534 
L 363.702774 265.959165 
L 358.599216 267.768588 
L 353.495658 269.315518 
L 348.392101 270.601844 
L 343.288543 271.629439 
L 338.184985 272.385894 
L 333.081427 272.869904 
L 327.977869 273.060646 
L 322.874312 272.94348 
L 319.47194 272.679701 
L 316.069568 272.260069 
L 312.667196 271.676868 
L 309.264824 270.911512 
L 304.73107 269.580543 
L 302.46008 268.764195 
L 299.057709 267.336771 
L 295.655337 265.626296 
L 292.252965 263.583828 
L 290.551779 262.420931 
L 287.149407 259.742298 
L 284.907733 257.672241 
L 283.270202 255.971055 
L 281.790352 254.269869 
L 279.244872 250.867497 
L 278.147104 249.166312 
L 276.257201 245.76394 
L 274.721547 242.361568 
L 273.493215 238.959196 
L 272.550412 235.556824 
L 271.838734 232.090307 
L 271.386203 228.75208 
L 271.134698 225.349709 
L 271.083349 221.947337 
L 271.222177 218.544965 
L 271.541857 215.142593 
L 272.037934 211.740221 
L 272.70776 208.337849 
L 273.53992 204.924109 
L 275.094614 199.83192 
L 276.336983 196.429548 
L 277.738175 193.027176 
L 279.300749 189.624804 
L 281.027324 186.222432 
L 283.747035 181.420891 
L 286.081227 177.716503 
L 288.850593 173.702162 
L 292.253685 169.210573 
L 295.655337 165.135794 
L 299.057709 161.383943 
L 302.46008 157.913973 
L 304.378637 156.068851 
L 304.378637 156.068851 
" clip-path="url(#pbf3b75279d)" style="fill: none; stroke: #0000ff; stroke-opacity: 0.6; stroke-width: 1.5"/>
    <path d="M 457.268 184.358034 
L 456.386936 187.923618 
L 454.873971 193.027176 
L 453.06365 198.130734 
L 450.957913 203.234291 
L 448.55509 208.337849 
L 445.84684 213.441407 
L 442.829293 218.544965 
L 439.491449 223.648523 
L 435.817774 228.75208 
L 433.174028 232.154452 
L 428.892163 237.25801 
L 424.945467 241.586718 
L 420.84204 245.76394 
L 416.439538 249.919882 
L 411.45959 254.269869 
L 407.255433 257.672241 
L 402.75756 261.074613 
L 397.726492 264.601234 
L 392.622935 267.904774 
L 386.926877 271.281729 
L 382.415819 273.740468 
L 377.145627 276.385286 
L 372.208704 278.638506 
L 367.105146 280.753389 
L 362.001588 282.653421 
L 356.89803 284.339861 
L 351.794472 285.813959 
L 346.690915 287.076956 
L 340.651947 288.293588 
L 336.483799 288.95438 
L 331.380241 289.561908 
L 326.276683 289.940662 
L 321.173126 290.076039 
L 316.069568 289.959237 
L 310.96601 289.57018 
L 305.862452 288.894391 
L 302.46008 288.275585 
L 297.356523 287.054347 
L 293.954151 286.036141 
L 290.551779 284.840518 
L 286.597988 283.19003 
L 283.12249 281.488844 
L 280.09122 279.787658 
L 276.942291 277.768672 
L 273.53992 275.253724 
L 270.857429 272.982915 
L 268.436362 270.666872 
L 265.870226 267.879357 
L 263.332804 264.697293 
L 261.631618 262.251667 
L 259.859731 259.373427 
L 258.06583 255.971055 
L 256.52806 252.505628 
L 255.299058 249.166312 
L 254.272911 245.76394 
L 253.457611 242.361568 
L 252.840104 238.959196 
L 252.409001 235.556824 
L 252.150162 232.154452 
L 252.056393 228.75208 
L 252.120896 225.349709 
L 252.500438 220.246151 
L 253.202784 215.142593 
L 254.2241 210.039035 
L 255.547509 204.935477 
L 257.169685 199.83192 
L 259.088677 194.728362 
L 261.302547 189.624804 
L 263.817794 184.521246 
L 266.735176 179.247568 
L 270.137548 173.749947 
L 273.53992 168.776159 
L 277.02858 164.107015 
L 281.197839 159.003457 
L 285.448221 154.230275 
L 289.029821 150.497528 
L 291.139237 148.414831 
M 303.770511 137.364555 
L 307.563638 134.463868 
L 312.667196 130.825595 
L 317.770754 127.469014 
L 322.874312 124.375092 
L 327.977869 121.526473 
L 333.081427 118.921931 
L 338.330897 116.473809 
L 343.288543 114.381555 
L 348.392101 112.440069 
L 353.495658 110.711173 
L 358.599216 109.19363 
L 363.702774 107.886212 
L 368.806332 106.797969 
L 373.909889 105.923076 
L 379.013447 105.272551 
L 384.117005 104.847916 
L 389.220563 104.661839 
L 394.324121 104.727955 
L 399.427678 105.060958 
L 404.531236 105.676706 
L 409.634794 106.599818 
L 414.738352 107.86299 
L 418.140724 108.919655 
L 421.543095 110.156947 
L 424.945467 111.597779 
L 428.347839 113.269109 
L 431.750211 115.202878 
L 435.152583 117.437212 
L 438.554955 120.022658 
L 441.957327 123.05033 
L 443.864687 124.979739 
L 446.814845 128.382111 
L 448.76207 130.981301 
L 450.463256 133.533005 
L 452.398039 136.88804 
L 454.061596 140.290412 
L 455.566814 143.997956 
L 456.603967 147.095156 
L 457.268 149.44829 
L 457.268 149.44829 
" clip-path="url(#pbf3b75279d)" style="fill: none; stroke: #0000ff; stroke-opacity: 0.6; stroke-width: 1.5"/>
    <path d="M 457.268 220.263111 
L 453.865628 225.624184 
L 450.463256 230.552462 
L 446.720876 235.556824 
L 442.592803 240.660382 
L 438.130972 245.76394 
L 433.308408 250.867497 
L 428.088297 255.971055 
L 423.244281 260.363556 
L 418.140724 264.678704 
L 413.037166 268.693273 
L 407.933608 272.439298 
L 402.83005 275.933109 
L 397.726492 279.189743 
L 392.622935 282.223061 
L 387.519377 285.045866 
L 380.714633 288.488677 
L 373.909889 291.583424 
L 368.806332 293.680704 
L 362.001588 296.187068 
L 356.89803 297.852626 
L 351.794472 299.334578 
L 346.690915 300.633853 
L 340.795753 301.903075 
L 336.483799 302.672404 
L 331.380241 303.409762 
L 326.276683 303.94864 
L 321.173126 304.285742 
L 316.069568 304.414806 
L 310.96601 304.325632 
L 305.862452 304.007339 
L 300.758894 303.445329 
L 295.655337 302.617289 
L 290.551779 301.509169 
L 285.448221 300.090741 
L 280.344663 298.323268 
L 276.644221 296.799518 
L 273.04547 295.098332 
L 269.865729 293.397146 
L 266.735176 291.515599 
L 263.332804 289.203701 
L 259.930432 286.582582 
L 256.127751 283.19003 
L 252.845477 279.787658 
L 249.723317 276.018815 
L 247.537442 272.982915 
L 245.391823 269.580543 
L 243.528924 266.178171 
L 241.920407 262.775799 
L 240.541602 259.373427 
L 239.370927 255.971055 
L 238.399564 252.568683 
L 237.605481 249.166312 
L 236.985276 245.76394 
L 236.522653 242.361568 
L 236.11151 237.25801 
L 236.024648 232.154452 
L 236.240645 227.050894 
L 236.747744 221.947337 
L 237.529586 216.843779 
L 238.583793 211.740221 
L 239.89917 206.636663 
L 241.474231 201.533106 
L 243.307501 196.429548 
L 245.397516 191.32599 
L 248.022131 185.653892 
L 250.351439 181.118874 
L 253.222026 176.015317 
L 256.52806 170.664867 
L 259.930432 165.616137 
L 263.516733 160.704643 
L 267.549513 155.601085 
L 271.905888 150.497528 
L 276.942291 145.059804 
L 282.045849 139.974961 
L 287.23614 135.186854 
L 292.252965 130.892151 
L 297.531028 126.680925 
L 302.46008 123.018071 
L 307.563638 119.47638 
L 312.667196 116.172566 
L 317.808268 113.071437 
L 319.251499 112.245363 
M 333.398887 104.975932 
L 338.184985 102.855473 
L 344.989729 100.13597 
L 350.093286 98.310462 
L 355.196844 96.669473 
L 360.300402 95.212068 
L 365.40396 93.93732 
L 371.508985 92.657206 
L 375.611075 91.948787 
L 380.714633 91.237801 
L 385.818191 90.724217 
L 390.921749 90.414818 
L 396.025307 90.314422 
L 401.128864 90.433282 
L 406.232422 90.782331 
L 411.33598 91.381231 
L 416.439538 92.243089 
L 421.543095 93.393126 
L 426.646653 94.856952 
L 430.147977 96.059578 
L 434.378311 97.760764 
L 438.02951 99.46195 
L 441.243894 101.163136 
L 444.120678 102.864322 
L 447.060884 104.800121 
L 450.463256 107.328524 
L 453.259593 109.669065 
L 455.566814 111.81324 
L 457.268 113.535924 
L 457.268 113.535924 
" clip-path="url(#pbf3b75279d)" style="fill: none; stroke: #0000ff; stroke-opacity: 0.6; stroke-width: 1.5"/>
    <path d="M 457.268 240.315906 
L 453.865628 244.551054 
L 449.927036 249.166312 
L 445.274507 254.269869 
L 440.256141 259.400038 
L 434.923046 264.476985 
L 429.15774 269.580543 
L 424.945467 273.083695 
L 419.84191 277.08466 
L 413.83348 281.488844 
L 407.933608 285.509168 
L 402.83005 288.760313 
L 397.726492 291.812654 
L 390.921749 295.581065 
L 384.117005 299.026202 
L 377.312261 302.159863 
L 370.507518 304.988518 
L 365.15135 307.006633 
L 358.599216 309.22568 
L 351.794472 311.244738 
L 344.989729 312.972146 
L 338.184985 314.405248 
L 331.380241 315.541353 
L 326.276683 316.187579 
L 321.173126 316.660216 
L 316.069568 316.951822 
L 310.96601 317.054519 
L 305.862452 316.959968 
L 300.758894 316.659331 
L 295.655337 316.143234 
L 290.551779 315.399798 
L 285.448221 314.404994 
L 280.344663 313.146004 
L 275.241106 311.596424 
L 270.137548 309.723688 
L 266.735176 308.278248 
L 263.332804 306.65723 
L 259.930432 304.842338 
L 256.52806 302.81264 
L 252.644905 300.201889 
L 249.723317 297.996653 
L 246.28254 295.098332 
L 242.738715 291.69596 
L 239.516201 288.157389 
L 236.900689 284.891216 
L 234.412643 281.379355 
L 232.358068 278.086472 
L 230.483628 274.684101 
L 228.83763 271.281729 
L 227.400171 267.879357 
L 225.906714 263.71444 
L 225.096148 261.074613 
L 224.197741 257.672241 
L 223.151987 252.568683 
L 222.429295 247.465126 
L 222.017457 242.361568 
L 221.892236 237.25801 
L 222.040033 232.154452 
L 222.504342 226.553748 
L 223.112743 221.947337 
L 224.018175 216.843779 
L 225.165613 211.740221 
L 226.545578 206.636663 
L 228.156889 201.533106 
L 229.998375 196.429548 
L 232.06887 191.32599 
L 234.412643 186.12755 
L 236.90288 181.118874 
L 239.669845 176.015317 
L 242.918573 170.525929 
L 246.320945 165.233986 
L 249.723317 160.32335 
L 253.226727 155.601085 
L 257.286151 150.497528 
L 261.634628 145.39397 
L 266.735176 139.83549 
L 271.838734 134.665203 
L 276.942291 129.840727 
L 282.455313 124.979739 
L 287.149407 121.100379 
L 291.174436 117.949178 
M 304.587906 108.499779 
L 309.264824 105.552594 
L 314.368382 102.526952 
L 321.173126 98.790885 
L 326.562729 96.059578 
L 333.081427 93.021396 
L 338.184985 90.836386 
L 344.989729 88.18853 
L 351.726812 85.852462 
L 357.260894 84.151276 
L 363.702774 82.411129 
L 370.507518 80.860526 
L 375.611075 79.894386 
L 381.047597 79.047719 
L 385.818191 78.469325 
L 390.921749 78.021085 
L 396.025307 77.754633 
L 401.128864 77.67788 
L 406.232422 77.799202 
L 411.33598 78.127479 
L 416.439538 78.672127 
L 421.543095 79.450026 
L 426.646653 80.475968 
L 431.750211 81.773657 
L 436.853769 83.364834 
L 440.256141 84.603976 
L 443.658513 85.998707 
L 447.060884 87.564606 
L 450.463256 89.319401 
L 453.865628 91.283359 
L 457.268 93.479753 
L 457.268 93.479753 
" clip-path="url(#pbf3b75279d)" style="fill: none; stroke: #0000ff; stroke-opacity: 0.6; stroke-width: 1.5"/>
    <path d="M 457.268 255.967933 
L 453.865628 259.65481 
L 448.76207 264.886882 
L 443.658513 269.795441 
L 438.241731 274.684101 
L 432.196181 279.787658 
L 426.646653 284.172644 
L 421.099857 288.293588 
L 414.738352 292.714206 
L 408.430806 296.799518 
L 402.812346 300.201889 
L 396.025307 304.022997 
L 389.220563 307.556525 
L 382.415819 310.802248 
L 375.508688 313.811377 
L 368.806332 316.457675 
L 361.902673 318.914935 
L 355.196844 321.034642 
L 348.392101 322.92241 
L 341.587357 324.543564 
L 334.782613 325.89589 
L 327.977869 326.970905 
L 321.173126 327.766211 
L 314.368382 328.269865 
L 309.264824 328.451319 
L 304.161266 328.457089 
L 299.057709 328.280091 
L 293.954151 327.912854 
L 288.850593 327.346353 
L 283.747035 326.562333 
L 278.643477 325.556652 
L 273.53992 324.304504 
L 268.436362 322.788207 
L 263.332804 320.984065 
L 259.930432 319.604085 
L 256.52806 318.071496 
L 253.125688 316.372171 
L 248.574791 313.811377 
L 245.863161 312.110191 
L 242.918573 310.097089 
L 238.865133 307.006633 
L 236.113829 304.668003 
L 232.711457 301.462172 
L 229.309085 297.838736 
L 227.00237 295.098332 
L 224.205528 291.39385 
L 222.118003 288.293588 
L 220.065472 284.891216 
L 218.237635 281.488844 
L 216.616062 278.086472 
L 215.184284 274.684101 
L 213.927542 271.281729 
L 212.352229 266.178171 
L 211.495207 262.775799 
L 210.469348 257.672241 
L 209.746969 252.568683 
L 209.302342 247.465126 
L 209.123114 242.361568 
L 209.197651 237.25801 
L 209.514994 232.154452 
L 210.064802 227.050894 
L 210.840354 221.947337 
L 211.838554 216.843779 
L 213.052947 211.740221 
L 214.479505 206.636663 
L 216.117242 201.533106 
L 217.965182 196.429548 
L 220.022353 191.32599 
L 222.504342 185.761496 
L 224.767436 181.118874 
L 227.607899 175.745637 
L 231.010271 169.841147 
L 234.412643 164.393499 
L 237.815015 159.325912 
L 241.217387 154.577899 
L 244.619759 150.101162 
L 248.411887 145.39397 
L 253.125688 139.905906 
L 258.229246 134.359477 
L 263.332804 129.172168 
L 267.115291 125.537281 
M 279.75875 114.505067 
L 285.448221 110.037518 
L 290.551779 106.264232 
L 297.356523 101.560742 
L 303.256971 97.760764 
L 309.264824 94.142923 
L 316.069568 90.341276 
L 322.874312 86.83682 
L 329.679055 83.619601 
L 336.483799 80.680101 
L 343.288543 78.018392 
L 350.093286 75.620895 
L 356.89803 73.495046 
L 363.702774 71.63384 
L 370.507518 70.039469 
L 377.312261 68.714149 
L 384.117005 67.66745 
L 390.921749 66.899997 
L 397.726492 66.42636 
L 402.83005 66.268164 
L 407.933608 66.286321 
L 413.037166 66.487944 
L 418.140724 66.880535 
L 423.244281 67.477193 
L 428.347839 68.28861 
L 433.451397 69.327751 
L 438.554955 70.610769 
L 443.8956 72.242975 
L 448.76207 74.008374 
L 453.865628 76.181761 
L 457.268 77.829259 
L 457.268 77.829259 
" clip-path="url(#pbf3b75279d)" style="fill: none; stroke: #0000ff; stroke-opacity: 0.6; stroke-width: 1.5"/>
   </g>
   <g id="line2d_39"/>
   <g id="patch_4">
    <path d="M 118.732 383.56 
L 118.732 45.024 
" style="fill: none; stroke: #000000; stroke-width: 0.8; stroke-linejoin: miter; stroke-linecap: square"/>
   </g>
   <g id="patch_5">
    <path d="M 457.268 383.56 
L 457.268 45.024 
" style="fill: none; stroke: #000000; stroke-width: 0.8; stroke-linejoin: miter; stroke-linecap: square"/>
   </g>
   <g id="patch_6">
    <path d="M 118.732 383.56 
L 457.268 383.56 
" style="fill: none; stroke: #000000; stroke-width: 0.8; stroke-linejoin: miter; stroke-linecap: square"/>
   </g>
   <g id="patch_7">
    <path d="M 118.732 45.024 
L 457.268 45.024 
" style="fill: none; stroke: #000000; stroke-width: 0.8; stroke-linejoin: miter; stroke-linecap: square"/>
   </g>
   <g id="text_21">
    <!-- Origin -->
    <g transform="translate(211.8294 311.6211) scale(0.1 -0.1)">
     <defs>
      <path id="DejaVuSans-4f" d="M 2522 4238 
Q 1834 4238 1429 3725 
Q 1025 3213 1025 2328 
Q 1025 1447 1429 934 
Q 1834 422 2522 422 
Q 3209 422 3611 934 
Q 4013 1447 4013 2328 
Q 4013 3213 3611 3725 
Q 3209 4238 2522 4238 
z
M 2522 4750 
Q 3503 4750 4090 4092 
Q 4678 3434 4678 2328 
Q 4678 1225 4090 567 
Q 3503 -91 2522 -91 
Q 1538 -91 948 565 
Q 359 1222 359 2328 
Q 359 3434 948 4092 
Q 1538 4750 2522 4750 
z
" transform="scale(0.015625)"/>
      <path id="DejaVuSans-72" d="M 2631 2963 
Q 2534 3019 2420 3045 
Q 2306 3072 2169 3072 
Q 1681 3072 1420 2755 
Q 1159 2438 1159 1844 
L 1159 0 
L 581 0 
L 581 3500 
L 1159 3500 
L 1159 2956 
Q 1341 3275 1631 3429 
Q 1922 3584 2338 3584 
Q 2397 3584 2469 3576 
Q 2541 3569 2628 3553 
L 2631 2963 
z
" transform="scale(0.015625)"/>
      <path id="DejaVuSans-69" d="M 603 3500 
L 1178 3500 
L 1178 0 
L 603 0 
L 603 3500 
z
M 603 4863 
L 1178 4863 
L 1178 4134 
L 603 4134 
L 603 4863 
z
" transform="scale(0.015625)"/>
      <path id="DejaVuSans-67" d="M 2906 1791 
Q 2906 2416 2648 2759 
Q 2391 3103 1925 3103 
Q 1463 3103 1205 2759 
Q 947 2416 947 1791 
Q 947 1169 1205 825 
Q 1463 481 1925 481 
Q 2391 481 2648 825 
Q 2906 1169 2906 1791 
z
M 3481 434 
Q 3481 -459 3084 -895 
Q 2688 -1331 1869 -1331 
Q 1566 -1331 1297 -1286 
Q 1028 -1241 775 -1147 
L 775 -588 
Q 1028 -725 1275 -790 
Q 1522 -856 1778 -856 
Q 2344 -856 2625 -561 
Q 2906 -266 2906 331 
L 2906 616 
Q 2728 306 2450 153 
Q 2172 0 1784 0 
Q 1141 0 747 490 
Q 353 981 353 1791 
Q 353 2603 747 3093 
Q 1141 3584 1784 3584 
Q 2172 3584 2450 3431 
Q 2728 3278 2906 2969 
L 2906 3500 
L 3481 3500 
L 3481 434 
z
" transform="scale(0.015625)"/>
      <path id="DejaVuSans-6e" d="M 3513 2113 
L 3513 0 
L 2938 0 
L 2938 2094 
Q 2938 2591 2744 2837 
Q 2550 3084 2163 3084 
Q 1697 3084 1428 2787 
Q 1159 2491 1159 1978 
L 1159 0 
L 581 0 
L 581 3500 
L 1159 3500 
L 1159 2956 
Q 1366 3272 1645 3428 
Q 1925 3584 2291 3584 
Q 2894 3584 3203 3211 
Q 3513 2838 3513 2113 
z
" transform="scale(0.015625)"/>
     </defs>
     <use xlink:href="#DejaVuSans-4f"/>
     <use xlink:href="#DejaVuSans-72" transform="translate(78.710938 0)"/>
     <use xlink:href="#DejaVuSans-69" transform="translate(119.824219 0)"/>
     <use xlink:href="#DejaVuSans-67" transform="translate(147.607422 0)"/>
     <use xlink:href="#DejaVuSans-69" transform="translate(211.083984 0)"/>
     <use xlink:href="#DejaVuSans-6e" transform="translate(238.867188 0)"/>
    </g>
   </g>
   <g id="text_22">
    <!-- LASSO Regression: MSE Contours and L1 Constraint -->
    <g transform="translate(80.5125 21.1075) scale(0.16 -0.16)">
     <defs>
      <path id="DejaVuSans-4c" d="M 628 4666 
L 1259 4666 
L 1259 531 
L 3531 531 
L 3531 0 
L 628 0 
L 628 4666 
z
" transform="scale(0.015625)"/>
      <path id="DejaVuSans-41" d="M 2188 4044 
L 1331 1722 
L 3047 1722 
L 2188 4044 
z
M 1831 4666 
L 2547 4666 
L 4325 0 
L 3669 0 
L 3244 1197 
L 1141 1197 
L 716 0 
L 50 0 
L 1831 4666 
z
" transform="scale(0.015625)"/>
      <path id="DejaVuSans-53" d="M 3425 4513 
L 3425 3897 
Q 3066 4069 2747 4153 
Q 2428 4238 2131 4238 
Q 1616 4238 1336 4038 
Q 1056 3838 1056 3469 
Q 1056 3159 1242 3001 
Q 1428 2844 1947 2747 
L 2328 2669 
Q 3034 2534 3370 2195 
Q 3706 1856 3706 1288 
Q 3706 609 3251 259 
Q 2797 -91 1919 -91 
Q 1588 -91 1214 -16 
Q 841 59 441 206 
L 441 856 
Q 825 641 1194 531 
Q 1563 422 1919 422 
Q 2459 422 2753 634 
Q 3047 847 3047 1241 
Q 3047 1584 2836 1778 
Q 2625 1972 2144 2069 
L 1759 2144 
Q 1053 2284 737 2584 
Q 422 2884 422 3419 
Q 422 4038 858 4394 
Q 1294 4750 2059 4750 
Q 2388 4750 2728 4690 
Q 3069 4631 3425 4513 
z
" transform="scale(0.015625)"/>
      <path id="DejaVuSans-20" transform="scale(0.015625)"/>
      <path id="DejaVuSans-52" d="M 2841 2188 
Q 3044 2119 3236 1894 
Q 3428 1669 3622 1275 
L 4263 0 
L 3584 0 
L 2988 1197 
Q 2756 1666 2539 1819 
Q 2322 1972 1947 1972 
L 1259 1972 
L 1259 0 
L 628 0 
L 628 4666 
L 2053 4666 
Q 2853 4666 3247 4331 
Q 3641 3997 3641 3322 
Q 3641 2881 3436 2590 
Q 3231 2300 2841 2188 
z
M 1259 4147 
L 1259 2491 
L 2053 2491 
Q 2509 2491 2742 2702 
Q 2975 2913 2975 3322 
Q 2975 3731 2742 3939 
Q 2509 4147 2053 4147 
L 1259 4147 
z
" transform="scale(0.015625)"/>
      <path id="DejaVuSans-65" d="M 3597 1894 
L 3597 1613 
L 953 1613 
Q 991 1019 1311 708 
Q 1631 397 2203 397 
Q 2534 397 2845 478 
Q 3156 559 3463 722 
L 3463 178 
Q 3153 47 2828 -22 
Q 2503 -91 2169 -91 
Q 1331 -91 842 396 
Q 353 884 353 1716 
Q 353 2575 817 3079 
Q 1281 3584 2069 3584 
Q 2775 3584 3186 3129 
Q 3597 2675 3597 1894 
z
M 3022 2063 
Q 3016 2534 2758 2815 
Q 2500 3097 2075 3097 
Q 1594 3097 1305 2825 
Q 1016 2553 972 2059 
L 3022 2063 
z
" transform="scale(0.015625)"/>
      <path id="DejaVuSans-73" d="M 2834 3397 
L 2834 2853 
Q 2591 2978 2328 3040 
Q 2066 3103 1784 3103 
Q 1356 3103 1142 2972 
Q 928 2841 928 2578 
Q 928 2378 1081 2264 
Q 1234 2150 1697 2047 
L 1894 2003 
Q 2506 1872 2764 1633 
Q 3022 1394 3022 966 
Q 3022 478 2636 193 
Q 2250 -91 1575 -91 
Q 1294 -91 989 -36 
Q 684 19 347 128 
L 347 722 
Q 666 556 975 473 
Q 1284 391 1588 391 
Q 1994 391 2212 530 
Q 2431 669 2431 922 
Q 2431 1156 2273 1281 
Q 2116 1406 1581 1522 
L 1381 1569 
Q 847 1681 609 1914 
Q 372 2147 372 2553 
Q 372 3047 722 3315 
Q 1072 3584 1716 3584 
Q 2034 3584 2315 3537 
Q 2597 3491 2834 3397 
z
" transform="scale(0.015625)"/>
      <path id="DejaVuSans-6f" d="M 1959 3097 
Q 1497 3097 1228 2736 
Q 959 2375 959 1747 
Q 959 1119 1226 758 
Q 1494 397 1959 397 
Q 2419 397 2687 759 
Q 2956 1122 2956 1747 
Q 2956 2369 2687 2733 
Q 2419 3097 1959 3097 
z
M 1959 3584 
Q 2709 3584 3137 3096 
Q 3566 2609 3566 1747 
Q 3566 888 3137 398 
Q 2709 -91 1959 -91 
Q 1206 -91 779 398 
Q 353 888 353 1747 
Q 353 2609 779 3096 
Q 1206 3584 1959 3584 
z
" transform="scale(0.015625)"/>
      <path id="DejaVuSans-3a" d="M 750 794 
L 1409 794 
L 1409 0 
L 750 0 
L 750 794 
z
M 750 3309 
L 1409 3309 
L 1409 2516 
L 750 2516 
L 750 3309 
z
" transform="scale(0.015625)"/>
      <path id="DejaVuSans-4d" d="M 628 4666 
L 1569 4666 
L 2759 1491 
L 3956 4666 
L 4897 4666 
L 4897 0 
L 4281 0 
L 4281 4097 
L 3078 897 
L 2444 897 
L 1241 4097 
L 1241 0 
L 628 0 
L 628 4666 
z
" transform="scale(0.015625)"/>
      <path id="DejaVuSans-45" d="M 628 4666 
L 3578 4666 
L 3578 4134 
L 1259 4134 
L 1259 2753 
L 3481 2753 
L 3481 2222 
L 1259 2222 
L 1259 531 
L 3634 531 
L 3634 0 
L 628 0 
L 628 4666 
z
" transform="scale(0.015625)"/>
      <path id="DejaVuSans-43" d="M 4122 4306 
L 4122 3641 
Q 3803 3938 3442 4084 
Q 3081 4231 2675 4231 
Q 1875 4231 1450 3742 
Q 1025 3253 1025 2328 
Q 1025 1406 1450 917 
Q 1875 428 2675 428 
Q 3081 428 3442 575 
Q 3803 722 4122 1019 
L 4122 359 
Q 3791 134 3420 21 
Q 3050 -91 2638 -91 
Q 1578 -91 968 557 
Q 359 1206 359 2328 
Q 359 3453 968 4101 
Q 1578 4750 2638 4750 
Q 3056 4750 3426 4639 
Q 3797 4528 4122 4306 
z
" transform="scale(0.015625)"/>
      <path id="DejaVuSans-74" d="M 1172 4494 
L 1172 3500 
L 2356 3500 
L 2356 3053 
L 1172 3053 
L 1172 1153 
Q 1172 725 1289 603 
Q 1406 481 1766 481 
L 2356 481 
L 2356 0 
L 1766 0 
Q 1100 0 847 248 
Q 594 497 594 1153 
L 594 3053 
L 172 3053 
L 172 3500 
L 594 3500 
L 594 4494 
L 1172 4494 
z
" transform="scale(0.015625)"/>
      <path id="DejaVuSans-75" d="M 544 1381 
L 544 3500 
L 1119 3500 
L 1119 1403 
Q 1119 906 1312 657 
Q 1506 409 1894 409 
Q 2359 409 2629 706 
Q 2900 1003 2900 1516 
L 2900 3500 
L 3475 3500 
L 3475 0 
L 2900 0 
L 2900 538 
Q 2691 219 2414 64 
Q 2138 -91 1772 -91 
Q 1169 -91 856 284 
Q 544 659 544 1381 
z
M 1991 3584 
L 1991 3584 
z
" transform="scale(0.015625)"/>
      <path id="DejaVuSans-61" d="M 2194 1759 
Q 1497 1759 1228 1600 
Q 959 1441 959 1056 
Q 959 750 1161 570 
Q 1363 391 1709 391 
Q 2188 391 2477 730 
Q 2766 1069 2766 1631 
L 2766 1759 
L 2194 1759 
z
M 3341 1997 
L 3341 0 
L 2766 0 
L 2766 531 
Q 2569 213 2275 61 
Q 1981 -91 1556 -91 
Q 1019 -91 701 211 
Q 384 513 384 1019 
Q 384 1609 779 1909 
Q 1175 2209 1959 2209 
L 2766 2209 
L 2766 2266 
Q 2766 2663 2505 2880 
Q 2244 3097 1772 3097 
Q 1472 3097 1187 3025 
Q 903 2953 641 2809 
L 641 3341 
Q 956 3463 1253 3523 
Q 1550 3584 1831 3584 
Q 2591 3584 2966 3190 
Q 3341 2797 3341 1997 
z
" transform="scale(0.015625)"/>
      <path id="DejaVuSans-64" d="M 2906 2969 
L 2906 4863 
L 3481 4863 
L 3481 0 
L 2906 0 
L 2906 525 
Q 2725 213 2448 61 
Q 2172 -91 1784 -91 
Q 1150 -91 751 415 
Q 353 922 353 1747 
Q 353 2572 751 3078 
Q 1150 3584 1784 3584 
Q 2172 3584 2448 3432 
Q 2725 3281 2906 2969 
z
M 947 1747 
Q 947 1113 1208 752 
Q 1469 391 1925 391 
Q 2381 391 2643 752 
Q 2906 1113 2906 1747 
Q 2906 2381 2643 2742 
Q 2381 3103 1925 3103 
Q 1469 3103 1208 2742 
Q 947 2381 947 1747 
z
" transform="scale(0.015625)"/>
     </defs>
     <use xlink:href="#DejaVuSans-4c"/>
     <use xlink:href="#DejaVuSans-41" transform="translate(57.962891 0)"/>
     <use xlink:href="#DejaVuSans-53" transform="translate(126.371094 0)"/>
     <use xlink:href="#DejaVuSans-53" transform="translate(189.847656 0)"/>
     <use xlink:href="#DejaVuSans-4f" transform="translate(253.324219 0)"/>
     <use xlink:href="#DejaVuSans-20" transform="translate(332.035156 0)"/>
     <use xlink:href="#DejaVuSans-52" transform="translate(363.822266 0)"/>
     <use xlink:href="#DejaVuSans-65" transform="translate(428.804688 0)"/>
     <use xlink:href="#DejaVuSans-67" transform="translate(490.328125 0)"/>
     <use xlink:href="#DejaVuSans-72" transform="translate(553.804688 0)"/>
     <use xlink:href="#DejaVuSans-65" transform="translate(592.667969 0)"/>
     <use xlink:href="#DejaVuSans-73" transform="translate(654.191406 0)"/>
     <use xlink:href="#DejaVuSans-73" transform="translate(706.291016 0)"/>
     <use xlink:href="#DejaVuSans-69" transform="translate(758.390625 0)"/>
     <use xlink:href="#DejaVuSans-6f" transform="translate(786.173828 0)"/>
     <use xlink:href="#DejaVuSans-6e" transform="translate(847.355469 0)"/>
     <use xlink:href="#DejaVuSans-3a" transform="translate(910.734375 0)"/>
     <use xlink:href="#DejaVuSans-20" transform="translate(944.425781 0)"/>
     <use xlink:href="#DejaVuSans-4d" transform="translate(976.212891 0)"/>
     <use xlink:href="#DejaVuSans-53" transform="translate(1062.492188 0)"/>
     <use xlink:href="#DejaVuSans-45" transform="translate(1125.96875 0)"/>
     <use xlink:href="#DejaVuSans-20" transform="translate(1189.152344 0)"/>
     <use xlink:href="#DejaVuSans-43" transform="translate(1220.939453 0)"/>
     <use xlink:href="#DejaVuSans-6f" transform="translate(1290.763672 0)"/>
     <use xlink:href="#DejaVuSans-6e" transform="translate(1351.945312 0)"/>
     <use xlink:href="#DejaVuSans-74" transform="translate(1415.324219 0)"/>
     <use xlink:href="#DejaVuSans-6f" transform="translate(1454.533203 0)"/>
     <use xlink:href="#DejaVuSans-75" transform="translate(1515.714844 0)"/>
     <use xlink:href="#DejaVuSans-72" transform="translate(1579.09375 0)"/>
     <use xlink:href="#DejaVuSans-73" transform="translate(1620.207031 0)"/>
     <use xlink:href="#DejaVuSans-20" transform="translate(1672.306641 0)"/>
     <use xlink:href="#DejaVuSans-61" transform="translate(1704.09375 0)"/>
     <use xlink:href="#DejaVuSans-6e" transform="translate(1765.373047 0)"/>
     <use xlink:href="#DejaVuSans-64" transform="translate(1828.751953 0)"/>
     <use xlink:href="#DejaVuSans-20" transform="translate(1892.228516 0)"/>
     <use xlink:href="#DejaVuSans-4c" transform="translate(1924.015625 0)"/>
     <use xlink:href="#DejaVuSans-31" transform="translate(1979.728516 0)"/>
     <use xlink:href="#DejaVuSans-20" transform="translate(2043.351562 0)"/>
     <use xlink:href="#DejaVuSans-43" transform="translate(2075.138672 0)"/>
     <use xlink:href="#DejaVuSans-6f" transform="translate(2144.962891 0)"/>
     <use xlink:href="#DejaVuSans-6e" transform="translate(2206.144531 0)"/>
     <use xlink:href="#DejaVuSans-73" transform="translate(2269.523438 0)"/>
     <use xlink:href="#DejaVuSans-74" transform="translate(2321.623047 0)"/>
     <use xlink:href="#DejaVuSans-72" transform="translate(2360.832031 0)"/>
     <use xlink:href="#DejaVuSans-61" transform="translate(2401.945312 0)"/>
     <use xlink:href="#DejaVuSans-69" transform="translate(2463.224609 0)"/>
     <use xlink:href="#DejaVuSans-6e" transform="translate(2491.007812 0)"/>
     <use xlink:href="#DejaVuSans-74" transform="translate(2554.386719 0)"/>
    </g>
    <!-- (Solution at Corner = Variable Selection) -->
    <g transform="translate(125.54 39.024) scale(0.16 -0.16)">
     <defs>
      <path id="DejaVuSans-28" d="M 1984 4856 
Q 1566 4138 1362 3434 
Q 1159 2731 1159 2009 
Q 1159 1288 1364 580 
Q 1569 -128 1984 -844 
L 1484 -844 
Q 1016 -109 783 600 
Q 550 1309 550 2009 
Q 550 2706 781 3412 
Q 1013 4119 1484 4856 
L 1984 4856 
z
" transform="scale(0.015625)"/>
      <path id="DejaVuSans-6c" d="M 603 4863 
L 1178 4863 
L 1178 0 
L 603 0 
L 603 4863 
z
" transform="scale(0.015625)"/>
      <path id="DejaVuSans-3d" d="M 678 2906 
L 4684 2906 
L 4684 2381 
L 678 2381 
L 678 2906 
z
M 678 1631 
L 4684 1631 
L 4684 1100 
L 678 1100 
L 678 1631 
z
" transform="scale(0.015625)"/>
      <path id="DejaVuSans-56" d="M 1831 0 
L 50 4666 
L 709 4666 
L 2188 738 
L 3669 4666 
L 4325 4666 
L 2547 0 
L 1831 0 
z
" transform="scale(0.015625)"/>
      <path id="DejaVuSans-62" d="M 3116 1747 
Q 3116 2381 2855 2742 
Q 2594 3103 2138 3103 
Q 1681 3103 1420 2742 
Q 1159 2381 1159 1747 
Q 1159 1113 1420 752 
Q 1681 391 2138 391 
Q 2594 391 2855 752 
Q 3116 1113 3116 1747 
z
M 1159 2969 
Q 1341 3281 1617 3432 
Q 1894 3584 2278 3584 
Q 2916 3584 3314 3078 
Q 3713 2572 3713 1747 
Q 3713 922 3314 415 
Q 2916 -91 2278 -91 
Q 1894 -91 1617 61 
Q 1341 213 1159 525 
L 1159 0 
L 581 0 
L 581 4863 
L 1159 4863 
L 1159 2969 
z
" transform="scale(0.015625)"/>
      <path id="DejaVuSans-63" d="M 3122 3366 
L 3122 2828 
Q 2878 2963 2633 3030 
Q 2388 3097 2138 3097 
Q 1578 3097 1268 2742 
Q 959 2388 959 1747 
Q 959 1106 1268 751 
Q 1578 397 2138 397 
Q 2388 397 2633 464 
Q 2878 531 3122 666 
L 3122 134 
Q 2881 22 2623 -34 
Q 2366 -91 2075 -91 
Q 1284 -91 818 406 
Q 353 903 353 1747 
Q 353 2603 823 3093 
Q 1294 3584 2113 3584 
Q 2378 3584 2631 3529 
Q 2884 3475 3122 3366 
z
" transform="scale(0.015625)"/>
      <path id="DejaVuSans-29" d="M 513 4856 
L 1013 4856 
Q 1481 4119 1714 3412 
Q 1947 2706 1947 2009 
Q 1947 1309 1714 600 
Q 1481 -109 1013 -844 
L 513 -844 
Q 928 -128 1133 580 
Q 1338 1288 1338 2009 
Q 1338 2731 1133 3434 
Q 928 4138 513 4856 
z
" transform="scale(0.015625)"/>
     </defs>
     <use xlink:href="#DejaVuSans-28"/>
     <use xlink:href="#DejaVuSans-53" transform="translate(39.013672 0)"/>
     <use xlink:href="#DejaVuSans-6f" transform="translate(102.490234 0)"/>
     <use xlink:href="#DejaVuSans-6c" transform="translate(163.671875 0)"/>
     <use xlink:href="#DejaVuSans-75" transform="translate(191.455078 0)"/>
     <use xlink:href="#DejaVuSans-74" transform="translate(254.833984 0)"/>
     <use xlink:href="#DejaVuSans-69" transform="translate(294.042969 0)"/>
     <use xlink:href="#DejaVuSans-6f" transform="translate(321.826172 0)"/>
     <use xlink:href="#DejaVuSans-6e" transform="translate(383.007812 0)"/>
     <use xlink:href="#DejaVuSans-20" transform="translate(446.386719 0)"/>
     <use xlink:href="#DejaVuSans-61" transform="translate(478.173828 0)"/>
     <use xlink:href="#DejaVuSans-74" transform="translate(539.453125 0)"/>
     <use xlink:href="#DejaVuSans-20" transform="translate(578.662109 0)"/>
     <use xlink:href="#DejaVuSans-43" transform="translate(610.449219 0)"/>
     <use xlink:href="#DejaVuSans-6f" transform="translate(680.273438 0)"/>
     <use xlink:href="#DejaVuSans-72" transform="translate(741.455078 0)"/>
     <use xlink:href="#DejaVuSans-6e" transform="translate(780.818359 0)"/>
     <use xlink:href="#DejaVuSans-65" transform="translate(844.197266 0)"/>
     <use xlink:href="#DejaVuSans-72" transform="translate(905.720703 0)"/>
     <use xlink:href="#DejaVuSans-20" transform="translate(946.833984 0)"/>
     <use xlink:href="#DejaVuSans-3d" transform="translate(978.621094 0)"/>
     <use xlink:href="#DejaVuSans-20" transform="translate(1062.410156 0)"/>
     <use xlink:href="#DejaVuSans-56" transform="translate(1094.197266 0)"/>
     <use xlink:href="#DejaVuSans-61" transform="translate(1154.855469 0)"/>
     <use xlink:href="#DejaVuSans-72" transform="translate(1216.134766 0)"/>
     <use xlink:href="#DejaVuSans-69" transform="translate(1257.248047 0)"/>
     <use xlink:href="#DejaVuSans-61" transform="translate(1285.03125 0)"/>
     <use xlink:href="#DejaVuSans-62" transform="translate(1346.310547 0)"/>
     <use xlink:href="#DejaVuSans-6c" transform="translate(1409.787109 0)"/>
     <use xlink:href="#DejaVuSans-65" transform="translate(1437.570312 0)"/>
     <use xlink:href="#DejaVuSans-20" transform="translate(1499.09375 0)"/>
     <use xlink:href="#DejaVuSans-53" transform="translate(1530.880859 0)"/>
     <use xlink:href="#DejaVuSans-65" transform="translate(1594.357422 0)"/>
     <use xlink:href="#DejaVuSans-6c" transform="translate(1655.880859 0)"/>
     <use xlink:href="#DejaVuSans-65" transform="translate(1683.664062 0)"/>
     <use xlink:href="#DejaVuSans-63" transform="translate(1745.1875 0)"/>
     <use xlink:href="#DejaVuSans-74" transform="translate(1800.167969 0)"/>
     <use xlink:href="#DejaVuSans-69" transform="translate(1839.376953 0)"/>
     <use xlink:href="#DejaVuSans-6f" transform="translate(1867.160156 0)"/>
     <use xlink:href="#DejaVuSans-6e" transform="translate(1928.341797 0)"/>
     <use xlink:href="#DejaVuSans-29" transform="translate(1991.720703 0)"/>
    </g>
   </g>
   <g id="text_23">
    <g clip-path="url(#pbf3b75279d)">
     <!-- 0.5 -->
     <g style="fill: #0000ff; opacity: 0.6" transform="translate(321.876585 167.385844) rotate(-30.05798) scale(0.08 -0.08)">
      <use xlink:href="#DejaVuSans-30"/>
      <use xlink:href="#DejaVuSans-2e" transform="translate(63.623047 0)"/>
      <use xlink:href="#DejaVuSans-35" transform="translate(95.410156 0)"/>
     </g>
    </g>
   </g>
   <g id="text_24">
    <g clip-path="url(#pbf3b75279d)">
     <!-- 1.0 -->
     <g style="fill: #0000ff; opacity: 0.6" transform="translate(306.425294 155.721301) rotate(-31.739786) scale(0.08 -0.08)">
      <use xlink:href="#DejaVuSans-31"/>
      <use xlink:href="#DejaVuSans-2e" transform="translate(63.623047 0)"/>
      <use xlink:href="#DejaVuSans-30" transform="translate(95.410156 0)"/>
     </g>
    </g>
   </g>
   <g id="text_25">
    <g clip-path="url(#pbf3b75279d)">
     <!-- 1.5 -->
     <g style="fill: #0000ff; opacity: 0.6" transform="translate(293.231606 148.009334) rotate(-33.083873) scale(0.08 -0.08)">
      <use xlink:href="#DejaVuSans-31"/>
      <use xlink:href="#DejaVuSans-2e" transform="translate(63.623047 0)"/>
      <use xlink:href="#DejaVuSans-35" transform="translate(95.410156 0)"/>
     </g>
    </g>
   </g>
   <g id="text_26">
    <g clip-path="url(#pbf3b75279d)">
     <!-- 2.0 -->
     <g style="fill: #0000ff; opacity: 0.6" transform="translate(321.12571 112.777242) rotate(-20.955994) scale(0.08 -0.08)">
      <use xlink:href="#DejaVuSans-32"/>
      <use xlink:href="#DejaVuSans-2e" transform="translate(63.623047 0)"/>
      <use xlink:href="#DejaVuSans-30" transform="translate(95.410156 0)"/>
     </g>
    </g>
   </g>
   <g id="text_27">
    <g clip-path="url(#pbf3b75279d)">
     <!-- 2.5 -->
     <g style="fill: #0000ff; opacity: 0.6" transform="translate(293.214807 117.982524) rotate(-27.695077) scale(0.08 -0.08)">
      <use xlink:href="#DejaVuSans-32"/>
      <use xlink:href="#DejaVuSans-2e" transform="translate(63.623047 0)"/>
      <use xlink:href="#DejaVuSans-35" transform="translate(95.410156 0)"/>
     </g>
    </g>
   </g>
   <g id="text_28">
    <g clip-path="url(#pbf3b75279d)">
     <!-- 3.0 -->
     <g style="fill: #0000ff; opacity: 0.6" transform="translate(269.236555 125.194074) rotate(-33.026942) scale(0.08 -0.08)">
      <use xlink:href="#DejaVuSans-33"/>
      <use xlink:href="#DejaVuSans-2e" transform="translate(63.623047 0)"/>
      <use xlink:href="#DejaVuSans-30" transform="translate(95.410156 0)"/>
     </g>
    </g>
   </g>
   <g id="line2d_40">
    <defs>
     <path id="m6b14326fcf" d="M 0 3 
C 0.795609 3 1.55874 2.683901 2.12132 2.12132 
C 2.683901 1.55874 3 0.795609 3 0 
C 3 -0.795609 2.683901 -1.55874 2.12132 -2.12132 
C 1.55874 -2.683901 0.795609 -3 0 -3 
C -0.795609 -3 -1.55874 -2.683901 -2.12132 -2.12132 
C -2.683901 -1.55874 -3 -0.795609 -3 0 
C -3 0.795609 -2.683901 1.55874 -2.12132 2.12132 
C -1.55874 2.683901 -0.795609 3 0 3 
z
" style="stroke: #000000"/>
    </defs>
    <g clip-path="url(#pbf3b75279d)">
     <use xlink:href="#m6b14326fcf" x="203.366" y="298.926" style="stroke: #000000"/>
    </g>
   </g>
   <g id="line2d_41">
    <defs>
     <path id="mabc4ecc7c8" d="M 0 6 
C 1.591219 6 3.117479 5.367802 4.242641 4.242641 
C 5.367802 3.117479 6 1.591219 6 0 
C 6 -1.591219 5.367802 -3.117479 4.242641 -4.242641 
C 3.117479 -5.367802 1.591219 -6 0 -6 
C -1.591219 -6 -3.117479 -5.367802 -4.242641 -4.242641 
C -5.367802 -3.117479 -6 -1.591219 -6 0 
C -6 1.591219 -5.367802 3.117479 -4.242641 4.242641 
C -3.117479 5.367802 -1.591219 6 0 6 
z
" style="stroke: #0000ff"/>
    </defs>
    <g clip-path="url(#pbf3b75279d)">
     <use xlink:href="#mabc4ecc7c8" x="355.7072" y="197.3652" style="fill: #0000ff; stroke: #0000ff"/>
    </g>
   </g>
   <g id="line2d_42">
    <defs>
     <path id="m5167ced5f5" d="M 0 6 
C 1.591219 6 3.117479 5.367802 4.242641 4.242641 
C 5.367802 3.117479 6 1.591219 6 0 
C 6 -1.591219 5.367802 -3.117479 4.242641 -4.242641 
C 3.117479 -5.367802 1.591219 -6 0 -6 
C -1.591219 -6 -3.117479 -5.367802 -4.242641 -4.242641 
C -5.367802 -3.117479 -6 -1.591219 -6 0 
C -6 1.591219 -5.367802 3.117479 -4.242641 4.242641 
C -3.117479 5.367802 -1.591219 6 0 6 
z
" style="stroke: #ff0000"/>
    </defs>
    <g clip-path="url(#pbf3b75279d)">
     <use xlink:href="#m5167ced5f5" x="241.108189" y="294.351189" style="fill: #ff0000; stroke: #ff0000"/>
    </g>
   </g>
   <g id="legend_1">
    <g id="patch_8">
     <path d="M 253.768 127.279938 
L 449.568 127.279938 
Q 451.768 127.279938 451.768 125.079938 
L 451.768 52.724 
Q 451.768 50.524 449.568 50.524 
L 253.768 50.524 
Q 251.568 50.524 251.568 52.724 
L 251.568 125.079938 
Q 251.568 127.279938 253.768 127.279938 
z
" style="fill: #ffffff; opacity: 0.8; stroke: #cccccc; stroke-linejoin: miter"/>
    </g>
    <g id="line2d_43">
     <path d="M 255.968 59.432281 
L 266.968 59.432281 
L 277.968 59.432281 
" style="fill: none; stroke: #0000ff; stroke-opacity: 0.6; stroke-width: 1.5; stroke-linecap: square"/>
    </g>
    <g id="text_29">
     <!-- MSE contours -->
     <g transform="translate(286.768 63.282281) scale(0.11 -0.11)">
      <use xlink:href="#DejaVuSans-4d"/>
      <use xlink:href="#DejaVuSans-53" transform="translate(86.279297 0)"/>
      <use xlink:href="#DejaVuSans-45" transform="translate(149.755859 0)"/>
      <use xlink:href="#DejaVuSans-20" transform="translate(212.939453 0)"/>
      <use xlink:href="#DejaVuSans-63" transform="translate(244.726562 0)"/>
      <use xlink:href="#DejaVuSans-6f" transform="translate(299.707031 0)"/>
      <use xlink:href="#DejaVuSans-6e" transform="translate(360.888672 0)"/>
      <use xlink:href="#DejaVuSans-74" transform="translate(424.267578 0)"/>
      <use xlink:href="#DejaVuSans-6f" transform="translate(463.476562 0)"/>
      <use xlink:href="#DejaVuSans-75" transform="translate(524.658203 0)"/>
      <use xlink:href="#DejaVuSans-72" transform="translate(588.037109 0)"/>
      <use xlink:href="#DejaVuSans-73" transform="translate(629.150391 0)"/>
     </g>
    </g>
    <g id="patch_9">
     <path d="M 255.968 79.539938 
L 277.968 79.539938 
L 277.968 71.839938 
L 255.968 71.839938 
L 255.968 79.539938 
z
" style="fill: none; stroke-dasharray: 9.25,4; stroke-dashoffset: 0; stroke: #ff0000; stroke-width: 2.5; stroke-linejoin: miter"/>
    </g>
    <g id="text_30">
     <!-- LASSO constraint: $||\beta||_1 \leq 0.5$ -->
     <g transform="translate(286.768 79.539938) scale(0.11 -0.11)">
      <defs>
       <path id="DejaVuSans-7c" d="M 1344 4891 
L 1344 -1509 
L 813 -1509 
L 813 4891 
L 1344 4891 
z
" transform="scale(0.015625)"/>
       <path id="DejaVuSans-2264" d="M 4684 3175 
L 1684 2309 
L 4684 1453 
L 4684 897 
L 678 2047 
L 678 2578 
L 4684 3725 
L 4684 3175 
z
M 678 531 
L 4684 531 
L 4684 0 
L 678 0 
L 678 531 
z
" transform="scale(0.015625)"/>
      </defs>
      <use xlink:href="#DejaVuSans-4c" transform="translate(0 0.390625)"/>
      <use xlink:href="#DejaVuSans-41" transform="translate(55.712891 0.390625)"/>
      <use xlink:href="#DejaVuSans-53" transform="translate(124.121094 0.390625)"/>
      <use xlink:href="#DejaVuSans-53" transform="translate(187.597656 0.390625)"/>
      <use xlink:href="#DejaVuSans-4f" transform="translate(251.074219 0.390625)"/>
      <use xlink:href="#DejaVuSans-20" transform="translate(329.785156 0.390625)"/>
      <use xlink:href="#DejaVuSans-63" transform="translate(361.572266 0.390625)"/>
      <use xlink:href="#DejaVuSans-6f" transform="translate(416.552734 0.390625)"/>
      <use xlink:href="#DejaVuSans-6e" transform="translate(477.734375 0.390625)"/>
      <use xlink:href="#DejaVuSans-73" transform="translate(541.113281 0.390625)"/>
      <use xlink:href="#DejaVuSans-74" transform="translate(593.212891 0.390625)"/>
      <use xlink:href="#DejaVuSans-72" transform="translate(632.421875 0.390625)"/>
      <use xlink:href="#DejaVuSans-61" transform="translate(673.535156 0.390625)"/>
      <use xlink:href="#DejaVuSans-69" transform="translate(734.814453 0.390625)"/>
      <use xlink:href="#DejaVuSans-6e" transform="translate(762.597656 0.390625)"/>
      <use xlink:href="#DejaVuSans-74" transform="translate(825.976562 0.390625)"/>
      <use xlink:href="#DejaVuSans-3a" transform="translate(865.185547 0.390625)"/>
      <use xlink:href="#DejaVuSans-20" transform="translate(898.876953 0.390625)"/>
      <use xlink:href="#DejaVuSans-7c" transform="translate(930.664062 0.390625)"/>
      <use xlink:href="#DejaVuSans-7c" transform="translate(964.355469 0.390625)"/>
      <use xlink:href="#DejaVuSans-Oblique-3b2" transform="translate(998.046875 0.390625)"/>
      <use xlink:href="#DejaVuSans-7c" transform="translate(1061.865234 0.390625)"/>
      <use xlink:href="#DejaVuSans-7c" transform="translate(1095.556641 0.390625)"/>
      <use xlink:href="#DejaVuSans-31" transform="translate(1130.205078 -16.015625) scale(0.7)"/>
      <use xlink:href="#DejaVuSans-2264" transform="translate(1196.958008 0.390625)"/>
      <use xlink:href="#DejaVuSans-30" transform="translate(1300.229492 0.390625)"/>
      <use xlink:href="#DejaVuSans-2e" transform="translate(1363.852539 0.390625)"/>
      <use xlink:href="#DejaVuSans-35" transform="translate(1395.639648 0.390625)"/>
     </g>
    </g>
    <g id="line2d_44">
     <g>
      <use xlink:href="#mabc4ecc7c8" x="266.968" y="96.369938" style="fill: #0000ff; stroke: #0000ff"/>
     </g>
    </g>
    <g id="text_31">
     <!-- $\hat \beta_\mathrm{OLS}$ -->
     <g transform="translate(286.768 100.219938) scale(0.11 -0.11)">
      <defs>
       <path id="DejaVuSans-302" d="M -1831 5119 
L -1369 5119 
L -603 3944 
L -1038 3944 
L -1600 4709 
L -2163 3944 
L -2597 3944 
L -1831 5119 
z
M -1600 3584 
L -1600 3584 
z
" transform="scale(0.015625)"/>
      </defs>
      <use xlink:href="#DejaVuSans-302" transform="translate(62.785156 34.015625)"/>
      <use xlink:href="#DejaVuSans-Oblique-3b2" transform="translate(0 0.90625)"/>
      <use xlink:href="#DejaVuSans-4f" transform="translate(64.775391 -15.5) scale(0.7)"/>
      <use xlink:href="#DejaVuSans-4c" transform="translate(119.873047 -15.5) scale(0.7)"/>
      <use xlink:href="#DejaVuSans-53" transform="translate(158.87207 -15.5) scale(0.7)"/>
     </g>
    </g>
    <g id="line2d_45">
     <g>
      <use xlink:href="#m5167ced5f5" x="266.968" y="116.719938" style="fill: #ff0000; stroke: #ff0000"/>
     </g>
    </g>
    <g id="text_32">
     <!-- $\hat \beta_\mathrm{LASSO}$ -->
     <g transform="translate(286.768 120.569938) scale(0.11 -0.11)">
      <use xlink:href="#DejaVuSans-302" transform="translate(62.785156 34.015625)"/>
      <use xlink:href="#DejaVuSans-Oblique-3b2" transform="translate(0 0.90625)"/>
      <use xlink:href="#DejaVuSans-4c" transform="translate(64.775391 -15.5) scale(0.7)"/>
      <use xlink:href="#DejaVuSans-41" transform="translate(103.774414 -15.5) scale(0.7)"/>
      <use xlink:href="#DejaVuSans-53" transform="translate(151.660156 -15.5) scale(0.7)"/>
      <use xlink:href="#DejaVuSans-53" transform="translate(196.09375 -15.5) scale(0.7)"/>
      <use xlink:href="#DejaVuSans-4f" transform="translate(240.527344 -15.5) scale(0.7)"/>
     </g>
    </g>
   </g>
  </g>
 </g>
 <defs>
  <clipPath id="pbf3b75279d">
   <rect x="118.732" y="45.024" width="338.536" height="338.536"/>
  </clipPath>
 </defs>
</svg>
