<?xml version="1.0" encoding="utf-8" standalone="no"?>
<!DOCTYPE svg PUBLIC "-//W3C//DTD SVG 1.1//EN"
  "http://www.w3.org/Graphics/SVG/1.1/DTD/svg11.dtd">
<svg xmlns:xlink="http://www.w3.org/1999/xlink" width="576pt" height="432pt" viewBox="0 0 576 432" xmlns="http://www.w3.org/2000/svg" version="1.1">
 <metadata>
  <rdf:RDF xmlns:dc="http://purl.org/dc/elements/1.1/" xmlns:cc="http://creativecommons.org/ns#" xmlns:rdf="http://www.w3.org/1999/02/22-rdf-syntax-ns#">
   <cc:Work>
    <dc:type rdf:resource="http://purl.org/dc/dcmitype/StillImage"/>
    <dc:date>2025-09-25T13:16:10.793392</dc:date>
    <dc:format>image/svg+xml</dc:format>
    <dc:creator>
     <cc:Agent>
      <dc:title>Matplotlib v3.8.4, https://matplotlib.org/</dc:title>
     </cc:Agent>
    </dc:creator>
   </cc:Work>
  </rdf:RDF>
 </metadata>
 <defs>
  <style type="text/css">*{stroke-linejoin: round; stroke-linecap: butt}</style>
 </defs>
 <g id="figure_1">
  <g id="patch_1">
   <path d="M 0 432 
L 576 432 
L 576 0 
L 0 0 
z
" style="fill: #ffffff"/>
  </g>
  <g id="axes_1">
   <g id="patch_2">
    <path d="M 120.676 383.56 
L 455.324 383.56 
L 455.324 48.912 
L 120.676 48.912 
z
" style="fill: #ffffff"/>
   </g>
   <g id="patch_3">
    <path d="M 321.4648 299.898 
L 204.338 182.7712 
L 87.2112 299.898 
L 204.338 417.0248 
L 321.4648 299.898 
z
" clip-path="url(#p7bed817b34)" style="fill: none; stroke-dasharray: 9.25,4; stroke-dashoffset: 0; stroke: #ff0000; stroke-width: 2.5; stroke-linejoin: miter"/>
   </g>
   <g id="line2d_1">
    <path d="M 120.676 299.898 
L 455.324 299.898 
" clip-path="url(#p7bed817b34)" style="fill: none; stroke: #000000; stroke-opacity: 0.7; stroke-linecap: square"/>
   </g>
   <g id="line2d_2">
    <path d="M 204.338 383.56 
L 204.338 48.912 
" clip-path="url(#p7bed817b34)" style="fill: none; stroke: #000000; stroke-opacity: 0.7; stroke-linecap: square"/>
   </g>
   <g id="matplotlib.axis_1">
    <g id="xtick_1">
     <g id="line2d_3">
      <path d="M 120.676 383.56 
L 120.676 48.912 
" clip-path="url(#p7bed817b34)" style="fill: none; stroke: #b0b0b0; stroke-opacity: 0.3; stroke-width: 0.8; stroke-linecap: square"/>
     </g>
     <g id="line2d_4">
      <defs>
       <path id="m8a43613b31" d="M 0 0 
L 0 3.5 
" style="stroke: #000000; stroke-width: 0.8"/>
      </defs>
      <g>
       <use xlink:href="#m8a43613b31" x="120.676" y="383.56" style="stroke: #000000; stroke-width: 0.8"/>
      </g>
     </g>
     <g id="text_1">
      <!-- −1.0 -->
      <g transform="translate(108.534594 398.158437) scale(0.1 -0.1)">
       <defs>
        <path id="DejaVuSans-2212" d="M 678 2272 
L 4684 2272 
L 4684 1741 
L 678 1741 
L 678 2272 
z
" transform="scale(0.015625)"/>
        <path id="DejaVuSans-31" d="M 794 531 
L 1825 531 
L 1825 4091 
L 703 3866 
L 703 4441 
L 1819 4666 
L 2450 4666 
L 2450 531 
L 3481 531 
L 3481 0 
L 794 0 
L 794 531 
z
" transform="scale(0.015625)"/>
        <path id="DejaVuSans-2e" d="M 684 794 
L 1344 794 
L 1344 0 
L 684 0 
L 684 794 
z
" transform="scale(0.015625)"/>
        <path id="DejaVuSans-30" d="M 2034 4250 
Q 1547 4250 1301 3770 
Q 1056 3291 1056 2328 
Q 1056 1369 1301 889 
Q 1547 409 2034 409 
Q 2525 409 2770 889 
Q 3016 1369 3016 2328 
Q 3016 3291 2770 3770 
Q 2525 4250 2034 4250 
z
M 2034 4750 
Q 2819 4750 3233 4129 
Q 3647 3509 3647 2328 
Q 3647 1150 3233 529 
Q 2819 -91 2034 -91 
Q 1250 -91 836 529 
Q 422 1150 422 2328 
Q 422 3509 836 4129 
Q 1250 4750 2034 4750 
z
" transform="scale(0.015625)"/>
       </defs>
       <use xlink:href="#DejaVuSans-2212"/>
       <use xlink:href="#DejaVuSans-31" x="83.789062"/>
       <use xlink:href="#DejaVuSans-2e" x="147.412109"/>
       <use xlink:href="#DejaVuSans-30" x="179.199219"/>
      </g>
     </g>
    </g>
    <g id="xtick_2">
     <g id="line2d_5">
      <path d="M 162.507 383.56 
L 162.507 48.912 
" clip-path="url(#p7bed817b34)" style="fill: none; stroke: #b0b0b0; stroke-opacity: 0.3; stroke-width: 0.8; stroke-linecap: square"/>
     </g>
     <g id="line2d_6">
      <g>
       <use xlink:href="#m8a43613b31" x="162.507" y="383.56" style="stroke: #000000; stroke-width: 0.8"/>
      </g>
     </g>
     <g id="text_2">
      <!-- −0.5 -->
      <g transform="translate(150.365594 398.158437) scale(0.1 -0.1)">
       <defs>
        <path id="DejaVuSans-35" d="M 691 4666 
L 3169 4666 
L 3169 4134 
L 1269 4134 
L 1269 2991 
Q 1406 3038 1543 3061 
Q 1681 3084 1819 3084 
Q 2600 3084 3056 2656 
Q 3513 2228 3513 1497 
Q 3513 744 3044 326 
Q 2575 -91 1722 -91 
Q 1428 -91 1123 -41 
Q 819 9 494 109 
L 494 744 
Q 775 591 1075 516 
Q 1375 441 1709 441 
Q 2250 441 2565 725 
Q 2881 1009 2881 1497 
Q 2881 1984 2565 2268 
Q 2250 2553 1709 2553 
Q 1456 2553 1204 2497 
Q 953 2441 691 2322 
L 691 4666 
z
" transform="scale(0.015625)"/>
       </defs>
       <use xlink:href="#DejaVuSans-2212"/>
       <use xlink:href="#DejaVuSans-30" x="83.789062"/>
       <use xlink:href="#DejaVuSans-2e" x="147.412109"/>
       <use xlink:href="#DejaVuSans-35" x="179.199219"/>
      </g>
     </g>
    </g>
    <g id="xtick_3">
     <g id="line2d_7">
      <path d="M 204.338 383.56 
L 204.338 48.912 
" clip-path="url(#p7bed817b34)" style="fill: none; stroke: #b0b0b0; stroke-opacity: 0.3; stroke-width: 0.8; stroke-linecap: square"/>
     </g>
     <g id="line2d_8">
      <g>
       <use xlink:href="#m8a43613b31" x="204.338" y="383.56" style="stroke: #000000; stroke-width: 0.8"/>
      </g>
     </g>
     <g id="text_3">
      <!-- 0.0 -->
      <g transform="translate(196.386437 398.158437) scale(0.1 -0.1)">
       <use xlink:href="#DejaVuSans-30"/>
       <use xlink:href="#DejaVuSans-2e" x="63.623047"/>
       <use xlink:href="#DejaVuSans-30" x="95.410156"/>
      </g>
     </g>
    </g>
    <g id="xtick_4">
     <g id="line2d_9">
      <path d="M 246.169 383.56 
L 246.169 48.912 
" clip-path="url(#p7bed817b34)" style="fill: none; stroke: #b0b0b0; stroke-opacity: 0.3; stroke-width: 0.8; stroke-linecap: square"/>
     </g>
     <g id="line2d_10">
      <g>
       <use xlink:href="#m8a43613b31" x="246.169" y="383.56" style="stroke: #000000; stroke-width: 0.8"/>
      </g>
     </g>
     <g id="text_4">
      <!-- 0.5 -->
      <g transform="translate(238.217437 398.158437) scale(0.1 -0.1)">
       <use xlink:href="#DejaVuSans-30"/>
       <use xlink:href="#DejaVuSans-2e" x="63.623047"/>
       <use xlink:href="#DejaVuSans-35" x="95.410156"/>
      </g>
     </g>
    </g>
    <g id="xtick_5">
     <g id="line2d_11">
      <path d="M 288 383.56 
L 288 48.912 
" clip-path="url(#p7bed817b34)" style="fill: none; stroke: #b0b0b0; stroke-opacity: 0.3; stroke-width: 0.8; stroke-linecap: square"/>
     </g>
     <g id="line2d_12">
      <g>
       <use xlink:href="#m8a43613b31" x="288" y="383.56" style="stroke: #000000; stroke-width: 0.8"/>
      </g>
     </g>
     <g id="text_5">
      <!-- 1.0 -->
      <g transform="translate(280.048437 398.158437) scale(0.1 -0.1)">
       <use xlink:href="#DejaVuSans-31"/>
       <use xlink:href="#DejaVuSans-2e" x="63.623047"/>
       <use xlink:href="#DejaVuSans-30" x="95.410156"/>
      </g>
     </g>
    </g>
    <g id="xtick_6">
     <g id="line2d_13">
      <path d="M 329.831 383.56 
L 329.831 48.912 
" clip-path="url(#p7bed817b34)" style="fill: none; stroke: #b0b0b0; stroke-opacity: 0.3; stroke-width: 0.8; stroke-linecap: square"/>
     </g>
     <g id="line2d_14">
      <g>
       <use xlink:href="#m8a43613b31" x="329.831" y="383.56" style="stroke: #000000; stroke-width: 0.8"/>
      </g>
     </g>
     <g id="text_6">
      <!-- 1.5 -->
      <g transform="translate(321.879437 398.158437) scale(0.1 -0.1)">
       <use xlink:href="#DejaVuSans-31"/>
       <use xlink:href="#DejaVuSans-2e" x="63.623047"/>
       <use xlink:href="#DejaVuSans-35" x="95.410156"/>
      </g>
     </g>
    </g>
    <g id="xtick_7">
     <g id="line2d_15">
      <path d="M 371.662 383.56 
L 371.662 48.912 
" clip-path="url(#p7bed817b34)" style="fill: none; stroke: #b0b0b0; stroke-opacity: 0.3; stroke-width: 0.8; stroke-linecap: square"/>
     </g>
     <g id="line2d_16">
      <g>
       <use xlink:href="#m8a43613b31" x="371.662" y="383.56" style="stroke: #000000; stroke-width: 0.8"/>
      </g>
     </g>
     <g id="text_7">
      <!-- 2.0 -->
      <g transform="translate(363.710437 398.158437) scale(0.1 -0.1)">
       <defs>
        <path id="DejaVuSans-32" d="M 1228 531 
L 3431 531 
L 3431 0 
L 469 0 
L 469 531 
Q 828 903 1448 1529 
Q 2069 2156 2228 2338 
Q 2531 2678 2651 2914 
Q 2772 3150 2772 3378 
Q 2772 3750 2511 3984 
Q 2250 4219 1831 4219 
Q 1534 4219 1204 4116 
Q 875 4013 500 3803 
L 500 4441 
Q 881 4594 1212 4672 
Q 1544 4750 1819 4750 
Q 2544 4750 2975 4387 
Q 3406 4025 3406 3419 
Q 3406 3131 3298 2873 
Q 3191 2616 2906 2266 
Q 2828 2175 2409 1742 
Q 1991 1309 1228 531 
z
" transform="scale(0.015625)"/>
       </defs>
       <use xlink:href="#DejaVuSans-32"/>
       <use xlink:href="#DejaVuSans-2e" x="63.623047"/>
       <use xlink:href="#DejaVuSans-30" x="95.410156"/>
      </g>
     </g>
    </g>
    <g id="xtick_8">
     <g id="line2d_17">
      <path d="M 413.493 383.56 
L 413.493 48.912 
" clip-path="url(#p7bed817b34)" style="fill: none; stroke: #b0b0b0; stroke-opacity: 0.3; stroke-width: 0.8; stroke-linecap: square"/>
     </g>
     <g id="line2d_18">
      <g>
       <use xlink:href="#m8a43613b31" x="413.493" y="383.56" style="stroke: #000000; stroke-width: 0.8"/>
      </g>
     </g>
     <g id="text_8">
      <!-- 2.5 -->
      <g transform="translate(405.541437 398.158437) scale(0.1 -0.1)">
       <use xlink:href="#DejaVuSans-32"/>
       <use xlink:href="#DejaVuSans-2e" x="63.623047"/>
       <use xlink:href="#DejaVuSans-35" x="95.410156"/>
      </g>
     </g>
    </g>
    <g id="xtick_9">
     <g id="line2d_19">
      <path d="M 455.324 383.56 
L 455.324 48.912 
" clip-path="url(#p7bed817b34)" style="fill: none; stroke: #b0b0b0; stroke-opacity: 0.3; stroke-width: 0.8; stroke-linecap: square"/>
     </g>
     <g id="line2d_20">
      <g>
       <use xlink:href="#m8a43613b31" x="455.324" y="383.56" style="stroke: #000000; stroke-width: 0.8"/>
      </g>
     </g>
     <g id="text_9">
      <!-- 3.0 -->
      <g transform="translate(447.372437 398.158437) scale(0.1 -0.1)">
       <defs>
        <path id="DejaVuSans-33" d="M 2597 2516 
Q 3050 2419 3304 2112 
Q 3559 1806 3559 1356 
Q 3559 666 3084 287 
Q 2609 -91 1734 -91 
Q 1441 -91 1130 -33 
Q 819 25 488 141 
L 488 750 
Q 750 597 1062 519 
Q 1375 441 1716 441 
Q 2309 441 2620 675 
Q 2931 909 2931 1356 
Q 2931 1769 2642 2001 
Q 2353 2234 1838 2234 
L 1294 2234 
L 1294 2753 
L 1863 2753 
Q 2328 2753 2575 2939 
Q 2822 3125 2822 3475 
Q 2822 3834 2567 4026 
Q 2313 4219 1838 4219 
Q 1578 4219 1281 4162 
Q 984 4106 628 3988 
L 628 4550 
Q 988 4650 1302 4700 
Q 1616 4750 1894 4750 
Q 2613 4750 3031 4423 
Q 3450 4097 3450 3541 
Q 3450 3153 3228 2886 
Q 3006 2619 2597 2516 
z
" transform="scale(0.015625)"/>
       </defs>
       <use xlink:href="#DejaVuSans-33"/>
       <use xlink:href="#DejaVuSans-2e" x="63.623047"/>
       <use xlink:href="#DejaVuSans-30" x="95.410156"/>
      </g>
     </g>
    </g>
    <g id="text_10">
     <!-- $\beta_1$ -->
     <g transform="translate(280.16 415.018125) scale(0.14 -0.14)">
      <defs>
       <path id="DejaVuSans-Oblique-3b2" d="M 872 216 
L 572 -1331 
L -6 -1331 
L 928 3478 
Q 1206 4903 2538 4903 
Q 3888 4903 3659 3700 
Q 3503 2844 2894 2531 
Q 3713 2250 3553 1416 
Q 3272 -69 1759 -66 
Q 1097 -63 872 216 
z
M 1019 966 
Q 1259 422 1875 425 
Q 2775 425 2966 1406 
Q 3138 2288 1675 2219 
L 1778 2750 
Q 2909 2731 3106 3750 
Q 3241 4438 2509 4434 
Q 1691 4434 1503 3459 
L 1019 966 
z
" transform="scale(0.015625)"/>
      </defs>
      <use xlink:href="#DejaVuSans-Oblique-3b2" transform="translate(0 0.390625)"/>
      <use xlink:href="#DejaVuSans-31" transform="translate(63.818359 -16.015625) scale(0.7)"/>
     </g>
    </g>
   </g>
   <g id="matplotlib.axis_2">
    <g id="ytick_1">
     <g id="line2d_21">
      <path d="M 120.676 383.56 
L 455.324 383.56 
" clip-path="url(#p7bed817b34)" style="fill: none; stroke: #b0b0b0; stroke-opacity: 0.3; stroke-width: 0.8; stroke-linecap: square"/>
     </g>
     <g id="line2d_22">
      <defs>
       <path id="mb5017acd50" d="M 0 0 
L -3.5 0 
" style="stroke: #000000; stroke-width: 0.8"/>
      </defs>
      <g>
       <use xlink:href="#mb5017acd50" x="120.676" y="383.56" style="stroke: #000000; stroke-width: 0.8"/>
      </g>
     </g>
     <g id="text_11">
      <!-- −1.0 -->
      <g transform="translate(89.393187 387.359219) scale(0.1 -0.1)">
       <use xlink:href="#DejaVuSans-2212"/>
       <use xlink:href="#DejaVuSans-31" x="83.789062"/>
       <use xlink:href="#DejaVuSans-2e" x="147.412109"/>
       <use xlink:href="#DejaVuSans-30" x="179.199219"/>
      </g>
     </g>
    </g>
    <g id="ytick_2">
     <g id="line2d_23">
      <path d="M 120.676 341.729 
L 455.324 341.729 
" clip-path="url(#p7bed817b34)" style="fill: none; stroke: #b0b0b0; stroke-opacity: 0.3; stroke-width: 0.8; stroke-linecap: square"/>
     </g>
     <g id="line2d_24">
      <g>
       <use xlink:href="#mb5017acd50" x="120.676" y="341.729" style="stroke: #000000; stroke-width: 0.8"/>
      </g>
     </g>
     <g id="text_12">
      <!-- −0.5 -->
      <g transform="translate(89.393187 345.528219) scale(0.1 -0.1)">
       <use xlink:href="#DejaVuSans-2212"/>
       <use xlink:href="#DejaVuSans-30" x="83.789062"/>
       <use xlink:href="#DejaVuSans-2e" x="147.412109"/>
       <use xlink:href="#DejaVuSans-35" x="179.199219"/>
      </g>
     </g>
    </g>
    <g id="ytick_3">
     <g id="line2d_25">
      <path d="M 120.676 299.898 
L 455.324 299.898 
" clip-path="url(#p7bed817b34)" style="fill: none; stroke: #b0b0b0; stroke-opacity: 0.3; stroke-width: 0.8; stroke-linecap: square"/>
     </g>
     <g id="line2d_26">
      <g>
       <use xlink:href="#mb5017acd50" x="120.676" y="299.898" style="stroke: #000000; stroke-width: 0.8"/>
      </g>
     </g>
     <g id="text_13">
      <!-- 0.0 -->
      <g transform="translate(97.772875 303.697219) scale(0.1 -0.1)">
       <use xlink:href="#DejaVuSans-30"/>
       <use xlink:href="#DejaVuSans-2e" x="63.623047"/>
       <use xlink:href="#DejaVuSans-30" x="95.410156"/>
      </g>
     </g>
    </g>
    <g id="ytick_4">
     <g id="line2d_27">
      <path d="M 120.676 258.067 
L 455.324 258.067 
" clip-path="url(#p7bed817b34)" style="fill: none; stroke: #b0b0b0; stroke-opacity: 0.3; stroke-width: 0.8; stroke-linecap: square"/>
     </g>
     <g id="line2d_28">
      <g>
       <use xlink:href="#mb5017acd50" x="120.676" y="258.067" style="stroke: #000000; stroke-width: 0.8"/>
      </g>
     </g>
     <g id="text_14">
      <!-- 0.5 -->
      <g transform="translate(97.772875 261.866219) scale(0.1 -0.1)">
       <use xlink:href="#DejaVuSans-30"/>
       <use xlink:href="#DejaVuSans-2e" x="63.623047"/>
       <use xlink:href="#DejaVuSans-35" x="95.410156"/>
      </g>
     </g>
    </g>
    <g id="ytick_5">
     <g id="line2d_29">
      <path d="M 120.676 216.236 
L 455.324 216.236 
" clip-path="url(#p7bed817b34)" style="fill: none; stroke: #b0b0b0; stroke-opacity: 0.3; stroke-width: 0.8; stroke-linecap: square"/>
     </g>
     <g id="line2d_30">
      <g>
       <use xlink:href="#mb5017acd50" x="120.676" y="216.236" style="stroke: #000000; stroke-width: 0.8"/>
      </g>
     </g>
     <g id="text_15">
      <!-- 1.0 -->
      <g transform="translate(97.772875 220.035219) scale(0.1 -0.1)">
       <use xlink:href="#DejaVuSans-31"/>
       <use xlink:href="#DejaVuSans-2e" x="63.623047"/>
       <use xlink:href="#DejaVuSans-30" x="95.410156"/>
      </g>
     </g>
    </g>
    <g id="ytick_6">
     <g id="line2d_31">
      <path d="M 120.676 174.405 
L 455.324 174.405 
" clip-path="url(#p7bed817b34)" style="fill: none; stroke: #b0b0b0; stroke-opacity: 0.3; stroke-width: 0.8; stroke-linecap: square"/>
     </g>
     <g id="line2d_32">
      <g>
       <use xlink:href="#mb5017acd50" x="120.676" y="174.405" style="stroke: #000000; stroke-width: 0.8"/>
      </g>
     </g>
     <g id="text_16">
      <!-- 1.5 -->
      <g transform="translate(97.772875 178.204219) scale(0.1 -0.1)">
       <use xlink:href="#DejaVuSans-31"/>
       <use xlink:href="#DejaVuSans-2e" x="63.623047"/>
       <use xlink:href="#DejaVuSans-35" x="95.410156"/>
      </g>
     </g>
    </g>
    <g id="ytick_7">
     <g id="line2d_33">
      <path d="M 120.676 132.574 
L 455.324 132.574 
" clip-path="url(#p7bed817b34)" style="fill: none; stroke: #b0b0b0; stroke-opacity: 0.3; stroke-width: 0.8; stroke-linecap: square"/>
     </g>
     <g id="line2d_34">
      <g>
       <use xlink:href="#mb5017acd50" x="120.676" y="132.574" style="stroke: #000000; stroke-width: 0.8"/>
      </g>
     </g>
     <g id="text_17">
      <!-- 2.0 -->
      <g transform="translate(97.772875 136.373219) scale(0.1 -0.1)">
       <use xlink:href="#DejaVuSans-32"/>
       <use xlink:href="#DejaVuSans-2e" x="63.623047"/>
       <use xlink:href="#DejaVuSans-30" x="95.410156"/>
      </g>
     </g>
    </g>
    <g id="ytick_8">
     <g id="line2d_35">
      <path d="M 120.676 90.743 
L 455.324 90.743 
" clip-path="url(#p7bed817b34)" style="fill: none; stroke: #b0b0b0; stroke-opacity: 0.3; stroke-width: 0.8; stroke-linecap: square"/>
     </g>
     <g id="line2d_36">
      <g>
       <use xlink:href="#mb5017acd50" x="120.676" y="90.743" style="stroke: #000000; stroke-width: 0.8"/>
      </g>
     </g>
     <g id="text_18">
      <!-- 2.5 -->
      <g transform="translate(97.772875 94.542219) scale(0.1 -0.1)">
       <use xlink:href="#DejaVuSans-32"/>
       <use xlink:href="#DejaVuSans-2e" x="63.623047"/>
       <use xlink:href="#DejaVuSans-35" x="95.410156"/>
      </g>
     </g>
    </g>
    <g id="ytick_9">
     <g id="line2d_37">
      <path d="M 120.676 48.912 
L 455.324 48.912 
" clip-path="url(#p7bed817b34)" style="fill: none; stroke: #b0b0b0; stroke-opacity: 0.3; stroke-width: 0.8; stroke-linecap: square"/>
     </g>
     <g id="line2d_38">
      <g>
       <use xlink:href="#mb5017acd50" x="120.676" y="48.912" style="stroke: #000000; stroke-width: 0.8"/>
      </g>
     </g>
     <g id="text_19">
      <!-- 3.0 -->
      <g transform="translate(97.772875 52.711219) scale(0.1 -0.1)">
       <use xlink:href="#DejaVuSans-33"/>
       <use xlink:href="#DejaVuSans-2e" x="63.623047"/>
       <use xlink:href="#DejaVuSans-30" x="95.410156"/>
      </g>
     </g>
    </g>
    <g id="text_20">
     <!-- $\beta_2$ -->
     <g transform="translate(82.453187 224.076) rotate(-90) scale(0.14 -0.14)">
      <use xlink:href="#DejaVuSans-Oblique-3b2" transform="translate(0 0.390625)"/>
      <use xlink:href="#DejaVuSans-32" transform="translate(63.818359 -16.015625) scale(0.7)"/>
     </g>
    </g>
   </g>
   <g id="QuadContourSet_1">
    <path d="M 332.458171 160.138338 
L 335.55954 158.219136 
L 339.290271 156.12688 
L 342.653568 154.42957 
L 346.016864 152.902889 
L 351.061809 150.929533 
L 354.425106 149.809397 
L 359.47005 148.445456 
L 362.833347 147.737097 
L 366.196643 147.195663 
L 369.55994 146.820597 
L 372.923236 146.622658 
L 376.286533 146.61355 
L 379.649829 146.806031 
L 383.013126 147.214037 
L 386.376422 147.852816 
L 389.739719 148.764672 
L 393.103015 149.974081 
L 396.466312 151.55024 
L 399.829608 153.585608 
L 401.578873 154.855839 
L 403.560611 156.537487 
L 405.262733 158.219136 
L 406.736803 159.900784 
L 408.237849 161.908725 
L 410.08868 164.945729 
L 411.642567 168.309025 
L 412.758802 171.672322 
L 413.516143 175.035618 
L 413.94331 178.398915 
L 414.080852 181.762211 
L 413.949136 185.125508 
L 413.566664 188.488804 
L 412.94005 191.852101 
L 412.080243 195.215397 
L 410.993143 198.578693 
L 409.684012 201.94199 
L 408.147724 205.305286 
L 406.378997 208.668583 
L 404.37238 212.031879 
L 402.122255 215.395176 
L 399.616039 218.758472 
L 396.466312 222.528942 
L 393.103015 226.123578 
L 389.739719 229.3573 
L 386.376422 232.289414 
L 382.167909 235.574955 
L 377.968181 238.498067 
L 374.589079 240.619899 
L 369.55994 243.406857 
L 366.196643 245.051754 
L 362.833347 246.525821 
L 359.47005 247.835947 
L 355.974361 249.028141 
L 351.061809 250.400405 
L 347.698513 251.141078 
L 344.335216 251.716512 
L 340.97192 252.127127 
L 336.586612 252.391437 
L 333.604329 252.391437 
L 330.88203 252.258775 
L 327.518734 251.893708 
L 324.155437 251.300073 
L 320.792141 250.450906 
L 317.428844 249.301198 
L 315.747196 248.597149 
L 312.383899 246.89402 
L 310.386827 245.664844 
L 308.076406 243.983196 
L 305.657307 241.862596 
L 303.975658 240.103505 
L 302.29401 238.031928 
L 300.612362 235.546107 
L 298.857607 232.211658 
L 297.554712 228.848362 
L 296.643451 225.485065 
L 296.070969 222.121769 
L 295.802259 218.758472 
L 295.815455 215.395176 
L 296.090738 212.031879 
L 296.610107 208.668583 
L 297.360496 205.305286 
L 298.349084 201.94199 
L 299.559821 198.578693 
L 300.994393 195.215397 
L 302.657962 191.852101 
L 304.555855 188.488804 
L 306.693562 185.125508 
L 309.078571 181.762211 
L 312.383899 177.642674 
L 314.697336 175.035618 
L 317.973994 171.672322 
L 319.513345 170.209534 
L 319.513345 170.209534 
" clip-path="url(#p7bed817b34)" style="fill: none; stroke: #0000ff; stroke-opacity: 0.6; stroke-width: 1.5"/>
    <path d="M 316.890946 148.132217 
L 319.247998 146.447598 
L 324.314543 143.084302 
L 329.952439 139.721005 
L 334.245327 137.407379 
L 339.290271 134.945954 
L 344.335216 132.757023 
L 349.380161 130.832933 
L 354.425106 129.165392 
L 359.47005 127.752581 
L 364.514995 126.600551 
L 369.55994 125.710431 
L 374.604884 125.087661 
L 379.649829 124.742057 
L 384.694774 124.692937 
L 389.739719 124.961456 
L 393.103015 125.328307 
L 396.466312 125.854042 
L 399.829608 126.554552 
L 403.192905 127.447735 
L 406.556201 128.549339 
L 409.919497 129.882209 
L 413.282794 131.483797 
L 416.64609 133.400104 
L 420.009387 135.688265 
L 422.926421 138.039357 
L 425.054332 140.02537 
L 427.855392 143.084302 
L 430.099276 146.014967 
L 431.780925 148.598498 
L 433.462573 151.645204 
L 435.144221 155.427308 
L 436.140997 158.219136 
L 437.092882 161.582432 
L 437.791212 164.945729 
L 438.265704 168.309025 
L 438.527606 171.672322 
L 438.587404 175.035618 
L 438.459349 178.398915 
L 438.147931 181.762211 
L 437.663857 185.125508 
L 436.825869 189.316945 
L 436.197221 191.852101 
L 435.144221 195.45824 
L 433.457379 200.260342 
L 431.328828 205.305286 
L 428.841949 210.350231 
L 426.73598 214.129723 
L 423.866871 218.758472 
L 421.575604 222.121769 
L 418.327739 226.474587 
L 414.964442 230.589567 
L 411.601146 234.354619 
L 408.237849 237.836344 
L 404.874553 241.069884 
L 401.511256 244.084803 
L 396.466312 248.229656 
L 393.103015 250.779506 
L 388.05807 254.295103 
L 383.013126 257.482482 
L 377.968181 260.357246 
L 372.923236 262.946494 
L 367.878291 265.259773 
L 362.833347 267.309781 
L 357.788402 269.098423 
L 352.743457 270.627587 
L 347.698513 271.89914 
L 342.653568 272.914933 
L 337.608623 273.6627 
L 332.563678 274.141152 
L 327.518734 274.329703 
L 322.473789 274.213883 
L 319.110492 273.953133 
L 315.747196 273.53832 
L 312.383899 272.961817 
L 309.020603 272.205251 
L 304.538918 270.889568 
L 302.29401 270.082596 
L 298.930714 268.671565 
L 295.567417 266.980734 
L 292.204121 264.961724 
L 290.522472 263.812183 
L 287.159176 261.164313 
L 284.943247 259.11803 
L 283.324523 257.436382 
L 281.861669 255.754734 
L 279.345422 252.391437 
L 278.260262 250.709789 
L 276.392064 247.346492 
L 274.874047 243.983196 
L 273.659822 240.619899 
L 272.727847 237.256603 
L 272.024342 233.829898 
L 271.577008 230.53001 
L 271.328391 227.166714 
L 271.277632 223.803417 
L 271.414866 220.440121 
L 271.730875 217.076824 
L 272.221255 213.713528 
L 272.883388 210.350231 
L 273.70599 206.975696 
L 275.242829 201.94199 
L 276.47093 198.578693 
L 277.856029 195.215397 
L 279.400658 191.852101 
L 281.107404 188.488804 
L 283.795879 183.742407 
L 286.103264 180.080563 
L 288.840824 176.112326 
L 292.204832 171.672322 
L 295.567417 167.644341 
L 298.930714 163.935578 
L 302.912704 159.900784 
L 304.162917 158.707531 
L 304.162917 158.707531 
" clip-path="url(#p7bed817b34)" style="fill: none; stroke: #0000ff; stroke-opacity: 0.6; stroke-width: 1.5"/>
    <path d="M 455.324 186.645818 
L 454.453055 190.170452 
L 452.957465 195.215397 
L 451.167935 200.260342 
L 449.086382 205.305286 
L 446.711155 210.350231 
L 444.034009 215.395176 
L 441.051118 220.440121 
L 437.751608 225.485065 
L 434.120124 230.53001 
L 430.140297 235.574955 
L 426.73598 239.547095 
L 422.643698 243.983196 
L 418.327739 248.306529 
L 413.926424 252.391437 
L 409.919497 255.856917 
L 404.874553 259.902401 
L 399.829608 263.63715 
L 394.784663 267.082955 
L 389.739719 270.259614 
L 384.694774 273.185159 
L 379.532025 275.934513 
L 374.604884 278.32848 
L 368.566578 280.979457 
L 364.317042 282.661106 
L 359.47005 284.39438 
L 354.313037 286.024402 
L 348.060677 287.70605 
L 344.335216 288.553265 
L 339.290271 289.520792 
L 334.245327 290.265462 
L 329.200382 290.791992 
L 324.155437 291.087844 
L 319.110492 291.139613 
L 314.065548 290.936503 
L 309.020603 290.459273 
L 303.975658 289.69299 
L 300.612362 289.004178 
L 295.567417 287.684868 
L 290.656047 286.024402 
L 288.840824 285.303777 
L 285.477528 283.813054 
L 282.114231 282.086793 
L 278.750935 280.092091 
L 275.153845 277.616161 
L 272.024342 275.105344 
L 269.26785 272.571216 
L 266.979397 270.178359 
L 264.736799 267.526271 
L 262.277027 264.162975 
L 260.182915 260.799678 
L 258.409617 257.436382 
L 256.889508 254.010754 
L 255.67462 250.709789 
L 254.660258 247.346492 
L 253.854322 243.983196 
L 253.243906 240.619899 
L 252.817755 237.256603 
L 252.561888 233.893307 
L 252.469196 230.53001 
L 252.532958 227.166714 
L 252.908141 222.121769 
L 253.602421 217.076824 
L 254.612008 212.031879 
L 255.920218 206.986935 
L 257.523764 201.94199 
L 259.420716 196.897045 
L 261.609161 191.852101 
L 264.09552 186.807156 
L 266.979397 181.594044 
L 270.342693 176.159562 
L 273.70599 171.242897 
L 277.154584 166.627377 
L 281.27596 161.582432 
L 285.477528 156.864069 
L 289.017994 153.174191 
L 291.075789 151.141832 
M 303.618427 140.168999 
L 307.338955 137.324674 
L 312.383899 133.728185 
L 317.428844 130.410154 
L 322.473789 127.351765 
L 327.518734 124.535862 
L 332.563678 121.961233 
L 337.75286 119.541226 
L 342.653568 117.473001 
L 347.698513 115.553812 
L 352.743457 113.844772 
L 357.788402 112.344658 
L 362.833347 111.052256 
L 367.878291 109.976511 
L 372.923236 109.111665 
L 377.968181 108.468612 
L 383.013126 108.048853 
L 388.05807 107.864913 
L 393.103015 107.93027 
L 398.14796 108.259448 
L 403.192905 108.868125 
L 408.237849 109.780636 
L 413.282794 111.0293 
L 416.64609 112.07383 
L 420.009387 113.296912 
L 423.372683 114.721196 
L 426.73598 116.373332 
L 430.099276 118.284892 
L 433.462573 120.493565 
L 436.825869 123.049317 
L 440.189166 126.042218 
L 442.07462 127.949467 
L 444.990897 131.312764 
L 446.915759 133.882103 
L 448.597407 136.404501 
L 450.509969 139.721005 
L 452.154421 143.084302 
L 453.642352 146.749265 
L 454.667593 149.810894 
L 455.324 152.137004 
L 455.324 152.137004 
" clip-path="url(#p7bed817b34)" style="fill: none; stroke: #0000ff; stroke-opacity: 0.6; stroke-width: 1.5"/>
    <path d="M 455.324 222.138534 
L 451.960704 227.438036 
L 448.597407 232.309714 
L 444.898007 237.256603 
L 440.817344 242.301548 
L 436.406756 247.346492 
L 431.639578 252.391437 
L 426.479418 257.436382 
L 421.691035 261.778436 
L 416.64609 266.044026 
L 411.601146 270.012489 
L 406.556201 273.715491 
L 401.511256 277.169177 
L 396.466312 280.388409 
L 391.421367 283.38689 
L 386.376422 286.177276 
L 379.649829 289.580547 
L 372.923236 292.639751 
L 367.878291 294.712945 
L 361.151698 297.190524 
L 356.106754 298.836953 
L 351.061809 300.301886 
L 346.016864 301.586238 
L 340.189407 302.840884 
L 335.926975 303.601377 
L 330.88203 304.330267 
L 325.837085 304.862957 
L 320.792141 305.196186 
L 315.747196 305.323768 
L 310.702251 305.235618 
L 305.657307 304.920981 
L 300.612362 304.365425 
L 295.567417 303.546896 
L 290.522472 302.451502 
L 285.477528 301.049364 
L 280.432583 299.302191 
L 276.774639 297.79594 
L 273.217219 296.114291 
L 270.073997 294.432643 
L 266.979397 292.572705 
L 263.616101 290.287359 
L 260.252804 287.696343 
L 256.493796 284.342754 
L 253.249217 280.979457 
L 250.162915 277.253899 
L 248.002144 274.252864 
L 245.881167 270.889568 
L 244.039663 267.526271 
L 242.44962 264.162975 
L 241.08665 260.799678 
L 239.929419 257.436382 
L 238.969213 254.073085 
L 238.184249 250.709789 
L 237.571167 247.346492 
L 237.113857 243.983196 
L 236.707436 238.938251 
L 236.621572 233.893307 
L 236.835088 228.848362 
L 237.336363 223.803417 
L 238.109226 218.758472 
L 239.151325 213.713528 
L 240.451596 208.668583 
L 242.008568 203.623638 
L 243.820783 198.578693 
L 245.886794 193.533749 
L 248.481266 187.926793 
L 250.783823 183.443859 
L 253.621442 178.398915 
L 256.889508 173.109914 
L 260.252804 168.119167 
L 263.797917 163.26408 
L 267.784382 158.219136 
L 272.090725 153.174191 
L 277.069286 147.798918 
L 282.114231 142.772474 
L 287.244913 138.039357 
L 292.204121 133.793977 
L 297.421567 129.631116 
L 302.29401 126.010329 
L 307.338955 122.509313 
L 312.383899 119.243443 
L 317.465927 116.17793 
L 318.892584 115.361343 
M 332.877492 108.175399 
L 337.608623 106.079293 
L 344.335216 103.391023 
L 349.380161 101.58648 
L 354.425106 99.964338 
L 359.47005 98.523671 
L 364.514995 97.263563 
L 370.549905 95.998151 
L 374.604884 95.297867 
L 379.649829 94.595047 
L 384.694774 94.087362 
L 389.739719 93.781516 
L 394.784663 93.682273 
L 399.829608 93.799768 
L 404.874553 94.144808 
L 409.919497 94.73683 
L 414.964442 95.588789 
L 420.009387 96.725619 
L 425.054332 98.172634 
L 428.515444 99.361447 
L 432.697193 101.043095 
L 436.30646 102.724744 
L 439.483927 104.406392 
L 442.327672 106.08804 
L 445.234111 108.001608 
L 448.597407 110.500973 
L 451.361628 112.814633 
L 453.642352 114.934183 
L 455.324 116.637082 
L 455.324 116.637082 
" clip-path="url(#p7bed817b34)" style="fill: none; stroke: #0000ff; stroke-opacity: 0.6; stroke-width: 1.5"/>
    <path d="M 455.324 241.961028 
L 451.960704 246.147537 
L 448.067345 250.709789 
L 443.468249 255.754734 
L 438.507518 260.825984 
L 433.235672 265.844623 
L 427.53658 270.889568 
L 423.372683 274.352487 
L 418.327739 278.307502 
L 412.388315 282.661106 
L 406.556201 286.635257 
L 401.511256 289.849064 
L 396.466312 292.866349 
L 389.739719 296.591481 
L 383.013126 299.997051 
L 376.286533 303.094723 
L 369.55994 305.890891 
L 364.265286 307.885829 
L 357.788402 310.079391 
L 351.061809 312.075261 
L 344.335216 313.78283 
L 337.608623 315.199473 
L 330.88203 316.32253 
L 325.837085 316.961334 
L 320.792141 317.428544 
L 315.747196 317.7168 
L 310.702251 317.818317 
L 305.657307 317.724852 
L 300.612362 317.427668 
L 295.567417 316.917499 
L 290.522472 316.182601 
L 285.477528 315.199222 
L 280.432583 313.954691 
L 275.387638 312.422908 
L 270.342693 310.571679 
L 266.979397 309.14284 
L 263.616101 307.540439 
L 260.252804 305.746391 
L 256.889508 303.740003 
L 253.050949 301.159236 
L 250.162915 298.979326 
L 246.761654 296.114291 
L 243.258529 292.750995 
L 240.073025 289.253064 
L 237.487552 286.024402 
L 235.02808 282.552873 
L 232.997101 279.297809 
L 231.144189 275.934513 
L 229.517095 272.571216 
L 228.096145 269.20792 
L 226.619839 265.090836 
L 225.355191 260.799678 
L 224.549531 257.436382 
L 223.623693 252.391437 
L 223.014308 247.346492 
L 222.70319 242.301548 
L 222.670819 237.256603 
L 222.904038 232.211658 
L 223.392377 227.166714 
L 224.130485 222.121769 
L 225.104431 217.076824 
L 226.315316 212.031879 
L 227.756877 206.986935 
L 229.425713 201.94199 
L 231.320676 196.897045 
L 233.441911 191.852101 
L 235.794715 186.807156 
L 238.391377 181.728609 
L 241.754673 175.758264 
L 244.247552 171.672322 
L 247.550199 166.627377 
L 251.108646 161.582432 
L 255.207859 156.188951 
L 259.038978 151.492543 
L 263.616101 146.253787 
L 268.661045 140.89035 
L 273.70599 135.898049 
L 278.750935 131.234091 
L 284.520855 126.267819 
L 288.840824 122.776997 
L 291.137978 120.999651 
M 304.397398 111.658775 
L 309.020603 108.745438 
L 314.065548 105.754546 
L 320.792141 102.061386 
L 326.119846 99.361447 
L 332.563678 96.358158 
L 337.608623 94.198243 
L 344.335216 91.580796 
L 351.061809 89.249606 
L 357.788402 87.212051 
L 364.514995 85.461329 
L 371.241588 84.00004 
L 377.968181 82.835221 
L 383.013126 82.159556 
L 388.05807 81.658227 
L 393.103015 81.334087 
L 398.14796 81.194812 
L 403.192905 81.248524 
L 408.237849 81.503831 
L 413.282794 81.96986 
L 418.327739 82.658224 
L 423.372683 83.591521 
L 428.417628 84.781207 
L 433.462573 86.252701 
L 438.507518 88.03741 
L 441.870814 89.416123 
L 445.234111 90.964038 
L 448.597407 92.698679 
L 451.960704 94.640082 
L 455.324 96.811251 
L 455.324 96.811251 
" clip-path="url(#p7bed817b34)" style="fill: none; stroke: #0000ff; stroke-opacity: 0.6; stroke-width: 1.5"/>
    <path d="M 455.324 257.433295 
L 451.960704 261.077829 
L 446.915759 266.249812 
L 441.870814 271.101998 
L 436.516243 275.934513 
L 430.540124 280.979457 
L 425.054332 285.314082 
L 419.571239 289.387698 
L 413.282794 293.757546 
L 407.047688 297.79594 
L 401.493755 301.159236 
L 394.784663 304.936459 
L 388.05807 308.429406 
L 381.331477 311.637853 
L 374.503673 314.612422 
L 367.878291 317.228328 
L 361.053919 319.657367 
L 354.425106 321.752729 
L 347.698513 323.618818 
L 340.97192 325.221353 
L 334.245327 326.558148 
L 327.518734 327.620816 
L 320.792141 328.406988 
L 314.065548 328.904858 
L 309.020603 329.084228 
L 303.975658 329.089932 
L 298.930714 328.914966 
L 293.885769 328.551947 
L 288.840824 327.991952 
L 283.795879 327.216937 
L 278.750935 326.222806 
L 273.70599 324.985038 
L 268.661045 323.486155 
L 263.616101 321.702733 
L 260.252804 320.338603 
L 256.889508 318.823614 
L 253.526211 317.143806 
L 249.027579 314.612422 
L 245.11797 312.110538 
L 241.569534 309.567477 
L 237.426397 306.204181 
L 235.02808 304.03619 
L 231.664784 300.671036 
L 229.092929 297.79594 
L 226.389165 294.432643 
L 223.981338 291.069347 
L 221.574894 287.277864 
L 219.893246 284.306651 
L 218.209622 280.979457 
L 216.52995 277.194943 
L 214.778245 272.571216 
L 213.221024 267.526271 
L 212.373846 264.162975 
L 211.359767 259.11803 
L 210.645685 254.073085 
L 210.206165 249.028141 
L 210.028995 243.983196 
L 210.102676 238.938251 
L 210.416374 233.893307 
L 210.959868 228.848362 
L 211.726513 223.803417 
L 212.713249 218.758472 
L 213.913695 213.713528 
L 215.323869 208.668583 
L 216.942797 203.623638 
L 218.769514 198.578693 
L 220.803059 193.533749 
L 223.256543 188.033161 
L 225.493646 183.443859 
L 228.301487 178.132332 
L 231.664784 172.295654 
L 235.02808 166.91057 
L 238.391377 161.901183 
L 241.754673 157.2077 
L 245.11797 152.782378 
L 248.866546 148.129246 
L 253.526211 142.704211 
L 258.571156 137.221481 
L 263.616101 132.093748 
L 267.327504 128.526556 
M 279.882294 117.571731 
L 285.477528 113.178854 
L 290.522472 109.448904 
L 297.249065 104.799432 
L 303.081748 101.043095 
L 309.020603 97.466804 
L 315.747196 93.708818 
L 322.473789 90.244611 
L 329.200382 87.06434 
L 335.926975 84.158599 
L 342.653568 81.52746 
L 349.380161 79.157498 
L 356.106754 77.056064 
L 362.833347 75.216233 
L 369.55994 73.640173 
L 376.286533 72.330073 
L 383.013126 71.295396 
L 389.739719 70.536757 
L 396.466312 70.068559 
L 401.511256 69.91218 
L 406.556201 69.930129 
L 411.601146 70.129436 
L 416.64609 70.517518 
L 421.691035 71.107323 
L 426.73598 71.909422 
L 431.780925 72.936628 
L 436.825869 74.204911 
L 442.105179 75.818372 
L 446.915759 77.563496 
L 451.960704 79.711922 
L 455.324 81.340499 
L 455.324 81.340499 
" clip-path="url(#p7bed817b34)" style="fill: none; stroke: #0000ff; stroke-opacity: 0.6; stroke-width: 1.5"/>
   </g>
   <g id="line2d_39"/>
   <g id="patch_4">
    <path d="M 120.676 383.56 
L 120.676 48.912 
" style="fill: none; stroke: #000000; stroke-width: 0.8; stroke-linejoin: miter; stroke-linecap: square"/>
   </g>
   <g id="patch_5">
    <path d="M 455.324 383.56 
L 455.324 48.912 
" style="fill: none; stroke: #000000; stroke-width: 0.8; stroke-linejoin: miter; stroke-linecap: square"/>
   </g>
   <g id="patch_6">
    <path d="M 120.676 383.56 
L 455.324 383.56 
" style="fill: none; stroke: #000000; stroke-width: 0.8; stroke-linejoin: miter; stroke-linecap: square"/>
   </g>
   <g id="patch_7">
    <path d="M 120.676 48.912 
L 455.324 48.912 
" style="fill: none; stroke: #000000; stroke-width: 0.8; stroke-linejoin: miter; stroke-linecap: square"/>
   </g>
   <g id="patch_8">
    <path d="M 341.429189 288.64471 
Q 332.318243 293.78026 324.181262 298.366817 
" style="fill: none; stroke: #ff0000; stroke-linecap: round"/>
    <path d="M 329.541217 298.10059 
L 324.181262 298.366817 
L 327.184254 293.919117 
" style="fill: none; stroke: #ff0000; stroke-linecap: round"/>
   </g>
   <g id="text_21">
    <!-- β₂ = 0 -->
    <g style="fill: #ff0000" transform="translate(338.1972 283.1656) scale(0.12 -0.12)">
     <defs>
      <path id="DejaVuSans-3b2" d="M 1178 216 
L 1178 -1331 
L 600 -1331 
L 600 3478 
Q 600 4903 1931 4903 
Q 3288 4903 3288 3700 
Q 3288 2844 2750 2531 
Q 3625 2250 3625 1416 
Q 3625 -66 2119 -66 
Q 1456 -66 1178 216 
z
M 1178 966 
Q 1525 425 2141 425 
Q 3041 425 3041 1406 
Q 3041 2288 1591 2219 
L 1591 2750 
Q 2725 2750 2725 3750 
Q 2725 4434 1994 4434 
Q 1178 4434 1178 3459 
L 1178 966 
z
" transform="scale(0.015625)"/>
      <path id="DejaVuSans-2082" d="M 838 356 
L 2163 356 
L 2163 0 
L 294 0 
L 294 343 
Q 400 440 597 615 
Q 1672 1568 1672 1862 
Q 1672 2068 1509 2194 
Q 1347 2321 1081 2321 
Q 919 2321 728 2266 
Q 538 2212 313 2103 
L 313 2487 
Q 553 2575 761 2618 
Q 969 2662 1147 2662 
Q 1600 2662 1872 2456 
Q 2144 2250 2144 1912 
Q 2144 1478 1109 590 
Q 934 440 838 356 
z
" transform="scale(0.015625)"/>
      <path id="DejaVuSans-20" transform="scale(0.015625)"/>
      <path id="DejaVuSans-3d" d="M 678 2906 
L 4684 2906 
L 4684 2381 
L 678 2381 
L 678 2906 
z
M 678 1631 
L 4684 1631 
L 4684 1100 
L 678 1100 
L 678 1631 
z
" transform="scale(0.015625)"/>
     </defs>
     <use xlink:href="#DejaVuSans-3b2"/>
     <use xlink:href="#DejaVuSans-2082" x="63.818359"/>
     <use xlink:href="#DejaVuSans-20" x="103.90625"/>
     <use xlink:href="#DejaVuSans-3d" x="135.693359"/>
     <use xlink:href="#DejaVuSans-20" x="219.482422"/>
     <use xlink:href="#DejaVuSans-30" x="251.269531"/>
    </g>
   </g>
   <g id="text_22">
    <!-- Origin -->
    <g transform="translate(212.7042 312.4473) scale(0.1 -0.1)">
     <defs>
      <path id="DejaVuSans-4f" d="M 2522 4238 
Q 1834 4238 1429 3725 
Q 1025 3213 1025 2328 
Q 1025 1447 1429 934 
Q 1834 422 2522 422 
Q 3209 422 3611 934 
Q 4013 1447 4013 2328 
Q 4013 3213 3611 3725 
Q 3209 4238 2522 4238 
z
M 2522 4750 
Q 3503 4750 4090 4092 
Q 4678 3434 4678 2328 
Q 4678 1225 4090 567 
Q 3503 -91 2522 -91 
Q 1538 -91 948 565 
Q 359 1222 359 2328 
Q 359 3434 948 4092 
Q 1538 4750 2522 4750 
z
" transform="scale(0.015625)"/>
      <path id="DejaVuSans-72" d="M 2631 2963 
Q 2534 3019 2420 3045 
Q 2306 3072 2169 3072 
Q 1681 3072 1420 2755 
Q 1159 2438 1159 1844 
L 1159 0 
L 581 0 
L 581 3500 
L 1159 3500 
L 1159 2956 
Q 1341 3275 1631 3429 
Q 1922 3584 2338 3584 
Q 2397 3584 2469 3576 
Q 2541 3569 2628 3553 
L 2631 2963 
z
" transform="scale(0.015625)"/>
      <path id="DejaVuSans-69" d="M 603 3500 
L 1178 3500 
L 1178 0 
L 603 0 
L 603 3500 
z
M 603 4863 
L 1178 4863 
L 1178 4134 
L 603 4134 
L 603 4863 
z
" transform="scale(0.015625)"/>
      <path id="DejaVuSans-67" d="M 2906 1791 
Q 2906 2416 2648 2759 
Q 2391 3103 1925 3103 
Q 1463 3103 1205 2759 
Q 947 2416 947 1791 
Q 947 1169 1205 825 
Q 1463 481 1925 481 
Q 2391 481 2648 825 
Q 2906 1169 2906 1791 
z
M 3481 434 
Q 3481 -459 3084 -895 
Q 2688 -1331 1869 -1331 
Q 1566 -1331 1297 -1286 
Q 1028 -1241 775 -1147 
L 775 -588 
Q 1028 -725 1275 -790 
Q 1522 -856 1778 -856 
Q 2344 -856 2625 -561 
Q 2906 -266 2906 331 
L 2906 616 
Q 2728 306 2450 153 
Q 2172 0 1784 0 
Q 1141 0 747 490 
Q 353 981 353 1791 
Q 353 2603 747 3093 
Q 1141 3584 1784 3584 
Q 2172 3584 2450 3431 
Q 2728 3278 2906 2969 
L 2906 3500 
L 3481 3500 
L 3481 434 
z
" transform="scale(0.015625)"/>
      <path id="DejaVuSans-6e" d="M 3513 2113 
L 3513 0 
L 2938 0 
L 2938 2094 
Q 2938 2591 2744 2837 
Q 2550 3084 2163 3084 
Q 1697 3084 1428 2787 
Q 1159 2491 1159 1978 
L 1159 0 
L 581 0 
L 581 3500 
L 1159 3500 
L 1159 2956 
Q 1366 3272 1645 3428 
Q 1925 3584 2291 3584 
Q 2894 3584 3203 3211 
Q 3513 2838 3513 2113 
z
" transform="scale(0.015625)"/>
     </defs>
     <use xlink:href="#DejaVuSans-4f"/>
     <use xlink:href="#DejaVuSans-72" x="78.710938"/>
     <use xlink:href="#DejaVuSans-69" x="119.824219"/>
     <use xlink:href="#DejaVuSans-67" x="147.607422"/>
     <use xlink:href="#DejaVuSans-69" x="211.083984"/>
     <use xlink:href="#DejaVuSans-6e" x="238.867188"/>
    </g>
   </g>
   <g id="text_23">
    <!-- LASSO Regression: MSE Contours and L1 Constraint -->
    <g transform="translate(80.5125 24.9955) scale(0.16 -0.16)">
     <defs>
      <path id="DejaVuSans-4c" d="M 628 4666 
L 1259 4666 
L 1259 531 
L 3531 531 
L 3531 0 
L 628 0 
L 628 4666 
z
" transform="scale(0.015625)"/>
      <path id="DejaVuSans-41" d="M 2188 4044 
L 1331 1722 
L 3047 1722 
L 2188 4044 
z
M 1831 4666 
L 2547 4666 
L 4325 0 
L 3669 0 
L 3244 1197 
L 1141 1197 
L 716 0 
L 50 0 
L 1831 4666 
z
" transform="scale(0.015625)"/>
      <path id="DejaVuSans-53" d="M 3425 4513 
L 3425 3897 
Q 3066 4069 2747 4153 
Q 2428 4238 2131 4238 
Q 1616 4238 1336 4038 
Q 1056 3838 1056 3469 
Q 1056 3159 1242 3001 
Q 1428 2844 1947 2747 
L 2328 2669 
Q 3034 2534 3370 2195 
Q 3706 1856 3706 1288 
Q 3706 609 3251 259 
Q 2797 -91 1919 -91 
Q 1588 -91 1214 -16 
Q 841 59 441 206 
L 441 856 
Q 825 641 1194 531 
Q 1563 422 1919 422 
Q 2459 422 2753 634 
Q 3047 847 3047 1241 
Q 3047 1584 2836 1778 
Q 2625 1972 2144 2069 
L 1759 2144 
Q 1053 2284 737 2584 
Q 422 2884 422 3419 
Q 422 4038 858 4394 
Q 1294 4750 2059 4750 
Q 2388 4750 2728 4690 
Q 3069 4631 3425 4513 
z
" transform="scale(0.015625)"/>
      <path id="DejaVuSans-52" d="M 2841 2188 
Q 3044 2119 3236 1894 
Q 3428 1669 3622 1275 
L 4263 0 
L 3584 0 
L 2988 1197 
Q 2756 1666 2539 1819 
Q 2322 1972 1947 1972 
L 1259 1972 
L 1259 0 
L 628 0 
L 628 4666 
L 2053 4666 
Q 2853 4666 3247 4331 
Q 3641 3997 3641 3322 
Q 3641 2881 3436 2590 
Q 3231 2300 2841 2188 
z
M 1259 4147 
L 1259 2491 
L 2053 2491 
Q 2509 2491 2742 2702 
Q 2975 2913 2975 3322 
Q 2975 3731 2742 3939 
Q 2509 4147 2053 4147 
L 1259 4147 
z
" transform="scale(0.015625)"/>
      <path id="DejaVuSans-65" d="M 3597 1894 
L 3597 1613 
L 953 1613 
Q 991 1019 1311 708 
Q 1631 397 2203 397 
Q 2534 397 2845 478 
Q 3156 559 3463 722 
L 3463 178 
Q 3153 47 2828 -22 
Q 2503 -91 2169 -91 
Q 1331 -91 842 396 
Q 353 884 353 1716 
Q 353 2575 817 3079 
Q 1281 3584 2069 3584 
Q 2775 3584 3186 3129 
Q 3597 2675 3597 1894 
z
M 3022 2063 
Q 3016 2534 2758 2815 
Q 2500 3097 2075 3097 
Q 1594 3097 1305 2825 
Q 1016 2553 972 2059 
L 3022 2063 
z
" transform="scale(0.015625)"/>
      <path id="DejaVuSans-73" d="M 2834 3397 
L 2834 2853 
Q 2591 2978 2328 3040 
Q 2066 3103 1784 3103 
Q 1356 3103 1142 2972 
Q 928 2841 928 2578 
Q 928 2378 1081 2264 
Q 1234 2150 1697 2047 
L 1894 2003 
Q 2506 1872 2764 1633 
Q 3022 1394 3022 966 
Q 3022 478 2636 193 
Q 2250 -91 1575 -91 
Q 1294 -91 989 -36 
Q 684 19 347 128 
L 347 722 
Q 666 556 975 473 
Q 1284 391 1588 391 
Q 1994 391 2212 530 
Q 2431 669 2431 922 
Q 2431 1156 2273 1281 
Q 2116 1406 1581 1522 
L 1381 1569 
Q 847 1681 609 1914 
Q 372 2147 372 2553 
Q 372 3047 722 3315 
Q 1072 3584 1716 3584 
Q 2034 3584 2315 3537 
Q 2597 3491 2834 3397 
z
" transform="scale(0.015625)"/>
      <path id="DejaVuSans-6f" d="M 1959 3097 
Q 1497 3097 1228 2736 
Q 959 2375 959 1747 
Q 959 1119 1226 758 
Q 1494 397 1959 397 
Q 2419 397 2687 759 
Q 2956 1122 2956 1747 
Q 2956 2369 2687 2733 
Q 2419 3097 1959 3097 
z
M 1959 3584 
Q 2709 3584 3137 3096 
Q 3566 2609 3566 1747 
Q 3566 888 3137 398 
Q 2709 -91 1959 -91 
Q 1206 -91 779 398 
Q 353 888 353 1747 
Q 353 2609 779 3096 
Q 1206 3584 1959 3584 
z
" transform="scale(0.015625)"/>
      <path id="DejaVuSans-3a" d="M 750 794 
L 1409 794 
L 1409 0 
L 750 0 
L 750 794 
z
M 750 3309 
L 1409 3309 
L 1409 2516 
L 750 2516 
L 750 3309 
z
" transform="scale(0.015625)"/>
      <path id="DejaVuSans-4d" d="M 628 4666 
L 1569 4666 
L 2759 1491 
L 3956 4666 
L 4897 4666 
L 4897 0 
L 4281 0 
L 4281 4097 
L 3078 897 
L 2444 897 
L 1241 4097 
L 1241 0 
L 628 0 
L 628 4666 
z
" transform="scale(0.015625)"/>
      <path id="DejaVuSans-45" d="M 628 4666 
L 3578 4666 
L 3578 4134 
L 1259 4134 
L 1259 2753 
L 3481 2753 
L 3481 2222 
L 1259 2222 
L 1259 531 
L 3634 531 
L 3634 0 
L 628 0 
L 628 4666 
z
" transform="scale(0.015625)"/>
      <path id="DejaVuSans-43" d="M 4122 4306 
L 4122 3641 
Q 3803 3938 3442 4084 
Q 3081 4231 2675 4231 
Q 1875 4231 1450 3742 
Q 1025 3253 1025 2328 
Q 1025 1406 1450 917 
Q 1875 428 2675 428 
Q 3081 428 3442 575 
Q 3803 722 4122 1019 
L 4122 359 
Q 3791 134 3420 21 
Q 3050 -91 2638 -91 
Q 1578 -91 968 557 
Q 359 1206 359 2328 
Q 359 3453 968 4101 
Q 1578 4750 2638 4750 
Q 3056 4750 3426 4639 
Q 3797 4528 4122 4306 
z
" transform="scale(0.015625)"/>
      <path id="DejaVuSans-74" d="M 1172 4494 
L 1172 3500 
L 2356 3500 
L 2356 3053 
L 1172 3053 
L 1172 1153 
Q 1172 725 1289 603 
Q 1406 481 1766 481 
L 2356 481 
L 2356 0 
L 1766 0 
Q 1100 0 847 248 
Q 594 497 594 1153 
L 594 3053 
L 172 3053 
L 172 3500 
L 594 3500 
L 594 4494 
L 1172 4494 
z
" transform="scale(0.015625)"/>
      <path id="DejaVuSans-75" d="M 544 1381 
L 544 3500 
L 1119 3500 
L 1119 1403 
Q 1119 906 1312 657 
Q 1506 409 1894 409 
Q 2359 409 2629 706 
Q 2900 1003 2900 1516 
L 2900 3500 
L 3475 3500 
L 3475 0 
L 2900 0 
L 2900 538 
Q 2691 219 2414 64 
Q 2138 -91 1772 -91 
Q 1169 -91 856 284 
Q 544 659 544 1381 
z
M 1991 3584 
L 1991 3584 
z
" transform="scale(0.015625)"/>
      <path id="DejaVuSans-61" d="M 2194 1759 
Q 1497 1759 1228 1600 
Q 959 1441 959 1056 
Q 959 750 1161 570 
Q 1363 391 1709 391 
Q 2188 391 2477 730 
Q 2766 1069 2766 1631 
L 2766 1759 
L 2194 1759 
z
M 3341 1997 
L 3341 0 
L 2766 0 
L 2766 531 
Q 2569 213 2275 61 
Q 1981 -91 1556 -91 
Q 1019 -91 701 211 
Q 384 513 384 1019 
Q 384 1609 779 1909 
Q 1175 2209 1959 2209 
L 2766 2209 
L 2766 2266 
Q 2766 2663 2505 2880 
Q 2244 3097 1772 3097 
Q 1472 3097 1187 3025 
Q 903 2953 641 2809 
L 641 3341 
Q 956 3463 1253 3523 
Q 1550 3584 1831 3584 
Q 2591 3584 2966 3190 
Q 3341 2797 3341 1997 
z
" transform="scale(0.015625)"/>
      <path id="DejaVuSans-64" d="M 2906 2969 
L 2906 4863 
L 3481 4863 
L 3481 0 
L 2906 0 
L 2906 525 
Q 2725 213 2448 61 
Q 2172 -91 1784 -91 
Q 1150 -91 751 415 
Q 353 922 353 1747 
Q 353 2572 751 3078 
Q 1150 3584 1784 3584 
Q 2172 3584 2448 3432 
Q 2725 3281 2906 2969 
z
M 947 1747 
Q 947 1113 1208 752 
Q 1469 391 1925 391 
Q 2381 391 2643 752 
Q 2906 1113 2906 1747 
Q 2906 2381 2643 2742 
Q 2381 3103 1925 3103 
Q 1469 3103 1208 2742 
Q 947 2381 947 1747 
z
" transform="scale(0.015625)"/>
     </defs>
     <use xlink:href="#DejaVuSans-4c"/>
     <use xlink:href="#DejaVuSans-41" x="57.962891"/>
     <use xlink:href="#DejaVuSans-53" x="126.371094"/>
     <use xlink:href="#DejaVuSans-53" x="189.847656"/>
     <use xlink:href="#DejaVuSans-4f" x="253.324219"/>
     <use xlink:href="#DejaVuSans-20" x="332.035156"/>
     <use xlink:href="#DejaVuSans-52" x="363.822266"/>
     <use xlink:href="#DejaVuSans-65" x="428.804688"/>
     <use xlink:href="#DejaVuSans-67" x="490.328125"/>
     <use xlink:href="#DejaVuSans-72" x="553.804688"/>
     <use xlink:href="#DejaVuSans-65" x="592.667969"/>
     <use xlink:href="#DejaVuSans-73" x="654.191406"/>
     <use xlink:href="#DejaVuSans-73" x="706.291016"/>
     <use xlink:href="#DejaVuSans-69" x="758.390625"/>
     <use xlink:href="#DejaVuSans-6f" x="786.173828"/>
     <use xlink:href="#DejaVuSans-6e" x="847.355469"/>
     <use xlink:href="#DejaVuSans-3a" x="910.734375"/>
     <use xlink:href="#DejaVuSans-20" x="944.425781"/>
     <use xlink:href="#DejaVuSans-4d" x="976.212891"/>
     <use xlink:href="#DejaVuSans-53" x="1062.492188"/>
     <use xlink:href="#DejaVuSans-45" x="1125.96875"/>
     <use xlink:href="#DejaVuSans-20" x="1189.152344"/>
     <use xlink:href="#DejaVuSans-43" x="1220.939453"/>
     <use xlink:href="#DejaVuSans-6f" x="1290.763672"/>
     <use xlink:href="#DejaVuSans-6e" x="1351.945312"/>
     <use xlink:href="#DejaVuSans-74" x="1415.324219"/>
     <use xlink:href="#DejaVuSans-6f" x="1454.533203"/>
     <use xlink:href="#DejaVuSans-75" x="1515.714844"/>
     <use xlink:href="#DejaVuSans-72" x="1579.09375"/>
     <use xlink:href="#DejaVuSans-73" x="1620.207031"/>
     <use xlink:href="#DejaVuSans-20" x="1672.306641"/>
     <use xlink:href="#DejaVuSans-61" x="1704.09375"/>
     <use xlink:href="#DejaVuSans-6e" x="1765.373047"/>
     <use xlink:href="#DejaVuSans-64" x="1828.751953"/>
     <use xlink:href="#DejaVuSans-20" x="1892.228516"/>
     <use xlink:href="#DejaVuSans-4c" x="1924.015625"/>
     <use xlink:href="#DejaVuSans-31" x="1979.728516"/>
     <use xlink:href="#DejaVuSans-20" x="2043.351562"/>
     <use xlink:href="#DejaVuSans-43" x="2075.138672"/>
     <use xlink:href="#DejaVuSans-6f" x="2144.962891"/>
     <use xlink:href="#DejaVuSans-6e" x="2206.144531"/>
     <use xlink:href="#DejaVuSans-73" x="2269.523438"/>
     <use xlink:href="#DejaVuSans-74" x="2321.623047"/>
     <use xlink:href="#DejaVuSans-72" x="2360.832031"/>
     <use xlink:href="#DejaVuSans-61" x="2401.945312"/>
     <use xlink:href="#DejaVuSans-69" x="2463.224609"/>
     <use xlink:href="#DejaVuSans-6e" x="2491.007812"/>
     <use xlink:href="#DejaVuSans-74" x="2554.386719"/>
    </g>
    <!-- (Solution at Corner = Variable Selection) -->
    <g transform="translate(125.54 42.912) scale(0.16 -0.16)">
     <defs>
      <path id="DejaVuSans-28" d="M 1984 4856 
Q 1566 4138 1362 3434 
Q 1159 2731 1159 2009 
Q 1159 1288 1364 580 
Q 1569 -128 1984 -844 
L 1484 -844 
Q 1016 -109 783 600 
Q 550 1309 550 2009 
Q 550 2706 781 3412 
Q 1013 4119 1484 4856 
L 1984 4856 
z
" transform="scale(0.015625)"/>
      <path id="DejaVuSans-6c" d="M 603 4863 
L 1178 4863 
L 1178 0 
L 603 0 
L 603 4863 
z
" transform="scale(0.015625)"/>
      <path id="DejaVuSans-56" d="M 1831 0 
L 50 4666 
L 709 4666 
L 2188 738 
L 3669 4666 
L 4325 4666 
L 2547 0 
L 1831 0 
z
" transform="scale(0.015625)"/>
      <path id="DejaVuSans-62" d="M 3116 1747 
Q 3116 2381 2855 2742 
Q 2594 3103 2138 3103 
Q 1681 3103 1420 2742 
Q 1159 2381 1159 1747 
Q 1159 1113 1420 752 
Q 1681 391 2138 391 
Q 2594 391 2855 752 
Q 3116 1113 3116 1747 
z
M 1159 2969 
Q 1341 3281 1617 3432 
Q 1894 3584 2278 3584 
Q 2916 3584 3314 3078 
Q 3713 2572 3713 1747 
Q 3713 922 3314 415 
Q 2916 -91 2278 -91 
Q 1894 -91 1617 61 
Q 1341 213 1159 525 
L 1159 0 
L 581 0 
L 581 4863 
L 1159 4863 
L 1159 2969 
z
" transform="scale(0.015625)"/>
      <path id="DejaVuSans-63" d="M 3122 3366 
L 3122 2828 
Q 2878 2963 2633 3030 
Q 2388 3097 2138 3097 
Q 1578 3097 1268 2742 
Q 959 2388 959 1747 
Q 959 1106 1268 751 
Q 1578 397 2138 397 
Q 2388 397 2633 464 
Q 2878 531 3122 666 
L 3122 134 
Q 2881 22 2623 -34 
Q 2366 -91 2075 -91 
Q 1284 -91 818 406 
Q 353 903 353 1747 
Q 353 2603 823 3093 
Q 1294 3584 2113 3584 
Q 2378 3584 2631 3529 
Q 2884 3475 3122 3366 
z
" transform="scale(0.015625)"/>
      <path id="DejaVuSans-29" d="M 513 4856 
L 1013 4856 
Q 1481 4119 1714 3412 
Q 1947 2706 1947 2009 
Q 1947 1309 1714 600 
Q 1481 -109 1013 -844 
L 513 -844 
Q 928 -128 1133 580 
Q 1338 1288 1338 2009 
Q 1338 2731 1133 3434 
Q 928 4138 513 4856 
z
" transform="scale(0.015625)"/>
     </defs>
     <use xlink:href="#DejaVuSans-28"/>
     <use xlink:href="#DejaVuSans-53" x="39.013672"/>
     <use xlink:href="#DejaVuSans-6f" x="102.490234"/>
     <use xlink:href="#DejaVuSans-6c" x="163.671875"/>
     <use xlink:href="#DejaVuSans-75" x="191.455078"/>
     <use xlink:href="#DejaVuSans-74" x="254.833984"/>
     <use xlink:href="#DejaVuSans-69" x="294.042969"/>
     <use xlink:href="#DejaVuSans-6f" x="321.826172"/>
     <use xlink:href="#DejaVuSans-6e" x="383.007812"/>
     <use xlink:href="#DejaVuSans-20" x="446.386719"/>
     <use xlink:href="#DejaVuSans-61" x="478.173828"/>
     <use xlink:href="#DejaVuSans-74" x="539.453125"/>
     <use xlink:href="#DejaVuSans-20" x="578.662109"/>
     <use xlink:href="#DejaVuSans-43" x="610.449219"/>
     <use xlink:href="#DejaVuSans-6f" x="680.273438"/>
     <use xlink:href="#DejaVuSans-72" x="741.455078"/>
     <use xlink:href="#DejaVuSans-6e" x="780.818359"/>
     <use xlink:href="#DejaVuSans-65" x="844.197266"/>
     <use xlink:href="#DejaVuSans-72" x="905.720703"/>
     <use xlink:href="#DejaVuSans-20" x="946.833984"/>
     <use xlink:href="#DejaVuSans-3d" x="978.621094"/>
     <use xlink:href="#DejaVuSans-20" x="1062.410156"/>
     <use xlink:href="#DejaVuSans-56" x="1094.197266"/>
     <use xlink:href="#DejaVuSans-61" x="1154.855469"/>
     <use xlink:href="#DejaVuSans-72" x="1216.134766"/>
     <use xlink:href="#DejaVuSans-69" x="1257.248047"/>
     <use xlink:href="#DejaVuSans-61" x="1285.03125"/>
     <use xlink:href="#DejaVuSans-62" x="1346.310547"/>
     <use xlink:href="#DejaVuSans-6c" x="1409.787109"/>
     <use xlink:href="#DejaVuSans-65" x="1437.570312"/>
     <use xlink:href="#DejaVuSans-20" x="1499.09375"/>
     <use xlink:href="#DejaVuSans-53" x="1530.880859"/>
     <use xlink:href="#DejaVuSans-65" x="1594.357422"/>
     <use xlink:href="#DejaVuSans-6c" x="1655.880859"/>
     <use xlink:href="#DejaVuSans-65" x="1683.664062"/>
     <use xlink:href="#DejaVuSans-63" x="1745.1875"/>
     <use xlink:href="#DejaVuSans-74" x="1800.167969"/>
     <use xlink:href="#DejaVuSans-69" x="1839.376953"/>
     <use xlink:href="#DejaVuSans-6f" x="1867.160156"/>
     <use xlink:href="#DejaVuSans-6e" x="1928.341797"/>
     <use xlink:href="#DejaVuSans-29" x="1991.720703"/>
    </g>
   </g>
   <g id="text_24">
    <g clip-path="url(#p7bed817b34)">
     <!-- 0.5 -->
     <g style="fill: #0000ff; opacity: 0.6" transform="translate(321.437012 169.927107) rotate(-30.058269) scale(0.08 -0.08)">
      <use xlink:href="#DejaVuSans-30"/>
      <use xlink:href="#DejaVuSans-2e" x="63.623047"/>
      <use xlink:href="#DejaVuSans-35" x="95.410156"/>
     </g>
    </g>
   </g>
   <g id="text_25">
    <g clip-path="url(#p7bed817b34)">
     <!-- 1.0 -->
     <g style="fill: #0000ff; opacity: 0.6" transform="translate(306.165006 158.398059) rotate(-31.741061) scale(0.08 -0.08)">
      <use xlink:href="#DejaVuSans-31"/>
      <use xlink:href="#DejaVuSans-2e" x="63.623047"/>
      <use xlink:href="#DejaVuSans-30" x="95.410156"/>
     </g>
    </g>
   </g>
   <g id="text_26">
    <g clip-path="url(#p7bed817b34)">
     <!-- 1.5 -->
     <g style="fill: #0000ff; opacity: 0.6" transform="translate(293.124181 150.77572) rotate(-33.084221) scale(0.08 -0.08)">
      <use xlink:href="#DejaVuSans-31"/>
      <use xlink:href="#DejaVuSans-2e" x="63.623047"/>
      <use xlink:href="#DejaVuSans-35" x="95.410156"/>
     </g>
    </g>
   </g>
   <g id="text_27">
    <g clip-path="url(#p7bed817b34)">
     <!-- 2.0 -->
     <g style="fill: #0000ff; opacity: 0.6" transform="translate(320.686112 115.936918) rotate(-20.955994) scale(0.08 -0.08)">
      <use xlink:href="#DejaVuSans-32"/>
      <use xlink:href="#DejaVuSans-2e" x="63.623047"/>
      <use xlink:href="#DejaVuSans-30" x="95.410156"/>
     </g>
    </g>
   </g>
   <g id="text_28">
    <g clip-path="url(#p7bed817b34)">
     <!-- 2.5 -->
     <g style="fill: #0000ff; opacity: 0.6" transform="translate(293.102012 121.089017) rotate(-27.695077) scale(0.08 -0.08)">
      <use xlink:href="#DejaVuSans-32"/>
      <use xlink:href="#DejaVuSans-2e" x="63.623047"/>
      <use xlink:href="#DejaVuSans-35" x="95.410156"/>
     </g>
    </g>
   </g>
   <g id="text_29">
    <g clip-path="url(#p7bed817b34)">
     <!-- 3.0 -->
     <g style="fill: #0000ff; opacity: 0.6" transform="translate(269.404599 128.222405) rotate(-33.026789) scale(0.08 -0.08)">
      <use xlink:href="#DejaVuSans-33"/>
      <use xlink:href="#DejaVuSans-2e" x="63.623047"/>
      <use xlink:href="#DejaVuSans-30" x="95.410156"/>
     </g>
    </g>
   </g>
   <g id="line2d_40">
    <defs>
     <path id="m97e6ae152f" d="M 0 3 
C 0.795609 3 1.55874 2.683901 2.12132 2.12132 
C 2.683901 1.55874 3 0.795609 3 0 
C 3 -0.795609 2.683901 -1.55874 2.12132 -2.12132 
C 1.55874 -2.683901 0.795609 -3 0 -3 
C -0.795609 -3 -1.55874 -2.683901 -2.12132 -2.12132 
C -2.683901 -1.55874 -3 -0.795609 -3 0 
C -3 0.795609 -2.683901 1.55874 -2.12132 2.12132 
C -1.55874 2.683901 -0.795609 3 0 3 
z
" style="stroke: #000000"/>
    </defs>
    <g clip-path="url(#p7bed817b34)">
     <use xlink:href="#m97e6ae152f" x="204.338" y="299.898" style="stroke: #000000"/>
    </g>
   </g>
   <g id="line2d_41">
    <defs>
     <path id="m16a3bf125c" d="M 0 6 
C 1.591219 6 3.117479 5.367802 4.242641 4.242641 
C 5.367802 3.117479 6 1.591219 6 0 
C 6 -1.591219 5.367802 -3.117479 4.242641 -4.242641 
C 3.117479 -5.367802 1.591219 -6 0 -6 
C -1.591219 -6 -3.117479 -5.367802 -4.242641 -4.242641 
C -5.367802 -3.117479 -6 -1.591219 -6 0 
C -6 1.591219 -5.367802 3.117479 -4.242641 4.242641 
C -3.117479 5.367802 -1.591219 6 0 6 
z
" style="stroke: #0000ff"/>
    </defs>
    <g clip-path="url(#p7bed817b34)">
     <use xlink:href="#m16a3bf125c" x="354.9296" y="199.5036" style="fill: #0000ff; stroke: #0000ff"/>
    </g>
   </g>
   <g id="line2d_42">
    <defs>
     <path id="m5b6d78d494" d="M 0 6 
C 1.591219 6 3.117479 5.367802 4.242641 4.242641 
C 5.367802 3.117479 6 1.591219 6 0 
C 6 -1.591219 5.367802 -3.117479 4.242641 -4.242641 
C 3.117479 -5.367802 1.591219 -6 0 -6 
C -1.591219 -6 -3.117479 -5.367802 -4.242641 -4.242641 
C -5.367802 -3.117479 -6 -1.591219 -6 0 
C -6 1.591219 -5.367802 3.117479 -4.242641 4.242641 
C -3.117479 5.367802 -1.591219 6 0 6 
z
" style="stroke: #ff0000"/>
    </defs>
    <g clip-path="url(#p7bed817b34)">
     <use xlink:href="#m5b6d78d494" x="321.4648" y="299.898" style="fill: #ff0000; stroke: #ff0000"/>
    </g>
   </g>
   <g id="legend_1">
    <g id="patch_9">
     <path d="M 251.824 131.167937 
L 447.624 131.167937 
Q 449.824 131.167937 449.824 128.967938 
L 449.824 56.612 
Q 449.824 54.412 447.624 54.412 
L 251.824 54.412 
Q 249.624 54.412 249.624 56.612 
L 249.624 128.967938 
Q 249.624 131.167937 251.824 131.167937 
z
" style="fill: #ffffff; opacity: 0.8; stroke: #cccccc; stroke-linejoin: miter"/>
    </g>
    <g id="line2d_43">
     <path d="M 254.024 63.320281 
L 265.024 63.320281 
L 276.024 63.320281 
" style="fill: none; stroke: #0000ff; stroke-opacity: 0.6; stroke-width: 1.5; stroke-linecap: square"/>
    </g>
    <g id="text_30">
     <!-- MSE contours -->
     <g transform="translate(284.824 67.170281) scale(0.11 -0.11)">
      <use xlink:href="#DejaVuSans-4d"/>
      <use xlink:href="#DejaVuSans-53" x="86.279297"/>
      <use xlink:href="#DejaVuSans-45" x="149.755859"/>
      <use xlink:href="#DejaVuSans-20" x="212.939453"/>
      <use xlink:href="#DejaVuSans-63" x="244.726562"/>
      <use xlink:href="#DejaVuSans-6f" x="299.707031"/>
      <use xlink:href="#DejaVuSans-6e" x="360.888672"/>
      <use xlink:href="#DejaVuSans-74" x="424.267578"/>
      <use xlink:href="#DejaVuSans-6f" x="463.476562"/>
      <use xlink:href="#DejaVuSans-75" x="524.658203"/>
      <use xlink:href="#DejaVuSans-72" x="588.037109"/>
      <use xlink:href="#DejaVuSans-73" x="629.150391"/>
     </g>
    </g>
    <g id="patch_10">
     <path d="M 254.024 83.427937 
L 276.024 83.427937 
L 276.024 75.727937 
L 254.024 75.727937 
L 254.024 83.427937 
z
" style="fill: none; stroke-dasharray: 9.25,4; stroke-dashoffset: 0; stroke: #ff0000; stroke-width: 2.5; stroke-linejoin: miter"/>
    </g>
    <g id="text_31">
     <!-- LASSO constraint: $||\beta||_1 \leq 1.4$ -->
     <g transform="translate(284.824 83.427937) scale(0.11 -0.11)">
      <defs>
       <path id="DejaVuSans-7c" d="M 1344 4891 
L 1344 -1509 
L 813 -1509 
L 813 4891 
L 1344 4891 
z
" transform="scale(0.015625)"/>
       <path id="DejaVuSans-2264" d="M 4684 3175 
L 1684 2309 
L 4684 1453 
L 4684 897 
L 678 2047 
L 678 2578 
L 4684 3725 
L 4684 3175 
z
M 678 531 
L 4684 531 
L 4684 0 
L 678 0 
L 678 531 
z
" transform="scale(0.015625)"/>
       <path id="DejaVuSans-34" d="M 2419 4116 
L 825 1625 
L 2419 1625 
L 2419 4116 
z
M 2253 4666 
L 3047 4666 
L 3047 1625 
L 3713 1625 
L 3713 1100 
L 3047 1100 
L 3047 0 
L 2419 0 
L 2419 1100 
L 313 1100 
L 313 1709 
L 2253 4666 
z
" transform="scale(0.015625)"/>
      </defs>
      <use xlink:href="#DejaVuSans-4c" transform="translate(0 0.390625)"/>
      <use xlink:href="#DejaVuSans-41" transform="translate(55.712891 0.390625)"/>
      <use xlink:href="#DejaVuSans-53" transform="translate(124.121094 0.390625)"/>
      <use xlink:href="#DejaVuSans-53" transform="translate(187.597656 0.390625)"/>
      <use xlink:href="#DejaVuSans-4f" transform="translate(251.074219 0.390625)"/>
      <use xlink:href="#DejaVuSans-20" transform="translate(329.785156 0.390625)"/>
      <use xlink:href="#DejaVuSans-63" transform="translate(361.572266 0.390625)"/>
      <use xlink:href="#DejaVuSans-6f" transform="translate(416.552734 0.390625)"/>
      <use xlink:href="#DejaVuSans-6e" transform="translate(477.734375 0.390625)"/>
      <use xlink:href="#DejaVuSans-73" transform="translate(541.113281 0.390625)"/>
      <use xlink:href="#DejaVuSans-74" transform="translate(593.212891 0.390625)"/>
      <use xlink:href="#DejaVuSans-72" transform="translate(632.421875 0.390625)"/>
      <use xlink:href="#DejaVuSans-61" transform="translate(673.535156 0.390625)"/>
      <use xlink:href="#DejaVuSans-69" transform="translate(734.814453 0.390625)"/>
      <use xlink:href="#DejaVuSans-6e" transform="translate(762.597656 0.390625)"/>
      <use xlink:href="#DejaVuSans-74" transform="translate(825.976562 0.390625)"/>
      <use xlink:href="#DejaVuSans-3a" transform="translate(865.185547 0.390625)"/>
      <use xlink:href="#DejaVuSans-20" transform="translate(898.876953 0.390625)"/>
      <use xlink:href="#DejaVuSans-7c" transform="translate(930.664062 0.390625)"/>
      <use xlink:href="#DejaVuSans-7c" transform="translate(964.355469 0.390625)"/>
      <use xlink:href="#DejaVuSans-Oblique-3b2" transform="translate(998.046875 0.390625)"/>
      <use xlink:href="#DejaVuSans-7c" transform="translate(1061.865234 0.390625)"/>
      <use xlink:href="#DejaVuSans-7c" transform="translate(1095.556641 0.390625)"/>
      <use xlink:href="#DejaVuSans-31" transform="translate(1130.205078 -16.015625) scale(0.7)"/>
      <use xlink:href="#DejaVuSans-2264" transform="translate(1196.958008 0.390625)"/>
      <use xlink:href="#DejaVuSans-31" transform="translate(1300.229492 0.390625)"/>
      <use xlink:href="#DejaVuSans-2e" transform="translate(1363.852539 0.390625)"/>
      <use xlink:href="#DejaVuSans-34" transform="translate(1395.639648 0.390625)"/>
     </g>
    </g>
    <g id="line2d_44">
     <g>
      <use xlink:href="#m16a3bf125c" x="265.024" y="100.257937" style="fill: #0000ff; stroke: #0000ff"/>
     </g>
    </g>
    <g id="text_32">
     <!-- $\hat \beta_\mathrm{OLS}$ -->
     <g transform="translate(284.824 104.107937) scale(0.11 -0.11)">
      <defs>
       <path id="DejaVuSans-302" d="M -1831 5119 
L -1369 5119 
L -603 3944 
L -1038 3944 
L -1600 4709 
L -2163 3944 
L -2597 3944 
L -1831 5119 
z
M -1600 3584 
L -1600 3584 
z
" transform="scale(0.015625)"/>
      </defs>
      <use xlink:href="#DejaVuSans-302" transform="translate(62.785156 34.015625)"/>
      <use xlink:href="#DejaVuSans-Oblique-3b2" transform="translate(0 0.90625)"/>
      <use xlink:href="#DejaVuSans-4f" transform="translate(64.775391 -15.5) scale(0.7)"/>
      <use xlink:href="#DejaVuSans-4c" transform="translate(119.873047 -15.5) scale(0.7)"/>
      <use xlink:href="#DejaVuSans-53" transform="translate(158.87207 -15.5) scale(0.7)"/>
     </g>
    </g>
    <g id="line2d_45">
     <g>
      <use xlink:href="#m5b6d78d494" x="265.024" y="120.607938" style="fill: #ff0000; stroke: #ff0000"/>
     </g>
    </g>
    <g id="text_33">
     <!-- $\hat \beta_\mathrm{LASSO}$ -->
     <g transform="translate(284.824 124.457938) scale(0.11 -0.11)">
      <use xlink:href="#DejaVuSans-302" transform="translate(62.785156 34.015625)"/>
      <use xlink:href="#DejaVuSans-Oblique-3b2" transform="translate(0 0.90625)"/>
      <use xlink:href="#DejaVuSans-4c" transform="translate(64.775391 -15.5) scale(0.7)"/>
      <use xlink:href="#DejaVuSans-41" transform="translate(103.774414 -15.5) scale(0.7)"/>
      <use xlink:href="#DejaVuSans-53" transform="translate(151.660156 -15.5) scale(0.7)"/>
      <use xlink:href="#DejaVuSans-53" transform="translate(196.09375 -15.5) scale(0.7)"/>
      <use xlink:href="#DejaVuSans-4f" transform="translate(240.527344 -15.5) scale(0.7)"/>
     </g>
    </g>
   </g>
  </g>
 </g>
 <defs>
  <clipPath id="p7bed817b34">
   <rect x="120.676" y="48.912" width="334.648" height="334.648"/>
  </clipPath>
 </defs>
</svg>
