<?xml version="1.0" encoding="utf-8" standalone="no"?>
<!DOCTYPE svg PUBLIC "-//W3C//DTD SVG 1.1//EN"
  "http://www.w3.org/Graphics/SVG/1.1/DTD/svg11.dtd">
<svg xmlns:xlink="http://www.w3.org/1999/xlink" width="360pt" height="144pt" viewBox="0 0 360 144" xmlns="http://www.w3.org/2000/svg" version="1.1">
 <metadata>
  <rdf:RDF xmlns:dc="http://purl.org/dc/elements/1.1/" xmlns:cc="http://creativecommons.org/ns#" xmlns:rdf="http://www.w3.org/1999/02/22-rdf-syntax-ns#">
   <cc:Work>
    <dc:type rdf:resource="http://purl.org/dc/dcmitype/StillImage"/>
    <dc:date>2026-07-07T07:50:30.141013</dc:date>
    <dc:format>image/svg+xml</dc:format>
    <dc:creator>
     <cc:Agent>
      <dc:title>Matplotlib v3.10.7, https://matplotlib.org/</dc:title>
     </cc:Agent>
    </dc:creator>
   </cc:Work>
  </rdf:RDF>
 </metadata>
 <defs>
  <style type="text/css">*{stroke-linejoin: round; stroke-linecap: butt}</style>
 </defs>
 <g id="figure_1">
  <g id="patch_1">
   <path d="M 0 144 
L 360 144 
L 360 0 
L 0 0 
L 0 144 
z
" style="fill: none"/>
  </g>
  <g id="axes_1">
   <g id="patch_2">
    <path d="M 39.94 102.04 
L 349.2 102.04 
L 349.2 26.88 
L 39.94 26.88 
L 39.94 102.04 
z
" style="fill: none"/>
   </g>
   <g id="matplotlib.axis_1">
    <g id="xtick_1">
     <g id="line2d_1">
      <defs>
       <path id="m1638f17038" d="M 0 0 
L 0 3.5 
" style="stroke: #000000; stroke-width: 0.8"/>
      </defs>
      <g>
       <use xlink:href="#m1638f17038" x="82.111818" y="102.04" style="stroke: #000000; stroke-width: 0.8"/>
      </g>
     </g>
     <g id="text_1">
      <!-- −4 -->
      <g transform="translate(74.740724 116.638437) scale(0.1 -0.1)">
       <defs>
        <path id="DejaVuSans-2212" d="M 678 2272 
L 4684 2272 
L 4684 1741 
L 678 1741 
L 678 2272 
z
" transform="scale(0.015625)"/>
        <path id="DejaVuSans-34" d="M 2419 4116 
L 825 1625 
L 2419 1625 
L 2419 4116 
z
M 2253 4666 
L 3047 4666 
L 3047 1625 
L 3713 1625 
L 3713 1100 
L 3047 1100 
L 3047 0 
L 2419 0 
L 2419 1100 
L 313 1100 
L 313 1709 
L 2253 4666 
z
" transform="scale(0.015625)"/>
       </defs>
       <use xlink:href="#DejaVuSans-2212"/>
       <use xlink:href="#DejaVuSans-34" transform="translate(83.789062 0)"/>
      </g>
     </g>
    </g>
    <g id="xtick_2">
     <g id="line2d_2">
      <g>
       <use xlink:href="#m1638f17038" x="138.340909" y="102.04" style="stroke: #000000; stroke-width: 0.8"/>
      </g>
     </g>
     <g id="text_2">
      <!-- −2 -->
      <g transform="translate(130.969815 116.638437) scale(0.1 -0.1)">
       <defs>
        <path id="DejaVuSans-32" d="M 1228 531 
L 3431 531 
L 3431 0 
L 469 0 
L 469 531 
Q 828 903 1448 1529 
Q 2069 2156 2228 2338 
Q 2531 2678 2651 2914 
Q 2772 3150 2772 3378 
Q 2772 3750 2511 3984 
Q 2250 4219 1831 4219 
Q 1534 4219 1204 4116 
Q 875 4013 500 3803 
L 500 4441 
Q 881 4594 1212 4672 
Q 1544 4750 1819 4750 
Q 2544 4750 2975 4387 
Q 3406 4025 3406 3419 
Q 3406 3131 3298 2873 
Q 3191 2616 2906 2266 
Q 2828 2175 2409 1742 
Q 1991 1309 1228 531 
z
" transform="scale(0.015625)"/>
       </defs>
       <use xlink:href="#DejaVuSans-2212"/>
       <use xlink:href="#DejaVuSans-32" transform="translate(83.789062 0)"/>
      </g>
     </g>
    </g>
    <g id="xtick_3">
     <g id="line2d_3">
      <g>
       <use xlink:href="#m1638f17038" x="194.57" y="102.04" style="stroke: #000000; stroke-width: 0.8"/>
      </g>
     </g>
     <g id="text_3">
      <!-- 0 -->
      <g transform="translate(191.38875 116.638437) scale(0.1 -0.1)">
       <defs>
        <path id="DejaVuSans-30" d="M 2034 4250 
Q 1547 4250 1301 3770 
Q 1056 3291 1056 2328 
Q 1056 1369 1301 889 
Q 1547 409 2034 409 
Q 2525 409 2770 889 
Q 3016 1369 3016 2328 
Q 3016 3291 2770 3770 
Q 2525 4250 2034 4250 
z
M 2034 4750 
Q 2819 4750 3233 4129 
Q 3647 3509 3647 2328 
Q 3647 1150 3233 529 
Q 2819 -91 2034 -91 
Q 1250 -91 836 529 
Q 422 1150 422 2328 
Q 422 3509 836 4129 
Q 1250 4750 2034 4750 
z
" transform="scale(0.015625)"/>
       </defs>
       <use xlink:href="#DejaVuSans-30"/>
      </g>
     </g>
    </g>
    <g id="xtick_4">
     <g id="line2d_4">
      <g>
       <use xlink:href="#m1638f17038" x="250.799091" y="102.04" style="stroke: #000000; stroke-width: 0.8"/>
      </g>
     </g>
     <g id="text_4">
      <!-- 2 -->
      <g transform="translate(247.617841 116.638437) scale(0.1 -0.1)">
       <use xlink:href="#DejaVuSans-32"/>
      </g>
     </g>
    </g>
    <g id="xtick_5">
     <g id="line2d_5">
      <g>
       <use xlink:href="#m1638f17038" x="307.028182" y="102.04" style="stroke: #000000; stroke-width: 0.8"/>
      </g>
     </g>
     <g id="text_5">
      <!-- 4 -->
      <g transform="translate(303.846932 116.638437) scale(0.1 -0.1)">
       <use xlink:href="#DejaVuSans-34"/>
      </g>
     </g>
    </g>
    <g id="text_6">
     <!-- $z$ -->
     <g transform="translate(191.92 130.316563) scale(0.1 -0.1)">
      <defs>
       <path id="DejaVuSans-Oblique-7a" d="M 744 3500 
L 3475 3500 
L 3372 2975 
L 738 459 
L 2913 459 
L 2822 0 
L -19 0 
L 84 525 
L 2719 3041 
L 653 3041 
L 744 3500 
z
" transform="scale(0.015625)"/>
      </defs>
      <use xlink:href="#DejaVuSans-Oblique-7a" transform="translate(0 0.3125)"/>
     </g>
    </g>
   </g>
   <g id="matplotlib.axis_2">
    <g id="ytick_1">
     <g id="line2d_6">
      <defs>
       <path id="meb5e3ec724" d="M 0 0 
L -3.5 0 
" style="stroke: #000000; stroke-width: 0.8"/>
      </defs>
      <g>
       <use xlink:href="#meb5e3ec724" x="39.94" y="98.623636" style="stroke: #000000; stroke-width: 0.8"/>
      </g>
     </g>
     <g id="text_7">
      <!-- 0.0 -->
      <g transform="translate(17.036875 102.422855) scale(0.1 -0.1)">
       <defs>
        <path id="DejaVuSans-2e" d="M 684 794 
L 1344 794 
L 1344 0 
L 684 0 
L 684 794 
z
" transform="scale(0.015625)"/>
       </defs>
       <use xlink:href="#DejaVuSans-30"/>
       <use xlink:href="#DejaVuSans-2e" transform="translate(63.623047 0)"/>
       <use xlink:href="#DejaVuSans-30" transform="translate(95.410156 0)"/>
      </g>
     </g>
    </g>
    <g id="ytick_2">
     <g id="line2d_7">
      <g>
       <use xlink:href="#meb5e3ec724" x="39.94" y="64.46" style="stroke: #000000; stroke-width: 0.8"/>
      </g>
     </g>
     <g id="text_8">
      <!-- 0.5 -->
      <g transform="translate(17.036875 68.259219) scale(0.1 -0.1)">
       <defs>
        <path id="DejaVuSans-35" d="M 691 4666 
L 3169 4666 
L 3169 4134 
L 1269 4134 
L 1269 2991 
Q 1406 3038 1543 3061 
Q 1681 3084 1819 3084 
Q 2600 3084 3056 2656 
Q 3513 2228 3513 1497 
Q 3513 744 3044 326 
Q 2575 -91 1722 -91 
Q 1428 -91 1123 -41 
Q 819 9 494 109 
L 494 744 
Q 775 591 1075 516 
Q 1375 441 1709 441 
Q 2250 441 2565 725 
Q 2881 1009 2881 1497 
Q 2881 1984 2565 2268 
Q 2250 2553 1709 2553 
Q 1456 2553 1204 2497 
Q 953 2441 691 2322 
L 691 4666 
z
" transform="scale(0.015625)"/>
       </defs>
       <use xlink:href="#DejaVuSans-30"/>
       <use xlink:href="#DejaVuSans-2e" transform="translate(63.623047 0)"/>
       <use xlink:href="#DejaVuSans-35" transform="translate(95.410156 0)"/>
      </g>
     </g>
    </g>
    <g id="ytick_3">
     <g id="line2d_8">
      <g>
       <use xlink:href="#meb5e3ec724" x="39.94" y="30.296364" style="stroke: #000000; stroke-width: 0.8"/>
      </g>
     </g>
     <g id="text_9">
      <!-- 1.0 -->
      <g transform="translate(17.036875 34.095582) scale(0.1 -0.1)">
       <defs>
        <path id="DejaVuSans-31" d="M 794 531 
L 1825 531 
L 1825 4091 
L 703 3866 
L 703 4441 
L 1819 4666 
L 2450 4666 
L 2450 531 
L 3481 531 
L 3481 0 
L 794 0 
L 794 531 
z
" transform="scale(0.015625)"/>
       </defs>
       <use xlink:href="#DejaVuSans-31"/>
       <use xlink:href="#DejaVuSans-2e" transform="translate(63.623047 0)"/>
       <use xlink:href="#DejaVuSans-30" transform="translate(95.410156 0)"/>
      </g>
     </g>
    </g>
   </g>
   <g id="line2d_9">
    <path d="M 53.997273 98.166332 
L 56.837126 98.118086 
L 59.676979 98.064792 
L 62.516832 98.00593 
L 65.356685 97.940931 
L 68.196538 97.869169 
L 71.036391 97.789957 
L 73.876244 97.702542 
L 76.716097 97.606099 
L 79.55595 97.499726 
L 82.395803 97.382438 
L 85.235657 97.25316 
L 88.07551 97.11072 
L 90.915363 96.953845 
L 93.755216 96.781152 
L 96.595069 96.591144 
L 99.434922 96.382202 
L 102.274775 96.15258 
L 105.114628 95.900405 
L 107.954481 95.623667 
L 110.794334 95.320223 
L 113.634187 94.987794 
L 116.47404 94.623969 
L 119.313893 94.226213 
L 122.153747 93.791872 
L 124.9936 93.318191 
L 127.833453 92.80233 
L 130.673306 92.24139 
L 133.513159 91.632444 
L 136.353012 90.972573 
L 139.192865 90.258913 
L 142.032718 89.488708 
L 144.872571 88.659369 
L 147.712424 87.768544 
L 150.552277 86.814192 
L 153.39213 85.794666 
L 156.231983 84.708792 
L 159.071837 83.555961 
L 161.91169 82.336209 
L 164.751543 81.050296 
L 167.591396 79.699777 
L 170.431249 78.287056 
L 173.271102 76.815428 
L 176.110955 75.289086 
L 178.950808 73.713122 
L 181.790661 72.093483 
L 184.630514 70.436903 
L 187.470367 68.750813 
L 190.31022 67.043214 
L 193.150073 65.322535 
L 195.989927 63.597465 
L 198.82978 61.876786 
L 201.669633 60.169187 
L 204.509486 58.483097 
L 207.349339 56.826517 
L 210.189192 55.206878 
L 213.029045 53.630914 
L 215.868898 52.104572 
L 218.708751 50.632944 
L 221.548604 49.220223 
L 224.388457 47.869704 
L 227.22831 46.583791 
L 230.068163 45.364039 
L 232.908017 44.211208 
L 235.74787 43.125334 
L 238.587723 42.105808 
L 241.427576 41.151456 
L 244.267429 40.260631 
L 247.107282 39.431292 
L 249.947135 38.661087 
L 252.786988 37.947427 
L 255.626841 37.287556 
L 258.466694 36.67861 
L 261.306547 36.11767 
L 264.1464 35.601809 
L 266.986253 35.128128 
L 269.826107 34.693787 
L 272.66596 34.296031 
L 275.505813 33.932206 
L 278.345666 33.599777 
L 281.185519 33.296333 
L 284.025372 33.019595 
L 286.865225 32.76742 
L 289.705078 32.537798 
L 292.544931 32.328856 
L 295.384784 32.138848 
L 298.224637 31.966155 
L 301.06449 31.80928 
L 303.904343 31.66684 
L 306.744197 31.537562 
L 309.58405 31.420274 
L 312.423903 31.313901 
L 315.263756 31.217458 
L 318.103609 31.130043 
L 320.943462 31.050831 
L 323.783315 30.979069 
L 326.623168 30.91407 
L 329.463021 30.855208 
L 332.302874 30.801914 
L 335.142727 30.753668 
" clip-path="url(#pa03f8f13ac)" style="fill: none; stroke: #1f77b4; stroke-width: 1.5; stroke-linecap: square"/>
   </g>
   <g id="line2d_10">
    <path d="M 53.997273 98.623636 
L 56.837126 98.623636 
L 59.676979 98.623636 
L 62.516832 98.623636 
L 65.356685 98.623636 
L 68.196538 98.623636 
L 71.036391 98.623636 
L 73.876244 98.623636 
L 76.716097 98.623636 
L 79.55595 98.623636 
L 82.395803 98.623636 
L 85.235657 98.623636 
L 88.07551 98.623636 
L 90.915363 98.623636 
L 93.755216 98.623636 
L 96.595069 98.623636 
L 99.434922 98.623636 
L 102.274775 98.623636 
L 105.114628 98.623636 
L 107.954481 98.623636 
L 110.794334 98.623636 
L 113.634187 98.623636 
L 116.47404 98.623636 
L 119.313893 98.623636 
L 122.153747 98.623636 
L 124.9936 98.623636 
L 127.833453 98.623636 
L 130.673306 98.623636 
L 133.513159 98.623636 
L 136.353012 98.623636 
L 139.192865 98.623636 
L 142.032718 98.623636 
L 144.872571 98.623636 
L 147.712424 98.623636 
L 150.552277 98.623636 
L 153.39213 98.623636 
L 156.231983 98.623636 
L 159.071837 98.623636 
L 161.91169 98.623636 
L 164.751543 98.623636 
L 167.591396 98.623636 
L 170.431249 98.623636 
L 173.271102 98.623636 
L 176.110955 98.623636 
L 178.950808 98.623636 
L 181.790661 98.623636 
L 184.630514 98.623636 
L 187.470367 98.623636 
L 190.31022 98.623636 
L 193.150073 98.623636 
L 195.989927 30.296364 
L 198.82978 30.296364 
L 201.669633 30.296364 
L 204.509486 30.296364 
L 207.349339 30.296364 
L 210.189192 30.296364 
L 213.029045 30.296364 
L 215.868898 30.296364 
L 218.708751 30.296364 
L 221.548604 30.296364 
L 224.388457 30.296364 
L 227.22831 30.296364 
L 230.068163 30.296364 
L 232.908017 30.296364 
L 235.74787 30.296364 
L 238.587723 30.296364 
L 241.427576 30.296364 
L 244.267429 30.296364 
L 247.107282 30.296364 
L 249.947135 30.296364 
L 252.786988 30.296364 
L 255.626841 30.296364 
L 258.466694 30.296364 
L 261.306547 30.296364 
L 264.1464 30.296364 
L 266.986253 30.296364 
L 269.826107 30.296364 
L 272.66596 30.296364 
L 275.505813 30.296364 
L 278.345666 30.296364 
L 281.185519 30.296364 
L 284.025372 30.296364 
L 286.865225 30.296364 
L 289.705078 30.296364 
L 292.544931 30.296364 
L 295.384784 30.296364 
L 298.224637 30.296364 
L 301.06449 30.296364 
L 303.904343 30.296364 
L 306.744197 30.296364 
L 309.58405 30.296364 
L 312.423903 30.296364 
L 315.263756 30.296364 
L 318.103609 30.296364 
L 320.943462 30.296364 
L 323.783315 30.296364 
L 326.623168 30.296364 
L 329.463021 30.296364 
L 332.302874 30.296364 
L 335.142727 30.296364 
" clip-path="url(#pa03f8f13ac)" style="fill: none; stroke: #ff7f0e; stroke-width: 1.5; stroke-linecap: square"/>
   </g>
   <g id="patch_3">
    <path d="M 39.94 102.04 
L 39.94 26.88 
" style="fill: none; stroke: #000000; stroke-width: 0.8; stroke-linejoin: miter; stroke-linecap: square"/>
   </g>
   <g id="patch_4">
    <path d="M 349.2 102.04 
L 349.2 26.88 
" style="fill: none; stroke: #000000; stroke-width: 0.8; stroke-linejoin: miter; stroke-linecap: square"/>
   </g>
   <g id="patch_5">
    <path d="M 39.94 102.04 
L 349.2 102.04 
" style="fill: none; stroke: #000000; stroke-width: 0.8; stroke-linejoin: miter; stroke-linecap: square"/>
   </g>
   <g id="patch_6">
    <path d="M 39.94 26.88 
L 349.2 26.88 
" style="fill: none; stroke: #000000; stroke-width: 0.8; stroke-linejoin: miter; stroke-linecap: square"/>
   </g>
   <g id="text_10">
    <!-- Logistic Function and Indicator Function -->
    <g transform="translate(75.275 20.88) scale(0.12 -0.12)">
     <defs>
      <path id="DejaVuSans-4c" d="M 628 4666 
L 1259 4666 
L 1259 531 
L 3531 531 
L 3531 0 
L 628 0 
L 628 4666 
z
" transform="scale(0.015625)"/>
      <path id="DejaVuSans-6f" d="M 1959 3097 
Q 1497 3097 1228 2736 
Q 959 2375 959 1747 
Q 959 1119 1226 758 
Q 1494 397 1959 397 
Q 2419 397 2687 759 
Q 2956 1122 2956 1747 
Q 2956 2369 2687 2733 
Q 2419 3097 1959 3097 
z
M 1959 3584 
Q 2709 3584 3137 3096 
Q 3566 2609 3566 1747 
Q 3566 888 3137 398 
Q 2709 -91 1959 -91 
Q 1206 -91 779 398 
Q 353 888 353 1747 
Q 353 2609 779 3096 
Q 1206 3584 1959 3584 
z
" transform="scale(0.015625)"/>
      <path id="DejaVuSans-67" d="M 2906 1791 
Q 2906 2416 2648 2759 
Q 2391 3103 1925 3103 
Q 1463 3103 1205 2759 
Q 947 2416 947 1791 
Q 947 1169 1205 825 
Q 1463 481 1925 481 
Q 2391 481 2648 825 
Q 2906 1169 2906 1791 
z
M 3481 434 
Q 3481 -459 3084 -895 
Q 2688 -1331 1869 -1331 
Q 1566 -1331 1297 -1286 
Q 1028 -1241 775 -1147 
L 775 -588 
Q 1028 -725 1275 -790 
Q 1522 -856 1778 -856 
Q 2344 -856 2625 -561 
Q 2906 -266 2906 331 
L 2906 616 
Q 2728 306 2450 153 
Q 2172 0 1784 0 
Q 1141 0 747 490 
Q 353 981 353 1791 
Q 353 2603 747 3093 
Q 1141 3584 1784 3584 
Q 2172 3584 2450 3431 
Q 2728 3278 2906 2969 
L 2906 3500 
L 3481 3500 
L 3481 434 
z
" transform="scale(0.015625)"/>
      <path id="DejaVuSans-69" d="M 603 3500 
L 1178 3500 
L 1178 0 
L 603 0 
L 603 3500 
z
M 603 4863 
L 1178 4863 
L 1178 4134 
L 603 4134 
L 603 4863 
z
" transform="scale(0.015625)"/>
      <path id="DejaVuSans-73" d="M 2834 3397 
L 2834 2853 
Q 2591 2978 2328 3040 
Q 2066 3103 1784 3103 
Q 1356 3103 1142 2972 
Q 928 2841 928 2578 
Q 928 2378 1081 2264 
Q 1234 2150 1697 2047 
L 1894 2003 
Q 2506 1872 2764 1633 
Q 3022 1394 3022 966 
Q 3022 478 2636 193 
Q 2250 -91 1575 -91 
Q 1294 -91 989 -36 
Q 684 19 347 128 
L 347 722 
Q 666 556 975 473 
Q 1284 391 1588 391 
Q 1994 391 2212 530 
Q 2431 669 2431 922 
Q 2431 1156 2273 1281 
Q 2116 1406 1581 1522 
L 1381 1569 
Q 847 1681 609 1914 
Q 372 2147 372 2553 
Q 372 3047 722 3315 
Q 1072 3584 1716 3584 
Q 2034 3584 2315 3537 
Q 2597 3491 2834 3397 
z
" transform="scale(0.015625)"/>
      <path id="DejaVuSans-74" d="M 1172 4494 
L 1172 3500 
L 2356 3500 
L 2356 3053 
L 1172 3053 
L 1172 1153 
Q 1172 725 1289 603 
Q 1406 481 1766 481 
L 2356 481 
L 2356 0 
L 1766 0 
Q 1100 0 847 248 
Q 594 497 594 1153 
L 594 3053 
L 172 3053 
L 172 3500 
L 594 3500 
L 594 4494 
L 1172 4494 
z
" transform="scale(0.015625)"/>
      <path id="DejaVuSans-63" d="M 3122 3366 
L 3122 2828 
Q 2878 2963 2633 3030 
Q 2388 3097 2138 3097 
Q 1578 3097 1268 2742 
Q 959 2388 959 1747 
Q 959 1106 1268 751 
Q 1578 397 2138 397 
Q 2388 397 2633 464 
Q 2878 531 3122 666 
L 3122 134 
Q 2881 22 2623 -34 
Q 2366 -91 2075 -91 
Q 1284 -91 818 406 
Q 353 903 353 1747 
Q 353 2603 823 3093 
Q 1294 3584 2113 3584 
Q 2378 3584 2631 3529 
Q 2884 3475 3122 3366 
z
" transform="scale(0.015625)"/>
      <path id="DejaVuSans-20" transform="scale(0.015625)"/>
      <path id="DejaVuSans-46" d="M 628 4666 
L 3309 4666 
L 3309 4134 
L 1259 4134 
L 1259 2759 
L 3109 2759 
L 3109 2228 
L 1259 2228 
L 1259 0 
L 628 0 
L 628 4666 
z
" transform="scale(0.015625)"/>
      <path id="DejaVuSans-75" d="M 544 1381 
L 544 3500 
L 1119 3500 
L 1119 1403 
Q 1119 906 1312 657 
Q 1506 409 1894 409 
Q 2359 409 2629 706 
Q 2900 1003 2900 1516 
L 2900 3500 
L 3475 3500 
L 3475 0 
L 2900 0 
L 2900 538 
Q 2691 219 2414 64 
Q 2138 -91 1772 -91 
Q 1169 -91 856 284 
Q 544 659 544 1381 
z
M 1991 3584 
L 1991 3584 
z
" transform="scale(0.015625)"/>
      <path id="DejaVuSans-6e" d="M 3513 2113 
L 3513 0 
L 2938 0 
L 2938 2094 
Q 2938 2591 2744 2837 
Q 2550 3084 2163 3084 
Q 1697 3084 1428 2787 
Q 1159 2491 1159 1978 
L 1159 0 
L 581 0 
L 581 3500 
L 1159 3500 
L 1159 2956 
Q 1366 3272 1645 3428 
Q 1925 3584 2291 3584 
Q 2894 3584 3203 3211 
Q 3513 2838 3513 2113 
z
" transform="scale(0.015625)"/>
      <path id="DejaVuSans-61" d="M 2194 1759 
Q 1497 1759 1228 1600 
Q 959 1441 959 1056 
Q 959 750 1161 570 
Q 1363 391 1709 391 
Q 2188 391 2477 730 
Q 2766 1069 2766 1631 
L 2766 1759 
L 2194 1759 
z
M 3341 1997 
L 3341 0 
L 2766 0 
L 2766 531 
Q 2569 213 2275 61 
Q 1981 -91 1556 -91 
Q 1019 -91 701 211 
Q 384 513 384 1019 
Q 384 1609 779 1909 
Q 1175 2209 1959 2209 
L 2766 2209 
L 2766 2266 
Q 2766 2663 2505 2880 
Q 2244 3097 1772 3097 
Q 1472 3097 1187 3025 
Q 903 2953 641 2809 
L 641 3341 
Q 956 3463 1253 3523 
Q 1550 3584 1831 3584 
Q 2591 3584 2966 3190 
Q 3341 2797 3341 1997 
z
" transform="scale(0.015625)"/>
      <path id="DejaVuSans-64" d="M 2906 2969 
L 2906 4863 
L 3481 4863 
L 3481 0 
L 2906 0 
L 2906 525 
Q 2725 213 2448 61 
Q 2172 -91 1784 -91 
Q 1150 -91 751 415 
Q 353 922 353 1747 
Q 353 2572 751 3078 
Q 1150 3584 1784 3584 
Q 2172 3584 2448 3432 
Q 2725 3281 2906 2969 
z
M 947 1747 
Q 947 1113 1208 752 
Q 1469 391 1925 391 
Q 2381 391 2643 752 
Q 2906 1113 2906 1747 
Q 2906 2381 2643 2742 
Q 2381 3103 1925 3103 
Q 1469 3103 1208 2742 
Q 947 2381 947 1747 
z
" transform="scale(0.015625)"/>
      <path id="DejaVuSans-49" d="M 628 4666 
L 1259 4666 
L 1259 0 
L 628 0 
L 628 4666 
z
" transform="scale(0.015625)"/>
      <path id="DejaVuSans-72" d="M 2631 2963 
Q 2534 3019 2420 3045 
Q 2306 3072 2169 3072 
Q 1681 3072 1420 2755 
Q 1159 2438 1159 1844 
L 1159 0 
L 581 0 
L 581 3500 
L 1159 3500 
L 1159 2956 
Q 1341 3275 1631 3429 
Q 1922 3584 2338 3584 
Q 2397 3584 2469 3576 
Q 2541 3569 2628 3553 
L 2631 2963 
z
" transform="scale(0.015625)"/>
     </defs>
     <use xlink:href="#DejaVuSans-4c"/>
     <use xlink:href="#DejaVuSans-6f" transform="translate(53.962891 0)"/>
     <use xlink:href="#DejaVuSans-67" transform="translate(115.144531 0)"/>
     <use xlink:href="#DejaVuSans-69" transform="translate(178.621094 0)"/>
     <use xlink:href="#DejaVuSans-73" transform="translate(206.404297 0)"/>
     <use xlink:href="#DejaVuSans-74" transform="translate(258.503906 0)"/>
     <use xlink:href="#DejaVuSans-69" transform="translate(297.712891 0)"/>
     <use xlink:href="#DejaVuSans-63" transform="translate(325.496094 0)"/>
     <use xlink:href="#DejaVuSans-20" transform="translate(380.476562 0)"/>
     <use xlink:href="#DejaVuSans-46" transform="translate(412.263672 0)"/>
     <use xlink:href="#DejaVuSans-75" transform="translate(464.283203 0)"/>
     <use xlink:href="#DejaVuSans-6e" transform="translate(527.662109 0)"/>
     <use xlink:href="#DejaVuSans-63" transform="translate(591.041016 0)"/>
     <use xlink:href="#DejaVuSans-74" transform="translate(646.021484 0)"/>
     <use xlink:href="#DejaVuSans-69" transform="translate(685.230469 0)"/>
     <use xlink:href="#DejaVuSans-6f" transform="translate(713.013672 0)"/>
     <use xlink:href="#DejaVuSans-6e" transform="translate(774.195312 0)"/>
     <use xlink:href="#DejaVuSans-20" transform="translate(837.574219 0)"/>
     <use xlink:href="#DejaVuSans-61" transform="translate(869.361328 0)"/>
     <use xlink:href="#DejaVuSans-6e" transform="translate(930.640625 0)"/>
     <use xlink:href="#DejaVuSans-64" transform="translate(994.019531 0)"/>
     <use xlink:href="#DejaVuSans-20" transform="translate(1057.496094 0)"/>
     <use xlink:href="#DejaVuSans-49" transform="translate(1089.283203 0)"/>
     <use xlink:href="#DejaVuSans-6e" transform="translate(1118.775391 0)"/>
     <use xlink:href="#DejaVuSans-64" transform="translate(1182.154297 0)"/>
     <use xlink:href="#DejaVuSans-69" transform="translate(1245.630859 0)"/>
     <use xlink:href="#DejaVuSans-63" transform="translate(1273.414062 0)"/>
     <use xlink:href="#DejaVuSans-61" transform="translate(1328.394531 0)"/>
     <use xlink:href="#DejaVuSans-74" transform="translate(1389.673828 0)"/>
     <use xlink:href="#DejaVuSans-6f" transform="translate(1428.882812 0)"/>
     <use xlink:href="#DejaVuSans-72" transform="translate(1490.064453 0)"/>
     <use xlink:href="#DejaVuSans-20" transform="translate(1531.177734 0)"/>
     <use xlink:href="#DejaVuSans-46" transform="translate(1562.964844 0)"/>
     <use xlink:href="#DejaVuSans-75" transform="translate(1614.984375 0)"/>
     <use xlink:href="#DejaVuSans-6e" transform="translate(1678.363281 0)"/>
     <use xlink:href="#DejaVuSans-63" transform="translate(1741.742188 0)"/>
     <use xlink:href="#DejaVuSans-74" transform="translate(1796.722656 0)"/>
     <use xlink:href="#DejaVuSans-69" transform="translate(1835.931641 0)"/>
     <use xlink:href="#DejaVuSans-6f" transform="translate(1863.714844 0)"/>
     <use xlink:href="#DejaVuSans-6e" transform="translate(1924.896484 0)"/>
    </g>
   </g>
   <g id="legend_1">
    <g id="patch_7">
     <path d="M 46.94 64.23625 
L 113.84 64.23625 
Q 115.84 64.23625 115.84 62.23625 
L 115.84 33.88 
Q 115.84 31.88 113.84 31.88 
L 46.94 31.88 
Q 44.94 31.88 44.94 33.88 
L 44.94 62.23625 
Q 44.94 64.23625 46.94 64.23625 
z
" style="fill: #ffffff; opacity: 0.8; stroke: #cccccc; stroke-linejoin: miter"/>
    </g>
    <g id="line2d_11">
     <path d="M 48.94 39.978437 
L 58.94 39.978437 
L 68.94 39.978437 
" style="fill: none; stroke: #1f77b4; stroke-width: 1.5; stroke-linecap: square"/>
    </g>
    <g id="text_11">
     <!-- $\sigma(z)$ -->
     <g transform="translate(76.94 43.478437) scale(0.1 -0.1)">
      <defs>
       <path id="DejaVuSans-Oblique-3c3" d="M 2219 3044 
Q 1744 3044 1422 2700 
Q 1081 2341 969 1747 
Q 844 1119 1044 756 
Q 1241 397 1706 397 
Q 2166 397 2503 759 
Q 2844 1122 2966 1747 
Q 3075 2319 2881 2700 
Q 2700 3044 2219 3044 
z
M 2309 3503 
L 4219 3500 
L 4106 2925 
L 3463 2925 
Q 3706 2438 3575 1747 
Q 3406 888 2884 400 
Q 2359 -91 1609 -91 
Q 856 -91 525 400 
Q 194 888 363 1747 
Q 528 2609 1050 3097 
Q 1484 3503 2309 3503 
z
" transform="scale(0.015625)"/>
       <path id="DejaVuSans-28" d="M 1984 4856 
Q 1566 4138 1362 3434 
Q 1159 2731 1159 2009 
Q 1159 1288 1364 580 
Q 1569 -128 1984 -844 
L 1484 -844 
Q 1016 -109 783 600 
Q 550 1309 550 2009 
Q 550 2706 781 3412 
Q 1013 4119 1484 4856 
L 1984 4856 
z
" transform="scale(0.015625)"/>
       <path id="DejaVuSans-29" d="M 513 4856 
L 1013 4856 
Q 1481 4119 1714 3412 
Q 1947 2706 1947 2009 
Q 1947 1309 1714 600 
Q 1481 -109 1013 -844 
L 513 -844 
Q 928 -128 1133 580 
Q 1338 1288 1338 2009 
Q 1338 2731 1133 3434 
Q 928 4138 513 4856 
z
" transform="scale(0.015625)"/>
      </defs>
      <use xlink:href="#DejaVuSans-Oblique-3c3" transform="translate(0 0.125)"/>
      <use xlink:href="#DejaVuSans-28" transform="translate(63.378906 0.125)"/>
      <use xlink:href="#DejaVuSans-Oblique-7a" transform="translate(102.392578 0.125)"/>
      <use xlink:href="#DejaVuSans-29" transform="translate(154.882812 0.125)"/>
     </g>
    </g>
    <g id="line2d_12">
     <path d="M 48.94 54.656562 
L 58.94 54.656562 
L 68.94 54.656562 
" style="fill: none; stroke: #ff7f0e; stroke-width: 1.5; stroke-linecap: square"/>
    </g>
    <g id="text_12">
     <!-- $\mathbb{I}[z &gt; 0]$ -->
     <g transform="translate(76.94 58.156562) scale(0.1 -0.1)">
      <defs>
       <path id="STIXNonUnicode-Italic-e159" d="M 2240 4179 
L 1120 0 
L 134 0 
L 1254 4179 
L 2240 4179 
z
M 1933 3942 
L 1434 3942 
L 442 237 
L 941 237 
L 1933 3942 
z
" transform="scale(0.015625)"/>
       <path id="DejaVuSans-5b" d="M 550 4863 
L 1875 4863 
L 1875 4416 
L 1125 4416 
L 1125 -397 
L 1875 -397 
L 1875 -844 
L 550 -844 
L 550 4863 
z
" transform="scale(0.015625)"/>
       <path id="DejaVuSans-3e" d="M 678 3150 
L 678 3719 
L 4684 2266 
L 4684 1747 
L 678 294 
L 678 863 
L 3897 2003 
L 678 3150 
z
" transform="scale(0.015625)"/>
       <path id="DejaVuSans-5d" d="M 1947 4863 
L 1947 -844 
L 622 -844 
L 622 -397 
L 1369 -397 
L 1369 4416 
L 622 4416 
L 622 4863 
L 1947 4863 
z
" transform="scale(0.015625)"/>
      </defs>
      <use xlink:href="#STIXNonUnicode-Italic-e159" transform="translate(0 0.015625)"/>
      <use xlink:href="#DejaVuSans-5b" transform="translate(31.999985 0.015625)"/>
      <use xlink:href="#DejaVuSans-Oblique-7a" transform="translate(71.013657 0.015625)"/>
      <use xlink:href="#DejaVuSans-3e" transform="translate(142.986313 0.015625)"/>
      <use xlink:href="#DejaVuSans-30" transform="translate(246.257797 0.015625)"/>
      <use xlink:href="#DejaVuSans-5d" transform="translate(309.880844 0.015625)"/>
     </g>
    </g>
   </g>
  </g>
 </g>
 <defs>
  <clipPath id="pa03f8f13ac">
   <rect x="39.94" y="26.88" width="309.26" height="75.16"/>
  </clipPath>
 </defs>
</svg>
