<?xml version="1.0" encoding="utf-8" standalone="no"?>
<!DOCTYPE svg PUBLIC "-//W3C//DTD SVG 1.1//EN"
  "http://www.w3.org/Graphics/SVG/1.1/DTD/svg11.dtd">
<svg xmlns:xlink="http://www.w3.org/1999/xlink" width="360pt" height="144pt" viewBox="0 0 360 144" xmlns="http://www.w3.org/2000/svg" version="1.1">
 <metadata>
  <rdf:RDF xmlns:dc="http://purl.org/dc/elements/1.1/" xmlns:cc="http://creativecommons.org/ns#" xmlns:rdf="http://www.w3.org/1999/02/22-rdf-syntax-ns#">
   <cc:Work>
    <dc:type rdf:resource="http://purl.org/dc/dcmitype/StillImage"/>
    <dc:date>2025-07-09T13:21:40.485197</dc:date>
    <dc:format>image/svg+xml</dc:format>
    <dc:creator>
     <cc:Agent>
      <dc:title>Matplotlib v3.8.4, https://matplotlib.org/</dc:title>
     </cc:Agent>
    </dc:creator>
   </cc:Work>
  </rdf:RDF>
 </metadata>
 <defs>
  <style type="text/css">*{stroke-linejoin: round; stroke-linecap: butt}</style>
 </defs>
 <g id="figure_1">
  <g id="patch_1">
   <path d="M 0 144 
L 360 144 
L 360 0 
L 0 0 
L 0 144 
z
" style="fill: none"/>
  </g>
  <g id="axes_1">
   <g id="patch_2">
    <path d="M 40.12 102.04 
L 349.2 102.04 
L 349.2 25.44 
L 40.12 25.44 
L 40.12 102.04 
z
" style="fill: none"/>
   </g>
   <g id="matplotlib.axis_1">
    <g id="xtick_1">
     <g id="line2d_1">
      <defs>
       <path id="mbd8927fa8d" d="M 0 0 
L 0 3.5 
" style="stroke: #000000; stroke-width: 0.8"/>
      </defs>
      <g>
       <use xlink:href="#mbd8927fa8d" x="82.267273" y="102.04" style="stroke: #000000; stroke-width: 0.8"/>
      </g>
     </g>
     <g id="text_1">
      <!-- −4 -->
      <g transform="translate(74.896179 116.638437) scale(0.1 -0.1)">
       <defs>
        <path id="DejaVuSans-2212" d="M 678 2272 
L 4684 2272 
L 4684 1741 
L 678 1741 
L 678 2272 
z
" transform="scale(0.015625)"/>
        <path id="DejaVuSans-34" d="M 2419 4116 
L 825 1625 
L 2419 1625 
L 2419 4116 
z
M 2253 4666 
L 3047 4666 
L 3047 1625 
L 3713 1625 
L 3713 1100 
L 3047 1100 
L 3047 0 
L 2419 0 
L 2419 1100 
L 313 1100 
L 313 1709 
L 2253 4666 
z
" transform="scale(0.015625)"/>
       </defs>
       <use xlink:href="#DejaVuSans-2212"/>
       <use xlink:href="#DejaVuSans-34" x="83.789062"/>
      </g>
     </g>
    </g>
    <g id="xtick_2">
     <g id="line2d_2">
      <g>
       <use xlink:href="#mbd8927fa8d" x="138.463636" y="102.04" style="stroke: #000000; stroke-width: 0.8"/>
      </g>
     </g>
     <g id="text_2">
      <!-- −2 -->
      <g transform="translate(131.092543 116.638437) scale(0.1 -0.1)">
       <defs>
        <path id="DejaVuSans-32" d="M 1228 531 
L 3431 531 
L 3431 0 
L 469 0 
L 469 531 
Q 828 903 1448 1529 
Q 2069 2156 2228 2338 
Q 2531 2678 2651 2914 
Q 2772 3150 2772 3378 
Q 2772 3750 2511 3984 
Q 2250 4219 1831 4219 
Q 1534 4219 1204 4116 
Q 875 4013 500 3803 
L 500 4441 
Q 881 4594 1212 4672 
Q 1544 4750 1819 4750 
Q 2544 4750 2975 4387 
Q 3406 4025 3406 3419 
Q 3406 3131 3298 2873 
Q 3191 2616 2906 2266 
Q 2828 2175 2409 1742 
Q 1991 1309 1228 531 
z
" transform="scale(0.015625)"/>
       </defs>
       <use xlink:href="#DejaVuSans-2212"/>
       <use xlink:href="#DejaVuSans-32" x="83.789062"/>
      </g>
     </g>
    </g>
    <g id="xtick_3">
     <g id="line2d_3">
      <g>
       <use xlink:href="#mbd8927fa8d" x="194.66" y="102.04" style="stroke: #000000; stroke-width: 0.8"/>
      </g>
     </g>
     <g id="text_3">
      <!-- 0 -->
      <g transform="translate(191.47875 116.638437) scale(0.1 -0.1)">
       <defs>
        <path id="DejaVuSans-30" d="M 2034 4250 
Q 1547 4250 1301 3770 
Q 1056 3291 1056 2328 
Q 1056 1369 1301 889 
Q 1547 409 2034 409 
Q 2525 409 2770 889 
Q 3016 1369 3016 2328 
Q 3016 3291 2770 3770 
Q 2525 4250 2034 4250 
z
M 2034 4750 
Q 2819 4750 3233 4129 
Q 3647 3509 3647 2328 
Q 3647 1150 3233 529 
Q 2819 -91 2034 -91 
Q 1250 -91 836 529 
Q 422 1150 422 2328 
Q 422 3509 836 4129 
Q 1250 4750 2034 4750 
z
" transform="scale(0.015625)"/>
       </defs>
       <use xlink:href="#DejaVuSans-30"/>
      </g>
     </g>
    </g>
    <g id="xtick_4">
     <g id="line2d_4">
      <g>
       <use xlink:href="#mbd8927fa8d" x="250.856364" y="102.04" style="stroke: #000000; stroke-width: 0.8"/>
      </g>
     </g>
     <g id="text_4">
      <!-- 2 -->
      <g transform="translate(247.675114 116.638437) scale(0.1 -0.1)">
       <use xlink:href="#DejaVuSans-32"/>
      </g>
     </g>
    </g>
    <g id="xtick_5">
     <g id="line2d_5">
      <g>
       <use xlink:href="#mbd8927fa8d" x="307.052727" y="102.04" style="stroke: #000000; stroke-width: 0.8"/>
      </g>
     </g>
     <g id="text_5">
      <!-- 4 -->
      <g transform="translate(303.871477 116.638437) scale(0.1 -0.1)">
       <use xlink:href="#DejaVuSans-34"/>
      </g>
     </g>
    </g>
    <g id="text_6">
     <!-- $z$ -->
     <g transform="translate(192.01 130.316563) scale(0.1 -0.1)">
      <defs>
       <path id="DejaVuSans-Oblique-7a" d="M 744 3500 
L 3475 3500 
L 3372 2975 
L 738 459 
L 2913 459 
L 2822 0 
L -19 0 
L 84 525 
L 2719 3041 
L 653 3041 
L 744 3500 
z
" transform="scale(0.015625)"/>
      </defs>
      <use xlink:href="#DejaVuSans-Oblique-7a" transform="translate(0 0.3125)"/>
     </g>
    </g>
   </g>
   <g id="matplotlib.axis_2">
    <g id="ytick_1">
     <g id="line2d_6">
      <defs>
       <path id="m3aca4ab6e9" d="M 0 0 
L -3.5 0 
" style="stroke: #000000; stroke-width: 0.8"/>
      </defs>
      <g>
       <use xlink:href="#m3aca4ab6e9" x="40.12" y="98.558182" style="stroke: #000000; stroke-width: 0.8"/>
      </g>
     </g>
     <g id="text_7">
      <!-- 0.0 -->
      <g transform="translate(17.216875 102.357401) scale(0.1 -0.1)">
       <defs>
        <path id="DejaVuSans-2e" d="M 684 794 
L 1344 794 
L 1344 0 
L 684 0 
L 684 794 
z
" transform="scale(0.015625)"/>
       </defs>
       <use xlink:href="#DejaVuSans-30"/>
       <use xlink:href="#DejaVuSans-2e" x="63.623047"/>
       <use xlink:href="#DejaVuSans-30" x="95.410156"/>
      </g>
     </g>
    </g>
    <g id="ytick_2">
     <g id="line2d_7">
      <g>
       <use xlink:href="#m3aca4ab6e9" x="40.12" y="63.74" style="stroke: #000000; stroke-width: 0.8"/>
      </g>
     </g>
     <g id="text_8">
      <!-- 0.5 -->
      <g transform="translate(17.216875 67.539219) scale(0.1 -0.1)">
       <defs>
        <path id="DejaVuSans-35" d="M 691 4666 
L 3169 4666 
L 3169 4134 
L 1269 4134 
L 1269 2991 
Q 1406 3038 1543 3061 
Q 1681 3084 1819 3084 
Q 2600 3084 3056 2656 
Q 3513 2228 3513 1497 
Q 3513 744 3044 326 
Q 2575 -91 1722 -91 
Q 1428 -91 1123 -41 
Q 819 9 494 109 
L 494 744 
Q 775 591 1075 516 
Q 1375 441 1709 441 
Q 2250 441 2565 725 
Q 2881 1009 2881 1497 
Q 2881 1984 2565 2268 
Q 2250 2553 1709 2553 
Q 1456 2553 1204 2497 
Q 953 2441 691 2322 
L 691 4666 
z
" transform="scale(0.015625)"/>
       </defs>
       <use xlink:href="#DejaVuSans-30"/>
       <use xlink:href="#DejaVuSans-2e" x="63.623047"/>
       <use xlink:href="#DejaVuSans-35" x="95.410156"/>
      </g>
     </g>
    </g>
    <g id="ytick_3">
     <g id="line2d_8">
      <g>
       <use xlink:href="#m3aca4ab6e9" x="40.12" y="28.921818" style="stroke: #000000; stroke-width: 0.8"/>
      </g>
     </g>
     <g id="text_9">
      <!-- 1.0 -->
      <g transform="translate(17.216875 32.721037) scale(0.1 -0.1)">
       <defs>
        <path id="DejaVuSans-31" d="M 794 531 
L 1825 531 
L 1825 4091 
L 703 3866 
L 703 4441 
L 1819 4666 
L 2450 4666 
L 2450 531 
L 3481 531 
L 3481 0 
L 794 0 
L 794 531 
z
" transform="scale(0.015625)"/>
       </defs>
       <use xlink:href="#DejaVuSans-31"/>
       <use xlink:href="#DejaVuSans-2e" x="63.623047"/>
       <use xlink:href="#DejaVuSans-30" x="95.410156"/>
      </g>
     </g>
    </g>
   </g>
   <g id="line2d_9">
    <path d="M 54.169091 98.092116 
L 57.007291 98.042945 
L 59.845491 97.98863 
L 62.683691 97.928641 
L 65.521892 97.862397 
L 68.360092 97.78926 
L 71.198292 97.70853 
L 74.036492 97.61944 
L 76.874692 97.521149 
L 79.712893 97.412738 
L 82.551093 97.293203 
L 85.389293 97.161448 
L 88.227493 97.016279 
L 91.065693 96.856399 
L 93.903893 96.680398 
L 96.742094 96.486749 
L 99.580294 96.273803 
L 102.418494 96.039783 
L 105.256694 95.782776 
L 108.094894 95.500736 
L 110.933095 95.191478 
L 113.771295 94.85268 
L 116.609495 94.481885 
L 119.447695 94.076508 
L 122.285895 93.633846 
L 125.124096 93.151089 
L 127.962296 92.625345 
L 130.800496 92.053658 
L 133.638696 91.433045 
L 136.476896 90.760531 
L 139.315096 90.033198 
L 142.153297 89.248236 
L 144.991497 88.403008 
L 147.829697 87.495115 
L 150.667897 86.522479 
L 153.506097 85.483419 
L 156.344298 84.376741 
L 159.182498 83.201823 
L 162.020698 81.958701 
L 164.858898 80.648151 
L 167.697098 79.271757 
L 170.535298 77.831971 
L 173.373499 76.332147 
L 176.211699 74.776562 
L 179.049899 73.170404 
L 181.888099 71.519734 
L 184.726299 69.831415 
L 187.5645 68.113021 
L 190.4027 66.372706 
L 193.2409 64.61906 
L 196.0791 62.86094 
L 198.9173 61.107294 
L 201.7555 59.366979 
L 204.593701 57.648585 
L 207.431901 55.960266 
L 210.270101 54.309596 
L 213.108301 52.703438 
L 215.946501 51.147853 
L 218.784702 49.648029 
L 221.622902 48.208243 
L 224.461102 46.831849 
L 227.299302 45.521299 
L 230.137502 44.278177 
L 232.975702 43.103259 
L 235.813903 41.996581 
L 238.652103 40.957521 
L 241.490303 39.984885 
L 244.328503 39.076992 
L 247.166703 38.231764 
L 250.004904 37.446802 
L 252.843104 36.719469 
L 255.681304 36.046955 
L 258.519504 35.426342 
L 261.357704 34.854655 
L 264.195904 34.328911 
L 267.034105 33.846154 
L 269.872305 33.403492 
L 272.710505 32.998115 
L 275.548705 32.62732 
L 278.386905 32.288522 
L 281.225106 31.979264 
L 284.063306 31.697224 
L 286.901506 31.440217 
L 289.739706 31.206197 
L 292.577906 30.993251 
L 295.416107 30.799602 
L 298.254307 30.623601 
L 301.092507 30.463721 
L 303.930707 30.318552 
L 306.768907 30.186797 
L 309.607107 30.067262 
L 312.445308 29.958851 
L 315.283508 29.86056 
L 318.121708 29.77147 
L 320.959908 29.69074 
L 323.798108 29.617603 
L 326.636309 29.551359 
L 329.474509 29.49137 
L 332.312709 29.437055 
L 335.150909 29.387884 
" clip-path="url(#pbd7f3dbf2b)" style="fill: none; stroke: #1f77b4; stroke-width: 1.5; stroke-linecap: square"/>
   </g>
   <g id="line2d_10">
    <path d="M 54.169091 98.558182 
L 57.007291 98.558182 
L 59.845491 98.558182 
L 62.683691 98.558182 
L 65.521892 98.558182 
L 68.360092 98.558182 
L 71.198292 98.558182 
L 74.036492 98.558182 
L 76.874692 98.558182 
L 79.712893 98.558182 
L 82.551093 98.558182 
L 85.389293 98.558182 
L 88.227493 98.558182 
L 91.065693 98.558182 
L 93.903893 98.558182 
L 96.742094 98.558182 
L 99.580294 98.558182 
L 102.418494 98.558182 
L 105.256694 98.558182 
L 108.094894 98.558182 
L 110.933095 98.558182 
L 113.771295 98.558182 
L 116.609495 98.558182 
L 119.447695 98.558182 
L 122.285895 98.558182 
L 125.124096 98.558182 
L 127.962296 98.558182 
L 130.800496 98.558182 
L 133.638696 98.558182 
L 136.476896 98.558182 
L 139.315096 98.558182 
L 142.153297 98.558182 
L 144.991497 98.558182 
L 147.829697 98.558182 
L 150.667897 98.558182 
L 153.506097 98.558182 
L 156.344298 98.558182 
L 159.182498 98.558182 
L 162.020698 98.558182 
L 164.858898 98.558182 
L 167.697098 98.558182 
L 170.535298 98.558182 
L 173.373499 98.558182 
L 176.211699 98.558182 
L 179.049899 98.558182 
L 181.888099 98.558182 
L 184.726299 98.558182 
L 187.5645 98.558182 
L 190.4027 98.558182 
L 193.2409 98.558182 
L 196.0791 28.921818 
L 198.9173 28.921818 
L 201.7555 28.921818 
L 204.593701 28.921818 
L 207.431901 28.921818 
L 210.270101 28.921818 
L 213.108301 28.921818 
L 215.946501 28.921818 
L 218.784702 28.921818 
L 221.622902 28.921818 
L 224.461102 28.921818 
L 227.299302 28.921818 
L 230.137502 28.921818 
L 232.975702 28.921818 
L 235.813903 28.921818 
L 238.652103 28.921818 
L 241.490303 28.921818 
L 244.328503 28.921818 
L 247.166703 28.921818 
L 250.004904 28.921818 
L 252.843104 28.921818 
L 255.681304 28.921818 
L 258.519504 28.921818 
L 261.357704 28.921818 
L 264.195904 28.921818 
L 267.034105 28.921818 
L 269.872305 28.921818 
L 272.710505 28.921818 
L 275.548705 28.921818 
L 278.386905 28.921818 
L 281.225106 28.921818 
L 284.063306 28.921818 
L 286.901506 28.921818 
L 289.739706 28.921818 
L 292.577906 28.921818 
L 295.416107 28.921818 
L 298.254307 28.921818 
L 301.092507 28.921818 
L 303.930707 28.921818 
L 306.768907 28.921818 
L 309.607107 28.921818 
L 312.445308 28.921818 
L 315.283508 28.921818 
L 318.121708 28.921818 
L 320.959908 28.921818 
L 323.798108 28.921818 
L 326.636309 28.921818 
L 329.474509 28.921818 
L 332.312709 28.921818 
L 335.150909 28.921818 
" clip-path="url(#pbd7f3dbf2b)" style="fill: none; stroke: #ff7f0e; stroke-width: 1.5; stroke-linecap: square"/>
   </g>
   <g id="patch_3">
    <path d="M 40.12 102.04 
L 40.12 25.44 
" style="fill: none; stroke: #000000; stroke-width: 0.8; stroke-linejoin: miter; stroke-linecap: square"/>
   </g>
   <g id="patch_4">
    <path d="M 349.2 102.04 
L 349.2 25.44 
" style="fill: none; stroke: #000000; stroke-width: 0.8; stroke-linejoin: miter; stroke-linecap: square"/>
   </g>
   <g id="patch_5">
    <path d="M 40.12 102.04 
L 349.2 102.04 
" style="fill: none; stroke: #000000; stroke-width: 0.8; stroke-linejoin: miter; stroke-linecap: square"/>
   </g>
   <g id="patch_6">
    <path d="M 40.12 25.44 
L 349.2 25.44 
" style="fill: none; stroke: #000000; stroke-width: 0.8; stroke-linejoin: miter; stroke-linecap: square"/>
   </g>
   <g id="text_10">
    <!-- Logistic Function and Indicator Function -->
    <g transform="translate(75.365 19.44) scale(0.12 -0.12)">
     <defs>
      <path id="DejaVuSans-4c" d="M 628 4666 
L 1259 4666 
L 1259 531 
L 3531 531 
L 3531 0 
L 628 0 
L 628 4666 
z
" transform="scale(0.015625)"/>
      <path id="DejaVuSans-6f" d="M 1959 3097 
Q 1497 3097 1228 2736 
Q 959 2375 959 1747 
Q 959 1119 1226 758 
Q 1494 397 1959 397 
Q 2419 397 2687 759 
Q 2956 1122 2956 1747 
Q 2956 2369 2687 2733 
Q 2419 3097 1959 3097 
z
M 1959 3584 
Q 2709 3584 3137 3096 
Q 3566 2609 3566 1747 
Q 3566 888 3137 398 
Q 2709 -91 1959 -91 
Q 1206 -91 779 398 
Q 353 888 353 1747 
Q 353 2609 779 3096 
Q 1206 3584 1959 3584 
z
" transform="scale(0.015625)"/>
      <path id="DejaVuSans-67" d="M 2906 1791 
Q 2906 2416 2648 2759 
Q 2391 3103 1925 3103 
Q 1463 3103 1205 2759 
Q 947 2416 947 1791 
Q 947 1169 1205 825 
Q 1463 481 1925 481 
Q 2391 481 2648 825 
Q 2906 1169 2906 1791 
z
M 3481 434 
Q 3481 -459 3084 -895 
Q 2688 -1331 1869 -1331 
Q 1566 -1331 1297 -1286 
Q 1028 -1241 775 -1147 
L 775 -588 
Q 1028 -725 1275 -790 
Q 1522 -856 1778 -856 
Q 2344 -856 2625 -561 
Q 2906 -266 2906 331 
L 2906 616 
Q 2728 306 2450 153 
Q 2172 0 1784 0 
Q 1141 0 747 490 
Q 353 981 353 1791 
Q 353 2603 747 3093 
Q 1141 3584 1784 3584 
Q 2172 3584 2450 3431 
Q 2728 3278 2906 2969 
L 2906 3500 
L 3481 3500 
L 3481 434 
z
" transform="scale(0.015625)"/>
      <path id="DejaVuSans-69" d="M 603 3500 
L 1178 3500 
L 1178 0 
L 603 0 
L 603 3500 
z
M 603 4863 
L 1178 4863 
L 1178 4134 
L 603 4134 
L 603 4863 
z
" transform="scale(0.015625)"/>
      <path id="DejaVuSans-73" d="M 2834 3397 
L 2834 2853 
Q 2591 2978 2328 3040 
Q 2066 3103 1784 3103 
Q 1356 3103 1142 2972 
Q 928 2841 928 2578 
Q 928 2378 1081 2264 
Q 1234 2150 1697 2047 
L 1894 2003 
Q 2506 1872 2764 1633 
Q 3022 1394 3022 966 
Q 3022 478 2636 193 
Q 2250 -91 1575 -91 
Q 1294 -91 989 -36 
Q 684 19 347 128 
L 347 722 
Q 666 556 975 473 
Q 1284 391 1588 391 
Q 1994 391 2212 530 
Q 2431 669 2431 922 
Q 2431 1156 2273 1281 
Q 2116 1406 1581 1522 
L 1381 1569 
Q 847 1681 609 1914 
Q 372 2147 372 2553 
Q 372 3047 722 3315 
Q 1072 3584 1716 3584 
Q 2034 3584 2315 3537 
Q 2597 3491 2834 3397 
z
" transform="scale(0.015625)"/>
      <path id="DejaVuSans-74" d="M 1172 4494 
L 1172 3500 
L 2356 3500 
L 2356 3053 
L 1172 3053 
L 1172 1153 
Q 1172 725 1289 603 
Q 1406 481 1766 481 
L 2356 481 
L 2356 0 
L 1766 0 
Q 1100 0 847 248 
Q 594 497 594 1153 
L 594 3053 
L 172 3053 
L 172 3500 
L 594 3500 
L 594 4494 
L 1172 4494 
z
" transform="scale(0.015625)"/>
      <path id="DejaVuSans-63" d="M 3122 3366 
L 3122 2828 
Q 2878 2963 2633 3030 
Q 2388 3097 2138 3097 
Q 1578 3097 1268 2742 
Q 959 2388 959 1747 
Q 959 1106 1268 751 
Q 1578 397 2138 397 
Q 2388 397 2633 464 
Q 2878 531 3122 666 
L 3122 134 
Q 2881 22 2623 -34 
Q 2366 -91 2075 -91 
Q 1284 -91 818 406 
Q 353 903 353 1747 
Q 353 2603 823 3093 
Q 1294 3584 2113 3584 
Q 2378 3584 2631 3529 
Q 2884 3475 3122 3366 
z
" transform="scale(0.015625)"/>
      <path id="DejaVuSans-20" transform="scale(0.015625)"/>
      <path id="DejaVuSans-46" d="M 628 4666 
L 3309 4666 
L 3309 4134 
L 1259 4134 
L 1259 2759 
L 3109 2759 
L 3109 2228 
L 1259 2228 
L 1259 0 
L 628 0 
L 628 4666 
z
" transform="scale(0.015625)"/>
      <path id="DejaVuSans-75" d="M 544 1381 
L 544 3500 
L 1119 3500 
L 1119 1403 
Q 1119 906 1312 657 
Q 1506 409 1894 409 
Q 2359 409 2629 706 
Q 2900 1003 2900 1516 
L 2900 3500 
L 3475 3500 
L 3475 0 
L 2900 0 
L 2900 538 
Q 2691 219 2414 64 
Q 2138 -91 1772 -91 
Q 1169 -91 856 284 
Q 544 659 544 1381 
z
M 1991 3584 
L 1991 3584 
z
" transform="scale(0.015625)"/>
      <path id="DejaVuSans-6e" d="M 3513 2113 
L 3513 0 
L 2938 0 
L 2938 2094 
Q 2938 2591 2744 2837 
Q 2550 3084 2163 3084 
Q 1697 3084 1428 2787 
Q 1159 2491 1159 1978 
L 1159 0 
L 581 0 
L 581 3500 
L 1159 3500 
L 1159 2956 
Q 1366 3272 1645 3428 
Q 1925 3584 2291 3584 
Q 2894 3584 3203 3211 
Q 3513 2838 3513 2113 
z
" transform="scale(0.015625)"/>
      <path id="DejaVuSans-61" d="M 2194 1759 
Q 1497 1759 1228 1600 
Q 959 1441 959 1056 
Q 959 750 1161 570 
Q 1363 391 1709 391 
Q 2188 391 2477 730 
Q 2766 1069 2766 1631 
L 2766 1759 
L 2194 1759 
z
M 3341 1997 
L 3341 0 
L 2766 0 
L 2766 531 
Q 2569 213 2275 61 
Q 1981 -91 1556 -91 
Q 1019 -91 701 211 
Q 384 513 384 1019 
Q 384 1609 779 1909 
Q 1175 2209 1959 2209 
L 2766 2209 
L 2766 2266 
Q 2766 2663 2505 2880 
Q 2244 3097 1772 3097 
Q 1472 3097 1187 3025 
Q 903 2953 641 2809 
L 641 3341 
Q 956 3463 1253 3523 
Q 1550 3584 1831 3584 
Q 2591 3584 2966 3190 
Q 3341 2797 3341 1997 
z
" transform="scale(0.015625)"/>
      <path id="DejaVuSans-64" d="M 2906 2969 
L 2906 4863 
L 3481 4863 
L 3481 0 
L 2906 0 
L 2906 525 
Q 2725 213 2448 61 
Q 2172 -91 1784 -91 
Q 1150 -91 751 415 
Q 353 922 353 1747 
Q 353 2572 751 3078 
Q 1150 3584 1784 3584 
Q 2172 3584 2448 3432 
Q 2725 3281 2906 2969 
z
M 947 1747 
Q 947 1113 1208 752 
Q 1469 391 1925 391 
Q 2381 391 2643 752 
Q 2906 1113 2906 1747 
Q 2906 2381 2643 2742 
Q 2381 3103 1925 3103 
Q 1469 3103 1208 2742 
Q 947 2381 947 1747 
z
" transform="scale(0.015625)"/>
      <path id="DejaVuSans-49" d="M 628 4666 
L 1259 4666 
L 1259 0 
L 628 0 
L 628 4666 
z
" transform="scale(0.015625)"/>
      <path id="DejaVuSans-72" d="M 2631 2963 
Q 2534 3019 2420 3045 
Q 2306 3072 2169 3072 
Q 1681 3072 1420 2755 
Q 1159 2438 1159 1844 
L 1159 0 
L 581 0 
L 581 3500 
L 1159 3500 
L 1159 2956 
Q 1341 3275 1631 3429 
Q 1922 3584 2338 3584 
Q 2397 3584 2469 3576 
Q 2541 3569 2628 3553 
L 2631 2963 
z
" transform="scale(0.015625)"/>
     </defs>
     <use xlink:href="#DejaVuSans-4c"/>
     <use xlink:href="#DejaVuSans-6f" x="53.962891"/>
     <use xlink:href="#DejaVuSans-67" x="115.144531"/>
     <use xlink:href="#DejaVuSans-69" x="178.621094"/>
     <use xlink:href="#DejaVuSans-73" x="206.404297"/>
     <use xlink:href="#DejaVuSans-74" x="258.503906"/>
     <use xlink:href="#DejaVuSans-69" x="297.712891"/>
     <use xlink:href="#DejaVuSans-63" x="325.496094"/>
     <use xlink:href="#DejaVuSans-20" x="380.476562"/>
     <use xlink:href="#DejaVuSans-46" x="412.263672"/>
     <use xlink:href="#DejaVuSans-75" x="464.283203"/>
     <use xlink:href="#DejaVuSans-6e" x="527.662109"/>
     <use xlink:href="#DejaVuSans-63" x="591.041016"/>
     <use xlink:href="#DejaVuSans-74" x="646.021484"/>
     <use xlink:href="#DejaVuSans-69" x="685.230469"/>
     <use xlink:href="#DejaVuSans-6f" x="713.013672"/>
     <use xlink:href="#DejaVuSans-6e" x="774.195312"/>
     <use xlink:href="#DejaVuSans-20" x="837.574219"/>
     <use xlink:href="#DejaVuSans-61" x="869.361328"/>
     <use xlink:href="#DejaVuSans-6e" x="930.640625"/>
     <use xlink:href="#DejaVuSans-64" x="994.019531"/>
     <use xlink:href="#DejaVuSans-20" x="1057.496094"/>
     <use xlink:href="#DejaVuSans-49" x="1089.283203"/>
     <use xlink:href="#DejaVuSans-6e" x="1118.775391"/>
     <use xlink:href="#DejaVuSans-64" x="1182.154297"/>
     <use xlink:href="#DejaVuSans-69" x="1245.630859"/>
     <use xlink:href="#DejaVuSans-63" x="1273.414062"/>
     <use xlink:href="#DejaVuSans-61" x="1328.394531"/>
     <use xlink:href="#DejaVuSans-74" x="1389.673828"/>
     <use xlink:href="#DejaVuSans-6f" x="1428.882812"/>
     <use xlink:href="#DejaVuSans-72" x="1490.064453"/>
     <use xlink:href="#DejaVuSans-20" x="1531.177734"/>
     <use xlink:href="#DejaVuSans-46" x="1562.964844"/>
     <use xlink:href="#DejaVuSans-75" x="1614.984375"/>
     <use xlink:href="#DejaVuSans-6e" x="1678.363281"/>
     <use xlink:href="#DejaVuSans-63" x="1741.742188"/>
     <use xlink:href="#DejaVuSans-74" x="1796.722656"/>
     <use xlink:href="#DejaVuSans-69" x="1835.931641"/>
     <use xlink:href="#DejaVuSans-6f" x="1863.714844"/>
     <use xlink:href="#DejaVuSans-6e" x="1924.896484"/>
    </g>
   </g>
   <g id="legend_1">
    <g id="patch_7">
     <path d="M 47.12 62.79625 
L 114.02 62.79625 
Q 116.02 62.79625 116.02 60.79625 
L 116.02 32.44 
Q 116.02 30.44 114.02 30.44 
L 47.12 30.44 
Q 45.12 30.44 45.12 32.44 
L 45.12 60.79625 
Q 45.12 62.79625 47.12 62.79625 
z
" style="fill: #ffffff; opacity: 0.8; stroke: #cccccc; stroke-linejoin: miter"/>
    </g>
    <g id="line2d_11">
     <path d="M 49.12 38.538437 
L 59.12 38.538437 
L 69.12 38.538437 
" style="fill: none; stroke: #1f77b4; stroke-width: 1.5; stroke-linecap: square"/>
    </g>
    <g id="text_11">
     <!-- $\sigma(z)$ -->
     <g transform="translate(77.12 42.038437) scale(0.1 -0.1)">
      <defs>
       <path id="DejaVuSans-Oblique-3c3" d="M 2219 3044 
Q 1744 3044 1422 2700 
Q 1081 2341 969 1747 
Q 844 1119 1044 756 
Q 1241 397 1706 397 
Q 2166 397 2503 759 
Q 2844 1122 2966 1747 
Q 3075 2319 2881 2700 
Q 2700 3044 2219 3044 
z
M 2309 3503 
L 4219 3500 
L 4106 2925 
L 3463 2925 
Q 3706 2438 3575 1747 
Q 3406 888 2884 400 
Q 2359 -91 1609 -91 
Q 856 -91 525 400 
Q 194 888 363 1747 
Q 528 2609 1050 3097 
Q 1484 3503 2309 3503 
z
" transform="scale(0.015625)"/>
       <path id="DejaVuSans-28" d="M 1984 4856 
Q 1566 4138 1362 3434 
Q 1159 2731 1159 2009 
Q 1159 1288 1364 580 
Q 1569 -128 1984 -844 
L 1484 -844 
Q 1016 -109 783 600 
Q 550 1309 550 2009 
Q 550 2706 781 3412 
Q 1013 4119 1484 4856 
L 1984 4856 
z
" transform="scale(0.015625)"/>
       <path id="DejaVuSans-29" d="M 513 4856 
L 1013 4856 
Q 1481 4119 1714 3412 
Q 1947 2706 1947 2009 
Q 1947 1309 1714 600 
Q 1481 -109 1013 -844 
L 513 -844 
Q 928 -128 1133 580 
Q 1338 1288 1338 2009 
Q 1338 2731 1133 3434 
Q 928 4138 513 4856 
z
" transform="scale(0.015625)"/>
      </defs>
      <use xlink:href="#DejaVuSans-Oblique-3c3" transform="translate(0 0.125)"/>
      <use xlink:href="#DejaVuSans-28" transform="translate(63.378906 0.125)"/>
      <use xlink:href="#DejaVuSans-Oblique-7a" transform="translate(102.392578 0.125)"/>
      <use xlink:href="#DejaVuSans-29" transform="translate(154.882812 0.125)"/>
     </g>
    </g>
    <g id="line2d_12">
     <path d="M 49.12 53.216562 
L 59.12 53.216562 
L 69.12 53.216562 
" style="fill: none; stroke: #ff7f0e; stroke-width: 1.5; stroke-linecap: square"/>
    </g>
    <g id="text_12">
     <!-- $\mathbb{I}[z &gt; 0]$ -->
     <g transform="translate(77.12 56.716562) scale(0.1 -0.1)">
      <defs>
       <path id="STIXNonUnicode-Italic-e159" d="M 2240 4179 
L 1120 0 
L 134 0 
L 1254 4179 
L 2240 4179 
z
M 1933 3942 
L 1434 3942 
L 442 237 
L 941 237 
L 1933 3942 
z
" transform="scale(0.015625)"/>
       <path id="DejaVuSans-5b" d="M 550 4863 
L 1875 4863 
L 1875 4416 
L 1125 4416 
L 1125 -397 
L 1875 -397 
L 1875 -844 
L 550 -844 
L 550 4863 
z
" transform="scale(0.015625)"/>
       <path id="DejaVuSans-3e" d="M 678 3150 
L 678 3719 
L 4684 2266 
L 4684 1747 
L 678 294 
L 678 863 
L 3897 2003 
L 678 3150 
z
" transform="scale(0.015625)"/>
       <path id="DejaVuSans-5d" d="M 1947 4863 
L 1947 -844 
L 622 -844 
L 622 -397 
L 1369 -397 
L 1369 4416 
L 622 4416 
L 622 4863 
L 1947 4863 
z
" transform="scale(0.015625)"/>
      </defs>
      <use xlink:href="#STIXNonUnicode-Italic-e159" transform="translate(0 0.015625)"/>
      <use xlink:href="#DejaVuSans-5b" transform="translate(31.999985 0.015625)"/>
      <use xlink:href="#DejaVuSans-Oblique-7a" transform="translate(71.013657 0.015625)"/>
      <use xlink:href="#DejaVuSans-3e" transform="translate(142.986313 0.015625)"/>
      <use xlink:href="#DejaVuSans-30" transform="translate(246.257797 0.015625)"/>
      <use xlink:href="#DejaVuSans-5d" transform="translate(309.880844 0.015625)"/>
     </g>
    </g>
   </g>
  </g>
 </g>
 <defs>
  <clipPath id="pbd7f3dbf2b">
   <rect x="40.12" y="25.44" width="309.08" height="76.6"/>
  </clipPath>
 </defs>
</svg>
