<?xml version="1.0" encoding="utf-8" standalone="no"?>
<!DOCTYPE svg PUBLIC "-//W3C//DTD SVG 1.1//EN"
  "http://www.w3.org/Graphics/SVG/1.1/DTD/svg11.dtd">
<svg xmlns:xlink="http://www.w3.org/1999/xlink" width="1296pt" height="216pt" viewBox="0 0 1296 216" xmlns="http://www.w3.org/2000/svg" version="1.1">
 <metadata>
  <rdf:RDF xmlns:dc="http://purl.org/dc/elements/1.1/" xmlns:cc="http://creativecommons.org/ns#" xmlns:rdf="http://www.w3.org/1999/02/22-rdf-syntax-ns#">
   <cc:Work>
    <dc:type rdf:resource="http://purl.org/dc/dcmitype/StillImage"/>
    <dc:date>2025-10-13T09:57:29.571782</dc:date>
    <dc:format>image/svg+xml</dc:format>
    <dc:creator>
     <cc:Agent>
      <dc:title>Matplotlib v3.10.7, https://matplotlib.org/</dc:title>
     </cc:Agent>
    </dc:creator>
   </cc:Work>
  </rdf:RDF>
 </metadata>
 <defs>
  <style type="text/css">*{stroke-linejoin: round; stroke-linecap: butt}</style>
 </defs>
 <g id="figure_1">
  <g id="patch_1">
   <path d="M 0 216 
L 1296 216 
L 1296 0 
L 0 0 
z
" style="fill: #ffffff"/>
  </g>
  <g id="axes_1">
   <g id="patch_2">
    <path d="M 87.600357 181.857143 
L 224.114643 181.857143 
L 224.114643 45.342857 
L 87.600357 45.342857 
z
" style="fill: #ffffff"/>
   </g>
   <g id="matplotlib.axis_1">
    <g id="xtick_1">
     <g id="line2d_1">
      <path d="M 93.805552 181.857143 
L 93.805552 45.342857 
" clip-path="url(#p529a7ad206)" style="fill: none; stroke: #b0b0b0; stroke-opacity: 0.2; stroke-width: 0.8; stroke-linecap: square"/>
     </g>
     <g id="line2d_2">
      <defs>
       <path id="m336b7af8db" d="M 0 0 
L 0 3.5 
" style="stroke: #000000; stroke-width: 0.8"/>
      </defs>
      <g>
       <use xlink:href="#m336b7af8db" x="93.805552" y="181.857143" style="stroke: #000000; stroke-width: 0.8"/>
      </g>
     </g>
     <g id="text_1">
      <!-- −1 -->
      <g transform="translate(86.434458 196.45558) scale(0.1 -0.1)">
       <defs>
        <path id="DejaVuSans-2212" d="M 678 2272 
L 4684 2272 
L 4684 1741 
L 678 1741 
L 678 2272 
z
" transform="scale(0.015625)"/>
        <path id="DejaVuSans-31" d="M 794 531 
L 1825 531 
L 1825 4091 
L 703 3866 
L 703 4441 
L 1819 4666 
L 2450 4666 
L 2450 531 
L 3481 531 
L 3481 0 
L 794 0 
L 794 531 
z
" transform="scale(0.015625)"/>
       </defs>
       <use xlink:href="#DejaVuSans-2212"/>
       <use xlink:href="#DejaVuSans-31" transform="translate(83.789062 0)"/>
      </g>
     </g>
    </g>
    <g id="xtick_2">
     <g id="line2d_3">
      <path d="M 155.8575 181.857143 
L 155.8575 45.342857 
" clip-path="url(#p529a7ad206)" style="fill: none; stroke: #b0b0b0; stroke-opacity: 0.2; stroke-width: 0.8; stroke-linecap: square"/>
     </g>
     <g id="line2d_4">
      <g>
       <use xlink:href="#m336b7af8db" x="155.8575" y="181.857143" style="stroke: #000000; stroke-width: 0.8"/>
      </g>
     </g>
     <g id="text_2">
      <!-- 0 -->
      <g transform="translate(152.67625 196.45558) scale(0.1 -0.1)">
       <defs>
        <path id="DejaVuSans-30" d="M 2034 4250 
Q 1547 4250 1301 3770 
Q 1056 3291 1056 2328 
Q 1056 1369 1301 889 
Q 1547 409 2034 409 
Q 2525 409 2770 889 
Q 3016 1369 3016 2328 
Q 3016 3291 2770 3770 
Q 2525 4250 2034 4250 
z
M 2034 4750 
Q 2819 4750 3233 4129 
Q 3647 3509 3647 2328 
Q 3647 1150 3233 529 
Q 2819 -91 2034 -91 
Q 1250 -91 836 529 
Q 422 1150 422 2328 
Q 422 3509 836 4129 
Q 1250 4750 2034 4750 
z
" transform="scale(0.015625)"/>
       </defs>
       <use xlink:href="#DejaVuSans-30"/>
      </g>
     </g>
    </g>
    <g id="xtick_3">
     <g id="line2d_5">
      <path d="M 217.909448 181.857143 
L 217.909448 45.342857 
" clip-path="url(#p529a7ad206)" style="fill: none; stroke: #b0b0b0; stroke-opacity: 0.2; stroke-width: 0.8; stroke-linecap: square"/>
     </g>
     <g id="line2d_6">
      <g>
       <use xlink:href="#m336b7af8db" x="217.909448" y="181.857143" style="stroke: #000000; stroke-width: 0.8"/>
      </g>
     </g>
     <g id="text_3">
      <!-- 1 -->
      <g transform="translate(214.728198 196.45558) scale(0.1 -0.1)">
       <use xlink:href="#DejaVuSans-31"/>
      </g>
     </g>
    </g>
    <g id="text_4">
     <!-- $\beta_1$ -->
     <g transform="translate(149.6975 211.005268) scale(0.11 -0.11)">
      <defs>
       <path id="DejaVuSans-Oblique-3b2" d="M 872 216 
L 572 -1331 
L -6 -1331 
L 928 3478 
Q 1206 4903 2538 4903 
Q 3888 4903 3659 3700 
Q 3503 2844 2894 2531 
Q 3713 2250 3553 1416 
Q 3272 -69 1759 -66 
Q 1097 -63 872 216 
z
M 1019 966 
Q 1259 422 1875 425 
Q 2775 425 2966 1406 
Q 3138 2288 1675 2219 
L 1778 2750 
Q 2909 2731 3106 3750 
Q 3241 4438 2509 4434 
Q 1691 4434 1503 3459 
L 1019 966 
z
" transform="scale(0.015625)"/>
      </defs>
      <use xlink:href="#DejaVuSans-Oblique-3b2" transform="translate(0 0.390625)"/>
      <use xlink:href="#DejaVuSans-31" transform="translate(63.818359 -16.015625) scale(0.7)"/>
     </g>
    </g>
   </g>
   <g id="matplotlib.axis_2">
    <g id="ytick_1">
     <g id="line2d_7">
      <path d="M 87.600357 175.651948 
L 224.114643 175.651948 
" clip-path="url(#p529a7ad206)" style="fill: none; stroke: #b0b0b0; stroke-opacity: 0.2; stroke-width: 0.8; stroke-linecap: square"/>
     </g>
     <g id="line2d_8">
      <defs>
       <path id="m536af21200" d="M 0 0 
L -3.5 0 
" style="stroke: #000000; stroke-width: 0.8"/>
      </defs>
      <g>
       <use xlink:href="#m536af21200" x="87.600357" y="175.651948" style="stroke: #000000; stroke-width: 0.8"/>
      </g>
     </g>
     <g id="text_5">
      <!-- −1.0 -->
      <g transform="translate(56.317545 179.451167) scale(0.1 -0.1)">
       <defs>
        <path id="DejaVuSans-2e" d="M 684 794 
L 1344 794 
L 1344 0 
L 684 0 
L 684 794 
z
" transform="scale(0.015625)"/>
       </defs>
       <use xlink:href="#DejaVuSans-2212"/>
       <use xlink:href="#DejaVuSans-31" transform="translate(83.789062 0)"/>
       <use xlink:href="#DejaVuSans-2e" transform="translate(147.412109 0)"/>
       <use xlink:href="#DejaVuSans-30" transform="translate(179.199219 0)"/>
      </g>
     </g>
    </g>
    <g id="ytick_2">
     <g id="line2d_9">
      <path d="M 87.600357 144.625974 
L 224.114643 144.625974 
" clip-path="url(#p529a7ad206)" style="fill: none; stroke: #b0b0b0; stroke-opacity: 0.2; stroke-width: 0.8; stroke-linecap: square"/>
     </g>
     <g id="line2d_10">
      <g>
       <use xlink:href="#m536af21200" x="87.600357" y="144.625974" style="stroke: #000000; stroke-width: 0.8"/>
      </g>
     </g>
     <g id="text_6">
      <!-- −0.5 -->
      <g transform="translate(56.317545 148.425193) scale(0.1 -0.1)">
       <defs>
        <path id="DejaVuSans-35" d="M 691 4666 
L 3169 4666 
L 3169 4134 
L 1269 4134 
L 1269 2991 
Q 1406 3038 1543 3061 
Q 1681 3084 1819 3084 
Q 2600 3084 3056 2656 
Q 3513 2228 3513 1497 
Q 3513 744 3044 326 
Q 2575 -91 1722 -91 
Q 1428 -91 1123 -41 
Q 819 9 494 109 
L 494 744 
Q 775 591 1075 516 
Q 1375 441 1709 441 
Q 2250 441 2565 725 
Q 2881 1009 2881 1497 
Q 2881 1984 2565 2268 
Q 2250 2553 1709 2553 
Q 1456 2553 1204 2497 
Q 953 2441 691 2322 
L 691 4666 
z
" transform="scale(0.015625)"/>
       </defs>
       <use xlink:href="#DejaVuSans-2212"/>
       <use xlink:href="#DejaVuSans-30" transform="translate(83.789062 0)"/>
       <use xlink:href="#DejaVuSans-2e" transform="translate(147.412109 0)"/>
       <use xlink:href="#DejaVuSans-35" transform="translate(179.199219 0)"/>
      </g>
     </g>
    </g>
    <g id="ytick_3">
     <g id="line2d_11">
      <path d="M 87.600357 113.6 
L 224.114643 113.6 
" clip-path="url(#p529a7ad206)" style="fill: none; stroke: #b0b0b0; stroke-opacity: 0.2; stroke-width: 0.8; stroke-linecap: square"/>
     </g>
     <g id="line2d_12">
      <g>
       <use xlink:href="#m536af21200" x="87.600357" y="113.6" style="stroke: #000000; stroke-width: 0.8"/>
      </g>
     </g>
     <g id="text_7">
      <!-- 0.0 -->
      <g transform="translate(64.697232 117.399219) scale(0.1 -0.1)">
       <use xlink:href="#DejaVuSans-30"/>
       <use xlink:href="#DejaVuSans-2e" transform="translate(63.623047 0)"/>
       <use xlink:href="#DejaVuSans-30" transform="translate(95.410156 0)"/>
      </g>
     </g>
    </g>
    <g id="ytick_4">
     <g id="line2d_13">
      <path d="M 87.600357 82.574026 
L 224.114643 82.574026 
" clip-path="url(#p529a7ad206)" style="fill: none; stroke: #b0b0b0; stroke-opacity: 0.2; stroke-width: 0.8; stroke-linecap: square"/>
     </g>
     <g id="line2d_14">
      <g>
       <use xlink:href="#m536af21200" x="87.600357" y="82.574026" style="stroke: #000000; stroke-width: 0.8"/>
      </g>
     </g>
     <g id="text_8">
      <!-- 0.5 -->
      <g transform="translate(64.697232 86.373245) scale(0.1 -0.1)">
       <use xlink:href="#DejaVuSans-30"/>
       <use xlink:href="#DejaVuSans-2e" transform="translate(63.623047 0)"/>
       <use xlink:href="#DejaVuSans-35" transform="translate(95.410156 0)"/>
      </g>
     </g>
    </g>
    <g id="ytick_5">
     <g id="line2d_15">
      <path d="M 87.600357 51.548052 
L 224.114643 51.548052 
" clip-path="url(#p529a7ad206)" style="fill: none; stroke: #b0b0b0; stroke-opacity: 0.2; stroke-width: 0.8; stroke-linecap: square"/>
     </g>
     <g id="line2d_16">
      <g>
       <use xlink:href="#m536af21200" x="87.600357" y="51.548052" style="stroke: #000000; stroke-width: 0.8"/>
      </g>
     </g>
     <g id="text_9">
      <!-- 1.0 -->
      <g transform="translate(64.697232 55.347271) scale(0.1 -0.1)">
       <use xlink:href="#DejaVuSans-31"/>
       <use xlink:href="#DejaVuSans-2e" transform="translate(63.623047 0)"/>
       <use xlink:href="#DejaVuSans-30" transform="translate(95.410156 0)"/>
      </g>
     </g>
    </g>
    <g id="text_10">
     <!-- $\beta_2$ -->
     <g transform="translate(50.007545 119.76) rotate(-90) scale(0.11 -0.11)">
      <defs>
       <path id="DejaVuSans-32" d="M 1228 531 
L 3431 531 
L 3431 0 
L 469 0 
L 469 531 
Q 828 903 1448 1529 
Q 2069 2156 2228 2338 
Q 2531 2678 2651 2914 
Q 2772 3150 2772 3378 
Q 2772 3750 2511 3984 
Q 2250 4219 1831 4219 
Q 1534 4219 1204 4116 
Q 875 4013 500 3803 
L 500 4441 
Q 881 4594 1212 4672 
Q 1544 4750 1819 4750 
Q 2544 4750 2975 4387 
Q 3406 4025 3406 3419 
Q 3406 3131 3298 2873 
Q 3191 2616 2906 2266 
Q 2828 2175 2409 1742 
Q 1991 1309 1228 531 
z
" transform="scale(0.015625)"/>
      </defs>
      <use xlink:href="#DejaVuSans-Oblique-3b2" transform="translate(0 0.390625)"/>
      <use xlink:href="#DejaVuSans-32" transform="translate(63.818359 -16.015625) scale(0.7)"/>
     </g>
    </g>
   </g>
   <g id="line2d_17">
    <path d="M 87.600357 113.6 
L 224.114643 113.6 
" clip-path="url(#p529a7ad206)" style="fill: none; stroke: #0000ff; stroke-width: 2; stroke-linecap: square"/>
   </g>
   <g id="line2d_18">
    <path d="M 155.8575 181.857143 
L 155.8575 45.342857 
" clip-path="url(#p529a7ad206)" style="fill: none; stroke: #0000ff; stroke-width: 2; stroke-linecap: square"/>
   </g>
   <g id="line2d_19">
    <path d="M 87.600357 113.6 
L 224.114643 113.6 
" clip-path="url(#p529a7ad206)" style="fill: none; stroke: #000000; stroke-opacity: 0.3; stroke-width: 0.5; stroke-linecap: square"/>
   </g>
   <g id="line2d_20">
    <path d="M 155.8575 181.857143 
L 155.8575 45.342857 
" clip-path="url(#p529a7ad206)" style="fill: none; stroke: #000000; stroke-opacity: 0.3; stroke-width: 0.5; stroke-linecap: square"/>
   </g>
   <g id="patch_3">
    <path d="M 87.600357 181.857143 
L 87.600357 45.342857 
" style="fill: none; stroke: #000000; stroke-width: 0.8; stroke-linejoin: miter; stroke-linecap: square"/>
   </g>
   <g id="patch_4">
    <path d="M 224.114643 181.857143 
L 224.114643 45.342857 
" style="fill: none; stroke: #000000; stroke-width: 0.8; stroke-linejoin: miter; stroke-linecap: square"/>
   </g>
   <g id="patch_5">
    <path d="M 87.600357 181.857143 
L 224.114643 181.857143 
" style="fill: none; stroke: #000000; stroke-width: 0.8; stroke-linejoin: miter; stroke-linecap: square"/>
   </g>
   <g id="patch_6">
    <path d="M 87.600357 45.342857 
L 224.114643 45.342857 
" style="fill: none; stroke: #000000; stroke-width: 0.8; stroke-linejoin: miter; stroke-linecap: square"/>
   </g>
   <g id="text_11">
    <!-- $p = 0$ -->
    <g transform="translate(140.8575 39.342857) scale(0.12 -0.12)">
     <defs>
      <path id="DejaVuSans-Oblique-70" d="M 3175 2156 
Q 3175 2616 2975 2859 
Q 2775 3103 2400 3103 
Q 2144 3103 1911 2972 
Q 1678 2841 1497 2591 
Q 1319 2344 1212 1994 
Q 1106 1644 1106 1300 
Q 1106 863 1306 627 
Q 1506 391 1875 391 
Q 2147 391 2380 519 
Q 2613 647 2778 891 
Q 2956 1147 3065 1494 
Q 3175 1841 3175 2156 
z
M 1394 2969 
Q 1625 3272 1939 3428 
Q 2253 3584 2638 3584 
Q 3175 3584 3472 3232 
Q 3769 2881 3769 2247 
Q 3769 1728 3584 1258 
Q 3400 788 3053 416 
Q 2822 169 2531 39 
Q 2241 -91 1919 -91 
Q 1547 -91 1294 64 
Q 1041 219 916 525 
L 556 -1331 
L -19 -1331 
L 922 3500 
L 1497 3500 
L 1394 2969 
z
" transform="scale(0.015625)"/>
      <path id="DejaVuSans-3d" d="M 678 2906 
L 4684 2906 
L 4684 2381 
L 678 2381 
L 678 2906 
z
M 678 1631 
L 4684 1631 
L 4684 1100 
L 678 1100 
L 678 1631 
z
" transform="scale(0.015625)"/>
     </defs>
     <use xlink:href="#DejaVuSans-Oblique-70" transform="translate(0 0.78125)"/>
     <use xlink:href="#DejaVuSans-3d" transform="translate(82.958984 0.78125)"/>
     <use xlink:href="#DejaVuSans-30" transform="translate(186.230469 0.78125)"/>
    </g>
   </g>
  </g>
  <g id="axes_2">
   <g id="patch_7">
    <path d="M 294.235357 181.857143 
L 430.749643 181.857143 
L 430.749643 45.342857 
L 294.235357 45.342857 
z
" style="fill: #ffffff"/>
   </g>
   <g id="matplotlib.axis_3">
    <g id="xtick_4">
     <g id="line2d_21">
      <path d="M 300.440552 181.857143 
L 300.440552 45.342857 
" clip-path="url(#p4f4a6ba8cd)" style="fill: none; stroke: #b0b0b0; stroke-opacity: 0.2; stroke-width: 0.8; stroke-linecap: square"/>
     </g>
     <g id="line2d_22">
      <g>
       <use xlink:href="#m336b7af8db" x="300.440552" y="181.857143" style="stroke: #000000; stroke-width: 0.8"/>
      </g>
     </g>
     <g id="text_12">
      <!-- −1 -->
      <g transform="translate(293.069458 196.45558) scale(0.1 -0.1)">
       <use xlink:href="#DejaVuSans-2212"/>
       <use xlink:href="#DejaVuSans-31" transform="translate(83.789062 0)"/>
      </g>
     </g>
    </g>
    <g id="xtick_5">
     <g id="line2d_23">
      <path d="M 362.4925 181.857143 
L 362.4925 45.342857 
" clip-path="url(#p4f4a6ba8cd)" style="fill: none; stroke: #b0b0b0; stroke-opacity: 0.2; stroke-width: 0.8; stroke-linecap: square"/>
     </g>
     <g id="line2d_24">
      <g>
       <use xlink:href="#m336b7af8db" x="362.4925" y="181.857143" style="stroke: #000000; stroke-width: 0.8"/>
      </g>
     </g>
     <g id="text_13">
      <!-- 0 -->
      <g transform="translate(359.31125 196.45558) scale(0.1 -0.1)">
       <use xlink:href="#DejaVuSans-30"/>
      </g>
     </g>
    </g>
    <g id="xtick_6">
     <g id="line2d_25">
      <path d="M 424.544448 181.857143 
L 424.544448 45.342857 
" clip-path="url(#p4f4a6ba8cd)" style="fill: none; stroke: #b0b0b0; stroke-opacity: 0.2; stroke-width: 0.8; stroke-linecap: square"/>
     </g>
     <g id="line2d_26">
      <g>
       <use xlink:href="#m336b7af8db" x="424.544448" y="181.857143" style="stroke: #000000; stroke-width: 0.8"/>
      </g>
     </g>
     <g id="text_14">
      <!-- 1 -->
      <g transform="translate(421.363198 196.45558) scale(0.1 -0.1)">
       <use xlink:href="#DejaVuSans-31"/>
      </g>
     </g>
    </g>
    <g id="text_15">
     <!-- $\beta_1$ -->
     <g transform="translate(356.3325 211.005268) scale(0.11 -0.11)">
      <use xlink:href="#DejaVuSans-Oblique-3b2" transform="translate(0 0.390625)"/>
      <use xlink:href="#DejaVuSans-31" transform="translate(63.818359 -16.015625) scale(0.7)"/>
     </g>
    </g>
   </g>
   <g id="matplotlib.axis_4">
    <g id="ytick_6">
     <g id="line2d_27">
      <path d="M 294.235357 175.651948 
L 430.749643 175.651948 
" clip-path="url(#p4f4a6ba8cd)" style="fill: none; stroke: #b0b0b0; stroke-opacity: 0.2; stroke-width: 0.8; stroke-linecap: square"/>
     </g>
     <g id="line2d_28">
      <g>
       <use xlink:href="#m536af21200" x="294.235357" y="175.651948" style="stroke: #000000; stroke-width: 0.8"/>
      </g>
     </g>
    </g>
    <g id="ytick_7">
     <g id="line2d_29">
      <path d="M 294.235357 144.625974 
L 430.749643 144.625974 
" clip-path="url(#p4f4a6ba8cd)" style="fill: none; stroke: #b0b0b0; stroke-opacity: 0.2; stroke-width: 0.8; stroke-linecap: square"/>
     </g>
     <g id="line2d_30">
      <g>
       <use xlink:href="#m536af21200" x="294.235357" y="144.625974" style="stroke: #000000; stroke-width: 0.8"/>
      </g>
     </g>
    </g>
    <g id="ytick_8">
     <g id="line2d_31">
      <path d="M 294.235357 113.6 
L 430.749643 113.6 
" clip-path="url(#p4f4a6ba8cd)" style="fill: none; stroke: #b0b0b0; stroke-opacity: 0.2; stroke-width: 0.8; stroke-linecap: square"/>
     </g>
     <g id="line2d_32">
      <g>
       <use xlink:href="#m536af21200" x="294.235357" y="113.6" style="stroke: #000000; stroke-width: 0.8"/>
      </g>
     </g>
    </g>
    <g id="ytick_9">
     <g id="line2d_33">
      <path d="M 294.235357 82.574026 
L 430.749643 82.574026 
" clip-path="url(#p4f4a6ba8cd)" style="fill: none; stroke: #b0b0b0; stroke-opacity: 0.2; stroke-width: 0.8; stroke-linecap: square"/>
     </g>
     <g id="line2d_34">
      <g>
       <use xlink:href="#m536af21200" x="294.235357" y="82.574026" style="stroke: #000000; stroke-width: 0.8"/>
      </g>
     </g>
    </g>
    <g id="ytick_10">
     <g id="line2d_35">
      <path d="M 294.235357 51.548052 
L 430.749643 51.548052 
" clip-path="url(#p4f4a6ba8cd)" style="fill: none; stroke: #b0b0b0; stroke-opacity: 0.2; stroke-width: 0.8; stroke-linecap: square"/>
     </g>
     <g id="line2d_36">
      <g>
       <use xlink:href="#m536af21200" x="294.235357" y="51.548052" style="stroke: #000000; stroke-width: 0.8"/>
      </g>
     </g>
    </g>
   </g>
   <g id="line2d_37">
    <path d="M 424.544448 113.6 
L 415.760409 113.264968 
L 410.460485 112.694812 
L 405.996009 111.957535 
L 402.14521 111.102759 
L 398.226488 109.991844 
L 394.608563 108.715006 
L 391.364933 107.329992 
L 388.259357 105.753282 
L 385.373126 104.027559 
L 382.686508 102.151715 
L 380.238831 100.170219 
L 377.993293 98.074815 
L 375.898813 95.826671 
L 373.916843 93.374164 
L 372.141804 90.837817 
L 370.424543 87.987114 
L 368.859367 84.934248 
L 367.488348 81.765957 
L 366.22885 78.2648 
L 365.13824 74.52834 
L 364.304524 70.943539 
L 363.592464 66.971396 
L 363.051959 62.772567 
L 362.402232 56.191196 
L 362.080879 61.244231 
L 361.521464 66.101795 
L 360.792964 70.387214 
L 359.945403 74.144729 
L 358.841386 78.000674 
L 357.570409 81.578805 
L 356.190112 84.79692 
L 354.617282 87.884715 
L 352.894405 90.758992 
L 351.020286 93.437743 
L 349.03925 95.880626 
L 346.942903 98.12358 
L 344.692131 100.217152 
L 342.234759 102.199614 
L 339.690973 103.976284 
L 336.828538 105.696341 
L 333.758312 107.265326 
L 330.565306 108.640959 
L 327.026088 109.906156 
L 323.230862 111.003406 
L 319.561889 111.84395 
L 315.439866 112.564055 
L 310.941369 113.113641 
L 306.855541 113.425036 
L 306.855541 113.774964 
L 313.498585 114.370428 
L 318.379507 115.126571 
L 322.432849 115.996417 
L 326.483756 117.121542 
L 330.184036 118.410356 
L 333.479951 119.804962 
L 336.62174 121.389542 
L 339.532221 123.121035 
L 342.234759 125.000386 
L 344.692131 126.982848 
L 346.942903 129.07642 
L 349.03925 131.319374 
L 351.020286 133.762257 
L 352.792115 136.283899 
L 354.503859 139.111464 
L 356.061523 142.13022 
L 357.423464 145.250233 
L 358.671796 148.677709 
L 359.749491 152.302118 
L 360.570078 155.730373 
L 361.266983 159.436625 
L 361.791126 163.159138 
L 362.080879 165.955769 
L 362.402232 171.008804 
L 363.84051 158.708249 
L 364.734766 154.302949 
L 365.703138 150.633072 
L 366.881095 147.036248 
L 368.19667 143.728741 
L 369.726356 140.512469 
L 371.412031 137.51941 
L 373.23995 134.750576 
L 375.147995 132.261101 
L 377.221691 129.9171 
L 379.498582 127.688483 
L 381.944394 125.619228 
L 384.458047 123.7797 
L 387.085582 122.115685 
L 390.059006 120.500732 
L 393.186549 119.061966 
L 396.259079 117.870026 
L 399.998144 116.673432 
L 403.883329 115.684372 
L 407.257071 115.008192 
L 410.460485 114.505188 
L 415.760409 113.935032 
L 424.544446 113.6 
L 424.544446 113.6 
" clip-path="url(#p4f4a6ba8cd)" style="fill: none; stroke: #0000ff; stroke-width: 2; stroke-linecap: square"/>
   </g>
   <g id="line2d_38">
    <path d="M 294.235357 113.6 
L 430.749643 113.6 
" clip-path="url(#p4f4a6ba8cd)" style="fill: none; stroke: #000000; stroke-opacity: 0.3; stroke-width: 0.5; stroke-linecap: square"/>
   </g>
   <g id="line2d_39">
    <path d="M 362.4925 181.857143 
L 362.4925 45.342857 
" clip-path="url(#p4f4a6ba8cd)" style="fill: none; stroke: #000000; stroke-opacity: 0.3; stroke-width: 0.5; stroke-linecap: square"/>
   </g>
   <g id="patch_8">
    <path d="M 294.235357 181.857143 
L 294.235357 45.342857 
" style="fill: none; stroke: #000000; stroke-width: 0.8; stroke-linejoin: miter; stroke-linecap: square"/>
   </g>
   <g id="patch_9">
    <path d="M 430.749643 181.857143 
L 430.749643 45.342857 
" style="fill: none; stroke: #000000; stroke-width: 0.8; stroke-linejoin: miter; stroke-linecap: square"/>
   </g>
   <g id="patch_10">
    <path d="M 294.235357 181.857143 
L 430.749643 181.857143 
" style="fill: none; stroke: #000000; stroke-width: 0.8; stroke-linejoin: miter; stroke-linecap: square"/>
   </g>
   <g id="patch_11">
    <path d="M 294.235357 45.342857 
L 430.749643 45.342857 
" style="fill: none; stroke: #000000; stroke-width: 0.8; stroke-linejoin: miter; stroke-linecap: square"/>
   </g>
   <g id="text_16">
    <!-- $p = 0.5$ -->
    <g transform="translate(341.7325 39.342857) scale(0.12 -0.12)">
     <use xlink:href="#DejaVuSans-Oblique-70" transform="translate(0 0.78125)"/>
     <use xlink:href="#DejaVuSans-3d" transform="translate(82.958984 0.78125)"/>
     <use xlink:href="#DejaVuSans-30" transform="translate(186.230469 0.78125)"/>
     <use xlink:href="#DejaVuSans-2e" transform="translate(249.853516 0.78125)"/>
     <use xlink:href="#DejaVuSans-35" transform="translate(281.640625 0.78125)"/>
    </g>
   </g>
  </g>
  <g id="axes_3">
   <g id="patch_12">
    <path d="M 500.870357 181.857143 
L 637.384643 181.857143 
L 637.384643 45.342857 
L 500.870357 45.342857 
z
" style="fill: #ffffff"/>
   </g>
   <g id="matplotlib.axis_5">
    <g id="xtick_7">
     <g id="line2d_40">
      <path d="M 507.075552 181.857143 
L 507.075552 45.342857 
" clip-path="url(#p9a5a1694b3)" style="fill: none; stroke: #b0b0b0; stroke-opacity: 0.2; stroke-width: 0.8; stroke-linecap: square"/>
     </g>
     <g id="line2d_41">
      <g>
       <use xlink:href="#m336b7af8db" x="507.075552" y="181.857143" style="stroke: #000000; stroke-width: 0.8"/>
      </g>
     </g>
     <g id="text_17">
      <!-- −1 -->
      <g transform="translate(499.704458 196.45558) scale(0.1 -0.1)">
       <use xlink:href="#DejaVuSans-2212"/>
       <use xlink:href="#DejaVuSans-31" transform="translate(83.789062 0)"/>
      </g>
     </g>
    </g>
    <g id="xtick_8">
     <g id="line2d_42">
      <path d="M 569.1275 181.857143 
L 569.1275 45.342857 
" clip-path="url(#p9a5a1694b3)" style="fill: none; stroke: #b0b0b0; stroke-opacity: 0.2; stroke-width: 0.8; stroke-linecap: square"/>
     </g>
     <g id="line2d_43">
      <g>
       <use xlink:href="#m336b7af8db" x="569.1275" y="181.857143" style="stroke: #000000; stroke-width: 0.8"/>
      </g>
     </g>
     <g id="text_18">
      <!-- 0 -->
      <g transform="translate(565.94625 196.45558) scale(0.1 -0.1)">
       <use xlink:href="#DejaVuSans-30"/>
      </g>
     </g>
    </g>
    <g id="xtick_9">
     <g id="line2d_44">
      <path d="M 631.179448 181.857143 
L 631.179448 45.342857 
" clip-path="url(#p9a5a1694b3)" style="fill: none; stroke: #b0b0b0; stroke-opacity: 0.2; stroke-width: 0.8; stroke-linecap: square"/>
     </g>
     <g id="line2d_45">
      <g>
       <use xlink:href="#m336b7af8db" x="631.179448" y="181.857143" style="stroke: #000000; stroke-width: 0.8"/>
      </g>
     </g>
     <g id="text_19">
      <!-- 1 -->
      <g transform="translate(627.998198 196.45558) scale(0.1 -0.1)">
       <use xlink:href="#DejaVuSans-31"/>
      </g>
     </g>
    </g>
    <g id="text_20">
     <!-- $\beta_1$ -->
     <g transform="translate(562.9675 211.005268) scale(0.11 -0.11)">
      <use xlink:href="#DejaVuSans-Oblique-3b2" transform="translate(0 0.390625)"/>
      <use xlink:href="#DejaVuSans-31" transform="translate(63.818359 -16.015625) scale(0.7)"/>
     </g>
    </g>
   </g>
   <g id="matplotlib.axis_6">
    <g id="ytick_11">
     <g id="line2d_46">
      <path d="M 500.870357 175.651948 
L 637.384643 175.651948 
" clip-path="url(#p9a5a1694b3)" style="fill: none; stroke: #b0b0b0; stroke-opacity: 0.2; stroke-width: 0.8; stroke-linecap: square"/>
     </g>
     <g id="line2d_47">
      <g>
       <use xlink:href="#m536af21200" x="500.870357" y="175.651948" style="stroke: #000000; stroke-width: 0.8"/>
      </g>
     </g>
    </g>
    <g id="ytick_12">
     <g id="line2d_48">
      <path d="M 500.870357 144.625974 
L 637.384643 144.625974 
" clip-path="url(#p9a5a1694b3)" style="fill: none; stroke: #b0b0b0; stroke-opacity: 0.2; stroke-width: 0.8; stroke-linecap: square"/>
     </g>
     <g id="line2d_49">
      <g>
       <use xlink:href="#m536af21200" x="500.870357" y="144.625974" style="stroke: #000000; stroke-width: 0.8"/>
      </g>
     </g>
    </g>
    <g id="ytick_13">
     <g id="line2d_50">
      <path d="M 500.870357 113.6 
L 637.384643 113.6 
" clip-path="url(#p9a5a1694b3)" style="fill: none; stroke: #b0b0b0; stroke-opacity: 0.2; stroke-width: 0.8; stroke-linecap: square"/>
     </g>
     <g id="line2d_51">
      <g>
       <use xlink:href="#m536af21200" x="500.870357" y="113.6" style="stroke: #000000; stroke-width: 0.8"/>
      </g>
     </g>
    </g>
    <g id="ytick_14">
     <g id="line2d_52">
      <path d="M 500.870357 82.574026 
L 637.384643 82.574026 
" clip-path="url(#p9a5a1694b3)" style="fill: none; stroke: #b0b0b0; stroke-opacity: 0.2; stroke-width: 0.8; stroke-linecap: square"/>
     </g>
     <g id="line2d_53">
      <g>
       <use xlink:href="#m536af21200" x="500.870357" y="82.574026" style="stroke: #000000; stroke-width: 0.8"/>
      </g>
     </g>
    </g>
    <g id="ytick_15">
     <g id="line2d_54">
      <path d="M 500.870357 51.548052 
L 637.384643 51.548052 
" clip-path="url(#p9a5a1694b3)" style="fill: none; stroke: #b0b0b0; stroke-opacity: 0.2; stroke-width: 0.8; stroke-linecap: square"/>
     </g>
     <g id="line2d_55">
      <g>
       <use xlink:href="#m536af21200" x="500.870357" y="51.548052" style="stroke: #000000; stroke-width: 0.8"/>
      </g>
     </g>
    </g>
   </g>
   <g id="line2d_56">
    <path d="M 631.179448 113.6 
L 569.418834 51.839385 
L 569.030085 51.645467 
L 507.270078 113.405474 
L 507.270078 113.794526 
L 569.030085 175.554533 
L 569.418834 175.360615 
L 631.179448 113.6 
L 631.179448 113.6 
" clip-path="url(#p9a5a1694b3)" style="fill: none; stroke: #0000ff; stroke-width: 2; stroke-linecap: square"/>
   </g>
   <g id="line2d_57">
    <path d="M 500.870357 113.6 
L 637.384643 113.6 
" clip-path="url(#p9a5a1694b3)" style="fill: none; stroke: #000000; stroke-opacity: 0.3; stroke-width: 0.5; stroke-linecap: square"/>
   </g>
   <g id="line2d_58">
    <path d="M 569.1275 181.857143 
L 569.1275 45.342857 
" clip-path="url(#p9a5a1694b3)" style="fill: none; stroke: #000000; stroke-opacity: 0.3; stroke-width: 0.5; stroke-linecap: square"/>
   </g>
   <g id="patch_13">
    <path d="M 500.870357 181.857143 
L 500.870357 45.342857 
" style="fill: none; stroke: #000000; stroke-width: 0.8; stroke-linejoin: miter; stroke-linecap: square"/>
   </g>
   <g id="patch_14">
    <path d="M 637.384643 181.857143 
L 637.384643 45.342857 
" style="fill: none; stroke: #000000; stroke-width: 0.8; stroke-linejoin: miter; stroke-linecap: square"/>
   </g>
   <g id="patch_15">
    <path d="M 500.870357 181.857143 
L 637.384643 181.857143 
" style="fill: none; stroke: #000000; stroke-width: 0.8; stroke-linejoin: miter; stroke-linecap: square"/>
   </g>
   <g id="patch_16">
    <path d="M 500.870357 45.342857 
L 637.384643 45.342857 
" style="fill: none; stroke: #000000; stroke-width: 0.8; stroke-linejoin: miter; stroke-linecap: square"/>
   </g>
   <g id="text_21">
    <!-- $p = 1$ -->
    <g transform="translate(554.1275 39.342857) scale(0.12 -0.12)">
     <use xlink:href="#DejaVuSans-Oblique-70" transform="translate(0 0.09375)"/>
     <use xlink:href="#DejaVuSans-3d" transform="translate(82.958984 0.09375)"/>
     <use xlink:href="#DejaVuSans-31" transform="translate(186.230469 0.09375)"/>
    </g>
   </g>
  </g>
  <g id="axes_4">
   <g id="patch_17">
    <path d="M 707.505357 181.857143 
L 844.019643 181.857143 
L 844.019643 45.342857 
L 707.505357 45.342857 
z
" style="fill: #ffffff"/>
   </g>
   <g id="matplotlib.axis_7">
    <g id="xtick_10">
     <g id="line2d_59">
      <path d="M 713.710552 181.857143 
L 713.710552 45.342857 
" clip-path="url(#p427783d2b9)" style="fill: none; stroke: #b0b0b0; stroke-opacity: 0.2; stroke-width: 0.8; stroke-linecap: square"/>
     </g>
     <g id="line2d_60">
      <g>
       <use xlink:href="#m336b7af8db" x="713.710552" y="181.857143" style="stroke: #000000; stroke-width: 0.8"/>
      </g>
     </g>
     <g id="text_22">
      <!-- −1 -->
      <g transform="translate(706.339458 196.45558) scale(0.1 -0.1)">
       <use xlink:href="#DejaVuSans-2212"/>
       <use xlink:href="#DejaVuSans-31" transform="translate(83.789062 0)"/>
      </g>
     </g>
    </g>
    <g id="xtick_11">
     <g id="line2d_61">
      <path d="M 775.7625 181.857143 
L 775.7625 45.342857 
" clip-path="url(#p427783d2b9)" style="fill: none; stroke: #b0b0b0; stroke-opacity: 0.2; stroke-width: 0.8; stroke-linecap: square"/>
     </g>
     <g id="line2d_62">
      <g>
       <use xlink:href="#m336b7af8db" x="775.7625" y="181.857143" style="stroke: #000000; stroke-width: 0.8"/>
      </g>
     </g>
     <g id="text_23">
      <!-- 0 -->
      <g transform="translate(772.58125 196.45558) scale(0.1 -0.1)">
       <use xlink:href="#DejaVuSans-30"/>
      </g>
     </g>
    </g>
    <g id="xtick_12">
     <g id="line2d_63">
      <path d="M 837.814448 181.857143 
L 837.814448 45.342857 
" clip-path="url(#p427783d2b9)" style="fill: none; stroke: #b0b0b0; stroke-opacity: 0.2; stroke-width: 0.8; stroke-linecap: square"/>
     </g>
     <g id="line2d_64">
      <g>
       <use xlink:href="#m336b7af8db" x="837.814448" y="181.857143" style="stroke: #000000; stroke-width: 0.8"/>
      </g>
     </g>
     <g id="text_24">
      <!-- 1 -->
      <g transform="translate(834.633198 196.45558) scale(0.1 -0.1)">
       <use xlink:href="#DejaVuSans-31"/>
      </g>
     </g>
    </g>
    <g id="text_25">
     <!-- $\beta_1$ -->
     <g transform="translate(769.6025 211.005268) scale(0.11 -0.11)">
      <use xlink:href="#DejaVuSans-Oblique-3b2" transform="translate(0 0.390625)"/>
      <use xlink:href="#DejaVuSans-31" transform="translate(63.818359 -16.015625) scale(0.7)"/>
     </g>
    </g>
   </g>
   <g id="matplotlib.axis_8">
    <g id="ytick_16">
     <g id="line2d_65">
      <path d="M 707.505357 175.651948 
L 844.019643 175.651948 
" clip-path="url(#p427783d2b9)" style="fill: none; stroke: #b0b0b0; stroke-opacity: 0.2; stroke-width: 0.8; stroke-linecap: square"/>
     </g>
     <g id="line2d_66">
      <g>
       <use xlink:href="#m536af21200" x="707.505357" y="175.651948" style="stroke: #000000; stroke-width: 0.8"/>
      </g>
     </g>
    </g>
    <g id="ytick_17">
     <g id="line2d_67">
      <path d="M 707.505357 144.625974 
L 844.019643 144.625974 
" clip-path="url(#p427783d2b9)" style="fill: none; stroke: #b0b0b0; stroke-opacity: 0.2; stroke-width: 0.8; stroke-linecap: square"/>
     </g>
     <g id="line2d_68">
      <g>
       <use xlink:href="#m536af21200" x="707.505357" y="144.625974" style="stroke: #000000; stroke-width: 0.8"/>
      </g>
     </g>
    </g>
    <g id="ytick_18">
     <g id="line2d_69">
      <path d="M 707.505357 113.6 
L 844.019643 113.6 
" clip-path="url(#p427783d2b9)" style="fill: none; stroke: #b0b0b0; stroke-opacity: 0.2; stroke-width: 0.8; stroke-linecap: square"/>
     </g>
     <g id="line2d_70">
      <g>
       <use xlink:href="#m536af21200" x="707.505357" y="113.6" style="stroke: #000000; stroke-width: 0.8"/>
      </g>
     </g>
    </g>
    <g id="ytick_19">
     <g id="line2d_71">
      <path d="M 707.505357 82.574026 
L 844.019643 82.574026 
" clip-path="url(#p427783d2b9)" style="fill: none; stroke: #b0b0b0; stroke-opacity: 0.2; stroke-width: 0.8; stroke-linecap: square"/>
     </g>
     <g id="line2d_72">
      <g>
       <use xlink:href="#m536af21200" x="707.505357" y="82.574026" style="stroke: #000000; stroke-width: 0.8"/>
      </g>
     </g>
    </g>
    <g id="ytick_20">
     <g id="line2d_73">
      <path d="M 707.505357 51.548052 
L 844.019643 51.548052 
" clip-path="url(#p427783d2b9)" style="fill: none; stroke: #b0b0b0; stroke-opacity: 0.2; stroke-width: 0.8; stroke-linecap: square"/>
     </g>
     <g id="line2d_74">
      <g>
       <use xlink:href="#m536af21200" x="707.505357" y="51.548052" style="stroke: #000000; stroke-width: 0.8"/>
      </g>
     </g>
    </g>
   </g>
   <g id="line2d_75">
    <path d="M 837.814448 113.6 
L 837.64987 112.042715 
L 837.169139 109.732744 
L 836.401166 107.091629 
L 835.333014 104.155356 
L 833.952027 100.96342 
L 832.24917 97.556391 
L 830.218349 93.973406 
L 827.854311 90.250025 
L 825.149836 86.416713 
L 822.315588 82.771391 
L 819.127897 79.033183 
L 815.799716 75.468273 
L 812.322936 72.059275 
L 808.683096 68.794377 
L 804.860718 65.668865 
L 801.127594 62.895313 
L 797.196462 60.259534 
L 793.373999 57.972288 
L 789.693816 56.030685 
L 786.195119 54.433677 
L 782.920935 53.179733 
L 779.915705 52.266454 
L 777.610495 51.760844 
L 775.664935 51.550631 
L 774.108257 51.728248 
L 771.799853 52.217449 
L 769.161003 52.991956 
L 765.867401 54.211108 
L 762.346599 55.779771 
L 758.642679 57.697914 
L 754.795825 59.965345 
L 751.137365 62.377109 
L 747.367792 65.125585 
L 743.510456 68.226032 
L 739.839574 71.465929 
L 736.334897 74.848509 
L 732.980979 78.384447 
L 729.768459 82.090224 
L 726.695821 85.986897 
L 723.975599 89.797456 
L 721.594347 93.497693 
L 719.543914 97.057812 
L 717.654284 100.789593 
L 716.120354 104.336177 
L 714.944338 107.652174 
L 714.217404 110.306628 
L 713.791992 112.625515 
L 713.717846 113.795115 
L 713.975443 115.738198 
L 714.608755 118.417742 
L 715.569667 121.404211 
L 716.861915 124.65554 
L 718.490452 128.128473 
L 720.458361 131.781149 
L 722.768005 135.575449 
L 725.423572 139.4787 
L 728.214378 143.186764 
L 731.357349 146.985117 
L 734.639838 150.603601 
L 738.067552 154.061131 
L 741.653073 157.371455 
L 745.414395 160.541771 
L 749.08383 163.359267 
L 752.94404 166.045036 
L 756.694739 168.388434 
L 760.304637 170.395549 
L 763.737217 172.070583 
L 766.952323 173.418595 
L 769.908394 174.447352 
L 772.565025 175.167115 
L 774.885309 175.582399 
L 776.055145 175.638549 
L 777.997314 175.368881 
L 780.674862 174.727054 
L 783.65861 173.759641 
L 786.906659 172.462108 
L 790.375916 170.829195 
L 794.02468 168.857617 
L 797.814983 166.544834 
L 801.714282 163.886477 
L 805.418797 161.093224 
L 809.213747 157.947764 
L 812.829205 154.662754 
L 816.284003 151.232351 
L 819.591786 147.643863 
L 822.759619 143.87921 
L 825.574708 140.206301 
L 828.257773 136.342217 
L 830.598171 132.587588 
L 832.601823 128.973825 
L 834.272775 125.537586 
L 835.615923 122.319176 
L 836.638827 119.360302 
L 837.351318 116.701508 
L 837.75615 114.379856 
L 837.814448 113.6 
L 837.814448 113.6 
" clip-path="url(#p427783d2b9)" style="fill: none; stroke: #0000ff; stroke-width: 2; stroke-linecap: square"/>
   </g>
   <g id="line2d_76">
    <path d="M 707.505357 113.6 
L 844.019643 113.6 
" clip-path="url(#p427783d2b9)" style="fill: none; stroke: #000000; stroke-opacity: 0.3; stroke-width: 0.5; stroke-linecap: square"/>
   </g>
   <g id="line2d_77">
    <path d="M 775.7625 181.857143 
L 775.7625 45.342857 
" clip-path="url(#p427783d2b9)" style="fill: none; stroke: #000000; stroke-opacity: 0.3; stroke-width: 0.5; stroke-linecap: square"/>
   </g>
   <g id="patch_18">
    <path d="M 707.505357 181.857143 
L 707.505357 45.342857 
" style="fill: none; stroke: #000000; stroke-width: 0.8; stroke-linejoin: miter; stroke-linecap: square"/>
   </g>
   <g id="patch_19">
    <path d="M 844.019643 181.857143 
L 844.019643 45.342857 
" style="fill: none; stroke: #000000; stroke-width: 0.8; stroke-linejoin: miter; stroke-linecap: square"/>
   </g>
   <g id="patch_20">
    <path d="M 707.505357 181.857143 
L 844.019643 181.857143 
" style="fill: none; stroke: #000000; stroke-width: 0.8; stroke-linejoin: miter; stroke-linecap: square"/>
   </g>
   <g id="patch_21">
    <path d="M 707.505357 45.342857 
L 844.019643 45.342857 
" style="fill: none; stroke: #000000; stroke-width: 0.8; stroke-linejoin: miter; stroke-linecap: square"/>
   </g>
   <g id="text_26">
    <!-- $p = 1.5$ -->
    <g transform="translate(755.0025 39.342857) scale(0.12 -0.12)">
     <use xlink:href="#DejaVuSans-Oblique-70" transform="translate(0 0.09375)"/>
     <use xlink:href="#DejaVuSans-3d" transform="translate(82.958984 0.09375)"/>
     <use xlink:href="#DejaVuSans-31" transform="translate(186.230469 0.09375)"/>
     <use xlink:href="#DejaVuSans-2e" transform="translate(249.853516 0.09375)"/>
     <use xlink:href="#DejaVuSans-35" transform="translate(281.640625 0.09375)"/>
    </g>
   </g>
  </g>
  <g id="axes_5">
   <g id="patch_22">
    <path d="M 914.140357 181.857143 
L 1050.654643 181.857143 
L 1050.654643 45.342857 
L 914.140357 45.342857 
z
" style="fill: #ffffff"/>
   </g>
   <g id="matplotlib.axis_9">
    <g id="xtick_13">
     <g id="line2d_78">
      <path d="M 920.345552 181.857143 
L 920.345552 45.342857 
" clip-path="url(#p3c0eb21d80)" style="fill: none; stroke: #b0b0b0; stroke-opacity: 0.2; stroke-width: 0.8; stroke-linecap: square"/>
     </g>
     <g id="line2d_79">
      <g>
       <use xlink:href="#m336b7af8db" x="920.345552" y="181.857143" style="stroke: #000000; stroke-width: 0.8"/>
      </g>
     </g>
     <g id="text_27">
      <!-- −1 -->
      <g transform="translate(912.974458 196.45558) scale(0.1 -0.1)">
       <use xlink:href="#DejaVuSans-2212"/>
       <use xlink:href="#DejaVuSans-31" transform="translate(83.789062 0)"/>
      </g>
     </g>
    </g>
    <g id="xtick_14">
     <g id="line2d_80">
      <path d="M 982.3975 181.857143 
L 982.3975 45.342857 
" clip-path="url(#p3c0eb21d80)" style="fill: none; stroke: #b0b0b0; stroke-opacity: 0.2; stroke-width: 0.8; stroke-linecap: square"/>
     </g>
     <g id="line2d_81">
      <g>
       <use xlink:href="#m336b7af8db" x="982.3975" y="181.857143" style="stroke: #000000; stroke-width: 0.8"/>
      </g>
     </g>
     <g id="text_28">
      <!-- 0 -->
      <g transform="translate(979.21625 196.45558) scale(0.1 -0.1)">
       <use xlink:href="#DejaVuSans-30"/>
      </g>
     </g>
    </g>
    <g id="xtick_15">
     <g id="line2d_82">
      <path d="M 1044.449448 181.857143 
L 1044.449448 45.342857 
" clip-path="url(#p3c0eb21d80)" style="fill: none; stroke: #b0b0b0; stroke-opacity: 0.2; stroke-width: 0.8; stroke-linecap: square"/>
     </g>
     <g id="line2d_83">
      <g>
       <use xlink:href="#m336b7af8db" x="1044.449448" y="181.857143" style="stroke: #000000; stroke-width: 0.8"/>
      </g>
     </g>
     <g id="text_29">
      <!-- 1 -->
      <g transform="translate(1041.268198 196.45558) scale(0.1 -0.1)">
       <use xlink:href="#DejaVuSans-31"/>
      </g>
     </g>
    </g>
    <g id="text_30">
     <!-- $\beta_1$ -->
     <g transform="translate(976.2375 211.005268) scale(0.11 -0.11)">
      <use xlink:href="#DejaVuSans-Oblique-3b2" transform="translate(0 0.390625)"/>
      <use xlink:href="#DejaVuSans-31" transform="translate(63.818359 -16.015625) scale(0.7)"/>
     </g>
    </g>
   </g>
   <g id="matplotlib.axis_10">
    <g id="ytick_21">
     <g id="line2d_84">
      <path d="M 914.140357 175.651948 
L 1050.654643 175.651948 
" clip-path="url(#p3c0eb21d80)" style="fill: none; stroke: #b0b0b0; stroke-opacity: 0.2; stroke-width: 0.8; stroke-linecap: square"/>
     </g>
     <g id="line2d_85">
      <g>
       <use xlink:href="#m536af21200" x="914.140357" y="175.651948" style="stroke: #000000; stroke-width: 0.8"/>
      </g>
     </g>
    </g>
    <g id="ytick_22">
     <g id="line2d_86">
      <path d="M 914.140357 144.625974 
L 1050.654643 144.625974 
" clip-path="url(#p3c0eb21d80)" style="fill: none; stroke: #b0b0b0; stroke-opacity: 0.2; stroke-width: 0.8; stroke-linecap: square"/>
     </g>
     <g id="line2d_87">
      <g>
       <use xlink:href="#m536af21200" x="914.140357" y="144.625974" style="stroke: #000000; stroke-width: 0.8"/>
      </g>
     </g>
    </g>
    <g id="ytick_23">
     <g id="line2d_88">
      <path d="M 914.140357 113.6 
L 1050.654643 113.6 
" clip-path="url(#p3c0eb21d80)" style="fill: none; stroke: #b0b0b0; stroke-opacity: 0.2; stroke-width: 0.8; stroke-linecap: square"/>
     </g>
     <g id="line2d_89">
      <g>
       <use xlink:href="#m536af21200" x="914.140357" y="113.6" style="stroke: #000000; stroke-width: 0.8"/>
      </g>
     </g>
    </g>
    <g id="ytick_24">
     <g id="line2d_90">
      <path d="M 914.140357 82.574026 
L 1050.654643 82.574026 
" clip-path="url(#p3c0eb21d80)" style="fill: none; stroke: #b0b0b0; stroke-opacity: 0.2; stroke-width: 0.8; stroke-linecap: square"/>
     </g>
     <g id="line2d_91">
      <g>
       <use xlink:href="#m536af21200" x="914.140357" y="82.574026" style="stroke: #000000; stroke-width: 0.8"/>
      </g>
     </g>
    </g>
    <g id="ytick_25">
     <g id="line2d_92">
      <path d="M 914.140357 51.548052 
L 1050.654643 51.548052 
" clip-path="url(#p3c0eb21d80)" style="fill: none; stroke: #b0b0b0; stroke-opacity: 0.2; stroke-width: 0.8; stroke-linecap: square"/>
     </g>
     <g id="line2d_93">
      <g>
       <use xlink:href="#m536af21200" x="914.140357" y="51.548052" style="stroke: #000000; stroke-width: 0.8"/>
      </g>
     </g>
    </g>
   </g>
   <g id="line2d_94">
    <path d="M 1044.449448 113.6 
L 1044.326758 109.699831 
L 1043.959171 105.815085 
L 1043.348142 101.961124 
L 1042.496088 98.153188 
L 1041.406377 94.406336 
L 1040.083318 90.735384 
L 1038.532144 87.154849 
L 1036.758988 83.67889 
L 1034.770863 80.321252 
L 1032.575631 77.095213 
L 1030.181972 74.013531 
L 1027.599351 71.088391 
L 1024.837983 68.331361 
L 1021.908785 65.753343 
L 1018.823343 63.364532 
L 1015.593857 61.174375 
L 1012.233097 59.191532 
L 1008.754354 57.423844 
L 1005.171384 55.878302 
L 1001.498357 54.561017 
L 997.749796 53.477198 
L 993.940525 52.631132 
L 990.085608 52.026164 
L 986.200289 51.664687 
L 982.299931 51.548129 
L 978.39996 51.676952 
L 974.515797 52.050646 
L 970.662801 52.667733 
L 966.85621 53.525775 
L 963.111076 54.621376 
L 959.442209 55.950205 
L 955.864117 57.507007 
L 952.390951 59.285626 
L 949.036443 61.279028 
L 945.81386 63.47933 
L 942.735945 65.877832 
L 939.81487 68.465049 
L 937.062185 71.230749 
L 934.488776 74.163996 
L 932.104819 77.253191 
L 929.919743 80.486117 
L 927.942186 83.84999 
L 926.179971 87.331508 
L 924.640064 90.916903 
L 923.328556 94.591998 
L 922.250633 98.342258 
L 921.410558 102.152855 
L 920.811652 106.008718 
L 920.456284 109.894601 
L 920.345859 113.795137 
L 920.480814 117.694901 
L 920.860615 121.578472 
L 921.48376 125.430492 
L 922.347785 129.23573 
L 923.449274 132.979136 
L 924.78387 136.645909 
L 926.346297 140.221549 
L 928.130374 143.691915 
L 930.129048 147.043284 
L 932.334415 150.262403 
L 934.737754 153.336543 
L 937.32956 156.253547 
L 940.099585 159.001879 
L 943.036875 161.570673 
L 946.129814 163.949769 
L 949.366172 166.12976 
L 952.733151 168.102024 
L 956.217435 169.858763 
L 959.805247 171.393031 
L 963.482399 172.698758 
L 967.23435 173.770783 
L 971.046263 174.604866 
L 974.903063 175.197708 
L 978.7895 175.546966 
L 982.690205 175.651258 
L 986.589751 175.510171 
L 990.47272 175.124264 
L 994.323756 174.495063 
L 998.12763 173.625055 
L 1001.869301 172.517682 
L 1005.533971 171.177322 
L 1009.107149 169.609275 
L 1012.574705 167.819743 
L 1015.922927 165.815802 
L 1019.138575 163.605376 
L 1022.208932 161.197207 
L 1025.121857 158.600817 
L 1027.865831 155.826474 
L 1030.430003 152.885149 
L 1032.804233 149.788473 
L 1034.979132 146.548691 
L 1036.9461 143.178615 
L 1038.697359 139.691573 
L 1040.225982 136.101353 
L 1041.525927 132.422152 
L 1042.592051 128.66852 
L 1043.420139 124.855301 
L 1044.006916 120.997573 
L 1044.350063 117.110592 
L 1044.449448 113.6 
L 1044.449448 113.6 
" clip-path="url(#p3c0eb21d80)" style="fill: none; stroke: #0000ff; stroke-width: 2; stroke-linecap: square"/>
   </g>
   <g id="line2d_95">
    <path d="M 914.140357 113.6 
L 1050.654643 113.6 
" clip-path="url(#p3c0eb21d80)" style="fill: none; stroke: #000000; stroke-opacity: 0.3; stroke-width: 0.5; stroke-linecap: square"/>
   </g>
   <g id="line2d_96">
    <path d="M 982.3975 181.857143 
L 982.3975 45.342857 
" clip-path="url(#p3c0eb21d80)" style="fill: none; stroke: #000000; stroke-opacity: 0.3; stroke-width: 0.5; stroke-linecap: square"/>
   </g>
   <g id="patch_23">
    <path d="M 914.140357 181.857143 
L 914.140357 45.342857 
" style="fill: none; stroke: #000000; stroke-width: 0.8; stroke-linejoin: miter; stroke-linecap: square"/>
   </g>
   <g id="patch_24">
    <path d="M 1050.654643 181.857143 
L 1050.654643 45.342857 
" style="fill: none; stroke: #000000; stroke-width: 0.8; stroke-linejoin: miter; stroke-linecap: square"/>
   </g>
   <g id="patch_25">
    <path d="M 914.140357 181.857143 
L 1050.654643 181.857143 
" style="fill: none; stroke: #000000; stroke-width: 0.8; stroke-linejoin: miter; stroke-linecap: square"/>
   </g>
   <g id="patch_26">
    <path d="M 914.140357 45.342857 
L 1050.654643 45.342857 
" style="fill: none; stroke: #000000; stroke-width: 0.8; stroke-linejoin: miter; stroke-linecap: square"/>
   </g>
   <g id="text_31">
    <!-- $p = 2$ -->
    <g transform="translate(967.3975 39.342857) scale(0.12 -0.12)">
     <use xlink:href="#DejaVuSans-Oblique-70" transform="translate(0 0.78125)"/>
     <use xlink:href="#DejaVuSans-3d" transform="translate(82.958984 0.78125)"/>
     <use xlink:href="#DejaVuSans-32" transform="translate(186.230469 0.78125)"/>
    </g>
   </g>
  </g>
  <g id="axes_6">
   <g id="patch_27">
    <path d="M 1120.775357 181.857143 
L 1257.289643 181.857143 
L 1257.289643 45.342857 
L 1120.775357 45.342857 
z
" style="fill: #ffffff"/>
   </g>
   <g id="matplotlib.axis_11">
    <g id="xtick_16">
     <g id="line2d_97">
      <path d="M 1126.980552 181.857143 
L 1126.980552 45.342857 
" clip-path="url(#p29fdf5943b)" style="fill: none; stroke: #b0b0b0; stroke-opacity: 0.2; stroke-width: 0.8; stroke-linecap: square"/>
     </g>
     <g id="line2d_98">
      <g>
       <use xlink:href="#m336b7af8db" x="1126.980552" y="181.857143" style="stroke: #000000; stroke-width: 0.8"/>
      </g>
     </g>
     <g id="text_32">
      <!-- −1 -->
      <g transform="translate(1119.609458 196.45558) scale(0.1 -0.1)">
       <use xlink:href="#DejaVuSans-2212"/>
       <use xlink:href="#DejaVuSans-31" transform="translate(83.789062 0)"/>
      </g>
     </g>
    </g>
    <g id="xtick_17">
     <g id="line2d_99">
      <path d="M 1189.0325 181.857143 
L 1189.0325 45.342857 
" clip-path="url(#p29fdf5943b)" style="fill: none; stroke: #b0b0b0; stroke-opacity: 0.2; stroke-width: 0.8; stroke-linecap: square"/>
     </g>
     <g id="line2d_100">
      <g>
       <use xlink:href="#m336b7af8db" x="1189.0325" y="181.857143" style="stroke: #000000; stroke-width: 0.8"/>
      </g>
     </g>
     <g id="text_33">
      <!-- 0 -->
      <g transform="translate(1185.85125 196.45558) scale(0.1 -0.1)">
       <use xlink:href="#DejaVuSans-30"/>
      </g>
     </g>
    </g>
    <g id="xtick_18">
     <g id="line2d_101">
      <path d="M 1251.084448 181.857143 
L 1251.084448 45.342857 
" clip-path="url(#p29fdf5943b)" style="fill: none; stroke: #b0b0b0; stroke-opacity: 0.2; stroke-width: 0.8; stroke-linecap: square"/>
     </g>
     <g id="line2d_102">
      <g>
       <use xlink:href="#m336b7af8db" x="1251.084448" y="181.857143" style="stroke: #000000; stroke-width: 0.8"/>
      </g>
     </g>
     <g id="text_34">
      <!-- 1 -->
      <g transform="translate(1247.903198 196.45558) scale(0.1 -0.1)">
       <use xlink:href="#DejaVuSans-31"/>
      </g>
     </g>
    </g>
    <g id="text_35">
     <!-- $\beta_1$ -->
     <g transform="translate(1182.8725 211.005268) scale(0.11 -0.11)">
      <use xlink:href="#DejaVuSans-Oblique-3b2" transform="translate(0 0.390625)"/>
      <use xlink:href="#DejaVuSans-31" transform="translate(63.818359 -16.015625) scale(0.7)"/>
     </g>
    </g>
   </g>
   <g id="matplotlib.axis_12">
    <g id="ytick_26">
     <g id="line2d_103">
      <path d="M 1120.775357 175.651948 
L 1257.289643 175.651948 
" clip-path="url(#p29fdf5943b)" style="fill: none; stroke: #b0b0b0; stroke-opacity: 0.2; stroke-width: 0.8; stroke-linecap: square"/>
     </g>
     <g id="line2d_104">
      <g>
       <use xlink:href="#m536af21200" x="1120.775357" y="175.651948" style="stroke: #000000; stroke-width: 0.8"/>
      </g>
     </g>
    </g>
    <g id="ytick_27">
     <g id="line2d_105">
      <path d="M 1120.775357 144.625974 
L 1257.289643 144.625974 
" clip-path="url(#p29fdf5943b)" style="fill: none; stroke: #b0b0b0; stroke-opacity: 0.2; stroke-width: 0.8; stroke-linecap: square"/>
     </g>
     <g id="line2d_106">
      <g>
       <use xlink:href="#m536af21200" x="1120.775357" y="144.625974" style="stroke: #000000; stroke-width: 0.8"/>
      </g>
     </g>
    </g>
    <g id="ytick_28">
     <g id="line2d_107">
      <path d="M 1120.775357 113.6 
L 1257.289643 113.6 
" clip-path="url(#p29fdf5943b)" style="fill: none; stroke: #b0b0b0; stroke-opacity: 0.2; stroke-width: 0.8; stroke-linecap: square"/>
     </g>
     <g id="line2d_108">
      <g>
       <use xlink:href="#m536af21200" x="1120.775357" y="113.6" style="stroke: #000000; stroke-width: 0.8"/>
      </g>
     </g>
    </g>
    <g id="ytick_29">
     <g id="line2d_109">
      <path d="M 1120.775357 82.574026 
L 1257.289643 82.574026 
" clip-path="url(#p29fdf5943b)" style="fill: none; stroke: #b0b0b0; stroke-opacity: 0.2; stroke-width: 0.8; stroke-linecap: square"/>
     </g>
     <g id="line2d_110">
      <g>
       <use xlink:href="#m536af21200" x="1120.775357" y="82.574026" style="stroke: #000000; stroke-width: 0.8"/>
      </g>
     </g>
    </g>
    <g id="ytick_30">
     <g id="line2d_111">
      <path d="M 1120.775357 51.548052 
L 1257.289643 51.548052 
" clip-path="url(#p29fdf5943b)" style="fill: none; stroke: #b0b0b0; stroke-opacity: 0.2; stroke-width: 0.8; stroke-linecap: square"/>
     </g>
     <g id="line2d_112">
      <g>
       <use xlink:href="#m536af21200" x="1120.775357" y="51.548052" style="stroke: #000000; stroke-width: 0.8"/>
      </g>
     </g>
    </g>
   </g>
   <g id="line2d_113">
    <path d="M 1251.084448 51.548052 
L 1126.980552 51.548052 
L 1126.980552 175.651948 
L 1251.084448 175.651948 
L 1251.084448 51.548052 
" clip-path="url(#p29fdf5943b)" style="fill: none; stroke: #0000ff; stroke-width: 2; stroke-linecap: square"/>
   </g>
   <g id="line2d_114">
    <path d="M 1120.775357 113.6 
L 1257.289643 113.6 
" clip-path="url(#p29fdf5943b)" style="fill: none; stroke: #000000; stroke-opacity: 0.3; stroke-width: 0.5; stroke-linecap: square"/>
   </g>
   <g id="line2d_115">
    <path d="M 1189.0325 181.857143 
L 1189.0325 45.342857 
" clip-path="url(#p29fdf5943b)" style="fill: none; stroke: #000000; stroke-opacity: 0.3; stroke-width: 0.5; stroke-linecap: square"/>
   </g>
   <g id="patch_28">
    <path d="M 1120.775357 181.857143 
L 1120.775357 45.342857 
" style="fill: none; stroke: #000000; stroke-width: 0.8; stroke-linejoin: miter; stroke-linecap: square"/>
   </g>
   <g id="patch_29">
    <path d="M 1257.289643 181.857143 
L 1257.289643 45.342857 
" style="fill: none; stroke: #000000; stroke-width: 0.8; stroke-linejoin: miter; stroke-linecap: square"/>
   </g>
   <g id="patch_30">
    <path d="M 1120.775357 181.857143 
L 1257.289643 181.857143 
" style="fill: none; stroke: #000000; stroke-width: 0.8; stroke-linejoin: miter; stroke-linecap: square"/>
   </g>
   <g id="patch_31">
    <path d="M 1120.775357 45.342857 
L 1257.289643 45.342857 
" style="fill: none; stroke: #000000; stroke-width: 0.8; stroke-linejoin: miter; stroke-linecap: square"/>
   </g>
   <g id="text_36">
    <!-- $p = \infty$ -->
    <g transform="translate(1172.8325 39.342857) scale(0.12 -0.12)">
     <defs>
      <path id="DejaVuSans-221e" d="M 2916 1091 
Q 2819 1203 2666 1466 
Q 2456 1091 2272 925 
Q 2041 725 1681 725 
Q 1259 725 981 1041 
Q 688 1372 688 1919 
Q 688 2444 981 2800 
Q 1244 3116 1688 3116 
Q 1916 3116 2084 3022 
Q 2281 2919 2416 2741 
Q 2541 2581 2666 2366 
Q 2875 2741 3059 2906 
Q 3291 3106 3650 3106 
Q 4072 3106 4350 2791 
Q 4644 2459 4644 1913 
Q 4644 1388 4350 1031 
Q 4088 716 3644 716 
Q 3416 716 3247 809 
Q 3078 894 2916 1091 
z
M 1647 1134 
Q 2163 1134 2472 1884 
Q 2075 2703 1647 2703 
Q 1334 2703 1175 2478 
Q 1003 2238 1003 1919 
Q 1003 1569 1175 1353 
Q 1350 1134 1647 1134 
z
M 3684 2697 
Q 3219 2697 2859 1947 
Q 3253 1128 3684 1128 
Q 3997 1128 4156 1353 
Q 4328 1594 4328 1913 
Q 4328 2263 4156 2478 
Q 3981 2697 3684 2697 
z
" transform="scale(0.015625)"/>
     </defs>
     <use xlink:href="#DejaVuSans-Oblique-70"/>
     <use xlink:href="#DejaVuSans-3d" transform="translate(82.958984 0)"/>
     <use xlink:href="#DejaVuSans-221e" transform="translate(186.230469 0)"/>
    </g>
   </g>
  </g>
  <g id="text_37">
   <!-- Unit Norm Balls: $\|\beta\|_p = 1$ for different values of $p$ -->
   <g transform="translate(476.29 6.46) scale(0.14 -0.14)">
    <defs>
     <path id="DejaVuSans-55" d="M 556 4666 
L 1191 4666 
L 1191 1831 
Q 1191 1081 1462 751 
Q 1734 422 2344 422 
Q 2950 422 3222 751 
Q 3494 1081 3494 1831 
L 3494 4666 
L 4128 4666 
L 4128 1753 
Q 4128 841 3676 375 
Q 3225 -91 2344 -91 
Q 1459 -91 1007 375 
Q 556 841 556 1753 
L 556 4666 
z
" transform="scale(0.015625)"/>
     <path id="DejaVuSans-6e" d="M 3513 2113 
L 3513 0 
L 2938 0 
L 2938 2094 
Q 2938 2591 2744 2837 
Q 2550 3084 2163 3084 
Q 1697 3084 1428 2787 
Q 1159 2491 1159 1978 
L 1159 0 
L 581 0 
L 581 3500 
L 1159 3500 
L 1159 2956 
Q 1366 3272 1645 3428 
Q 1925 3584 2291 3584 
Q 2894 3584 3203 3211 
Q 3513 2838 3513 2113 
z
" transform="scale(0.015625)"/>
     <path id="DejaVuSans-69" d="M 603 3500 
L 1178 3500 
L 1178 0 
L 603 0 
L 603 3500 
z
M 603 4863 
L 1178 4863 
L 1178 4134 
L 603 4134 
L 603 4863 
z
" transform="scale(0.015625)"/>
     <path id="DejaVuSans-74" d="M 1172 4494 
L 1172 3500 
L 2356 3500 
L 2356 3053 
L 1172 3053 
L 1172 1153 
Q 1172 725 1289 603 
Q 1406 481 1766 481 
L 2356 481 
L 2356 0 
L 1766 0 
Q 1100 0 847 248 
Q 594 497 594 1153 
L 594 3053 
L 172 3053 
L 172 3500 
L 594 3500 
L 594 4494 
L 1172 4494 
z
" transform="scale(0.015625)"/>
     <path id="DejaVuSans-20" transform="scale(0.015625)"/>
     <path id="DejaVuSans-4e" d="M 628 4666 
L 1478 4666 
L 3547 763 
L 3547 4666 
L 4159 4666 
L 4159 0 
L 3309 0 
L 1241 3903 
L 1241 0 
L 628 0 
L 628 4666 
z
" transform="scale(0.015625)"/>
     <path id="DejaVuSans-6f" d="M 1959 3097 
Q 1497 3097 1228 2736 
Q 959 2375 959 1747 
Q 959 1119 1226 758 
Q 1494 397 1959 397 
Q 2419 397 2687 759 
Q 2956 1122 2956 1747 
Q 2956 2369 2687 2733 
Q 2419 3097 1959 3097 
z
M 1959 3584 
Q 2709 3584 3137 3096 
Q 3566 2609 3566 1747 
Q 3566 888 3137 398 
Q 2709 -91 1959 -91 
Q 1206 -91 779 398 
Q 353 888 353 1747 
Q 353 2609 779 3096 
Q 1206 3584 1959 3584 
z
" transform="scale(0.015625)"/>
     <path id="DejaVuSans-72" d="M 2631 2963 
Q 2534 3019 2420 3045 
Q 2306 3072 2169 3072 
Q 1681 3072 1420 2755 
Q 1159 2438 1159 1844 
L 1159 0 
L 581 0 
L 581 3500 
L 1159 3500 
L 1159 2956 
Q 1341 3275 1631 3429 
Q 1922 3584 2338 3584 
Q 2397 3584 2469 3576 
Q 2541 3569 2628 3553 
L 2631 2963 
z
" transform="scale(0.015625)"/>
     <path id="DejaVuSans-6d" d="M 3328 2828 
Q 3544 3216 3844 3400 
Q 4144 3584 4550 3584 
Q 5097 3584 5394 3201 
Q 5691 2819 5691 2113 
L 5691 0 
L 5113 0 
L 5113 2094 
Q 5113 2597 4934 2840 
Q 4756 3084 4391 3084 
Q 3944 3084 3684 2787 
Q 3425 2491 3425 1978 
L 3425 0 
L 2847 0 
L 2847 2094 
Q 2847 2600 2669 2842 
Q 2491 3084 2119 3084 
Q 1678 3084 1418 2786 
Q 1159 2488 1159 1978 
L 1159 0 
L 581 0 
L 581 3500 
L 1159 3500 
L 1159 2956 
Q 1356 3278 1631 3431 
Q 1906 3584 2284 3584 
Q 2666 3584 2933 3390 
Q 3200 3197 3328 2828 
z
" transform="scale(0.015625)"/>
     <path id="DejaVuSans-42" d="M 1259 2228 
L 1259 519 
L 2272 519 
Q 2781 519 3026 730 
Q 3272 941 3272 1375 
Q 3272 1813 3026 2020 
Q 2781 2228 2272 2228 
L 1259 2228 
z
M 1259 4147 
L 1259 2741 
L 2194 2741 
Q 2656 2741 2882 2914 
Q 3109 3088 3109 3444 
Q 3109 3797 2882 3972 
Q 2656 4147 2194 4147 
L 1259 4147 
z
M 628 4666 
L 2241 4666 
Q 2963 4666 3353 4366 
Q 3744 4066 3744 3513 
Q 3744 3084 3544 2831 
Q 3344 2578 2956 2516 
Q 3422 2416 3680 2098 
Q 3938 1781 3938 1306 
Q 3938 681 3513 340 
Q 3088 0 2303 0 
L 628 0 
L 628 4666 
z
" transform="scale(0.015625)"/>
     <path id="DejaVuSans-61" d="M 2194 1759 
Q 1497 1759 1228 1600 
Q 959 1441 959 1056 
Q 959 750 1161 570 
Q 1363 391 1709 391 
Q 2188 391 2477 730 
Q 2766 1069 2766 1631 
L 2766 1759 
L 2194 1759 
z
M 3341 1997 
L 3341 0 
L 2766 0 
L 2766 531 
Q 2569 213 2275 61 
Q 1981 -91 1556 -91 
Q 1019 -91 701 211 
Q 384 513 384 1019 
Q 384 1609 779 1909 
Q 1175 2209 1959 2209 
L 2766 2209 
L 2766 2266 
Q 2766 2663 2505 2880 
Q 2244 3097 1772 3097 
Q 1472 3097 1187 3025 
Q 903 2953 641 2809 
L 641 3341 
Q 956 3463 1253 3523 
Q 1550 3584 1831 3584 
Q 2591 3584 2966 3190 
Q 3341 2797 3341 1997 
z
" transform="scale(0.015625)"/>
     <path id="DejaVuSans-6c" d="M 603 4863 
L 1178 4863 
L 1178 0 
L 603 0 
L 603 4863 
z
" transform="scale(0.015625)"/>
     <path id="DejaVuSans-73" d="M 2834 3397 
L 2834 2853 
Q 2591 2978 2328 3040 
Q 2066 3103 1784 3103 
Q 1356 3103 1142 2972 
Q 928 2841 928 2578 
Q 928 2378 1081 2264 
Q 1234 2150 1697 2047 
L 1894 2003 
Q 2506 1872 2764 1633 
Q 3022 1394 3022 966 
Q 3022 478 2636 193 
Q 2250 -91 1575 -91 
Q 1294 -91 989 -36 
Q 684 19 347 128 
L 347 722 
Q 666 556 975 473 
Q 1284 391 1588 391 
Q 1994 391 2212 530 
Q 2431 669 2431 922 
Q 2431 1156 2273 1281 
Q 2116 1406 1581 1522 
L 1381 1569 
Q 847 1681 609 1914 
Q 372 2147 372 2553 
Q 372 3047 722 3315 
Q 1072 3584 1716 3584 
Q 2034 3584 2315 3537 
Q 2597 3491 2834 3397 
z
" transform="scale(0.015625)"/>
     <path id="DejaVuSans-3a" d="M 750 794 
L 1409 794 
L 1409 0 
L 750 0 
L 750 794 
z
M 750 3309 
L 1409 3309 
L 1409 2516 
L 750 2516 
L 750 3309 
z
" transform="scale(0.015625)"/>
     <path id="DejaVuSans-2016" d="M 1344 4891 
L 1344 -1509 
L 813 -1509 
L 813 4891 
L 1344 4891 
z
M 2376 4891 
L 2376 -1509 
L 1845 -1509 
L 1845 4891 
L 2376 4891 
z
" transform="scale(0.015625)"/>
     <path id="DejaVuSans-66" d="M 2375 4863 
L 2375 4384 
L 1825 4384 
Q 1516 4384 1395 4259 
Q 1275 4134 1275 3809 
L 1275 3500 
L 2222 3500 
L 2222 3053 
L 1275 3053 
L 1275 0 
L 697 0 
L 697 3053 
L 147 3053 
L 147 3500 
L 697 3500 
L 697 3744 
Q 697 4328 969 4595 
Q 1241 4863 1831 4863 
L 2375 4863 
z
" transform="scale(0.015625)"/>
     <path id="DejaVuSans-64" d="M 2906 2969 
L 2906 4863 
L 3481 4863 
L 3481 0 
L 2906 0 
L 2906 525 
Q 2725 213 2448 61 
Q 2172 -91 1784 -91 
Q 1150 -91 751 415 
Q 353 922 353 1747 
Q 353 2572 751 3078 
Q 1150 3584 1784 3584 
Q 2172 3584 2448 3432 
Q 2725 3281 2906 2969 
z
M 947 1747 
Q 947 1113 1208 752 
Q 1469 391 1925 391 
Q 2381 391 2643 752 
Q 2906 1113 2906 1747 
Q 2906 2381 2643 2742 
Q 2381 3103 1925 3103 
Q 1469 3103 1208 2742 
Q 947 2381 947 1747 
z
" transform="scale(0.015625)"/>
     <path id="DejaVuSans-65" d="M 3597 1894 
L 3597 1613 
L 953 1613 
Q 991 1019 1311 708 
Q 1631 397 2203 397 
Q 2534 397 2845 478 
Q 3156 559 3463 722 
L 3463 178 
Q 3153 47 2828 -22 
Q 2503 -91 2169 -91 
Q 1331 -91 842 396 
Q 353 884 353 1716 
Q 353 2575 817 3079 
Q 1281 3584 2069 3584 
Q 2775 3584 3186 3129 
Q 3597 2675 3597 1894 
z
M 3022 2063 
Q 3016 2534 2758 2815 
Q 2500 3097 2075 3097 
Q 1594 3097 1305 2825 
Q 1016 2553 972 2059 
L 3022 2063 
z
" transform="scale(0.015625)"/>
     <path id="DejaVuSans-76" d="M 191 3500 
L 800 3500 
L 1894 563 
L 2988 3500 
L 3597 3500 
L 2284 0 
L 1503 0 
L 191 3500 
z
" transform="scale(0.015625)"/>
     <path id="DejaVuSans-75" d="M 544 1381 
L 544 3500 
L 1119 3500 
L 1119 1403 
Q 1119 906 1312 657 
Q 1506 409 1894 409 
Q 2359 409 2629 706 
Q 2900 1003 2900 1516 
L 2900 3500 
L 3475 3500 
L 3475 0 
L 2900 0 
L 2900 538 
Q 2691 219 2414 64 
Q 2138 -91 1772 -91 
Q 1169 -91 856 284 
Q 544 659 544 1381 
z
M 1991 3584 
L 1991 3584 
z
" transform="scale(0.015625)"/>
    </defs>
    <use xlink:href="#DejaVuSans-55" transform="translate(0 0.390625)"/>
    <use xlink:href="#DejaVuSans-6e" transform="translate(73.193359 0.390625)"/>
    <use xlink:href="#DejaVuSans-69" transform="translate(136.572266 0.390625)"/>
    <use xlink:href="#DejaVuSans-74" transform="translate(164.355469 0.390625)"/>
    <use xlink:href="#DejaVuSans-20" transform="translate(203.564453 0.390625)"/>
    <use xlink:href="#DejaVuSans-4e" transform="translate(235.351562 0.390625)"/>
    <use xlink:href="#DejaVuSans-6f" transform="translate(310.15625 0.390625)"/>
    <use xlink:href="#DejaVuSans-72" transform="translate(371.337891 0.390625)"/>
    <use xlink:href="#DejaVuSans-6d" transform="translate(412.451172 0.390625)"/>
    <use xlink:href="#DejaVuSans-20" transform="translate(509.863281 0.390625)"/>
    <use xlink:href="#DejaVuSans-42" transform="translate(541.650391 0.390625)"/>
    <use xlink:href="#DejaVuSans-61" transform="translate(610.253906 0.390625)"/>
    <use xlink:href="#DejaVuSans-6c" transform="translate(671.533203 0.390625)"/>
    <use xlink:href="#DejaVuSans-6c" transform="translate(699.316406 0.390625)"/>
    <use xlink:href="#DejaVuSans-73" transform="translate(727.099609 0.390625)"/>
    <use xlink:href="#DejaVuSans-3a" transform="translate(779.199219 0.390625)"/>
    <use xlink:href="#DejaVuSans-20" transform="translate(812.890625 0.390625)"/>
    <use xlink:href="#DejaVuSans-2016" transform="translate(844.677734 0.390625)"/>
    <use xlink:href="#DejaVuSans-Oblique-3b2" transform="translate(894.677734 0.390625)"/>
    <use xlink:href="#DejaVuSans-2016" transform="translate(958.496094 0.390625)"/>
    <use xlink:href="#DejaVuSans-Oblique-70" transform="translate(1009.453125 -16.015625) scale(0.7)"/>
    <use xlink:href="#DejaVuSans-3d" transform="translate(1076.103516 0.390625)"/>
    <use xlink:href="#DejaVuSans-31" transform="translate(1179.375 0.390625)"/>
    <use xlink:href="#DejaVuSans-20" transform="translate(1242.998047 0.390625)"/>
    <use xlink:href="#DejaVuSans-66" transform="translate(1274.785156 0.390625)"/>
    <use xlink:href="#DejaVuSans-6f" transform="translate(1309.990234 0.390625)"/>
    <use xlink:href="#DejaVuSans-72" transform="translate(1371.171875 0.390625)"/>
    <use xlink:href="#DejaVuSans-20" transform="translate(1412.285156 0.390625)"/>
    <use xlink:href="#DejaVuSans-64" transform="translate(1444.072266 0.390625)"/>
    <use xlink:href="#DejaVuSans-69" transform="translate(1507.548828 0.390625)"/>
    <use xlink:href="#DejaVuSans-66" transform="translate(1535.332031 0.390625)"/>
    <use xlink:href="#DejaVuSans-66" transform="translate(1570.537109 0.390625)"/>
    <use xlink:href="#DejaVuSans-65" transform="translate(1605.742188 0.390625)"/>
    <use xlink:href="#DejaVuSans-72" transform="translate(1667.265625 0.390625)"/>
    <use xlink:href="#DejaVuSans-65" transform="translate(1708.378906 0.390625)"/>
    <use xlink:href="#DejaVuSans-6e" transform="translate(1769.902344 0.390625)"/>
    <use xlink:href="#DejaVuSans-74" transform="translate(1833.28125 0.390625)"/>
    <use xlink:href="#DejaVuSans-20" transform="translate(1872.490234 0.390625)"/>
    <use xlink:href="#DejaVuSans-76" transform="translate(1904.277344 0.390625)"/>
    <use xlink:href="#DejaVuSans-61" transform="translate(1963.457031 0.390625)"/>
    <use xlink:href="#DejaVuSans-6c" transform="translate(2024.736328 0.390625)"/>
    <use xlink:href="#DejaVuSans-75" transform="translate(2052.519531 0.390625)"/>
    <use xlink:href="#DejaVuSans-65" transform="translate(2115.898438 0.390625)"/>
    <use xlink:href="#DejaVuSans-73" transform="translate(2177.421875 0.390625)"/>
    <use xlink:href="#DejaVuSans-20" transform="translate(2229.521484 0.390625)"/>
    <use xlink:href="#DejaVuSans-6f" transform="translate(2261.308594 0.390625)"/>
    <use xlink:href="#DejaVuSans-66" transform="translate(2322.490234 0.390625)"/>
    <use xlink:href="#DejaVuSans-20" transform="translate(2357.695312 0.390625)"/>
    <use xlink:href="#DejaVuSans-Oblique-70" transform="translate(2389.482422 0.390625)"/>
   </g>
  </g>
 </g>
 <defs>
  <clipPath id="p529a7ad206">
   <rect x="87.600357" y="45.342857" width="136.514286" height="136.514286"/>
  </clipPath>
  <clipPath id="p4f4a6ba8cd">
   <rect x="294.235357" y="45.342857" width="136.514286" height="136.514286"/>
  </clipPath>
  <clipPath id="p9a5a1694b3">
   <rect x="500.870357" y="45.342857" width="136.514286" height="136.514286"/>
  </clipPath>
  <clipPath id="p427783d2b9">
   <rect x="707.505357" y="45.342857" width="136.514286" height="136.514286"/>
  </clipPath>
  <clipPath id="p3c0eb21d80">
   <rect x="914.140357" y="45.342857" width="136.514286" height="136.514286"/>
  </clipPath>
  <clipPath id="p29fdf5943b">
   <rect x="1120.775357" y="45.342857" width="136.514286" height="136.514286"/>
  </clipPath>
 </defs>
</svg>
