<?xml version="1.0" encoding="utf-8" standalone="no"?>
<!DOCTYPE svg PUBLIC "-//W3C//DTD SVG 1.1//EN"
  "http://www.w3.org/Graphics/SVG/1.1/DTD/svg11.dtd">
<svg xmlns:xlink="http://www.w3.org/1999/xlink" width="576pt" height="432pt" viewBox="0 0 576 432" xmlns="http://www.w3.org/2000/svg" version="1.1">
 <metadata>
  <rdf:RDF xmlns:dc="http://purl.org/dc/elements/1.1/" xmlns:cc="http://creativecommons.org/ns#" xmlns:rdf="http://www.w3.org/1999/02/22-rdf-syntax-ns#">
   <cc:Work>
    <dc:type rdf:resource="http://purl.org/dc/dcmitype/StillImage"/>
    <dc:date>2025-09-22T15:53:12.760386</dc:date>
    <dc:format>image/svg+xml</dc:format>
    <dc:creator>
     <cc:Agent>
      <dc:title>Matplotlib v3.8.4, https://matplotlib.org/</dc:title>
     </cc:Agent>
    </dc:creator>
   </cc:Work>
  </rdf:RDF>
 </metadata>
 <defs>
  <style type="text/css">*{stroke-linejoin: round; stroke-linecap: butt}</style>
 </defs>
 <g id="figure_1">
  <g id="patch_1">
   <path d="M 0 432 
L 576 432 
L 576 0 
L 0 0 
z
" style="fill: #ffffff"/>
  </g>
  <g id="axes_1">
   <g id="patch_2">
    <path d="M 85.155 383.56 
L 527.405 383.56 
L 527.405 29.76 
L 85.155 29.76 
z
" style="fill: #ffffff"/>
   </g>
   <g id="patch_3">
    <path d="M 262.055 401.25 
C 290.203657 401.25 317.203207 390.06642 337.107314 370.162314 
C 357.01142 350.258207 368.195 323.258657 368.195 295.11 
C 368.195 266.961343 357.01142 239.961793 337.107314 220.057686 
C 317.203207 200.15358 290.203657 188.97 262.055 188.97 
C 233.906343 188.97 206.906793 200.15358 187.002686 220.057686 
C 167.09858 239.961793 155.915 266.961343 155.915 295.11 
C 155.915 323.258657 167.09858 350.258207 187.002686 370.162314 
C 206.906793 390.06642 233.906343 401.25 262.055 401.25 
L 262.055 401.25 
z
" clip-path="url(#p4a9920590b)" style="fill: none; stroke-dasharray: 9.25,4; stroke-dashoffset: 0; stroke: #ff0000; stroke-width: 2.5; stroke-linejoin: miter"/>
   </g>
   <g id="line2d_1">
    <path d="M 85.155 295.11 
L 527.405 295.11 
" clip-path="url(#p4a9920590b)" style="fill: none; stroke: #000000; stroke-opacity: 0.7; stroke-linecap: square"/>
   </g>
   <g id="line2d_2">
    <path d="M 262.055 383.56 
L 262.055 29.76 
" clip-path="url(#p4a9920590b)" style="fill: none; stroke: #000000; stroke-opacity: 0.7; stroke-linecap: square"/>
   </g>
   <g id="matplotlib.axis_1">
    <g id="xtick_1">
     <g id="line2d_3">
      <path d="M 85.155 383.56 
L 85.155 29.76 
" clip-path="url(#p4a9920590b)" style="fill: none; stroke: #b0b0b0; stroke-opacity: 0.3; stroke-width: 0.8; stroke-linecap: square"/>
     </g>
     <g id="line2d_4">
      <defs>
       <path id="mb291daede6" d="M 0 0 
L 0 3.5 
" style="stroke: #000000; stroke-width: 0.8"/>
      </defs>
      <g>
       <use xlink:href="#mb291daede6" x="85.155" y="383.56" style="stroke: #000000; stroke-width: 0.8"/>
      </g>
     </g>
     <g id="text_1">
      <!-- −2 -->
      <g transform="translate(77.783906 398.158437) scale(0.1 -0.1)">
       <defs>
        <path id="DejaVuSans-2212" d="M 678 2272 
L 4684 2272 
L 4684 1741 
L 678 1741 
L 678 2272 
z
" transform="scale(0.015625)"/>
        <path id="DejaVuSans-32" d="M 1228 531 
L 3431 531 
L 3431 0 
L 469 0 
L 469 531 
Q 828 903 1448 1529 
Q 2069 2156 2228 2338 
Q 2531 2678 2651 2914 
Q 2772 3150 2772 3378 
Q 2772 3750 2511 3984 
Q 2250 4219 1831 4219 
Q 1534 4219 1204 4116 
Q 875 4013 500 3803 
L 500 4441 
Q 881 4594 1212 4672 
Q 1544 4750 1819 4750 
Q 2544 4750 2975 4387 
Q 3406 4025 3406 3419 
Q 3406 3131 3298 2873 
Q 3191 2616 2906 2266 
Q 2828 2175 2409 1742 
Q 1991 1309 1228 531 
z
" transform="scale(0.015625)"/>
       </defs>
       <use xlink:href="#DejaVuSans-2212"/>
       <use xlink:href="#DejaVuSans-32" x="83.789062"/>
      </g>
     </g>
    </g>
    <g id="xtick_2">
     <g id="line2d_5">
      <path d="M 173.605 383.56 
L 173.605 29.76 
" clip-path="url(#p4a9920590b)" style="fill: none; stroke: #b0b0b0; stroke-opacity: 0.3; stroke-width: 0.8; stroke-linecap: square"/>
     </g>
     <g id="line2d_6">
      <g>
       <use xlink:href="#mb291daede6" x="173.605" y="383.56" style="stroke: #000000; stroke-width: 0.8"/>
      </g>
     </g>
     <g id="text_2">
      <!-- −1 -->
      <g transform="translate(166.233906 398.158437) scale(0.1 -0.1)">
       <defs>
        <path id="DejaVuSans-31" d="M 794 531 
L 1825 531 
L 1825 4091 
L 703 3866 
L 703 4441 
L 1819 4666 
L 2450 4666 
L 2450 531 
L 3481 531 
L 3481 0 
L 794 0 
L 794 531 
z
" transform="scale(0.015625)"/>
       </defs>
       <use xlink:href="#DejaVuSans-2212"/>
       <use xlink:href="#DejaVuSans-31" x="83.789062"/>
      </g>
     </g>
    </g>
    <g id="xtick_3">
     <g id="line2d_7">
      <path d="M 262.055 383.56 
L 262.055 29.76 
" clip-path="url(#p4a9920590b)" style="fill: none; stroke: #b0b0b0; stroke-opacity: 0.3; stroke-width: 0.8; stroke-linecap: square"/>
     </g>
     <g id="line2d_8">
      <g>
       <use xlink:href="#mb291daede6" x="262.055" y="383.56" style="stroke: #000000; stroke-width: 0.8"/>
      </g>
     </g>
     <g id="text_3">
      <!-- 0 -->
      <g transform="translate(258.87375 398.158437) scale(0.1 -0.1)">
       <defs>
        <path id="DejaVuSans-30" d="M 2034 4250 
Q 1547 4250 1301 3770 
Q 1056 3291 1056 2328 
Q 1056 1369 1301 889 
Q 1547 409 2034 409 
Q 2525 409 2770 889 
Q 3016 1369 3016 2328 
Q 3016 3291 2770 3770 
Q 2525 4250 2034 4250 
z
M 2034 4750 
Q 2819 4750 3233 4129 
Q 3647 3509 3647 2328 
Q 3647 1150 3233 529 
Q 2819 -91 2034 -91 
Q 1250 -91 836 529 
Q 422 1150 422 2328 
Q 422 3509 836 4129 
Q 1250 4750 2034 4750 
z
" transform="scale(0.015625)"/>
       </defs>
       <use xlink:href="#DejaVuSans-30"/>
      </g>
     </g>
    </g>
    <g id="xtick_4">
     <g id="line2d_9">
      <path d="M 350.505 383.56 
L 350.505 29.76 
" clip-path="url(#p4a9920590b)" style="fill: none; stroke: #b0b0b0; stroke-opacity: 0.3; stroke-width: 0.8; stroke-linecap: square"/>
     </g>
     <g id="line2d_10">
      <g>
       <use xlink:href="#mb291daede6" x="350.505" y="383.56" style="stroke: #000000; stroke-width: 0.8"/>
      </g>
     </g>
     <g id="text_4">
      <!-- 1 -->
      <g transform="translate(347.32375 398.158437) scale(0.1 -0.1)">
       <use xlink:href="#DejaVuSans-31"/>
      </g>
     </g>
    </g>
    <g id="xtick_5">
     <g id="line2d_11">
      <path d="M 438.955 383.56 
L 438.955 29.76 
" clip-path="url(#p4a9920590b)" style="fill: none; stroke: #b0b0b0; stroke-opacity: 0.3; stroke-width: 0.8; stroke-linecap: square"/>
     </g>
     <g id="line2d_12">
      <g>
       <use xlink:href="#mb291daede6" x="438.955" y="383.56" style="stroke: #000000; stroke-width: 0.8"/>
      </g>
     </g>
     <g id="text_5">
      <!-- 2 -->
      <g transform="translate(435.77375 398.158437) scale(0.1 -0.1)">
       <use xlink:href="#DejaVuSans-32"/>
      </g>
     </g>
    </g>
    <g id="xtick_6">
     <g id="line2d_13">
      <path d="M 527.405 383.56 
L 527.405 29.76 
" clip-path="url(#p4a9920590b)" style="fill: none; stroke: #b0b0b0; stroke-opacity: 0.3; stroke-width: 0.8; stroke-linecap: square"/>
     </g>
     <g id="line2d_14">
      <g>
       <use xlink:href="#mb291daede6" x="527.405" y="383.56" style="stroke: #000000; stroke-width: 0.8"/>
      </g>
     </g>
     <g id="text_6">
      <!-- 3 -->
      <g transform="translate(524.22375 398.158437) scale(0.1 -0.1)">
       <defs>
        <path id="DejaVuSans-33" d="M 2597 2516 
Q 3050 2419 3304 2112 
Q 3559 1806 3559 1356 
Q 3559 666 3084 287 
Q 2609 -91 1734 -91 
Q 1441 -91 1130 -33 
Q 819 25 488 141 
L 488 750 
Q 750 597 1062 519 
Q 1375 441 1716 441 
Q 2309 441 2620 675 
Q 2931 909 2931 1356 
Q 2931 1769 2642 2001 
Q 2353 2234 1838 2234 
L 1294 2234 
L 1294 2753 
L 1863 2753 
Q 2328 2753 2575 2939 
Q 2822 3125 2822 3475 
Q 2822 3834 2567 4026 
Q 2313 4219 1838 4219 
Q 1578 4219 1281 4162 
Q 984 4106 628 3988 
L 628 4550 
Q 988 4650 1302 4700 
Q 1616 4750 1894 4750 
Q 2613 4750 3031 4423 
Q 3450 4097 3450 3541 
Q 3450 3153 3228 2886 
Q 3006 2619 2597 2516 
z
" transform="scale(0.015625)"/>
       </defs>
       <use xlink:href="#DejaVuSans-33"/>
      </g>
     </g>
    </g>
    <g id="text_7">
     <!-- $\beta_1$ -->
     <g transform="translate(298.44 415.018125) scale(0.14 -0.14)">
      <defs>
       <path id="DejaVuSans-Oblique-3b2" d="M 872 216 
L 572 -1331 
L -6 -1331 
L 928 3478 
Q 1206 4903 2538 4903 
Q 3888 4903 3659 3700 
Q 3503 2844 2894 2531 
Q 3713 2250 3553 1416 
Q 3272 -69 1759 -66 
Q 1097 -63 872 216 
z
M 1019 966 
Q 1259 422 1875 425 
Q 2775 425 2966 1406 
Q 3138 2288 1675 2219 
L 1778 2750 
Q 2909 2731 3106 3750 
Q 3241 4438 2509 4434 
Q 1691 4434 1503 3459 
L 1019 966 
z
" transform="scale(0.015625)"/>
      </defs>
      <use xlink:href="#DejaVuSans-Oblique-3b2" transform="translate(0 0.390625)"/>
      <use xlink:href="#DejaVuSans-31" transform="translate(63.818359 -16.015625) scale(0.7)"/>
     </g>
    </g>
   </g>
   <g id="matplotlib.axis_2">
    <g id="ytick_1">
     <g id="line2d_15">
      <path d="M 85.155 383.56 
L 527.405 383.56 
" clip-path="url(#p4a9920590b)" style="fill: none; stroke: #b0b0b0; stroke-opacity: 0.3; stroke-width: 0.8; stroke-linecap: square"/>
     </g>
     <g id="line2d_16">
      <defs>
       <path id="mf71cec8539" d="M 0 0 
L -3.5 0 
" style="stroke: #000000; stroke-width: 0.8"/>
      </defs>
      <g>
       <use xlink:href="#mf71cec8539" x="85.155" y="383.56" style="stroke: #000000; stroke-width: 0.8"/>
      </g>
     </g>
     <g id="text_8">
      <!-- −1.0 -->
      <g transform="translate(53.872187 387.359219) scale(0.1 -0.1)">
       <defs>
        <path id="DejaVuSans-2e" d="M 684 794 
L 1344 794 
L 1344 0 
L 684 0 
L 684 794 
z
" transform="scale(0.015625)"/>
       </defs>
       <use xlink:href="#DejaVuSans-2212"/>
       <use xlink:href="#DejaVuSans-31" x="83.789062"/>
       <use xlink:href="#DejaVuSans-2e" x="147.412109"/>
       <use xlink:href="#DejaVuSans-30" x="179.199219"/>
      </g>
     </g>
    </g>
    <g id="ytick_2">
     <g id="line2d_17">
      <path d="M 85.155 339.335 
L 527.405 339.335 
" clip-path="url(#p4a9920590b)" style="fill: none; stroke: #b0b0b0; stroke-opacity: 0.3; stroke-width: 0.8; stroke-linecap: square"/>
     </g>
     <g id="line2d_18">
      <g>
       <use xlink:href="#mf71cec8539" x="85.155" y="339.335" style="stroke: #000000; stroke-width: 0.8"/>
      </g>
     </g>
     <g id="text_9">
      <!-- −0.5 -->
      <g transform="translate(53.872187 343.134219) scale(0.1 -0.1)">
       <defs>
        <path id="DejaVuSans-35" d="M 691 4666 
L 3169 4666 
L 3169 4134 
L 1269 4134 
L 1269 2991 
Q 1406 3038 1543 3061 
Q 1681 3084 1819 3084 
Q 2600 3084 3056 2656 
Q 3513 2228 3513 1497 
Q 3513 744 3044 326 
Q 2575 -91 1722 -91 
Q 1428 -91 1123 -41 
Q 819 9 494 109 
L 494 744 
Q 775 591 1075 516 
Q 1375 441 1709 441 
Q 2250 441 2565 725 
Q 2881 1009 2881 1497 
Q 2881 1984 2565 2268 
Q 2250 2553 1709 2553 
Q 1456 2553 1204 2497 
Q 953 2441 691 2322 
L 691 4666 
z
" transform="scale(0.015625)"/>
       </defs>
       <use xlink:href="#DejaVuSans-2212"/>
       <use xlink:href="#DejaVuSans-30" x="83.789062"/>
       <use xlink:href="#DejaVuSans-2e" x="147.412109"/>
       <use xlink:href="#DejaVuSans-35" x="179.199219"/>
      </g>
     </g>
    </g>
    <g id="ytick_3">
     <g id="line2d_19">
      <path d="M 85.155 295.11 
L 527.405 295.11 
" clip-path="url(#p4a9920590b)" style="fill: none; stroke: #b0b0b0; stroke-opacity: 0.3; stroke-width: 0.8; stroke-linecap: square"/>
     </g>
     <g id="line2d_20">
      <g>
       <use xlink:href="#mf71cec8539" x="85.155" y="295.11" style="stroke: #000000; stroke-width: 0.8"/>
      </g>
     </g>
     <g id="text_10">
      <!-- 0.0 -->
      <g transform="translate(62.251875 298.909219) scale(0.1 -0.1)">
       <use xlink:href="#DejaVuSans-30"/>
       <use xlink:href="#DejaVuSans-2e" x="63.623047"/>
       <use xlink:href="#DejaVuSans-30" x="95.410156"/>
      </g>
     </g>
    </g>
    <g id="ytick_4">
     <g id="line2d_21">
      <path d="M 85.155 250.885 
L 527.405 250.885 
" clip-path="url(#p4a9920590b)" style="fill: none; stroke: #b0b0b0; stroke-opacity: 0.3; stroke-width: 0.8; stroke-linecap: square"/>
     </g>
     <g id="line2d_22">
      <g>
       <use xlink:href="#mf71cec8539" x="85.155" y="250.885" style="stroke: #000000; stroke-width: 0.8"/>
      </g>
     </g>
     <g id="text_11">
      <!-- 0.5 -->
      <g transform="translate(62.251875 254.684219) scale(0.1 -0.1)">
       <use xlink:href="#DejaVuSans-30"/>
       <use xlink:href="#DejaVuSans-2e" x="63.623047"/>
       <use xlink:href="#DejaVuSans-35" x="95.410156"/>
      </g>
     </g>
    </g>
    <g id="ytick_5">
     <g id="line2d_23">
      <path d="M 85.155 206.66 
L 527.405 206.66 
" clip-path="url(#p4a9920590b)" style="fill: none; stroke: #b0b0b0; stroke-opacity: 0.3; stroke-width: 0.8; stroke-linecap: square"/>
     </g>
     <g id="line2d_24">
      <g>
       <use xlink:href="#mf71cec8539" x="85.155" y="206.66" style="stroke: #000000; stroke-width: 0.8"/>
      </g>
     </g>
     <g id="text_12">
      <!-- 1.0 -->
      <g transform="translate(62.251875 210.459219) scale(0.1 -0.1)">
       <use xlink:href="#DejaVuSans-31"/>
       <use xlink:href="#DejaVuSans-2e" x="63.623047"/>
       <use xlink:href="#DejaVuSans-30" x="95.410156"/>
      </g>
     </g>
    </g>
    <g id="ytick_6">
     <g id="line2d_25">
      <path d="M 85.155 162.435 
L 527.405 162.435 
" clip-path="url(#p4a9920590b)" style="fill: none; stroke: #b0b0b0; stroke-opacity: 0.3; stroke-width: 0.8; stroke-linecap: square"/>
     </g>
     <g id="line2d_26">
      <g>
       <use xlink:href="#mf71cec8539" x="85.155" y="162.435" style="stroke: #000000; stroke-width: 0.8"/>
      </g>
     </g>
     <g id="text_13">
      <!-- 1.5 -->
      <g transform="translate(62.251875 166.234219) scale(0.1 -0.1)">
       <use xlink:href="#DejaVuSans-31"/>
       <use xlink:href="#DejaVuSans-2e" x="63.623047"/>
       <use xlink:href="#DejaVuSans-35" x="95.410156"/>
      </g>
     </g>
    </g>
    <g id="ytick_7">
     <g id="line2d_27">
      <path d="M 85.155 118.21 
L 527.405 118.21 
" clip-path="url(#p4a9920590b)" style="fill: none; stroke: #b0b0b0; stroke-opacity: 0.3; stroke-width: 0.8; stroke-linecap: square"/>
     </g>
     <g id="line2d_28">
      <g>
       <use xlink:href="#mf71cec8539" x="85.155" y="118.21" style="stroke: #000000; stroke-width: 0.8"/>
      </g>
     </g>
     <g id="text_14">
      <!-- 2.0 -->
      <g transform="translate(62.251875 122.009219) scale(0.1 -0.1)">
       <use xlink:href="#DejaVuSans-32"/>
       <use xlink:href="#DejaVuSans-2e" x="63.623047"/>
       <use xlink:href="#DejaVuSans-30" x="95.410156"/>
      </g>
     </g>
    </g>
    <g id="ytick_8">
     <g id="line2d_29">
      <path d="M 85.155 73.985 
L 527.405 73.985 
" clip-path="url(#p4a9920590b)" style="fill: none; stroke: #b0b0b0; stroke-opacity: 0.3; stroke-width: 0.8; stroke-linecap: square"/>
     </g>
     <g id="line2d_30">
      <g>
       <use xlink:href="#mf71cec8539" x="85.155" y="73.985" style="stroke: #000000; stroke-width: 0.8"/>
      </g>
     </g>
     <g id="text_15">
      <!-- 2.5 -->
      <g transform="translate(62.251875 77.784219) scale(0.1 -0.1)">
       <use xlink:href="#DejaVuSans-32"/>
       <use xlink:href="#DejaVuSans-2e" x="63.623047"/>
       <use xlink:href="#DejaVuSans-35" x="95.410156"/>
      </g>
     </g>
    </g>
    <g id="ytick_9">
     <g id="line2d_31">
      <path d="M 85.155 29.76 
L 527.405 29.76 
" clip-path="url(#p4a9920590b)" style="fill: none; stroke: #b0b0b0; stroke-opacity: 0.3; stroke-width: 0.8; stroke-linecap: square"/>
     </g>
     <g id="line2d_32">
      <g>
       <use xlink:href="#mf71cec8539" x="85.155" y="29.76" style="stroke: #000000; stroke-width: 0.8"/>
      </g>
     </g>
     <g id="text_16">
      <!-- 3.0 -->
      <g transform="translate(62.251875 33.559219) scale(0.1 -0.1)">
       <use xlink:href="#DejaVuSans-33"/>
       <use xlink:href="#DejaVuSans-2e" x="63.623047"/>
       <use xlink:href="#DejaVuSans-30" x="95.410156"/>
      </g>
     </g>
    </g>
    <g id="text_17">
     <!-- $\beta_2$ -->
     <g transform="translate(46.932187 214.5) rotate(-90) scale(0.14 -0.14)">
      <use xlink:href="#DejaVuSans-Oblique-3b2" transform="translate(0 0.390625)"/>
      <use xlink:href="#DejaVuSans-32" transform="translate(63.818359 -16.015625) scale(0.7)"/>
     </g>
    </g>
   </g>
   <g id="QuadContourSet_1">
    <path d="M 360.727864 261.088742 
L 358.505503 260.481754 
L 354.589956 259.107739 
L 354.060779 258.893797 
L 350.785734 257.329849 
L 347.776387 255.55196 
L 347.393693 255.299347 
L 345.171332 253.673127 
L 342.94897 251.744581 
L 340.726608 249.429941 
L 338.542553 246.662513 
L 337.390323 244.884623 
L 336.281884 242.944263 
L 334.746742 239.550955 
L 334.059523 237.654389 
L 333.132287 234.217286 
L 332.517543 230.661508 
L 332.22515 227.105729 
L 332.231853 223.54995 
L 332.516579 219.994171 
L 333.060193 216.438392 
L 334.059523 212.090738 
L 334.886151 209.326834 
L 336.281884 205.450079 
L 337.672315 202.215276 
L 339.425581 198.659497 
L 341.423189 195.103719 
L 343.676706 191.54794 
L 346.198439 187.992161 
L 349.0015 184.436382 
L 352.11116 180.880603 
L 355.572095 177.324824 
L 358.505503 174.575605 
L 361.501776 171.991156 
L 365.172588 169.091385 
L 369.617312 165.936306 
L 374.095216 163.101709 
L 378.506759 160.637961 
L 382.951482 158.443556 
L 387.396206 156.529912 
L 391.84093 154.889889 
L 396.285653 153.516585 
L 400.730377 152.403329 
L 405.175101 151.574017 
L 409.619824 151.013084 
L 414.064548 150.742302 
L 418.509271 150.785861 
L 422.953995 151.170717 
L 427.398719 151.927 
L 429.62108 152.455674 
L 431.843442 153.116048 
L 434.864161 154.212261 
L 436.288166 154.817808 
L 438.691536 155.990151 
L 441.674841 157.76804 
L 444.145014 159.54593 
L 446.230752 161.323819 
L 448.021033 163.101709 
L 449.622337 164.936401 
L 451.844698 168.061665 
L 453.082668 170.213266 
L 454.06706 172.211507 
L 455.351765 175.546935 
L 456.338387 179.102714 
L 456.942684 182.658492 
L 457.230345 186.214271 
L 457.223855 189.77005 
L 456.943616 193.325829 
L 456.289422 197.466899 
L 455.609445 200.437387 
L 454.576241 203.993166 
L 453.300314 207.548945 
L 451.796644 211.104724 
L 449.622337 215.434745 
L 447.399975 219.265233 
L 445.177613 222.664035 
L 442.955251 225.741117 
L 440.462761 228.883618 
L 437.342148 232.439397 
L 433.895126 235.995176 
L 429.62108 239.924113 
L 425.176357 243.553874 
L 420.731633 246.787385 
L 416.28691 249.656932 
L 411.842186 252.212272 
L 407.397462 254.460428 
L 402.952739 256.428342 
L 398.508015 258.123104 
L 394.063291 259.55157 
L 388.834223 260.885628 
L 385.173844 261.600934 
L 380.729121 262.217212 
L 376.284397 262.547877 
L 371.839673 262.569249 
L 367.39495 262.254955 
L 362.950226 261.575535 
L 360.727864 261.088742 
L 360.727864 261.088742 
" clip-path="url(#p4a9920590b)" style="fill: none; stroke: #0000ff; stroke-opacity: 0.6; stroke-width: 1.5"/>
    <path d="M 349.616055 284.29671 
L 345.171332 283.253142 
L 340.726608 281.882276 
L 336.281884 280.128926 
L 333.226279 278.664523 
L 329.614799 276.630997 
L 327.284176 275.108744 
L 324.87833 273.330854 
L 322.73842 271.552965 
L 320.725352 269.678111 
L 318.50299 267.321961 
L 316.148587 264.441407 
L 313.727303 260.885628 
L 311.738064 257.329849 
L 310.1304 253.77407 
L 308.844885 250.218291 
L 307.845517 246.662513 
L 307.109324 243.106734 
L 306.619827 239.550955 
L 306.351246 235.995176 
L 306.292366 232.439397 
L 306.432714 228.883618 
L 306.762507 225.327839 
L 307.391181 221.116402 
L 307.969673 218.216281 
L 308.837482 214.660503 
L 309.871604 211.104724 
L 311.743511 205.771055 
L 313.209108 202.215276 
L 314.837873 198.659497 
L 316.635133 195.103719 
L 319.666152 189.77005 
L 321.909319 186.214271 
L 325.170075 181.50077 
L 328.352513 177.324824 
L 331.837161 173.130555 
L 336.112266 168.435377 
L 339.64803 164.879598 
L 343.450534 161.323819 
L 347.558343 157.76804 
L 352.017834 154.212261 
L 356.885274 150.656482 
L 362.229613 147.100704 
L 365.172588 145.282924 
L 369.617312 142.737018 
L 374.88805 139.989146 
L 378.620874 138.211256 
L 382.951482 136.329216 
L 387.396206 134.588247 
L 392.346161 132.877588 
L 396.285653 131.680201 
L 400.730377 130.507011 
L 406.220389 129.321809 
L 409.619824 128.732157 
L 414.064548 128.137581 
L 418.509271 127.743008 
L 422.953995 127.559906 
L 427.398719 127.600637 
L 431.843442 127.878547 
L 436.288166 128.408065 
L 441.253099 129.321809 
L 445.177613 130.31368 
L 449.622337 131.758329 
L 454.06706 133.595647 
L 456.289422 134.675909 
L 459.417092 136.433367 
L 462.165007 138.211256 
L 465.178869 140.467225 
L 467.401231 142.381409 
L 470.347398 145.322814 
L 471.908495 147.100704 
L 474.578234 150.656482 
L 476.774169 154.212261 
L 478.572235 157.76804 
L 480.00997 161.323819 
L 481.150686 164.879598 
L 482.010308 168.435377 
L 482.625759 171.991156 
L 483.00849 175.546935 
L 483.168919 179.102714 
L 483.1273 182.658492 
L 482.89173 186.214271 
L 482.463632 189.77005 
L 481.856973 193.325829 
L 480.735402 198.243119 
L 480.125688 200.437387 
L 478.51304 205.403594 
L 477.710833 207.548945 
L 476.257463 211.104724 
L 473.746738 216.438392 
L 470.847419 221.77206 
L 468.695382 225.327839 
L 466.359457 228.883618 
L 462.956508 233.615247 
L 459.666364 237.773065 
L 456.289422 241.703857 
L 451.844698 246.430548 
L 447.947835 250.218291 
L 443.99145 253.77407 
L 439.711589 257.329849 
L 435.058574 260.885628 
L 431.843442 263.172185 
L 427.237219 266.219296 
L 421.292597 269.775075 
L 418.04775 271.552965 
L 414.064548 273.583871 
L 409.619824 275.654142 
L 405.175101 277.529342 
L 400.730377 279.212952 
L 396.285653 280.708372 
L 391.059095 282.220302 
L 387.396206 283.127485 
L 382.951482 284.058375 
L 378.506759 284.786567 
L 374.062035 285.322296 
L 369.617312 285.654671 
L 365.172588 285.771965 
L 360.727864 285.661528 
L 356.283141 285.309703 
L 351.838417 284.701715 
L 349.616055 284.29671 
L 349.616055 284.29671 
" clip-path="url(#p4a9920590b)" style="fill: none; stroke: #0000ff; stroke-opacity: 0.6; stroke-width: 1.5"/>
    <path d="M 340.726608 301.987334 
L 339.648032 301.777085 
L 338.504246 301.54708 
L 336.281884 301.042779 
L 334.059523 300.477663 
L 332.36156 299.999196 
L 331.837161 299.846517 
L 329.614799 299.137975 
L 327.392437 298.361669 
L 327.020843 298.221307 
L 325.170075 297.497734 
L 322.947714 296.556378 
L 322.698831 296.443417 
L 320.725352 295.514876 
L 319.044024 294.665528 
L 318.50299 294.381817 
L 316.280628 293.139105 
L 315.857425 292.887638 
L 314.058266 291.775835 
L 313.042521 291.109749 
L 311.835905 290.285539 
L 310.515847 289.331859 
L 309.613543 288.651655 
L 308.232707 287.55397 
L 307.391181 286.85461 
L 306.157192 285.77608 
L 305.168819 284.871105 
L 304.260123 283.998191 
L 302.946457 282.673185 
L 302.517543 282.220302 
L 300.915921 280.442412 
L 300.724095 280.218441 
L 299.449654 278.664523 
L 298.501734 277.44185 
L 298.088797 276.886633 
L 296.837779 275.108744 
L 296.279372 274.266727 
L 295.68277 273.330854 
L 294.617254 271.552965 
L 294.05701 270.555503 
L 293.63488 269.775075 
L 292.735089 267.997186 
L 291.90013 266.219296 
L 291.834648 266.069594 
L 291.147448 264.441407 
L 290.456211 262.663518 
L 289.823212 260.885628 
L 289.612286 260.238017 
L 289.256445 259.107739 
L 288.749012 257.329849 
L 288.294231 255.55196 
L 287.890911 253.77407 
L 287.5379 251.996181 
L 287.389925 251.133574 
L 287.237838 250.218291 
L 286.988216 248.440402 
L 286.784437 246.662513 
L 286.625525 244.884623 
L 286.510535 243.106734 
L 286.438546 241.328844 
L 286.408662 239.550955 
L 286.420014 237.773065 
L 286.471756 235.995176 
L 286.563064 234.217286 
L 286.693137 232.439397 
L 286.861195 230.661508 
L 287.06648 228.883618 
L 287.308252 227.105729 
L 287.389925 226.584977 
L 287.59018 225.327839 
L 287.909714 223.54995 
L 288.264301 221.77206 
L 288.653249 219.994171 
L 289.075884 218.216281 
L 289.531548 216.438392 
L 289.612286 216.145865 
L 290.028564 214.660503 
L 290.559687 212.882613 
L 291.122497 211.104724 
L 291.71638 209.326834 
L 291.834648 208.991816 
L 292.351822 207.548945 
L 293.020232 205.771055 
L 293.718412 203.993166 
L 294.05701 203.168405 
L 294.454321 202.215276 
L 295.226761 200.437387 
L 296.027683 198.659497 
L 296.279372 198.122056 
L 296.869233 196.881608 
L 297.744109 195.103719 
L 298.501734 193.612106 
L 298.6494 193.325829 
L 299.598624 191.54794 
L 300.574317 189.77005 
L 300.724095 189.505676 
L 301.594914 187.992161 
L 302.644578 186.214271 
L 302.946457 185.717317 
L 303.736799 184.436382 
L 304.860779 182.658492 
L 305.168819 182.183934 
L 306.028235 180.880603 
L 307.22686 179.102714 
L 307.391181 178.865086 
L 308.473325 177.324824 
L 309.613543 175.734245 
L 309.750001 175.546935 
L 311.076322 173.769045 
L 311.835905 172.770852 
L 312.438958 171.991156 
L 313.841638 170.213266 
L 314.058266 169.944456 
L 315.29455 168.435377 
L 316.280628 167.253063 
L 316.785721 166.657487 
L 318.321557 164.879598 
L 318.50299 164.673617 
L 319.911118 163.101709 
L 320.725352 162.207925 
L 321.544707 161.323819 
L 322.947714 159.834764 
L 323.224649 159.54593 
L 324.958847 157.76804 
L 325.170075 157.555151 
L 326.750487 155.990151 
L 327.392437 155.364304 
L 328.595524 154.212261 
L 329.614799 153.251115 
L 330.496914 152.434372 
L 331.837161 151.212086 
L 332.457834 150.656482 
L 334.059523 149.243925 
L 334.481703 148.878593 
L 336.281884 147.34353 
L 336.572209 147.100704 
L 338.504246 145.507981 
L 338.733334 145.322814 
L 340.726608 143.734521 
L 340.969383 143.544925 
L 342.94897 142.020548 
L 343.285016 141.767035 
L 345.171332 140.363604 
L 345.685291 139.989146 
L 347.393693 138.761362 
L 348.175702 138.211256 
L 349.616055 137.211623 
L 350.76223 136.433367 
L 351.838417 135.712302 
L 353.451398 134.655477 
L 354.060779 134.261425 
L 356.250329 132.877588 
L 356.283141 132.857117 
L 358.505503 131.505873 
L 359.189988 131.099698 
L 360.727864 130.198824 
L 362.262641 129.321809 
L 362.950226 128.933878 
L 365.172588 127.712834 
L 365.48902 127.54392 
L 367.39495 126.539333 
L 368.902434 125.76603 
L 369.617312 125.403878 
L 371.839673 124.311422 
L 372.518394 123.988141 
L 374.062035 123.261991 
L 376.284397 122.247653 
L 376.369399 122.210251 
L 378.506759 121.281376 
L 380.524411 120.432362 
L 380.729121 120.34727 
L 382.951482 119.45966 
L 385.040771 118.654472 
L 385.173844 118.603809 
L 387.396206 117.794518 
L 389.618568 117.016987 
L 390.039882 116.876583 
L 391.84093 116.283667 
L 394.063291 115.585814 
L 395.695944 115.098693 
L 396.285653 114.924872 
L 398.508015 114.307032 
L 400.730377 113.72369 
L 402.367199 113.320804 
L 402.952739 113.178425 
L 405.175101 112.676417 
L 407.397462 112.210699 
L 409.619824 111.782081 
L 410.984222 111.542915 
L 411.842186 111.39436 
L 414.064548 111.049423 
L 416.28691 110.743477 
L 418.509271 110.477398 
L 420.731633 110.252091 
L 422.953995 110.068488 
L 425.176357 109.927549 
L 427.398719 109.830264 
L 429.62108 109.777653 
L 431.843442 109.770769 
L 434.065804 109.810698 
L 436.288166 109.898562 
L 438.510528 110.035517 
L 440.732889 110.222757 
L 442.955251 110.461517 
L 445.177613 110.753069 
L 447.399975 111.098732 
L 449.622337 111.499864 
L 449.832823 111.542915 
L 451.844698 111.967444 
L 454.06706 112.495881 
L 456.289422 113.085771 
L 457.093868 113.320804 
L 458.511784 113.748887 
L 460.734146 114.484311 
L 462.436192 115.098693 
L 462.956508 115.29305 
L 465.178869 116.189824 
L 466.754286 116.876583 
L 467.401231 117.168876 
L 469.623593 118.245443 
L 470.413378 118.654472 
L 471.845955 119.42475 
L 473.601957 120.432362 
L 474.068317 120.710594 
L 476.290678 122.118947 
L 476.426889 122.210251 
L 478.51304 123.667145 
L 478.948039 123.988141 
L 480.735402 125.364673 
L 481.23003 125.76603 
L 482.957764 127.231986 
L 483.3076 127.54392 
L 485.180126 129.293457 
L 485.20907 129.321809 
L 486.942129 131.099698 
L 487.402487 131.596511 
L 488.537694 132.877588 
L 489.624849 134.17195 
L 490.013968 134.655477 
L 491.3706 136.433367 
L 491.847211 137.094142 
L 492.620894 138.211256 
L 493.78 139.989146 
L 494.069573 140.460619 
L 494.841503 141.767035 
L 495.824732 143.544925 
L 496.291935 144.448597 
L 496.727519 145.322814 
L 497.553217 147.100704 
L 498.316547 148.878593 
L 498.514296 149.376122 
L 499.005667 150.656482 
L 499.631997 152.434372 
L 500.202169 154.212261 
L 500.717489 155.990151 
L 500.736658 156.063415 
L 501.168148 157.76804 
L 501.567442 159.54593 
L 501.916983 161.323819 
L 502.217868 163.101709 
L 502.47116 164.879598 
L 502.677894 166.657487 
L 502.839072 168.435377 
L 502.955671 170.213266 
L 502.95902 170.294327 
L 503.02703 171.991156 
L 503.056602 173.769045 
L 503.045317 175.546935 
L 502.994007 177.324824 
L 502.95902 178.009091 
L 502.902204 179.102714 
L 502.770316 180.880603 
L 502.59995 182.658492 
L 502.391887 184.436382 
L 502.146883 186.214271 
L 501.865679 187.992161 
L 501.54899 189.77005 
L 501.197518 191.54794 
L 500.811944 193.325829 
L 500.736658 193.643568 
L 500.385335 195.103719 
L 499.923661 196.881608 
L 499.429252 198.659497 
L 498.902746 200.437387 
L 498.514296 201.672664 
L 498.341037 202.215276 
L 497.739342 203.993166 
L 497.106879 205.771055 
L 496.444246 207.548945 
L 496.291935 207.938172 
L 495.740196 209.326834 
L 495.003334 211.104724 
L 494.237589 212.882613 
L 494.069573 213.256882 
L 493.429778 214.660503 
L 492.590097 216.438392 
L 491.847211 217.959835 
L 491.720053 218.216281 
L 490.806032 219.994171 
L 489.865138 221.77206 
L 489.624849 222.211568 
L 488.881758 223.54995 
L 487.866886 225.327839 
L 487.402487 226.118472 
L 486.813506 227.105729 
L 485.724301 228.883618 
L 485.180126 229.749101 
L 484.597371 230.661508 
L 483.433495 232.439397 
L 482.957764 233.148517 
L 482.229307 234.217286 
L 480.990439 235.995176 
L 480.735402 236.35249 
L 479.705117 237.773065 
L 478.51304 239.384757 
L 478.388101 239.550955 
L 477.020451 241.328844 
L 476.290678 242.259365 
L 475.615134 243.106734 
L 474.170791 244.884623 
L 474.068317 245.008129 
L 472.672738 246.662513 
L 471.845955 247.625611 
L 471.134617 248.440402 
L 469.623593 250.141658 
L 469.554353 250.218291 
L 467.916788 251.996181 
L 467.401231 252.546602 
L 466.231468 253.77407 
L 465.178869 254.860842 
L 464.497606 255.55196 
L 462.956508 257.09062 
L 462.712571 257.329849 
L 460.86997 259.107739 
L 460.734146 259.236671 
L 458.965333 260.885628 
L 458.511784 261.302116 
L 457.001677 262.663518 
L 456.289422 263.296167 
L 454.97565 264.441407 
L 454.06706 265.221933 
L 452.883637 266.219296 
L 451.844698 267.082351 
L 450.721742 267.997186 
L 449.622337 268.880187 
L 448.485752 269.775075 
L 447.399975 270.618057 
L 446.171111 271.552965 
L 445.177613 272.29843 
L 443.772883 273.330854 
L 442.955251 273.923643 
L 441.285706 275.108744 
L 440.732889 275.495908 
L 438.703754 276.886633 
L 438.510528 277.017319 
L 436.288166 278.486149 
L 436.011863 278.664523 
L 434.065804 279.904363 
L 433.201341 280.442412 
L 431.843442 281.276635 
L 430.270258 282.220302 
L 429.62108 282.604729 
L 427.398719 283.888092 
L 427.202712 283.998191 
L 425.176357 285.121939 
L 423.965703 285.77608 
L 422.953995 286.315861 
L 420.731633 287.469671 
L 420.564095 287.55397 
L 418.509271 288.574962 
L 416.941805 289.331859 
L 416.28691 289.644191 
L 414.064548 290.670101 
L 413.080237 291.109749 
L 411.842186 291.655939 
L 409.619824 292.603714 
L 408.928656 292.887638 
L 407.397462 293.508949 
L 405.175101 294.378186 
L 404.409421 294.665528 
L 402.952739 295.205538 
L 400.730377 295.995857 
L 399.41446 296.443417 
L 398.508015 296.747979 
L 396.285653 297.459022 
L 394.063291 298.136872 
L 393.770004 298.221307 
L 391.84093 298.76993 
L 389.618568 299.367162 
L 387.396206 299.929439 
L 387.099883 299.999196 
L 385.173844 300.44709 
L 382.951482 300.92742 
L 380.729121 301.370976 
L 378.506759 301.776936 
L 378.50585 301.777085 
L 376.284397 302.137233 
L 374.062035 302.458879 
L 371.839673 302.741012 
L 369.617312 302.982738 
L 367.39495 303.183136 
L 365.172588 303.341257 
L 362.950226 303.456125 
L 360.727864 303.526731 
L 358.505503 303.552034 
L 356.283141 303.530962 
L 354.060779 303.462409 
L 351.838417 303.345232 
L 349.616055 303.178251 
L 347.393693 302.96025 
L 345.171332 302.68997 
L 342.94897 302.366113 
L 340.726608 301.987334 
z
" clip-path="url(#p4a9920590b)" style="fill: none; stroke: #0000ff; stroke-opacity: 0.6; stroke-width: 1.5"/>
    <path d="M 340.726608 317.931321 
L 336.281884 317.378076 
L 331.837161 316.632712 
L 327.392437 315.683463 
L 321.986637 314.222312 
L 318.50299 313.092472 
L 314.058266 311.408609 
L 309.613543 309.426721 
L 305.168819 307.109422 
L 300.724095 304.389436 
L 297.023723 301.777085 
L 294.05701 299.413051 
L 290.757838 296.443417 
L 288.971848 294.665528 
L 285.771203 291.109749 
L 284.335308 289.331859 
L 281.746758 285.77608 
L 279.495532 282.220302 
L 277.5418 278.664523 
L 275.851764 275.108744 
L 274.055754 270.597296 
L 273.181033 267.997186 
L 271.833392 263.151993 
L 271.324345 260.885628 
L 270.671391 257.329849 
L 270.183433 253.77407 
L 269.854343 250.218291 
L 269.67829 246.662513 
L 269.689091 241.328844 
L 270.01418 235.995176 
L 270.63716 230.661508 
L 271.542754 225.327839 
L 272.733523 219.994171 
L 274.191532 214.660503 
L 275.925058 209.326834 
L 277.926399 203.993166 
L 280.194511 198.659497 
L 282.730903 193.325829 
L 285.544209 187.992161 
L 288.63824 182.658492 
L 292.013948 177.324824 
L 295.694252 171.991156 
L 299.685102 166.657487 
L 304.003948 161.323819 
L 308.67365 155.990151 
L 311.990889 152.434372 
L 317.31498 147.100704 
L 321.101517 143.544925 
L 325.170075 139.928133 
L 329.614799 136.202991 
L 334.059523 132.690163 
L 338.579078 129.321809 
L 345.171332 124.756468 
L 349.616055 121.889939 
L 356.283141 117.899666 
L 362.950226 114.255833 
L 369.617312 110.942824 
L 376.284397 107.94595 
L 382.951482 105.265277 
L 389.618568 102.882811 
L 396.285653 100.801713 
L 402.952739 99.021432 
L 409.619824 97.543774 
L 416.28691 96.373337 
L 422.953995 95.51079 
L 429.62108 94.979028 
L 434.065804 94.809876 
L 438.510528 94.796007 
L 442.955251 94.943791 
L 447.399975 95.259948 
L 451.844698 95.755583 
L 456.289422 96.44332 
L 460.734146 97.326239 
L 465.178869 98.434973 
L 469.623593 99.775928 
L 474.068317 101.375692 
L 478.51304 103.265241 
L 482.957764 105.480702 
L 487.275347 107.987136 
L 489.97542 109.765025 
L 494.069573 112.810834 
L 496.780168 115.098693 
L 500.491786 118.654472 
L 502.95902 121.353404 
L 505.181382 124.052669 
L 507.717017 127.54392 
L 509.967797 131.099698 
L 511.924017 134.655477 
L 514.070829 139.290494 
L 515.052548 141.767035 
L 516.293191 145.349919 
L 517.301224 148.878593 
L 518.136497 152.434372 
L 518.791914 155.990151 
L 519.275785 159.54593 
L 519.60219 163.101709 
L 519.809012 168.435377 
L 519.692571 173.769045 
L 519.269798 179.102714 
L 518.515553 184.67781 
L 517.549154 189.77005 
L 516.274285 195.103719 
L 514.717906 200.437387 
L 512.895575 205.771055 
L 510.80614 211.104724 
L 508.448086 216.438392 
L 505.819884 221.77206 
L 502.919241 227.105729 
L 499.727672 232.439397 
L 496.255174 237.773065 
L 491.847211 243.946966 
L 488.372904 248.440402 
L 483.939734 253.77407 
L 480.735402 257.391419 
L 475.739372 262.663518 
L 471.845955 266.510278 
L 466.382782 271.552965 
L 462.27013 275.108744 
L 457.916152 278.664523 
L 451.844698 283.293347 
L 445.794899 287.55397 
L 440.353282 291.109749 
L 434.065804 294.910591 
L 427.398719 298.599045 
L 420.731633 301.956188 
L 414.064548 304.990923 
L 407.397462 307.714864 
L 400.730377 310.135745 
L 394.063291 312.257444 
L 387.396206 314.07805 
L 380.729121 315.595637 
L 374.062035 316.808265 
L 367.39495 317.712857 
L 362.950226 318.133418 
L 358.505503 318.407657 
L 354.060779 318.530873 
L 349.616055 318.49693 
L 345.171332 318.299357 
L 340.726608 317.931321 
L 340.726608 317.931321 
" clip-path="url(#p4a9920590b)" style="fill: none; stroke: #0000ff; stroke-opacity: 0.6; stroke-width: 1.5"/>
    <path d="M 527.405 204.119351 
L 525.182638 209.987122 
L 522.960276 215.215676 
L 520.729336 219.994171 
L 518.001167 225.327839 
L 515.027089 230.661508 
L 511.805085 235.995176 
L 508.313505 241.328844 
L 504.556752 246.662513 
L 500.519664 251.996181 
L 496.185029 257.329849 
L 491.534197 262.663518 
L 486.546927 267.997186 
L 481.201211 273.330854 
L 476.290678 277.91403 
L 471.387962 282.220302 
L 465.178869 287.321308 
L 460.249491 291.109749 
L 454.06706 295.563707 
L 447.399975 300.023413 
L 440.732889 304.139379 
L 434.065804 307.93961 
L 427.398719 311.436953 
L 420.731633 314.643566 
L 413.555291 317.77809 
L 407.397462 320.213385 
L 400.730377 322.58975 
L 394.063291 324.698549 
L 387.396206 326.538255 
L 380.729121 328.107333 
L 374.062035 329.404231 
L 367.39495 330.427391 
L 360.727864 331.162384 
L 354.060779 331.606782 
L 347.393693 331.744768 
L 340.726608 331.559357 
L 336.281884 331.247123 
L 331.837161 330.777317 
L 327.392437 330.142514 
L 322.947714 329.324972 
L 318.50299 328.325089 
L 312.577895 326.667538 
L 309.613543 325.693282 
L 305.168819 324.03081 
L 300.724095 322.105195 
L 296.279372 319.887282 
L 292.567956 317.77809 
L 289.612286 315.919776 
L 285.167563 312.763188 
L 282.536529 310.666533 
L 278.500477 307.063993 
L 275.079145 303.554975 
L 272.01981 299.999196 
L 269.61103 296.837094 
L 267.388668 293.57136 
L 265.166307 289.883029 
L 263.908968 287.55397 
L 262.182667 283.998191 
L 260.671741 280.442412 
L 259.372985 276.886633 
L 258.254151 273.330854 
L 257.317682 269.775075 
L 256.276859 264.80445 
L 255.672312 260.885628 
L 255.131075 255.55196 
L 254.895974 250.218291 
L 254.952341 244.884623 
L 255.286428 239.550955 
L 255.885342 234.217286 
L 256.7449 228.883618 
L 257.856287 223.54995 
L 259.213535 218.216281 
L 260.809934 212.882613 
L 262.943945 206.764997 
L 265.166307 201.176219 
L 267.388668 196.153605 
L 269.611625 191.54794 
L 272.422294 186.214271 
L 275.47958 180.880603 
L 278.78974 175.546935 
L 282.945201 169.387912 
L 286.218683 164.879598 
L 290.35452 159.54593 
L 294.792507 154.212261 
L 299.55162 148.878593 
L 304.652455 143.544925 
L 309.613543 138.695757 
L 314.058266 134.602398 
L 320.185326 129.321809 
L 325.170075 125.300123 
L 331.622646 120.432362 
L 336.666965 116.876583 
L 342.94897 112.731376 
L 349.616055 108.65604 
L 356.283141 104.896066 
L 362.950226 101.438592 
L 369.617312 98.271446 
L 376.284397 95.3831 
L 382.951482 92.774398 
L 389.618568 90.432481 
L 396.285653 88.359943 
L 402.952739 86.556566 
L 410.346566 84.874573 
L 416.28691 83.763286 
L 422.953995 82.778361 
L 429.62108 82.081239 
L 436.288166 81.676758 
L 442.955251 81.580884 
L 447.399975 81.696832 
L 451.844698 81.962929 
L 456.289422 82.384843 
L 461.54094 83.096683 
L 465.178869 83.731168 
L 470.451382 84.874573 
L 474.068317 85.819293 
L 478.51304 87.174841 
L 482.957764 88.762347 
L 487.402487 90.606482 
L 491.847211 92.735543 
L 496.291935 95.182146 
L 499.717416 97.319799 
L 502.95902 99.563359 
L 506.922813 102.653467 
L 509.626106 105.011911 
L 512.69998 107.987136 
L 515.960237 111.542915 
L 518.515553 114.690516 
L 520.737915 117.746243 
L 522.960276 121.16709 
L 525.182638 125.06151 
L 526.442593 127.54392 
L 527.405 129.598425 
L 527.405 129.598425 
" clip-path="url(#p4a9920590b)" style="fill: none; stroke: #0000ff; stroke-opacity: 0.6; stroke-width: 1.5"/>
    <path d="M 527.405 231.395826 
L 524.705552 235.995176 
L 520.737915 242.272092 
L 517.763403 246.662513 
L 513.92486 251.996181 
L 509.626106 257.576634 
L 505.181382 262.977018 
L 500.736658 268.052369 
L 495.814914 273.330854 
L 490.516334 278.664523 
L 484.866001 283.998191 
L 478.51304 289.596971 
L 471.845955 295.06453 
L 465.178869 300.154457 
L 458.511784 304.891966 
L 451.844698 309.305376 
L 445.177613 313.411484 
L 438.510528 317.228269 
L 431.843442 320.76654 
L 425.176357 324.036575 
L 418.509271 327.048151 
L 411.842186 329.804836 
L 405.175101 332.312841 
L 398.508015 334.572835 
L 391.84093 336.589309 
L 385.173844 338.360998 
L 378.506759 339.886635 
L 371.839673 341.164938 
L 365.172588 342.187948 
L 358.505503 342.953621 
L 351.838417 343.450395 
L 345.171332 343.67205 
L 338.504246 343.604831 
L 331.837161 343.234054 
L 325.170075 342.542083 
L 320.725352 341.886259 
L 315.409724 340.890653 
L 311.835905 340.083965 
L 307.391181 338.916384 
L 302.308077 337.334874 
L 297.435076 335.556985 
L 293.190586 333.779095 
L 289.411878 332.001206 
L 285.167563 329.753139 
L 280.722839 327.088345 
L 277.445566 324.889648 
L 274.055754 322.385032 
L 270.607419 319.55598 
L 267.388668 316.625191 
L 264.982982 314.222312 
L 261.769736 310.666533 
L 258.902477 307.110754 
L 256.276859 303.454384 
L 254.054497 299.982152 
L 251.832136 296.061677 
L 249.609774 291.557128 
L 248.634967 289.331859 
L 247.224706 285.77608 
L 246.00041 282.220302 
L 244.937293 278.664523 
L 243.64287 273.330854 
L 242.672231 267.997186 
L 242.012433 262.663518 
L 241.637922 257.329849 
L 241.536104 251.996181 
L 241.695113 246.662513 
L 242.10376 241.328844 
L 242.75149 235.995176 
L 243.639089 230.661508 
L 244.752435 225.327839 
L 246.093476 219.994171 
L 247.652466 214.660503 
L 249.609774 208.835454 
L 251.832136 202.999688 
L 254.054497 197.750581 
L 256.276859 192.940826 
L 258.752447 187.992161 
L 261.640696 182.658492 
L 265.166307 176.648709 
L 268.105101 171.991156 
L 271.833392 166.457634 
L 276.278116 160.334925 
L 280.722839 154.635967 
L 285.167563 149.304105 
L 289.612286 144.292352 
L 294.05701 139.561416 
L 298.94203 134.655477 
L 304.595452 129.321809 
L 309.613543 124.867209 
L 314.903812 120.432362 
L 320.725352 115.836479 
L 326.515197 111.542915 
L 331.837161 107.819881 
L 338.504246 103.450595 
L 345.171332 99.381707 
L 351.948899 95.54191 
L 358.732907 91.986131 
L 366.117635 88.430352 
L 371.839673 85.890674 
L 378.683322 83.096683 
L 385.173844 80.6925 
L 391.84093 78.464077 
L 398.508015 76.479788 
L 405.175101 74.740903 
L 411.842186 73.248697 
L 418.509271 72.004455 
L 425.176357 71.014523 
L 431.843442 70.284718 
L 438.510528 69.823864 
L 445.177613 69.639912 
L 451.844698 69.746735 
L 458.511784 70.159149 
L 463.272554 70.651457 
L 467.401231 71.220729 
L 471.845955 71.986083 
L 476.290678 72.920607 
L 481.362312 74.207236 
L 485.180126 75.340286 
L 489.624849 76.85308 
L 494.069573 78.590474 
L 498.514296 80.574513 
L 503.445294 83.096683 
L 507.403744 85.396587 
L 512.020458 88.430352 
L 516.293191 91.633787 
L 518.85613 93.76402 
L 522.960276 97.558436 
L 526.128727 100.875578 
L 527.405 102.316995 
L 527.405 102.316995 
" clip-path="url(#p4a9920590b)" style="fill: none; stroke: #0000ff; stroke-opacity: 0.6; stroke-width: 1.5"/>
   </g>
   <g id="QuadContourSet_2">
    <path d="M 209.607261 204.183993 
L 208.023035 203.993166 
L 207.384899 203.915288 
L 205.162538 203.541839 
L 202.940176 203.07412 
L 200.717814 202.516563 
L 199.685478 202.215276 
L 198.495452 201.863558 
L 196.27309 201.118312 
L 194.44357 200.437387 
L 194.050729 200.289326 
L 191.828367 199.363225 
L 190.271534 198.659497 
L 189.606005 198.354866 
L 187.383643 197.254627 
L 186.681644 196.881608 
L 185.161281 196.063576 
L 183.485089 195.103719 
L 182.93892 194.786975 
L 180.716558 193.418813 
L 180.574021 193.325829 
L 178.494196 191.951824 
L 177.913532 191.54794 
L 176.271834 190.391361 
L 175.432079 189.77005 
L 174.049472 188.733771 
L 173.105158 187.992161 
L 171.827111 186.975207 
L 170.912539 186.214271 
L 169.604749 185.111616 
L 168.837379 184.436382 
L 167.382387 183.138726 
L 166.865536 182.658492 
L 165.160025 181.05203 
L 164.98505 180.880603 
L 163.198979 179.102714 
L 162.937663 178.838484 
L 161.497069 177.324824 
L 160.715302 176.491414 
L 159.8615 175.546935 
L 158.49294 174.010599 
L 158.2853 173.769045 
L 156.786236 171.991156 
L 156.270578 171.368955 
L 155.345595 170.213266 
L 154.048216 168.566672 
L 153.948193 168.435377 
L 152.6248 166.657487 
L 151.825854 165.565261 
L 151.340572 164.879598 
L 150.109197 163.101709 
L 149.603492 162.355181 
L 148.927043 161.323819 
L 147.78619 159.54593 
L 147.381131 158.898402 
L 146.696063 157.76804 
L 145.644194 155.990151 
L 145.158769 155.147057 
L 144.636986 154.212261 
L 143.672532 152.434372 
L 142.936407 151.040041 
L 142.739978 150.656482 
L 141.861356 148.878593 
L 141.007718 147.100704 
L 140.714045 146.465416 
L 140.201557 145.322814 
L 139.433519 143.544925 
L 138.692703 141.767035 
L 138.491683 141.261556 
L 138.00059 139.989146 
L 137.344997 138.211256 
L 136.718864 136.433367 
L 136.269322 135.088055 
L 136.129001 134.655477 
L 135.58758 132.877588 
L 135.077862 131.099698 
L 134.60089 129.321809 
L 134.157757 127.54392 
L 134.04696 127.057358 
L 133.761622 125.76603 
L 133.404969 123.988141 
L 133.084526 122.210251 
L 132.801503 120.432362 
L 132.557164 118.654472 
L 132.352831 116.876583 
L 132.189889 115.098693 
L 132.069783 113.320804 
L 131.994031 111.542915 
L 131.96422 109.765025 
L 131.982016 107.987136 
L 132.049165 106.209246 
L 132.167499 104.431357 
L 132.338945 102.653467 
L 132.565524 100.875578 
L 132.849363 99.097688 
L 133.1927 97.319799 
L 133.59789 95.54191 
L 134.04696 93.840497 
L 134.068495 93.76402 
L 134.633716 91.986131 
L 135.273267 90.208241 
L 135.990428 88.430352 
L 136.269322 87.803187 
L 136.819451 86.652462 
L 137.756127 84.874573 
L 138.491683 83.602163 
L 138.80802 83.096683 
L 140.016699 81.318794 
L 140.714045 80.374663 
L 141.386366 79.540905 
L 142.936407 77.767349 
L 142.940578 77.763015 
L 144.775535 75.985126 
L 145.158769 75.639276 
L 146.928218 74.207236 
L 147.381131 73.864228 
L 149.522158 72.429347 
L 149.603492 72.378127 
L 151.825854 71.149876 
L 152.879603 70.651457 
L 154.048216 70.129539 
L 156.270578 69.296798 
L 157.657861 68.873568 
L 158.49294 68.632014 
L 160.715302 68.126474 
L 162.937663 67.758045 
L 165.160025 67.51951 
L 167.382387 67.40415 
L 169.604749 67.405702 
L 171.827111 67.51832 
L 174.049472 67.736542 
L 176.271834 68.055258 
L 178.494196 68.469684 
L 180.263647 68.873568 
L 180.716558 68.978276 
L 182.93892 69.587769 
L 185.161281 70.282123 
L 186.211382 70.651457 
L 187.383643 71.06896 
L 189.606005 71.94521 
L 190.728338 72.429347 
L 191.828367 72.909831 
L 194.050729 73.961283 
L 194.532492 74.207236 
L 196.27309 75.107 
L 197.865598 75.985126 
L 198.495452 76.336844 
L 200.717814 77.657126 
L 200.885641 77.763015 
L 202.940176 79.075707 
L 203.630653 79.540905 
L 205.162538 80.586219 
L 206.183365 81.318794 
L 207.384899 82.192247 
L 208.570793 83.096683 
L 209.607261 83.89756 
L 210.815118 84.874573 
L 211.829623 85.706129 
L 212.934723 86.652462 
L 214.051985 87.62214 
L 214.94497 88.430352 
L 216.274347 89.65001 
L 216.858798 90.208241 
L 218.496709 91.794398 
L 218.687185 91.986131 
L 220.424831 93.76402 
L 220.71907 94.069922 
L 222.082481 95.54191 
L 222.941432 96.482953 
L 223.677987 97.319799 
L 225.163794 99.033207 
L 225.217782 99.097688 
L 226.675106 100.875578 
L 227.386156 101.757112 
L 228.084757 102.653467 
L 229.446601 104.431357 
L 229.608518 104.647627 
L 230.739038 106.209246 
L 231.830879 107.742892 
L 231.999201 107.987136 
L 233.193765 109.765025 
L 234.053241 111.069204 
L 234.355638 111.542915 
L 235.461017 113.320804 
L 236.275603 114.660046 
L 236.534208 115.098693 
L 237.551919 116.876583 
L 238.497965 118.56752 
L 238.545147 118.654472 
L 239.476734 120.432362 
L 240.38437 122.210251 
L 240.720327 122.891519 
L 241.244941 123.988141 
L 242.066611 125.76603 
L 242.862087 127.54392 
L 242.942688 127.732286 
L 243.602668 129.321809 
L 244.312491 131.099698 
L 244.993869 132.877588 
L 245.16505 133.348207 
L 245.626563 134.655477 
L 246.222742 136.433367 
L 246.788225 138.211256 
L 247.321994 139.989146 
L 247.387412 140.22355 
L 247.805465 141.767035 
L 248.253386 143.544925 
L 248.667277 145.322814 
L 249.046006 147.100704 
L 249.388391 148.878593 
L 249.609774 150.173866 
L 249.689795 150.656482 
L 249.944728 152.434372 
L 250.160869 154.212261 
L 250.336909 155.990151 
L 250.471481 157.76804 
L 250.563154 159.54593 
L 250.610431 161.323819 
L 250.611746 163.101709 
L 250.565456 164.879598 
L 250.469839 166.657487 
L 250.323092 168.435377 
L 250.123319 170.213266 
L 249.868531 171.991156 
L 249.609774 173.469304 
L 249.55399 173.769045 
L 249.164007 175.546935 
L 248.708742 177.324824 
L 248.185485 179.102714 
L 247.591372 180.880603 
L 247.387412 181.428793 
L 246.897197 182.658492 
L 246.109041 184.436382 
L 245.234392 186.214271 
L 245.16505 186.343861 
L 244.212914 187.992161 
L 243.0841 189.77005 
L 242.942688 189.976371 
L 241.770745 191.54794 
L 240.720327 192.843856 
L 240.29196 193.325829 
L 238.587216 195.103719 
L 238.497965 195.190671 
L 236.572689 196.881608 
L 236.275603 197.125303 
L 234.175866 198.659497 
L 234.053241 198.743544 
L 231.830879 200.087649 
L 231.162645 200.437387 
L 229.608518 201.204301 
L 227.386156 202.130355 
L 227.141849 202.215276 
L 225.163794 202.866386 
L 222.941432 203.448291 
L 220.71907 203.887295 
L 219.953675 203.993166 
L 218.496709 204.184899 
L 216.274347 204.35532 
L 214.051985 204.408158 
L 211.829623 204.349235 
L 209.607261 204.183993 
z
" clip-path="url(#p4a9920590b)" style="fill: none; stroke: #008000; stroke-opacity: 0.6; stroke-width: 1.5"/>
    <path d="M 218.496709 232.58633 
L 216.952302 232.439397 
L 216.274347 232.374294 
L 214.051985 232.087114 
L 211.829623 231.730382 
L 209.607261 231.306454 
L 207.384899 230.817579 
L 206.761171 230.661508 
L 205.162538 230.257889 
L 202.940176 229.633292 
L 200.717814 228.949026 
L 200.523855 228.883618 
L 198.495452 228.193511 
L 196.27309 227.380041 
L 195.576204 227.105729 
L 194.050729 226.499935 
L 191.828367 225.560612 
L 191.310842 225.327839 
L 189.606005 224.554251 
L 187.505385 223.54995 
L 187.383643 223.491226 
L 185.161281 222.358126 
L 184.064678 221.77206 
L 182.93892 221.165054 
L 180.861771 219.994171 
L 180.716558 219.911579 
L 178.494196 218.588463 
L 177.894118 218.216281 
L 176.271834 217.201081 
L 175.099276 216.438392 
L 174.049472 215.749369 
L 172.451069 214.660503 
L 171.827111 214.231566 
L 169.933994 212.882613 
L 169.604749 212.645844 
L 167.534658 211.104724 
L 167.382387 210.990308 
L 165.24143 209.326834 
L 165.160025 209.262991 
L 163.044164 207.548945 
L 162.937663 207.461851 
L 160.933968 205.771055 
L 160.715302 205.58477 
L 158.903014 203.993166 
L 158.49294 203.629547 
L 156.944387 202.215276 
L 156.270578 201.593893 
L 155.051951 200.437387 
L 154.048216 199.475433 
L 153.220249 198.659497 
L 151.825854 197.271693 
L 151.444404 196.881608 
L 149.724344 195.103719 
L 149.603492 194.977244 
L 148.067017 193.325829 
L 147.381131 192.580974 
L 146.454264 191.54794 
L 145.158769 190.088892 
L 144.882744 189.77005 
L 143.363645 187.992161 
L 142.936407 187.485861 
L 141.889784 186.214271 
L 140.714045 184.770115 
L 140.448866 184.436382 
L 139.056636 182.658492 
L 138.491683 181.927595 
L 137.701543 180.880603 
L 136.37602 179.102714 
L 136.269322 178.957155 
L 135.100654 177.324824 
L 134.04696 175.835456 
L 133.847485 175.546935 
L 132.639779 173.769045 
L 131.824598 172.552368 
L 131.457022 171.991156 
L 130.312871 170.213266 
L 129.602236 169.09171 
L 129.195577 168.435377 
L 128.114223 166.657487 
L 127.379874 165.430005 
L 127.057775 164.879598 
L 126.038449 163.101709 
L 125.157513 161.539451 
L 125.038537 161.323819 
L 124.080463 159.54593 
L 123.138958 157.76804 
L 122.935151 157.373674 
L 122.23545 155.990151 
L 121.355135 154.212261 
L 120.712789 152.8857 
L 120.49886 152.434372 
L 119.678916 150.656482 
L 118.877372 148.878593 
L 118.490427 147.996187 
L 118.105989 147.100704 
L 117.364667 145.322814 
L 116.642857 143.544925 
L 116.268065 142.592068 
L 115.950324 141.767035 
L 115.288535 139.989146 
L 114.647372 138.211256 
L 114.045704 136.485697 
L 114.027836 136.433367 
L 113.446447 134.655477 
L 112.886798 132.877588 
L 112.349391 131.099698 
L 111.834745 129.321809 
L 111.823342 129.28023 
L 111.357107 127.54392 
L 110.90317 125.76603 
L 110.473155 123.988141 
L 110.06762 122.210251 
L 109.687142 120.432362 
L 109.60098 119.998055 
L 109.340065 118.654472 
L 109.021116 116.876583 
L 108.728431 115.098693 
L 108.462629 113.320804 
L 108.22435 111.542915 
L 108.014255 109.765025 
L 107.833026 107.987136 
L 107.681367 106.209246 
L 107.560004 104.431357 
L 107.469689 102.653467 
L 107.411197 100.875578 
L 107.38533 99.097688 
L 107.392919 97.319799 
L 107.43482 95.54191 
L 107.511921 93.76402 
L 107.62514 91.986131 
L 107.775427 90.208241 
L 107.963766 88.430352 
L 108.191176 86.652462 
L 108.458713 84.874573 
L 108.767471 83.096683 
L 109.118583 81.318794 
L 109.513227 79.540905 
L 109.60098 79.183188 
L 109.965391 77.763015 
L 110.468728 75.985126 
L 111.021503 74.207236 
L 111.625196 72.429347 
L 111.823342 71.888693 
L 112.299326 70.651457 
L 113.0379 68.873568 
L 113.83504 67.095678 
L 114.045704 66.655402 
L 114.719972 65.317789 
L 115.679643 63.539899 
L 116.268065 62.517151 
L 116.72738 61.76201 
L 117.876335 59.984121 
L 118.490427 59.088637 
L 119.132748 58.206231 
L 120.504742 56.428342 
L 120.712789 56.172394 
L 122.032053 54.650452 
L 122.935151 53.664283 
L 123.711754 52.872563 
L 125.157513 51.473425 
L 125.578857 51.094673 
L 127.379874 49.553872 
L 127.679985 49.316784 
L 129.602236 47.86814 
L 130.078632 47.538894 
L 131.824598 46.385349 
L 132.863538 45.761005 
L 134.04696 45.079824 
L 136.162633 43.983116 
L 136.269322 43.930049 
L 138.491683 42.936124 
L 140.349359 42.205226 
L 140.714045 42.067245 
L 142.936407 41.329724 
L 145.158769 40.700764 
L 146.309558 40.427337 
L 147.381131 40.181894 
L 149.603492 39.767047 
L 151.825854 39.446144 
L 154.048216 39.215698 
L 156.270578 39.072391 
L 158.49294 39.013066 
L 160.715302 39.034717 
L 162.937663 39.134478 
L 165.160025 39.309618 
L 167.382387 39.557533 
L 169.604749 39.875735 
L 171.827111 40.261851 
L 172.635424 40.427337 
L 174.049472 40.719466 
L 176.271834 41.245056 
L 178.494196 41.833045 
L 179.763958 42.205226 
L 180.716558 42.486948 
L 182.93892 43.207694 
L 185.153709 43.983116 
L 185.161281 43.98579 
L 187.383643 44.835863 
L 189.606005 45.740279 
L 189.653625 45.761005 
L 191.828367 46.715875 
L 193.604583 47.538894 
L 194.050729 47.74746 
L 196.27309 48.846064 
L 197.179011 49.316784 
L 198.495452 50.006891 
L 200.478044 51.094673 
L 200.717814 51.227407 
L 202.940176 52.516482 
L 203.528642 52.872563 
L 205.162538 53.87008 
L 206.391232 54.650452 
L 207.384899 55.287252 
L 209.09905 56.428342 
L 209.607261 56.769735 
L 211.668791 58.206231 
L 211.829623 58.319331 
L 214.051985 59.938855 
L 214.111993 59.984121 
L 216.274347 61.630187 
L 216.44196 61.76201 
L 218.496709 63.392966 
L 218.676067 63.539899 
L 220.71907 65.229196 
L 220.822984 65.317789 
L 222.888241 67.095678 
L 222.941432 67.141936 
L 224.873746 68.873568 
L 225.163794 69.136023 
L 226.790442 70.651457 
L 227.386156 71.211897 
L 228.644095 72.429347 
L 229.608518 73.371992 
L 230.439842 74.207236 
L 231.830879 75.618843 
L 232.182279 75.985126 
L 233.869053 77.763015 
L 234.053241 77.959562 
L 235.496605 79.540905 
L 236.275603 80.403309 
L 237.081584 81.318794 
L 238.497965 82.944634 
L 238.627151 83.096683 
L 240.116282 84.874573 
L 240.720327 85.604226 
L 241.566988 86.652462 
L 242.942688 88.374565 
L 242.986195 88.430352 
L 244.350307 90.208241 
L 245.16505 91.282625 
L 245.686054 91.986131 
L 246.984162 93.76402 
L 247.387412 94.324838 
L 248.242348 95.54191 
L 249.475192 97.319799 
L 249.609774 97.517451 
L 250.661306 99.097688 
L 251.829644 100.875578 
L 251.832136 100.879447 
L 252.948803 102.653467 
L 254.053411 104.431357 
L 254.054497 104.433144 
L 255.110385 106.209246 
L 256.152049 107.987136 
L 256.276859 108.204959 
L 257.151288 109.765025 
L 258.130803 111.542915 
L 258.499221 112.226398 
L 259.076462 113.320804 
L 259.994631 115.098693 
L 260.721583 116.535342 
L 260.890592 116.876583 
L 261.74822 118.654472 
L 262.587958 120.432362 
L 262.943945 121.206292 
L 263.396005 122.210251 
L 264.175328 123.988141 
L 264.935646 125.76603 
L 265.166307 126.322539 
L 265.661933 127.54392 
L 266.362013 129.321809 
L 267.041973 131.099698 
L 267.388668 132.037954 
L 267.692457 132.877588 
L 268.312406 134.655477 
L 268.911117 136.433367 
L 269.488096 138.211256 
L 269.61103 138.607642 
L 270.030542 139.989146 
L 270.547159 141.767035 
L 271.040905 143.544925 
L 271.511247 145.322814 
L 271.833392 146.608648 
L 271.95409 147.100704 
L 272.363804 148.878593 
L 272.74895 150.656482 
L 273.108956 152.434372 
L 273.443229 154.212261 
L 273.75116 155.990151 
L 274.032118 157.76804 
L 274.055754 157.935124 
L 274.278735 159.54593 
L 274.497091 161.323819 
L 274.687214 163.101709 
L 274.84843 164.879598 
L 274.98004 166.657487 
L 275.081323 168.435377 
L 275.151534 170.213266 
L 275.189905 171.991156 
L 275.195642 173.769045 
L 275.167923 175.546935 
L 275.105898 177.324824 
L 275.008692 179.102714 
L 274.875394 180.880603 
L 274.705065 182.658492 
L 274.496734 184.436382 
L 274.249392 186.214271 
L 274.055754 187.415625 
L 273.958757 187.992161 
L 273.618736 189.77005 
L 273.234758 191.54794 
L 272.805574 193.325829 
L 272.329884 195.103719 
L 271.833392 196.790582 
L 271.805324 196.881608 
L 271.210759 198.659497 
L 270.563092 200.437387 
L 269.860677 202.215276 
L 269.61103 202.804229 
L 269.081034 203.993166 
L 268.22999 205.771055 
L 267.388668 207.408259 
L 267.31239 207.548945 
L 266.2893 209.326834 
L 265.194421 211.104724 
L 265.166307 211.147973 
L 263.97132 212.882613 
L 262.943945 214.284342 
L 262.650718 214.660503 
L 261.187774 216.438392 
L 260.721583 216.975422 
L 259.570224 218.216281 
L 258.499221 219.310688 
L 257.780885 219.994171 
L 256.276859 221.354679 
L 255.778598 221.77206 
L 254.054497 223.148448 
L 253.507912 223.54995 
L 251.832136 224.725679 
L 250.892296 225.327839 
L 249.609774 226.114269 
L 247.823064 227.105729 
L 247.387412 227.337521 
L 245.16505 228.402828 
L 244.035897 228.883618 
L 242.942688 229.33095 
L 240.720327 230.130107 
L 239.007041 230.661508 
L 238.497965 230.813557 
L 236.275603 231.379638 
L 234.053241 231.845213 
L 231.830879 232.214118 
L 230.020359 232.439397 
L 229.608518 232.488879 
L 227.386156 232.671138 
L 225.163794 232.769085 
L 222.941432 232.785717 
L 220.71907 232.723891 
L 218.496709 232.58633 
z
" clip-path="url(#p4a9920590b)" style="fill: none; stroke: #008000; stroke-opacity: 0.6; stroke-width: 1.5"/>
    <path d="M 198.330121 29.76 
L 201.643934 31.537889 
L 205.162538 33.540958 
L 210.538386 36.871558 
L 215.796512 40.427337 
L 218.496709 42.371476 
L 222.941432 45.761528 
L 227.386156 49.391537 
L 231.830879 53.272864 
L 237.0855 58.206231 
L 240.720327 61.840037 
L 245.636133 67.095678 
L 250.276102 72.429347 
L 254.599813 77.763015 
L 258.636713 83.096683 
L 262.943945 89.230419 
L 267.036743 95.54191 
L 270.241261 100.875578 
L 273.227006 106.209246 
L 276.278116 112.088633 
L 279.385281 118.654472 
L 281.690927 123.988141 
L 283.802303 129.321809 
L 285.722125 134.655477 
L 287.453057 139.989146 
L 289.455453 147.100704 
L 290.726717 152.434372 
L 291.834648 157.896637 
L 292.6824 163.101709 
L 293.351674 168.435377 
L 293.808023 173.769045 
L 294.038432 179.102714 
L 294.0288 184.436382 
L 293.763831 189.77005 
L 293.226898 195.103719 
L 292.399902 200.437387 
L 291.673204 203.993166 
L 290.781552 207.548945 
L 289.612286 211.477064 
L 288.488701 214.660503 
L 287.050536 218.216281 
L 285.167563 222.19194 
L 282.945201 226.177623 
L 280.722839 229.606105 
L 278.500477 232.606837 
L 275.599327 235.995176 
L 273.895425 237.773065 
L 271.833392 239.726426 
L 269.61103 241.623381 
L 267.388668 243.332971 
L 265.151638 244.884623 
L 262.241457 246.662513 
L 258.499221 248.628893 
L 254.054497 250.521362 
L 249.609774 252.003301 
L 245.16505 253.111028 
L 240.720327 253.893248 
L 236.275603 254.365561 
L 231.830879 254.557897 
L 227.386156 254.48641 
L 222.941432 254.166032 
L 218.496709 253.60782 
L 214.051985 252.817251 
L 209.607261 251.810343 
L 203.979568 250.218291 
L 200.717814 249.148813 
L 196.27309 247.506035 
L 191.828367 245.657753 
L 186.376455 243.106734 
L 182.901447 241.328844 
L 178.494196 238.880105 
L 173.716678 235.995176 
L 168.326325 232.439397 
L 163.362931 228.883618 
L 160.715302 226.871988 
L 156.270578 223.300586 
L 151.825854 219.481184 
L 146.607498 214.660503 
L 142.936407 211.049174 
L 137.924143 205.771055 
L 133.2164 200.437387 
L 128.832021 195.103719 
L 124.740643 189.77005 
L 120.712789 184.13568 
L 116.218731 177.324824 
L 111.933792 170.213266 
L 108.98004 164.879598 
L 106.233675 159.54593 
L 103.689106 154.212261 
L 101.343465 148.878593 
L 99.193937 143.544925 
L 97.23776 138.211256 
L 95.472224 132.877588 
L 93.894669 127.54392 
L 92.518607 122.210251 
L 91.333044 116.876583 
L 90.349376 111.542915 
L 89.563303 106.209246 
L 88.998963 100.875578 
L 88.650947 95.54191 
L 88.53243 90.208241 
L 88.657678 84.874573 
L 89.042166 79.540905 
L 89.705567 74.207236 
L 90.687646 68.873568 
L 91.822085 64.184433 
L 92.526763 61.76201 
L 94.044447 57.279084 
L 95.088271 54.650452 
L 96.684213 51.094673 
L 98.52791 47.538894 
L 100.711533 43.909786 
L 103.141356 40.427337 
L 106.032434 36.871558 
L 107.652468 35.093668 
L 109.60098 33.143369 
L 111.823342 31.13939 
L 113.506568 29.76 
L 113.506568 29.76 
" clip-path="url(#p4a9920590b)" style="fill: none; stroke: #008000; stroke-opacity: 0.6; stroke-width: 1.5"/>
    <path d="M 85.155 32.174249 
L 86.652686 29.76 
M 225.184815 29.76 
L 229.710901 33.315779 
L 234.053241 36.929676 
L 239.976885 42.205226 
L 243.733545 45.761005 
L 249.050397 51.094673 
L 252.400962 54.650452 
L 257.163398 59.984121 
L 261.638992 65.317789 
L 265.851471 70.651457 
L 269.82201 75.985126 
L 274.055754 82.050077 
L 278.500477 88.888755 
L 282.506023 95.54191 
L 285.504643 100.875578 
L 289.216571 107.987136 
L 291.834648 113.402211 
L 294.959339 120.432362 
L 297.826745 127.54392 
L 299.781096 132.877588 
L 301.570243 138.211256 
L 303.697333 145.322814 
L 305.528812 152.434372 
L 307.05668 159.54593 
L 307.998563 164.879598 
L 308.763361 170.213266 
L 309.349139 175.546935 
L 309.743725 180.880603 
L 309.93842 186.214271 
L 309.928479 191.54794 
L 309.702889 196.881608 
L 309.241333 202.215276 
L 308.531441 207.548945 
L 307.560913 212.882613 
L 306.745624 216.438392 
L 305.268297 221.77206 
L 304.08162 225.327839 
L 302.73615 228.883618 
L 300.724095 233.451534 
L 299.450562 235.995176 
L 297.474505 239.550955 
L 295.234113 243.106734 
L 292.68764 246.662513 
L 291.2842 248.440402 
L 288.162557 251.996181 
L 285.167563 254.984357 
L 282.511725 257.329849 
L 280.287928 259.107739 
L 276.278116 261.935978 
L 274.055754 263.315211 
L 269.61103 265.720504 
L 267.388668 266.762004 
L 262.943945 268.556214 
L 258.499221 270.001045 
L 254.054497 271.125713 
L 249.609774 271.960895 
L 245.16505 272.526094 
L 240.720327 272.841904 
L 236.275603 272.921006 
L 231.830879 272.775234 
L 227.386156 272.415649 
L 222.941432 271.852597 
L 218.496709 271.089139 
L 212.590585 269.775075 
L 209.607261 268.990188 
L 205.162538 267.66433 
L 200.717814 266.157575 
L 196.202205 264.441407 
L 191.828367 262.604786 
L 187.383643 260.560445 
L 181.029759 257.329849 
L 177.811195 255.55196 
L 171.815491 251.996181 
L 166.335218 248.440402 
L 160.715302 244.505061 
L 156.270578 241.167986 
L 151.825854 237.62636 
L 145.753736 232.439397 
L 141.847969 228.883618 
L 138.123615 225.327839 
L 132.859393 219.994171 
L 127.928193 214.660503 
L 123.300966 209.326834 
L 118.95195 203.993166 
L 114.858211 198.659497 
L 110.999268 193.325829 
L 107.356777 187.992161 
L 102.833061 180.880603 
L 98.489171 173.465951 
L 94.821881 166.657487 
L 91.822085 160.64748 
L 88.860875 154.212261 
L 85.874317 147.100704 
L 85.155 145.284924 
L 85.155 145.284924 
" clip-path="url(#p4a9920590b)" style="fill: none; stroke: #008000; stroke-opacity: 0.6; stroke-width: 1.5"/>
    <path d="M 244.210608 29.76 
L 249.609774 34.812581 
L 255.231592 40.427337 
L 260.258991 45.761005 
L 265.166307 51.280408 
L 270.929651 58.206231 
L 275.102776 63.539899 
L 279.060477 68.873568 
L 282.945201 74.396582 
L 287.518339 81.318794 
L 291.898012 88.430352 
L 296.279372 96.107659 
L 299.742955 102.653467 
L 303.239484 109.765025 
L 306.454654 116.876583 
L 309.405428 123.988141 
L 312.086236 131.099698 
L 314.501741 138.211256 
L 316.654745 145.322814 
L 318.544298 152.434372 
L 320.159187 159.54593 
L 321.50302 166.657487 
L 322.568544 173.769045 
L 323.177508 179.102714 
L 323.614809 184.436382 
L 323.879812 189.77005 
L 323.964387 195.103719 
L 323.859882 200.437387 
L 323.557087 205.771055 
L 322.947714 211.908944 
L 322.303159 216.438392 
L 321.322721 221.77206 
L 320.080087 227.105729 
L 318.50299 232.604807 
L 316.705543 237.773065 
L 315.276157 241.328844 
L 313.679346 244.884623 
L 311.835905 248.546804 
L 309.613543 252.455699 
L 307.391181 255.937256 
L 305.140377 259.107739 
L 302.30664 262.663518 
L 299.105192 266.219296 
L 296.279372 269.011269 
L 293.408838 271.552965 
L 289.612286 274.535787 
L 286.189252 276.886633 
L 282.945201 278.870153 
L 278.500477 281.216975 
L 274.055754 283.194352 
L 269.61103 284.838717 
L 265.166307 286.181864 
L 260.721583 287.247185 
L 256.276859 288.054559 
L 251.832136 288.622545 
L 247.387412 288.966535 
L 242.942688 289.096773 
L 238.497965 289.022888 
L 234.053241 288.753937 
L 229.608518 288.298451 
L 224.523417 287.55397 
L 220.71907 286.850616 
L 215.898186 285.77608 
L 211.829623 284.717028 
L 207.384899 283.402031 
L 202.940176 281.925469 
L 196.27309 279.407297 
L 190.390808 276.886633 
L 185.161281 274.417157 
L 179.618355 271.552965 
L 174.049472 268.430756 
L 167.521782 264.441407 
L 162.937663 261.423963 
L 157.118152 257.329849 
L 151.825854 253.351485 
L 145.729191 248.440402 
L 140.714045 244.134894 
L 135.678942 239.550955 
L 130.161946 234.217286 
L 125.157513 229.080593 
L 120.084658 223.54995 
L 115.464102 218.216281 
L 111.090384 212.882613 
L 106.945371 207.548945 
L 102.933894 202.103349 
L 98.092538 195.103719 
L 93.505837 187.992161 
L 89.234947 180.880603 
L 85.155 173.563018 
L 85.155 173.563018 
" clip-path="url(#p4a9920590b)" style="fill: none; stroke: #008000; stroke-opacity: 0.6; stroke-width: 1.5"/>
    <path d="M 259.814482 29.76 
L 265.166307 35.339973 
L 271.348459 42.205226 
L 276.278116 48.019044 
L 281.578926 54.650452 
L 285.618172 59.984121 
L 290.704287 67.095678 
L 294.313565 72.429347 
L 298.856685 79.540905 
L 303.11321 86.652462 
L 307.391181 94.319034 
L 310.802759 100.875578 
L 314.261792 107.987136 
L 317.463269 115.098693 
L 320.423607 122.210251 
L 323.138799 129.321809 
L 325.610254 136.433367 
L 327.842147 143.544925 
L 329.833687 150.656482 
L 331.579821 157.76804 
L 333.07624 164.879598 
L 334.325791 171.991156 
L 335.311262 179.102714 
L 336.03507 186.214271 
L 336.478787 193.325829 
L 336.630533 200.437387 
L 336.545495 205.771055 
L 336.281668 211.104724 
L 335.822506 216.438392 
L 335.164053 221.77206 
L 334.29694 227.105729 
L 333.193984 232.439397 
L 331.837161 237.824506 
L 330.228963 243.106734 
L 328.986477 246.662513 
L 326.85325 251.996181 
L 325.170075 255.691645 
L 322.470278 260.885628 
L 320.379505 264.441407 
L 318.059729 267.997186 
L 315.481189 271.552965 
L 312.60873 275.108744 
L 309.613543 278.436003 
L 307.391181 280.679255 
L 303.747432 283.998191 
L 300.724095 286.466956 
L 296.777423 289.331859 
L 294.050559 291.109749 
L 289.612286 293.666703 
L 285.167563 295.867993 
L 280.722839 297.743001 
L 276.278116 299.321015 
L 271.833392 300.62792 
L 266.930852 301.777085 
L 262.943945 302.504061 
L 258.499221 303.105442 
L 253.06169 303.554975 
L 249.609774 303.694787 
L 245.16505 303.701378 
L 240.720327 303.527755 
L 236.275603 303.177568 
L 231.830879 302.659602 
L 226.254356 301.777085 
L 222.941432 301.138948 
L 217.914107 299.999196 
L 211.829623 298.364683 
L 205.162538 296.248416 
L 198.495452 293.800203 
L 191.828367 291.028325 
L 185.161281 287.92697 
L 178.494196 284.499491 
L 171.827111 280.743063 
L 165.160025 276.65115 
L 158.49294 272.215089 
L 151.825854 267.427642 
L 145.158769 262.274595 
L 138.491683 256.737896 
L 133.135686 251.996181 
L 127.379874 246.603849 
L 122.076792 241.328844 
L 116.268065 235.210301 
L 110.625781 228.883618 
L 106.124856 223.54995 
L 101.842788 218.216281 
L 97.764936 212.882613 
L 92.627771 205.771055 
L 88.985742 200.437387 
L 85.155 194.535318 
L 85.155 194.535318 
" clip-path="url(#p4a9920590b)" style="fill: none; stroke: #008000; stroke-opacity: 0.6; stroke-width: 1.5"/>
   </g>
   <g id="line2d_33"/>
   <g id="line2d_34"/>
   <g id="line2d_35">
    <path d="M 262.055 295.11 
L 350.818602 236.914316 
" clip-path="url(#p4a9920590b)" style="fill: none; stroke-dasharray: 3.7,1.6; stroke-dashoffset: 0; stroke: #0000ff; stroke-opacity: 0.3"/>
   </g>
   <g id="line2d_36">
    <path d="M 262.055 295.11 
L 224.267072 195.924443 
" clip-path="url(#p4a9920590b)" style="fill: none; stroke-dasharray: 3.7,1.6; stroke-dashoffset: 0; stroke: #008000; stroke-opacity: 0.3"/>
   </g>
   <g id="patch_4">
    <path d="M 85.155 383.56 
L 85.155 29.76 
" style="fill: none; stroke: #000000; stroke-width: 0.8; stroke-linejoin: miter; stroke-linecap: square"/>
   </g>
   <g id="patch_5">
    <path d="M 527.405 383.56 
L 527.405 29.76 
" style="fill: none; stroke: #000000; stroke-width: 0.8; stroke-linejoin: miter; stroke-linecap: square"/>
   </g>
   <g id="patch_6">
    <path d="M 85.155 383.56 
L 527.405 383.56 
" style="fill: none; stroke: #000000; stroke-width: 0.8; stroke-linejoin: miter; stroke-linecap: square"/>
   </g>
   <g id="patch_7">
    <path d="M 85.155 29.76 
L 527.405 29.76 
" style="fill: none; stroke: #000000; stroke-width: 0.8; stroke-linejoin: miter; stroke-linecap: square"/>
   </g>
   <g id="text_18">
    <!-- Origin -->
    <g transform="translate(270.9 308.3775) scale(0.1 -0.1)">
     <defs>
      <path id="DejaVuSans-4f" d="M 2522 4238 
Q 1834 4238 1429 3725 
Q 1025 3213 1025 2328 
Q 1025 1447 1429 934 
Q 1834 422 2522 422 
Q 3209 422 3611 934 
Q 4013 1447 4013 2328 
Q 4013 3213 3611 3725 
Q 3209 4238 2522 4238 
z
M 2522 4750 
Q 3503 4750 4090 4092 
Q 4678 3434 4678 2328 
Q 4678 1225 4090 567 
Q 3503 -91 2522 -91 
Q 1538 -91 948 565 
Q 359 1222 359 2328 
Q 359 3434 948 4092 
Q 1538 4750 2522 4750 
z
" transform="scale(0.015625)"/>
      <path id="DejaVuSans-72" d="M 2631 2963 
Q 2534 3019 2420 3045 
Q 2306 3072 2169 3072 
Q 1681 3072 1420 2755 
Q 1159 2438 1159 1844 
L 1159 0 
L 581 0 
L 581 3500 
L 1159 3500 
L 1159 2956 
Q 1341 3275 1631 3429 
Q 1922 3584 2338 3584 
Q 2397 3584 2469 3576 
Q 2541 3569 2628 3553 
L 2631 2963 
z
" transform="scale(0.015625)"/>
      <path id="DejaVuSans-69" d="M 603 3500 
L 1178 3500 
L 1178 0 
L 603 0 
L 603 3500 
z
M 603 4863 
L 1178 4863 
L 1178 4134 
L 603 4134 
L 603 4863 
z
" transform="scale(0.015625)"/>
      <path id="DejaVuSans-67" d="M 2906 1791 
Q 2906 2416 2648 2759 
Q 2391 3103 1925 3103 
Q 1463 3103 1205 2759 
Q 947 2416 947 1791 
Q 947 1169 1205 825 
Q 1463 481 1925 481 
Q 2391 481 2648 825 
Q 2906 1169 2906 1791 
z
M 3481 434 
Q 3481 -459 3084 -895 
Q 2688 -1331 1869 -1331 
Q 1566 -1331 1297 -1286 
Q 1028 -1241 775 -1147 
L 775 -588 
Q 1028 -725 1275 -790 
Q 1522 -856 1778 -856 
Q 2344 -856 2625 -561 
Q 2906 -266 2906 331 
L 2906 616 
Q 2728 306 2450 153 
Q 2172 0 1784 0 
Q 1141 0 747 490 
Q 353 981 353 1791 
Q 353 2603 747 3093 
Q 1141 3584 1784 3584 
Q 2172 3584 2450 3431 
Q 2728 3278 2906 2969 
L 2906 3500 
L 3481 3500 
L 3481 434 
z
" transform="scale(0.015625)"/>
      <path id="DejaVuSans-6e" d="M 3513 2113 
L 3513 0 
L 2938 0 
L 2938 2094 
Q 2938 2591 2744 2837 
Q 2550 3084 2163 3084 
Q 1697 3084 1428 2787 
Q 1159 2491 1159 1978 
L 1159 0 
L 581 0 
L 581 3500 
L 1159 3500 
L 1159 2956 
Q 1366 3272 1645 3428 
Q 1925 3584 2291 3584 
Q 2894 3584 3203 3211 
Q 3513 2838 3513 2113 
z
" transform="scale(0.015625)"/>
     </defs>
     <use xlink:href="#DejaVuSans-4f"/>
     <use xlink:href="#DejaVuSans-72" x="78.710938"/>
     <use xlink:href="#DejaVuSans-69" x="119.824219"/>
     <use xlink:href="#DejaVuSans-67" x="147.607422"/>
     <use xlink:href="#DejaVuSans-69" x="211.083984"/>
     <use xlink:href="#DejaVuSans-6e" x="238.867188"/>
    </g>
   </g>
   <g id="text_19">
    <!-- Ridge Regression: Two Different Datasets -->
    <g transform="translate(141.12625 23.76) scale(0.16 -0.16)">
     <defs>
      <path id="DejaVuSans-52" d="M 2841 2188 
Q 3044 2119 3236 1894 
Q 3428 1669 3622 1275 
L 4263 0 
L 3584 0 
L 2988 1197 
Q 2756 1666 2539 1819 
Q 2322 1972 1947 1972 
L 1259 1972 
L 1259 0 
L 628 0 
L 628 4666 
L 2053 4666 
Q 2853 4666 3247 4331 
Q 3641 3997 3641 3322 
Q 3641 2881 3436 2590 
Q 3231 2300 2841 2188 
z
M 1259 4147 
L 1259 2491 
L 2053 2491 
Q 2509 2491 2742 2702 
Q 2975 2913 2975 3322 
Q 2975 3731 2742 3939 
Q 2509 4147 2053 4147 
L 1259 4147 
z
" transform="scale(0.015625)"/>
      <path id="DejaVuSans-64" d="M 2906 2969 
L 2906 4863 
L 3481 4863 
L 3481 0 
L 2906 0 
L 2906 525 
Q 2725 213 2448 61 
Q 2172 -91 1784 -91 
Q 1150 -91 751 415 
Q 353 922 353 1747 
Q 353 2572 751 3078 
Q 1150 3584 1784 3584 
Q 2172 3584 2448 3432 
Q 2725 3281 2906 2969 
z
M 947 1747 
Q 947 1113 1208 752 
Q 1469 391 1925 391 
Q 2381 391 2643 752 
Q 2906 1113 2906 1747 
Q 2906 2381 2643 2742 
Q 2381 3103 1925 3103 
Q 1469 3103 1208 2742 
Q 947 2381 947 1747 
z
" transform="scale(0.015625)"/>
      <path id="DejaVuSans-65" d="M 3597 1894 
L 3597 1613 
L 953 1613 
Q 991 1019 1311 708 
Q 1631 397 2203 397 
Q 2534 397 2845 478 
Q 3156 559 3463 722 
L 3463 178 
Q 3153 47 2828 -22 
Q 2503 -91 2169 -91 
Q 1331 -91 842 396 
Q 353 884 353 1716 
Q 353 2575 817 3079 
Q 1281 3584 2069 3584 
Q 2775 3584 3186 3129 
Q 3597 2675 3597 1894 
z
M 3022 2063 
Q 3016 2534 2758 2815 
Q 2500 3097 2075 3097 
Q 1594 3097 1305 2825 
Q 1016 2553 972 2059 
L 3022 2063 
z
" transform="scale(0.015625)"/>
      <path id="DejaVuSans-20" transform="scale(0.015625)"/>
      <path id="DejaVuSans-73" d="M 2834 3397 
L 2834 2853 
Q 2591 2978 2328 3040 
Q 2066 3103 1784 3103 
Q 1356 3103 1142 2972 
Q 928 2841 928 2578 
Q 928 2378 1081 2264 
Q 1234 2150 1697 2047 
L 1894 2003 
Q 2506 1872 2764 1633 
Q 3022 1394 3022 966 
Q 3022 478 2636 193 
Q 2250 -91 1575 -91 
Q 1294 -91 989 -36 
Q 684 19 347 128 
L 347 722 
Q 666 556 975 473 
Q 1284 391 1588 391 
Q 1994 391 2212 530 
Q 2431 669 2431 922 
Q 2431 1156 2273 1281 
Q 2116 1406 1581 1522 
L 1381 1569 
Q 847 1681 609 1914 
Q 372 2147 372 2553 
Q 372 3047 722 3315 
Q 1072 3584 1716 3584 
Q 2034 3584 2315 3537 
Q 2597 3491 2834 3397 
z
" transform="scale(0.015625)"/>
      <path id="DejaVuSans-6f" d="M 1959 3097 
Q 1497 3097 1228 2736 
Q 959 2375 959 1747 
Q 959 1119 1226 758 
Q 1494 397 1959 397 
Q 2419 397 2687 759 
Q 2956 1122 2956 1747 
Q 2956 2369 2687 2733 
Q 2419 3097 1959 3097 
z
M 1959 3584 
Q 2709 3584 3137 3096 
Q 3566 2609 3566 1747 
Q 3566 888 3137 398 
Q 2709 -91 1959 -91 
Q 1206 -91 779 398 
Q 353 888 353 1747 
Q 353 2609 779 3096 
Q 1206 3584 1959 3584 
z
" transform="scale(0.015625)"/>
      <path id="DejaVuSans-3a" d="M 750 794 
L 1409 794 
L 1409 0 
L 750 0 
L 750 794 
z
M 750 3309 
L 1409 3309 
L 1409 2516 
L 750 2516 
L 750 3309 
z
" transform="scale(0.015625)"/>
      <path id="DejaVuSans-54" d="M -19 4666 
L 3928 4666 
L 3928 4134 
L 2272 4134 
L 2272 0 
L 1638 0 
L 1638 4134 
L -19 4134 
L -19 4666 
z
" transform="scale(0.015625)"/>
      <path id="DejaVuSans-77" d="M 269 3500 
L 844 3500 
L 1563 769 
L 2278 3500 
L 2956 3500 
L 3675 769 
L 4391 3500 
L 4966 3500 
L 4050 0 
L 3372 0 
L 2619 2869 
L 1863 0 
L 1184 0 
L 269 3500 
z
" transform="scale(0.015625)"/>
      <path id="DejaVuSans-44" d="M 1259 4147 
L 1259 519 
L 2022 519 
Q 2988 519 3436 956 
Q 3884 1394 3884 2338 
Q 3884 3275 3436 3711 
Q 2988 4147 2022 4147 
L 1259 4147 
z
M 628 4666 
L 1925 4666 
Q 3281 4666 3915 4102 
Q 4550 3538 4550 2338 
Q 4550 1131 3912 565 
Q 3275 0 1925 0 
L 628 0 
L 628 4666 
z
" transform="scale(0.015625)"/>
      <path id="DejaVuSans-66" d="M 2375 4863 
L 2375 4384 
L 1825 4384 
Q 1516 4384 1395 4259 
Q 1275 4134 1275 3809 
L 1275 3500 
L 2222 3500 
L 2222 3053 
L 1275 3053 
L 1275 0 
L 697 0 
L 697 3053 
L 147 3053 
L 147 3500 
L 697 3500 
L 697 3744 
Q 697 4328 969 4595 
Q 1241 4863 1831 4863 
L 2375 4863 
z
" transform="scale(0.015625)"/>
      <path id="DejaVuSans-74" d="M 1172 4494 
L 1172 3500 
L 2356 3500 
L 2356 3053 
L 1172 3053 
L 1172 1153 
Q 1172 725 1289 603 
Q 1406 481 1766 481 
L 2356 481 
L 2356 0 
L 1766 0 
Q 1100 0 847 248 
Q 594 497 594 1153 
L 594 3053 
L 172 3053 
L 172 3500 
L 594 3500 
L 594 4494 
L 1172 4494 
z
" transform="scale(0.015625)"/>
      <path id="DejaVuSans-61" d="M 2194 1759 
Q 1497 1759 1228 1600 
Q 959 1441 959 1056 
Q 959 750 1161 570 
Q 1363 391 1709 391 
Q 2188 391 2477 730 
Q 2766 1069 2766 1631 
L 2766 1759 
L 2194 1759 
z
M 3341 1997 
L 3341 0 
L 2766 0 
L 2766 531 
Q 2569 213 2275 61 
Q 1981 -91 1556 -91 
Q 1019 -91 701 211 
Q 384 513 384 1019 
Q 384 1609 779 1909 
Q 1175 2209 1959 2209 
L 2766 2209 
L 2766 2266 
Q 2766 2663 2505 2880 
Q 2244 3097 1772 3097 
Q 1472 3097 1187 3025 
Q 903 2953 641 2809 
L 641 3341 
Q 956 3463 1253 3523 
Q 1550 3584 1831 3584 
Q 2591 3584 2966 3190 
Q 3341 2797 3341 1997 
z
" transform="scale(0.015625)"/>
     </defs>
     <use xlink:href="#DejaVuSans-52"/>
     <use xlink:href="#DejaVuSans-69" x="69.482422"/>
     <use xlink:href="#DejaVuSans-64" x="97.265625"/>
     <use xlink:href="#DejaVuSans-67" x="160.742188"/>
     <use xlink:href="#DejaVuSans-65" x="224.21875"/>
     <use xlink:href="#DejaVuSans-20" x="285.742188"/>
     <use xlink:href="#DejaVuSans-52" x="317.529297"/>
     <use xlink:href="#DejaVuSans-65" x="382.511719"/>
     <use xlink:href="#DejaVuSans-67" x="444.035156"/>
     <use xlink:href="#DejaVuSans-72" x="507.511719"/>
     <use xlink:href="#DejaVuSans-65" x="546.375"/>
     <use xlink:href="#DejaVuSans-73" x="607.898438"/>
     <use xlink:href="#DejaVuSans-73" x="659.998047"/>
     <use xlink:href="#DejaVuSans-69" x="712.097656"/>
     <use xlink:href="#DejaVuSans-6f" x="739.880859"/>
     <use xlink:href="#DejaVuSans-6e" x="801.0625"/>
     <use xlink:href="#DejaVuSans-3a" x="864.441406"/>
     <use xlink:href="#DejaVuSans-20" x="898.132812"/>
     <use xlink:href="#DejaVuSans-54" x="929.919922"/>
     <use xlink:href="#DejaVuSans-77" x="974.503906"/>
     <use xlink:href="#DejaVuSans-6f" x="1056.291016"/>
     <use xlink:href="#DejaVuSans-20" x="1117.472656"/>
     <use xlink:href="#DejaVuSans-44" x="1149.259766"/>
     <use xlink:href="#DejaVuSans-69" x="1226.261719"/>
     <use xlink:href="#DejaVuSans-66" x="1254.044922"/>
     <use xlink:href="#DejaVuSans-66" x="1289.25"/>
     <use xlink:href="#DejaVuSans-65" x="1324.455078"/>
     <use xlink:href="#DejaVuSans-72" x="1385.978516"/>
     <use xlink:href="#DejaVuSans-65" x="1424.841797"/>
     <use xlink:href="#DejaVuSans-6e" x="1486.365234"/>
     <use xlink:href="#DejaVuSans-74" x="1549.744141"/>
     <use xlink:href="#DejaVuSans-20" x="1588.953125"/>
     <use xlink:href="#DejaVuSans-44" x="1620.740234"/>
     <use xlink:href="#DejaVuSans-61" x="1697.742188"/>
     <use xlink:href="#DejaVuSans-74" x="1759.021484"/>
     <use xlink:href="#DejaVuSans-61" x="1798.230469"/>
     <use xlink:href="#DejaVuSans-73" x="1859.509766"/>
     <use xlink:href="#DejaVuSans-65" x="1911.609375"/>
     <use xlink:href="#DejaVuSans-74" x="1973.132812"/>
     <use xlink:href="#DejaVuSans-73" x="2012.341797"/>
    </g>
   </g>
   <g id="line2d_37">
    <defs>
     <path id="m5d9dc2ae67" d="M 0 3 
C 0.795609 3 1.55874 2.683901 2.12132 2.12132 
C 2.683901 1.55874 3 0.795609 3 0 
C 3 -0.795609 2.683901 -1.55874 2.12132 -2.12132 
C 1.55874 -2.683901 0.795609 -3 0 -3 
C -0.795609 -3 -1.55874 -2.683901 -2.12132 -2.12132 
C -2.683901 -1.55874 -3 -0.795609 -3 0 
C -3 0.795609 -2.683901 1.55874 -2.12132 2.12132 
C -1.55874 2.683901 -0.795609 3 0 3 
z
" style="stroke: #000000"/>
    </defs>
    <g clip-path="url(#p4a9920590b)">
     <use xlink:href="#m5d9dc2ae67" x="262.055" y="295.11" style="stroke: #000000"/>
    </g>
   </g>
   <g id="line2d_38">
    <defs>
     <path id="me0b6f78bce" d="M 0 6 
C 1.591219 6 3.117479 5.367802 4.242641 4.242641 
C 5.367802 3.117479 6 1.591219 6 0 
C 6 -1.591219 5.367802 -3.117479 4.242641 -4.242641 
C 3.117479 -5.367802 1.591219 -6 0 -6 
C -1.591219 -6 -3.117479 -5.367802 -4.242641 -4.242641 
C -5.367802 -3.117479 -6 -1.591219 -6 0 
C -6 1.591219 -5.367802 3.117479 -4.242641 4.242641 
C -3.117479 5.367802 -1.591219 6 0 6 
z
" style="stroke: #0000ff"/>
    </defs>
    <g clip-path="url(#p4a9920590b)">
     <use xlink:href="#me0b6f78bce" x="394.73" y="206.66" style="fill: #0000ff; stroke: #0000ff"/>
    </g>
   </g>
   <g id="line2d_39">
    <defs>
     <path id="mcdca7d6bbb" d="M 0 6 
C 1.591219 6 3.117479 5.367802 4.242641 4.242641 
C 5.367802 3.117479 6 1.591219 6 0 
C 6 -1.591219 5.367802 -3.117479 4.242641 -4.242641 
C 3.117479 -5.367802 1.591219 -6 0 -6 
C -1.591219 -6 -3.117479 -5.367802 -4.242641 -4.242641 
C -5.367802 -3.117479 -6 -1.591219 -6 0 
C -6 1.591219 -5.367802 3.117479 -4.242641 4.242641 
C -3.117479 5.367802 -1.591219 6 0 6 
z
" style="stroke: #008000"/>
    </defs>
    <g clip-path="url(#p4a9920590b)">
     <use xlink:href="#mcdca7d6bbb" x="191.295" y="135.9" style="fill: #008000; stroke: #008000"/>
    </g>
   </g>
   <g id="line2d_40">
    <defs>
     <path id="m6024e1da3a" d="M -5 5 
L 5 5 
L 5 -5 
L -5 -5 
z
" style="stroke: #0000ff; stroke-linejoin: miter"/>
    </defs>
    <g clip-path="url(#p4a9920590b)">
     <use xlink:href="#m6024e1da3a" x="350.818602" y="236.914316" style="fill: #0000ff; stroke: #0000ff; stroke-linejoin: miter"/>
    </g>
   </g>
   <g id="line2d_41">
    <defs>
     <path id="m70dd75db9f" d="M -5 5 
L 5 5 
L 5 -5 
L -5 -5 
z
" style="stroke: #008000; stroke-linejoin: miter"/>
    </defs>
    <g clip-path="url(#p4a9920590b)">
     <use xlink:href="#m70dd75db9f" x="224.267072" y="195.924443" style="fill: #008000; stroke: #008000; stroke-linejoin: miter"/>
    </g>
   </g>
   <g id="legend_1">
    <g id="patch_8">
     <path d="M 329.405 173.151875 
L 519.705 173.151875 
Q 521.905 173.151875 521.905 170.951875 
L 521.905 37.46 
Q 521.905 35.26 519.705 35.26 
L 329.405 35.26 
Q 327.205 35.26 327.205 37.46 
L 327.205 170.951875 
Q 327.205 173.151875 329.405 173.151875 
z
" style="fill: #ffffff; opacity: 0.8; stroke: #cccccc; stroke-linejoin: miter"/>
    </g>
    <g id="line2d_42">
     <path d="M 331.605 44.168281 
L 342.605 44.168281 
L 353.605 44.168281 
" style="fill: none; stroke: #0000ff; stroke-opacity: 0.6; stroke-width: 1.5; stroke-linecap: square"/>
    </g>
    <g id="text_20">
     <!-- MSE contours ($D$) -->
     <g transform="translate(362.405 48.018281) scale(0.11 -0.11)">
      <defs>
       <path id="DejaVuSans-4d" d="M 628 4666 
L 1569 4666 
L 2759 1491 
L 3956 4666 
L 4897 4666 
L 4897 0 
L 4281 0 
L 4281 4097 
L 3078 897 
L 2444 897 
L 1241 4097 
L 1241 0 
L 628 0 
L 628 4666 
z
" transform="scale(0.015625)"/>
       <path id="DejaVuSans-53" d="M 3425 4513 
L 3425 3897 
Q 3066 4069 2747 4153 
Q 2428 4238 2131 4238 
Q 1616 4238 1336 4038 
Q 1056 3838 1056 3469 
Q 1056 3159 1242 3001 
Q 1428 2844 1947 2747 
L 2328 2669 
Q 3034 2534 3370 2195 
Q 3706 1856 3706 1288 
Q 3706 609 3251 259 
Q 2797 -91 1919 -91 
Q 1588 -91 1214 -16 
Q 841 59 441 206 
L 441 856 
Q 825 641 1194 531 
Q 1563 422 1919 422 
Q 2459 422 2753 634 
Q 3047 847 3047 1241 
Q 3047 1584 2836 1778 
Q 2625 1972 2144 2069 
L 1759 2144 
Q 1053 2284 737 2584 
Q 422 2884 422 3419 
Q 422 4038 858 4394 
Q 1294 4750 2059 4750 
Q 2388 4750 2728 4690 
Q 3069 4631 3425 4513 
z
" transform="scale(0.015625)"/>
       <path id="DejaVuSans-45" d="M 628 4666 
L 3578 4666 
L 3578 4134 
L 1259 4134 
L 1259 2753 
L 3481 2753 
L 3481 2222 
L 1259 2222 
L 1259 531 
L 3634 531 
L 3634 0 
L 628 0 
L 628 4666 
z
" transform="scale(0.015625)"/>
       <path id="DejaVuSans-63" d="M 3122 3366 
L 3122 2828 
Q 2878 2963 2633 3030 
Q 2388 3097 2138 3097 
Q 1578 3097 1268 2742 
Q 959 2388 959 1747 
Q 959 1106 1268 751 
Q 1578 397 2138 397 
Q 2388 397 2633 464 
Q 2878 531 3122 666 
L 3122 134 
Q 2881 22 2623 -34 
Q 2366 -91 2075 -91 
Q 1284 -91 818 406 
Q 353 903 353 1747 
Q 353 2603 823 3093 
Q 1294 3584 2113 3584 
Q 2378 3584 2631 3529 
Q 2884 3475 3122 3366 
z
" transform="scale(0.015625)"/>
       <path id="DejaVuSans-75" d="M 544 1381 
L 544 3500 
L 1119 3500 
L 1119 1403 
Q 1119 906 1312 657 
Q 1506 409 1894 409 
Q 2359 409 2629 706 
Q 2900 1003 2900 1516 
L 2900 3500 
L 3475 3500 
L 3475 0 
L 2900 0 
L 2900 538 
Q 2691 219 2414 64 
Q 2138 -91 1772 -91 
Q 1169 -91 856 284 
Q 544 659 544 1381 
z
M 1991 3584 
L 1991 3584 
z
" transform="scale(0.015625)"/>
       <path id="DejaVuSans-28" d="M 1984 4856 
Q 1566 4138 1362 3434 
Q 1159 2731 1159 2009 
Q 1159 1288 1364 580 
Q 1569 -128 1984 -844 
L 1484 -844 
Q 1016 -109 783 600 
Q 550 1309 550 2009 
Q 550 2706 781 3412 
Q 1013 4119 1484 4856 
L 1984 4856 
z
" transform="scale(0.015625)"/>
       <path id="DejaVuSans-Oblique-44" d="M 1081 4666 
L 2438 4666 
Q 3519 4666 4070 4208 
Q 4622 3750 4622 2847 
Q 4622 2250 4412 1698 
Q 4203 1147 3834 769 
Q 3463 381 2891 190 
Q 2319 0 1538 0 
L 172 0 
L 1081 4666 
z
M 1613 4147 
L 909 519 
L 1734 519 
Q 2794 519 3375 1128 
Q 3956 1738 3956 2847 
Q 3956 3519 3581 3833 
Q 3206 4147 2406 4147 
L 1613 4147 
z
" transform="scale(0.015625)"/>
       <path id="DejaVuSans-29" d="M 513 4856 
L 1013 4856 
Q 1481 4119 1714 3412 
Q 1947 2706 1947 2009 
Q 1947 1309 1714 600 
Q 1481 -109 1013 -844 
L 513 -844 
Q 928 -128 1133 580 
Q 1338 1288 1338 2009 
Q 1338 2731 1133 3434 
Q 928 4138 513 4856 
z
" transform="scale(0.015625)"/>
      </defs>
      <use xlink:href="#DejaVuSans-4d" transform="translate(0 0.125)"/>
      <use xlink:href="#DejaVuSans-53" transform="translate(86.279297 0.125)"/>
      <use xlink:href="#DejaVuSans-45" transform="translate(149.755859 0.125)"/>
      <use xlink:href="#DejaVuSans-20" transform="translate(212.939453 0.125)"/>
      <use xlink:href="#DejaVuSans-63" transform="translate(244.726562 0.125)"/>
      <use xlink:href="#DejaVuSans-6f" transform="translate(299.707031 0.125)"/>
      <use xlink:href="#DejaVuSans-6e" transform="translate(360.888672 0.125)"/>
      <use xlink:href="#DejaVuSans-74" transform="translate(424.267578 0.125)"/>
      <use xlink:href="#DejaVuSans-6f" transform="translate(463.476562 0.125)"/>
      <use xlink:href="#DejaVuSans-75" transform="translate(524.658203 0.125)"/>
      <use xlink:href="#DejaVuSans-72" transform="translate(588.037109 0.125)"/>
      <use xlink:href="#DejaVuSans-73" transform="translate(629.150391 0.125)"/>
      <use xlink:href="#DejaVuSans-20" transform="translate(681.25 0.125)"/>
      <use xlink:href="#DejaVuSans-28" transform="translate(713.037109 0.125)"/>
      <use xlink:href="#DejaVuSans-Oblique-44" transform="translate(752.050781 0.125)"/>
      <use xlink:href="#DejaVuSans-29" transform="translate(829.052734 0.125)"/>
     </g>
    </g>
    <g id="line2d_43">
     <path d="M 331.605 60.314219 
L 342.605 60.314219 
L 353.605 60.314219 
" style="fill: none; stroke: #008000; stroke-opacity: 0.6; stroke-width: 1.5; stroke-linecap: square"/>
    </g>
    <g id="text_21">
     <!-- MSE contours ($D'$) -->
     <g transform="translate(362.405 64.164219) scale(0.11 -0.11)">
      <defs>
       <path id="Cmsy10-30" d="M 225 347 
Q 184 359 184 409 
L 966 3316 
Q 1003 3434 1093 3506 
Q 1184 3578 1300 3578 
Q 1450 3578 1564 3479 
Q 1678 3381 1678 3231 
Q 1678 3166 1644 3084 
L 488 319 
Q 466 275 428 275 
Q 394 275 320 306 
Q 247 338 225 347 
z
" transform="scale(0.015625)"/>
      </defs>
      <use xlink:href="#DejaVuSans-4d" transform="translate(0 0.584375)"/>
      <use xlink:href="#DejaVuSans-53" transform="translate(86.279297 0.584375)"/>
      <use xlink:href="#DejaVuSans-45" transform="translate(149.755859 0.584375)"/>
      <use xlink:href="#DejaVuSans-20" transform="translate(212.939453 0.584375)"/>
      <use xlink:href="#DejaVuSans-63" transform="translate(244.726562 0.584375)"/>
      <use xlink:href="#DejaVuSans-6f" transform="translate(299.707031 0.584375)"/>
      <use xlink:href="#DejaVuSans-6e" transform="translate(360.888672 0.584375)"/>
      <use xlink:href="#DejaVuSans-74" transform="translate(424.267578 0.584375)"/>
      <use xlink:href="#DejaVuSans-6f" transform="translate(463.476562 0.584375)"/>
      <use xlink:href="#DejaVuSans-75" transform="translate(524.658203 0.584375)"/>
      <use xlink:href="#DejaVuSans-72" transform="translate(588.037109 0.584375)"/>
      <use xlink:href="#DejaVuSans-73" transform="translate(629.150391 0.584375)"/>
      <use xlink:href="#DejaVuSans-20" transform="translate(681.25 0.584375)"/>
      <use xlink:href="#DejaVuSans-28" transform="translate(713.037109 0.584375)"/>
      <use xlink:href="#DejaVuSans-Oblique-44" transform="translate(752.050781 0.584375)"/>
      <use xlink:href="#Cmsy10-30" transform="translate(836.069505 38.865625) scale(0.7)"/>
      <use xlink:href="#DejaVuSans-29" transform="translate(858.047044 0.584375)"/>
     </g>
    </g>
    <g id="patch_9">
     <path d="M 331.605 80.421875 
L 353.605 80.421875 
L 353.605 72.721875 
L 331.605 72.721875 
L 331.605 80.421875 
z
" style="fill: none; stroke-dasharray: 9.25,4; stroke-dashoffset: 0; stroke: #ff0000; stroke-width: 2.5; stroke-linejoin: miter"/>
    </g>
    <g id="text_22">
     <!-- Ridge constraint: $||\beta||_2 \leq 1.2$ -->
     <g transform="translate(362.405 80.421875) scale(0.11 -0.11)">
      <defs>
       <path id="DejaVuSans-7c" d="M 1344 4891 
L 1344 -1509 
L 813 -1509 
L 813 4891 
L 1344 4891 
z
" transform="scale(0.015625)"/>
       <path id="DejaVuSans-2264" d="M 4684 3175 
L 1684 2309 
L 4684 1453 
L 4684 897 
L 678 2047 
L 678 2578 
L 4684 3725 
L 4684 3175 
z
M 678 531 
L 4684 531 
L 4684 0 
L 678 0 
L 678 531 
z
" transform="scale(0.015625)"/>
      </defs>
      <use xlink:href="#DejaVuSans-52" transform="translate(0 0.390625)"/>
      <use xlink:href="#DejaVuSans-69" transform="translate(69.482422 0.390625)"/>
      <use xlink:href="#DejaVuSans-64" transform="translate(97.265625 0.390625)"/>
      <use xlink:href="#DejaVuSans-67" transform="translate(160.742188 0.390625)"/>
      <use xlink:href="#DejaVuSans-65" transform="translate(224.21875 0.390625)"/>
      <use xlink:href="#DejaVuSans-20" transform="translate(285.742188 0.390625)"/>
      <use xlink:href="#DejaVuSans-63" transform="translate(317.529297 0.390625)"/>
      <use xlink:href="#DejaVuSans-6f" transform="translate(372.509766 0.390625)"/>
      <use xlink:href="#DejaVuSans-6e" transform="translate(433.691406 0.390625)"/>
      <use xlink:href="#DejaVuSans-73" transform="translate(497.070312 0.390625)"/>
      <use xlink:href="#DejaVuSans-74" transform="translate(549.169922 0.390625)"/>
      <use xlink:href="#DejaVuSans-72" transform="translate(588.378906 0.390625)"/>
      <use xlink:href="#DejaVuSans-61" transform="translate(629.492188 0.390625)"/>
      <use xlink:href="#DejaVuSans-69" transform="translate(690.771484 0.390625)"/>
      <use xlink:href="#DejaVuSans-6e" transform="translate(718.554688 0.390625)"/>
      <use xlink:href="#DejaVuSans-74" transform="translate(781.933594 0.390625)"/>
      <use xlink:href="#DejaVuSans-3a" transform="translate(821.142578 0.390625)"/>
      <use xlink:href="#DejaVuSans-20" transform="translate(854.833984 0.390625)"/>
      <use xlink:href="#DejaVuSans-7c" transform="translate(886.621094 0.390625)"/>
      <use xlink:href="#DejaVuSans-7c" transform="translate(920.3125 0.390625)"/>
      <use xlink:href="#DejaVuSans-Oblique-3b2" transform="translate(954.003906 0.390625)"/>
      <use xlink:href="#DejaVuSans-7c" transform="translate(1017.822266 0.390625)"/>
      <use xlink:href="#DejaVuSans-7c" transform="translate(1051.513672 0.390625)"/>
      <use xlink:href="#DejaVuSans-32" transform="translate(1086.162109 -16.015625) scale(0.7)"/>
      <use xlink:href="#DejaVuSans-2264" transform="translate(1152.915039 0.390625)"/>
      <use xlink:href="#DejaVuSans-31" transform="translate(1256.186523 0.390625)"/>
      <use xlink:href="#DejaVuSans-2e" transform="translate(1319.80957 0.390625)"/>
      <use xlink:href="#DejaVuSans-32" transform="translate(1346.09668 0.390625)"/>
     </g>
    </g>
    <g id="line2d_44">
     <g>
      <use xlink:href="#me0b6f78bce" x="342.605" y="97.251875" style="fill: #0000ff; stroke: #0000ff"/>
     </g>
    </g>
    <g id="text_23">
     <!-- $\hat \beta_\mathrm{OLS}$ -->
     <g transform="translate(362.405 101.101875) scale(0.11 -0.11)">
      <defs>
       <path id="DejaVuSans-302" d="M -1831 5119 
L -1369 5119 
L -603 3944 
L -1038 3944 
L -1600 4709 
L -2163 3944 
L -2597 3944 
L -1831 5119 
z
M -1600 3584 
L -1600 3584 
z
" transform="scale(0.015625)"/>
       <path id="DejaVuSans-4c" d="M 628 4666 
L 1259 4666 
L 1259 531 
L 3531 531 
L 3531 0 
L 628 0 
L 628 4666 
z
" transform="scale(0.015625)"/>
      </defs>
      <use xlink:href="#DejaVuSans-302" transform="translate(62.785156 34.015625)"/>
      <use xlink:href="#DejaVuSans-Oblique-3b2" transform="translate(0 0.90625)"/>
      <use xlink:href="#DejaVuSans-4f" transform="translate(64.775391 -15.5) scale(0.7)"/>
      <use xlink:href="#DejaVuSans-4c" transform="translate(119.873047 -15.5) scale(0.7)"/>
      <use xlink:href="#DejaVuSans-53" transform="translate(158.87207 -15.5) scale(0.7)"/>
     </g>
    </g>
    <g id="line2d_45">
     <g>
      <use xlink:href="#mcdca7d6bbb" x="342.605" y="117.601875" style="fill: #008000; stroke: #008000"/>
     </g>
    </g>
    <g id="text_24">
     <!-- $\hat \beta_\mathrm{OLS}'$ -->
     <g transform="translate(362.405 121.451875) scale(0.11 -0.11)">
      <use xlink:href="#DejaVuSans-302" transform="translate(62.785156 34.015625)"/>
      <use xlink:href="#DejaVuSans-Oblique-3b2" transform="translate(0 0.90625)"/>
      <use xlink:href="#Cmsy10-30" transform="translate(64.775391 39.1875) scale(0.7)"/>
      <use xlink:href="#DejaVuSans-4f" transform="translate(64.775391 -26.4375) scale(0.7)"/>
      <use xlink:href="#DejaVuSans-4c" transform="translate(119.873047 -26.4375) scale(0.7)"/>
      <use xlink:href="#DejaVuSans-53" transform="translate(158.87207 -26.4375) scale(0.7)"/>
     </g>
    </g>
    <g id="line2d_46">
     <g>
      <use xlink:href="#m6024e1da3a" x="342.605" y="138.831875" style="fill: #0000ff; stroke: #0000ff; stroke-linejoin: miter"/>
     </g>
    </g>
    <g id="text_25">
     <!-- $\hat \beta_\mathrm{Ridge}$ -->
     <g transform="translate(362.405 142.681875) scale(0.11 -0.11)">
      <use xlink:href="#DejaVuSans-302" transform="translate(62.785156 34.015625)"/>
      <use xlink:href="#DejaVuSans-Oblique-3b2" transform="translate(0 0.90625)"/>
      <use xlink:href="#DejaVuSans-52" transform="translate(64.775391 -15.5) scale(0.7)"/>
      <use xlink:href="#DejaVuSans-69" transform="translate(113.413086 -15.5) scale(0.7)"/>
      <use xlink:href="#DejaVuSans-64" transform="translate(132.861328 -15.5) scale(0.7)"/>
      <use xlink:href="#DejaVuSans-67" transform="translate(177.294922 -15.5) scale(0.7)"/>
      <use xlink:href="#DejaVuSans-65" transform="translate(221.728516 -15.5) scale(0.7)"/>
     </g>
    </g>
    <g id="line2d_47">
     <g>
      <use xlink:href="#m70dd75db9f" x="342.605" y="160.281875" style="fill: #008000; stroke: #008000; stroke-linejoin: miter"/>
     </g>
    </g>
    <g id="text_26">
     <!-- $\hat \beta_\mathrm{Ridge}'$ -->
     <g transform="translate(362.405 164.131875) scale(0.11 -0.11)">
      <use xlink:href="#DejaVuSans-302" transform="translate(62.785156 34.015625)"/>
      <use xlink:href="#DejaVuSans-Oblique-3b2" transform="translate(0 0.90625)"/>
      <use xlink:href="#Cmsy10-30" transform="translate(64.775391 39.251563) scale(0.7)"/>
      <use xlink:href="#DejaVuSans-52" transform="translate(64.775391 -26.4375) scale(0.7)"/>
      <use xlink:href="#DejaVuSans-69" transform="translate(113.413086 -26.4375) scale(0.7)"/>
      <use xlink:href="#DejaVuSans-64" transform="translate(132.861328 -26.4375) scale(0.7)"/>
      <use xlink:href="#DejaVuSans-67" transform="translate(177.294922 -26.4375) scale(0.7)"/>
      <use xlink:href="#DejaVuSans-65" transform="translate(221.728516 -26.4375) scale(0.7)"/>
     </g>
    </g>
   </g>
  </g>
 </g>
 <defs>
  <clipPath id="p4a9920590b">
   <rect x="85.155" y="29.76" width="442.25" height="353.8"/>
  </clipPath>
 </defs>
</svg>
