<?xml version="1.0" encoding="utf-8" standalone="no"?>
<!DOCTYPE svg PUBLIC "-//W3C//DTD SVG 1.1//EN"
  "http://www.w3.org/Graphics/SVG/1.1/DTD/svg11.dtd">
<svg xmlns:xlink="http://www.w3.org/1999/xlink" width="576pt" height="432pt" viewBox="0 0 576 432" xmlns="http://www.w3.org/2000/svg" version="1.1">
 <metadata>
  <rdf:RDF xmlns:dc="http://purl.org/dc/elements/1.1/" xmlns:cc="http://creativecommons.org/ns#" xmlns:rdf="http://www.w3.org/1999/02/22-rdf-syntax-ns#">
   <cc:Work>
    <dc:type rdf:resource="http://purl.org/dc/dcmitype/StillImage"/>
    <dc:date>2025-09-22T15:54:26.503658</dc:date>
    <dc:format>image/svg+xml</dc:format>
    <dc:creator>
     <cc:Agent>
      <dc:title>Matplotlib v3.8.4, https://matplotlib.org/</dc:title>
     </cc:Agent>
    </dc:creator>
   </cc:Work>
  </rdf:RDF>
 </metadata>
 <defs>
  <style type="text/css">*{stroke-linejoin: round; stroke-linecap: butt}</style>
 </defs>
 <g id="figure_1">
  <g id="patch_1">
   <path d="M 0 432 
L 576 432 
L 576 0 
L 0 0 
z
" style="fill: #ffffff"/>
  </g>
  <g id="axes_1">
   <g id="patch_2">
    <path d="M 111.1 383.56 
L 464.9 383.56 
L 464.9 29.76 
L 111.1 29.76 
z
" style="fill: #ffffff"/>
   </g>
   <g id="patch_3">
    <path d="M 199.55 401.25 
C 227.698657 401.25 254.698207 390.06642 274.602314 370.162314 
C 294.50642 350.258207 305.69 323.258657 305.69 295.11 
C 305.69 266.961343 294.50642 239.961793 274.602314 220.057686 
C 254.698207 200.15358 227.698657 188.97 199.55 188.97 
C 171.401343 188.97 144.401793 200.15358 124.497686 220.057686 
C 104.59358 239.961793 93.41 266.961343 93.41 295.11 
C 93.41 323.258657 104.59358 350.258207 124.497686 370.162314 
C 144.401793 390.06642 171.401343 401.25 199.55 401.25 
L 199.55 401.25 
z
" clip-path="url(#pae18992186)" style="fill: none; stroke-dasharray: 9.25,4; stroke-dashoffset: 0; stroke: #ff0000; stroke-width: 2.5; stroke-linejoin: miter"/>
   </g>
   <g id="line2d_1">
    <path d="M 111.1 295.11 
L 464.9 295.11 
" clip-path="url(#pae18992186)" style="fill: none; stroke: #000000; stroke-opacity: 0.7; stroke-linecap: square"/>
   </g>
   <g id="line2d_2">
    <path d="M 199.55 383.56 
L 199.55 29.76 
" clip-path="url(#pae18992186)" style="fill: none; stroke: #000000; stroke-opacity: 0.7; stroke-linecap: square"/>
   </g>
   <g id="matplotlib.axis_1">
    <g id="xtick_1">
     <g id="line2d_3">
      <path d="M 111.1 383.56 
L 111.1 29.76 
" clip-path="url(#pae18992186)" style="fill: none; stroke: #b0b0b0; stroke-opacity: 0.3; stroke-width: 0.8; stroke-linecap: square"/>
     </g>
     <g id="line2d_4">
      <defs>
       <path id="m8211a4b782" d="M 0 0 
L 0 3.5 
" style="stroke: #000000; stroke-width: 0.8"/>
      </defs>
      <g>
       <use xlink:href="#m8211a4b782" x="111.1" y="383.56" style="stroke: #000000; stroke-width: 0.8"/>
      </g>
     </g>
     <g id="text_1">
      <!-- −1.0 -->
      <g transform="translate(98.958594 398.158437) scale(0.1 -0.1)">
       <defs>
        <path id="DejaVuSans-2212" d="M 678 2272 
L 4684 2272 
L 4684 1741 
L 678 1741 
L 678 2272 
z
" transform="scale(0.015625)"/>
        <path id="DejaVuSans-31" d="M 794 531 
L 1825 531 
L 1825 4091 
L 703 3866 
L 703 4441 
L 1819 4666 
L 2450 4666 
L 2450 531 
L 3481 531 
L 3481 0 
L 794 0 
L 794 531 
z
" transform="scale(0.015625)"/>
        <path id="DejaVuSans-2e" d="M 684 794 
L 1344 794 
L 1344 0 
L 684 0 
L 684 794 
z
" transform="scale(0.015625)"/>
        <path id="DejaVuSans-30" d="M 2034 4250 
Q 1547 4250 1301 3770 
Q 1056 3291 1056 2328 
Q 1056 1369 1301 889 
Q 1547 409 2034 409 
Q 2525 409 2770 889 
Q 3016 1369 3016 2328 
Q 3016 3291 2770 3770 
Q 2525 4250 2034 4250 
z
M 2034 4750 
Q 2819 4750 3233 4129 
Q 3647 3509 3647 2328 
Q 3647 1150 3233 529 
Q 2819 -91 2034 -91 
Q 1250 -91 836 529 
Q 422 1150 422 2328 
Q 422 3509 836 4129 
Q 1250 4750 2034 4750 
z
" transform="scale(0.015625)"/>
       </defs>
       <use xlink:href="#DejaVuSans-2212"/>
       <use xlink:href="#DejaVuSans-31" x="83.789062"/>
       <use xlink:href="#DejaVuSans-2e" x="147.412109"/>
       <use xlink:href="#DejaVuSans-30" x="179.199219"/>
      </g>
     </g>
    </g>
    <g id="xtick_2">
     <g id="line2d_5">
      <path d="M 155.325 383.56 
L 155.325 29.76 
" clip-path="url(#pae18992186)" style="fill: none; stroke: #b0b0b0; stroke-opacity: 0.3; stroke-width: 0.8; stroke-linecap: square"/>
     </g>
     <g id="line2d_6">
      <g>
       <use xlink:href="#m8211a4b782" x="155.325" y="383.56" style="stroke: #000000; stroke-width: 0.8"/>
      </g>
     </g>
     <g id="text_2">
      <!-- −0.5 -->
      <g transform="translate(143.183594 398.158437) scale(0.1 -0.1)">
       <defs>
        <path id="DejaVuSans-35" d="M 691 4666 
L 3169 4666 
L 3169 4134 
L 1269 4134 
L 1269 2991 
Q 1406 3038 1543 3061 
Q 1681 3084 1819 3084 
Q 2600 3084 3056 2656 
Q 3513 2228 3513 1497 
Q 3513 744 3044 326 
Q 2575 -91 1722 -91 
Q 1428 -91 1123 -41 
Q 819 9 494 109 
L 494 744 
Q 775 591 1075 516 
Q 1375 441 1709 441 
Q 2250 441 2565 725 
Q 2881 1009 2881 1497 
Q 2881 1984 2565 2268 
Q 2250 2553 1709 2553 
Q 1456 2553 1204 2497 
Q 953 2441 691 2322 
L 691 4666 
z
" transform="scale(0.015625)"/>
       </defs>
       <use xlink:href="#DejaVuSans-2212"/>
       <use xlink:href="#DejaVuSans-30" x="83.789062"/>
       <use xlink:href="#DejaVuSans-2e" x="147.412109"/>
       <use xlink:href="#DejaVuSans-35" x="179.199219"/>
      </g>
     </g>
    </g>
    <g id="xtick_3">
     <g id="line2d_7">
      <path d="M 199.55 383.56 
L 199.55 29.76 
" clip-path="url(#pae18992186)" style="fill: none; stroke: #b0b0b0; stroke-opacity: 0.3; stroke-width: 0.8; stroke-linecap: square"/>
     </g>
     <g id="line2d_8">
      <g>
       <use xlink:href="#m8211a4b782" x="199.55" y="383.56" style="stroke: #000000; stroke-width: 0.8"/>
      </g>
     </g>
     <g id="text_3">
      <!-- 0.0 -->
      <g transform="translate(191.598437 398.158437) scale(0.1 -0.1)">
       <use xlink:href="#DejaVuSans-30"/>
       <use xlink:href="#DejaVuSans-2e" x="63.623047"/>
       <use xlink:href="#DejaVuSans-30" x="95.410156"/>
      </g>
     </g>
    </g>
    <g id="xtick_4">
     <g id="line2d_9">
      <path d="M 243.775 383.56 
L 243.775 29.76 
" clip-path="url(#pae18992186)" style="fill: none; stroke: #b0b0b0; stroke-opacity: 0.3; stroke-width: 0.8; stroke-linecap: square"/>
     </g>
     <g id="line2d_10">
      <g>
       <use xlink:href="#m8211a4b782" x="243.775" y="383.56" style="stroke: #000000; stroke-width: 0.8"/>
      </g>
     </g>
     <g id="text_4">
      <!-- 0.5 -->
      <g transform="translate(235.823437 398.158437) scale(0.1 -0.1)">
       <use xlink:href="#DejaVuSans-30"/>
       <use xlink:href="#DejaVuSans-2e" x="63.623047"/>
       <use xlink:href="#DejaVuSans-35" x="95.410156"/>
      </g>
     </g>
    </g>
    <g id="xtick_5">
     <g id="line2d_11">
      <path d="M 288 383.56 
L 288 29.76 
" clip-path="url(#pae18992186)" style="fill: none; stroke: #b0b0b0; stroke-opacity: 0.3; stroke-width: 0.8; stroke-linecap: square"/>
     </g>
     <g id="line2d_12">
      <g>
       <use xlink:href="#m8211a4b782" x="288" y="383.56" style="stroke: #000000; stroke-width: 0.8"/>
      </g>
     </g>
     <g id="text_5">
      <!-- 1.0 -->
      <g transform="translate(280.048437 398.158437) scale(0.1 -0.1)">
       <use xlink:href="#DejaVuSans-31"/>
       <use xlink:href="#DejaVuSans-2e" x="63.623047"/>
       <use xlink:href="#DejaVuSans-30" x="95.410156"/>
      </g>
     </g>
    </g>
    <g id="xtick_6">
     <g id="line2d_13">
      <path d="M 332.225 383.56 
L 332.225 29.76 
" clip-path="url(#pae18992186)" style="fill: none; stroke: #b0b0b0; stroke-opacity: 0.3; stroke-width: 0.8; stroke-linecap: square"/>
     </g>
     <g id="line2d_14">
      <g>
       <use xlink:href="#m8211a4b782" x="332.225" y="383.56" style="stroke: #000000; stroke-width: 0.8"/>
      </g>
     </g>
     <g id="text_6">
      <!-- 1.5 -->
      <g transform="translate(324.273437 398.158437) scale(0.1 -0.1)">
       <use xlink:href="#DejaVuSans-31"/>
       <use xlink:href="#DejaVuSans-2e" x="63.623047"/>
       <use xlink:href="#DejaVuSans-35" x="95.410156"/>
      </g>
     </g>
    </g>
    <g id="xtick_7">
     <g id="line2d_15">
      <path d="M 376.45 383.56 
L 376.45 29.76 
" clip-path="url(#pae18992186)" style="fill: none; stroke: #b0b0b0; stroke-opacity: 0.3; stroke-width: 0.8; stroke-linecap: square"/>
     </g>
     <g id="line2d_16">
      <g>
       <use xlink:href="#m8211a4b782" x="376.45" y="383.56" style="stroke: #000000; stroke-width: 0.8"/>
      </g>
     </g>
     <g id="text_7">
      <!-- 2.0 -->
      <g transform="translate(368.498437 398.158437) scale(0.1 -0.1)">
       <defs>
        <path id="DejaVuSans-32" d="M 1228 531 
L 3431 531 
L 3431 0 
L 469 0 
L 469 531 
Q 828 903 1448 1529 
Q 2069 2156 2228 2338 
Q 2531 2678 2651 2914 
Q 2772 3150 2772 3378 
Q 2772 3750 2511 3984 
Q 2250 4219 1831 4219 
Q 1534 4219 1204 4116 
Q 875 4013 500 3803 
L 500 4441 
Q 881 4594 1212 4672 
Q 1544 4750 1819 4750 
Q 2544 4750 2975 4387 
Q 3406 4025 3406 3419 
Q 3406 3131 3298 2873 
Q 3191 2616 2906 2266 
Q 2828 2175 2409 1742 
Q 1991 1309 1228 531 
z
" transform="scale(0.015625)"/>
       </defs>
       <use xlink:href="#DejaVuSans-32"/>
       <use xlink:href="#DejaVuSans-2e" x="63.623047"/>
       <use xlink:href="#DejaVuSans-30" x="95.410156"/>
      </g>
     </g>
    </g>
    <g id="xtick_8">
     <g id="line2d_17">
      <path d="M 420.675 383.56 
L 420.675 29.76 
" clip-path="url(#pae18992186)" style="fill: none; stroke: #b0b0b0; stroke-opacity: 0.3; stroke-width: 0.8; stroke-linecap: square"/>
     </g>
     <g id="line2d_18">
      <g>
       <use xlink:href="#m8211a4b782" x="420.675" y="383.56" style="stroke: #000000; stroke-width: 0.8"/>
      </g>
     </g>
     <g id="text_8">
      <!-- 2.5 -->
      <g transform="translate(412.723437 398.158437) scale(0.1 -0.1)">
       <use xlink:href="#DejaVuSans-32"/>
       <use xlink:href="#DejaVuSans-2e" x="63.623047"/>
       <use xlink:href="#DejaVuSans-35" x="95.410156"/>
      </g>
     </g>
    </g>
    <g id="xtick_9">
     <g id="line2d_19">
      <path d="M 464.9 383.56 
L 464.9 29.76 
" clip-path="url(#pae18992186)" style="fill: none; stroke: #b0b0b0; stroke-opacity: 0.3; stroke-width: 0.8; stroke-linecap: square"/>
     </g>
     <g id="line2d_20">
      <g>
       <use xlink:href="#m8211a4b782" x="464.9" y="383.56" style="stroke: #000000; stroke-width: 0.8"/>
      </g>
     </g>
     <g id="text_9">
      <!-- 3.0 -->
      <g transform="translate(456.948437 398.158437) scale(0.1 -0.1)">
       <defs>
        <path id="DejaVuSans-33" d="M 2597 2516 
Q 3050 2419 3304 2112 
Q 3559 1806 3559 1356 
Q 3559 666 3084 287 
Q 2609 -91 1734 -91 
Q 1441 -91 1130 -33 
Q 819 25 488 141 
L 488 750 
Q 750 597 1062 519 
Q 1375 441 1716 441 
Q 2309 441 2620 675 
Q 2931 909 2931 1356 
Q 2931 1769 2642 2001 
Q 2353 2234 1838 2234 
L 1294 2234 
L 1294 2753 
L 1863 2753 
Q 2328 2753 2575 2939 
Q 2822 3125 2822 3475 
Q 2822 3834 2567 4026 
Q 2313 4219 1838 4219 
Q 1578 4219 1281 4162 
Q 984 4106 628 3988 
L 628 4550 
Q 988 4650 1302 4700 
Q 1616 4750 1894 4750 
Q 2613 4750 3031 4423 
Q 3450 4097 3450 3541 
Q 3450 3153 3228 2886 
Q 3006 2619 2597 2516 
z
" transform="scale(0.015625)"/>
       </defs>
       <use xlink:href="#DejaVuSans-33"/>
       <use xlink:href="#DejaVuSans-2e" x="63.623047"/>
       <use xlink:href="#DejaVuSans-30" x="95.410156"/>
      </g>
     </g>
    </g>
    <g id="text_10">
     <!-- $\beta_1$ -->
     <g transform="translate(280.16 415.018125) scale(0.14 -0.14)">
      <defs>
       <path id="DejaVuSans-Oblique-3b2" d="M 872 216 
L 572 -1331 
L -6 -1331 
L 928 3478 
Q 1206 4903 2538 4903 
Q 3888 4903 3659 3700 
Q 3503 2844 2894 2531 
Q 3713 2250 3553 1416 
Q 3272 -69 1759 -66 
Q 1097 -63 872 216 
z
M 1019 966 
Q 1259 422 1875 425 
Q 2775 425 2966 1406 
Q 3138 2288 1675 2219 
L 1778 2750 
Q 2909 2731 3106 3750 
Q 3241 4438 2509 4434 
Q 1691 4434 1503 3459 
L 1019 966 
z
" transform="scale(0.015625)"/>
      </defs>
      <use xlink:href="#DejaVuSans-Oblique-3b2" transform="translate(0 0.390625)"/>
      <use xlink:href="#DejaVuSans-31" transform="translate(63.818359 -16.015625) scale(0.7)"/>
     </g>
    </g>
   </g>
   <g id="matplotlib.axis_2">
    <g id="ytick_1">
     <g id="line2d_21">
      <path d="M 111.1 383.56 
L 464.9 383.56 
" clip-path="url(#pae18992186)" style="fill: none; stroke: #b0b0b0; stroke-opacity: 0.3; stroke-width: 0.8; stroke-linecap: square"/>
     </g>
     <g id="line2d_22">
      <defs>
       <path id="m35a48d1f7e" d="M 0 0 
L -3.5 0 
" style="stroke: #000000; stroke-width: 0.8"/>
      </defs>
      <g>
       <use xlink:href="#m35a48d1f7e" x="111.1" y="383.56" style="stroke: #000000; stroke-width: 0.8"/>
      </g>
     </g>
     <g id="text_11">
      <!-- −1.0 -->
      <g transform="translate(79.817187 387.359219) scale(0.1 -0.1)">
       <use xlink:href="#DejaVuSans-2212"/>
       <use xlink:href="#DejaVuSans-31" x="83.789062"/>
       <use xlink:href="#DejaVuSans-2e" x="147.412109"/>
       <use xlink:href="#DejaVuSans-30" x="179.199219"/>
      </g>
     </g>
    </g>
    <g id="ytick_2">
     <g id="line2d_23">
      <path d="M 111.1 339.335 
L 464.9 339.335 
" clip-path="url(#pae18992186)" style="fill: none; stroke: #b0b0b0; stroke-opacity: 0.3; stroke-width: 0.8; stroke-linecap: square"/>
     </g>
     <g id="line2d_24">
      <g>
       <use xlink:href="#m35a48d1f7e" x="111.1" y="339.335" style="stroke: #000000; stroke-width: 0.8"/>
      </g>
     </g>
     <g id="text_12">
      <!-- −0.5 -->
      <g transform="translate(79.817187 343.134219) scale(0.1 -0.1)">
       <use xlink:href="#DejaVuSans-2212"/>
       <use xlink:href="#DejaVuSans-30" x="83.789062"/>
       <use xlink:href="#DejaVuSans-2e" x="147.412109"/>
       <use xlink:href="#DejaVuSans-35" x="179.199219"/>
      </g>
     </g>
    </g>
    <g id="ytick_3">
     <g id="line2d_25">
      <path d="M 111.1 295.11 
L 464.9 295.11 
" clip-path="url(#pae18992186)" style="fill: none; stroke: #b0b0b0; stroke-opacity: 0.3; stroke-width: 0.8; stroke-linecap: square"/>
     </g>
     <g id="line2d_26">
      <g>
       <use xlink:href="#m35a48d1f7e" x="111.1" y="295.11" style="stroke: #000000; stroke-width: 0.8"/>
      </g>
     </g>
     <g id="text_13">
      <!-- 0.0 -->
      <g transform="translate(88.196875 298.909219) scale(0.1 -0.1)">
       <use xlink:href="#DejaVuSans-30"/>
       <use xlink:href="#DejaVuSans-2e" x="63.623047"/>
       <use xlink:href="#DejaVuSans-30" x="95.410156"/>
      </g>
     </g>
    </g>
    <g id="ytick_4">
     <g id="line2d_27">
      <path d="M 111.1 250.885 
L 464.9 250.885 
" clip-path="url(#pae18992186)" style="fill: none; stroke: #b0b0b0; stroke-opacity: 0.3; stroke-width: 0.8; stroke-linecap: square"/>
     </g>
     <g id="line2d_28">
      <g>
       <use xlink:href="#m35a48d1f7e" x="111.1" y="250.885" style="stroke: #000000; stroke-width: 0.8"/>
      </g>
     </g>
     <g id="text_14">
      <!-- 0.5 -->
      <g transform="translate(88.196875 254.684219) scale(0.1 -0.1)">
       <use xlink:href="#DejaVuSans-30"/>
       <use xlink:href="#DejaVuSans-2e" x="63.623047"/>
       <use xlink:href="#DejaVuSans-35" x="95.410156"/>
      </g>
     </g>
    </g>
    <g id="ytick_5">
     <g id="line2d_29">
      <path d="M 111.1 206.66 
L 464.9 206.66 
" clip-path="url(#pae18992186)" style="fill: none; stroke: #b0b0b0; stroke-opacity: 0.3; stroke-width: 0.8; stroke-linecap: square"/>
     </g>
     <g id="line2d_30">
      <g>
       <use xlink:href="#m35a48d1f7e" x="111.1" y="206.66" style="stroke: #000000; stroke-width: 0.8"/>
      </g>
     </g>
     <g id="text_15">
      <!-- 1.0 -->
      <g transform="translate(88.196875 210.459219) scale(0.1 -0.1)">
       <use xlink:href="#DejaVuSans-31"/>
       <use xlink:href="#DejaVuSans-2e" x="63.623047"/>
       <use xlink:href="#DejaVuSans-30" x="95.410156"/>
      </g>
     </g>
    </g>
    <g id="ytick_6">
     <g id="line2d_31">
      <path d="M 111.1 162.435 
L 464.9 162.435 
" clip-path="url(#pae18992186)" style="fill: none; stroke: #b0b0b0; stroke-opacity: 0.3; stroke-width: 0.8; stroke-linecap: square"/>
     </g>
     <g id="line2d_32">
      <g>
       <use xlink:href="#m35a48d1f7e" x="111.1" y="162.435" style="stroke: #000000; stroke-width: 0.8"/>
      </g>
     </g>
     <g id="text_16">
      <!-- 1.5 -->
      <g transform="translate(88.196875 166.234219) scale(0.1 -0.1)">
       <use xlink:href="#DejaVuSans-31"/>
       <use xlink:href="#DejaVuSans-2e" x="63.623047"/>
       <use xlink:href="#DejaVuSans-35" x="95.410156"/>
      </g>
     </g>
    </g>
    <g id="ytick_7">
     <g id="line2d_33">
      <path d="M 111.1 118.21 
L 464.9 118.21 
" clip-path="url(#pae18992186)" style="fill: none; stroke: #b0b0b0; stroke-opacity: 0.3; stroke-width: 0.8; stroke-linecap: square"/>
     </g>
     <g id="line2d_34">
      <g>
       <use xlink:href="#m35a48d1f7e" x="111.1" y="118.21" style="stroke: #000000; stroke-width: 0.8"/>
      </g>
     </g>
     <g id="text_17">
      <!-- 2.0 -->
      <g transform="translate(88.196875 122.009219) scale(0.1 -0.1)">
       <use xlink:href="#DejaVuSans-32"/>
       <use xlink:href="#DejaVuSans-2e" x="63.623047"/>
       <use xlink:href="#DejaVuSans-30" x="95.410156"/>
      </g>
     </g>
    </g>
    <g id="ytick_8">
     <g id="line2d_35">
      <path d="M 111.1 73.985 
L 464.9 73.985 
" clip-path="url(#pae18992186)" style="fill: none; stroke: #b0b0b0; stroke-opacity: 0.3; stroke-width: 0.8; stroke-linecap: square"/>
     </g>
     <g id="line2d_36">
      <g>
       <use xlink:href="#m35a48d1f7e" x="111.1" y="73.985" style="stroke: #000000; stroke-width: 0.8"/>
      </g>
     </g>
     <g id="text_18">
      <!-- 2.5 -->
      <g transform="translate(88.196875 77.784219) scale(0.1 -0.1)">
       <use xlink:href="#DejaVuSans-32"/>
       <use xlink:href="#DejaVuSans-2e" x="63.623047"/>
       <use xlink:href="#DejaVuSans-35" x="95.410156"/>
      </g>
     </g>
    </g>
    <g id="ytick_9">
     <g id="line2d_37">
      <path d="M 111.1 29.76 
L 464.9 29.76 
" clip-path="url(#pae18992186)" style="fill: none; stroke: #b0b0b0; stroke-opacity: 0.3; stroke-width: 0.8; stroke-linecap: square"/>
     </g>
     <g id="line2d_38">
      <g>
       <use xlink:href="#m35a48d1f7e" x="111.1" y="29.76" style="stroke: #000000; stroke-width: 0.8"/>
      </g>
     </g>
     <g id="text_19">
      <!-- 3.0 -->
      <g transform="translate(88.196875 33.559219) scale(0.1 -0.1)">
       <use xlink:href="#DejaVuSans-33"/>
       <use xlink:href="#DejaVuSans-2e" x="63.623047"/>
       <use xlink:href="#DejaVuSans-30" x="95.410156"/>
      </g>
     </g>
    </g>
    <g id="text_20">
     <!-- $\beta_2$ -->
     <g transform="translate(72.877187 214.5) rotate(-90) scale(0.14 -0.14)">
      <use xlink:href="#DejaVuSans-Oblique-3b2" transform="translate(0 0.390625)"/>
      <use xlink:href="#DejaVuSans-32" transform="translate(63.818359 -16.015625) scale(0.7)"/>
     </g>
    </g>
   </g>
   <g id="QuadContourSet_1">
    <path d="M 360.748255 244.995646 
L 358.226633 246.787385 
L 354.670854 249.10812 
L 351.115075 251.224228 
L 347.559296 253.144298 
L 344.003518 254.876444 
L 340.447739 256.428342 
L 336.89196 257.807251 
L 333.040414 259.107739 
L 328.002513 260.501585 
L 324.446734 261.2793 
L 320.890955 261.880305 
L 317.335176 262.306916 
L 313.779397 262.547877 
L 310.223618 262.590942 
L 306.667839 262.422763 
L 303.11206 262.028765 
L 299.556281 261.393 
L 296.000503 260.481754 
L 292.07577 259.107739 
L 288.888945 257.653546 
L 287.111055 256.684411 
L 285.261233 255.55196 
L 282.80279 253.77407 
L 280.717432 251.996181 
L 278.930766 250.218291 
L 277.386947 248.440402 
L 276.043234 246.662513 
L 274.665829 244.531974 
L 272.984781 241.328844 
L 272.238363 239.550955 
L 271.055932 235.995176 
L 270.274058 232.439397 
L 269.825509 228.883618 
L 269.686044 225.327839 
L 269.833715 221.77206 
L 270.248607 218.216281 
L 270.912601 214.660503 
L 271.83041 211.104724 
L 272.979819 207.548945 
L 274.665829 203.32928 
L 276.443719 199.575968 
L 278.221608 196.290614 
L 280.003103 193.325829 
L 282.394269 189.77005 
L 285.333166 185.861721 
L 288.011239 182.658492 
L 291.29056 179.102714 
L 294.933478 175.546935 
L 298.992059 171.991156 
L 301.334171 170.105688 
L 306.047142 166.657487 
L 310.223618 163.936613 
L 314.719953 161.323819 
L 319.113065 159.070542 
L 322.668844 157.449921 
L 326.259674 155.990151 
L 331.558291 154.163635 
L 336.89196 152.710612 
L 340.447739 151.9564 
L 344.003518 151.37661 
L 347.559296 150.97257 
L 351.115075 150.755655 
L 354.670854 150.738241 
L 358.226633 150.933824 
L 361.782412 151.35714 
L 365.338191 152.024323 
L 368.89397 152.974843 
L 372.449749 154.238387 
L 376.188103 155.990151 
L 379.561307 158.020653 
L 381.65214 159.54593 
L 383.733223 161.323819 
L 385.51974 163.101709 
L 387.066151 164.879598 
L 388.450754 166.712747 
L 390.228643 169.565362 
L 391.4597 171.991156 
L 392.215882 173.769045 
L 393.389555 177.324824 
L 394.17826 180.880603 
L 394.623067 184.436382 
L 394.761449 187.992161 
L 394.614992 191.54794 
L 394.203303 195.103719 
L 393.536826 198.659497 
L 392.619995 202.215276 
L 391.465818 205.771055 
L 390.076424 209.326834 
L 388.446375 212.882613 
L 386.570064 216.438392 
L 384.441707 219.994171 
L 382.055338 223.54995 
L 379.399661 227.105729 
L 376.005528 231.152882 
L 373.976891 233.360123 
L 373.976891 233.360123 
" clip-path="url(#pae18992186)" style="fill: none; stroke: #0000ff; stroke-opacity: 0.6; stroke-width: 1.5"/>
    <path d="M 287.111055 284.29671 
L 283.555276 283.487615 
L 279.218631 282.220302 
L 276.443719 281.227203 
L 272.88794 279.724353 
L 269.332161 277.924763 
L 265.776382 275.777172 
L 263.998492 274.551444 
L 262.220603 273.213306 
L 260.232458 271.552965 
L 258.32172 269.775075 
L 256.601345 267.997186 
L 255.046256 266.219296 
L 252.376023 262.663518 
L 251.221102 260.885628 
L 249.236656 257.329849 
L 247.622743 253.77407 
L 246.219598 249.847664 
L 245.340425 246.662513 
L 244.602383 243.106734 
L 244.110603 239.550955 
L 243.842863 235.995176 
L 243.784205 232.439397 
L 243.924218 228.883618 
L 244.253171 225.327839 
L 244.768967 221.77206 
L 245.463591 218.216281 
L 246.326792 214.660503 
L 247.367902 211.104724 
L 248.574781 207.548945 
L 249.947797 203.993166 
L 251.553266 200.303919 
L 254.130861 195.103719 
L 256.886935 190.220638 
L 259.401446 186.214271 
L 262.220603 182.114557 
L 265.840392 177.324824 
L 269.332161 173.130555 
L 272.88794 169.198003 
L 276.443719 165.561288 
L 279.999497 162.183664 
L 283.555276 159.034226 
L 285.583779 157.332735 
M 299.508114 147.233585 
L 303.11206 145.020592 
L 308.905078 141.767035 
L 313.779397 139.308167 
L 319.113065 136.891846 
L 324.446734 134.754041 
L 329.828103 132.877588 
L 335.88883 131.099698 
L 340.447739 129.991642 
L 345.781407 128.947917 
L 351.115075 128.188221 
L 356.448744 127.714985 
L 361.782412 127.548035 
L 365.338191 127.617526 
L 368.89397 127.839681 
L 372.449749 128.221886 
L 376.005528 128.772008 
L 379.561307 129.503486 
L 383.117085 130.441773 
L 386.672864 131.596305 
L 390.228643 132.994518 
L 393.784422 134.675909 
L 397.340201 136.689003 
L 400.89598 139.09408 
L 402.673869 140.467225 
L 404.451759 141.975366 
L 406.229648 143.641889 
L 408.007538 145.495915 
L 410.802038 148.878593 
L 412.075148 150.656482 
L 414.269587 154.212261 
L 416.062203 157.76804 
L 417.507702 161.323819 
L 418.674874 164.970011 
L 419.508192 168.435377 
L 420.121751 171.991156 
L 420.503636 175.546935 
L 420.664515 179.102714 
L 420.62277 182.658492 
L 420.386914 186.214271 
L 419.959988 189.77005 
L 419.354944 193.325829 
L 418.578245 196.881608 
L 417.622012 200.437387 
L 416.500704 203.993166 
L 415.119095 207.782895 
L 412.95642 212.882613 
L 411.242608 216.438392 
L 409.355332 219.994171 
L 407.291746 223.54995 
L 404.451759 228.003195 
L 401.332208 232.439397 
L 398.606129 235.995176 
L 395.562312 239.679543 
L 392.006533 243.648447 
L 388.450754 247.319063 
L 384.894975 250.728361 
L 381.339196 253.907444 
L 377.210781 257.329849 
L 372.449749 260.967833 
L 367.11608 264.675587 
L 361.782412 268.037076 
L 356.448744 271.068314 
L 351.115075 273.798542 
L 345.781407 276.236826 
L 340.447739 278.396993 
L 335.11407 280.281055 
L 329.780402 281.891002 
L 324.446734 283.228807 
L 319.113065 284.296425 
L 313.779397 285.079152 
L 308.445729 285.576992 
L 303.11206 285.770267 
L 299.556281 285.719363 
L 296.000503 285.516685 
L 292.444724 285.154907 
L 288.888945 284.626222 
L 287.111055 284.29671 
L 287.111055 284.29671 
" clip-path="url(#pae18992186)" style="fill: none; stroke: #0000ff; stroke-opacity: 0.6; stroke-width: 1.5"/>
    <path d="M 315.937724 121.31039 
L 320.890955 119.285808 
L 326.224623 117.324143 
L 331.558291 115.585814 
L 336.89196 114.069513 
L 342.225628 112.773941 
L 348.469417 111.542915 
L 352.892965 110.861121 
L 358.226633 110.252091 
L 363.560302 109.88334 
L 368.89397 109.768436 
L 374.227638 109.921988 
L 379.561307 110.35975 
L 384.894975 111.098732 
L 388.450754 111.77292 
L 392.006533 112.608891 
L 395.562312 113.609859 
L 399.932704 115.098693 
L 402.673869 116.189824 
L 406.229648 117.805124 
L 409.785427 119.67327 
L 413.341206 121.829632 
L 416.444711 123.988141 
L 418.731766 125.76603 
L 422.230653 128.868534 
L 424.438938 131.099698 
L 427.51355 134.655477 
L 429.342211 137.094142 
L 431.277061 139.989146 
L 433.321325 143.544925 
L 435.052469 147.100704 
L 436.50524 150.656482 
L 437.698559 154.212261 
L 438.664231 157.76804 
L 439.414901 161.323819 
L 440.009548 165.213645 
L 440.332909 168.435377 
L 440.519407 171.991156 
L 440.537855 175.546935 
L 440.39509 179.102714 
L 440.009548 183.419611 
L 439.36319 187.992161 
L 438.307108 193.325829 
L 436.927097 198.659497 
L 435.236495 203.993166 
L 433.237321 209.326834 
L 430.92826 214.660503 
L 428.303318 219.994171 
L 425.363099 225.327839 
L 422.096085 230.661508 
L 418.486479 235.995176 
L 414.517453 241.328844 
L 411.563317 245.008129 
L 407.045865 250.218291 
L 402.673869 254.860842 
L 398.36212 259.107739 
L 393.784422 263.296167 
L 388.450754 267.812019 
L 383.669699 271.552965 
L 378.781708 275.108744 
L 373.505217 278.664523 
L 367.767508 282.220302 
L 363.560302 284.632452 
L 358.059767 287.55397 
L 352.892965 290.058009 
L 347.559296 292.416549 
L 341.912108 294.665528 
L 336.89196 296.45443 
L 331.266993 298.221307 
L 326.224623 299.59631 
L 320.890955 300.83427 
L 315.557286 301.852049 
L 310.223618 302.632957 
L 304.88995 303.183136 
L 299.556281 303.489736 
L 294.222613 303.538939 
L 288.888945 303.315858 
L 283.555276 302.804438 
L 278.221608 301.987334 
L 274.665829 301.251708 
L 269.852244 299.999196 
L 267.554271 299.285045 
L 263.998492 298.02695 
L 260.192413 296.443417 
L 256.534256 294.665528 
L 253.331156 292.879734 
L 249.775377 290.595701 
L 246.219598 287.955327 
L 243.64847 285.77608 
L 240.88593 283.130322 
L 238.413664 280.442412 
L 235.578814 276.886633 
L 233.774372 274.266727 
L 231.996482 271.356969 
L 230.218593 267.988796 
L 228.440704 263.943878 
L 227.320058 260.885628 
L 226.240558 257.329849 
L 225.384657 253.77407 
L 224.73247 250.218291 
L 224.277993 246.662513 
L 224.003468 243.106734 
L 223.901388 239.550955 
L 223.964657 235.995176 
L 224.186566 232.439397 
L 224.803072 227.105729 
L 225.40356 223.54995 
L 226.567215 218.216281 
L 228.05141 212.882613 
L 229.845071 207.548945 
L 231.996482 202.098466 
L 234.362938 196.881608 
L 237.089336 191.54794 
L 239.10804 187.951676 
L 242.663819 182.183934 
L 246.219598 176.96751 
L 249.930152 171.991156 
L 254.280286 166.657487 
L 258.664824 161.724386 
L 262.453478 157.76804 
L 267.554271 152.835979 
L 271.976884 148.878593 
L 276.443719 145.148346 
L 281.777387 141.02157 
L 287.111055 137.211623 
L 292.444724 133.69659 
L 297.778392 130.456534 
L 301.065671 128.591494 
L 301.065671 128.591494 
" clip-path="url(#pae18992186)" style="fill: none; stroke: #0000ff; stroke-opacity: 0.6; stroke-width: 1.5"/>
    <path d="M 363.334414 299.411437 
L 358.226633 301.956188 
L 352.892965 304.407461 
L 346.438686 307.110754 
L 340.447739 309.362604 
L 335.11407 311.162485 
L 329.780402 312.771338 
L 324.31191 314.222312 
L 319.113065 315.409921 
L 313.779397 316.438937 
L 308.445729 317.268964 
L 303.11206 317.898816 
L 297.778392 318.315751 
L 292.444724 318.518601 
L 287.111055 318.49693 
L 281.777387 318.239612 
L 276.443719 317.73395 
L 271.11005 316.954091 
L 265.776382 315.892425 
L 260.442714 314.510315 
L 256.886935 313.395896 
L 253.331156 312.117811 
L 249.775377 310.658241 
L 246.009516 308.888643 
L 242.663819 307.109422 
L 239.10804 304.968886 
L 235.552261 302.542816 
L 231.996482 299.787363 
L 228.246256 296.443417 
L 224.803221 292.887638 
L 221.827036 289.331859 
L 219.237153 285.77608 
L 216.98799 282.220302 
L 215.034436 278.664523 
L 213.346894 275.108744 
L 211.89959 271.552965 
L 210.661809 267.970081 
L 209.651553 264.441407 
L 208.81568 260.885628 
L 208.164151 257.329849 
L 207.67724 253.77407 
L 207.348842 250.218291 
L 207.173153 246.662513 
L 207.183935 241.328844 
L 207.508389 235.995176 
L 208.130181 230.661508 
L 209.036405 225.327839 
L 210.225936 219.994171 
L 211.688607 214.660503 
L 213.420575 209.326834 
L 215.420318 203.993166 
L 217.773367 198.468866 
L 220.227248 193.325829 
L 223.107035 187.866318 
L 226.130838 182.658492 
L 229.510668 177.324824 
L 233.188095 171.991156 
L 237.330151 166.460074 
L 241.496539 161.323819 
L 246.219598 155.928581 
L 251.553266 150.31272 
L 256.886935 145.124135 
L 262.596568 139.989146 
L 267.554271 135.84428 
L 272.88794 131.677993 
L 278.574471 127.54392 
L 283.829514 123.988141 
L 289.477689 120.432362 
L 295.58565 116.876583 
L 301.334171 113.794487 
L 306.667839 111.152827 
L 312.001508 108.717029 
L 318.011395 106.209246 
L 324.446734 103.800553 
L 329.780402 102.016618 
L 335.11407 100.423898 
L 340.447739 99.021432 
L 345.781407 97.816582 
L 351.115075 96.804551 
L 356.448744 95.99068 
L 361.782412 95.378505 
L 367.11608 94.979028 
L 372.449749 94.79448 
L 377.783417 94.835354 
L 383.117085 95.112835 
L 388.450754 95.640707 
L 393.784422 96.44332 
L 399.11809 97.531004 
L 404.451759 98.938999 
L 408.007538 100.074633 
L 411.563317 101.375692 
L 415.119095 102.860215 
L 418.674874 104.548966 
L 422.230653 106.465965 
L 425.786432 108.639151 
L 429.342211 111.101219 
L 432.193963 113.320804 
L 434.675879 115.456282 
L 438.231658 118.909084 
L 441.18554 122.210251 
L 443.565327 125.227396 
L 445.343216 127.736115 
L 447.463666 131.099698 
L 449.416301 134.655477 
L 451.104247 138.211256 
L 452.553032 141.767035 
L 453.77689 145.322814 
L 454.79889 148.878593 
L 455.632318 152.434372 
L 456.287495 155.990151 
L 456.772364 159.54593 
L 457.099419 163.101709 
L 457.306617 168.435377 
L 457.189899 173.769045 
L 456.766264 179.102714 
L 456.010553 184.67781 
L 455.045997 189.77005 
L 453.766855 195.103719 
L 452.215675 200.437387 
L 450.394002 205.771055 
L 448.303373 211.104724 
L 445.94531 216.438392 
L 443.317592 221.77206 
L 440.009548 227.804038 
L 437.224625 232.439397 
L 433.747046 237.773065 
L 429.967369 243.106734 
L 425.786432 248.547952 
L 421.436778 253.77407 
L 416.646128 259.107739 
L 411.465419 264.441407 
L 405.854347 269.775075 
L 400.89598 274.151251 
L 395.415194 278.664523 
L 390.228643 282.63943 
L 384.894975 286.456367 
L 379.561307 290.017129 
L 377.898447 291.080089 
L 377.898447 291.080089 
" clip-path="url(#pae18992186)" style="fill: none; stroke: #0000ff; stroke-opacity: 0.6; stroke-width: 1.5"/>
    <path d="M 464.9 204.119351 
L 462.944336 209.326834 
L 460.702705 214.660503 
L 457.788442 220.87317 
L 455.497047 225.327839 
L 452.454774 230.783644 
L 448.898995 236.62482 
L 445.343216 242.012503 
L 441.787437 247.025396 
L 438.015059 251.996181 
L 433.677737 257.329849 
L 429.02979 262.663518 
L 424.008543 268.036555 
L 418.674874 273.354705 
L 414.632436 277.144098 
M 401.229113 288.451842 
L 397.340201 291.412068 
L 392.006533 295.254497 
L 386.672864 298.865791 
L 381.339196 302.258196 
L 376.005528 305.443106 
L 368.89397 309.374901 
L 362.86326 312.444422 
L 356.448744 315.449946 
L 351.056671 317.77809 
L 344.003518 320.545602 
L 338.669849 322.439355 
L 333.336181 324.160844 
L 328.002513 325.710849 
L 322.668844 327.090146 
L 315.557286 328.66013 
L 308.445729 329.917063 
L 303.11206 330.650952 
L 297.778392 331.201221 
L 292.444724 331.564876 
L 287.111055 331.733841 
L 281.777387 331.699568 
L 276.443719 331.452997 
L 271.11005 330.984528 
L 265.39908 330.223317 
L 260.442714 329.324972 
L 255.109045 328.099241 
L 249.775377 326.578136 
L 244.441709 324.728764 
L 240.458303 323.111759 
L 236.600807 321.333869 
L 233.162302 319.55598 
L 230.0561 317.77809 
L 226.662814 315.621692 
L 223.107035 313.097671 
L 219.551256 310.263779 
L 215.995477 307.063993 
L 212.439698 303.413847 
L 209.516777 299.999196 
L 206.822853 296.443417 
L 204.448801 292.887638 
L 202.352913 289.331859 
L 200.509653 285.77608 
L 198.896518 282.220302 
L 197.4936 278.664523 
L 196.283223 275.108744 
L 195.258957 271.552965 
L 194.401805 267.997186 
L 193.418452 262.663518 
L 192.767442 257.329849 
L 192.433858 251.996181 
L 192.394887 246.662513 
L 192.636635 241.328844 
L 193.149738 235.995176 
L 193.925064 230.661508 
L 194.951239 225.327839 
L 196.438693 219.203076 
L 197.746484 214.660503 
L 199.506847 209.326834 
L 201.772362 203.332878 
L 203.745699 198.659497 
L 206.228607 193.325829 
L 208.9509 187.992161 
L 212.439698 181.78193 
L 215.152623 177.324824 
L 218.639898 171.991156 
L 222.397287 166.657487 
L 226.662814 161.034975 
L 230.771845 155.990151 
L 235.552261 150.509542 
L 240.88593 144.828885 
L 246.219598 139.541632 
L 251.553266 134.602398 
L 257.67971 129.321809 
L 262.220603 125.64708 
L 267.554271 121.579733 
L 272.88794 117.756293 
L 278.221608 114.163588 
L 283.555276 110.789379 
L 288.888945 107.622278 
L 294.640615 104.431357 
L 301.584098 100.875578 
L 308.445729 97.670715 
L 313.779397 95.3831 
L 320.890955 92.609745 
L 327.794514 90.208241 
L 333.540991 88.430352 
L 340.447739 86.556566 
L 347.559296 84.929463 
L 352.892965 83.915769 
L 358.226633 83.073164 
L 363.560302 82.41759 
L 368.89397 81.944124 
L 374.227638 81.660582 
L 379.561307 81.575232 
L 384.894975 81.696832 
L 390.228643 82.03466 
L 395.562312 82.598561 
L 400.89598 83.404248 
L 406.229648 84.470925 
L 411.563317 85.819293 
L 416.896985 87.473977 
L 420.452764 88.762347 
L 424.008543 90.212982 
L 427.852382 91.986131 
L 431.29156 93.76402 
L 434.675879 95.712672 
L 438.231658 97.999491 
L 442.202909 100.875578 
L 445.343216 103.436791 
L 448.898995 106.690018 
L 451.879065 109.765025 
L 454.232663 112.466185 
L 456.322961 115.098693 
L 458.850439 118.654472 
L 461.344221 122.658525 
L 463.122111 125.904306 
L 464.9 129.598425 
L 464.9 129.598425 
" clip-path="url(#pae18992186)" style="fill: none; stroke: #0000ff; stroke-opacity: 0.6; stroke-width: 1.5"/>
    <path d="M 464.9 231.395826 
L 461.344221 237.396245 
L 458.851041 241.328844 
L 455.259615 246.662513 
L 451.418152 251.996181 
L 447.121106 257.576634 
L 442.94176 262.663518 
L 438.231658 268.052369 
L 432.89799 273.758584 
L 427.564322 279.101044 
L 422.230653 284.118466 
L 416.318407 289.331859 
L 411.563317 293.285651 
L 407.361709 296.612465 
M 393.406681 306.649277 
L 387.183471 310.666533 
L 381.302013 314.222312 
L 374.227638 318.198964 
L 367.11608 321.886054 
L 360.004523 325.272607 
L 352.7038 328.445427 
L 345.781407 331.172157 
L 338.669849 333.700274 
L 332.853389 335.556985 
L 326.224623 337.448851 
L 319.113065 339.207818 
L 312.001508 340.684622 
L 306.667839 341.60377 
L 299.556281 342.57942 
L 294.222613 343.112252 
L 288.888945 343.473879 
L 283.555276 343.658877 
L 278.221608 343.660221 
L 272.88794 343.470509 
L 267.554271 343.081935 
L 262.220603 342.483422 
L 256.886935 341.659091 
L 251.553266 340.601153 
L 245.588945 339.112764 
L 240.88593 337.695355 
L 237.330151 336.46692 
L 233.774372 335.096894 
L 230.218593 333.572643 
L 226.662814 331.87998 
L 223.107035 330.002926 
L 219.551256 327.923413 
L 214.937345 324.889648 
L 212.439698 323.071232 
L 208.099715 319.55598 
L 205.328141 317.048386 
L 201.772362 313.474255 
L 199.262261 310.666533 
L 196.394134 307.110754 
L 193.842798 303.554975 
L 191.105025 299.230742 
L 189.327136 296.061677 
L 187.549246 292.515784 
L 185.771357 288.470919 
L 184.721527 285.77608 
L 183.493252 282.220302 
L 182.215578 277.855507 
L 181.136634 273.330854 
L 180.166768 267.997186 
L 179.505862 262.663518 
L 179.130753 257.329849 
L 179.0288 251.996181 
L 179.188099 246.662513 
L 179.597425 241.328844 
L 180.246191 235.995176 
L 181.132999 230.661508 
L 182.245004 225.327839 
L 183.586237 219.994171 
L 185.148163 214.660503 
L 186.929402 209.326834 
L 188.928944 203.993166 
L 191.146291 198.659497 
L 193.587555 193.325829 
L 196.438693 187.626278 
L 199.134258 182.658492 
L 202.248694 177.324824 
L 205.597693 171.991156 
L 209.18922 166.657487 
L 213.031604 161.323819 
L 217.773367 155.189606 
L 221.506586 150.656482 
L 226.662814 144.779842 
L 231.996482 139.103914 
L 237.330151 133.789989 
L 242.663819 128.799486 
L 248.129523 123.988141 
L 254.605699 118.654472 
L 260.442714 114.156774 
L 266.513942 109.765025 
L 272.88794 105.451687 
L 278.221608 102.061493 
L 283.555276 98.86126 
L 290.666834 94.8822 
L 297.778392 91.213988 
L 304.88995 87.846207 
L 312.001508 84.768898 
L 319.113065 81.981594 
L 326.224623 79.471102 
L 333.336181 77.244047 
L 340.447739 75.293642 
L 347.559296 73.622179 
L 354.670854 72.231977 
L 361.782412 71.132052 
L 367.11608 70.497599 
L 372.449749 70.036041 
L 377.783417 69.747178 
L 383.117085 69.637828 
L 388.450754 69.715169 
L 393.784422 69.986767 
L 399.11809 70.460606 
L 404.451759 71.152845 
L 409.785427 72.071393 
L 415.119095 73.236035 
L 420.452764 74.662019 
L 425.786432 76.375381 
L 431.120101 78.405737 
L 434.675879 79.950798 
L 438.231658 81.665789 
L 441.787437 83.566861 
L 445.343216 85.672272 
L 449.512977 88.430352 
L 452.454774 90.590299 
L 456.35205 93.76402 
L 460.211425 97.319799 
L 463.626807 100.875578 
L 464.9 102.316995 
L 464.9 102.316995 
" clip-path="url(#pae18992186)" style="fill: none; stroke: #0000ff; stroke-opacity: 0.6; stroke-width: 1.5"/>
   </g>
   <g id="line2d_39"/>
   <g id="line2d_40">
    <path d="M 199.55 295.11 
L 288.313602 236.914316 
" clip-path="url(#pae18992186)" style="fill: none; stroke-dasharray: 3.7,1.6; stroke-dashoffset: 0; stroke: #ff0000; stroke-opacity: 0.3"/>
   </g>
   <g id="patch_4">
    <path d="M 111.1 383.56 
L 111.1 29.76 
" style="fill: none; stroke: #000000; stroke-width: 0.8; stroke-linejoin: miter; stroke-linecap: square"/>
   </g>
   <g id="patch_5">
    <path d="M 464.9 383.56 
L 464.9 29.76 
" style="fill: none; stroke: #000000; stroke-width: 0.8; stroke-linejoin: miter; stroke-linecap: square"/>
   </g>
   <g id="patch_6">
    <path d="M 111.1 383.56 
L 464.9 383.56 
" style="fill: none; stroke: #000000; stroke-width: 0.8; stroke-linejoin: miter; stroke-linecap: square"/>
   </g>
   <g id="patch_7">
    <path d="M 111.1 29.76 
L 464.9 29.76 
" style="fill: none; stroke: #000000; stroke-width: 0.8; stroke-linejoin: miter; stroke-linecap: square"/>
   </g>
   <g id="text_21">
    <!-- Origin -->
    <g transform="translate(208.395 308.3775) scale(0.1 -0.1)">
     <defs>
      <path id="DejaVuSans-4f" d="M 2522 4238 
Q 1834 4238 1429 3725 
Q 1025 3213 1025 2328 
Q 1025 1447 1429 934 
Q 1834 422 2522 422 
Q 3209 422 3611 934 
Q 4013 1447 4013 2328 
Q 4013 3213 3611 3725 
Q 3209 4238 2522 4238 
z
M 2522 4750 
Q 3503 4750 4090 4092 
Q 4678 3434 4678 2328 
Q 4678 1225 4090 567 
Q 3503 -91 2522 -91 
Q 1538 -91 948 565 
Q 359 1222 359 2328 
Q 359 3434 948 4092 
Q 1538 4750 2522 4750 
z
" transform="scale(0.015625)"/>
      <path id="DejaVuSans-72" d="M 2631 2963 
Q 2534 3019 2420 3045 
Q 2306 3072 2169 3072 
Q 1681 3072 1420 2755 
Q 1159 2438 1159 1844 
L 1159 0 
L 581 0 
L 581 3500 
L 1159 3500 
L 1159 2956 
Q 1341 3275 1631 3429 
Q 1922 3584 2338 3584 
Q 2397 3584 2469 3576 
Q 2541 3569 2628 3553 
L 2631 2963 
z
" transform="scale(0.015625)"/>
      <path id="DejaVuSans-69" d="M 603 3500 
L 1178 3500 
L 1178 0 
L 603 0 
L 603 3500 
z
M 603 4863 
L 1178 4863 
L 1178 4134 
L 603 4134 
L 603 4863 
z
" transform="scale(0.015625)"/>
      <path id="DejaVuSans-67" d="M 2906 1791 
Q 2906 2416 2648 2759 
Q 2391 3103 1925 3103 
Q 1463 3103 1205 2759 
Q 947 2416 947 1791 
Q 947 1169 1205 825 
Q 1463 481 1925 481 
Q 2391 481 2648 825 
Q 2906 1169 2906 1791 
z
M 3481 434 
Q 3481 -459 3084 -895 
Q 2688 -1331 1869 -1331 
Q 1566 -1331 1297 -1286 
Q 1028 -1241 775 -1147 
L 775 -588 
Q 1028 -725 1275 -790 
Q 1522 -856 1778 -856 
Q 2344 -856 2625 -561 
Q 2906 -266 2906 331 
L 2906 616 
Q 2728 306 2450 153 
Q 2172 0 1784 0 
Q 1141 0 747 490 
Q 353 981 353 1791 
Q 353 2603 747 3093 
Q 1141 3584 1784 3584 
Q 2172 3584 2450 3431 
Q 2728 3278 2906 2969 
L 2906 3500 
L 3481 3500 
L 3481 434 
z
" transform="scale(0.015625)"/>
      <path id="DejaVuSans-6e" d="M 3513 2113 
L 3513 0 
L 2938 0 
L 2938 2094 
Q 2938 2591 2744 2837 
Q 2550 3084 2163 3084 
Q 1697 3084 1428 2787 
Q 1159 2491 1159 1978 
L 1159 0 
L 581 0 
L 581 3500 
L 1159 3500 
L 1159 2956 
Q 1366 3272 1645 3428 
Q 1925 3584 2291 3584 
Q 2894 3584 3203 3211 
Q 3513 2838 3513 2113 
z
" transform="scale(0.015625)"/>
     </defs>
     <use xlink:href="#DejaVuSans-4f"/>
     <use xlink:href="#DejaVuSans-72" x="78.710938"/>
     <use xlink:href="#DejaVuSans-69" x="119.824219"/>
     <use xlink:href="#DejaVuSans-67" x="147.607422"/>
     <use xlink:href="#DejaVuSans-69" x="211.083984"/>
     <use xlink:href="#DejaVuSans-6e" x="238.867188"/>
    </g>
   </g>
   <g id="text_22">
    <!-- Ridge Regression: MSE Contours and L2 Constraint -->
    <g transform="translate(84.21625 23.76) scale(0.16 -0.16)">
     <defs>
      <path id="DejaVuSans-52" d="M 2841 2188 
Q 3044 2119 3236 1894 
Q 3428 1669 3622 1275 
L 4263 0 
L 3584 0 
L 2988 1197 
Q 2756 1666 2539 1819 
Q 2322 1972 1947 1972 
L 1259 1972 
L 1259 0 
L 628 0 
L 628 4666 
L 2053 4666 
Q 2853 4666 3247 4331 
Q 3641 3997 3641 3322 
Q 3641 2881 3436 2590 
Q 3231 2300 2841 2188 
z
M 1259 4147 
L 1259 2491 
L 2053 2491 
Q 2509 2491 2742 2702 
Q 2975 2913 2975 3322 
Q 2975 3731 2742 3939 
Q 2509 4147 2053 4147 
L 1259 4147 
z
" transform="scale(0.015625)"/>
      <path id="DejaVuSans-64" d="M 2906 2969 
L 2906 4863 
L 3481 4863 
L 3481 0 
L 2906 0 
L 2906 525 
Q 2725 213 2448 61 
Q 2172 -91 1784 -91 
Q 1150 -91 751 415 
Q 353 922 353 1747 
Q 353 2572 751 3078 
Q 1150 3584 1784 3584 
Q 2172 3584 2448 3432 
Q 2725 3281 2906 2969 
z
M 947 1747 
Q 947 1113 1208 752 
Q 1469 391 1925 391 
Q 2381 391 2643 752 
Q 2906 1113 2906 1747 
Q 2906 2381 2643 2742 
Q 2381 3103 1925 3103 
Q 1469 3103 1208 2742 
Q 947 2381 947 1747 
z
" transform="scale(0.015625)"/>
      <path id="DejaVuSans-65" d="M 3597 1894 
L 3597 1613 
L 953 1613 
Q 991 1019 1311 708 
Q 1631 397 2203 397 
Q 2534 397 2845 478 
Q 3156 559 3463 722 
L 3463 178 
Q 3153 47 2828 -22 
Q 2503 -91 2169 -91 
Q 1331 -91 842 396 
Q 353 884 353 1716 
Q 353 2575 817 3079 
Q 1281 3584 2069 3584 
Q 2775 3584 3186 3129 
Q 3597 2675 3597 1894 
z
M 3022 2063 
Q 3016 2534 2758 2815 
Q 2500 3097 2075 3097 
Q 1594 3097 1305 2825 
Q 1016 2553 972 2059 
L 3022 2063 
z
" transform="scale(0.015625)"/>
      <path id="DejaVuSans-20" transform="scale(0.015625)"/>
      <path id="DejaVuSans-73" d="M 2834 3397 
L 2834 2853 
Q 2591 2978 2328 3040 
Q 2066 3103 1784 3103 
Q 1356 3103 1142 2972 
Q 928 2841 928 2578 
Q 928 2378 1081 2264 
Q 1234 2150 1697 2047 
L 1894 2003 
Q 2506 1872 2764 1633 
Q 3022 1394 3022 966 
Q 3022 478 2636 193 
Q 2250 -91 1575 -91 
Q 1294 -91 989 -36 
Q 684 19 347 128 
L 347 722 
Q 666 556 975 473 
Q 1284 391 1588 391 
Q 1994 391 2212 530 
Q 2431 669 2431 922 
Q 2431 1156 2273 1281 
Q 2116 1406 1581 1522 
L 1381 1569 
Q 847 1681 609 1914 
Q 372 2147 372 2553 
Q 372 3047 722 3315 
Q 1072 3584 1716 3584 
Q 2034 3584 2315 3537 
Q 2597 3491 2834 3397 
z
" transform="scale(0.015625)"/>
      <path id="DejaVuSans-6f" d="M 1959 3097 
Q 1497 3097 1228 2736 
Q 959 2375 959 1747 
Q 959 1119 1226 758 
Q 1494 397 1959 397 
Q 2419 397 2687 759 
Q 2956 1122 2956 1747 
Q 2956 2369 2687 2733 
Q 2419 3097 1959 3097 
z
M 1959 3584 
Q 2709 3584 3137 3096 
Q 3566 2609 3566 1747 
Q 3566 888 3137 398 
Q 2709 -91 1959 -91 
Q 1206 -91 779 398 
Q 353 888 353 1747 
Q 353 2609 779 3096 
Q 1206 3584 1959 3584 
z
" transform="scale(0.015625)"/>
      <path id="DejaVuSans-3a" d="M 750 794 
L 1409 794 
L 1409 0 
L 750 0 
L 750 794 
z
M 750 3309 
L 1409 3309 
L 1409 2516 
L 750 2516 
L 750 3309 
z
" transform="scale(0.015625)"/>
      <path id="DejaVuSans-4d" d="M 628 4666 
L 1569 4666 
L 2759 1491 
L 3956 4666 
L 4897 4666 
L 4897 0 
L 4281 0 
L 4281 4097 
L 3078 897 
L 2444 897 
L 1241 4097 
L 1241 0 
L 628 0 
L 628 4666 
z
" transform="scale(0.015625)"/>
      <path id="DejaVuSans-53" d="M 3425 4513 
L 3425 3897 
Q 3066 4069 2747 4153 
Q 2428 4238 2131 4238 
Q 1616 4238 1336 4038 
Q 1056 3838 1056 3469 
Q 1056 3159 1242 3001 
Q 1428 2844 1947 2747 
L 2328 2669 
Q 3034 2534 3370 2195 
Q 3706 1856 3706 1288 
Q 3706 609 3251 259 
Q 2797 -91 1919 -91 
Q 1588 -91 1214 -16 
Q 841 59 441 206 
L 441 856 
Q 825 641 1194 531 
Q 1563 422 1919 422 
Q 2459 422 2753 634 
Q 3047 847 3047 1241 
Q 3047 1584 2836 1778 
Q 2625 1972 2144 2069 
L 1759 2144 
Q 1053 2284 737 2584 
Q 422 2884 422 3419 
Q 422 4038 858 4394 
Q 1294 4750 2059 4750 
Q 2388 4750 2728 4690 
Q 3069 4631 3425 4513 
z
" transform="scale(0.015625)"/>
      <path id="DejaVuSans-45" d="M 628 4666 
L 3578 4666 
L 3578 4134 
L 1259 4134 
L 1259 2753 
L 3481 2753 
L 3481 2222 
L 1259 2222 
L 1259 531 
L 3634 531 
L 3634 0 
L 628 0 
L 628 4666 
z
" transform="scale(0.015625)"/>
      <path id="DejaVuSans-43" d="M 4122 4306 
L 4122 3641 
Q 3803 3938 3442 4084 
Q 3081 4231 2675 4231 
Q 1875 4231 1450 3742 
Q 1025 3253 1025 2328 
Q 1025 1406 1450 917 
Q 1875 428 2675 428 
Q 3081 428 3442 575 
Q 3803 722 4122 1019 
L 4122 359 
Q 3791 134 3420 21 
Q 3050 -91 2638 -91 
Q 1578 -91 968 557 
Q 359 1206 359 2328 
Q 359 3453 968 4101 
Q 1578 4750 2638 4750 
Q 3056 4750 3426 4639 
Q 3797 4528 4122 4306 
z
" transform="scale(0.015625)"/>
      <path id="DejaVuSans-74" d="M 1172 4494 
L 1172 3500 
L 2356 3500 
L 2356 3053 
L 1172 3053 
L 1172 1153 
Q 1172 725 1289 603 
Q 1406 481 1766 481 
L 2356 481 
L 2356 0 
L 1766 0 
Q 1100 0 847 248 
Q 594 497 594 1153 
L 594 3053 
L 172 3053 
L 172 3500 
L 594 3500 
L 594 4494 
L 1172 4494 
z
" transform="scale(0.015625)"/>
      <path id="DejaVuSans-75" d="M 544 1381 
L 544 3500 
L 1119 3500 
L 1119 1403 
Q 1119 906 1312 657 
Q 1506 409 1894 409 
Q 2359 409 2629 706 
Q 2900 1003 2900 1516 
L 2900 3500 
L 3475 3500 
L 3475 0 
L 2900 0 
L 2900 538 
Q 2691 219 2414 64 
Q 2138 -91 1772 -91 
Q 1169 -91 856 284 
Q 544 659 544 1381 
z
M 1991 3584 
L 1991 3584 
z
" transform="scale(0.015625)"/>
      <path id="DejaVuSans-61" d="M 2194 1759 
Q 1497 1759 1228 1600 
Q 959 1441 959 1056 
Q 959 750 1161 570 
Q 1363 391 1709 391 
Q 2188 391 2477 730 
Q 2766 1069 2766 1631 
L 2766 1759 
L 2194 1759 
z
M 3341 1997 
L 3341 0 
L 2766 0 
L 2766 531 
Q 2569 213 2275 61 
Q 1981 -91 1556 -91 
Q 1019 -91 701 211 
Q 384 513 384 1019 
Q 384 1609 779 1909 
Q 1175 2209 1959 2209 
L 2766 2209 
L 2766 2266 
Q 2766 2663 2505 2880 
Q 2244 3097 1772 3097 
Q 1472 3097 1187 3025 
Q 903 2953 641 2809 
L 641 3341 
Q 956 3463 1253 3523 
Q 1550 3584 1831 3584 
Q 2591 3584 2966 3190 
Q 3341 2797 3341 1997 
z
" transform="scale(0.015625)"/>
      <path id="DejaVuSans-4c" d="M 628 4666 
L 1259 4666 
L 1259 531 
L 3531 531 
L 3531 0 
L 628 0 
L 628 4666 
z
" transform="scale(0.015625)"/>
     </defs>
     <use xlink:href="#DejaVuSans-52"/>
     <use xlink:href="#DejaVuSans-69" x="69.482422"/>
     <use xlink:href="#DejaVuSans-64" x="97.265625"/>
     <use xlink:href="#DejaVuSans-67" x="160.742188"/>
     <use xlink:href="#DejaVuSans-65" x="224.21875"/>
     <use xlink:href="#DejaVuSans-20" x="285.742188"/>
     <use xlink:href="#DejaVuSans-52" x="317.529297"/>
     <use xlink:href="#DejaVuSans-65" x="382.511719"/>
     <use xlink:href="#DejaVuSans-67" x="444.035156"/>
     <use xlink:href="#DejaVuSans-72" x="507.511719"/>
     <use xlink:href="#DejaVuSans-65" x="546.375"/>
     <use xlink:href="#DejaVuSans-73" x="607.898438"/>
     <use xlink:href="#DejaVuSans-73" x="659.998047"/>
     <use xlink:href="#DejaVuSans-69" x="712.097656"/>
     <use xlink:href="#DejaVuSans-6f" x="739.880859"/>
     <use xlink:href="#DejaVuSans-6e" x="801.0625"/>
     <use xlink:href="#DejaVuSans-3a" x="864.441406"/>
     <use xlink:href="#DejaVuSans-20" x="898.132812"/>
     <use xlink:href="#DejaVuSans-4d" x="929.919922"/>
     <use xlink:href="#DejaVuSans-53" x="1016.199219"/>
     <use xlink:href="#DejaVuSans-45" x="1079.675781"/>
     <use xlink:href="#DejaVuSans-20" x="1142.859375"/>
     <use xlink:href="#DejaVuSans-43" x="1174.646484"/>
     <use xlink:href="#DejaVuSans-6f" x="1244.470703"/>
     <use xlink:href="#DejaVuSans-6e" x="1305.652344"/>
     <use xlink:href="#DejaVuSans-74" x="1369.03125"/>
     <use xlink:href="#DejaVuSans-6f" x="1408.240234"/>
     <use xlink:href="#DejaVuSans-75" x="1469.421875"/>
     <use xlink:href="#DejaVuSans-72" x="1532.800781"/>
     <use xlink:href="#DejaVuSans-73" x="1573.914062"/>
     <use xlink:href="#DejaVuSans-20" x="1626.013672"/>
     <use xlink:href="#DejaVuSans-61" x="1657.800781"/>
     <use xlink:href="#DejaVuSans-6e" x="1719.080078"/>
     <use xlink:href="#DejaVuSans-64" x="1782.458984"/>
     <use xlink:href="#DejaVuSans-20" x="1845.935547"/>
     <use xlink:href="#DejaVuSans-4c" x="1877.722656"/>
     <use xlink:href="#DejaVuSans-32" x="1933.435547"/>
     <use xlink:href="#DejaVuSans-20" x="1997.058594"/>
     <use xlink:href="#DejaVuSans-43" x="2028.845703"/>
     <use xlink:href="#DejaVuSans-6f" x="2098.669922"/>
     <use xlink:href="#DejaVuSans-6e" x="2159.851562"/>
     <use xlink:href="#DejaVuSans-73" x="2223.230469"/>
     <use xlink:href="#DejaVuSans-74" x="2275.330078"/>
     <use xlink:href="#DejaVuSans-72" x="2314.539062"/>
     <use xlink:href="#DejaVuSans-61" x="2355.652344"/>
     <use xlink:href="#DejaVuSans-69" x="2416.931641"/>
     <use xlink:href="#DejaVuSans-6e" x="2444.714844"/>
     <use xlink:href="#DejaVuSans-74" x="2508.09375"/>
    </g>
   </g>
   <g id="text_23">
    <g clip-path="url(#pae18992186)">
     <!-- 0.5 -->
     <g style="fill: #0000ff; opacity: 0.6" transform="translate(363.431874 244.882035) rotate(-33.210263) scale(0.08 -0.08)">
      <use xlink:href="#DejaVuSans-30"/>
      <use xlink:href="#DejaVuSans-2e" x="63.623047"/>
      <use xlink:href="#DejaVuSans-35" x="95.410156"/>
     </g>
    </g>
   </g>
   <g id="text_24">
    <g clip-path="url(#pae18992186)">
     <!-- 1.0 -->
     <g style="fill: #0000ff; opacity: 0.6" transform="translate(287.897058 156.99763) rotate(-28.3776) scale(0.08 -0.08)">
      <use xlink:href="#DejaVuSans-31"/>
      <use xlink:href="#DejaVuSans-2e" x="63.623047"/>
      <use xlink:href="#DejaVuSans-30" x="95.410156"/>
     </g>
    </g>
   </g>
   <g id="text_25">
    <g clip-path="url(#pae18992186)">
     <!-- 1.5 -->
     <g style="fill: #0000ff; opacity: 0.6" transform="translate(303.226521 128.999262) rotate(-20.045843) scale(0.08 -0.08)">
      <use xlink:href="#DejaVuSans-31"/>
      <use xlink:href="#DejaVuSans-2e" x="63.623047"/>
      <use xlink:href="#DejaVuSans-35" x="95.410156"/>
     </g>
    </g>
   </g>
   <g id="text_26">
    <g clip-path="url(#pae18992186)">
     <!-- 2.0 -->
     <g style="fill: #0000ff; opacity: 0.6" transform="translate(365.686305 299.946127) rotate(-23.094629) scale(0.08 -0.08)">
      <use xlink:href="#DejaVuSans-32"/>
      <use xlink:href="#DejaVuSans-2e" x="63.623047"/>
      <use xlink:href="#DejaVuSans-30" x="95.410156"/>
     </g>
    </g>
   </g>
   <g id="text_27">
    <g clip-path="url(#pae18992186)">
     <!-- 2.5 -->
     <g style="fill: #0000ff; opacity: 0.6" transform="translate(403.796574 288.216001) rotate(-32.15158) scale(0.08 -0.08)">
      <use xlink:href="#DejaVuSans-32"/>
      <use xlink:href="#DejaVuSans-2e" x="63.623047"/>
      <use xlink:href="#DejaVuSans-35" x="95.410156"/>
     </g>
    </g>
   </g>
   <g id="text_28">
    <g clip-path="url(#pae18992186)">
     <!-- 3.0 -->
     <g style="fill: #0000ff; opacity: 0.6" transform="translate(395.878406 306.727517) rotate(-28.186695) scale(0.08 -0.08)">
      <use xlink:href="#DejaVuSans-33"/>
      <use xlink:href="#DejaVuSans-2e" x="63.623047"/>
      <use xlink:href="#DejaVuSans-30" x="95.410156"/>
     </g>
    </g>
   </g>
   <g id="line2d_41">
    <defs>
     <path id="m1d51b208c5" d="M 0 3 
C 0.795609 3 1.55874 2.683901 2.12132 2.12132 
C 2.683901 1.55874 3 0.795609 3 0 
C 3 -0.795609 2.683901 -1.55874 2.12132 -2.12132 
C 1.55874 -2.683901 0.795609 -3 0 -3 
C -0.795609 -3 -1.55874 -2.683901 -2.12132 -2.12132 
C -2.683901 -1.55874 -3 -0.795609 -3 0 
C -3 0.795609 -2.683901 1.55874 -2.12132 2.12132 
C -1.55874 2.683901 -0.795609 3 0 3 
z
" style="stroke: #000000"/>
    </defs>
    <g clip-path="url(#pae18992186)">
     <use xlink:href="#m1d51b208c5" x="199.55" y="295.11" style="stroke: #000000"/>
    </g>
   </g>
   <g id="line2d_42">
    <defs>
     <path id="mc837f36f4d" d="M 0 6 
C 1.591219 6 3.117479 5.367802 4.242641 4.242641 
C 5.367802 3.117479 6 1.591219 6 0 
C 6 -1.591219 5.367802 -3.117479 4.242641 -4.242641 
C 3.117479 -5.367802 1.591219 -6 0 -6 
C -1.591219 -6 -3.117479 -5.367802 -4.242641 -4.242641 
C -5.367802 -3.117479 -6 -1.591219 -6 0 
C -6 1.591219 -5.367802 3.117479 -4.242641 4.242641 
C -3.117479 5.367802 -1.591219 6 0 6 
z
" style="stroke: #0000ff"/>
    </defs>
    <g clip-path="url(#pae18992186)">
     <use xlink:href="#mc837f36f4d" x="332.225" y="206.66" style="fill: #0000ff; stroke: #0000ff"/>
    </g>
   </g>
   <g id="line2d_43">
    <defs>
     <path id="m57439771f8" d="M 0 6 
C 1.591219 6 3.117479 5.367802 4.242641 4.242641 
C 5.367802 3.117479 6 1.591219 6 0 
C 6 -1.591219 5.367802 -3.117479 4.242641 -4.242641 
C 3.117479 -5.367802 1.591219 -6 0 -6 
C -1.591219 -6 -3.117479 -5.367802 -4.242641 -4.242641 
C -5.367802 -3.117479 -6 -1.591219 -6 0 
C -6 1.591219 -5.367802 3.117479 -4.242641 4.242641 
C -3.117479 5.367802 -1.591219 6 0 6 
z
" style="stroke: #ff0000"/>
    </defs>
    <g clip-path="url(#pae18992186)">
     <use xlink:href="#m57439771f8" x="288.313602" y="236.914316" style="fill: #ff0000; stroke: #ff0000"/>
    </g>
   </g>
   <g id="legend_1">
    <g id="patch_8">
     <path d="M 266.9 113.115937 
L 457.2 113.115937 
Q 459.4 113.115937 459.4 110.915937 
L 459.4 37.46 
Q 459.4 35.26 457.2 35.26 
L 266.9 35.26 
Q 264.7 35.26 264.7 37.46 
L 264.7 110.915937 
Q 264.7 113.115937 266.9 113.115937 
z
" style="fill: #ffffff; opacity: 0.8; stroke: #cccccc; stroke-linejoin: miter"/>
    </g>
    <g id="line2d_44">
     <path d="M 269.1 44.168281 
L 280.1 44.168281 
L 291.1 44.168281 
" style="fill: none; stroke: #0000ff; stroke-opacity: 0.6; stroke-width: 1.5; stroke-linecap: square"/>
    </g>
    <g id="text_29">
     <!-- MSE contours -->
     <g transform="translate(299.9 48.018281) scale(0.11 -0.11)">
      <defs>
       <path id="DejaVuSans-63" d="M 3122 3366 
L 3122 2828 
Q 2878 2963 2633 3030 
Q 2388 3097 2138 3097 
Q 1578 3097 1268 2742 
Q 959 2388 959 1747 
Q 959 1106 1268 751 
Q 1578 397 2138 397 
Q 2388 397 2633 464 
Q 2878 531 3122 666 
L 3122 134 
Q 2881 22 2623 -34 
Q 2366 -91 2075 -91 
Q 1284 -91 818 406 
Q 353 903 353 1747 
Q 353 2603 823 3093 
Q 1294 3584 2113 3584 
Q 2378 3584 2631 3529 
Q 2884 3475 3122 3366 
z
" transform="scale(0.015625)"/>
      </defs>
      <use xlink:href="#DejaVuSans-4d"/>
      <use xlink:href="#DejaVuSans-53" x="86.279297"/>
      <use xlink:href="#DejaVuSans-45" x="149.755859"/>
      <use xlink:href="#DejaVuSans-20" x="212.939453"/>
      <use xlink:href="#DejaVuSans-63" x="244.726562"/>
      <use xlink:href="#DejaVuSans-6f" x="299.707031"/>
      <use xlink:href="#DejaVuSans-6e" x="360.888672"/>
      <use xlink:href="#DejaVuSans-74" x="424.267578"/>
      <use xlink:href="#DejaVuSans-6f" x="463.476562"/>
      <use xlink:href="#DejaVuSans-75" x="524.658203"/>
      <use xlink:href="#DejaVuSans-72" x="588.037109"/>
      <use xlink:href="#DejaVuSans-73" x="629.150391"/>
     </g>
    </g>
    <g id="patch_9">
     <path d="M 269.1 64.275937 
L 291.1 64.275937 
L 291.1 56.575937 
L 269.1 56.575937 
L 269.1 64.275937 
z
" style="fill: none; stroke-dasharray: 9.25,4; stroke-dashoffset: 0; stroke: #ff0000; stroke-width: 2.5; stroke-linejoin: miter"/>
    </g>
    <g id="text_30">
     <!-- Ridge constraint: $||\beta||_2 \leq 1.2$ -->
     <g transform="translate(299.9 64.275937) scale(0.11 -0.11)">
      <defs>
       <path id="DejaVuSans-7c" d="M 1344 4891 
L 1344 -1509 
L 813 -1509 
L 813 4891 
L 1344 4891 
z
" transform="scale(0.015625)"/>
       <path id="DejaVuSans-2264" d="M 4684 3175 
L 1684 2309 
L 4684 1453 
L 4684 897 
L 678 2047 
L 678 2578 
L 4684 3725 
L 4684 3175 
z
M 678 531 
L 4684 531 
L 4684 0 
L 678 0 
L 678 531 
z
" transform="scale(0.015625)"/>
      </defs>
      <use xlink:href="#DejaVuSans-52" transform="translate(0 0.390625)"/>
      <use xlink:href="#DejaVuSans-69" transform="translate(69.482422 0.390625)"/>
      <use xlink:href="#DejaVuSans-64" transform="translate(97.265625 0.390625)"/>
      <use xlink:href="#DejaVuSans-67" transform="translate(160.742188 0.390625)"/>
      <use xlink:href="#DejaVuSans-65" transform="translate(224.21875 0.390625)"/>
      <use xlink:href="#DejaVuSans-20" transform="translate(285.742188 0.390625)"/>
      <use xlink:href="#DejaVuSans-63" transform="translate(317.529297 0.390625)"/>
      <use xlink:href="#DejaVuSans-6f" transform="translate(372.509766 0.390625)"/>
      <use xlink:href="#DejaVuSans-6e" transform="translate(433.691406 0.390625)"/>
      <use xlink:href="#DejaVuSans-73" transform="translate(497.070312 0.390625)"/>
      <use xlink:href="#DejaVuSans-74" transform="translate(549.169922 0.390625)"/>
      <use xlink:href="#DejaVuSans-72" transform="translate(588.378906 0.390625)"/>
      <use xlink:href="#DejaVuSans-61" transform="translate(629.492188 0.390625)"/>
      <use xlink:href="#DejaVuSans-69" transform="translate(690.771484 0.390625)"/>
      <use xlink:href="#DejaVuSans-6e" transform="translate(718.554688 0.390625)"/>
      <use xlink:href="#DejaVuSans-74" transform="translate(781.933594 0.390625)"/>
      <use xlink:href="#DejaVuSans-3a" transform="translate(821.142578 0.390625)"/>
      <use xlink:href="#DejaVuSans-20" transform="translate(854.833984 0.390625)"/>
      <use xlink:href="#DejaVuSans-7c" transform="translate(886.621094 0.390625)"/>
      <use xlink:href="#DejaVuSans-7c" transform="translate(920.3125 0.390625)"/>
      <use xlink:href="#DejaVuSans-Oblique-3b2" transform="translate(954.003906 0.390625)"/>
      <use xlink:href="#DejaVuSans-7c" transform="translate(1017.822266 0.390625)"/>
      <use xlink:href="#DejaVuSans-7c" transform="translate(1051.513672 0.390625)"/>
      <use xlink:href="#DejaVuSans-32" transform="translate(1086.162109 -16.015625) scale(0.7)"/>
      <use xlink:href="#DejaVuSans-2264" transform="translate(1152.915039 0.390625)"/>
      <use xlink:href="#DejaVuSans-31" transform="translate(1256.186523 0.390625)"/>
      <use xlink:href="#DejaVuSans-2e" transform="translate(1319.80957 0.390625)"/>
      <use xlink:href="#DejaVuSans-32" transform="translate(1346.09668 0.390625)"/>
     </g>
    </g>
    <g id="line2d_45">
     <g>
      <use xlink:href="#mc837f36f4d" x="280.1" y="81.105937" style="fill: #0000ff; stroke: #0000ff"/>
     </g>
    </g>
    <g id="text_31">
     <!-- $\hat \beta_\mathrm{OLS}$ -->
     <g transform="translate(299.9 84.955937) scale(0.11 -0.11)">
      <defs>
       <path id="DejaVuSans-302" d="M -1831 5119 
L -1369 5119 
L -603 3944 
L -1038 3944 
L -1600 4709 
L -2163 3944 
L -2597 3944 
L -1831 5119 
z
M -1600 3584 
L -1600 3584 
z
" transform="scale(0.015625)"/>
      </defs>
      <use xlink:href="#DejaVuSans-302" transform="translate(62.785156 34.015625)"/>
      <use xlink:href="#DejaVuSans-Oblique-3b2" transform="translate(0 0.90625)"/>
      <use xlink:href="#DejaVuSans-4f" transform="translate(64.775391 -15.5) scale(0.7)"/>
      <use xlink:href="#DejaVuSans-4c" transform="translate(119.873047 -15.5) scale(0.7)"/>
      <use xlink:href="#DejaVuSans-53" transform="translate(158.87207 -15.5) scale(0.7)"/>
     </g>
    </g>
    <g id="line2d_46">
     <g>
      <use xlink:href="#m57439771f8" x="280.1" y="101.455937" style="fill: #ff0000; stroke: #ff0000"/>
     </g>
    </g>
    <g id="text_32">
     <!-- $\hat \beta_\mathrm{Ridge}$ -->
     <g transform="translate(299.9 105.305937) scale(0.11 -0.11)">
      <use xlink:href="#DejaVuSans-302" transform="translate(62.785156 34.015625)"/>
      <use xlink:href="#DejaVuSans-Oblique-3b2" transform="translate(0 0.90625)"/>
      <use xlink:href="#DejaVuSans-52" transform="translate(64.775391 -15.5) scale(0.7)"/>
      <use xlink:href="#DejaVuSans-69" transform="translate(113.413086 -15.5) scale(0.7)"/>
      <use xlink:href="#DejaVuSans-64" transform="translate(132.861328 -15.5) scale(0.7)"/>
      <use xlink:href="#DejaVuSans-67" transform="translate(177.294922 -15.5) scale(0.7)"/>
      <use xlink:href="#DejaVuSans-65" transform="translate(221.728516 -15.5) scale(0.7)"/>
     </g>
    </g>
   </g>
  </g>
 </g>
 <defs>
  <clipPath id="pae18992186">
   <rect x="111.1" y="29.76" width="353.8" height="353.8"/>
  </clipPath>
 </defs>
</svg>
