<?xml version="1.0" encoding="utf-8" standalone="no"?>
<!DOCTYPE svg PUBLIC "-//W3C//DTD SVG 1.1//EN"
  "http://www.w3.org/Graphics/SVG/1.1/DTD/svg11.dtd">
<svg xmlns:xlink="http://www.w3.org/1999/xlink" width="576pt" height="432pt" viewBox="0 0 576 432" xmlns="http://www.w3.org/2000/svg" version="1.1">
 <metadata>
  <rdf:RDF xmlns:dc="http://purl.org/dc/elements/1.1/" xmlns:cc="http://creativecommons.org/ns#" xmlns:rdf="http://www.w3.org/1999/02/22-rdf-syntax-ns#">
   <cc:Work>
    <dc:type rdf:resource="http://purl.org/dc/dcmitype/StillImage"/>
    <dc:date>2025-10-13T09:54:51.943003</dc:date>
    <dc:format>image/svg+xml</dc:format>
    <dc:creator>
     <cc:Agent>
      <dc:title>Matplotlib v3.10.7, https://matplotlib.org/</dc:title>
     </cc:Agent>
    </dc:creator>
   </cc:Work>
  </rdf:RDF>
 </metadata>
 <defs>
  <style type="text/css">*{stroke-linejoin: round; stroke-linecap: butt}</style>
 </defs>
 <g id="figure_1">
  <g id="patch_1">
   <path d="M 0 432 
L 576 432 
L 576 0 
L 0 0 
z
" style="fill: #ffffff"/>
  </g>
  <g id="axes_1">
   <g id="patch_2">
    <path d="M 110.38 383.56 
L 465.62 383.56 
L 465.62 28.32 
L 110.38 28.32 
z
" style="fill: #ffffff"/>
   </g>
   <g id="patch_3">
    <path d="M 199.19 374.679 
C 220.387419 374.679 240.719499 366.257176 255.708338 351.268338 
C 270.697176 336.279499 279.119 315.947419 279.119 294.75 
C 279.119 273.552581 270.697176 253.220501 255.708338 238.231662 
C 240.719499 223.242824 220.387419 214.821 199.19 214.821 
C 177.992581 214.821 157.660501 223.242824 142.671662 238.231662 
C 127.682824 253.220501 119.261 273.552581 119.261 294.75 
C 119.261 315.947419 127.682824 336.279499 142.671662 351.268338 
C 157.660501 366.257176 177.992581 374.679 199.19 374.679 
L 199.19 374.679 
z
" clip-path="url(#p2224b3994d)" style="fill: none; stroke-dasharray: 9.25,4; stroke-dashoffset: 0; stroke: #ff0000; stroke-width: 2.5; stroke-linejoin: miter"/>
   </g>
   <g id="line2d_1">
    <path d="M 110.38 294.75 
L 465.62 294.75 
" clip-path="url(#p2224b3994d)" style="fill: none; stroke: #000000; stroke-opacity: 0.7; stroke-linecap: square"/>
   </g>
   <g id="line2d_2">
    <path d="M 199.19 383.56 
L 199.19 28.32 
" clip-path="url(#p2224b3994d)" style="fill: none; stroke: #000000; stroke-opacity: 0.7; stroke-linecap: square"/>
   </g>
   <g id="matplotlib.axis_1">
    <g id="xtick_1">
     <g id="line2d_3">
      <path d="M 110.38 383.56 
L 110.38 28.32 
" clip-path="url(#p2224b3994d)" style="fill: none; stroke: #b0b0b0; stroke-opacity: 0.3; stroke-width: 0.8; stroke-linecap: square"/>
     </g>
     <g id="line2d_4">
      <defs>
       <path id="m5d65b70ce7" d="M 0 0 
L 0 3.5 
" style="stroke: #000000; stroke-width: 0.8"/>
      </defs>
      <g>
       <use xlink:href="#m5d65b70ce7" x="110.38" y="383.56" style="stroke: #000000; stroke-width: 0.8"/>
      </g>
     </g>
     <g id="text_1">
      <!-- −1.0 -->
      <g transform="translate(98.238594 398.158437) scale(0.1 -0.1)">
       <defs>
        <path id="DejaVuSans-2212" d="M 678 2272 
L 4684 2272 
L 4684 1741 
L 678 1741 
L 678 2272 
z
" transform="scale(0.015625)"/>
        <path id="DejaVuSans-31" d="M 794 531 
L 1825 531 
L 1825 4091 
L 703 3866 
L 703 4441 
L 1819 4666 
L 2450 4666 
L 2450 531 
L 3481 531 
L 3481 0 
L 794 0 
L 794 531 
z
" transform="scale(0.015625)"/>
        <path id="DejaVuSans-2e" d="M 684 794 
L 1344 794 
L 1344 0 
L 684 0 
L 684 794 
z
" transform="scale(0.015625)"/>
        <path id="DejaVuSans-30" d="M 2034 4250 
Q 1547 4250 1301 3770 
Q 1056 3291 1056 2328 
Q 1056 1369 1301 889 
Q 1547 409 2034 409 
Q 2525 409 2770 889 
Q 3016 1369 3016 2328 
Q 3016 3291 2770 3770 
Q 2525 4250 2034 4250 
z
M 2034 4750 
Q 2819 4750 3233 4129 
Q 3647 3509 3647 2328 
Q 3647 1150 3233 529 
Q 2819 -91 2034 -91 
Q 1250 -91 836 529 
Q 422 1150 422 2328 
Q 422 3509 836 4129 
Q 1250 4750 2034 4750 
z
" transform="scale(0.015625)"/>
       </defs>
       <use xlink:href="#DejaVuSans-2212"/>
       <use xlink:href="#DejaVuSans-31" transform="translate(83.789062 0)"/>
       <use xlink:href="#DejaVuSans-2e" transform="translate(147.412109 0)"/>
       <use xlink:href="#DejaVuSans-30" transform="translate(179.199219 0)"/>
      </g>
     </g>
    </g>
    <g id="xtick_2">
     <g id="line2d_5">
      <path d="M 154.785 383.56 
L 154.785 28.32 
" clip-path="url(#p2224b3994d)" style="fill: none; stroke: #b0b0b0; stroke-opacity: 0.3; stroke-width: 0.8; stroke-linecap: square"/>
     </g>
     <g id="line2d_6">
      <g>
       <use xlink:href="#m5d65b70ce7" x="154.785" y="383.56" style="stroke: #000000; stroke-width: 0.8"/>
      </g>
     </g>
     <g id="text_2">
      <!-- −0.5 -->
      <g transform="translate(142.643594 398.158437) scale(0.1 -0.1)">
       <defs>
        <path id="DejaVuSans-35" d="M 691 4666 
L 3169 4666 
L 3169 4134 
L 1269 4134 
L 1269 2991 
Q 1406 3038 1543 3061 
Q 1681 3084 1819 3084 
Q 2600 3084 3056 2656 
Q 3513 2228 3513 1497 
Q 3513 744 3044 326 
Q 2575 -91 1722 -91 
Q 1428 -91 1123 -41 
Q 819 9 494 109 
L 494 744 
Q 775 591 1075 516 
Q 1375 441 1709 441 
Q 2250 441 2565 725 
Q 2881 1009 2881 1497 
Q 2881 1984 2565 2268 
Q 2250 2553 1709 2553 
Q 1456 2553 1204 2497 
Q 953 2441 691 2322 
L 691 4666 
z
" transform="scale(0.015625)"/>
       </defs>
       <use xlink:href="#DejaVuSans-2212"/>
       <use xlink:href="#DejaVuSans-30" transform="translate(83.789062 0)"/>
       <use xlink:href="#DejaVuSans-2e" transform="translate(147.412109 0)"/>
       <use xlink:href="#DejaVuSans-35" transform="translate(179.199219 0)"/>
      </g>
     </g>
    </g>
    <g id="xtick_3">
     <g id="line2d_7">
      <path d="M 199.19 383.56 
L 199.19 28.32 
" clip-path="url(#p2224b3994d)" style="fill: none; stroke: #b0b0b0; stroke-opacity: 0.3; stroke-width: 0.8; stroke-linecap: square"/>
     </g>
     <g id="line2d_8">
      <g>
       <use xlink:href="#m5d65b70ce7" x="199.19" y="383.56" style="stroke: #000000; stroke-width: 0.8"/>
      </g>
     </g>
     <g id="text_3">
      <!-- 0.0 -->
      <g transform="translate(191.238437 398.158437) scale(0.1 -0.1)">
       <use xlink:href="#DejaVuSans-30"/>
       <use xlink:href="#DejaVuSans-2e" transform="translate(63.623047 0)"/>
       <use xlink:href="#DejaVuSans-30" transform="translate(95.410156 0)"/>
      </g>
     </g>
    </g>
    <g id="xtick_4">
     <g id="line2d_9">
      <path d="M 243.595 383.56 
L 243.595 28.32 
" clip-path="url(#p2224b3994d)" style="fill: none; stroke: #b0b0b0; stroke-opacity: 0.3; stroke-width: 0.8; stroke-linecap: square"/>
     </g>
     <g id="line2d_10">
      <g>
       <use xlink:href="#m5d65b70ce7" x="243.595" y="383.56" style="stroke: #000000; stroke-width: 0.8"/>
      </g>
     </g>
     <g id="text_4">
      <!-- 0.5 -->
      <g transform="translate(235.643437 398.158437) scale(0.1 -0.1)">
       <use xlink:href="#DejaVuSans-30"/>
       <use xlink:href="#DejaVuSans-2e" transform="translate(63.623047 0)"/>
       <use xlink:href="#DejaVuSans-35" transform="translate(95.410156 0)"/>
      </g>
     </g>
    </g>
    <g id="xtick_5">
     <g id="line2d_11">
      <path d="M 288 383.56 
L 288 28.32 
" clip-path="url(#p2224b3994d)" style="fill: none; stroke: #b0b0b0; stroke-opacity: 0.3; stroke-width: 0.8; stroke-linecap: square"/>
     </g>
     <g id="line2d_12">
      <g>
       <use xlink:href="#m5d65b70ce7" x="288" y="383.56" style="stroke: #000000; stroke-width: 0.8"/>
      </g>
     </g>
     <g id="text_5">
      <!-- 1.0 -->
      <g transform="translate(280.048437 398.158437) scale(0.1 -0.1)">
       <use xlink:href="#DejaVuSans-31"/>
       <use xlink:href="#DejaVuSans-2e" transform="translate(63.623047 0)"/>
       <use xlink:href="#DejaVuSans-30" transform="translate(95.410156 0)"/>
      </g>
     </g>
    </g>
    <g id="xtick_6">
     <g id="line2d_13">
      <path d="M 332.405 383.56 
L 332.405 28.32 
" clip-path="url(#p2224b3994d)" style="fill: none; stroke: #b0b0b0; stroke-opacity: 0.3; stroke-width: 0.8; stroke-linecap: square"/>
     </g>
     <g id="line2d_14">
      <g>
       <use xlink:href="#m5d65b70ce7" x="332.405" y="383.56" style="stroke: #000000; stroke-width: 0.8"/>
      </g>
     </g>
     <g id="text_6">
      <!-- 1.5 -->
      <g transform="translate(324.453437 398.158437) scale(0.1 -0.1)">
       <use xlink:href="#DejaVuSans-31"/>
       <use xlink:href="#DejaVuSans-2e" transform="translate(63.623047 0)"/>
       <use xlink:href="#DejaVuSans-35" transform="translate(95.410156 0)"/>
      </g>
     </g>
    </g>
    <g id="xtick_7">
     <g id="line2d_15">
      <path d="M 376.81 383.56 
L 376.81 28.32 
" clip-path="url(#p2224b3994d)" style="fill: none; stroke: #b0b0b0; stroke-opacity: 0.3; stroke-width: 0.8; stroke-linecap: square"/>
     </g>
     <g id="line2d_16">
      <g>
       <use xlink:href="#m5d65b70ce7" x="376.81" y="383.56" style="stroke: #000000; stroke-width: 0.8"/>
      </g>
     </g>
     <g id="text_7">
      <!-- 2.0 -->
      <g transform="translate(368.858437 398.158437) scale(0.1 -0.1)">
       <defs>
        <path id="DejaVuSans-32" d="M 1228 531 
L 3431 531 
L 3431 0 
L 469 0 
L 469 531 
Q 828 903 1448 1529 
Q 2069 2156 2228 2338 
Q 2531 2678 2651 2914 
Q 2772 3150 2772 3378 
Q 2772 3750 2511 3984 
Q 2250 4219 1831 4219 
Q 1534 4219 1204 4116 
Q 875 4013 500 3803 
L 500 4441 
Q 881 4594 1212 4672 
Q 1544 4750 1819 4750 
Q 2544 4750 2975 4387 
Q 3406 4025 3406 3419 
Q 3406 3131 3298 2873 
Q 3191 2616 2906 2266 
Q 2828 2175 2409 1742 
Q 1991 1309 1228 531 
z
" transform="scale(0.015625)"/>
       </defs>
       <use xlink:href="#DejaVuSans-32"/>
       <use xlink:href="#DejaVuSans-2e" transform="translate(63.623047 0)"/>
       <use xlink:href="#DejaVuSans-30" transform="translate(95.410156 0)"/>
      </g>
     </g>
    </g>
    <g id="xtick_8">
     <g id="line2d_17">
      <path d="M 421.215 383.56 
L 421.215 28.32 
" clip-path="url(#p2224b3994d)" style="fill: none; stroke: #b0b0b0; stroke-opacity: 0.3; stroke-width: 0.8; stroke-linecap: square"/>
     </g>
     <g id="line2d_18">
      <g>
       <use xlink:href="#m5d65b70ce7" x="421.215" y="383.56" style="stroke: #000000; stroke-width: 0.8"/>
      </g>
     </g>
     <g id="text_8">
      <!-- 2.5 -->
      <g transform="translate(413.263438 398.158437) scale(0.1 -0.1)">
       <use xlink:href="#DejaVuSans-32"/>
       <use xlink:href="#DejaVuSans-2e" transform="translate(63.623047 0)"/>
       <use xlink:href="#DejaVuSans-35" transform="translate(95.410156 0)"/>
      </g>
     </g>
    </g>
    <g id="xtick_9">
     <g id="line2d_19">
      <path d="M 465.62 383.56 
L 465.62 28.32 
" clip-path="url(#p2224b3994d)" style="fill: none; stroke: #b0b0b0; stroke-opacity: 0.3; stroke-width: 0.8; stroke-linecap: square"/>
     </g>
     <g id="line2d_20">
      <g>
       <use xlink:href="#m5d65b70ce7" x="465.62" y="383.56" style="stroke: #000000; stroke-width: 0.8"/>
      </g>
     </g>
     <g id="text_9">
      <!-- 3.0 -->
      <g transform="translate(457.668437 398.158437) scale(0.1 -0.1)">
       <defs>
        <path id="DejaVuSans-33" d="M 2597 2516 
Q 3050 2419 3304 2112 
Q 3559 1806 3559 1356 
Q 3559 666 3084 287 
Q 2609 -91 1734 -91 
Q 1441 -91 1130 -33 
Q 819 25 488 141 
L 488 750 
Q 750 597 1062 519 
Q 1375 441 1716 441 
Q 2309 441 2620 675 
Q 2931 909 2931 1356 
Q 2931 1769 2642 2001 
Q 2353 2234 1838 2234 
L 1294 2234 
L 1294 2753 
L 1863 2753 
Q 2328 2753 2575 2939 
Q 2822 3125 2822 3475 
Q 2822 3834 2567 4026 
Q 2313 4219 1838 4219 
Q 1578 4219 1281 4162 
Q 984 4106 628 3988 
L 628 4550 
Q 988 4650 1302 4700 
Q 1616 4750 1894 4750 
Q 2613 4750 3031 4423 
Q 3450 4097 3450 3541 
Q 3450 3153 3228 2886 
Q 3006 2619 2597 2516 
z
" transform="scale(0.015625)"/>
       </defs>
       <use xlink:href="#DejaVuSans-33"/>
       <use xlink:href="#DejaVuSans-2e" transform="translate(63.623047 0)"/>
       <use xlink:href="#DejaVuSans-30" transform="translate(95.410156 0)"/>
      </g>
     </g>
    </g>
    <g id="text_10">
     <!-- $\beta_1$ -->
     <g transform="translate(280.16 415.018125) scale(0.14 -0.14)">
      <defs>
       <path id="DejaVuSans-Oblique-3b2" d="M 872 216 
L 572 -1331 
L -6 -1331 
L 928 3478 
Q 1206 4903 2538 4903 
Q 3888 4903 3659 3700 
Q 3503 2844 2894 2531 
Q 3713 2250 3553 1416 
Q 3272 -69 1759 -66 
Q 1097 -63 872 216 
z
M 1019 966 
Q 1259 422 1875 425 
Q 2775 425 2966 1406 
Q 3138 2288 1675 2219 
L 1778 2750 
Q 2909 2731 3106 3750 
Q 3241 4438 2509 4434 
Q 1691 4434 1503 3459 
L 1019 966 
z
" transform="scale(0.015625)"/>
      </defs>
      <use xlink:href="#DejaVuSans-Oblique-3b2" transform="translate(0 0.390625)"/>
      <use xlink:href="#DejaVuSans-31" transform="translate(63.818359 -16.015625) scale(0.7)"/>
     </g>
    </g>
   </g>
   <g id="matplotlib.axis_2">
    <g id="ytick_1">
     <g id="line2d_21">
      <path d="M 110.38 383.56 
L 465.62 383.56 
" clip-path="url(#p2224b3994d)" style="fill: none; stroke: #b0b0b0; stroke-opacity: 0.3; stroke-width: 0.8; stroke-linecap: square"/>
     </g>
     <g id="line2d_22">
      <defs>
       <path id="mb78f59265d" d="M 0 0 
L -3.5 0 
" style="stroke: #000000; stroke-width: 0.8"/>
      </defs>
      <g>
       <use xlink:href="#mb78f59265d" x="110.38" y="383.56" style="stroke: #000000; stroke-width: 0.8"/>
      </g>
     </g>
     <g id="text_11">
      <!-- −1.0 -->
      <g transform="translate(79.097187 387.359219) scale(0.1 -0.1)">
       <use xlink:href="#DejaVuSans-2212"/>
       <use xlink:href="#DejaVuSans-31" transform="translate(83.789062 0)"/>
       <use xlink:href="#DejaVuSans-2e" transform="translate(147.412109 0)"/>
       <use xlink:href="#DejaVuSans-30" transform="translate(179.199219 0)"/>
      </g>
     </g>
    </g>
    <g id="ytick_2">
     <g id="line2d_23">
      <path d="M 110.38 339.155 
L 465.62 339.155 
" clip-path="url(#p2224b3994d)" style="fill: none; stroke: #b0b0b0; stroke-opacity: 0.3; stroke-width: 0.8; stroke-linecap: square"/>
     </g>
     <g id="line2d_24">
      <g>
       <use xlink:href="#mb78f59265d" x="110.38" y="339.155" style="stroke: #000000; stroke-width: 0.8"/>
      </g>
     </g>
     <g id="text_12">
      <!-- −0.5 -->
      <g transform="translate(79.097187 342.954219) scale(0.1 -0.1)">
       <use xlink:href="#DejaVuSans-2212"/>
       <use xlink:href="#DejaVuSans-30" transform="translate(83.789062 0)"/>
       <use xlink:href="#DejaVuSans-2e" transform="translate(147.412109 0)"/>
       <use xlink:href="#DejaVuSans-35" transform="translate(179.199219 0)"/>
      </g>
     </g>
    </g>
    <g id="ytick_3">
     <g id="line2d_25">
      <path d="M 110.38 294.75 
L 465.62 294.75 
" clip-path="url(#p2224b3994d)" style="fill: none; stroke: #b0b0b0; stroke-opacity: 0.3; stroke-width: 0.8; stroke-linecap: square"/>
     </g>
     <g id="line2d_26">
      <g>
       <use xlink:href="#mb78f59265d" x="110.38" y="294.75" style="stroke: #000000; stroke-width: 0.8"/>
      </g>
     </g>
     <g id="text_13">
      <!-- 0.0 -->
      <g transform="translate(87.476875 298.549219) scale(0.1 -0.1)">
       <use xlink:href="#DejaVuSans-30"/>
       <use xlink:href="#DejaVuSans-2e" transform="translate(63.623047 0)"/>
       <use xlink:href="#DejaVuSans-30" transform="translate(95.410156 0)"/>
      </g>
     </g>
    </g>
    <g id="ytick_4">
     <g id="line2d_27">
      <path d="M 110.38 250.345 
L 465.62 250.345 
" clip-path="url(#p2224b3994d)" style="fill: none; stroke: #b0b0b0; stroke-opacity: 0.3; stroke-width: 0.8; stroke-linecap: square"/>
     </g>
     <g id="line2d_28">
      <g>
       <use xlink:href="#mb78f59265d" x="110.38" y="250.345" style="stroke: #000000; stroke-width: 0.8"/>
      </g>
     </g>
     <g id="text_14">
      <!-- 0.5 -->
      <g transform="translate(87.476875 254.144219) scale(0.1 -0.1)">
       <use xlink:href="#DejaVuSans-30"/>
       <use xlink:href="#DejaVuSans-2e" transform="translate(63.623047 0)"/>
       <use xlink:href="#DejaVuSans-35" transform="translate(95.410156 0)"/>
      </g>
     </g>
    </g>
    <g id="ytick_5">
     <g id="line2d_29">
      <path d="M 110.38 205.94 
L 465.62 205.94 
" clip-path="url(#p2224b3994d)" style="fill: none; stroke: #b0b0b0; stroke-opacity: 0.3; stroke-width: 0.8; stroke-linecap: square"/>
     </g>
     <g id="line2d_30">
      <g>
       <use xlink:href="#mb78f59265d" x="110.38" y="205.94" style="stroke: #000000; stroke-width: 0.8"/>
      </g>
     </g>
     <g id="text_15">
      <!-- 1.0 -->
      <g transform="translate(87.476875 209.739219) scale(0.1 -0.1)">
       <use xlink:href="#DejaVuSans-31"/>
       <use xlink:href="#DejaVuSans-2e" transform="translate(63.623047 0)"/>
       <use xlink:href="#DejaVuSans-30" transform="translate(95.410156 0)"/>
      </g>
     </g>
    </g>
    <g id="ytick_6">
     <g id="line2d_31">
      <path d="M 110.38 161.535 
L 465.62 161.535 
" clip-path="url(#p2224b3994d)" style="fill: none; stroke: #b0b0b0; stroke-opacity: 0.3; stroke-width: 0.8; stroke-linecap: square"/>
     </g>
     <g id="line2d_32">
      <g>
       <use xlink:href="#mb78f59265d" x="110.38" y="161.535" style="stroke: #000000; stroke-width: 0.8"/>
      </g>
     </g>
     <g id="text_16">
      <!-- 1.5 -->
      <g transform="translate(87.476875 165.334219) scale(0.1 -0.1)">
       <use xlink:href="#DejaVuSans-31"/>
       <use xlink:href="#DejaVuSans-2e" transform="translate(63.623047 0)"/>
       <use xlink:href="#DejaVuSans-35" transform="translate(95.410156 0)"/>
      </g>
     </g>
    </g>
    <g id="ytick_7">
     <g id="line2d_33">
      <path d="M 110.38 117.13 
L 465.62 117.13 
" clip-path="url(#p2224b3994d)" style="fill: none; stroke: #b0b0b0; stroke-opacity: 0.3; stroke-width: 0.8; stroke-linecap: square"/>
     </g>
     <g id="line2d_34">
      <g>
       <use xlink:href="#mb78f59265d" x="110.38" y="117.13" style="stroke: #000000; stroke-width: 0.8"/>
      </g>
     </g>
     <g id="text_17">
      <!-- 2.0 -->
      <g transform="translate(87.476875 120.929219) scale(0.1 -0.1)">
       <use xlink:href="#DejaVuSans-32"/>
       <use xlink:href="#DejaVuSans-2e" transform="translate(63.623047 0)"/>
       <use xlink:href="#DejaVuSans-30" transform="translate(95.410156 0)"/>
      </g>
     </g>
    </g>
    <g id="ytick_8">
     <g id="line2d_35">
      <path d="M 110.38 72.725 
L 465.62 72.725 
" clip-path="url(#p2224b3994d)" style="fill: none; stroke: #b0b0b0; stroke-opacity: 0.3; stroke-width: 0.8; stroke-linecap: square"/>
     </g>
     <g id="line2d_36">
      <g>
       <use xlink:href="#mb78f59265d" x="110.38" y="72.725" style="stroke: #000000; stroke-width: 0.8"/>
      </g>
     </g>
     <g id="text_18">
      <!-- 2.5 -->
      <g transform="translate(87.476875 76.524219) scale(0.1 -0.1)">
       <use xlink:href="#DejaVuSans-32"/>
       <use xlink:href="#DejaVuSans-2e" transform="translate(63.623047 0)"/>
       <use xlink:href="#DejaVuSans-35" transform="translate(95.410156 0)"/>
      </g>
     </g>
    </g>
    <g id="ytick_9">
     <g id="line2d_37">
      <path d="M 110.38 28.32 
L 465.62 28.32 
" clip-path="url(#p2224b3994d)" style="fill: none; stroke: #b0b0b0; stroke-opacity: 0.3; stroke-width: 0.8; stroke-linecap: square"/>
     </g>
     <g id="line2d_38">
      <g>
       <use xlink:href="#mb78f59265d" x="110.38" y="28.32" style="stroke: #000000; stroke-width: 0.8"/>
      </g>
     </g>
     <g id="text_19">
      <!-- 3.0 -->
      <g transform="translate(87.476875 32.119219) scale(0.1 -0.1)">
       <use xlink:href="#DejaVuSans-33"/>
       <use xlink:href="#DejaVuSans-2e" transform="translate(63.623047 0)"/>
       <use xlink:href="#DejaVuSans-30" transform="translate(95.410156 0)"/>
      </g>
     </g>
    </g>
    <g id="text_20">
     <!-- $\beta_2$ -->
     <g transform="translate(72.157187 213.78) rotate(-90) scale(0.14 -0.14)">
      <use xlink:href="#DejaVuSans-Oblique-3b2" transform="translate(0 0.390625)"/>
      <use xlink:href="#DejaVuSans-32" transform="translate(63.818359 -16.015625) scale(0.7)"/>
     </g>
    </g>
   </g>
   <g id="QuadContourSet_1">
    <path d="M 361.075854 244.408832 
L 358.512462 246.230707 
L 354.942211 248.560888 
L 351.37196 250.685609 
L 347.801709 252.613493 
L 344.231457 254.35269 
L 340.661206 255.910904 
L 337.090955 257.295426 
L 333.223733 258.601206 
L 328.165327 260.000726 
L 324.595075 260.781605 
L 321.024824 261.385057 
L 317.454573 261.813404 
L 313.884322 262.055346 
L 310.31407 262.098586 
L 306.743819 261.929723 
L 303.173568 261.534122 
L 299.603317 260.895769 
L 296.033065 259.980813 
L 292.092359 258.601206 
L 288.892563 257.141094 
L 287.107437 256.168015 
L 285.250086 255.030955 
L 282.781637 253.245829 
L 280.687791 251.460704 
L 278.893854 249.675578 
L 277.343751 247.890452 
L 275.994569 246.105327 
L 274.611558 243.966116 
L 272.923667 240.74995 
L 272.174212 238.964824 
L 270.986968 235.394573 
L 270.201911 231.824322 
L 269.751537 228.25407 
L 269.611504 224.683819 
L 269.759777 221.113568 
L 270.176357 217.543317 
L 270.843054 213.973065 
L 271.764598 210.402814 
L 272.918686 206.832563 
L 274.611558 202.595723 
L 276.396683 198.827135 
L 278.181809 195.52841 
L 279.970555 192.551558 
L 282.371453 188.981307 
L 285.322312 185.05707 
L 288.011285 181.840804 
L 291.303953 178.270553 
L 294.961698 174.700302 
L 299.036797 171.13005 
L 301.388442 169.236908 
L 306.120595 165.774673 
L 310.31407 163.042725 
L 314.828705 160.419296 
L 319.239698 158.156848 
L 322.80995 156.529631 
L 326.415395 155.06392 
L 331.735578 153.22997 
L 337.090955 151.771033 
L 340.661206 151.013751 
L 344.231457 150.431601 
L 347.801709 150.025917 
L 351.37196 149.808119 
L 354.942211 149.790634 
L 358.512462 149.987013 
L 362.082714 150.412052 
L 365.652965 151.08195 
L 369.223216 152.03634 
L 372.793467 153.305026 
L 376.547037 155.06392 
L 379.93397 157.102686 
L 382.033314 158.634171 
L 384.122866 160.419296 
L 385.916655 162.204422 
L 387.46936 163.989548 
L 388.859598 165.830158 
L 390.644724 168.694384 
L 391.880791 171.13005 
L 392.64005 172.915176 
L 393.818501 176.485427 
L 394.610415 180.055678 
L 395.057033 183.62593 
L 395.195978 187.196181 
L 395.048925 190.766432 
L 394.635561 194.336683 
L 393.966371 197.906935 
L 393.045808 201.477186 
L 391.886934 205.047437 
L 390.491885 208.617688 
L 388.855202 212.18794 
L 386.971254 215.758191 
L 384.834234 219.328442 
L 382.438152 222.898693 
L 379.771666 226.468945 
L 376.363719 230.53257 
L 374.298603 232.778376 
L 374.298603 232.778376 
" clip-path="url(#p2224b3994d)" style="fill: none; stroke: #0000ff; stroke-opacity: 0.6; stroke-width: 1.5"/>
    <path d="M 299.522701 146.292598 
L 303.173568 144.049714 
L 308.990163 140.782915 
L 313.884322 138.314038 
L 319.239698 135.887883 
L 324.595075 133.741377 
L 329.998347 131.857286 
L 336.083742 130.072161 
L 340.661206 128.959594 
L 346.016583 127.911621 
L 351.37196 127.148833 
L 356.727337 126.673671 
L 362.082714 126.506042 
L 365.652965 126.575815 
L 369.223216 126.798875 
L 372.793467 127.182635 
L 376.363719 127.734996 
L 379.93397 128.469451 
L 383.504221 129.411557 
L 387.074472 130.570789 
L 390.644724 131.974692 
L 394.214975 133.662927 
L 397.785226 135.684214 
L 401.355477 138.09908 
L 403.140603 139.477814 
L 404.925729 140.992093 
L 406.710854 142.665399 
L 408.49598 144.526971 
L 411.301854 147.923417 
L 412.580146 149.708543 
L 414.783516 153.278794 
L 416.583429 156.849045 
L 418.034811 160.419296 
L 419.206734 164.080329 
L 420.043443 167.559799 
L 420.6595 171.13005 
L 421.042938 174.700302 
L 421.204472 178.270553 
L 421.162557 181.840804 
L 420.925742 185.411055 
L 420.497078 188.981307 
L 419.889571 192.551558 
L 419.109711 196.121809 
L 418.149586 199.69206 
L 417.023714 203.262312 
L 415.636482 207.067465 
L 413.465005 212.18794 
L 411.744217 215.758191 
L 409.84926 219.328442 
L 407.777275 222.898693 
L 404.925729 227.370064 
L 401.793481 231.824322 
L 399.056307 235.394573 
L 396.000101 239.093936 
L 392.429849 243.078993 
L 388.859598 246.764549 
L 385.289347 250.187723 
L 381.719095 253.379745 
L 377.573877 256.81608 
L 372.793467 260.468871 
L 367.43809 264.191716 
L 362.082714 267.566886 
L 356.727337 270.610462 
L 351.37196 273.351802 
L 346.016583 275.800011 
L 340.661206 277.96897 
L 335.305829 279.8607 
L 329.950452 281.477199 
L 324.595075 282.82045 
L 319.239698 283.892413 
L 313.884322 284.678325 
L 308.528945 285.178192 
L 303.173568 285.372253 
L 299.603317 285.321142 
L 296.033065 285.117639 
L 292.462814 284.754389 
L 288.892563 284.223552 
L 285.322312 283.514599 
L 281.75206 282.597057 
L 278.181809 281.468438 
L 274.43953 280.022714 
L 270.642097 278.237588 
L 267.439733 276.452462 
L 263.900804 274.107768 
L 262.115678 272.764185 
L 260.119441 271.097085 
L 258.200926 269.31196 
L 256.473549 267.526834 
L 254.912131 265.741709 
L 252.23103 262.171457 
L 251.071408 260.386332 
L 249.078885 256.81608 
L 247.458404 253.245829 
L 246.049548 249.303442 
L 245.166797 246.105327 
L 244.42575 242.535075 
L 243.931968 238.964824 
L 243.663139 235.394573 
L 243.604243 231.824322 
L 243.744825 228.25407 
L 244.075117 224.683819 
L 244.593013 221.113568 
L 245.290464 217.543317 
L 246.157178 213.973065 
L 247.202526 210.402814 
L 248.414316 206.832563 
L 249.792921 203.262312 
L 251.404925 199.558049 
L 253.99301 194.336683 
L 256.760302 189.433728 
L 259.285048 185.411055 
L 262.115678 181.294655 
L 265.7502 176.485427 
L 269.256181 172.274087 
L 272.826432 168.325529 
L 276.396683 164.674012 
L 279.966935 161.282641 
L 283.537186 158.120385 
L 285.604563 156.387045 
L 285.604563 156.387045 
" clip-path="url(#p2224b3994d)" style="fill: none; stroke: #0000ff; stroke-opacity: 0.6; stroke-width: 1.5"/>
    <path d="M 316.017295 120.257522 
L 321.024824 118.210186 
L 326.380201 116.240537 
L 331.735578 114.495133 
L 337.090955 112.97266 
L 342.446332 111.671815 
L 348.715533 110.435779 
L 353.157085 109.75121 
L 358.512462 109.139702 
L 363.867839 108.76945 
L 369.223216 108.654078 
L 374.578593 108.808255 
L 379.93397 109.247799 
L 385.289347 109.989788 
L 388.859598 110.666721 
L 392.429849 111.506094 
L 396.000101 112.511136 
L 400.388281 114.00603 
L 403.140603 115.101602 
L 406.710854 116.723476 
L 410.281106 118.599226 
L 413.851357 120.764365 
L 416.967493 122.931658 
L 419.263856 124.716784 
L 422.776985 127.831915 
L 424.994258 130.072161 
L 428.081383 133.642412 
L 429.917487 136.091002 
L 431.860212 138.997789 
L 433.912796 142.56804 
L 435.650987 146.138291 
L 437.10967 149.708543 
L 438.307846 153.278794 
L 439.277449 156.849045 
L 440.031174 160.419296 
L 440.628241 164.324954 
L 440.952919 167.559799 
L 441.140175 171.13005 
L 441.158699 174.700302 
L 441.015353 178.270553 
L 440.628241 182.605021 
L 440.262252 185.411055 
L 439.306867 190.766432 
L 438.49114 194.336683 
L 437.004801 199.69206 
L 435.203626 205.047437 
L 433.089684 210.402814 
L 430.665027 215.758191 
L 427.928124 221.113568 
L 424.86589 226.468945 
L 422.641869 230.039196 
L 419.017571 235.394573 
L 415.032391 240.74995 
L 412.066231 244.444209 
L 407.530394 249.675578 
L 403.140603 254.337024 
L 398.811304 258.601206 
L 394.214975 262.806681 
L 388.859598 267.340914 
L 384.059084 271.097085 
L 379.151198 274.667337 
L 373.853231 278.237588 
L 368.092169 281.807839 
L 363.867839 284.229807 
L 358.344917 287.163216 
L 353.157085 289.677447 
L 347.801709 292.045587 
L 342.131535 294.303719 
L 337.090955 296.099902 
L 331.443093 297.87397 
L 326.380201 299.25457 
L 321.024824 300.497568 
L 315.669447 301.51949 
L 310.31407 302.303576 
L 304.958693 302.855994 
L 299.603317 303.163843 
L 294.24794 303.213246 
L 288.892563 302.989257 
L 283.537186 302.475755 
L 278.181809 301.655326 
L 274.611558 300.916706 
L 269.778381 299.659095 
L 267.471055 298.942038 
L 263.900804 297.678822 
L 260.079233 296.088844 
L 256.406188 294.303719 
L 253.19005 292.510656 
L 249.619799 290.217327 
L 246.049548 287.566207 
L 243.467955 285.37809 
L 240.694171 282.721563 
L 238.211843 280.022714 
L 235.365455 276.452462 
L 233.553668 273.821893 
L 231.768543 270.900292 
L 229.983417 267.51841 
L 228.198291 263.457029 
L 227.073085 260.386332 
L 225.989191 256.81608 
L 225.129807 253.245829 
L 224.474965 249.675578 
L 224.018639 246.105327 
L 223.742996 242.535075 
L 223.6405 238.964824 
L 223.704027 235.394573 
L 223.926839 231.824322 
L 224.302556 228.25407 
L 224.828661 224.683819 
L 225.893728 219.328442 
L 227.277604 213.973065 
L 228.974703 208.617688 
L 230.982979 203.262312 
L 233.300406 197.906935 
L 235.935314 192.551558 
L 238.909045 187.155531 
L 242.479296 181.364314 
L 246.049548 176.126658 
L 249.775204 171.13005 
L 254.143044 165.774673 
L 258.545427 160.821494 
L 262.349501 156.849045 
L 267.471055 151.89691 
L 271.911669 147.923417 
L 276.396683 144.177988 
L 281.75206 140.034416 
L 287.107437 136.208961 
L 292.462814 132.679622 
L 297.818191 129.426378 
L 301.151935 127.53536 
L 301.151935 127.53536 
" clip-path="url(#p2224b3994d)" style="fill: none; stroke: #0000ff; stroke-opacity: 0.6; stroke-width: 1.5"/>
    <path d="M 363.641032 299.068944 
L 358.512462 301.624052 
L 353.157085 304.085303 
L 346.676537 306.799598 
L 340.661206 309.060613 
L 335.305829 310.86782 
L 329.950452 312.483222 
L 324.459703 313.940101 
L 319.239698 315.132544 
L 313.884322 316.165748 
L 308.528945 316.999153 
L 303.173568 317.631569 
L 297.818191 318.050201 
L 292.462814 318.253877 
L 287.107437 318.232117 
L 281.75206 317.973751 
L 276.396683 317.466031 
L 271.041307 316.682999 
L 265.68593 315.617012 
L 260.330553 314.229276 
L 256.760302 313.110321 
L 253.19005 311.827034 
L 249.619799 310.361523 
L 245.838611 308.584724 
L 242.479296 306.798261 
L 238.909045 304.649013 
L 235.338794 302.213068 
L 231.768543 299.4464 
L 228.003052 296.088844 
L 224.546004 292.518593 
L 221.557706 288.948342 
L 218.957281 285.37809 
L 216.698965 281.807839 
L 214.737459 278.237588 
L 213.043048 274.667337 
L 211.589854 271.097085 
L 210.347035 267.499619 
L 209.332668 263.956583 
L 208.493392 260.386332 
L 207.839212 256.81608 
L 207.350318 253.245829 
L 207.020584 249.675578 
L 206.84418 246.105327 
L 206.855006 240.74995 
L 207.18078 235.394573 
L 207.805103 230.039196 
L 208.715015 224.683819 
L 209.909388 219.328442 
L 211.378013 213.973065 
L 213.117029 208.617688 
L 215.124912 203.262312 
L 217.487538 197.715527 
L 219.951406 192.551558 
L 222.842915 187.069826 
L 225.879024 181.840804 
L 229.272611 176.485427 
L 232.965005 171.13005 
L 237.12392 165.576456 
L 241.307266 160.419296 
L 246.049548 155.002099 
L 251.063783 149.708543 
L 254.975176 145.846126 
L 260.455246 140.782915 
L 265.68593 136.297859 
L 271.242415 131.857286 
L 276.396683 128.020687 
L 281.75206 124.297805 
L 287.107437 120.824917 
L 292.482438 117.576281 
L 298.889303 114.00603 
L 304.958693 110.905377 
L 310.31407 108.389725 
L 315.669447 106.078801 
L 321.024824 103.963591 
L 326.380201 102.043098 
L 331.735578 100.316336 
L 337.090955 98.782323 
L 342.446332 97.440083 
L 348.515058 96.154774 
L 353.157085 95.343421 
L 358.512462 94.591753 
L 363.867839 94.048523 
L 369.223216 93.718225 
L 374.578593 93.607169 
L 379.93397 93.726115 
L 385.289347 94.086539 
L 390.644724 94.707036 
L 396.000101 95.605299 
L 401.355477 96.803457 
L 406.710854 98.330387 
L 410.753665 99.725025 
L 415.164312 101.510151 
L 418.971045 103.295276 
L 422.322559 105.080402 
L 425.322437 106.865528 
L 428.132362 108.712718 
L 431.702613 111.355349 
L 434.872723 114.00603 
L 437.05799 116.034485 
L 440.261472 119.361407 
L 442.413367 121.88097 
L 444.597875 124.716784 
L 447.020595 128.287035 
L 449.128157 131.857286 
L 450.952807 135.427538 
L 452.522534 138.997789 
L 453.861757 142.56804 
L 454.99187 146.138291 
L 455.918392 149.708543 
L 456.694372 153.434064 
L 457.236042 156.849045 
L 457.642916 160.419296 
L 457.894259 163.989548 
L 457.991916 169.344925 
L 457.770165 174.700302 
L 457.24567 180.055678 
L 456.429938 185.411055 
L 455.32911 190.766432 
L 453.951472 196.121809 
L 452.302588 201.477186 
L 450.383991 206.832563 
L 448.197203 212.18794 
L 445.740078 217.543317 
L 443.007227 222.898693 
L 439.997142 228.25407 
L 436.702252 233.609447 
L 433.110699 238.964824 
L 429.209963 244.320201 
L 424.986806 249.675578 
L 420.991859 254.379205 
L 417.16973 258.601206 
L 411.967935 263.956583 
L 406.334026 269.31196 
L 401.355477 273.705947 
L 395.852384 278.237588 
L 390.644724 282.228673 
L 385.289347 286.061146 
L 379.93397 289.6364 
L 378.264342 290.703687 
L 378.264342 290.703687 
" clip-path="url(#p2224b3994d)" style="fill: none; stroke: #0000ff; stroke-opacity: 0.6; stroke-width: 1.5"/>
    <path d="M 465.62 203.38901 
L 463.656376 208.617688 
L 461.405621 213.973065 
L 458.915004 219.328442 
L 456.178777 224.683819 
L 453.124121 230.16183 
L 449.553869 236.02678 
L 445.983618 241.436391 
L 442.413367 246.469687 
L 438.625635 251.460704 
L 434.270659 256.81608 
L 429.603795 262.171457 
L 424.562111 267.566363 
L 419.206734 272.906159 
L 415.147842 276.710975 
M 401.689967 288.064743 
L 397.785226 291.037017 
L 392.429849 294.895086 
L 387.074472 298.521078 
L 381.719095 301.92729 
L 376.363719 305.125163 
L 369.223216 309.072961 
L 363.167961 312.154975 
L 356.727337 315.172731 
L 351.313318 317.510352 
L 344.231457 320.289128 
L 338.87608 322.190588 
L 333.520704 323.919083 
L 328.165327 325.475398 
L 322.80995 326.860309 
L 315.669447 328.436682 
L 308.528945 329.698731 
L 303.173568 330.435607 
L 297.818191 330.988115 
L 292.462814 331.353251 
L 287.107437 331.522904 
L 281.75206 331.488491 
L 276.396683 331.240917 
L 271.041307 330.770541 
L 265.307092 330.006231 
L 260.330553 329.10423 
L 254.975176 327.87351 
L 249.619799 326.346214 
L 244.264422 324.489316 
L 240.264804 322.865729 
L 236.391607 321.080603 
L 232.939107 319.295477 
L 229.820263 317.510352 
L 226.413166 315.345177 
L 222.842915 312.810882 
L 219.272663 309.965456 
L 215.702412 306.752647 
L 212.132161 303.087645 
L 209.197343 299.659095 
L 206.492454 296.088844 
L 204.108739 292.518593 
L 202.004321 288.948342 
L 200.153559 285.37809 
L 198.533859 281.807839 
L 197.12523 278.237588 
L 195.909927 274.667337 
L 194.881492 271.097085 
L 194.020851 267.526834 
L 193.324887 263.956583 
L 192.560722 258.601206 
L 192.234423 255.030955 
L 191.999691 249.675578 
L 192.056021 244.320201 
L 192.389758 238.964824 
L 192.994918 233.609447 
L 193.857323 228.25407 
L 194.973178 222.898693 
L 196.334392 217.543317 
L 197.939715 212.18794 
L 199.787904 206.832563 
L 201.877726 201.477186 
L 204.207954 196.121809 
L 206.77738 190.766432 
L 209.598747 185.411055 
L 212.667375 180.055678 
L 215.992344 174.700302 
L 219.583188 169.344925 
L 223.449922 163.989548 
L 227.603072 158.634171 
L 232.057964 153.278794 
L 237.12392 147.612722 
L 242.479296 142.046151 
L 247.834673 136.858558 
L 253.363946 131.857286 
L 258.545427 127.470839 
L 264.259626 122.931658 
L 269.256181 119.204778 
L 274.611558 115.445511 
L 279.966935 111.912456 
L 285.322312 108.593749 
L 292.462814 104.492562 
L 298.074863 101.510151 
L 304.958693 98.136599 
L 310.31407 95.722351 
L 317.454573 92.778179 
L 322.80995 90.774462 
L 329.950452 88.376747 
L 337.090955 86.282683 
L 342.446332 84.912541 
L 349.586834 83.355657 
L 354.942211 82.394751 
L 360.297588 81.61089 
L 365.652965 81.012752 
L 371.008342 80.600031 
L 376.363719 80.380722 
L 381.719095 80.363287 
L 387.074472 80.556688 
L 392.429849 80.970428 
L 397.785226 81.614588 
L 403.140603 82.510836 
L 408.49598 83.669226 
L 413.851357 85.123791 
L 417.421608 86.268879 
L 420.991859 87.562493 
L 424.562111 89.019032 
L 428.421595 90.799397 
L 431.87477 92.584523 
L 435.272864 94.541105 
L 438.843116 96.837232 
L 442.83053 99.725025 
L 445.983618 102.296663 
L 449.553869 105.563131 
L 452.546068 108.650653 
L 454.909246 111.362807 
L 457.008052 114.00603 
L 459.545817 117.576281 
L 462.049749 121.596631 
L 463.834874 124.855623 
L 465.62 128.564777 
L 465.62 128.564777 
" clip-path="url(#p2224b3994d)" style="fill: none; stroke: #0000ff; stroke-opacity: 0.6; stroke-width: 1.5"/>
    <path d="M 465.62 230.776503 
L 462.049749 236.801344 
L 459.546421 240.74995 
L 455.940377 246.105327 
L 452.083279 251.460704 
L 447.768744 257.06387 
L 443.572388 262.171457 
L 438.843116 267.582242 
L 433.487739 273.311682 
L 428.132362 278.675886 
L 422.776985 283.713729 
L 416.840675 288.948342 
L 412.066231 292.918225 
L 407.816456 296.282484 
M 393.867769 306.314866 
L 387.587157 310.369849 
L 381.681761 313.940101 
L 374.578593 317.932938 
L 367.43809 321.635035 
L 360.297588 325.035372 
L 352.967151 328.221106 
L 346.016583 330.958934 
L 338.87608 333.49734 
L 333.035947 335.361608 
L 326.380201 337.261174 
L 319.239698 339.027301 
L 312.099196 340.510115 
L 306.743819 341.433004 
L 299.603317 342.412625 
L 294.24794 342.947625 
L 288.892563 343.310724 
L 283.537186 343.496475 
L 278.181809 343.497825 
L 272.826432 343.307341 
L 267.471055 342.917185 
L 262.115678 342.316237 
L 256.760302 341.48855 
L 251.404925 340.426307 
L 245.416328 338.931859 
L 240.694171 337.508682 
L 237.12392 336.275247 
L 233.553668 334.899645 
L 229.983417 333.369189 
L 226.413166 331.669637 
L 222.842915 329.784943 
L 219.272663 327.696967 
L 214.639973 324.650854 
L 212.132161 322.825036 
L 207.774514 319.295477 
L 204.991658 316.777678 
L 201.421407 313.189 
L 198.901089 310.369849 
L 196.021289 306.799598 
L 193.459569 303.229347 
L 190.710653 298.887514 
L 188.925528 295.705551 
L 187.140402 292.145225 
L 185.355276 288.083898 
L 184.301174 285.37809 
L 183.067899 281.807839 
L 181.785025 277.42528 
L 180.70169 272.882211 
L 179.727876 267.526834 
L 179.064281 262.171457 
L 178.687645 256.81608 
L 178.585277 251.460704 
L 178.745224 246.105327 
L 179.156216 240.74995 
L 179.807622 235.394573 
L 180.69804 230.039196 
L 181.814571 224.683819 
L 183.161263 219.328442 
L 184.729546 213.973065 
L 186.518035 208.617688 
L 188.525715 203.262312 
L 190.752088 197.906935 
L 193.203287 192.551558 
L 196.06603 186.828809 
L 198.772566 181.840804 
L 201.899678 176.485427 
L 205.262308 171.13005 
L 208.868453 165.774673 
L 212.726476 160.419296 
L 217.487538 154.260117 
L 221.235951 149.708543 
L 226.413166 143.807984 
L 231.768543 138.108954 
L 237.12392 132.773401 
L 242.479296 127.762586 
L 247.967246 122.931658 
L 254.469781 117.576281 
L 260.330553 113.060277 
L 266.426492 108.650653 
L 272.826432 104.319759 
L 278.181809 100.915767 
L 283.537186 97.702509 
L 290.677688 93.707254 
L 297.818191 90.024112 
L 304.958693 86.642623 
L 312.099196 83.55279 
L 319.239698 80.754141 
L 326.380201 78.233431 
L 333.520704 75.997311 
L 340.661206 74.038968 
L 347.801709 72.360702 
L 354.942211 70.964842 
L 362.082714 69.860441 
L 367.43809 69.223405 
L 372.793467 68.759968 
L 378.148844 68.46993 
L 383.504221 68.360135 
L 388.859598 68.43779 
L 394.214975 68.710494 
L 399.570352 69.186261 
L 404.925729 69.881318 
L 410.281106 70.803605 
L 415.636482 71.972987 
L 420.991859 73.404775 
L 426.347236 75.125111 
L 431.702613 77.16373 
L 435.272864 78.715079 
L 438.843116 80.437051 
L 442.413367 82.34586 
L 445.983618 84.45984 
L 450.170351 87.229146 
L 453.124121 89.397884 
L 457.037259 92.584523 
L 460.912342 96.154774 
L 464.341624 99.725025 
L 465.62 101.172309 
L 465.62 101.172309 
" clip-path="url(#p2224b3994d)" style="fill: none; stroke: #0000ff; stroke-opacity: 0.6; stroke-width: 1.5"/>
   </g>
   <g id="line2d_39"/>
   <g id="line2d_40">
    <path d="M 199.19 294.75 
L 266.259169 251.271594 
" clip-path="url(#p2224b3994d)" style="fill: none; stroke-dasharray: 3.7,1.6; stroke-dashoffset: 0; stroke: #ff0000; stroke-opacity: 0.3"/>
   </g>
   <g id="patch_4">
    <path d="M 110.38 383.56 
L 110.38 28.32 
" style="fill: none; stroke: #000000; stroke-width: 0.8; stroke-linejoin: miter; stroke-linecap: square"/>
   </g>
   <g id="patch_5">
    <path d="M 465.62 383.56 
L 465.62 28.32 
" style="fill: none; stroke: #000000; stroke-width: 0.8; stroke-linejoin: miter; stroke-linecap: square"/>
   </g>
   <g id="patch_6">
    <path d="M 110.38 383.56 
L 465.62 383.56 
" style="fill: none; stroke: #000000; stroke-width: 0.8; stroke-linejoin: miter; stroke-linecap: square"/>
   </g>
   <g id="patch_7">
    <path d="M 110.38 28.32 
L 465.62 28.32 
" style="fill: none; stroke: #000000; stroke-width: 0.8; stroke-linejoin: miter; stroke-linecap: square"/>
   </g>
   <g id="text_21">
    <!-- Origin -->
    <g transform="translate(208.071 308.0715) scale(0.1 -0.1)">
     <defs>
      <path id="DejaVuSans-4f" d="M 2522 4238 
Q 1834 4238 1429 3725 
Q 1025 3213 1025 2328 
Q 1025 1447 1429 934 
Q 1834 422 2522 422 
Q 3209 422 3611 934 
Q 4013 1447 4013 2328 
Q 4013 3213 3611 3725 
Q 3209 4238 2522 4238 
z
M 2522 4750 
Q 3503 4750 4090 4092 
Q 4678 3434 4678 2328 
Q 4678 1225 4090 567 
Q 3503 -91 2522 -91 
Q 1538 -91 948 565 
Q 359 1222 359 2328 
Q 359 3434 948 4092 
Q 1538 4750 2522 4750 
z
" transform="scale(0.015625)"/>
      <path id="DejaVuSans-72" d="M 2631 2963 
Q 2534 3019 2420 3045 
Q 2306 3072 2169 3072 
Q 1681 3072 1420 2755 
Q 1159 2438 1159 1844 
L 1159 0 
L 581 0 
L 581 3500 
L 1159 3500 
L 1159 2956 
Q 1341 3275 1631 3429 
Q 1922 3584 2338 3584 
Q 2397 3584 2469 3576 
Q 2541 3569 2628 3553 
L 2631 2963 
z
" transform="scale(0.015625)"/>
      <path id="DejaVuSans-69" d="M 603 3500 
L 1178 3500 
L 1178 0 
L 603 0 
L 603 3500 
z
M 603 4863 
L 1178 4863 
L 1178 4134 
L 603 4134 
L 603 4863 
z
" transform="scale(0.015625)"/>
      <path id="DejaVuSans-67" d="M 2906 1791 
Q 2906 2416 2648 2759 
Q 2391 3103 1925 3103 
Q 1463 3103 1205 2759 
Q 947 2416 947 1791 
Q 947 1169 1205 825 
Q 1463 481 1925 481 
Q 2391 481 2648 825 
Q 2906 1169 2906 1791 
z
M 3481 434 
Q 3481 -459 3084 -895 
Q 2688 -1331 1869 -1331 
Q 1566 -1331 1297 -1286 
Q 1028 -1241 775 -1147 
L 775 -588 
Q 1028 -725 1275 -790 
Q 1522 -856 1778 -856 
Q 2344 -856 2625 -561 
Q 2906 -266 2906 331 
L 2906 616 
Q 2728 306 2450 153 
Q 2172 0 1784 0 
Q 1141 0 747 490 
Q 353 981 353 1791 
Q 353 2603 747 3093 
Q 1141 3584 1784 3584 
Q 2172 3584 2450 3431 
Q 2728 3278 2906 2969 
L 2906 3500 
L 3481 3500 
L 3481 434 
z
" transform="scale(0.015625)"/>
      <path id="DejaVuSans-6e" d="M 3513 2113 
L 3513 0 
L 2938 0 
L 2938 2094 
Q 2938 2591 2744 2837 
Q 2550 3084 2163 3084 
Q 1697 3084 1428 2787 
Q 1159 2491 1159 1978 
L 1159 0 
L 581 0 
L 581 3500 
L 1159 3500 
L 1159 2956 
Q 1366 3272 1645 3428 
Q 1925 3584 2291 3584 
Q 2894 3584 3203 3211 
Q 3513 2838 3513 2113 
z
" transform="scale(0.015625)"/>
     </defs>
     <use xlink:href="#DejaVuSans-4f"/>
     <use xlink:href="#DejaVuSans-72" transform="translate(78.710938 0)"/>
     <use xlink:href="#DejaVuSans-69" transform="translate(119.824219 0)"/>
     <use xlink:href="#DejaVuSans-67" transform="translate(147.607422 0)"/>
     <use xlink:href="#DejaVuSans-69" transform="translate(211.083984 0)"/>
     <use xlink:href="#DejaVuSans-6e" transform="translate(238.867188 0)"/>
    </g>
   </g>
   <g id="text_22">
    <!-- Ridge Regression: MSE Contours and L2 Constraint -->
    <g transform="translate(84.21625 22.32) scale(0.16 -0.16)">
     <defs>
      <path id="DejaVuSans-52" d="M 2841 2188 
Q 3044 2119 3236 1894 
Q 3428 1669 3622 1275 
L 4263 0 
L 3584 0 
L 2988 1197 
Q 2756 1666 2539 1819 
Q 2322 1972 1947 1972 
L 1259 1972 
L 1259 0 
L 628 0 
L 628 4666 
L 2053 4666 
Q 2853 4666 3247 4331 
Q 3641 3997 3641 3322 
Q 3641 2881 3436 2590 
Q 3231 2300 2841 2188 
z
M 1259 4147 
L 1259 2491 
L 2053 2491 
Q 2509 2491 2742 2702 
Q 2975 2913 2975 3322 
Q 2975 3731 2742 3939 
Q 2509 4147 2053 4147 
L 1259 4147 
z
" transform="scale(0.015625)"/>
      <path id="DejaVuSans-64" d="M 2906 2969 
L 2906 4863 
L 3481 4863 
L 3481 0 
L 2906 0 
L 2906 525 
Q 2725 213 2448 61 
Q 2172 -91 1784 -91 
Q 1150 -91 751 415 
Q 353 922 353 1747 
Q 353 2572 751 3078 
Q 1150 3584 1784 3584 
Q 2172 3584 2448 3432 
Q 2725 3281 2906 2969 
z
M 947 1747 
Q 947 1113 1208 752 
Q 1469 391 1925 391 
Q 2381 391 2643 752 
Q 2906 1113 2906 1747 
Q 2906 2381 2643 2742 
Q 2381 3103 1925 3103 
Q 1469 3103 1208 2742 
Q 947 2381 947 1747 
z
" transform="scale(0.015625)"/>
      <path id="DejaVuSans-65" d="M 3597 1894 
L 3597 1613 
L 953 1613 
Q 991 1019 1311 708 
Q 1631 397 2203 397 
Q 2534 397 2845 478 
Q 3156 559 3463 722 
L 3463 178 
Q 3153 47 2828 -22 
Q 2503 -91 2169 -91 
Q 1331 -91 842 396 
Q 353 884 353 1716 
Q 353 2575 817 3079 
Q 1281 3584 2069 3584 
Q 2775 3584 3186 3129 
Q 3597 2675 3597 1894 
z
M 3022 2063 
Q 3016 2534 2758 2815 
Q 2500 3097 2075 3097 
Q 1594 3097 1305 2825 
Q 1016 2553 972 2059 
L 3022 2063 
z
" transform="scale(0.015625)"/>
      <path id="DejaVuSans-20" transform="scale(0.015625)"/>
      <path id="DejaVuSans-73" d="M 2834 3397 
L 2834 2853 
Q 2591 2978 2328 3040 
Q 2066 3103 1784 3103 
Q 1356 3103 1142 2972 
Q 928 2841 928 2578 
Q 928 2378 1081 2264 
Q 1234 2150 1697 2047 
L 1894 2003 
Q 2506 1872 2764 1633 
Q 3022 1394 3022 966 
Q 3022 478 2636 193 
Q 2250 -91 1575 -91 
Q 1294 -91 989 -36 
Q 684 19 347 128 
L 347 722 
Q 666 556 975 473 
Q 1284 391 1588 391 
Q 1994 391 2212 530 
Q 2431 669 2431 922 
Q 2431 1156 2273 1281 
Q 2116 1406 1581 1522 
L 1381 1569 
Q 847 1681 609 1914 
Q 372 2147 372 2553 
Q 372 3047 722 3315 
Q 1072 3584 1716 3584 
Q 2034 3584 2315 3537 
Q 2597 3491 2834 3397 
z
" transform="scale(0.015625)"/>
      <path id="DejaVuSans-6f" d="M 1959 3097 
Q 1497 3097 1228 2736 
Q 959 2375 959 1747 
Q 959 1119 1226 758 
Q 1494 397 1959 397 
Q 2419 397 2687 759 
Q 2956 1122 2956 1747 
Q 2956 2369 2687 2733 
Q 2419 3097 1959 3097 
z
M 1959 3584 
Q 2709 3584 3137 3096 
Q 3566 2609 3566 1747 
Q 3566 888 3137 398 
Q 2709 -91 1959 -91 
Q 1206 -91 779 398 
Q 353 888 353 1747 
Q 353 2609 779 3096 
Q 1206 3584 1959 3584 
z
" transform="scale(0.015625)"/>
      <path id="DejaVuSans-3a" d="M 750 794 
L 1409 794 
L 1409 0 
L 750 0 
L 750 794 
z
M 750 3309 
L 1409 3309 
L 1409 2516 
L 750 2516 
L 750 3309 
z
" transform="scale(0.015625)"/>
      <path id="DejaVuSans-4d" d="M 628 4666 
L 1569 4666 
L 2759 1491 
L 3956 4666 
L 4897 4666 
L 4897 0 
L 4281 0 
L 4281 4097 
L 3078 897 
L 2444 897 
L 1241 4097 
L 1241 0 
L 628 0 
L 628 4666 
z
" transform="scale(0.015625)"/>
      <path id="DejaVuSans-53" d="M 3425 4513 
L 3425 3897 
Q 3066 4069 2747 4153 
Q 2428 4238 2131 4238 
Q 1616 4238 1336 4038 
Q 1056 3838 1056 3469 
Q 1056 3159 1242 3001 
Q 1428 2844 1947 2747 
L 2328 2669 
Q 3034 2534 3370 2195 
Q 3706 1856 3706 1288 
Q 3706 609 3251 259 
Q 2797 -91 1919 -91 
Q 1588 -91 1214 -16 
Q 841 59 441 206 
L 441 856 
Q 825 641 1194 531 
Q 1563 422 1919 422 
Q 2459 422 2753 634 
Q 3047 847 3047 1241 
Q 3047 1584 2836 1778 
Q 2625 1972 2144 2069 
L 1759 2144 
Q 1053 2284 737 2584 
Q 422 2884 422 3419 
Q 422 4038 858 4394 
Q 1294 4750 2059 4750 
Q 2388 4750 2728 4690 
Q 3069 4631 3425 4513 
z
" transform="scale(0.015625)"/>
      <path id="DejaVuSans-45" d="M 628 4666 
L 3578 4666 
L 3578 4134 
L 1259 4134 
L 1259 2753 
L 3481 2753 
L 3481 2222 
L 1259 2222 
L 1259 531 
L 3634 531 
L 3634 0 
L 628 0 
L 628 4666 
z
" transform="scale(0.015625)"/>
      <path id="DejaVuSans-43" d="M 4122 4306 
L 4122 3641 
Q 3803 3938 3442 4084 
Q 3081 4231 2675 4231 
Q 1875 4231 1450 3742 
Q 1025 3253 1025 2328 
Q 1025 1406 1450 917 
Q 1875 428 2675 428 
Q 3081 428 3442 575 
Q 3803 722 4122 1019 
L 4122 359 
Q 3791 134 3420 21 
Q 3050 -91 2638 -91 
Q 1578 -91 968 557 
Q 359 1206 359 2328 
Q 359 3453 968 4101 
Q 1578 4750 2638 4750 
Q 3056 4750 3426 4639 
Q 3797 4528 4122 4306 
z
" transform="scale(0.015625)"/>
      <path id="DejaVuSans-74" d="M 1172 4494 
L 1172 3500 
L 2356 3500 
L 2356 3053 
L 1172 3053 
L 1172 1153 
Q 1172 725 1289 603 
Q 1406 481 1766 481 
L 2356 481 
L 2356 0 
L 1766 0 
Q 1100 0 847 248 
Q 594 497 594 1153 
L 594 3053 
L 172 3053 
L 172 3500 
L 594 3500 
L 594 4494 
L 1172 4494 
z
" transform="scale(0.015625)"/>
      <path id="DejaVuSans-75" d="M 544 1381 
L 544 3500 
L 1119 3500 
L 1119 1403 
Q 1119 906 1312 657 
Q 1506 409 1894 409 
Q 2359 409 2629 706 
Q 2900 1003 2900 1516 
L 2900 3500 
L 3475 3500 
L 3475 0 
L 2900 0 
L 2900 538 
Q 2691 219 2414 64 
Q 2138 -91 1772 -91 
Q 1169 -91 856 284 
Q 544 659 544 1381 
z
M 1991 3584 
L 1991 3584 
z
" transform="scale(0.015625)"/>
      <path id="DejaVuSans-61" d="M 2194 1759 
Q 1497 1759 1228 1600 
Q 959 1441 959 1056 
Q 959 750 1161 570 
Q 1363 391 1709 391 
Q 2188 391 2477 730 
Q 2766 1069 2766 1631 
L 2766 1759 
L 2194 1759 
z
M 3341 1997 
L 3341 0 
L 2766 0 
L 2766 531 
Q 2569 213 2275 61 
Q 1981 -91 1556 -91 
Q 1019 -91 701 211 
Q 384 513 384 1019 
Q 384 1609 779 1909 
Q 1175 2209 1959 2209 
L 2766 2209 
L 2766 2266 
Q 2766 2663 2505 2880 
Q 2244 3097 1772 3097 
Q 1472 3097 1187 3025 
Q 903 2953 641 2809 
L 641 3341 
Q 956 3463 1253 3523 
Q 1550 3584 1831 3584 
Q 2591 3584 2966 3190 
Q 3341 2797 3341 1997 
z
" transform="scale(0.015625)"/>
      <path id="DejaVuSans-4c" d="M 628 4666 
L 1259 4666 
L 1259 531 
L 3531 531 
L 3531 0 
L 628 0 
L 628 4666 
z
" transform="scale(0.015625)"/>
     </defs>
     <use xlink:href="#DejaVuSans-52"/>
     <use xlink:href="#DejaVuSans-69" transform="translate(69.482422 0)"/>
     <use xlink:href="#DejaVuSans-64" transform="translate(97.265625 0)"/>
     <use xlink:href="#DejaVuSans-67" transform="translate(160.742188 0)"/>
     <use xlink:href="#DejaVuSans-65" transform="translate(224.21875 0)"/>
     <use xlink:href="#DejaVuSans-20" transform="translate(285.742188 0)"/>
     <use xlink:href="#DejaVuSans-52" transform="translate(317.529297 0)"/>
     <use xlink:href="#DejaVuSans-65" transform="translate(382.511719 0)"/>
     <use xlink:href="#DejaVuSans-67" transform="translate(444.035156 0)"/>
     <use xlink:href="#DejaVuSans-72" transform="translate(507.511719 0)"/>
     <use xlink:href="#DejaVuSans-65" transform="translate(546.375 0)"/>
     <use xlink:href="#DejaVuSans-73" transform="translate(607.898438 0)"/>
     <use xlink:href="#DejaVuSans-73" transform="translate(659.998047 0)"/>
     <use xlink:href="#DejaVuSans-69" transform="translate(712.097656 0)"/>
     <use xlink:href="#DejaVuSans-6f" transform="translate(739.880859 0)"/>
     <use xlink:href="#DejaVuSans-6e" transform="translate(801.0625 0)"/>
     <use xlink:href="#DejaVuSans-3a" transform="translate(864.441406 0)"/>
     <use xlink:href="#DejaVuSans-20" transform="translate(898.132812 0)"/>
     <use xlink:href="#DejaVuSans-4d" transform="translate(929.919922 0)"/>
     <use xlink:href="#DejaVuSans-53" transform="translate(1016.199219 0)"/>
     <use xlink:href="#DejaVuSans-45" transform="translate(1079.675781 0)"/>
     <use xlink:href="#DejaVuSans-20" transform="translate(1142.859375 0)"/>
     <use xlink:href="#DejaVuSans-43" transform="translate(1174.646484 0)"/>
     <use xlink:href="#DejaVuSans-6f" transform="translate(1244.470703 0)"/>
     <use xlink:href="#DejaVuSans-6e" transform="translate(1305.652344 0)"/>
     <use xlink:href="#DejaVuSans-74" transform="translate(1369.03125 0)"/>
     <use xlink:href="#DejaVuSans-6f" transform="translate(1408.240234 0)"/>
     <use xlink:href="#DejaVuSans-75" transform="translate(1469.421875 0)"/>
     <use xlink:href="#DejaVuSans-72" transform="translate(1532.800781 0)"/>
     <use xlink:href="#DejaVuSans-73" transform="translate(1573.914062 0)"/>
     <use xlink:href="#DejaVuSans-20" transform="translate(1626.013672 0)"/>
     <use xlink:href="#DejaVuSans-61" transform="translate(1657.800781 0)"/>
     <use xlink:href="#DejaVuSans-6e" transform="translate(1719.080078 0)"/>
     <use xlink:href="#DejaVuSans-64" transform="translate(1782.458984 0)"/>
     <use xlink:href="#DejaVuSans-20" transform="translate(1845.935547 0)"/>
     <use xlink:href="#DejaVuSans-4c" transform="translate(1877.722656 0)"/>
     <use xlink:href="#DejaVuSans-32" transform="translate(1933.435547 0)"/>
     <use xlink:href="#DejaVuSans-20" transform="translate(1997.058594 0)"/>
     <use xlink:href="#DejaVuSans-43" transform="translate(2028.845703 0)"/>
     <use xlink:href="#DejaVuSans-6f" transform="translate(2098.669922 0)"/>
     <use xlink:href="#DejaVuSans-6e" transform="translate(2159.851562 0)"/>
     <use xlink:href="#DejaVuSans-73" transform="translate(2223.230469 0)"/>
     <use xlink:href="#DejaVuSans-74" transform="translate(2275.330078 0)"/>
     <use xlink:href="#DejaVuSans-72" transform="translate(2314.539062 0)"/>
     <use xlink:href="#DejaVuSans-61" transform="translate(2355.652344 0)"/>
     <use xlink:href="#DejaVuSans-69" transform="translate(2416.931641 0)"/>
     <use xlink:href="#DejaVuSans-6e" transform="translate(2444.714844 0)"/>
     <use xlink:href="#DejaVuSans-74" transform="translate(2508.09375 0)"/>
    </g>
   </g>
   <g id="text_23">
    <g clip-path="url(#p2224b3994d)">
     <!-- 0.5 -->
     <g style="fill: #0000ff; opacity: 0.6" transform="translate(363.755603 244.295884) rotate(-33.209975) scale(0.08 -0.08)">
      <use xlink:href="#DejaVuSans-30"/>
      <use xlink:href="#DejaVuSans-2e" transform="translate(63.623047 0)"/>
      <use xlink:href="#DejaVuSans-35" transform="translate(95.410156 0)"/>
     </g>
    </g>
   </g>
   <g id="text_24">
    <g clip-path="url(#p2224b3994d)">
     <!-- 1.0 -->
     <g style="fill: #0000ff; opacity: 0.6" transform="translate(287.915101 156.055245) rotate(-28.377048) scale(0.08 -0.08)">
      <use xlink:href="#DejaVuSans-31"/>
      <use xlink:href="#DejaVuSans-2e" transform="translate(63.623047 0)"/>
      <use xlink:href="#DejaVuSans-30" transform="translate(95.410156 0)"/>
     </g>
    </g>
   </g>
   <g id="text_25">
    <g clip-path="url(#p2224b3994d)">
     <!-- 1.5 -->
     <g style="fill: #0000ff; opacity: 0.6" transform="translate(303.309732 127.945854) rotate(-20.045774) scale(0.08 -0.08)">
      <use xlink:href="#DejaVuSans-31"/>
      <use xlink:href="#DejaVuSans-2e" transform="translate(63.623047 0)"/>
      <use xlink:href="#DejaVuSans-35" transform="translate(95.410156 0)"/>
     </g>
    </g>
   </g>
   <g id="text_26">
    <g clip-path="url(#p2224b3994d)">
     <!-- 2.0 -->
     <g style="fill: #0000ff; opacity: 0.6" transform="translate(366.022787 299.58739) rotate(-23.094629) scale(0.08 -0.08)">
      <use xlink:href="#DejaVuSans-32"/>
      <use xlink:href="#DejaVuSans-2e" transform="translate(63.623047 0)"/>
      <use xlink:href="#DejaVuSans-30" transform="translate(95.410156 0)"/>
     </g>
    </g>
   </g>
   <g id="text_27">
    <g clip-path="url(#p2224b3994d)">
     <!-- 2.5 -->
     <g style="fill: #0000ff; opacity: 0.6" transform="translate(404.285016 287.806557) rotate(-32.15158) scale(0.08 -0.08)">
      <use xlink:href="#DejaVuSans-32"/>
      <use xlink:href="#DejaVuSans-2e" transform="translate(63.623047 0)"/>
      <use xlink:href="#DejaVuSans-35" transform="translate(95.410156 0)"/>
     </g>
    </g>
   </g>
   <g id="text_28">
    <g clip-path="url(#p2224b3994d)">
     <!-- 3.0 -->
     <g style="fill: #0000ff; opacity: 0.6" transform="translate(396.336015 306.394613) rotate(-28.186196) scale(0.08 -0.08)">
      <use xlink:href="#DejaVuSans-33"/>
      <use xlink:href="#DejaVuSans-2e" transform="translate(63.623047 0)"/>
      <use xlink:href="#DejaVuSans-30" transform="translate(95.410156 0)"/>
     </g>
    </g>
   </g>
   <g id="line2d_41">
    <defs>
     <path id="m8184a7c54e" d="M 0 3 
C 0.795609 3 1.55874 2.683901 2.12132 2.12132 
C 2.683901 1.55874 3 0.795609 3 0 
C 3 -0.795609 2.683901 -1.55874 2.12132 -2.12132 
C 1.55874 -2.683901 0.795609 -3 0 -3 
C -0.795609 -3 -1.55874 -2.683901 -2.12132 -2.12132 
C -2.683901 -1.55874 -3 -0.795609 -3 0 
C -3 0.795609 -2.683901 1.55874 -2.12132 2.12132 
C -1.55874 2.683901 -0.795609 3 0 3 
z
" style="stroke: #000000"/>
    </defs>
    <g clip-path="url(#p2224b3994d)">
     <use xlink:href="#m8184a7c54e" x="199.19" y="294.75" style="stroke: #000000"/>
    </g>
   </g>
   <g id="line2d_42">
    <defs>
     <path id="mac0807b48c" d="M 0 6 
C 1.591219 6 3.117479 5.367802 4.242641 4.242641 
C 5.367802 3.117479 6 1.591219 6 0 
C 6 -1.591219 5.367802 -3.117479 4.242641 -4.242641 
C 3.117479 -5.367802 1.591219 -6 0 -6 
C -1.591219 -6 -3.117479 -5.367802 -4.242641 -4.242641 
C -5.367802 -3.117479 -6 -1.591219 -6 0 
C -6 1.591219 -5.367802 3.117479 -4.242641 4.242641 
C -3.117479 5.367802 -1.591219 6 0 6 
z
" style="stroke: #0000ff"/>
    </defs>
    <g clip-path="url(#p2224b3994d)">
     <use xlink:href="#mac0807b48c" x="332.405" y="205.94" style="fill: #0000ff; stroke: #0000ff"/>
    </g>
   </g>
   <g id="line2d_43">
    <defs>
     <path id="mf614884947" d="M 0 6 
C 1.591219 6 3.117479 5.367802 4.242641 4.242641 
C 5.367802 3.117479 6 1.591219 6 0 
C 6 -1.591219 5.367802 -3.117479 4.242641 -4.242641 
C 3.117479 -5.367802 1.591219 -6 0 -6 
C -1.591219 -6 -3.117479 -5.367802 -4.242641 -4.242641 
C -5.367802 -3.117479 -6 -1.591219 -6 0 
C -6 1.591219 -5.367802 3.117479 -4.242641 4.242641 
C -3.117479 5.367802 -1.591219 6 0 6 
z
" style="stroke: #ff0000"/>
    </defs>
    <g clip-path="url(#p2224b3994d)">
     <use xlink:href="#mf614884947" x="266.259169" y="251.271594" style="fill: #ff0000; stroke: #ff0000"/>
    </g>
   </g>
   <g id="legend_1">
    <g id="patch_8">
     <path d="M 266.96 111.675937 
L 457.92 111.675937 
Q 460.12 111.675937 460.12 109.475937 
L 460.12 36.02 
Q 460.12 33.82 457.92 33.82 
L 266.96 33.82 
Q 264.76 33.82 264.76 36.02 
L 264.76 109.475937 
Q 264.76 111.675937 266.96 111.675937 
z
" style="fill: #ffffff; opacity: 0.8; stroke: #cccccc; stroke-linejoin: miter"/>
    </g>
    <g id="line2d_44">
     <path d="M 269.16 42.728281 
L 280.16 42.728281 
L 291.16 42.728281 
" style="fill: none; stroke: #0000ff; stroke-opacity: 0.6; stroke-width: 1.5; stroke-linecap: square"/>
    </g>
    <g id="text_29">
     <!-- MSE contours -->
     <g transform="translate(299.96 46.578281) scale(0.11 -0.11)">
      <defs>
       <path id="DejaVuSans-63" d="M 3122 3366 
L 3122 2828 
Q 2878 2963 2633 3030 
Q 2388 3097 2138 3097 
Q 1578 3097 1268 2742 
Q 959 2388 959 1747 
Q 959 1106 1268 751 
Q 1578 397 2138 397 
Q 2388 397 2633 464 
Q 2878 531 3122 666 
L 3122 134 
Q 2881 22 2623 -34 
Q 2366 -91 2075 -91 
Q 1284 -91 818 406 
Q 353 903 353 1747 
Q 353 2603 823 3093 
Q 1294 3584 2113 3584 
Q 2378 3584 2631 3529 
Q 2884 3475 3122 3366 
z
" transform="scale(0.015625)"/>
      </defs>
      <use xlink:href="#DejaVuSans-4d"/>
      <use xlink:href="#DejaVuSans-53" transform="translate(86.279297 0)"/>
      <use xlink:href="#DejaVuSans-45" transform="translate(149.755859 0)"/>
      <use xlink:href="#DejaVuSans-20" transform="translate(212.939453 0)"/>
      <use xlink:href="#DejaVuSans-63" transform="translate(244.726562 0)"/>
      <use xlink:href="#DejaVuSans-6f" transform="translate(299.707031 0)"/>
      <use xlink:href="#DejaVuSans-6e" transform="translate(360.888672 0)"/>
      <use xlink:href="#DejaVuSans-74" transform="translate(424.267578 0)"/>
      <use xlink:href="#DejaVuSans-6f" transform="translate(463.476562 0)"/>
      <use xlink:href="#DejaVuSans-75" transform="translate(524.658203 0)"/>
      <use xlink:href="#DejaVuSans-72" transform="translate(588.037109 0)"/>
      <use xlink:href="#DejaVuSans-73" transform="translate(629.150391 0)"/>
     </g>
    </g>
    <g id="patch_9">
     <path d="M 269.16 62.835937 
L 291.16 62.835937 
L 291.16 55.135937 
L 269.16 55.135937 
L 269.16 62.835937 
z
" style="fill: none; stroke-dasharray: 9.25,4; stroke-dashoffset: 0; stroke: #ff0000; stroke-width: 2.5; stroke-linejoin: miter"/>
    </g>
    <g id="text_30">
     <!-- Ridge constraint: $||\beta||_2 \leq 0.9$ -->
     <g transform="translate(299.96 62.835937) scale(0.11 -0.11)">
      <defs>
       <path id="DejaVuSans-7c" d="M 1344 4891 
L 1344 -1509 
L 813 -1509 
L 813 4891 
L 1344 4891 
z
" transform="scale(0.015625)"/>
       <path id="DejaVuSans-2264" d="M 4684 3175 
L 1684 2309 
L 4684 1453 
L 4684 897 
L 678 2047 
L 678 2578 
L 4684 3725 
L 4684 3175 
z
M 678 531 
L 4684 531 
L 4684 0 
L 678 0 
L 678 531 
z
" transform="scale(0.015625)"/>
       <path id="DejaVuSans-39" d="M 703 97 
L 703 672 
Q 941 559 1184 500 
Q 1428 441 1663 441 
Q 2288 441 2617 861 
Q 2947 1281 2994 2138 
Q 2813 1869 2534 1725 
Q 2256 1581 1919 1581 
Q 1219 1581 811 2004 
Q 403 2428 403 3163 
Q 403 3881 828 4315 
Q 1253 4750 1959 4750 
Q 2769 4750 3195 4129 
Q 3622 3509 3622 2328 
Q 3622 1225 3098 567 
Q 2575 -91 1691 -91 
Q 1453 -91 1209 -44 
Q 966 3 703 97 
z
M 1959 2075 
Q 2384 2075 2632 2365 
Q 2881 2656 2881 3163 
Q 2881 3666 2632 3958 
Q 2384 4250 1959 4250 
Q 1534 4250 1286 3958 
Q 1038 3666 1038 3163 
Q 1038 2656 1286 2365 
Q 1534 2075 1959 2075 
z
" transform="scale(0.015625)"/>
      </defs>
      <use xlink:href="#DejaVuSans-52" transform="translate(0 0.390625)"/>
      <use xlink:href="#DejaVuSans-69" transform="translate(69.482422 0.390625)"/>
      <use xlink:href="#DejaVuSans-64" transform="translate(97.265625 0.390625)"/>
      <use xlink:href="#DejaVuSans-67" transform="translate(160.742188 0.390625)"/>
      <use xlink:href="#DejaVuSans-65" transform="translate(224.21875 0.390625)"/>
      <use xlink:href="#DejaVuSans-20" transform="translate(285.742188 0.390625)"/>
      <use xlink:href="#DejaVuSans-63" transform="translate(317.529297 0.390625)"/>
      <use xlink:href="#DejaVuSans-6f" transform="translate(372.509766 0.390625)"/>
      <use xlink:href="#DejaVuSans-6e" transform="translate(433.691406 0.390625)"/>
      <use xlink:href="#DejaVuSans-73" transform="translate(497.070312 0.390625)"/>
      <use xlink:href="#DejaVuSans-74" transform="translate(549.169922 0.390625)"/>
      <use xlink:href="#DejaVuSans-72" transform="translate(588.378906 0.390625)"/>
      <use xlink:href="#DejaVuSans-61" transform="translate(629.492188 0.390625)"/>
      <use xlink:href="#DejaVuSans-69" transform="translate(690.771484 0.390625)"/>
      <use xlink:href="#DejaVuSans-6e" transform="translate(718.554688 0.390625)"/>
      <use xlink:href="#DejaVuSans-74" transform="translate(781.933594 0.390625)"/>
      <use xlink:href="#DejaVuSans-3a" transform="translate(821.142578 0.390625)"/>
      <use xlink:href="#DejaVuSans-20" transform="translate(854.833984 0.390625)"/>
      <use xlink:href="#DejaVuSans-7c" transform="translate(886.621094 0.390625)"/>
      <use xlink:href="#DejaVuSans-7c" transform="translate(920.3125 0.390625)"/>
      <use xlink:href="#DejaVuSans-Oblique-3b2" transform="translate(954.003906 0.390625)"/>
      <use xlink:href="#DejaVuSans-7c" transform="translate(1017.822266 0.390625)"/>
      <use xlink:href="#DejaVuSans-7c" transform="translate(1051.513672 0.390625)"/>
      <use xlink:href="#DejaVuSans-32" transform="translate(1086.162109 -16.015625) scale(0.7)"/>
      <use xlink:href="#DejaVuSans-2264" transform="translate(1152.915039 0.390625)"/>
      <use xlink:href="#DejaVuSans-30" transform="translate(1256.186523 0.390625)"/>
      <use xlink:href="#DejaVuSans-2e" transform="translate(1319.80957 0.390625)"/>
      <use xlink:href="#DejaVuSans-39" transform="translate(1351.59668 0.390625)"/>
     </g>
    </g>
    <g id="line2d_45">
     <g>
      <use xlink:href="#mac0807b48c" x="280.16" y="79.665937" style="fill: #0000ff; stroke: #0000ff"/>
     </g>
    </g>
    <g id="text_31">
     <!-- $\hat \beta_\mathrm{OLS}$ -->
     <g transform="translate(299.96 83.515937) scale(0.11 -0.11)">
      <defs>
       <path id="DejaVuSans-302" d="M -1831 5119 
L -1369 5119 
L -603 3944 
L -1038 3944 
L -1600 4709 
L -2163 3944 
L -2597 3944 
L -1831 5119 
z
M -1600 3584 
L -1600 3584 
z
" transform="scale(0.015625)"/>
      </defs>
      <use xlink:href="#DejaVuSans-302" transform="translate(62.785156 34.015625)"/>
      <use xlink:href="#DejaVuSans-Oblique-3b2" transform="translate(0 0.90625)"/>
      <use xlink:href="#DejaVuSans-4f" transform="translate(64.775391 -15.5) scale(0.7)"/>
      <use xlink:href="#DejaVuSans-4c" transform="translate(119.873047 -15.5) scale(0.7)"/>
      <use xlink:href="#DejaVuSans-53" transform="translate(158.87207 -15.5) scale(0.7)"/>
     </g>
    </g>
    <g id="line2d_46">
     <g>
      <use xlink:href="#mf614884947" x="280.16" y="100.015937" style="fill: #ff0000; stroke: #ff0000"/>
     </g>
    </g>
    <g id="text_32">
     <!-- $\hat \beta_\mathrm{Ridge}$ -->
     <g transform="translate(299.96 103.865937) scale(0.11 -0.11)">
      <use xlink:href="#DejaVuSans-302" transform="translate(62.785156 34.015625)"/>
      <use xlink:href="#DejaVuSans-Oblique-3b2" transform="translate(0 0.90625)"/>
      <use xlink:href="#DejaVuSans-52" transform="translate(64.775391 -15.5) scale(0.7)"/>
      <use xlink:href="#DejaVuSans-69" transform="translate(113.413086 -15.5) scale(0.7)"/>
      <use xlink:href="#DejaVuSans-64" transform="translate(132.861328 -15.5) scale(0.7)"/>
      <use xlink:href="#DejaVuSans-67" transform="translate(177.294922 -15.5) scale(0.7)"/>
      <use xlink:href="#DejaVuSans-65" transform="translate(221.728516 -15.5) scale(0.7)"/>
     </g>
    </g>
   </g>
  </g>
 </g>
 <defs>
  <clipPath id="p2224b3994d">
   <rect x="110.38" y="28.32" width="355.24" height="355.24"/>
  </clipPath>
 </defs>
</svg>
