<?xml version="1.0" encoding="UTF-8" standalone="no"?>
<!DOCTYPE svg PUBLIC "-//W3C//DTD SVG 1.1//EN" "http://www.w3.org/Graphics/SVG/1.1/DTD/svg11.dtd">
<svg xmlns="http://www.w3.org/2000/svg" xmlns:xlink="http://www.w3.org/1999/xlink" version="1.1" width="183.3297pt" height="165.0426pt" viewBox="0 0 183.3297 165.0426">
<g enable-background="new">
<path transform="matrix(1,0,0,-1,12.134308,24.468079)" d="M 9.96277 -28.3468 C 9.96277 -22.84445 5.50235 -18.38403 0 -18.38403 C -5.50235 -18.38403 -9.96277 -22.84445 -9.96277 -28.3468 C -9.96277 -33.84915 -5.50235 -38.30957 0 -38.30957 C 5.50235 -38.30957 9.96277 -33.84915 9.96277 -28.3468 Z M 0 -28.3468 " fill="#ffcc99"/>
<text xml:space="preserve" transform="matrix(1 0 -0 1 -155.1097 667.7611)" font-size="6.9738" font-family="CMMI7" font-style="italic"><tspan y="-613.062" x="162.034">X</tspan></text>
<text xml:space="preserve" transform="matrix(1 0 -0 1 -155.1097 667.7611)" font-size="4.9813" font-family="CMR5"><tspan y="-612.06607" x="168.567">1</tspan></text>
<path transform="matrix(1,0,0,-1,12.134308,24.468079)" d="M 9.96277 -56.69362 C 9.96277 -51.19125 5.50235 -46.73085 0 -46.73085 C -5.50235 -46.73085 -9.96277 -51.19125 -9.96277 -56.69362 C -9.96277 -62.19597 -5.50235 -66.65639 0 -66.65639 C 5.50235 -66.65639 9.96277 -62.19597 9.96277 -56.69362 Z M 0 -56.69362 " fill="#ffcc99"/>
<text xml:space="preserve" transform="matrix(1 0 -0 1 -155.1097 667.7611)" font-size="6.9738" font-family="CMMI7" font-style="italic"><tspan y="-584.716" x="162.034">X</tspan></text>
<text xml:space="preserve" transform="matrix(1 0 -0 1 -155.1097 667.7611)" font-size="4.9813" font-family="CMR5"><tspan y="-583.719" x="168.567">2</tspan></text>
<path transform="matrix(1,0,0,-1,12.134308,24.468079)" d="M 9.96277 -85.04042 C 9.96277 -79.53807 5.50235 -75.07765 0 -75.07765 C -5.50235 -75.07765 -9.96277 -79.53807 -9.96277 -85.04042 C -9.96277 -90.54277 -5.50235 -95.00319 0 -95.00319 C 5.50235 -95.00319 9.96277 -90.54277 9.96277 -85.04042 Z M 0 -85.04042 " fill="#ffcc99"/>
<text xml:space="preserve" transform="matrix(1 0 -0 1 -155.1097 667.7611)" font-size="6.9738" font-family="CMMI7" font-style="italic"><tspan y="-556.369" x="162.034">X</tspan></text>
<text xml:space="preserve" transform="matrix(1 0 -0 1 -155.1097 667.7611)" font-size="4.9813" font-family="CMR5"><tspan y="-555.37307" x="168.567">3</tspan></text>
<path transform="matrix(1,0,0,-1,12.134308,24.468079)" d="M 9.96277 -113.38724 C 9.96277 -107.88487 5.50235 -103.42447 0 -103.42447 C -5.50235 -103.42447 -9.96277 -107.88487 -9.96277 -113.38724 C -9.96277 -118.88959 -5.50235 -123.35 0 -123.35 C 5.50235 -123.35 9.96277 -118.88959 9.96277 -113.38724 Z M 0 -113.38724 " fill="#ffcc99"/>
<text xml:space="preserve" transform="matrix(1 0 -0 1 -155.1097 667.7611)" font-size="6.9738" font-family="CMMI7" font-style="italic"><tspan y="-528.023" x="162.034">X</tspan></text>
<text xml:space="preserve" transform="matrix(1 0 -0 1 -155.1097 667.7611)" font-size="4.9813" font-family="CMR5"><tspan y="-527.026" x="168.567">4</tspan></text>
<path transform="matrix(1,0,0,-1,12.134308,24.468079)" d="M 80.8298 -14.1734 C 80.8298 -8.67105 76.3694 -4.21063 70.86703 -4.21063 C 65.36469 -4.21063 60.90427 -8.67105 60.90427 -14.1734 C 60.90427 -19.67577 65.36469 -24.13617 70.86703 -24.13617 C 76.3694 -24.13617 80.8298 -19.67577 80.8298 -14.1734 Z M 70.86703 -14.1734 " fill="#ccccff"/>
<text xml:space="preserve" transform="matrix(1 0 -0 1 -155.1097 667.76107)" font-size="6.9738" font-family="CMMI7" font-style="italic"><tspan y="-627.235" x="233.171">A</tspan></text>
<text xml:space="preserve" transform="matrix(1 0 -0 1 -155.1097 667.76107)" font-size="4.9813" font-family="CMR5"><tspan y="-626.239" x="239.162">1</tspan></text>
<path transform="matrix(1,0,0,-1,12.134308,24.468079)" d="M 80.8298 -42.52023 C 80.8298 -37.01787 76.3694 -32.55746 70.86703 -32.55746 C 65.36469 -32.55746 60.90427 -37.01787 60.90427 -42.52023 C 60.90427 -48.02258 65.36469 -52.483 70.86703 -52.483 C 76.3694 -52.483 80.8298 -48.02258 80.8298 -42.52023 Z M 70.86703 -42.52023 " fill="#ccccff"/>
<text xml:space="preserve" transform="matrix(1 0 -0 1 -155.1097 667.76107)" font-size="6.9738" font-family="CMMI7" font-style="italic"><tspan y="-598.889" x="233.171">A</tspan></text>
<text xml:space="preserve" transform="matrix(1 0 -0 1 -155.1097 667.76107)" font-size="4.9813" font-family="CMR5"><tspan y="-597.893" x="239.162">2</tspan></text>
<path transform="matrix(1,0,0,-1,12.134308,24.468079)" d="M 80.8298 -70.86705 C 80.8298 -65.3647 76.3694 -60.90428 70.86703 -60.90428 C 65.36469 -60.90428 60.90427 -65.3647 60.90427 -70.86705 C 60.90427 -76.36942 65.36469 -80.82982 70.86703 -80.82982 C 76.3694 -80.82982 80.8298 -76.36942 80.8298 -70.86705 Z M 70.86703 -70.86705 " fill="#ccccff"/>
<text xml:space="preserve" transform="matrix(1 0 -0 1 -155.1097 667.76107)" font-size="6.9738" font-family="CMMI7" font-style="italic"><tspan y="-570.542" x="233.171">A</tspan></text>
<text xml:space="preserve" transform="matrix(1 0 -0 1 -155.1097 667.76107)" font-size="4.9813" font-family="CMR5"><tspan y="-569.546" x="239.162">3</tspan></text>
<path transform="matrix(1,0,0,-1,12.134308,24.468079)" d="M 80.8298 -99.21388 C 80.8298 -93.71152 76.3694 -89.25111 70.86703 -89.25111 C 65.36469 -89.25111 60.90427 -93.71152 60.90427 -99.21388 C 60.90427 -104.71623 65.36469 -109.17665 70.86703 -109.17665 C 76.3694 -109.17665 80.8298 -104.71623 80.8298 -99.21388 Z M 70.86703 -99.21388 " fill="#ccccff"/>
<text xml:space="preserve" transform="matrix(1 0 -0 1 -155.1097 667.76107)" font-size="6.9738" font-family="CMMI7" font-style="italic"><tspan y="-542.196" x="233.171">A</tspan></text>
<text xml:space="preserve" transform="matrix(1 0 -0 1 -155.1097 667.76107)" font-size="4.9813" font-family="CMR5"><tspan y="-541.2" x="239.162">4</tspan></text>
<path transform="matrix(1,0,0,-1,12.134308,24.468079)" d="M 80.8298 -127.5607 C 80.8298 -122.05835 76.3694 -117.59793 70.86703 -117.59793 C 65.36469 -117.59793 60.90427 -122.05835 60.90427 -127.5607 C 60.90427 -133.06307 65.36469 -137.52347 70.86703 -137.52347 C 76.3694 -137.52347 80.8298 -133.06307 80.8298 -127.5607 Z M 70.86703 -127.5607 " fill="#ccccff"/>
<text xml:space="preserve" transform="matrix(1 0 -0 1 -155.1097 667.7611)" font-size="6.9738" font-family="CMMI7" font-style="italic"><tspan y="-513.849" x="233.171">A</tspan></text>
<text xml:space="preserve" transform="matrix(1 0 -0 1 -155.1097 667.7611)" font-size="4.9813" font-family="CMR5"><tspan y="-512.853" x="239.162">5</tspan></text>
<path transform="matrix(1,0,0,-1,12.134308,24.468079)" d="M 151.69686 -70.86705 C 151.69686 -65.3647 147.23645 -60.90428 141.73409 -60.90428 C 136.23174 -60.90428 131.77132 -65.3647 131.77132 -70.86705 C 131.77132 -76.36942 136.23174 -80.82982 141.73409 -80.82982 C 147.23645 -80.82982 151.69686 -76.36942 151.69686 -70.86705 Z M 141.73409 -70.86705 " fill="#ffcccc"/>
<text xml:space="preserve" transform="matrix(1 0 -0 1 -155.1097 667.76107)" font-size="6.9738" font-family="CMMI7" font-style="italic"><tspan y="-570.683" x="299.992">f</tspan></text>
<text xml:space="preserve" transform="matrix(1 0 -0 1 -155.1097 667.76107)" font-size="6.9738" font-family="CMR7"><tspan y="-570.683" x="304.659">(</tspan></text>
<text xml:space="preserve" transform="matrix(1 0 -0 1 -155.1097 667.76107)" font-size="6.9738" font-family="CMMI7" font-style="italic"><tspan y="-570.683" x="307.772">X</tspan></text>
<text xml:space="preserve" transform="matrix(1 0 -0 1 -155.1097 667.76107)" font-size="6.9738" font-family="CMR7"><tspan y="-570.683" x="314.848">)</tspan></text>
<text xml:space="preserve" transform="matrix(1 0 -0 1 -155.10971 667.7611)" font-size="6.9738" font-family="CMMI7" font-style="italic"><tspan y="-570.044" x="330.993">Y</tspan></text>
<path transform="matrix(1,0,0,-1,12.134308,24.468079)" stroke-width=".3985" stroke-linecap="butt" stroke-miterlimit="10" stroke-linejoin="miter" fill="none" stroke="#929292" d="M 152.89238 -70.86705 L 159.44954 -70.86705 "/>
<path transform="matrix(1,0,0,-1,171.58385,95.33513)" stroke-width=".31879" stroke-linecap="round" stroke-linejoin="round" fill="none" stroke="#929292" d="M -1.19551 1.59401 C -1.09587 .99626 0 .09961 .29886 0 C 0 -.09961 -1.09587 -.99626 -1.19551 -1.59401 "/>
<path transform="matrix(1,0,0,-1,12.134308,24.468079)" stroke-width=".3985" stroke-linecap="butt" stroke-miterlimit="10" stroke-linejoin="miter" fill="none" stroke="#929292" d="M 9.98337 -26.3501 L 59.45467 -16.45555 "/>
<path transform="matrix(.98242,-.19647,-.19647,-.98242,71.588977,40.92365)" stroke-width=".31879" stroke-linecap="round" stroke-linejoin="round" fill="none" stroke="#929292" d="M -1.19551 1.59401 C -1.09587 .99626 0 .09961 .29886 0 C 0 -.09961 -1.09587 -.99626 -1.19551 -1.59401 "/>
<path transform="matrix(1,0,0,-1,12.134308,24.468079)" stroke-width=".3985" stroke-linecap="butt" stroke-miterlimit="10" stroke-linejoin="miter" fill="none" stroke="#929292" d="M 9.98337 -30.3435 L 59.45467 -40.23808 "/>
<path transform="matrix(.98242,.19647,.19647,-.98242,71.588977,64.70615)" stroke-width=".31879" stroke-linecap="round" stroke-linejoin="round" fill="none" stroke="#929292" d="M -1.19551 1.59401 C -1.09587 .99626 0 .09961 .29886 0 C 0 -.09961 -1.09587 -.99626 -1.19551 -1.59401 "/>
<path transform="matrix(1,0,0,-1,12.134308,24.468079)" stroke-width=".3985" stroke-linecap="butt" stroke-miterlimit="10" stroke-linejoin="miter" fill="none" stroke="#929292" d="M 8.7522 -33.59837 L 60.86755 -64.86754 "/>
<path transform="matrix(.8575,.51454,.51454,-.8575,73.00186,89.33562)" stroke-width=".31879" stroke-linecap="round" stroke-linejoin="round" fill="none" stroke="#929292" d="M -1.19551 1.59401 C -1.09587 .99626 0 .09961 .29886 0 C 0 -.09961 -1.09587 -.99626 -1.19551 -1.59401 "/>
<path transform="matrix(1,0,0,-1,12.134308,24.468079)" stroke-width=".3985" stroke-linecap="butt" stroke-miterlimit="10" stroke-linejoin="miter" fill="none" stroke="#929292" d="M 7.18594 -35.53244 L 62.65288 -90.99973 "/>
<path transform="matrix(.7071,.7071,.7071,-.7071,74.787189,115.46781)" stroke-width=".31879" stroke-linecap="round" stroke-linejoin="round" fill="none" stroke="#929292" d="M -1.19551 1.59401 C -1.09587 .99626 0 .09961 .29886 0 C 0 -.09961 -1.09587 -.99626 -1.19551 -1.59401 "/>
<path transform="matrix(1,0,0,-1,12.134308,24.468079)" stroke-width=".3985" stroke-linecap="butt" stroke-miterlimit="10" stroke-linejoin="miter" fill="none" stroke="#929292" d="M 5.91832 -36.63275 L 64.10132 -118.08875 "/>
<path transform="matrix(.58247,.81538,.81538,-.58247,76.23563,142.55681)" stroke-width=".31879" stroke-linecap="round" stroke-linejoin="round" fill="none" stroke="#929292" d="M -1.19551 1.59401 C -1.09587 .99626 0 .09961 .29886 0 C 0 -.09961 -1.09587 -.99626 -1.19551 -1.59401 "/>
<path transform="matrix(1,0,0,-1,12.134308,24.468079)" stroke-width=".3985" stroke-linecap="butt" stroke-miterlimit="10" stroke-linejoin="miter" fill="none" stroke="#929292" d="M 8.7522 -51.44205 L 60.86755 -20.17293 "/>
<path transform="matrix(.8575,-.51454,-.51454,-.8575,73.00186,44.641008)" stroke-width=".31879" stroke-linecap="round" stroke-linejoin="round" fill="none" stroke="#929292" d="M -1.19551 1.59401 C -1.09587 .99626 0 .09961 .29886 0 C 0 -.09961 -1.09587 -.99626 -1.19551 -1.59401 "/>
<path transform="matrix(1,0,0,-1,12.134308,24.468079)" stroke-width=".3985" stroke-linecap="butt" stroke-miterlimit="10" stroke-linejoin="miter" fill="none" stroke="#929292" d="M 9.98337 -54.69691 L 59.45467 -44.80238 "/>
<path transform="matrix(.98242,-.19647,-.19647,-.98242,71.588977,69.27048)" stroke-width=".31879" stroke-linecap="round" stroke-linejoin="round" fill="none" stroke="#929292" d="M -1.19551 1.59401 C -1.09587 .99626 0 .09961 .29886 0 C 0 -.09961 -1.09587 -.99626 -1.19551 -1.59401 "/>
<path transform="matrix(1,0,0,-1,12.134308,24.468079)" stroke-width=".3985" stroke-linecap="butt" stroke-miterlimit="10" stroke-linejoin="miter" fill="none" stroke="#929292" d="M 9.98337 -58.69032 L 59.45467 -68.5849 "/>
<path transform="matrix(.98242,.19647,.19647,-.98242,71.588977,93.052959)" stroke-width=".31879" stroke-linecap="round" stroke-linejoin="round" fill="none" stroke="#929292" d="M -1.19551 1.59401 C -1.09587 .99626 0 .09961 .29886 0 C 0 -.09961 -1.09587 -.99626 -1.19551 -1.59401 "/>
<path transform="matrix(1,0,0,-1,12.134308,24.468079)" stroke-width=".3985" stroke-linecap="butt" stroke-miterlimit="10" stroke-linejoin="miter" fill="none" stroke="#929292" d="M 8.7522 -61.94518 L 60.86755 -93.21436 "/>
<path transform="matrix(.8575,.51454,.51454,-.8575,73.00186,117.68244)" stroke-width=".31879" stroke-linecap="round" stroke-linejoin="round" fill="none" stroke="#929292" d="M -1.19551 1.59401 C -1.09587 .99626 0 .09961 .29886 0 C 0 -.09961 -1.09587 -.99626 -1.19551 -1.59401 "/>
<path transform="matrix(1,0,0,-1,12.134308,24.468079)" stroke-width=".3985" stroke-linecap="butt" stroke-miterlimit="10" stroke-linejoin="miter" fill="none" stroke="#929292" d="M 7.18594 -63.87926 L 62.65288 -119.34654 "/>
<path transform="matrix(.7071,.7071,.7071,-.7071,74.787189,143.81462)" stroke-width=".31879" stroke-linecap="round" stroke-linejoin="round" fill="none" stroke="#929292" d="M -1.19551 1.59401 C -1.09587 .99626 0 .09961 .29886 0 C 0 -.09961 -1.09587 -.99626 -1.19551 -1.59401 "/>
<path transform="matrix(1,0,0,-1,12.134308,24.468079)" stroke-width=".3985" stroke-linecap="butt" stroke-miterlimit="10" stroke-linejoin="miter" fill="none" stroke="#929292" d="M 7.18564 -77.85448 L 62.65288 -22.38757 "/>
<path transform="matrix(.7071,-.7071,-.7071,-.7071,74.787189,46.855649)" stroke-width=".31879" stroke-linecap="round" stroke-linejoin="round" fill="none" stroke="#929292" d="M -1.19551 1.59401 C -1.09587 .99626 0 .09961 .29886 0 C 0 -.09961 -1.09587 -.99626 -1.19551 -1.59401 "/>
<path transform="matrix(1,0,0,-1,12.134308,24.468079)" stroke-width=".3985" stroke-linecap="butt" stroke-miterlimit="10" stroke-linejoin="miter" fill="none" stroke="#929292" d="M 8.7522 -79.78885 L 60.86755 -48.51974 "/>
<path transform="matrix(.8575,-.51454,-.51454,-.8575,73.00186,72.98782)" stroke-width=".31879" stroke-linecap="round" stroke-linejoin="round" fill="none" stroke="#929292" d="M -1.19551 1.59401 C -1.09587 .99626 0 .09961 .29886 0 C 0 -.09961 -1.09587 -.99626 -1.19551 -1.59401 "/>
<path transform="matrix(1,0,0,-1,12.134308,24.468079)" stroke-width=".3985" stroke-linecap="butt" stroke-miterlimit="10" stroke-linejoin="miter" fill="none" stroke="#929292" d="M 9.98337 -83.04372 L 59.45467 -73.1492 "/>
<path transform="matrix(.98242,-.19647,-.19647,-.98242,71.588977,97.6173)" stroke-width=".31879" stroke-linecap="round" stroke-linejoin="round" fill="none" stroke="#929292" d="M -1.19551 1.59401 C -1.09587 .99626 0 .09961 .29886 0 C 0 -.09961 -1.09587 -.99626 -1.19551 -1.59401 "/>
<path transform="matrix(1,0,0,-1,12.134308,24.468079)" stroke-width=".3985" stroke-linecap="butt" stroke-miterlimit="10" stroke-linejoin="miter" fill="none" stroke="#929292" d="M 9.98337 -87.03712 L 59.45467 -96.93173 "/>
<path transform="matrix(.98242,.19647,.19647,-.98242,71.588977,121.399799)" stroke-width=".31879" stroke-linecap="round" stroke-linejoin="round" fill="none" stroke="#929292" d="M -1.19551 1.59401 C -1.09587 .99626 0 .09961 .29886 0 C 0 -.09961 -1.09587 -.99626 -1.19551 -1.59401 "/>
<path transform="matrix(1,0,0,-1,12.134308,24.468079)" stroke-width=".3985" stroke-linecap="butt" stroke-miterlimit="10" stroke-linejoin="miter" fill="none" stroke="#929292" d="M 8.7522 -90.29199 L 60.86755 -121.56119 "/>
<path transform="matrix(.8575,.51454,.51454,-.8575,73.00186,146.02927)" stroke-width=".31879" stroke-linecap="round" stroke-linejoin="round" fill="none" stroke="#929292" d="M -1.19551 1.59401 C -1.09587 .99626 0 .09961 .29886 0 C 0 -.09961 -1.09587 -.99626 -1.19551 -1.59401 "/>
<path transform="matrix(1,0,0,-1,12.134308,24.468079)" stroke-width=".3985" stroke-linecap="butt" stroke-miterlimit="10" stroke-linejoin="miter" fill="none" stroke="#929292" d="M 5.91832 -105.10129 L 64.10132 -23.64536 "/>
<path transform="matrix(.58247,-.81538,-.81538,-.58247,76.23563,48.11345)" stroke-width=".31879" stroke-linecap="round" stroke-linejoin="round" fill="none" stroke="#929292" d="M -1.19551 1.59401 C -1.09587 .99626 0 .09961 .29886 0 C 0 -.09961 -1.09587 -.99626 -1.19551 -1.59401 "/>
<path transform="matrix(1,0,0,-1,12.134308,24.468079)" stroke-width=".3985" stroke-linecap="butt" stroke-miterlimit="10" stroke-linejoin="miter" fill="none" stroke="#929292" d="M 7.18564 -106.2013 L 62.65288 -50.73439 "/>
<path transform="matrix(.7071,-.7071,-.7071,-.7071,74.787189,75.20247)" stroke-width=".31879" stroke-linecap="round" stroke-linejoin="round" fill="none" stroke="#929292" d="M -1.19551 1.59401 C -1.09587 .99626 0 .09961 .29886 0 C 0 -.09961 -1.09587 -.99626 -1.19551 -1.59401 "/>
<path transform="matrix(1,0,0,-1,12.134308,24.468079)" stroke-width=".3985" stroke-linecap="butt" stroke-miterlimit="10" stroke-linejoin="miter" fill="none" stroke="#929292" d="M 8.7522 -108.13567 L 60.86755 -76.86658 "/>
<path transform="matrix(.8575,-.51454,-.51454,-.8575,73.00186,101.334659)" stroke-width=".31879" stroke-linecap="round" stroke-linejoin="round" fill="none" stroke="#929292" d="M -1.19551 1.59401 C -1.09587 .99626 0 .09961 .29886 0 C 0 -.09961 -1.09587 -.99626 -1.19551 -1.59401 "/>
<path transform="matrix(1,0,0,-1,12.134308,24.468079)" stroke-width=".3985" stroke-linecap="butt" stroke-miterlimit="10" stroke-linejoin="miter" fill="none" stroke="#929292" d="M 9.98337 -111.39053 L 59.45467 -101.49603 "/>
<path transform="matrix(.98242,-.19647,-.19647,-.98242,71.588977,125.96413)" stroke-width=".31879" stroke-linecap="round" stroke-linejoin="round" fill="none" stroke="#929292" d="M -1.19551 1.59401 C -1.09587 .99626 0 .09961 .29886 0 C 0 -.09961 -1.09587 -.99626 -1.19551 -1.59401 "/>
<path transform="matrix(1,0,0,-1,12.134308,24.468079)" stroke-width=".3985" stroke-linecap="butt" stroke-miterlimit="10" stroke-linejoin="miter" fill="none" stroke="#929292" d="M 9.98337 -115.38394 L 59.45467 -125.27855 "/>
<path transform="matrix(.98242,.19647,.19647,-.98242,71.588977,149.74662)" stroke-width=".31879" stroke-linecap="round" stroke-linejoin="round" fill="none" stroke="#929292" d="M -1.19551 1.59401 C -1.09587 .99626 0 .09961 .29886 0 C 0 -.09961 -1.09587 -.99626 -1.19551 -1.59401 "/>
<path transform="matrix(1,0,0,-1,12.134308,24.468079)" stroke-width=".3985" stroke-linecap="butt" stroke-miterlimit="10" stroke-linejoin="miter" fill="none" stroke="#929292" d="M 78.84099 -20.55289 L 132.62432 -63.57922 "/>
<path transform="matrix(.78087,.62471,.62471,-.78087,144.75862,88.0473)" stroke-width=".31879" stroke-linecap="round" stroke-linejoin="round" fill="none" stroke="#929292" d="M -1.19551 1.59401 C -1.09587 .99626 0 .09961 .29886 0 C 0 -.09961 -1.09587 -.99626 -1.19551 -1.59401 "/>
<path transform="matrix(1,0,0,-1,12.134308,24.468079)" stroke-width=".3985" stroke-linecap="butt" stroke-miterlimit="10" stroke-linejoin="miter" fill="none" stroke="#929292" d="M 80.33455 -46.3071 L 130.91146 -66.53809 "/>
<path transform="matrix(.93166,.3727,.3727,-.93166,143.04575,91.00617)" stroke-width=".31879" stroke-linecap="round" stroke-linejoin="round" fill="none" stroke="#929292" d="M -1.19551 1.59401 C -1.09587 .99626 0 .09961 .29886 0 C 0 -.09961 -1.09587 -.99626 -1.19551 -1.59401 "/>
<path transform="matrix(1,0,0,-1,12.134308,24.468079)" stroke-width=".3985" stroke-linecap="butt" stroke-miterlimit="10" stroke-linejoin="miter" fill="none" stroke="#929292" d="M 81.02907 -70.86705 L 130.11751 -70.86705 "/>
<path transform="matrix(1,0,0,-1,142.25182,95.33513)" stroke-width=".31879" stroke-linecap="round" stroke-linejoin="round" fill="none" stroke="#929292" d="M -1.19551 1.59401 C -1.09587 .99626 0 .09961 .29886 0 C 0 -.09961 -1.09587 -.99626 -1.19551 -1.59401 "/>
<path transform="matrix(1,0,0,-1,12.134308,24.468079)" stroke-width=".3985" stroke-linecap="butt" stroke-miterlimit="10" stroke-linejoin="miter" fill="none" stroke="#929292" d="M 80.33455 -95.427 L 130.91146 -75.19603 "/>
<path transform="matrix(.93166,-.3727,-.3727,-.93166,143.04575,99.66411)" stroke-width=".31879" stroke-linecap="round" stroke-linejoin="round" fill="none" stroke="#929292" d="M -1.19551 1.59401 C -1.09587 .99626 0 .09961 .29886 0 C 0 -.09961 -1.09587 -.99626 -1.19551 -1.59401 "/>
<path transform="matrix(1,0,0,-1,12.134308,24.468079)" stroke-width=".3985" stroke-linecap="butt" stroke-miterlimit="10" stroke-linejoin="miter" fill="none" stroke="#929292" d="M 78.84099 -121.18123 L 132.62432 -78.15488 "/>
<path transform="matrix(.78087,-.62471,-.62471,-.78087,144.75862,102.622959)" stroke-width=".31879" stroke-linecap="round" stroke-linejoin="round" fill="none" stroke="#929292" d="M -1.19551 1.59401 C -1.09587 .99626 0 .09961 .29886 0 C 0 -.09961 -1.09587 -.99626 -1.19551 -1.59401 "/>
<text xml:space="preserve" transform="matrix(1 0 -0 1 -155.10971 667.7611)" font-size="6.9738" font-family="CMR7"><tspan y="-659.708" x="225.671 231.54993 233.80246 238.20293 242.6034 246.14609">Hidden</tspan><tspan y="-651.73806" x="228.45601 233.37952 237.1384 241.10649 244.64919">Layer</tspan></text>
<text xml:space="preserve" transform="matrix(1 0 -0 1 -155.10968 667.7611)" font-size="6.9738" font-family="CMR7"><tspan y="-659.747" x="157.648 160.52817 164.92864 169.3291 173.72957">Input</tspan><tspan y="-651.776" x="157.59 162.5135 166.27239 170.24048 173.78318">Layer</tspan></text>
<text xml:space="preserve" transform="matrix(1 0 -0 1 -155.10968 667.7611)" font-size="6.9738" font-family="CMR7"><tspan y="-659.747" x="296.205 302.321 306.7215 309.83183 314.2323 318.63279">Output</tspan><tspan y="-651.776" x="299.322 304.24549 308.00437 311.97248 315.51518">Layer</tspan></text>
</g>
</svg>
