<?xml version="1.0" encoding="UTF-8" standalone="no"?>
<!DOCTYPE svg PUBLIC "-//W3C//DTD SVG 1.1//EN" "http://www.w3.org/Graphics/SVG/1.1/DTD/svg11.dtd">
<svg xmlns="http://www.w3.org/2000/svg" xmlns:xlink="http://www.w3.org/1999/xlink" version="1.1" width="263.57093pt" height="249.8374pt" viewBox="0 0 263.57093 249.8374">
<g enable-background="new">
<path transform="matrix(1,0,0,-1,14.9599,10.7630009)" d="M 10.95905 -28.3468 C 10.95905 -22.2942 6.05258 -17.38776 0 -17.38776 C -6.05258 -17.38776 -10.95905 -22.2942 -10.95905 -28.3468 C -10.95905 -34.3994 -6.05258 -39.30585 0 -39.30585 C 6.05258 -39.30585 10.95905 -34.3994 10.95905 -28.3468 Z M 0 -28.3468 " fill="#ffcc99"/>
<text xml:space="preserve" transform="matrix(1 0 -0 1 -152.2841 668.268)" font-size="6.9738" font-family="CMMI7" font-style="italic"><tspan y="-627.274" x="162.034">X</tspan></text>
<text xml:space="preserve" transform="matrix(1 0 -0 1 -152.2841 668.268)" font-size="4.9813" font-family="CMR5"><tspan y="-626.278" x="168.567">1</tspan></text>
<path transform="matrix(1,0,0,-1,14.9599,10.7630009)" d="M 10.95905 -56.69362 C 10.95905 -50.64102 6.05258 -45.73457 0 -45.73457 C -6.05258 -45.73457 -10.95905 -50.64102 -10.95905 -56.69362 C -10.95905 -62.7462 -6.05258 -67.65266 0 -67.65266 C 6.05258 -67.65266 10.95905 -62.7462 10.95905 -56.69362 Z M 0 -56.69362 " fill="#ffcc99"/>
<text xml:space="preserve" transform="matrix(1 0 -0 1 -152.2841 668.26797)" font-size="6.9738" font-family="CMMI7" font-style="italic"><tspan y="-598.928" x="162.034">X</tspan></text>
<text xml:space="preserve" transform="matrix(1 0 -0 1 -152.2841 668.26797)" font-size="4.9813" font-family="CMR5"><tspan y="-597.93099" x="168.567">2</tspan></text>
<path transform="matrix(1,0,0,-1,14.9599,10.7630009)" d="M 10.95905 -85.04042 C 10.95905 -78.98782 6.05258 -74.08138 0 -74.08138 C -6.05258 -74.08138 -10.95905 -78.98782 -10.95905 -85.04042 C -10.95905 -91.09302 -6.05258 -95.99947 0 -95.99947 C 6.05258 -95.99947 10.95905 -91.09302 10.95905 -85.04042 Z M 0 -85.04042 " fill="#ffcc99"/>
<text xml:space="preserve" transform="matrix(1 0 -0 1 -152.2841 668.268)" font-size="6.9738" font-family="CMMI7" font-style="italic"><tspan y="-570.581" x="162.034">X</tspan></text>
<text xml:space="preserve" transform="matrix(1 0 -0 1 -152.2841 668.268)" font-size="4.9813" font-family="CMR5"><tspan y="-569.585" x="168.567">3</tspan></text>
<path transform="matrix(1,0,0,-1,14.9599,10.7630009)" d="M 10.95905 -113.38724 C 10.95905 -107.33464 6.05258 -102.42819 0 -102.42819 C -6.05258 -102.42819 -10.95905 -107.33464 -10.95905 -113.38724 C -10.95905 -119.43982 -6.05258 -124.34628 0 -124.34628 C 6.05258 -124.34628 10.95905 -119.43982 10.95905 -113.38724 Z M 0 -113.38724 " fill="#ffcc99"/>
<text xml:space="preserve" transform="matrix(1 0 -0 1 -152.2841 668.268)" font-size="6.9738" font-family="CMMI7" font-style="italic"><tspan y="-542.235" x="162.034">X</tspan></text>
<text xml:space="preserve" transform="matrix(1 0 -0 1 -152.2841 668.268)" font-size="4.9813" font-family="CMR5"><tspan y="-541.238" x="168.567">4</tspan></text>
<path transform="matrix(1,0,0,-1,14.9599,10.7630009)" d="M 10.95905 -141.73404 C 10.95905 -135.68146 6.05258 -130.775 0 -130.775 C -6.05258 -130.775 -10.95905 -135.68146 -10.95905 -141.73404 C -10.95905 -147.78664 -6.05258 -152.69309 0 -152.69309 C 6.05258 -152.69309 10.95905 -147.78664 10.95905 -141.73404 Z M 0 -141.73404 " fill="#ffcc99"/>
<text xml:space="preserve" transform="matrix(1 0 -0 1 -152.2841 668.268)" font-size="6.9738" font-family="CMMI7" font-style="italic"><tspan y="-513.888" x="162.034">X</tspan></text>
<text xml:space="preserve" transform="matrix(1 0 -0 1 -152.2841 668.268)" font-size="4.9813" font-family="CMR5"><tspan y="-512.892" x="168.567">5</tspan></text>
<path transform="matrix(1,0,0,-1,14.9599,10.7630009)" d="M 10.95905 -170.08086 C 10.95905 -164.02826 6.05258 -159.12181 0 -159.12181 C -6.05258 -159.12181 -10.95905 -164.02826 -10.95905 -170.08086 C -10.95905 -176.13344 -6.05258 -181.0399 0 -181.0399 C 6.05258 -181.0399 10.95905 -176.13344 10.95905 -170.08086 Z M 0 -170.08086 " fill="#ffcc99"/>
<text xml:space="preserve" transform="matrix(1 0 -0 1 -152.2841 668.268)" font-size="6.9738" font-family="CMMI7" font-style="italic"><tspan y="-485.542" x="162.034">X</tspan></text>
<text xml:space="preserve" transform="matrix(1 0 -0 1 -152.2841 668.268)" font-size="4.9813" font-family="CMR5"><tspan y="-484.54499" x="168.567">6</tspan></text>
<path transform="matrix(1,0,0,-1,14.9599,10.7630009)" d="M 12.24088 -198.42766 C 12.24088 -191.66713 6.76053 -186.18679 0 -186.18679 C -6.76053 -186.18679 -12.24088 -191.66713 -12.24088 -198.42766 C -12.24088 -205.18819 -6.76053 -210.66854 0 -210.66854 C 6.76053 -210.66854 12.24088 -205.18819 12.24088 -198.42766 Z M 0 -198.42766 " fill="#ffcc99"/>
<text xml:space="preserve" transform="matrix(1 0 -0 1 -152.2841 668.268)" font-size="6.9738" font-family="CMR7"><tspan y="-462.166" x="166.117">.</tspan><tspan y="-458.181" x="166.117">.</tspan><tspan y="-454.195" x="166.117">.</tspan></text>
<path transform="matrix(1,0,0,-1,14.9599,10.7630009)" d="M 10.95905 -226.77448 C 10.95905 -220.72188 6.05258 -215.81543 0 -215.81543 C -6.05258 -215.81543 -10.95905 -220.72188 -10.95905 -226.77448 C -10.95905 -232.82706 -6.05258 -237.73352 0 -237.73352 C 6.05258 -237.73352 10.95905 -232.82706 10.95905 -226.77448 Z M 0 -226.77448 " fill="#ffcc99"/>
<text xml:space="preserve" transform="matrix(1 0 -0 1 -152.2841 668.268)" font-size="6.9738" font-family="CMMI7" font-style="italic"><tspan y="-429.333" x="161.886">X</tspan></text>
<text xml:space="preserve" transform="matrix(1 0 -0 1 -152.2841 668.268)" font-size="4.9813" font-family="CMMI5" font-style="italic"><tspan y="-428.337" x="168.42">p</tspan></text>
<path transform="matrix(1,0,0,-1,14.9599,10.7630009)" d="M 81.94722 -56.69362 C 81.94722 -50.57413 76.98653 -45.61343 70.86703 -45.61343 C 64.74756 -45.61343 59.78687 -50.57413 59.78687 -56.69362 C 59.78687 -62.8131 64.74756 -67.77379 70.86703 -67.77379 C 76.98653 -67.77379 81.94722 -62.8131 81.94722 -56.69362 Z M 70.86703 -56.69362 " fill="#ccccff"/>
<text xml:space="preserve" transform="matrix(1 0 -0 1 -152.2841 668.268)" font-size="6.9738" font-family="CMMI7" font-style="italic"><tspan y="-598.321" x="230.472">A</tspan></text>
<text xml:space="preserve" transform="matrix(1 0 -0 1 -152.2841 668.268)" font-size="4.9813" font-family="CMR5"><tspan y="-601.969" x="236.464 239.16387 242.55614">(1)</tspan><tspan y="-595.919" x="236.464">1</tspan></text>
<path transform="matrix(1,0,0,-1,14.9599,10.7630009)" d="M 81.94722 -85.04044 C 81.94722 -78.92096 76.98653 -73.96027 70.86703 -73.96027 C 64.74756 -73.96027 59.78687 -78.92096 59.78687 -85.04044 C 59.78687 -91.15991 64.74756 -96.1206 70.86703 -96.1206 C 76.98653 -96.1206 81.94722 -91.15991 81.94722 -85.04044 Z M 70.86703 -85.04044 " fill="#ccccff"/>
<text xml:space="preserve" transform="matrix(1 0 -0 1 -152.2841 668.26797)" font-size="6.9738" font-family="CMMI7" font-style="italic"><tspan y="-569.975" x="230.472">A</tspan></text>
<text xml:space="preserve" transform="matrix(1 0 -0 1 -152.2841 668.26797)" font-size="4.9813" font-family="CMR5"><tspan y="-573.62197" x="236.464 239.16387 242.55614">(1)</tspan><tspan y="-567.57296" x="236.464">2</tspan></text>
<path transform="matrix(1,0,0,-1,14.9599,10.7630009)" d="M 81.94722 -113.38727 C 81.94722 -107.26778 76.98653 -102.30708 70.86703 -102.30708 C 64.74756 -102.30708 59.78687 -107.26778 59.78687 -113.38727 C 59.78687 -119.50674 64.74756 -124.46744 70.86703 -124.46744 C 76.98653 -124.46744 81.94722 -119.50674 81.94722 -113.38727 Z M 70.86703 -113.38727 " fill="#ccccff"/>
<text xml:space="preserve" transform="matrix(1 0 -0 1 -152.2841 668.268)" font-size="6.9738" font-family="CMMI7" font-style="italic"><tspan y="-541.629" x="230.472">A</tspan></text>
<text xml:space="preserve" transform="matrix(1 0 -0 1 -152.2841 668.268)" font-size="4.9813" font-family="CMR5"><tspan y="-545.276" x="236.464 239.16387 242.55614">(1)</tspan><tspan y="-539.226" x="236.464">3</tspan></text>
<path transform="matrix(1,0,0,-1,14.9599,10.7630009)" d="M 81.94722 -141.73409 C 81.94722 -135.61461 76.98653 -130.65392 70.86703 -130.65392 C 64.74756 -130.65392 59.78687 -135.61461 59.78687 -141.73409 C 59.78687 -147.85356 64.74756 -152.81426 70.86703 -152.81426 C 76.98653 -152.81426 81.94722 -147.85356 81.94722 -141.73409 Z M 70.86703 -141.73409 " fill="#ccccff"/>
<text xml:space="preserve" transform="matrix(1 0 -0 1 -152.2841 668.268)" font-size="6.9738" font-family="CMMI7" font-style="italic"><tspan y="-513.282" x="230.472">A</tspan></text>
<text xml:space="preserve" transform="matrix(1 0 -0 1 -152.2841 668.268)" font-size="4.9813" font-family="CMR5"><tspan y="-516.92898" x="236.464 239.16387 242.55614">(1)</tspan><tspan y="-510.87995" x="236.464">4</tspan></text>
<path transform="matrix(1,0,0,-1,14.9599,10.7630009)" d="M 82.49983 -170.08092 C 82.49983 -163.65622 77.29173 -158.44812 70.86703 -158.44812 C 64.44235 -158.44812 59.23424 -163.65622 59.23424 -170.08092 C 59.23424 -176.5056 64.44235 -181.71372 70.86703 -181.71372 C 77.29173 -181.71372 82.49983 -176.5056 82.49983 -170.08092 Z M 70.86703 -170.08092 " fill="#ccccff"/>
<text xml:space="preserve" transform="matrix(1 0 -0 1 -152.2841 668.268)" font-size="6.9738" font-family="CMR7"><tspan y="-490.512" x="236.983">.</tspan><tspan y="-486.527" x="236.983">.</tspan><tspan y="-482.54203" x="236.983">.</tspan></text>
<path transform="matrix(1,0,0,-1,14.9599,10.7630009)" d="M 82.75548 -198.42772 C 82.75548 -191.86185 77.4329 -186.53929 70.86703 -186.53929 C 64.30116 -186.53929 58.9786 -191.86185 58.9786 -198.42772 C 58.9786 -204.99359 64.30116 -210.31616 70.86703 -210.31616 C 77.4329 -210.31616 82.75548 -204.99359 82.75548 -198.42772 Z M 70.86703 -198.42772 " fill="#ccccff"/>
<text xml:space="preserve" transform="matrix(1 0 -0 1 -152.2841 668.268)" font-size="6.9738" font-family="CMMI7" font-style="italic"><tspan y="-457.433" x="230.085">A</tspan></text>
<text xml:space="preserve" transform="matrix(1 0 -0 1 -152.2841 668.268)" font-size="4.9813" font-family="CMR5"><tspan y="-461.08103" x="236.076 238.77587 242.16814">(1)</tspan></text>
<text xml:space="preserve" transform="matrix(1 0 -0 1 -152.2841 668.268)" font-size="4.9813" font-family="CMMI5" font-style="italic"><tspan y="-454.83705" x="236.076">K</tspan></text>
<text xml:space="preserve" transform="matrix(1 0 -0 1 -152.2841 668.268)" font-size="4.9813" font-family="CMR5"><tspan y="-453.34306" x="241.75">1</tspan></text>
<path transform="matrix(1,0,0,-1,14.9599,10.7630009)" d="M 152.81427 -70.86702 C 152.81427 -64.74754 147.85358 -59.78685 141.7341 -59.78685 C 135.61463 -59.78685 130.65393 -64.74754 130.65393 -70.86702 C 130.65393 -76.98651 135.61463 -81.9472 141.7341 -81.9472 C 147.85358 -81.9472 152.81427 -76.98651 152.81427 -70.86702 Z M 141.7341 -70.86702 " fill="#ccccff"/>
<text xml:space="preserve" transform="matrix(1 0 -0 1 -152.28409 668.268)" font-size="6.9738" font-family="CMMI7" font-style="italic"><tspan y="-584.148" x="301.339">A</tspan></text>
<text xml:space="preserve" transform="matrix(1 0 -0 1 -152.28409 668.268)" font-size="4.9813" font-family="CMR5"><tspan y="-587.796" x="307.33 310.02986 313.42213">(2)</tspan><tspan y="-581.74606" x="307.33">1</tspan></text>
<path transform="matrix(1,0,0,-1,14.9599,10.7630009)" d="M 152.81427 -99.21385 C 152.81427 -93.09438 147.85358 -88.13368 141.7341 -88.13368 C 135.61463 -88.13368 130.65393 -93.09438 130.65393 -99.21385 C 130.65393 -105.33333 135.61463 -110.29402 141.7341 -110.29402 C 147.85358 -110.29402 152.81427 -105.33333 152.81427 -99.21385 Z M 141.7341 -99.21385 " fill="#ccccff"/>
<text xml:space="preserve" transform="matrix(1 0 -0 1 -152.28409 668.268)" font-size="6.9738" font-family="CMMI7" font-style="italic"><tspan y="-555.802" x="301.339">A</tspan></text>
<text xml:space="preserve" transform="matrix(1 0 -0 1 -152.28409 668.268)" font-size="4.9813" font-family="CMR5"><tspan y="-559.449" x="307.33 310.02986 313.42213">(2)</tspan><tspan y="-553.39999" x="307.33">2</tspan></text>
<path transform="matrix(1,0,0,-1,14.9599,10.7630009)" d="M 152.81427 -127.56067 C 152.81427 -121.4412 147.85358 -116.4805 141.7341 -116.4805 C 135.61463 -116.4805 130.65393 -121.4412 130.65393 -127.56067 C 130.65393 -133.68016 135.61463 -138.64086 141.7341 -138.64086 C 147.85358 -138.64086 152.81427 -133.68016 152.81427 -127.56067 Z M 141.7341 -127.56067 " fill="#ccccff"/>
<text xml:space="preserve" transform="matrix(1 0 -0 1 -152.28409 668.268)" font-size="6.9738" font-family="CMMI7" font-style="italic"><tspan y="-527.455" x="301.339">A</tspan></text>
<text xml:space="preserve" transform="matrix(1 0 -0 1 -152.28409 668.268)" font-size="4.9813" font-family="CMR5"><tspan y="-531.103" x="307.33 310.02986 313.42213">(2)</tspan><tspan y="-525.05307" x="307.33">3</tspan></text>
<path transform="matrix(1,0,0,-1,14.9599,10.7630009)" d="M 153.3669 -155.9075 C 153.3669 -149.4828 148.1588 -144.2747 141.7341 -144.2747 C 135.30942 -144.2747 130.1013 -149.4828 130.1013 -155.9075 C 130.1013 -162.33219 135.30942 -167.5403 141.7341 -167.5403 C 148.1588 -167.5403 153.3669 -162.33219 153.3669 -155.9075 Z M 141.7341 -155.9075 " fill="#ccccff"/>
<text xml:space="preserve" transform="matrix(1 0 -0 1 -152.2841 668.268)" font-size="6.9738" font-family="CMR7"><tspan y="-504.685" x="307.849">.</tspan><tspan y="-500.7" x="307.849">.</tspan><tspan y="-496.71504" x="307.849">.</tspan></text>
<path transform="matrix(1,0,0,-1,14.9599,10.7630009)" d="M 153.62255 -184.25432 C 153.62255 -177.68845 148.29998 -172.36589 141.7341 -172.36589 C 135.16823 -172.36589 129.84568 -177.68845 129.84568 -184.25432 C 129.84568 -190.82019 135.16823 -196.14276 141.7341 -196.14276 C 148.29998 -196.14276 153.62255 -190.82019 153.62255 -184.25432 Z M 141.7341 -184.25432 " fill="#ccccff"/>
<text xml:space="preserve" transform="matrix(1 0 -0 1 -152.28409 668.268)" font-size="6.9738" font-family="CMMI7" font-style="italic"><tspan y="-471.606" x="300.951">A</tspan></text>
<text xml:space="preserve" transform="matrix(1 0 -0 1 -152.28409 668.268)" font-size="4.9813" font-family="CMR5"><tspan y="-475.254" x="306.943 309.64286 313.03514">(2)</tspan></text>
<text xml:space="preserve" transform="matrix(1 0 -0 1 -152.28409 668.268)" font-size="4.9813" font-family="CMMI5" font-style="italic"><tspan y="-469.011" x="306.943">K</tspan></text>
<text xml:space="preserve" transform="matrix(1 0 -0 1 -152.28409 668.268)" font-size="4.9813" font-family="CMR5"><tspan y="-467.516" x="312.616">2</tspan></text>
<path transform="matrix(1,0,0,-1,14.9599,10.7630009)" d="M 223.657 -85.04042 C 223.657 -78.93439 218.7072 -73.98457 212.60115 -73.98457 C 206.4951 -73.98457 201.5453 -78.93439 201.5453 -85.04042 C 201.5453 -91.14647 206.4951 -96.09627 212.60115 -96.09627 C 218.7072 -96.09627 223.657 -91.14647 223.657 -85.04042 Z M 212.60115 -85.04042 " fill="#ffcccc"/>
<text xml:space="preserve" transform="matrix(1 0 -0 1 -152.28409 668.268)" font-size="6.9738" font-family="CMMI7" font-style="italic"><tspan y="-570.722" x="369.305">f</tspan></text>
<text xml:space="preserve" transform="matrix(1 0 -0 1 -152.28409 668.268)" font-size="4.9813" font-family="CMR5"><tspan y="-569.726" x="373.19">0</tspan></text>
<text xml:space="preserve" transform="matrix(1 0 -0 1 -152.28409 668.268)" font-size="6.9738" font-family="CMR7"><tspan y="-570.722" x="377.078">(</tspan></text>
<text xml:space="preserve" transform="matrix(1 0 -0 1 -152.28409 668.268)" font-size="6.9738" font-family="CMMI7" font-style="italic"><tspan y="-570.722" x="380.19203">X</tspan></text>
<text xml:space="preserve" transform="matrix(1 0 -0 1 -152.28409 668.268)" font-size="6.9738" font-family="CMR7"><tspan y="-570.722" x="387.26704">)</tspan></text>
<text xml:space="preserve" transform="matrix(1 0 -0 1 -152.2841 668.268)" font-size="6.9738" font-family="CMMI7" font-style="italic"><tspan y="-570.581" x="402.952">Y</tspan></text>
<text xml:space="preserve" transform="matrix(1 0 -0 1 -152.2841 668.268)" font-size="4.9813" font-family="CMR5"><tspan y="-569.585" x="407.635">0</tspan></text>
<path transform="matrix(1,0,0,-1,14.9599,10.7630009)" stroke-width=".3985" stroke-linecap="butt" stroke-miterlimit="10" stroke-linejoin="miter" fill="none" stroke="#929292" d="M 224.85253 -85.04042 L 231.4097 -85.04042 "/>
<path transform="matrix(1,0,0,-1,246.3696,95.80342)" stroke-width=".31879" stroke-linecap="round" stroke-linejoin="round" fill="none" stroke="#929292" d="M -1.19551 1.59401 C -1.09587 .99626 0 .09961 .29886 0 C 0 -.09961 -1.09587 -.99626 -1.19551 -1.59401 "/>
<path transform="matrix(1,0,0,-1,14.9599,10.7630009)" d="M 223.657 -113.38724 C 223.657 -107.28119 218.7072 -102.33138 212.60115 -102.33138 C 206.4951 -102.33138 201.5453 -107.28119 201.5453 -113.38724 C 201.5453 -119.49327 206.4951 -124.44308 212.60115 -124.44308 C 218.7072 -124.44308 223.657 -119.49327 223.657 -113.38724 Z M 212.60115 -113.38724 " fill="#ffcccc"/>
<text xml:space="preserve" transform="matrix(1 0 -0 1 -152.28409 668.26797)" font-size="6.9738" font-family="CMMI7" font-style="italic"><tspan y="-542.376" x="369.305">f</tspan></text>
<text xml:space="preserve" transform="matrix(1 0 -0 1 -152.28409 668.26797)" font-size="4.9813" font-family="CMR5"><tspan y="-541.38" x="373.19">1</tspan></text>
<text xml:space="preserve" transform="matrix(1 0 -0 1 -152.28409 668.26797)" font-size="6.9738" font-family="CMR7"><tspan y="-542.376" x="377.078">(</tspan></text>
<text xml:space="preserve" transform="matrix(1 0 -0 1 -152.28409 668.26797)" font-size="6.9738" font-family="CMMI7" font-style="italic"><tspan y="-542.376" x="380.19203">X</tspan></text>
<text xml:space="preserve" transform="matrix(1 0 -0 1 -152.28409 668.26797)" font-size="6.9738" font-family="CMR7"><tspan y="-542.376" x="387.26704">)</tspan></text>
<text xml:space="preserve" transform="matrix(1 0 -0 1 -152.2841 668.268)" font-size="6.9738" font-family="CMMI7" font-style="italic"><tspan y="-542.235" x="402.952">Y</tspan></text>
<text xml:space="preserve" transform="matrix(1 0 -0 1 -152.2841 668.268)" font-size="4.9813" font-family="CMR5"><tspan y="-541.238" x="407.635">1</tspan></text>
<path transform="matrix(1,0,0,-1,14.9599,10.7630009)" stroke-width=".3985" stroke-linecap="butt" stroke-miterlimit="10" stroke-linejoin="miter" fill="none" stroke="#929292" d="M 224.85253 -113.38724 L 231.4097 -113.38724 "/>
<path transform="matrix(1,0,0,-1,246.3696,124.15024)" stroke-width=".31879" stroke-linecap="round" stroke-linejoin="round" fill="none" stroke="#929292" d="M -1.19551 1.59401 C -1.09587 .99626 0 .09961 .29886 0 C 0 -.09961 -1.09587 -.99626 -1.19551 -1.59401 "/>
<path transform="matrix(1,0,0,-1,14.9599,10.7630009)" d="M 223.5602 -141.73404 C 223.5602 -135.68146 218.65375 -130.775 212.60115 -130.775 C 206.54856 -130.775 201.6421 -135.68146 201.6421 -141.73404 C 201.6421 -147.78664 206.54856 -152.69309 212.60115 -152.69309 C 218.65375 -152.69309 223.5602 -147.78664 223.5602 -141.73404 Z M 212.60115 -141.73404 " fill="#ffcccc"/>
<text xml:space="preserve" transform="matrix(1 0 -0 1 -152.2841 668.268)" font-size="6.9738" font-family="CMR7"><tspan y="-518.858" x="378.715">.</tspan><tspan y="-514.873" x="378.715">.</tspan><tspan y="-510.888" x="378.715">.</tspan></text>
<text xml:space="preserve" transform="matrix(1 0 -0 1 -152.28412 668.268)" font-size="6.9738" font-family="CMR7"><tspan y="-518.858" x="402.855">.</tspan><tspan y="-514.873" x="402.855">.</tspan><tspan y="-510.888" x="402.855">.</tspan></text>
<path transform="matrix(1,0,0,-1,14.9599,10.7630009)" stroke-width=".3985" stroke-linecap="butt" stroke-miterlimit="10" stroke-linejoin="miter" fill="none" stroke="#929292" d="M 224.75572 -141.73404 L 231.31288 -141.73404 "/>
<path transform="matrix(1,0,0,-1,246.27278,152.49704)" stroke-width=".31879" stroke-linecap="round" stroke-linejoin="round" fill="none" stroke="#929292" d="M -1.19551 1.59401 C -1.09587 .99626 0 .09961 .29886 0 C 0 -.09961 -1.09587 -.99626 -1.19551 -1.59401 "/>
<path transform="matrix(1,0,0,-1,14.9599,10.7630009)" d="M 223.657 -170.08086 C 223.657 -163.97481 218.7072 -159.025 212.60115 -159.025 C 206.4951 -159.025 201.5453 -163.97481 201.5453 -170.08086 C 201.5453 -176.18689 206.4951 -181.1367 212.60115 -181.1367 C 218.7072 -181.1367 223.657 -176.18689 223.657 -170.08086 Z M 212.60115 -170.08086 " fill="#ffcccc"/>
<text xml:space="preserve" transform="matrix(1 0 -0 1 -152.28409 668.268)" font-size="6.9738" font-family="CMMI7" font-style="italic"><tspan y="-485.683" x="369.305">f</tspan></text>
<text xml:space="preserve" transform="matrix(1 0 -0 1 -152.28409 668.268)" font-size="4.9813" font-family="CMR5"><tspan y="-484.687" x="373.19">9</tspan></text>
<text xml:space="preserve" transform="matrix(1 0 -0 1 -152.28409 668.268)" font-size="6.9738" font-family="CMR7"><tspan y="-485.683" x="377.078">(</tspan></text>
<text xml:space="preserve" transform="matrix(1 0 -0 1 -152.28409 668.268)" font-size="6.9738" font-family="CMMI7" font-style="italic"><tspan y="-485.683" x="380.191">X</tspan></text>
<text xml:space="preserve" transform="matrix(1 0 -0 1 -152.28409 668.268)" font-size="6.9738" font-family="CMR7"><tspan y="-485.683" x="387.267">)</tspan></text>
<text xml:space="preserve" transform="matrix(1 0 -0 1 -152.2841 668.268)" font-size="6.9738" font-family="CMMI7" font-style="italic"><tspan y="-485.542" x="402.952">Y</tspan></text>
<text xml:space="preserve" transform="matrix(1 0 -0 1 -152.2841 668.268)" font-size="4.9813" font-family="CMR5"><tspan y="-484.54499" x="407.635">9</tspan></text>
<path transform="matrix(1,0,0,-1,14.9599,10.7630009)" stroke-width=".3985" stroke-linecap="butt" stroke-miterlimit="10" stroke-linejoin="miter" fill="none" stroke="#929292" d="M 224.85253 -170.08086 L 231.4097 -170.08086 "/>
<path transform="matrix(1,0,0,-1,246.3696,180.84386)" stroke-width=".31879" stroke-linecap="round" stroke-linejoin="round" fill="none" stroke="#929292" d="M -1.19551 1.59401 C -1.09587 .99626 0 .09961 .29886 0 C 0 -.09961 -1.09587 -.99626 -1.19551 -1.59401 "/>
<path transform="matrix(1,0,0,-1,14.9599,10.7630009)" stroke-width=".3985" stroke-linecap="butt" stroke-miterlimit="10" stroke-linejoin="miter" fill="none" stroke="#929292" d="M 10.39568 -32.50528 L 59.00337 -51.94832 "/>
<path transform="matrix(.93166,.37265,.37265,-.93166,73.96326,62.7113)" stroke-width=".31879" stroke-linecap="round" stroke-linejoin="round" fill="none" stroke="#929292" d="M -1.19551 1.59401 C -1.09587 .99626 0 .09961 .29886 0 C 0 -.09961 -1.09587 -.99626 -1.19551 -1.59401 "/>
<path transform="matrix(1,0,0,-1,14.9599,10.7630009)" stroke-width=".3985" stroke-linecap="butt" stroke-miterlimit="10" stroke-linejoin="miter" fill="none" stroke="#929292" d="M 8.7557 -35.35172 L 60.87491 -77.04678 "/>
<path transform="matrix(.78468,.62772,.62772,-.78468,75.83481,87.809787)" stroke-width=".31879" stroke-linecap="round" stroke-linejoin="round" fill="none" stroke="#929292" d="M -1.19551 1.59401 C -1.09587 .99626 0 .09961 .29886 0 C 0 -.09961 -1.09587 -.99626 -1.19551 -1.59401 "/>
<path transform="matrix(1,0,0,-1,14.9599,10.7630009)" stroke-width=".3985" stroke-linecap="butt" stroke-miterlimit="10" stroke-linejoin="miter" fill="none" stroke="#929292" d="M 7.15543 -36.93294 L 62.70123 -103.58867 "/>
<path transform="matrix(.64124,.76949,.76949,-.64124,77.66113,114.351657)" stroke-width=".31879" stroke-linecap="round" stroke-linejoin="round" fill="none" stroke="#929292" d="M -1.19551 1.59401 C -1.09587 .99626 0 .09961 .29886 0 C 0 -.09961 -1.09587 -.99626 -1.19551 -1.59401 "/>
<path transform="matrix(1,0,0,-1,14.9599,10.7630009)" stroke-width=".3985" stroke-linecap="butt" stroke-miterlimit="10" stroke-linejoin="miter" fill="none" stroke="#929292" d="M 5.92749 -37.83022 L 64.10275 -130.9115 "/>
<path transform="matrix(.53117,.8499,.8499,-.53117,79.06264,141.6745)" stroke-width=".31879" stroke-linecap="round" stroke-linejoin="round" fill="none" stroke="#929292" d="M -1.19551 1.59401 C -1.09587 .99626 0 .09961 .29886 0 C 0 -.09961 -1.09587 -.99626 -1.19551 -1.59401 "/>
<path transform="matrix(1,0,0,-1,14.9599,10.7630009)" stroke-width=".3985" stroke-linecap="butt" stroke-miterlimit="10" stroke-linejoin="miter" fill="none" stroke="#929292" d="M 5.00995 -38.3669 L 64.90427 -158.15482 "/>
<path transform="matrix(.44722,.89442,.89442,-.44722,79.86415,168.91782)" stroke-width=".31879" stroke-linecap="round" stroke-linejoin="round" fill="none" stroke="#929292" d="M -1.19551 1.59401 C -1.09587 .99626 0 .09961 .29886 0 C 0 -.09961 -1.09587 -.99626 -1.19551 -1.59401 "/>
<path transform="matrix(1,0,0,-1,14.9599,10.7630009)" stroke-width=".3985" stroke-linecap="butt" stroke-miterlimit="10" stroke-linejoin="miter" fill="none" stroke="#929292" d="M 4.30148 -38.67099 L 65.64636 -185.89781 "/>
<path transform="matrix(.3855,.92525,.92525,-.3855,80.60626,196.66082)" stroke-width=".31879" stroke-linecap="round" stroke-linejoin="round" fill="none" stroke="#929292" d="M -1.19551 1.59401 C -1.09587 .99626 0 .09961 .29886 0 C 0 -.09961 -1.09587 -.99626 -1.19551 -1.59401 "/>
<path transform="matrix(1,0,0,-1,14.9599,10.7630009)" stroke-width=".3985" stroke-linecap="butt" stroke-miterlimit="10" stroke-linejoin="miter" fill="none" stroke="#929292" d="M 11.1583 -56.69362 L 58.13306 -56.69362 "/>
<path transform="matrix(1,0,0,-1,73.09296,67.45662)" stroke-width=".31879" stroke-linecap="round" stroke-linejoin="round" fill="none" stroke="#929292" d="M -1.19551 1.59401 C -1.09587 .99626 0 .09961 .29886 0 C 0 -.09961 -1.09587 -.99626 -1.19551 -1.59401 "/>
<path transform="matrix(1,0,0,-1,14.9599,10.7630009)" stroke-width=".3985" stroke-linecap="butt" stroke-miterlimit="10" stroke-linejoin="miter" fill="none" stroke="#929292" d="M 10.39568 -60.85208 L 59.00337 -80.29514 "/>
<path transform="matrix(.93166,.37265,.37265,-.93166,73.96326,91.05812)" stroke-width=".31879" stroke-linecap="round" stroke-linejoin="round" fill="none" stroke="#929292" d="M -1.19551 1.59401 C -1.09587 .99626 0 .09961 .29886 0 C 0 -.09961 -1.09587 -.99626 -1.19551 -1.59401 "/>
<path transform="matrix(1,0,0,-1,14.9599,10.7630009)" stroke-width=".3985" stroke-linecap="butt" stroke-miterlimit="10" stroke-linejoin="miter" fill="none" stroke="#929292" d="M 8.7557 -63.69853 L 60.87491 -105.3936 "/>
<path transform="matrix(.78468,.62772,.62772,-.78468,75.83481,116.1566)" stroke-width=".31879" stroke-linecap="round" stroke-linejoin="round" fill="none" stroke="#929292" d="M -1.19551 1.59401 C -1.09587 .99626 0 .09961 .29886 0 C 0 -.09961 -1.09587 -.99626 -1.19551 -1.59401 "/>
<path transform="matrix(1,0,0,-1,14.9599,10.7630009)" stroke-width=".3985" stroke-linecap="butt" stroke-miterlimit="10" stroke-linejoin="miter" fill="none" stroke="#929292" d="M 7.15543 -65.27975 L 62.70123 -131.9355 "/>
<path transform="matrix(.64124,.76949,.76949,-.64124,77.66113,142.69849)" stroke-width=".31879" stroke-linecap="round" stroke-linejoin="round" fill="none" stroke="#929292" d="M -1.19551 1.59401 C -1.09587 .99626 0 .09961 .29886 0 C 0 -.09961 -1.09587 -.99626 -1.19551 -1.59401 "/>
<path transform="matrix(1,0,0,-1,14.9599,10.7630009)" stroke-width=".3985" stroke-linecap="butt" stroke-miterlimit="10" stroke-linejoin="miter" fill="none" stroke="#929292" d="M 5.92699 -66.17703 L 63.8092 -158.78864 "/>
<path transform="matrix(.53117,.8499,.8499,-.53117,78.76909,169.55164)" stroke-width=".31879" stroke-linecap="round" stroke-linejoin="round" fill="none" stroke="#929292" d="M -1.19551 1.59401 C -1.09587 .99626 0 .09961 .29886 0 C 0 -.09961 -1.09587 -.99626 -1.19551 -1.59401 "/>
<path transform="matrix(1,0,0,-1,14.9599,10.7630009)" stroke-width=".3985" stroke-linecap="butt" stroke-miterlimit="10" stroke-linejoin="miter" fill="none" stroke="#929292" d="M 5.00978 -66.71371 L 64.78693 -186.26689 "/>
<path transform="matrix(.44897,.898,.898,-.44897,79.746829,197.02988)" stroke-width=".31879" stroke-linecap="round" stroke-linejoin="round" fill="none" stroke="#929292" d="M -1.19551 1.59401 C -1.09587 .99626 0 .09961 .29886 0 C 0 -.09961 -1.09587 -.99626 -1.19551 -1.59401 "/>
<path transform="matrix(1,0,0,-1,14.9599,10.7630009)" stroke-width=".3985" stroke-linecap="butt" stroke-miterlimit="10" stroke-linejoin="miter" fill="none" stroke="#929292" d="M 10.39568 -80.88196 L 59.00337 -61.4389 "/>
<path transform="matrix(.93166,-.37265,-.37265,-.93166,73.96326,72.20192)" stroke-width=".31879" stroke-linecap="round" stroke-linejoin="round" fill="none" stroke="#929292" d="M -1.19551 1.59401 C -1.09587 .99626 0 .09961 .29886 0 C 0 -.09961 -1.09587 -.99626 -1.19551 -1.59401 "/>
<path transform="matrix(1,0,0,-1,14.9599,10.7630009)" stroke-width=".3985" stroke-linecap="butt" stroke-miterlimit="10" stroke-linejoin="miter" fill="none" stroke="#929292" d="M 11.1583 -85.04042 L 58.13306 -85.04044 "/>
<path transform="matrix(1,0,0,-1,73.09296,95.803447)" stroke-width=".31879" stroke-linecap="round" stroke-linejoin="round" fill="none" stroke="#929292" d="M -1.19551 1.59401 C -1.09587 .99626 0 .09961 .29886 0 C 0 -.09961 -1.09587 -.99626 -1.19551 -1.59401 "/>
<path transform="matrix(1,0,0,-1,14.9599,10.7630009)" stroke-width=".3985" stroke-linecap="butt" stroke-miterlimit="10" stroke-linejoin="miter" fill="none" stroke="#929292" d="M 10.39568 -89.1989 L 59.00337 -108.64197 "/>
<path transform="matrix(.93166,.37265,.37265,-.93166,73.96326,119.40495)" stroke-width=".31879" stroke-linecap="round" stroke-linejoin="round" fill="none" stroke="#929292" d="M -1.19551 1.59401 C -1.09587 .99626 0 .09961 .29886 0 C 0 -.09961 -1.09587 -.99626 -1.19551 -1.59401 "/>
<path transform="matrix(1,0,0,-1,14.9599,10.7630009)" stroke-width=".3985" stroke-linecap="butt" stroke-miterlimit="10" stroke-linejoin="miter" fill="none" stroke="#929292" d="M 8.7557 -92.04535 L 60.87491 -133.74044 "/>
<path transform="matrix(.78468,.62772,.62772,-.78468,75.83481,144.50344)" stroke-width=".31879" stroke-linecap="round" stroke-linejoin="round" fill="none" stroke="#929292" d="M -1.19551 1.59401 C -1.09587 .99626 0 .09961 .29886 0 C 0 -.09961 -1.09587 -.99626 -1.19551 -1.59401 "/>
<path transform="matrix(1,0,0,-1,14.9599,10.7630009)" stroke-width=".3985" stroke-linecap="butt" stroke-miterlimit="10" stroke-linejoin="miter" fill="none" stroke="#929292" d="M 7.15543 -93.62656 L 62.34683 -159.85709 "/>
<path transform="matrix(.64125,.76949,.76949,-.64125,77.30673,170.62007)" stroke-width=".31879" stroke-linecap="round" stroke-linejoin="round" fill="none" stroke="#929292" d="M -1.19551 1.59401 C -1.09587 .99626 0 .09961 .29886 0 C 0 -.09961 -1.09587 -.99626 -1.19551 -1.59401 "/>
<path transform="matrix(1,0,0,-1,14.9599,10.7630009)" stroke-width=".3985" stroke-linecap="butt" stroke-miterlimit="10" stroke-linejoin="miter" fill="none" stroke="#929292" d="M 5.92732 -94.52383 L 63.6734 -186.91819 "/>
<path transform="matrix(.53117,.8499,.8499,-.53117,78.633289,197.68119)" stroke-width=".31879" stroke-linecap="round" stroke-linejoin="round" fill="none" stroke="#929292" d="M -1.19551 1.59401 C -1.09587 .99626 0 .09961 .29886 0 C 0 -.09961 -1.09587 -.99626 -1.19551 -1.59401 "/>
<path transform="matrix(1,0,0,-1,14.9599,10.7630009)" stroke-width=".3985" stroke-linecap="butt" stroke-miterlimit="10" stroke-linejoin="miter" fill="none" stroke="#929292" d="M 8.7557 -106.38231 L 60.87491 -64.68727 "/>
<path transform="matrix(.78468,-.62772,-.62772,-.78468,75.83481,75.45027)" stroke-width=".31879" stroke-linecap="round" stroke-linejoin="round" fill="none" stroke="#929292" d="M -1.19551 1.59401 C -1.09587 .99626 0 .09961 .29886 0 C 0 -.09961 -1.09587 -.99626 -1.19551 -1.59401 "/>
<path transform="matrix(1,0,0,-1,14.9599,10.7630009)" stroke-width=".3985" stroke-linecap="butt" stroke-miterlimit="10" stroke-linejoin="miter" fill="none" stroke="#929292" d="M 10.39568 -109.22876 L 59.00337 -89.78574 "/>
<path transform="matrix(.93166,-.37265,-.37265,-.93166,73.96326,100.54875)" stroke-width=".31879" stroke-linecap="round" stroke-linejoin="round" fill="none" stroke="#929292" d="M -1.19551 1.59401 C -1.09587 .99626 0 .09961 .29886 0 C 0 -.09961 -1.09587 -.99626 -1.19551 -1.59401 "/>
<path transform="matrix(1,0,0,-1,14.9599,10.7630009)" stroke-width=".3985" stroke-linecap="butt" stroke-miterlimit="10" stroke-linejoin="miter" fill="none" stroke="#929292" d="M 11.1583 -113.38724 L 58.13306 -113.38727 "/>
<path transform="matrix(1,0,0,-1,73.09296,124.15027)" stroke-width=".31879" stroke-linecap="round" stroke-linejoin="round" fill="none" stroke="#929292" d="M -1.19551 1.59401 C -1.09587 .99626 0 .09961 .29886 0 C 0 -.09961 -1.09587 -.99626 -1.19551 -1.59401 "/>
<path transform="matrix(1,0,0,-1,14.9599,10.7630009)" stroke-width=".3985" stroke-linecap="butt" stroke-miterlimit="10" stroke-linejoin="miter" fill="none" stroke="#929292" d="M 10.39568 -117.5457 L 59.00337 -136.98879 "/>
<path transform="matrix(.93166,.37265,.37265,-.93166,73.96326,147.75177)" stroke-width=".31879" stroke-linecap="round" stroke-linejoin="round" fill="none" stroke="#929292" d="M -1.19551 1.59401 C -1.09587 .99626 0 .09961 .29886 0 C 0 -.09961 -1.09587 -.99626 -1.19551 -1.59401 "/>
<path transform="matrix(1,0,0,-1,14.9599,10.7630009)" stroke-width=".3985" stroke-linecap="butt" stroke-miterlimit="10" stroke-linejoin="miter" fill="none" stroke="#929292" d="M 8.7557 -120.3918 L 60.44681 -161.7447 "/>
<path transform="matrix(.78087,.62473,.62473,-.78087,75.40671,172.50769)" stroke-width=".31879" stroke-linecap="round" stroke-linejoin="round" fill="none" stroke="#929292" d="M -1.19551 1.59401 C -1.09587 .99626 0 .09961 .29886 0 C 0 -.09961 -1.09587 -.99626 -1.19551 -1.59401 "/>
<path transform="matrix(1,0,0,-1,14.9599,10.7630009)" stroke-width=".3985" stroke-linecap="butt" stroke-miterlimit="10" stroke-linejoin="miter" fill="none" stroke="#929292" d="M 7.15524 -121.97337 L 62.18289 -188.00719 "/>
<path transform="matrix(.64125,.76949,.76949,-.64125,77.14279,198.77017)" stroke-width=".31879" stroke-linecap="round" stroke-linejoin="round" fill="none" stroke="#929292" d="M -1.19551 1.59401 C -1.09587 .99626 0 .09961 .29886 0 C 0 -.09961 -1.09587 -.99626 -1.19551 -1.59401 "/>
<path transform="matrix(1,0,0,-1,14.9599,10.7630009)" stroke-width=".3985" stroke-linecap="butt" stroke-miterlimit="10" stroke-linejoin="miter" fill="none" stroke="#929292" d="M 7.15543 -133.1479 L 62.70123 -66.4922 "/>
<path transform="matrix(.64124,-.76949,-.76949,-.64124,77.66113,77.25522)" stroke-width=".31879" stroke-linecap="round" stroke-linejoin="round" fill="none" stroke="#929292" d="M -1.19551 1.59401 C -1.09587 .99626 0 .09961 .29886 0 C 0 -.09961 -1.09587 -.99626 -1.19551 -1.59401 "/>
<path transform="matrix(1,0,0,-1,14.9599,10.7630009)" stroke-width=".3985" stroke-linecap="butt" stroke-miterlimit="10" stroke-linejoin="miter" fill="none" stroke="#929292" d="M 8.7557 -134.72913 L 60.87491 -93.03406 "/>
<path transform="matrix(.78468,-.6277,-.6277,-.78468,75.83481,103.79707)" stroke-width=".31879" stroke-linecap="round" stroke-linejoin="round" fill="none" stroke="#929292" d="M -1.19551 1.59401 C -1.09587 .99626 0 .09961 .29886 0 C 0 -.09961 -1.09587 -.99626 -1.19551 -1.59401 "/>
<path transform="matrix(1,0,0,-1,14.9599,10.7630009)" stroke-width=".3985" stroke-linecap="butt" stroke-miterlimit="10" stroke-linejoin="miter" fill="none" stroke="#929292" d="M 10.39568 -137.57558 L 59.00337 -118.13255 "/>
<path transform="matrix(.93166,-.37265,-.37265,-.93166,73.96326,128.89557)" stroke-width=".31879" stroke-linecap="round" stroke-linejoin="round" fill="none" stroke="#929292" d="M -1.19551 1.59401 C -1.09587 .99626 0 .09961 .29886 0 C 0 -.09961 -1.09587 -.99626 -1.19551 -1.59401 "/>
<path transform="matrix(1,0,0,-1,14.9599,10.7630009)" stroke-width=".3985" stroke-linecap="butt" stroke-miterlimit="10" stroke-linejoin="miter" fill="none" stroke="#929292" d="M 11.1583 -141.73404 L 58.13306 -141.73409 "/>
<path transform="matrix(1,0,0,-1,73.09296,152.49709)" stroke-width=".31879" stroke-linecap="round" stroke-linejoin="round" fill="none" stroke="#929292" d="M -1.19551 1.59401 C -1.09587 .99626 0 .09961 .29886 0 C 0 -.09961 -1.09587 -.99626 -1.19551 -1.59401 "/>
<path transform="matrix(1,0,0,-1,14.9599,10.7630009)" stroke-width=".3985" stroke-linecap="butt" stroke-miterlimit="10" stroke-linejoin="miter" fill="none" stroke="#929292" d="M 10.39568 -145.89235 L 58.49312 -165.13147 "/>
<path transform="matrix(.92848,.37141,.37141,-.92848,73.45302,175.89446)" stroke-width=".31879" stroke-linecap="round" stroke-linejoin="round" fill="none" stroke="#929292" d="M -1.19551 1.59401 C -1.09587 .99626 0 .09961 .29886 0 C 0 -.09961 -1.09587 -.99626 -1.19551 -1.59401 "/>
<path transform="matrix(1,0,0,-1,14.9599,10.7630009)" stroke-width=".3985" stroke-linecap="butt" stroke-miterlimit="10" stroke-linejoin="miter" fill="none" stroke="#929292" d="M 8.7557 -148.73845 L 60.24622 -189.93106 "/>
<path transform="matrix(.78087,.62471,.62471,-.78087,75.206119,200.69406)" stroke-width=".31879" stroke-linecap="round" stroke-linejoin="round" fill="none" stroke="#929292" d="M -1.19551 1.59401 C -1.09587 .99626 0 .09961 .29886 0 C 0 -.09961 -1.09587 -.99626 -1.19551 -1.59401 "/>
<path transform="matrix(1,0,0,-1,14.9599,10.7630009)" stroke-width=".3985" stroke-linecap="butt" stroke-miterlimit="10" stroke-linejoin="miter" fill="none" stroke="#929292" d="M 5.92749 -160.59743 L 64.10275 -67.5162 "/>
<path transform="matrix(.53117,-.8499,-.8499,-.53117,79.06264,78.2792)" stroke-width=".31879" stroke-linecap="round" stroke-linejoin="round" fill="none" stroke="#929292" d="M -1.19551 1.59401 C -1.09587 .99626 0 .09961 .29886 0 C 0 -.09961 -1.09587 -.99626 -1.19551 -1.59401 "/>
<path transform="matrix(1,0,0,-1,14.9599,10.7630009)" stroke-width=".3985" stroke-linecap="butt" stroke-miterlimit="10" stroke-linejoin="miter" fill="none" stroke="#929292" d="M 7.15543 -161.49472 L 62.70123 -94.83902 "/>
<path transform="matrix(.64124,-.76949,-.76949,-.64124,77.66113,105.60204)" stroke-width=".31879" stroke-linecap="round" stroke-linejoin="round" fill="none" stroke="#929292" d="M -1.19551 1.59401 C -1.09587 .99626 0 .09961 .29886 0 C 0 -.09961 -1.09587 -.99626 -1.19551 -1.59401 "/>
<path transform="matrix(1,0,0,-1,14.9599,10.7630009)" stroke-width=".3985" stroke-linecap="butt" stroke-miterlimit="10" stroke-linejoin="miter" fill="none" stroke="#929292" d="M 8.7557 -163.07593 L 60.87491 -121.38089 "/>
<path transform="matrix(.78468,-.6277,-.6277,-.78468,75.83481,132.14389)" stroke-width=".31879" stroke-linecap="round" stroke-linejoin="round" fill="none" stroke="#929292" d="M -1.19551 1.59401 C -1.09587 .99626 0 .09961 .29886 0 C 0 -.09961 -1.09587 -.99626 -1.19551 -1.59401 "/>
<path transform="matrix(1,0,0,-1,14.9599,10.7630009)" stroke-width=".3985" stroke-linecap="butt" stroke-miterlimit="10" stroke-linejoin="miter" fill="none" stroke="#929292" d="M 10.39568 -165.92238 L 59.00337 -146.47939 "/>
<path transform="matrix(.93166,-.37265,-.37265,-.93166,73.96326,157.2424)" stroke-width=".31879" stroke-linecap="round" stroke-linejoin="round" fill="none" stroke="#929292" d="M -1.19551 1.59401 C -1.09587 .99626 0 .09961 .29886 0 C 0 -.09961 -1.09587 -.99626 -1.19551 -1.59401 "/>
<path transform="matrix(1,0,0,-1,14.9599,10.7630009)" stroke-width=".3985" stroke-linecap="butt" stroke-miterlimit="10" stroke-linejoin="miter" fill="none" stroke="#929292" d="M 11.1583 -170.08086 L 57.58043 -170.08092 "/>
<path transform="matrix(1,0,0,-1,72.54033,180.84392)" stroke-width=".31879" stroke-linecap="round" stroke-linejoin="round" fill="none" stroke="#929292" d="M -1.19551 1.59401 C -1.09587 .99626 0 .09961 .29886 0 C 0 -.09961 -1.09587 -.99626 -1.19551 -1.59401 "/>
<path transform="matrix(1,0,0,-1,14.9599,10.7630009)" stroke-width=".3985" stroke-linecap="butt" stroke-miterlimit="10" stroke-linejoin="miter" fill="none" stroke="#929292" d="M 10.39568 -174.23882 L 58.25496 -193.38303 "/>
<path transform="matrix(.92848,.37141,.37141,-.92848,73.21486,204.14601)" stroke-width=".31879" stroke-linecap="round" stroke-linejoin="round" fill="none" stroke="#929292" d="M -1.19551 1.59401 C -1.09587 .99626 0 .09961 .29886 0 C 0 -.09961 -1.09587 -.99626 -1.19551 -1.59401 "/>
<path transform="matrix(1,0,0,-1,14.9599,10.7630009)" stroke-width=".3985" stroke-linecap="butt" stroke-miterlimit="10" stroke-linejoin="miter" fill="none" stroke="#929292" d="M 5.56308 -187.3009 L 65.1498 -68.12865 "/>
<path transform="matrix(.44899,-.898,-.898,-.44899,80.1097,78.89166)" stroke-width=".31879" stroke-linecap="round" stroke-linejoin="round" fill="none" stroke="#929292" d="M -1.19551 1.59401 C -1.09587 .99626 0 .09961 .29886 0 C 0 -.09961 -1.09587 -.99626 -1.19551 -1.59401 "/>
<path transform="matrix(1,0,0,-1,14.9599,10.7630009)" stroke-width=".3985" stroke-linecap="butt" stroke-miterlimit="10" stroke-linejoin="miter" fill="none" stroke="#929292" d="M 6.60843 -187.85482 L 64.1027 -95.86304 "/>
<path transform="matrix(.5312,-.8499,-.8499,-.5312,79.0626,106.62604)" stroke-width=".31879" stroke-linecap="round" stroke-linejoin="round" fill="none" stroke="#929292" d="M -1.19551 1.59401 C -1.09587 .99626 0 .09961 .29886 0 C 0 -.09961 -1.09587 -.99626 -1.19551 -1.59401 "/>
<path transform="matrix(1,0,0,-1,14.9599,10.7630009)" stroke-width=".3985" stroke-linecap="butt" stroke-miterlimit="10" stroke-linejoin="miter" fill="none" stroke="#929292" d="M 7.97742 -188.85518 L 62.70119 -123.18585 "/>
<path transform="matrix(.64127,-.76949,-.76949,-.64127,77.66107,133.94887)" stroke-width=".31879" stroke-linecap="round" stroke-linejoin="round" fill="none" stroke="#929292" d="M -1.19551 1.59401 C -1.09587 .99626 0 .09961 .29886 0 C 0 -.09961 -1.09587 -.99626 -1.19551 -1.59401 "/>
<path transform="matrix(1,0,0,-1,14.9599,10.7630009)" stroke-width=".3985" stroke-linecap="butt" stroke-miterlimit="10" stroke-linejoin="miter" fill="none" stroke="#929292" d="M 9.76155 -190.61804 L 60.88045 -149.72338 "/>
<path transform="matrix(.78087,-.62473,-.62473,-.78087,75.84035,160.48639)" stroke-width=".31879" stroke-linecap="round" stroke-linejoin="round" fill="none" stroke="#929292" d="M -1.19551 1.59401 C -1.09587 .99626 0 .09961 .29886 0 C 0 -.09961 -1.09587 -.99626 -1.19551 -1.59401 "/>
<path transform="matrix(1,0,0,-1,14.9599,10.7630009)" stroke-width=".3985" stroke-linecap="butt" stroke-miterlimit="10" stroke-linejoin="miter" fill="none" stroke="#929292" d="M 11.5899 -193.79186 L 58.48851 -175.03215 "/>
<path transform="matrix(.93166,-.37265,-.37265,-.93166,73.448398,185.79517)" stroke-width=".31879" stroke-linecap="round" stroke-linejoin="round" fill="none" stroke="#929292" d="M -1.19551 1.59401 C -1.09587 .99626 0 .09961 .29886 0 C 0 -.09961 -1.09587 -.99626 -1.19551 -1.59401 "/>
<path transform="matrix(1,0,0,-1,14.9599,10.7630009)" stroke-width=".3985" stroke-linecap="butt" stroke-miterlimit="10" stroke-linejoin="miter" fill="none" stroke="#929292" d="M 12.44012 -198.42766 L 57.3248 -198.42772 "/>
<path transform="matrix(1,0,0,-1,72.2847,209.19072)" stroke-width=".31879" stroke-linecap="round" stroke-linejoin="round" fill="none" stroke="#929292" d="M -1.19551 1.59401 C -1.09587 .99626 0 .09961 .29886 0 C 0 -.09961 -1.09587 -.99626 -1.19551 -1.59401 "/>
<path transform="matrix(1,0,0,-1,14.9599,10.7630009)" stroke-width=".3985" stroke-linecap="butt" stroke-miterlimit="10" stroke-linejoin="miter" fill="none" stroke="#929292" d="M 4.30148 -216.45029 L 65.95796 -68.47568 "/>
<path transform="matrix(.3855,-.92525,-.92525,-.3855,80.91786,79.23868)" stroke-width=".31879" stroke-linecap="round" stroke-linejoin="round" fill="none" stroke="#929292" d="M -1.19551 1.59401 C -1.09587 .99626 0 .09961 .29886 0 C 0 -.09961 -1.09587 -.99626 -1.19551 -1.59401 "/>
<path transform="matrix(1,0,0,-1,14.9599,10.7630009)" stroke-width=".3985" stroke-linecap="butt" stroke-miterlimit="10" stroke-linejoin="miter" fill="none" stroke="#929292" d="M 4.98985 -216.79422 L 65.1498 -96.47548 "/>
<path transform="matrix(.44899,-.898,-.898,-.44899,80.1097,107.2385)" stroke-width=".31879" stroke-linecap="round" stroke-linejoin="round" fill="none" stroke="#929292" d="M -1.19551 1.59401 C -1.09587 .99626 0 .09961 .29886 0 C 0 -.09961 -1.09587 -.99626 -1.19551 -1.59401 "/>
<path transform="matrix(1,0,0,-1,14.9599,10.7630009)" stroke-width=".3985" stroke-linecap="butt" stroke-miterlimit="10" stroke-linejoin="miter" fill="none" stroke="#929292" d="M 5.92749 -217.29105 L 64.10275 -124.20985 "/>
<path transform="matrix(.53117,-.8499,-.8499,-.53117,79.06264,134.97284)" stroke-width=".31879" stroke-linecap="round" stroke-linejoin="round" fill="none" stroke="#929292" d="M -1.19551 1.59401 C -1.09587 .99626 0 .09961 .29886 0 C 0 -.09961 -1.09587 -.99626 -1.19551 -1.59401 "/>
<path transform="matrix(1,0,0,-1,14.9599,10.7630009)" stroke-width=".3985" stroke-linecap="butt" stroke-miterlimit="10" stroke-linejoin="miter" fill="none" stroke="#929292" d="M 7.15543 -218.18834 L 62.70123 -151.53267 "/>
<path transform="matrix(.64124,-.76949,-.76949,-.64124,77.66113,162.29569)" stroke-width=".31879" stroke-linecap="round" stroke-linejoin="round" fill="none" stroke="#929292" d="M -1.19551 1.59401 C -1.09587 .99626 0 .09961 .29886 0 C 0 -.09961 -1.09587 -.99626 -1.19551 -1.59401 "/>
<path transform="matrix(1,0,0,-1,14.9599,10.7630009)" stroke-width=".3985" stroke-linecap="butt" stroke-miterlimit="10" stroke-linejoin="miter" fill="none" stroke="#929292" d="M 8.7557 -219.7699 L 60.44681 -178.41712 "/>
<path transform="matrix(.78087,-.62473,-.62473,-.78087,75.40671,189.18013)" stroke-width=".31879" stroke-linecap="round" stroke-linejoin="round" fill="none" stroke="#929292" d="M -1.19551 1.59401 C -1.09587 .99626 0 .09961 .29886 0 C 0 -.09961 -1.09587 -.99626 -1.19551 -1.59401 "/>
<path transform="matrix(1,0,0,-1,14.9599,10.7630009)" stroke-width=".3985" stroke-linecap="butt" stroke-miterlimit="10" stroke-linejoin="miter" fill="none" stroke="#929292" d="M 10.39568 -222.6165 L 58.25496 -203.47243 "/>
<path transform="matrix(.92848,-.37141,-.37141,-.92848,73.21486,214.23545)" stroke-width=".31879" stroke-linecap="round" stroke-linejoin="round" fill="none" stroke="#929292" d="M -1.19551 1.59401 C -1.09587 .99626 0 .09961 .29886 0 C 0 -.09961 -1.09587 -.99626 -1.19551 -1.59401 "/>
<path transform="matrix(1,0,0,-1,14.9599,10.7630009)" stroke-width=".3985" stroke-linecap="butt" stroke-miterlimit="10" stroke-linejoin="miter" fill="none" stroke="#929292" d="M 81.94818 -58.9097 L 129.22397 -68.36534 "/>
<path transform="matrix(.98242,.19647,.19647,-.98242,144.18387,79.128337)" stroke-width=".31879" stroke-linecap="round" stroke-linejoin="round" fill="none" stroke="#929292" d="M -1.19551 1.59401 C -1.09587 .99626 0 .09961 .29886 0 C 0 -.09961 -1.09587 -.99626 -1.19551 -1.59401 "/>
<path transform="matrix(1,0,0,-1,14.9599,10.7630009)" stroke-width=".3985" stroke-linecap="butt" stroke-miterlimit="10" stroke-linejoin="miter" fill="none" stroke="#929292" d="M 80.58163 -62.52213 L 130.77223 -92.637 "/>
<path transform="matrix(.8575,.5145,.5145,-.8575,145.73213,103.39998)" stroke-width=".31879" stroke-linecap="round" stroke-linejoin="round" fill="none" stroke="#929292" d="M -1.19551 1.59401 C -1.09587 .99626 0 .09961 .29886 0 C 0 -.09961 -1.09587 -.99626 -1.19551 -1.59401 "/>
<path transform="matrix(1,0,0,-1,14.9599,10.7630009)" stroke-width=".3985" stroke-linecap="butt" stroke-miterlimit="10" stroke-linejoin="miter" fill="none" stroke="#929292" d="M 78.84297 -64.66937 L 132.72972 -118.5564 "/>
<path transform="matrix(.70717,.7071,.7071,-.70717,147.68962,129.3194)" stroke-width=".31879" stroke-linecap="round" stroke-linejoin="round" fill="none" stroke="#929292" d="M -1.19551 1.59401 C -1.09587 .99626 0 .09961 .29886 0 C 0 -.09961 -1.09587 -.99626 -1.19551 -1.59401 "/>
<path transform="matrix(1,0,0,-1,14.9599,10.7630009)" stroke-width=".3985" stroke-linecap="butt" stroke-miterlimit="10" stroke-linejoin="miter" fill="none" stroke="#929292" d="M 77.437 -65.89067 L 133.9958 -145.07382 "/>
<path transform="matrix(.58243,.81538,.81538,-.58243,148.95569,155.8368)" stroke-width=".31879" stroke-linecap="round" stroke-linejoin="round" fill="none" stroke="#929292" d="M -1.19551 1.59401 C -1.09587 .99626 0 .09961 .29886 0 C 0 -.09961 -1.09587 -.99626 -1.19551 -1.59401 "/>
<path transform="matrix(1,0,0,-1,14.9599,10.7630009)" stroke-width=".3985" stroke-linecap="butt" stroke-miterlimit="10" stroke-linejoin="miter" fill="none" stroke="#929292" d="M 76.35771 -66.5767 L 135.14197 -172.38855 "/>
<path transform="matrix(.48677,.8762,.8762,-.48677,150.10186,183.15155)" stroke-width=".31879" stroke-linecap="round" stroke-linejoin="round" fill="none" stroke="#929292" d="M -1.19551 1.59401 C -1.09587 .99626 0 .09961 .29886 0 C 0 -.09961 -1.09587 -.99626 -1.19551 -1.59401 "/>
<path transform="matrix(1,0,0,-1,14.9599,10.7630009)" stroke-width=".3985" stroke-linecap="butt" stroke-miterlimit="10" stroke-linejoin="miter" fill="none" stroke="#929292" d="M 81.94818 -82.82436 L 129.22397 -73.36871 "/>
<path transform="matrix(.98242,-.19647,-.19647,-.98242,144.18387,84.13173)" stroke-width=".31879" stroke-linecap="round" stroke-linejoin="round" fill="none" stroke="#929292" d="M -1.19551 1.59401 C -1.09587 .99626 0 .09961 .29886 0 C 0 -.09961 -1.09587 -.99626 -1.19551 -1.59401 "/>
<path transform="matrix(1,0,0,-1,14.9599,10.7630009)" stroke-width=".3985" stroke-linecap="butt" stroke-miterlimit="10" stroke-linejoin="miter" fill="none" stroke="#929292" d="M 81.94818 -87.25652 L 129.22397 -96.71217 "/>
<path transform="matrix(.98242,.19647,.19647,-.98242,144.18387,107.47516)" stroke-width=".31879" stroke-linecap="round" stroke-linejoin="round" fill="none" stroke="#929292" d="M -1.19551 1.59401 C -1.09587 .99626 0 .09961 .29886 0 C 0 -.09961 -1.09587 -.99626 -1.19551 -1.59401 "/>
<path transform="matrix(1,0,0,-1,14.9599,10.7630009)" stroke-width=".3985" stroke-linecap="butt" stroke-miterlimit="10" stroke-linejoin="miter" fill="none" stroke="#929292" d="M 80.58163 -90.86896 L 130.77223 -120.98381 "/>
<path transform="matrix(.8575,.5145,.5145,-.8575,145.73213,131.7468)" stroke-width=".31879" stroke-linecap="round" stroke-linejoin="round" fill="none" stroke="#929292" d="M -1.19551 1.59401 C -1.09587 .99626 0 .09961 .29886 0 C 0 -.09961 -1.09587 -.99626 -1.19551 -1.59401 "/>
<path transform="matrix(1,0,0,-1,14.9599,10.7630009)" stroke-width=".3985" stroke-linecap="butt" stroke-miterlimit="10" stroke-linejoin="miter" fill="none" stroke="#929292" d="M 78.84349 -93.0162 L 132.33904 -146.51245 "/>
<path transform="matrix(.70712,.7071,.7071,-.70712,147.29892,157.27545)" stroke-width=".31879" stroke-linecap="round" stroke-linejoin="round" fill="none" stroke="#929292" d="M -1.19551 1.59401 C -1.09587 .99626 0 .09961 .29886 0 C 0 -.09961 -1.09587 -.99626 -1.19551 -1.59401 "/>
<path transform="matrix(1,0,0,-1,14.9599,10.7630009)" stroke-width=".3985" stroke-linecap="butt" stroke-miterlimit="10" stroke-linejoin="miter" fill="none" stroke="#929292" d="M 77.43665 -94.2375 L 133.84697 -173.21222 "/>
<path transform="matrix(.5824,.81538,.81538,-.5824,148.80686,183.9752)" stroke-width=".31879" stroke-linecap="round" stroke-linejoin="round" fill="none" stroke="#929292" d="M -1.19551 1.59401 C -1.09587 .99626 0 .09961 .29886 0 C 0 -.09961 -1.09587 -.99626 -1.19551 -1.59401 "/>
<path transform="matrix(1,0,0,-1,14.9599,10.7630009)" stroke-width=".3985" stroke-linecap="butt" stroke-miterlimit="10" stroke-linejoin="miter" fill="none" stroke="#929292" d="M 80.58163 -107.55875 L 130.77223 -77.4439 "/>
<path transform="matrix(.8575,-.5145,-.5145,-.8575,145.73213,88.20691)" stroke-width=".31879" stroke-linecap="round" stroke-linejoin="round" fill="none" stroke="#929292" d="M -1.19551 1.59401 C -1.09587 .99626 0 .09961 .29886 0 C 0 -.09961 -1.09587 -.99626 -1.19551 -1.59401 "/>
<path transform="matrix(1,0,0,-1,14.9599,10.7630009)" stroke-width=".3985" stroke-linecap="butt" stroke-miterlimit="10" stroke-linejoin="miter" fill="none" stroke="#929292" d="M 81.94818 -111.17117 L 129.22397 -101.71553 "/>
<path transform="matrix(.98242,-.19647,-.19647,-.98242,144.18387,112.47855)" stroke-width=".31879" stroke-linecap="round" stroke-linejoin="round" fill="none" stroke="#929292" d="M -1.19551 1.59401 C -1.09587 .99626 0 .09961 .29886 0 C 0 -.09961 -1.09587 -.99626 -1.19551 -1.59401 "/>
<path transform="matrix(1,0,0,-1,14.9599,10.7630009)" stroke-width=".3985" stroke-linecap="butt" stroke-miterlimit="10" stroke-linejoin="miter" fill="none" stroke="#929292" d="M 81.94818 -115.60335 L 129.22397 -125.05899 "/>
<path transform="matrix(.98242,.19647,.19647,-.98242,144.18387,135.82199)" stroke-width=".31879" stroke-linecap="round" stroke-linejoin="round" fill="none" stroke="#929292" d="M -1.19551 1.59401 C -1.09587 .99626 0 .09961 .29886 0 C 0 -.09961 -1.09587 -.99626 -1.19551 -1.59401 "/>
<path transform="matrix(1,0,0,-1,14.9599,10.7630009)" stroke-width=".3985" stroke-linecap="butt" stroke-miterlimit="10" stroke-linejoin="miter" fill="none" stroke="#929292" d="M 80.53912 -119.19048 L 130.29628 -149.04509 "/>
<path transform="matrix(.8575,.5145,.5145,-.8575,145.25618,159.80808)" stroke-width=".31879" stroke-linecap="round" stroke-linejoin="round" fill="none" stroke="#929292" d="M -1.19551 1.59401 C -1.09587 .99626 0 .09961 .29886 0 C 0 -.09961 -1.09587 -.99626 -1.19551 -1.59401 "/>
<path transform="matrix(1,0,0,-1,14.9599,10.7630009)" stroke-width=".3985" stroke-linecap="butt" stroke-miterlimit="10" stroke-linejoin="miter" fill="none" stroke="#929292" d="M 78.84262 -121.36302 L 132.15316 -174.67342 "/>
<path transform="matrix(.71065,.71062,.71062,-.71065,147.11305,185.4364)" stroke-width=".31879" stroke-linecap="round" stroke-linejoin="round" fill="none" stroke="#929292" d="M -1.19551 1.59401 C -1.09587 .99626 0 .09961 .29886 0 C 0 -.09961 -1.09587 -.99626 -1.19551 -1.59401 "/>
<path transform="matrix(1,0,0,-1,14.9599,10.7630009)" stroke-width=".3985" stroke-linecap="butt" stroke-miterlimit="10" stroke-linejoin="miter" fill="none" stroke="#929292" d="M 78.84297 -133.75833 L 132.72972 -79.8713 "/>
<path transform="matrix(.70717,-.7071,-.7071,-.70717,147.68962,90.6343)" stroke-width=".31879" stroke-linecap="round" stroke-linejoin="round" fill="none" stroke="#929292" d="M -1.19551 1.59401 C -1.09587 .99626 0 .09961 .29886 0 C 0 -.09961 -1.09587 -.99626 -1.19551 -1.59401 "/>
<path transform="matrix(1,0,0,-1,14.9599,10.7630009)" stroke-width=".3985" stroke-linecap="butt" stroke-miterlimit="10" stroke-linejoin="miter" fill="none" stroke="#929292" d="M 80.58163 -135.90558 L 130.77223 -105.79071 "/>
<path transform="matrix(.8575,-.5145,-.5145,-.8575,145.73213,116.553737)" stroke-width=".31879" stroke-linecap="round" stroke-linejoin="round" fill="none" stroke="#929292" d="M -1.19551 1.59401 C -1.09587 .99626 0 .09961 .29886 0 C 0 -.09961 -1.09587 -.99626 -1.19551 -1.59401 "/>
<path transform="matrix(1,0,0,-1,14.9599,10.7630009)" stroke-width=".3985" stroke-linecap="butt" stroke-miterlimit="10" stroke-linejoin="miter" fill="none" stroke="#929292" d="M 81.94818 -139.518 L 129.22397 -130.06237 "/>
<path transform="matrix(.98242,-.19647,-.19647,-.98242,144.18387,140.82538)" stroke-width=".31879" stroke-linecap="round" stroke-linejoin="round" fill="none" stroke="#929292" d="M -1.19551 1.59401 C -1.09587 .99626 0 .09961 .29886 0 C 0 -.09961 -1.09587 -.99626 -1.19551 -1.59401 "/>
<path transform="matrix(1,0,0,-1,14.9599,10.7630009)" stroke-width=".3985" stroke-linecap="butt" stroke-miterlimit="10" stroke-linejoin="miter" fill="none" stroke="#929292" d="M 81.94818 -143.95017 L 128.68375 -153.29776 "/>
<path transform="matrix(.98058,.19612,.19612,-.98058,143.64363,164.06075)" stroke-width=".31879" stroke-linecap="round" stroke-linejoin="round" fill="none" stroke="#929292" d="M -1.19551 1.59401 C -1.09587 .99626 0 .09961 .29886 0 C 0 -.09961 -1.09587 -.99626 -1.19551 -1.59401 "/>
<path transform="matrix(1,0,0,-1,14.9599,10.7630009)" stroke-width=".3985" stroke-linecap="butt" stroke-miterlimit="10" stroke-linejoin="miter" fill="none" stroke="#929292" d="M 80.53912 -147.53731 L 130.0761 -177.25975 "/>
<path transform="matrix(.8575,.51453,.51453,-.8575,145.036,188.02274)" stroke-width=".31879" stroke-linecap="round" stroke-linejoin="round" fill="none" stroke="#929292" d="M -1.19551 1.59401 C -1.09587 .99626 0 .09961 .29886 0 C 0 -.09961 -1.09587 -.99626 -1.19551 -1.59401 "/>
<path transform="matrix(1,0,0,-1,14.9599,10.7630009)" stroke-width=".3985" stroke-linecap="butt" stroke-miterlimit="10" stroke-linejoin="miter" fill="none" stroke="#929292" d="M 77.758 -160.43325 L 134.31764 -81.25009 "/>
<path transform="matrix(.58244,-.81538,-.81538,-.58244,149.27754,92.0131)" stroke-width=".31879" stroke-linecap="round" stroke-linejoin="round" fill="none" stroke="#929292" d="M -1.19551 1.59401 C -1.09587 .99626 0 .09961 .29886 0 C 0 -.09961 -1.09587 -.99626 -1.19551 -1.59401 "/>
<path transform="matrix(1,0,0,-1,14.9599,10.7630009)" stroke-width=".3985" stroke-linecap="butt" stroke-miterlimit="10" stroke-linejoin="miter" fill="none" stroke="#929292" d="M 79.23373 -161.71439 L 132.7298 -108.21814 "/>
<path transform="matrix(.70712,-.7071,-.7071,-.70712,147.68968,118.98114)" stroke-width=".31879" stroke-linecap="round" stroke-linejoin="round" fill="none" stroke="#929292" d="M -1.19551 1.59401 C -1.09587 .99626 0 .09961 .29886 0 C 0 -.09961 -1.09587 -.99626 -1.19551 -1.59401 "/>
<path transform="matrix(1,0,0,-1,14.9599,10.7630009)" stroke-width=".3985" stroke-linecap="butt" stroke-miterlimit="10" stroke-linejoin="miter" fill="none" stroke="#929292" d="M 81.05759 -163.96685 L 130.76676 -134.14086 "/>
<path transform="matrix(.86127,-.51677,-.51677,-.86127,145.72666,144.90387)" stroke-width=".31879" stroke-linecap="round" stroke-linejoin="round" fill="none" stroke="#929292" d="M -1.19551 1.59401 C -1.09587 .99626 0 .09961 .29886 0 C 0 -.09961 -1.09587 -.99626 -1.19551 -1.59401 "/>
<path transform="matrix(1,0,0,-1,14.9599,10.7630009)" stroke-width=".3985" stroke-linecap="butt" stroke-miterlimit="10" stroke-linejoin="miter" fill="none" stroke="#929292" d="M 82.49109 -167.75626 L 128.68375 -158.51726 "/>
<path transform="matrix(.98058,-.19614,-.19614,-.98058,143.64363,169.28026)" stroke-width=".31879" stroke-linecap="round" stroke-linejoin="round" fill="none" stroke="#929292" d="M -1.19551 1.59401 C -1.09587 .99626 0 .09961 .29886 0 C 0 -.09961 -1.09587 -.99626 -1.19551 -1.59401 "/>
<path transform="matrix(1,0,0,-1,14.9599,10.7630009)" stroke-width=".3985" stroke-linecap="butt" stroke-miterlimit="10" stroke-linejoin="miter" fill="none" stroke="#929292" d="M 82.49109 -172.40557 L 128.42992 -181.59383 "/>
<path transform="matrix(.98242,.19649,.19649,-.98242,143.38982,192.35683)" stroke-width=".31879" stroke-linecap="round" stroke-linejoin="round" fill="none" stroke="#929292" d="M -1.19551 1.59401 C -1.09587 .99626 0 .09961 .29886 0 C 0 -.09961 -1.09587 -.99626 -1.19551 -1.59401 "/>
<path transform="matrix(1,0,0,-1,14.9599,10.7630009)" stroke-width=".3985" stroke-linecap="butt" stroke-miterlimit="10" stroke-linejoin="miter" fill="none" stroke="#929292" d="M 76.75096 -187.83643 L 135.5354 -82.02461 "/>
<path transform="matrix(.48677,-.8762,-.8762,-.48677,150.49529,92.78761)" stroke-width=".31879" stroke-linecap="round" stroke-linejoin="round" fill="none" stroke="#929292" d="M -1.19551 1.59401 C -1.09587 .99626 0 .09961 .29886 0 C 0 -.09961 -1.09587 -.99626 -1.19551 -1.59401 "/>
<path transform="matrix(1,0,0,-1,14.9599,10.7630009)" stroke-width=".3985" stroke-linecap="butt" stroke-miterlimit="10" stroke-linejoin="miter" fill="none" stroke="#929292" d="M 77.90686 -188.57163 L 134.31769 -109.59692 "/>
<path transform="matrix(.58241,-.81538,-.81538,-.58241,149.27759,120.35994)" stroke-width=".31879" stroke-linecap="round" stroke-linejoin="round" fill="none" stroke="#929292" d="M -1.19551 1.59401 C -1.09587 .99626 0 .09961 .29886 0 C 0 -.09961 -1.09587 -.99626 -1.19551 -1.59401 "/>
<path transform="matrix(1,0,0,-1,14.9599,10.7630009)" stroke-width=".3985" stroke-linecap="butt" stroke-miterlimit="10" stroke-linejoin="miter" fill="none" stroke="#929292" d="M 79.41432 -189.88027 L 132.72982 -136.56505 "/>
<path transform="matrix(.7071,-.70717,-.70717,-.7071,147.68972,147.32805)" stroke-width=".31879" stroke-linecap="round" stroke-linejoin="round" fill="none" stroke="#929292" d="M -1.19551 1.59401 C -1.09587 .99626 0 .09961 .29886 0 C 0 -.09961 -1.09587 -.99626 -1.19551 -1.59401 "/>
<path transform="matrix(1,0,0,-1,14.9599,10.7630009)" stroke-width=".3985" stroke-linecap="butt" stroke-miterlimit="10" stroke-linejoin="miter" fill="none" stroke="#929292" d="M 81.23221 -192.20867 L 130.29628 -162.76996 "/>
<path transform="matrix(.8575,-.51453,-.51453,-.8575,145.25618,173.53298)" stroke-width=".31879" stroke-linecap="round" stroke-linejoin="round" fill="none" stroke="#929292" d="M -1.19551 1.59401 C -1.09587 .99626 0 .09961 .29886 0 C 0 -.09961 -1.09587 -.99626 -1.19551 -1.59401 "/>
<path transform="matrix(1,0,0,-1,14.9599,10.7630009)" stroke-width=".3985" stroke-linecap="butt" stroke-miterlimit="10" stroke-linejoin="miter" fill="none" stroke="#929292" d="M 82.74223 -196.05284 L 128.42992 -186.9148 "/>
<path transform="matrix(.98242,-.19647,-.19647,-.98242,143.38982,197.67781)" stroke-width=".31879" stroke-linecap="round" stroke-linejoin="round" fill="none" stroke="#929292" d="M -1.19551 1.59401 C -1.09587 .99626 0 .09961 .29886 0 C 0 -.09961 -1.09587 -.99626 -1.19551 -1.59401 "/>
<path transform="matrix(1,0,0,-1,14.9599,10.7630009)" stroke-width=".3985" stroke-linecap="butt" stroke-miterlimit="10" stroke-linejoin="miter" fill="none" stroke="#929292" d="M 152.81525 -73.08311 L 200.11492 -82.54353 "/>
<path transform="matrix(.98242,.19647,.19647,-.98242,215.07482,93.30652)" stroke-width=".31879" stroke-linecap="round" stroke-linejoin="round" fill="none" stroke="#929292" d="M -1.19551 1.59401 C -1.09587 .99626 0 .09961 .29886 0 C 0 -.09961 -1.09587 -.99626 -1.19551 -1.59401 "/>
<path transform="matrix(1,0,0,-1,14.9599,10.7630009)" stroke-width=".3985" stroke-linecap="butt" stroke-miterlimit="10" stroke-linejoin="miter" fill="none" stroke="#929292" d="M 151.40618 -76.67075 L 201.66024 -106.82294 "/>
<path transform="matrix(.8575,.5145,.5145,-.8575,216.62014,117.58592)" stroke-width=".31879" stroke-linecap="round" stroke-linejoin="round" fill="none" stroke="#929292" d="M -1.19551 1.59401 C -1.09587 .99626 0 .09961 .29886 0 C 0 -.09961 -1.09587 -.99626 -1.19551 -1.59401 "/>
<path transform="matrix(1,0,0,-1,14.9599,10.7630009)" stroke-width=".3985" stroke-linecap="butt" stroke-miterlimit="10" stroke-linejoin="miter" fill="none" stroke="#929292" d="M 149.70987 -78.84312 L 203.68251 -132.81536 "/>
<path transform="matrix(.7071,.70714,.70714,-.7071,218.64241,143.57834)" stroke-width=".31879" stroke-linecap="round" stroke-linejoin="round" fill="none" stroke="#929292" d="M -1.19551 1.59401 C -1.09587 .99626 0 .09961 .29886 0 C 0 -.09961 -1.09587 -.99626 -1.19551 -1.59401 "/>
<path transform="matrix(1,0,0,-1,14.9599,10.7630009)" stroke-width=".3985" stroke-linecap="butt" stroke-miterlimit="10" stroke-linejoin="miter" fill="none" stroke="#929292" d="M 148.30406 -80.06409 L 205.19893 -159.71762 "/>
<path transform="matrix(.5824,.81538,.81538,-.5824,220.15882,170.4806)" stroke-width=".31879" stroke-linecap="round" stroke-linejoin="round" fill="none" stroke="#929292" d="M -1.19551 1.59401 C -1.09587 .99626 0 .09961 .29886 0 C 0 -.09961 -1.09587 -.99626 -1.19551 -1.59401 "/>
<path transform="matrix(1,0,0,-1,14.9599,10.7630009)" stroke-width=".3985" stroke-linecap="butt" stroke-miterlimit="10" stroke-linejoin="miter" fill="none" stroke="#929292" d="M 152.81525 -96.99777 L 200.11492 -87.53732 "/>
<path transform="matrix(.98242,-.19647,-.19647,-.98242,215.07482,98.30034)" stroke-width=".31879" stroke-linecap="round" stroke-linejoin="round" fill="none" stroke="#929292" d="M -1.19551 1.59401 C -1.09587 .99626 0 .09961 .29886 0 C 0 -.09961 -1.09587 -.99626 -1.19551 -1.59401 "/>
<path transform="matrix(1,0,0,-1,14.9599,10.7630009)" stroke-width=".3985" stroke-linecap="butt" stroke-miterlimit="10" stroke-linejoin="miter" fill="none" stroke="#929292" d="M 152.81525 -101.42993 L 200.11492 -110.89034 "/>
<path transform="matrix(.98242,.19647,.19647,-.98242,215.07482,121.65332)" stroke-width=".31879" stroke-linecap="round" stroke-linejoin="round" fill="none" stroke="#929292" d="M -1.19551 1.59401 C -1.09587 .99626 0 .09961 .29886 0 C 0 -.09961 -1.09587 -.99626 -1.19551 -1.59401 "/>
<path transform="matrix(1,0,0,-1,14.9599,10.7630009)" stroke-width=".3985" stroke-linecap="butt" stroke-miterlimit="10" stroke-linejoin="miter" fill="none" stroke="#929292" d="M 151.4487 -105.04236 L 201.7436 -135.2198 "/>
<path transform="matrix(.8575,.51448,.51448,-.8575,216.7035,145.98279)" stroke-width=".31879" stroke-linecap="round" stroke-linejoin="round" fill="none" stroke="#929292" d="M -1.19551 1.59401 C -1.09587 .99626 0 .09961 .29886 0 C 0 -.09961 -1.09587 -.99626 -1.19551 -1.59401 "/>
<path transform="matrix(1,0,0,-1,14.9599,10.7630009)" stroke-width=".3985" stroke-linecap="butt" stroke-miterlimit="10" stroke-linejoin="miter" fill="none" stroke="#929292" d="M 149.70987 -107.18994 L 203.61408 -161.09374 "/>
<path transform="matrix(.7071,.70714,.70714,-.7071,218.57398,171.85672)" stroke-width=".31879" stroke-linecap="round" stroke-linejoin="round" fill="none" stroke="#929292" d="M -1.19551 1.59401 C -1.09587 .99626 0 .09961 .29886 0 C 0 -.09961 -1.09587 -.99626 -1.19551 -1.59401 "/>
<path transform="matrix(1,0,0,-1,14.9599,10.7630009)" stroke-width=".3985" stroke-linecap="butt" stroke-miterlimit="10" stroke-linejoin="miter" fill="none" stroke="#929292" d="M 151.40618 -121.75696 L 201.66024 -91.6047 "/>
<path transform="matrix(.8575,-.5145,-.5145,-.8575,216.62014,102.36772)" stroke-width=".31879" stroke-linecap="round" stroke-linejoin="round" fill="none" stroke="#929292" d="M -1.19551 1.59401 C -1.09587 .99626 0 .09961 .29886 0 C 0 -.09961 -1.09587 -.99626 -1.19551 -1.59401 "/>
<path transform="matrix(1,0,0,-1,14.9599,10.7630009)" stroke-width=".3985" stroke-linecap="butt" stroke-miterlimit="10" stroke-linejoin="miter" fill="none" stroke="#929292" d="M 152.81525 -125.34459 L 200.11492 -115.88412 "/>
<path transform="matrix(.98242,-.19647,-.19647,-.98242,215.07482,126.64714)" stroke-width=".31879" stroke-linecap="round" stroke-linejoin="round" fill="none" stroke="#929292" d="M -1.19551 1.59401 C -1.09587 .99626 0 .09961 .29886 0 C 0 -.09961 -1.09587 -.99626 -1.19551 -1.59401 "/>
<path transform="matrix(1,0,0,-1,14.9599,10.7630009)" stroke-width=".3985" stroke-linecap="butt" stroke-miterlimit="10" stroke-linejoin="miter" fill="none" stroke="#929292" d="M 152.81525 -129.77677 L 200.21002 -139.25617 "/>
<path transform="matrix(.98242,.19647,.19647,-.98242,215.16992,150.01915)" stroke-width=".31879" stroke-linecap="round" stroke-linejoin="round" fill="none" stroke="#929292" d="M -1.19551 1.59401 C -1.09587 .99626 0 .09961 .29886 0 C 0 -.09961 -1.09587 -.99626 -1.19551 -1.59401 "/>
<path transform="matrix(1,0,0,-1,14.9599,10.7630009)" stroke-width=".3985" stroke-linecap="butt" stroke-miterlimit="10" stroke-linejoin="miter" fill="none" stroke="#929292" d="M 151.40618 -133.3644 L 201.66024 -163.51656 "/>
<path transform="matrix(.8575,.5145,.5145,-.8575,216.62014,174.27954)" stroke-width=".31879" stroke-linecap="round" stroke-linejoin="round" fill="none" stroke="#929292" d="M -1.19551 1.59401 C -1.09587 .99626 0 .09961 .29886 0 C 0 -.09961 -1.09587 -.99626 -1.19551 -1.59401 "/>
<path transform="matrix(1,0,0,-1,14.9599,10.7630009)" stroke-width=".3985" stroke-linecap="butt" stroke-miterlimit="10" stroke-linejoin="miter" fill="none" stroke="#929292" d="M 150.10099 -147.54097 L 203.61409 -94.0275 "/>
<path transform="matrix(.70709,-.7071,-.7071,-.70709,218.57399,104.7905)" stroke-width=".31879" stroke-linecap="round" stroke-linejoin="round" fill="none" stroke="#929292" d="M -1.19551 1.59401 C -1.09587 .99626 0 .09961 .29886 0 C 0 -.09961 -1.09587 -.99626 -1.19551 -1.59401 "/>
<path transform="matrix(1,0,0,-1,14.9599,10.7630009)" stroke-width=".3985" stroke-linecap="butt" stroke-miterlimit="10" stroke-linejoin="miter" fill="none" stroke="#929292" d="M 151.88005 -149.81943 L 201.65476 -119.95479 "/>
<path transform="matrix(.86127,-.51674,-.51674,-.86127,216.61466,130.7178)" stroke-width=".31879" stroke-linecap="round" stroke-linejoin="round" fill="none" stroke="#929292" d="M -1.19551 1.59401 C -1.09587 .99626 0 .09961 .29886 0 C 0 -.09961 -1.09587 -.99626 -1.19551 -1.59401 "/>
<path transform="matrix(1,0,0,-1,14.9599,10.7630009)" stroke-width=".3985" stroke-linecap="butt" stroke-miterlimit="10" stroke-linejoin="miter" fill="none" stroke="#929292" d="M 153.35816 -153.58284 L 200.2127 -144.21141 "/>
<path transform="matrix(.98058,-.19612,-.19612,-.98058,215.17259,154.97443)" stroke-width=".31879" stroke-linecap="round" stroke-linejoin="round" fill="none" stroke="#929292" d="M -1.19551 1.59401 C -1.09587 .99626 0 .09961 .29886 0 C 0 -.09961 -1.09587 -.99626 -1.19551 -1.59401 "/>
<path transform="matrix(1,0,0,-1,14.9599,10.7630009)" stroke-width=".3985" stroke-linecap="butt" stroke-miterlimit="10" stroke-linejoin="miter" fill="none" stroke="#929292" d="M 153.35816 -158.23217 L 200.11492 -167.58396 "/>
<path transform="matrix(.98242,.19647,.19647,-.98242,215.07482,178.34694)" stroke-width=".31879" stroke-linecap="round" stroke-linejoin="round" fill="none" stroke="#929292" d="M -1.19551 1.59401 C -1.09587 .99626 0 .09961 .29886 0 C 0 -.09961 -1.09587 -.99626 -1.19551 -1.59401 "/>
<path transform="matrix(1,0,0,-1,14.9599,10.7630009)" stroke-width=".3985" stroke-linecap="butt" stroke-miterlimit="10" stroke-linejoin="miter" fill="none" stroke="#929292" d="M 148.77486 -174.39823 L 205.19893 -95.40366 "/>
<path transform="matrix(.5824,-.81538,-.81538,-.5824,220.15882,106.16667)" stroke-width=".31879" stroke-linecap="round" stroke-linejoin="round" fill="none" stroke="#929292" d="M -1.19551 1.59401 C -1.09587 .99626 0 .09961 .29886 0 C 0 -.09961 -1.09587 -.99626 -1.19551 -1.59401 "/>
<path transform="matrix(1,0,0,-1,14.9599,10.7630009)" stroke-width=".3985" stroke-linecap="butt" stroke-miterlimit="10" stroke-linejoin="miter" fill="none" stroke="#929292" d="M 150.28177 -175.70705 L 203.61406 -122.37431 "/>
<path transform="matrix(.70712,-.7071,-.7071,-.70712,218.57395,133.13732)" stroke-width=".31879" stroke-linecap="round" stroke-linejoin="round" fill="none" stroke="#929292" d="M -1.19551 1.59401 C -1.09587 .99626 0 .09961 .29886 0 C 0 -.09961 -1.09587 -.99626 -1.19551 -1.59401 "/>
<path transform="matrix(1,0,0,-1,14.9599,10.7630009)" stroke-width=".3985" stroke-linecap="butt" stroke-miterlimit="10" stroke-linejoin="miter" fill="none" stroke="#929292" d="M 152.14482 -178.00797 L 201.73813 -148.25164 "/>
<path transform="matrix(.86127,-.51678,-.51678,-.86127,216.69803,159.01465)" stroke-width=".31879" stroke-linecap="round" stroke-linejoin="round" fill="none" stroke="#929292" d="M -1.19551 1.59401 C -1.09587 .99626 0 .09961 .29886 0 C 0 -.09961 -1.09587 -.99626 -1.19551 -1.59401 "/>
<path transform="matrix(1,0,0,-1,14.9599,10.7630009)" stroke-width=".3985" stroke-linecap="butt" stroke-miterlimit="10" stroke-linejoin="miter" fill="none" stroke="#929292" d="M 153.6093 -181.87944 L 200.11492 -172.57778 "/>
<path transform="matrix(.98242,-.19649,-.19649,-.98242,215.07482,183.34078)" stroke-width=".31879" stroke-linecap="round" stroke-linejoin="round" fill="none" stroke="#929292" d="M -1.19551 1.59401 C -1.09587 .99626 0 .09961 .29886 0 C 0 -.09961 -1.09587 -.99626 -1.19551 -1.59401 "/>
<text xml:space="preserve" transform="matrix(1 0 -0 1 -152.28409 668.268)" font-size="6.9738" font-family="CMR7"><tspan y="-617.227" x="296.537 302.4159 304.66844 309.0689 313.4694 317.0121">Hidden</tspan><tspan y="-609.257" x="294.65699 296.90953 300.6684 304.63648 308.17918">layer</tspan></text>
<text xml:space="preserve" transform="matrix(1 0 -0 1 -152.28409 668.268)" font-size="6.9738" font-family="CMMI7" font-style="italic"><tspan y="-609.257" x="313.943">L</tspan></text>
<text xml:space="preserve" transform="matrix(1 0 -0 1 -152.28409 668.268)" font-size="4.9813" font-family="CMR5"><tspan y="-608.26107" x="319.408">2</tspan></text>
<text xml:space="preserve" transform="matrix(1 0 -0 1 -152.28412 668.268)" font-size="6.9738" font-family="CMR7"><tspan y="-631.4" x="225.671 231.54993 233.80246 238.20293 242.6034 246.14609">Hidden</tspan><tspan y="-623.43008" x="223.79001 226.04254 229.80142 233.77649 237.31919">layer</tspan></text>
<text xml:space="preserve" transform="matrix(1 0 -0 1 -152.28412 668.268)" font-size="6.9738" font-family="CMMI7" font-style="italic"><tspan y="-623.43008" x="243.07701">L</tspan></text>
<text xml:space="preserve" transform="matrix(1 0 -0 1 -152.28412 668.268)" font-size="4.9813" font-family="CMR5"><tspan y="-622.4341" x="248.542">1</tspan></text>
<text xml:space="preserve" transform="matrix(1 0 -0 1 -152.28409 668.26797)" font-size="6.9738" font-family="CMR7"><tspan y="-659.785" x="157.648 160.52817 164.92864 169.3291 173.72957">Input</tspan><tspan y="-651.815" x="158.92499 161.17752 164.9364 168.9045 172.44719">layer</tspan></text>
<text xml:space="preserve" transform="matrix(1 0 -0 1 -152.2841 668.26797)" font-size="6.9738" font-family="CMR7"><tspan y="-603.092" x="367.071 373.18705 377.58753 380.69786 385.09834 389.4988">Output</tspan><tspan y="-595.122" x="371.523 373.77555 377.53443 381.5025 385.0522">layer</tspan></text>
<text xml:space="preserve" transform="matrix(1 0 -0 1 -152.2841 668.268)" font-size="6.9738" font-family="CMBX7" font-weight="bold"><tspan y="-428.839" x="196.058">W</tspan></text>
<text xml:space="preserve" transform="matrix(1 0 -0 1 -152.2841 668.268)" font-size="4.9813" font-family="CMR5"><tspan y="-427.843" x="205.408">1</tspan></text>
<text xml:space="preserve" transform="matrix(1 0 -0 1 -152.28409 668.268)" font-size="6.9738" font-family="CMBX7" font-weight="bold"><tspan y="-449.453" x="267.632">W</tspan></text>
<text xml:space="preserve" transform="matrix(1 0 -0 1 -152.28409 668.268)" font-size="4.9813" font-family="CMR5"><tspan y="-448.457" x="276.85899">2</tspan></text>
<text xml:space="preserve" transform="matrix(1 0 -0 1 -152.2841 668.268)" font-size="6.9738" font-family="CMBX7" font-weight="bold"><tspan y="-463.128" x="341.868">B</tspan></text>
</g>
</svg>
